<?xml version="1.0" encoding="utf-8"?>
<!-- Generator: Adobe Illustrator 19.0.0, SVG Export Plug-In . SVG Version: 6.00 Build 0)  -->
<svg version="1.1" id="Layer_1" xmlns="http://www.w3.org/2000/svg" xmlns:xlink="http://www.w3.org/1999/xlink" x="0px" y="0px"
	 width="500px" height="500px" viewBox="-55 147 500 500" style="enable-background:new -55 147 500 500;" xml:space="preserve">
<style type="text/css">
	.st0{fill:#76767C;}
	.st1{fill:#474647;}
	.st2{fill:#AEAFB2;}
	.st3{fill:#241E1E;}
	.st4{fill:#A5A6AA;}
	.st5{fill:#3C3A3B;}
	.st6{fill:#575759;}
	.st7{fill:#ED1B24;}
	.st8{fill:#282323;}
	.st9{fill:#FEFEFE;}
	.st10{fill:#E4E5E7;}
	.st11{fill:#413E5A;}
	.st12{fill:#F5987B;}
	.st13{fill:#5C5A6F;}
	.st14{fill:#F2F2F3;}
	.st15{fill:#F6F6F6;}
	.st16{fill:#E11A22;}
	.st17{fill:#E41A22;}
	.st18{fill:#F27052;}
	.st19{fill:#C6161C;}
	.st20{fill:#E3E5E6;}
	.st21{fill:#EF4A34;}
	.st22{fill:#D4D5D7;}
	.st23{fill:#F0F0F0;}
	.st24{fill:#C6151D;}
	.st25{fill:#A70D12;}
	.st26{fill:#8E0405;}
	.st27{fill:#730101;}
</style>
<path d="M210.7,627.3c-4.5,0-9.8-0.2-15.2-1.6c-25.5-3.5-47.4-11.6-65-24.2c-12.1-7.8-22.3-18.3-32-28.6c-1.2-1.3-2.4-2.5-3.6-3.7
	c-2.2-2.4-4.6-4.8-6.9-7c-4.2-4.1-8.5-8.3-11.9-13.3C54.9,522,49,490.6,47.8,469c-1.3-33.1,7.4-68,25.4-100.7
	c7-12.2,15.4-24.4,24.9-36.3c-4.5-5-9-10.1-13.3-15c-5-5.7-10.2-11.6-15.4-17.3c-0.5-0.5-0.9-1.1-1.4-1.7c-1.3-1.7-2.7-3.5-5-3.7
	c-21.9-3.8-42.6-9-61.4-15.7C-11.4,274-21.7,268.3-30,261c-8.7-8.1-13.9-18.7-14.3-29c0.6-9.4,4.6-17.5,10.8-21.5
	c5.5-4.3,12.1-6.9,17.8-9c1.7-4.8-0.2-9-2.2-13.5c-1.8-4.1-3.8-8.4-2.5-13.1c0.3-7.9,7.9-12.8,14.8-12.8c1.6,0,3.2,0.3,4.7,0.8
	c6,1.8,10.8,6.3,15,10.3c3.9-4.3,10-10.1,18-12.2c3.2-0.8,6.5-1.2,9.8-1.2c10.5,0,20.2,4,26.6,10.9c0.8,0.8,1.6,1.6,2.5,2.4
	c1.9,1.8,3.8,3.7,5.4,5.8c15.6,22.7,24.5,51.4,26,83.1c4.3,3.5,8.5,7.3,12.6,10.9c7.9,7,16.1,14.2,25,20.2c3.1-1.9,6.1-4,9-6
	c4.6-3.2,9.3-6.5,14.3-9c34.3-19.2,71.6-29.3,107.7-29.3c2.4,0,4.8,0,7.1,0.1c25.3,1.7,61.5,8.8,90.5,33.7
	c10.9,8.9,20.6,20.4,30.5,36.4c16.9,20.9,28.1,42.7,33.2,65c1.6,4.8,2.1,10,2.6,14.9c0.3,3.3,0.6,6.8,1.3,10.1
	c0.7,13.4-0.9,27.6-5.1,46c-7,29.5-20.6,57.8-39.5,81.7c-1,1.3-2.1,2.6-3.1,3.9c-4,5.1-8.1,10.4-13.1,14.9
	c-40.1,41.8-94.2,68-148.4,71.9c-1.4-0.1-3-0.1-4.7-0.1c-1.9,0-3.9,0-5.8,0.1C214.6,627.3,212.6,627.3,210.7,627.3z M107,320.7
	c1,1.8,2.7,3.3,4.4,4.7c2.5,2.1,5.1,4.3,5.3,7.7l0,0.1l-0.1,0.1c-27.1,28.2-45.8,64-52.6,100.8c-7.5,39.2,1.6,79.5,24.3,107.6
	c4.6,5.6,10,10.8,15.1,15.8c5,4.9,10.2,9.9,14.8,15.4c13.8,15.3,33.3,27.1,56.2,34.3c6.4,1.9,13.1,3.1,19.6,4.2
	c3.6,0.6,7.3,1.3,10.9,2c3.1,0.2,6.2,0.2,9.4,0.2c29,0,58.9-7.3,86.3-21c0.4-0.2,0.8-0.3,1.3-0.5c1.4-0.5,2.7-1,3.2-2.4l0.1-0.1
	l0.2,0c0.1,0,0.2,0,0.3,0c1.4,0,2.6-0.7,3.7-1.4c0.4-0.3,0.9-0.5,1.3-0.7l2.1-1.2c8.7-5.1,17.8-10.3,25.5-17l0.1-0.1l0.3,0.1
	c2.2-1.9,4.5-3.8,6.7-5.6c6.6-5.3,13.4-10.9,18.8-17.5c8.9-8.5,17.3-18.8,25.9-31.6c7.1-11.3,13.3-21.6,17.5-32.9
	c4.9-11.2,8-20.4,9.6-28.9c2.8-10.1,4.5-20.8,4.9-31.7c0.6-5.8-0.1-11.6-0.7-17.2c-0.4-3.3-0.7-6.6-0.8-10
	c-2.6-13.8-8.1-28.2-17.5-45.2l-0.9-0.6l-0.9-0.6l0-0.1c-0.8-3-2.7-5.5-4.5-7.9c-0.9-1.3-1.9-2.5-2.7-3.9c-0.4-0.5-0.8-1.1-1.2-1.7
	c-1.4-2.1-2.8-4.2-4.9-5.6c-7.7-13.7-18-26.1-30.8-36.8c-20.9-16.9-48-27-76.3-28.4c-3.2-0.6-6.5-0.9-10.3-0.9
	c-4.7,0-9.6,0.5-14.2,0.9c-3.1,0.3-6.3,0.6-9.4,0.8c-38.2,4.9-75.6,21.5-108.4,48l-0.1,0.1l-0.1-0.1c-1.4-1.3-2.9-2.6-4.3-3.8
	c-1.1-0.9-2.3-1.9-3.4-2.9c-1-2.1-2.8-3.1-4.7-4.2c-1.8-1.1-3.7-2.2-4.8-4.3c-5.1-4-10-8.4-14.8-12.7c-4.9-4.4-10.1-9-15.4-13.1
	c-2.6-1.7-2.5-4.7-2.4-7.3c0-0.6,0-1.2,0-1.8c-1-19.2-5.1-37.3-12.1-53.7c-4.2-10.3-9.6-19-15.9-25.9c-5.8-5.8-12.7-9.2-18.9-9.2
	c-1.6,0-3.3,0.2-4.8,0.7c-9.9,3.3-15.9,12.7-19.2,20l-0.1,0.1l-0.1,0c-3,0-5-2.2-7.1-4.6c-1.6-1.8-3.3-3.7-5.5-4.5l-0.1,0l0,0
	c-1.4-1.6-3.2-3-4.9-4.3l-0.9-0.7c-1.4-1.2-2.7-2.5-4-3.8l-1.3-1.2c-0.6,1.5-1.1,3.1-0.5,4.6c2.7,5.8,5.9,11.3,8.6,15.9l0.1,0.1
	l-0.1,0.1c-1.6,1.5-3,2.9-3.7,4.8c-0.1,2.1,1.4,3.4,2.9,4.9c1.6,1.5,3.3,3.1,2.9,5.6l0,0.2l-0.2,0c-11.1,0.5-22.1,4.7-30.1,11.7
	c-2.4,3-5.3,6.8-4.3,11c1.7,8.1,7.5,15.8,16.2,21.5c7.8,5.3,17.1,9.4,28.3,12.6c7.6,3.2,15.8,5.1,23.8,6.9c2.4,0.6,4.9,1.1,7.3,1.7
	l1.1,0.3c4.3,1.1,8.8,2.3,13.3,2.3c1.2,0,2.4-0.1,3.5-0.3l0.3,0l-0.1,0.3c-0.1,0.4-0.4,1.2-0.5,1.8c1.7-0.3,3.5-1,5.4-2.2
	c-0.5-1-1.5-1.8-2.5-2.6c-1.5-1.3-3.2-2.7-2.8-4.8l0.1-0.3l0.3,0.2c5.8,3.8,11.8,7.3,17.9,10.7l0,0l0,0c1.1,2,2.2,3.5,3.4,4.6
	c6.1,5.9,12.2,12.1,18.1,18c2.2,2.2,4.3,4.3,6.5,6.5c11.3,9.9,22,20.9,31.5,30.6l0.2,0.2l-2.8,1.6c-1.6,0.5-3.2,1.1-4.7,1.6l-0.1,0
	l-0.1-0.1c-3.5-4.3-7.6-8.3-11.6-12.1c-1.9-1.8-3.8-3.7-5.7-5.6c-0.7-0.6-1.4-1.3-2-2C111.6,323.4,109.7,321.4,107,320.7z"/>
<path d="M32.1,161.1c12.6-3.1,27.2-0.1,36.2,9.6c2.6,2.7,5.6,5.2,7.8,8.3c16.6,24.3,24.6,53.9,26,83c12.6,10.4,24.2,22.1,37.8,31.3
	c7.9-4.8,15.1-10.9,23.4-15.1C198,258.8,238,247.5,278,249c32.4,2.1,65.4,12.2,90.4,33.6c12.4,10,22.1,22.9,30.5,36.4
	c15.4,19,27.7,40.9,33.2,64.9c2.7,8.1,2.2,16.8,3.9,25c0.8,15.5-1.7,30.9-5.1,45.9c-7,29.7-20.6,57.7-39.5,81.6
	c-5.1,6.5-10,13.2-16.1,18.8C336.5,595.6,283.2,623,227,627c-10.5-0.5-21.2,1.2-31.4-1.5c-23.1-3.1-45.9-10.6-64.9-24.2
	C117,592.7,106.1,580.6,95,569c-6.2-6.8-13.6-12.6-18.7-20.3C58.4,526.2,49.6,497.5,48,469c-1.4-35.1,8.6-70,25.3-100.6
	c7.4-12.8,15.8-24.9,25-36.4c-9.7-10.7-19.1-21.8-28.9-32.5c-1.9-2.1-3.4-5.3-6.5-5.5c-20.8-3.6-41.4-8.6-61.4-15.6
	c-11.4-4-22.4-9.5-31.5-17.5c-8-7.4-13.8-17.8-14.2-28.8c0.5-8.1,3.7-16.8,10.8-21.3c5.3-4.1,11.6-6.7,17.9-9
	c3.4-9.6-7.2-17.1-4.7-26.7c0.4-9.2,11-14.8,19.2-11.9c5.9,1.8,10.7,6.2,15,10.4C19,168,24.8,163.1,32.1,161.1 M36.8,173.7
	c-9.3,3.1-15.5,11.5-19.3,20.1c-5.2,0-7.5-7.3-12.5-9.1c-1.7-2-3.8-3.5-5.8-5.1c-1.9-1.7-3.7-3.4-5.5-5.1c-0.6,1.6-1.3,3.4-0.6,5.1
	c2.5,5.5,5.5,10.8,8.6,15.9c-1.5,1.4-3,2.9-3.8,4.9c-0.1,4.6,6.5,5.8,5.8,10.5c-10.9,0.4-22,4.5-30.2,11.7
	c-2.5,3.1-5.4,6.9-4.4,11.2c1.9,9.2,8.6,16.6,16.3,21.7c8.6,5.8,18.4,9.8,28.4,12.6c10,4.1,20.7,6,31.1,8.6c5.8,1.5,12,3.3,17.9,2.3
	c-0.2,0.5-0.5,1.5-0.6,2.1c2.2-0.3,4.2-1.2,6-2.4c-1.3-2.8-5.9-4.1-5.3-7.4c5.8,3.8,11.9,7.3,17.9,10.7c0.9,1.7,2,3.3,3.4,4.7
	c8.3,8.1,16.4,16.3,24.5,24.5c11,9.7,21.3,20.1,31.5,30.6c-0.6,0.4-1.9,1.1-2.6,1.5c-1.6,0.5-3.1,1-4.7,1.6
	c-5.2-6.4-11.5-11.8-17.3-17.7c-2.8-2.6-5.1-6.1-9.1-6.9c2.4,4.9,9.5,7,9.9,12.7c-26.6,27.7-45.6,63-52.7,100.9
	c-7.1,37.1,0.3,78,24.4,107.8c9.2,11.1,20.7,20.1,29.9,31.2c15,16.5,35.2,27.8,56.3,34.4c10,3,20.4,4.1,30.5,6.3
	c33,1.8,66.2-6,95.8-20.8c1.7-0.8,3.9-1.1,4.6-3c2,0.1,3.7-1.3,5.4-2.1c9.5-5.6,19.3-11,27.6-18.3l0.3,0.1
	c8.7-7.5,18.4-14.2,25.6-23.2c9.7-9.3,18.3-20.3,26-31.6c6.6-10.5,13.2-21.2,17.5-32.9c4.1-9.3,7.7-19,9.6-29
	c2.9-10.3,4.5-21,5-31.7c0.9-9.1-1.2-18.1-1.5-27.1c-3-16-9.7-31.1-17.5-45.3c-0.5-0.3-1.4-0.9-1.8-1.2c-1.3-4.6-4.8-7.9-7.2-11.8
	c-1.8-2.6-3.4-5.5-6.1-7.3c-7.9-14-18.5-26.4-30.7-36.8c-21.6-17.4-48.9-27-76.4-28.5c-11.3-2.2-22.7,0.2-34,0.8
	c-39.8,5.1-77.4,22.9-108.5,48.1c-2.5-2.3-5.2-4.4-7.7-6.7c-2-4.1-7.4-4.4-9.5-8.5c-10.4-8.3-19.8-17.7-30.2-25.9
	c-3.1-2-2.2-5.8-2.3-9c-1-18.4-4.9-36.7-12.1-53.7c-3.9-9.4-9-18.4-16-26C54.6,176.1,45.7,171.1,36.8,173.7z"/>
<path class="st0" d="M227.8,419.5c-3-2.3-5.7-5-8.2-7.7c-3.8-3.9-7.8-8-12.7-10.5c-6.6-6.1-13-12.2-19.1-18.3l-0.1-0.1l0.1-0.4
	c0.3-1.7,0.5-3.4,0.8-5.1l-0.1,0c-1.1,0.2-2.2,0.4-3.4,0.4c-2.2,0-3.6-0.7-4.6-2.1l0,0l0-0.1c-0.1-1.7,0.5-3.4,1-5
	c0.1-0.4,0.2-0.8,0.4-1.1c-0.4,0.1-0.8,0.3-1.3,0.5c-1.2,0.5-2.4,0.9-3.6,0.9c-1.1,0-1.9-0.4-2.6-1.2c-1.7-1.6-0.9-3.8-0.2-5.6
	c0.2-0.6,0.4-1.1,0.5-1.6c-0.5,0.2-1.1,0.4-1.6,0.6c-1.2,0.5-2.5,0.9-3.8,0.9c-0.3,0-0.6,0-0.9-0.1c-2.7-1.1-2.3-3.7-1.9-6
	c0.1-0.5,0.2-1,0.2-1.5c-0.3,0-0.6,0.1-1,0.1c-1.3,0.2-2.6,0.4-3.9,0.4c-0.2,0-0.3,0-0.5,0c-2.7-1.1-2.3-3.9-2-6.1
	c0.1-0.5,0.1-0.9,0.1-1.3c-0.5,0-1,0.1-1.5,0.2c-0.8,0.1-1.6,0.2-2.4,0.2c-1.1,0-2.7-0.2-3.4-2.1c-0.2-1.5,0-2.9,0.1-4.4
	c0-0.3,0.1-0.6,0.1-0.9c-0.5,0.1-1,0.1-1.5,0.1c-2.6,0-5.3-0.9-8.1-2.5l-0.2-0.1l0.2-0.2c0.3-0.3,1-0.9,1.4-1.2
	c1.8-2,3.2-4.3,4.6-6.5c-13.9-12.3-27.2-25.7-40.1-38.6c-7.5-7.5-15.3-15.3-23.1-22.8c-23-21.5-46.6-42.7-68.6-62.4
	c-1.8-1.3-2.9-3.4-3-5.7c0.9-2,1.7-3.8,2.4-5.5c-1.4-1.5-2.8-2.9-4.2-4.3c-2.5-2.4-5-4.9-7.1-7.7l-0.4-0.5l0.6,0.2
	c2.3,0.8,4,2.7,5.7,4.6c2,2.2,3.9,4.4,6.6,4.5c3.3-7.4,9.3-16.8,19.4-20.1c1.6-0.5,3.3-0.7,5-0.7c6.3,0,13.3,3.4,19.2,9.3
	c6.4,6.9,11.8,15.7,16,26c7,16.4,11.1,34.5,12.1,53.8c0,0.6,0,1.2,0,1.8c-0.1,2.7-0.2,5.4,2.2,7c5.3,4.2,10.5,8.8,15.4,13.2
	c4.8,4.3,9.7,8.7,14.8,12.7c1.1,2,2.9,3.1,4.7,4.2c1.9,1.1,3.8,2.2,4.9,4.4l0.3,0.6l-0.6-0.4c-1.4-0.9-3-1.7-4.8-2.6
	c6.6,7.3,14.4,13.7,21.9,19.9l1.1,0.9l-0.5-2.2l0.3,0.1c4.5,1.1,7.8,4.6,10.8,7.6c2.1,2.1,4.2,4.2,6.3,6.3
	c4.4,4.4,8.9,8.9,13.5,13.1c6.4,6,12.7,12.4,18.7,18.6l1.5,1.5c1.2,1.4,2.4,2.8,3.6,4.2c3.3,3.6,6.6,7.4,8.1,12.2
	c0.6,1.6-0.6,2.8-1.7,3.7c-0.4,0.4-0.8,0.7-1.1,1.1c1.3,1.4,2.8,3,4.3,4.6l0.1,0.1l0,0.1c0,0.7-0.1,1.4-0.2,2.2
	c-0.3,1.7-0.5,3.4,0.7,4.7c2.1,2.3,4.4,4.5,6.6,6.6c2.8,2.8,5.7,5.6,8.3,8.6l0.1,0.1l-0.3,2.9L227.8,419.5z"/>
<path class="st0" d="M36.8,173.7c8.8-2.6,17.8,2.4,23.9,8.6c6.9,7.5,12.1,16.6,16,26c7.3,17,11.1,35.3,12.1,53.7
	c0,3.1-0.8,6.9,2.3,9c10.4,8.2,19.8,17.6,30.2,25.9c2.1,4.1,7.5,4.3,9.5,8.5c-1.9-1.1-3.8-2.1-5.7-3c7.2,8.1,15.8,15,24.1,21.9
	c-0.1-0.6-0.4-1.9-0.6-2.5c4.4,1.1,7.6,4.4,10.7,7.6c6.6,6.5,13,13.2,19.8,19.5c6.9,6.5,13.5,13.3,20.2,20.1
	c4.2,5.2,9.7,9.7,11.7,16.3c0.8,2.2-1.7,3.3-2.8,4.8c1.4,1.6,2.9,3.2,4.4,4.7c0,2.3-1.3,5.1,0.6,7c4.8,5.2,10.2,9.9,14.9,15.3
	c-0.1,0.6-0.2,1.8-0.3,2.4c-7.4-5.7-12.7-13.9-21-18.3c-6.4-6-12.8-12-19-18.3c0.3-1.9,0.6-3.7,0.9-5.6c-2.8,0.4-6.3,1.1-8.2-1.6
	c-0.1-2.2,0.8-4.3,1.4-6.4c-2.4,0.7-5.5,2.8-7.6,0.4c-2.2-2.1,0-5.1,0.4-7.4c-2.1,0.6-4.3,1.9-6.5,1.5c-3.2-1.3-1.7-5-1.5-7.5
	c-1.8,0.2-3.7,0.6-5.5,0.5c-3-1.3-1.8-5-1.7-7.5c-2.4,0.1-6.1,1.6-7.3-1.5c-0.2-1.8,0.1-3.6,0.3-5.4c-3.5,0.5-6.8-0.6-9.7-2.4
	c0.3-0.3,1-0.9,1.3-1.2c1.8-2,3.3-4.4,4.7-6.7c-22-19.6-42.1-41.1-63.4-61.6C63,249.3,40,228.6,17,208c-1.8-1.3-2.8-3.3-2.9-5.6
	c0.8-1.8,1.6-3.7,2.4-5.6c-3.8-4.1-8.1-7.6-11.4-12.1c5,1.8,7.3,9,12.5,9.1C21.4,185.2,27.5,176.8,36.8,173.7z"/>
<path class="st1" d="M144.1,338.8c-5.3-6-10.3-11-15.4-15.5c-6-5.6-11.9-11.6-17.6-17.4c-6.9-6.9-13.9-14.1-21.3-20.8
	c-2.1-2.4-5.1-2.6-8.1-2.8c-0.3,0-0.7,0-1-0.1c-6.2-3.5-12.2-6.9-18-10.8c-21.8-14.9-37.4-29-49-44.3c-2.4-3.3-4.4-6.7-5.7-10.1
	l0-0.1l0.4-0.5c0.3-0.5,0.6-0.9,1-1.4l0.2-0.3l0.1,0.3c3.8,8.8,10.6,16.2,16.1,22.2c17.4,18.2,36.2,32.1,56,41.5
	c-2.2-2.6-4.6-5-7-7.3c-1.2-1.2-2.4-2.4-3.6-3.6c-7.7-7.6-15.5-15.4-23-22.9c-11.8-11.9-24.1-24.2-36.5-35.9
	c-0.8-0.8-1.6-1.6-2.4-2.4c-2.6-2.5-5.3-5.1-7.1-8.3c-1.3,0.7-2.7,1.5-4,2.2l-0.5,0.3l0.2-0.5c0.7-1.9,2.2-3.4,3.7-4.8
	c-2.7-4.6-5.9-10-8.5-15.8c-0.8-1.7-0.1-3.5,0.5-5.1l0.2-0.4l1.7,1.6c1.3,1.3,2.7,2.5,4,3.7l0.3,0.2c0,0-2.6,0.7-3.5,0.9
	c1.6,3.4,3.6,6.6,5.6,9.7c0.7,1.2,1.5,2.3,2.2,3.5l0,0.1l0,0.1c-0.2,0.9-0.4,1.8-0.7,2.6c0.4,0.1,0.9,0.2,1.3,0.3
	c3.6,0.9,7.4,1.8,9.6,5.1l0,0l0,0.1c0.1,2.2,1.2,4.2,2.9,5.4c22,19.7,45.6,40.9,68.6,62.4c7.8,7.5,15.6,15.3,23.1,22.8
	c12.9,12.9,26.3,26.3,40.2,38.7l0.1,0.1l-0.1,0.1c-1.4,2.3-2.9,4.6-4.8,6.7l-0.1,0.2L144.1,338.8z"/>
<path class="st1" d="M-6.3,174.6c1.8,1.7,3.6,3.5,5.5,5.1c-0.8,0.2-2.5,0.7-3.4,0.9c2.3,4.7,5.2,9,7.9,13.5C3.5,195.1,3.2,196,3,197
	c4,1.1,8.5,1.8,11,5.5c0.2,2.2,1.1,4.2,2.9,5.6c23,20.6,46,41.3,68.6,62.4c21.2,20.4,41.4,42,63.4,61.6c-1.4,2.3-2.9,4.7-4.7,6.7
	c-4.8-5.5-9.9-10.7-15.4-15.5c-13.3-12.4-25.4-25.9-38.9-38.1c-2.4-2.7-6-2.6-9.2-2.9c-6.1-3.4-12.1-6.9-17.9-10.7
	c-18.2-12.5-35.6-26.6-48.9-44.3c-2.3-3.1-4.3-6.5-5.7-10.1c0.4-0.6,0.9-1.2,1.3-1.8c3.7,8.5,9.9,15.5,16.1,22.2
	c16.3,17.1,35.4,31.9,56.8,41.9c-3.4-4.2-7.4-7.8-11.1-11.6c-19.9-19.5-39.2-39.7-59.4-58.8c-3.4-3.4-7.2-6.5-9.6-10.8
	c-1.4,0.8-2.8,1.5-4.2,2.3c0.8-2,2.3-3.5,3.8-4.9c-3.1-5.2-6.1-10.5-8.6-15.9C-7.5,178-6.8,176.2-6.3,174.6z"/>
<path class="st2" d="M13.9,202.5c-2.2-3.2-5.9-4.1-9.4-5c-0.5-0.1-1-0.3-1.5-0.4l-0.2-0.1l0-0.2c0.2-1,0.5-1.9,0.7-2.8
	c-0.7-1.2-1.4-2.3-2.1-3.5c-2-3.2-4-6.5-5.7-10l-0.1-0.2l3.7-1l1,0.8c1.7,1.3,3.5,2.7,4.9,4.4c2.1,2.8,4.6,5.3,7.1,7.7
	c1.4,1.4,2.9,2.9,4.3,4.4l0.1,0.1l-0.1,0.1c-0.7,1.8-1.6,3.7-2.4,5.6l-0.1,0.3L13.9,202.5z"/>
<path class="st2" d="M-4.2,180.6c0.9-0.2,2.6-0.7,3.4-0.9c2,1.6,4.1,3.1,5.8,5.1c3.3,4.4,7.7,8,11.4,12.1c-0.8,1.9-1.6,3.7-2.4,5.6
	c-2.6-3.7-7-4.4-11-5.5c0.2-0.9,0.5-1.9,0.7-2.8C1,189.6-1.9,185.3-4.2,180.6z"/>
<path class="st3" d="M61.9,281.1c0.1-0.4,0.4-1.2,0.5-1.8c-1,0.1-2.1,0.2-3.2,0.2c-4.5,0-9-1.2-13.4-2.3l-1.5-0.4
	c0,0,1.8-1.1,2.4-1.4c-4-5.3-8.9-10-13.6-14.6c-2.2-2.1-4.4-4.3-6.6-6.5c-3.4-2.8-6.5-6.1-9.4-9.2c-3.4-3.6-6.9-7.3-10.9-10.4
	c-2.6-2.2-5-4.7-7.3-7.1c-3.8-4.1-7.8-8.2-12.7-11.1l-0.4-0.2l0.4-0.1c5.8-2.1,11.8-3.9,17.4-5.4c0.3-2.3-1.2-3.7-2.8-5.2
	c-1.5-1.4-3.1-2.9-3-5.2l0-0.1l0.1-0.1c1.4-0.7,2.8-1.5,4.2-2.3l0.2-0.1l0.1,0.2c1.8,3.2,4.5,5.8,7.2,8.4c0.8,0.8,1.6,1.6,2.4,2.4
	l0.2,0.2l-0.2,0.1c-2.9,1.7-4.1,4.6-3.5,7.9c1.3,3.4,3.3,6.7,5.7,10c11.5,15.3,27.1,29.3,48.9,44.2l0.1,0.1l0,0.1
	c-0.3,1.9,1.1,3.1,2.6,4.4c1,0.9,2.1,1.8,2.6,2.9l0.1,0.2l-0.2,0.1c-2.1,1.3-4.1,2.1-6.1,2.4L61.9,281.1z"/>
<path class="st3" d="M-2,200.5c1.4-0.8,2.8-1.5,4.2-2.3c2.4,4.3,6.3,7.4,9.6,10.8c-3,1.8-4.2,4.8-3.6,8.1c1.4,3.6,3.4,7,5.7,10.1
	c13.4,17.7,30.7,31.8,48.9,44.3c-0.6,3.3,4,4.7,5.3,7.4c-1.8,1.2-3.8,2.1-6,2.4c0.2-0.5,0.5-1.5,0.6-2.1c-5.9,0.9-12.1-0.8-17.9-2.3
	c0.6-0.3,1.6-1,2.2-1.3c-5.8-7.9-13.5-14.2-20.3-21.2c-7.3-6.1-12.9-13.8-20.4-19.6c-6.9-5.9-12.1-13.7-20-18.2
	c5.7-2.1,11.6-3.8,17.5-5.5C4.5,206.2-2.1,205.1-2,200.5z"/>
<path class="st4" d="M82.3,279.5c-20.1-9.4-39.2-23.5-56.9-41.9c-5.4-5.9-12.1-13.3-16-22c-0.3,0.4-1.4,1.9-1.4,1.9L8,217.1
	c-0.6-3.5,0.7-6.5,3.7-8.3l0.1-0.1l0.1,0.1c12.4,11.7,24.6,24,36.5,35.9c7.5,7.5,15.3,15.3,23,22.9c1.2,1.2,2.4,2.4,3.6,3.6
	c2.6,2.5,5.3,5.1,7.6,8L82.3,279.5z"/>
<path class="st4" d="M8.2,217.1c-0.6-3.4,0.7-6.4,3.6-8.1c20.3,19.1,39.5,39.3,59.4,58.8c3.7,3.9,7.8,7.4,11.1,11.6
	c-21.4-10-40.5-24.8-56.8-41.9c-6.2-6.8-12.4-13.8-16.1-22.2C9,215.8,8.6,216.4,8.2,217.1z"/>
<path class="st5" d="M44.8,277c-2.4-0.6-4.9-1.2-7.3-1.7c-7.9-1.8-16.2-3.7-23.8-6.9l0.1-0.4c1.6-0.1,3.3-0.2,4.9-0.3l1-0.1
	c-6.5-7-13.5-13.9-20.3-20.5c-5.2-5.1-10.6-10.4-15.7-15.7c-2.9-3.2-6.4-6-10.2-8.5l-0.2-0.1l0.2-0.2c8.1-7,19.1-11.3,30.4-11.8
	l0.1,0.4c-5.5,1.6-11.3,3.2-17.1,5.3c4.8,2.8,8.7,6.9,12.5,10.9c2.3,2.4,4.7,4.9,7.2,7.1c4,3.1,7.5,6.8,11,10.4c3,3.1,6,6.4,9.4,9.2
	c2.1,2.2,4.4,4.4,6.6,6.5c4.8,4.6,9.8,9.4,13.8,14.8l0.1,0.2l-0.2,0.1c-0.5,0.3-1.6,1-2.2,1.3L44.8,277L44.8,277z"/>
<path class="st5" d="M-26.5,222.7c8.3-7.2,19.4-11.3,30.2-11.7c-5.9,1.7-11.8,3.4-17.5,5.5c8,4.5,13.2,12.4,20,18.2
	c7.5,5.8,13.1,13.5,20.4,19.6c6.8,7,14.5,13.3,20.3,21.2c-0.5,0.3-1.6,1-2.2,1.3c-10.4-2.6-21.1-4.5-31.1-8.6
	c2.1-0.1,4.2-0.3,6.3-0.4c-11.7-12.6-24.4-24.2-36.3-36.5C-19.3,228-22.7,225.1-26.5,222.7z"/>
<path class="st6" d="M13.7,268.4c-11.3-3.2-20.6-7.4-28.4-12.7c-8.8-5.8-14.6-13.5-16.3-21.8c-1-4.4,2.1-8.4,4.4-11.4l0.1-0.1
	l0.2,0.1c3.9,2.5,7.3,5.3,10.3,8.5c5.1,5.3,10.5,10.6,15.7,15.7c6.8,6.7,13.9,13.6,20.6,20.8l0.3,0.3l-1.8,0.2
	C17.1,268.2,15.4,268.4,13.7,268.4L13.7,268.4L13.7,268.4z"/>
<path class="st6" d="M-30.9,233.9c-1-4.3,1.9-8,4.4-11.2c3.8,2.4,7.2,5.2,10.2,8.5c11.9,12.4,24.6,23.9,36.3,36.5
	c-2.1,0.2-4.2,0.4-6.3,0.4c-10-2.9-19.7-6.8-28.4-12.6C-22.2,250.5-28.9,243.1-30.9,233.9z"/>
<path class="st7" d="M194.5,589c-3.6,0-7.2-0.1-10.7-0.3c-22.3-1.1-44.1-7.2-63.1-17.7l-2.6,2.3l-0.1-0.2
	c-4.5-5.4-9.7-10.5-14.7-15.3c-5.2-5-10.5-10.2-15.2-15.8c-22.8-28.3-32-68.6-24.4-108c6.8-36.8,25.5-72.7,52.7-101l0.1-0.1l0.1,0.1
	c4.9,2.8,8.6,7.1,12.1,11.3c2.1,2.5,4.3,5.1,6.7,7.4l0.1,0.1l-0.1,0.1C108.8,381.4,94.1,417,94,452c-0.2,30.2,12.6,58.8,34.4,76.6
	c17,14.4,40,22.9,64.8,23.8c2.2,0.1,4.5,0.2,6.7,0.2c20,0,41-4.6,60.8-13.2c22-9.6,42.4-23.9,58.9-41.2c24.9-26,40.6-58,44.4-90.1
	c4.6-34.5-7.8-68.9-32.3-89.7c-18.5-16.2-44.2-25-72.5-25c-8,0-16.1,0.7-24,2.1c-25.9,4.4-52.1,16.2-75.8,34.1l-0.1,0.1l-0.1-0.1
	c-3-3.2-6.2-6.5-10.6-7.5l-0.1,0l0,0c-3.6-3.4-6.9-6.6-10.1-9.7l-0.2-0.2l0.2-0.1c32.8-26.6,70.3-43.2,108.6-48.1
	c3.1-0.2,6.3-0.5,9.4-0.8c4.7-0.5,9.5-0.9,14.3-0.9c3.8,0,7.2,0.3,10.4,0.9c28.3,1.4,55.5,11.6,76.5,28.5
	c12.8,10.8,23.1,23.2,30.8,36.8c9.3,20.4,14.1,40.4,14.1,59.6c-0.3,12.3-1.1,25.5-4.4,38.1c-0.5,1.8-1,3.6-1.5,5.4
	c-1.4,5.1-2.9,10.4-4.5,15.6c-0.1,0.4-0.2,0.7-0.3,1.1c-0.6,2.2-1.3,4.5-0.2,6.6c1.5,3.1,3.4,6,5.2,8.9c2.2,3.4,4.5,7,6.1,10.9
	c1,2.6,2.8,5,5.2,7.2l0.1,0.1l0,0.1c-4.2,11.3-10.4,21.6-17.5,32.9l-0.1,0.1l-0.5,0c-0.5,0-1.1,0-1.6,0c-0.5,0-1.1,0-1.6,0
	c-0.4,0-0.8,0-1.1,0l-0.1,0l-0.1-0.1c-2.2-3.3-4-6.8-5.8-10.2c-2.5-4.7-5-9.5-8.4-13.7c-3.7,4.2-7.4,8.6-11,12.8
	c-4.8,5.7-9.7,11.5-14.9,17.1c-8,8.9-17.5,16.4-26.7,23.7l-1.9,1.5c-9.8,7.5-21.4,14.6-35.3,21.7C253.5,581.6,223.5,589,194.5,589z"
	/>
<path class="st7" d="M247,263.9c11.3-0.6,22.7-3,34-0.8c27.5,1.4,54.9,11.1,76.4,28.5c12.3,10.4,22.9,22.8,30.7,36.8
	c8.5,18.6,14.1,38.8,14.1,59.5c-0.4,12.8-1.2,25.6-4.4,38c-2,7-3.8,14.1-6,21c-0.7,2.5-1.8,5.4-0.5,7.9c3.3,6.8,8.3,12.7,11.2,19.8
	c1.1,2.8,3,5.2,5.2,7.3c-4.3,11.7-10.9,22.4-17.5,32.9c-1.6,0-3.2,0-4.8,0c-5.2-7.8-8.4-16.9-14.4-24.2c-8.8,9.9-17,20.3-26,30.1
	c-8.6,9.5-18.7,17.3-28.6,25.2c-11,8.4-23,15.4-35.3,21.7c-29.9,15.1-63.7,23.1-97.3,21c-22-1.1-43.9-7.1-63.2-17.8
	c-0.8,0.8-1.7,1.5-2.6,2.3c-9.2-11-20.7-20-29.9-31.2C64.2,512,56.7,471.1,63.9,434c7-37.9,26.1-73.2,52.7-100.9
	c7.9,4.4,12.3,12.7,18.8,18.7c-24.6,27.3-41.4,63-41.5,100.2c-0.2,28.9,11.8,58.3,34.4,76.7c18,15.2,41.5,23,64.9,23.9
	c23.2,1.2,46.4-3.8,67.6-13.1c22.1-9.7,42.3-23.8,59-41.3c23.5-24.6,40.5-56.2,44.5-90.2c4.3-32.8-6.8-68.2-32.3-89.9
	c-26.2-22.9-63.3-28.9-96.7-23c-27.7,4.7-53.6,17.3-75.9,34.1c-3-3.2-6.2-6.5-10.7-7.6c-3.4-3.2-6.8-6.4-10.1-9.7
	C169.6,286.8,207.2,269,247,263.9z"/>
<path class="st8" d="M140.1,342c-9.5-9.7-20.2-20.7-31.5-30.6c-2.2-2.2-4.3-4.3-6.5-6.5c-5.9-5.9-12-12-18.1-18
	c-1.2-1.2-2.4-2.7-3.5-4.7l-0.2-0.3c0,0,1,0.1,1.4,0.1c3,0.2,6.2,0.4,8.3,2.9c7.3,6.6,14.4,13.8,21.3,20.8
	c5.7,5.8,11.6,11.7,17.6,17.3c5.1,4.5,10.1,9.6,15.4,15.5l0.1,0.1l-0.1,0.1c-0.3,0.3-1,0.9-1.3,1.2c-1,0.8-1.9,1.5-2.7,2l-0.1,0.1
	L140.1,342z"/>
<path class="st8" d="M80.8,282.1c3.3,0.3,6.9,0.2,9.2,2.9c13.5,12.2,25.6,25.7,38.9,38.1c5.5,4.8,10.6,10.1,15.4,15.5
	c-0.3,0.3-1,0.9-1.3,1.2c-0.9,0.7-1.8,1.4-2.7,2c-10.2-10.5-20.5-21-31.5-30.6c-8.2-8.2-16.3-16.4-24.5-24.5
	C82.8,285.5,81.7,283.8,80.8,282.1z"/>
<path class="st9" d="M319.6,498.3c-0.7-1.9-1.8-3.6-2.9-5.3c-0.5-0.7-0.9-1.5-1.4-2.2c-1.1-4.2,0.1-8.1,1.3-11.9
	c1-3.2,2.1-6.6,1.7-10c-1.7,1.6-3.3,3.3-4.7,4.8l-0.2,0.2l-0.1-0.3c-0.5-1.1-0.9-2.2-1.3-3.2l0-0.1l0.1-0.1c2-2.2,4.2-5.7,3.5-10.2
	c-1.1,0.9-2.3,2-3.7,3.2l-0.2,0.2l-0.1-0.3c-0.5-1.7-1.1-3.4-1.7-5l0-0.1l0.1-0.1c9.6-14.7,15.7-30.9,17.8-46.7
	c2.7-19.7-1.7-39.6-12-54.7c-9.1-13.5-23.2-23.5-39.6-28.2c-8.3-2.4-17-3.6-25.9-3.6c-23.9,0-49.1,8.7-70.8,24.4l-0.1,0.1l-0.1-0.1
	c-4.6-4.2-9.1-8.8-13.5-13.1c-2.1-2.1-4.2-4.2-6.3-6.3l-0.2-0.2l0.2-0.1c23.8-17.9,50-29.8,76-34.1c8-1.4,16.1-2.1,24.1-2.1
	c28.4,0,54.2,8.9,72.8,25.1c24.6,20.9,37,55.4,32.4,90c-3.8,32.2-19.6,64.2-44.5,90.3l-0.2,0.2L319.6,498.3z"/>
<path class="st9" d="M235.2,295.2c33.4-5.9,70.6,0.1,96.7,23c25.5,21.7,36.6,57.1,32.3,89.9c-4,34-21,65.6-44.5,90.2
	c-1.1-2.7-2.8-5.1-4.3-7.6c-2.1-7.7,4.1-14.6,3-22.3c-1.7,1.6-3.4,3.3-5,5c-0.5-1.1-0.9-2.2-1.3-3.2c2.7-3,4.2-6.7,3.5-10.7
	c-1.4,1.1-2.7,2.3-4,3.4c-0.6-1.7-1.1-3.4-1.7-5c9.2-14.1,15.7-30.1,17.8-46.8c2.6-18.9-1.1-39-12-54.8
	c-9.3-13.8-23.8-23.7-39.7-28.3c-33.3-9.7-69.5,1-96.9,20.8c-6.8-6.3-13.2-13-19.8-19.5C181.6,312.4,207.5,299.9,235.2,295.2z"/>
<path class="st10" d="M147.5,323.1c-7.8-6.4-15.8-13.1-22.6-20.7l0.2-0.3c2.3,1.1,4.1,2.1,5.8,3c1.1,1,2.3,2,3.4,2.9
	c1.5,1.2,3,2.5,4.4,3.8c3.2,3.2,6.5,6.3,10.1,9.7l0,0l0.7,3.1L147.5,323.1z"/>
<path class="st10" d="M125.1,302.2c1.9,0.9,3.9,1.9,5.7,3c2.5,2.3,5.2,4.4,7.7,6.7c3.3,3.3,6.7,6.5,10.1,9.7
	c0.1,0.6,0.4,1.9,0.6,2.5C140.8,317.3,132.3,310.4,125.1,302.2z"/>
<path class="st11" d="M195.6,404.7c-5.9-1.3-10.5-5.2-14.9-9c-1.7-1.5-3.5-3-5.3-4.3c-4.1-3.7-8-7.6-11.8-11.4
	c-2.8-2.9-5.8-5.8-8.7-8.6c-3.2-3.4-6.7-6.7-10-9.9c-3.2-3.1-6.6-6.3-9.7-9.5c-2.5-2.2-4.6-4.9-6.8-7.4c-3.5-4.2-7.1-8.5-12-11.2
	l-0.1-0.1l0-0.1c-0.3-3.2-2.7-5.3-5.2-7.5c-1.8-1.5-3.7-3.1-4.7-5.2l-0.2-0.4l0.4,0.1c3,0.7,5.1,2.9,7.2,5c0.7,0.7,1.3,1.4,2,2
	c1.9,1.9,3.8,3.8,5.7,5.6c3.9,3.8,8,7.7,11.5,12c1.5-0.5,3-1,4.5-1.5l0.1,0l0.1,0.1c2.6,2.3,6,3.5,10.1,3.5l0.7,0l-0.2,0.3
	c-0.7,0.9-1.3,1.8-2,2.7l-0.8,1.1c1.7,2,4.2,3,7.3,3c0.9,0,1.9-0.1,3-0.3l0.5-0.1l-3.1,4.4c1.6,1.7,3.8,2.7,6.2,2.7
	c0.8,0,1.7-0.1,2.6-0.3l0.5-0.1l-0.2,0.4c-1.6,2.9-1.3,5.8,1,7.9c2-0.7,4.1-1,6.1-1c0.3,0,0.6,0,1,0l0.4,0l-0.2,0.3
	c-1,1.4-2.1,2.9-3.1,4.3c2.3,2.1,5.5,2.6,8.5,3l1.3,0.2l-0.6,1.3c-0.4,0.7-0.7,1.5-1,2.3c0.4,0.4,0.7,0.9,1.1,1.3
	c0.6,0.7,1.2,1.5,1.9,2.2c2.4-0.4,4.6-0.7,6.6-0.8l0.4,0l-0.2,0.3c-1,1.5-2,2.9-3.1,4.4c2,2.1,4.2,4,6.4,5.9c3.9,3.5,8,7.1,11,11.6
	l0.2,0.2l-0.5,0.1C198.1,404.2,196.5,404.5,195.6,404.7L195.6,404.7L195.6,404.7z"/>
<path class="st11" d="M106.6,320.4c3.9,0.9,6.3,4.4,9.1,6.9c5.8,5.9,12.1,11.3,17.3,17.7c1.5-0.5,3.1-1.1,4.7-1.6
	c2.9,2.6,6.6,3.6,10.5,3.5c-1,1.3-1.9,2.6-2.9,3.9c2.7,3.3,6.7,3.6,10.6,3c-1,1.4-1.9,2.7-2.9,4.1c2.4,2.6,5.7,3.4,9.1,2.5
	c-1.6,2.9-1.4,6,1.1,8.3c2.3-0.8,4.7-1.1,7.1-1c-1.1,1.5-2.1,3-3.2,4.4c2.7,2.5,6.3,2.8,9.8,3.4c-0.5,1.1-1.1,2.3-1.6,3.4
	c1,1.2,2,2.5,3.1,3.7c2.2-0.4,4.4-0.7,6.7-0.9c-1,1.5-2.1,3-3.2,4.5c5.7,6,12.9,10.6,17.4,17.6c-0.9,0.2-2.6,0.5-3.5,0.7
	c-8.1-1.8-13.7-8.5-20.2-13.3c-7.1-6.4-13.6-13.5-20.5-20c-6.4-6.7-13.3-12.8-19.7-19.4c-6.5-6-10.9-14.3-18.8-18.7
	C116.1,327.4,109.1,325.2,106.6,320.4z"/>
<path class="st7" d="M250.2,504.2l0.3-0.1c3.8-1.5,4.4-5.4,4.4-9.1l0-0.3l0.3,0.1c2.2,0.6,4,1,5.7,1.4l-3-3.2l0.1-0.1
	c2.6-3.9,4.1-8.5,5.7-12.9l0.1-0.3c0.8-1.9-0.1-3.7-1.1-5.5c-0.4-0.7-0.7-1.3-1-2l-0.1-0.3l0.3,0c1.7-0.1,3.5-0.1,5.2-0.2
	c-2-1.9-2.8-5.1-1.8-7.7c0.7-2.1,2.4-3.3,4.7-3.3c0.1,0,0.3,0,0.4,0c-0.1-0.8-0.1-1.6-0.2-2.4c-0.1-0.7-0.1-1.3-0.2-2l0-0.1l0.1-0.1
	c2-2.1,4-4.3,5.9-6.9c9.6-12.1,15.4-26.5,16.5-40.6c0.7-11.5-2.2-22.7-8-31.3c-6.6-10.1-17.6-17.3-30.1-19.9
	c-4.2-1-8.7-1.5-13.2-1.5c-17.1,0-32.1,7-41.7,12.8l-0.1,0.1l-1.6-1.6c-6.1-6.2-12.3-12.6-18.7-18.6l-0.2-0.2l0.2-0.1
	c21.8-15.8,47-24.5,71-24.5c9,0,17.7,1.2,26,3.6c16.5,4.7,30.7,14.8,39.8,28.4c10.4,15.1,14.8,35.1,12.1,54.9
	c-2.1,15.9-8.3,32.1-17.9,46.9c-9.2,13.9-20.8,25.9-34.3,35.6c-7.4,5.3-15,9.7-22.5,13.1l-0.1,0.1L250.2,504.2z"/>
<path class="st7" d="M179.1,348.8c27.4-19.9,63.6-30.5,96.9-20.8c15.9,4.6,30.4,14.5,39.7,28.3c10.9,15.8,14.6,35.9,12,54.8
	c-2.2,16.7-8.7,32.7-17.8,46.8c-9.1,13.8-20.8,25.9-34.3,35.5c-7.1,5-14.6,9.5-22.5,13.1c-0.9-0.7-1.8-1.5-2.6-2.2
	c3.9-1.5,4.5-5.5,4.5-9.3c2.1,0.6,4.2,1.1,6.4,1.5c-1.1-1.2-2.2-2.3-3.3-3.5c2.7-4.1,4.2-8.7,5.8-13.2c1.2-2.7-1.1-5.2-2.1-7.6
	c1.9-0.1,3.8-0.2,5.7-0.2c-4-3.3-3.3-11.5,3-10.9c-0.1-1.5-0.3-3.1-0.4-4.6c2.1-2.2,4.1-4.5,5.9-6.9c9.2-11.6,15.4-25.9,16.5-40.8
	c0.6-11-1.9-22.3-8-31.4c-6.8-10.4-18.1-17.5-30.2-20c-19-4.5-38.8,1.5-55.1,11.3C192.7,362,186.1,355.2,179.1,348.8z"/>
<path class="st12" d="M419.9,421.9c-1.3-2.9-3.2-5.6-4.9-8.1c-1.9-2.7-3.8-5.6-5.2-8.7c-0.6-0.9-1.2-1.8-1.8-2.8
	c-2.9-4.4-5.9-8.9-6-14.5c0-19.1-4.8-39-14.1-59.4l-0.3-0.6l0.6,0.4c2.2,1.4,3.6,3.6,5,5.7c0.4,0.6,0.8,1.1,1.2,1.7
	c0.8,1.4,1.8,2.6,2.7,3.9c1.8,2.4,3.7,4.9,4.5,7.9l1.8,1.2c9.4,17.1,15,31.5,17.6,45.4c0.1,3.4,0.5,6.7,0.8,10
	c0.6,5.6,1.2,11.4,0.7,17.2l0,0.1l-2.4,0.8L419.9,421.9z"/>
<path class="st12" d="M388.1,328.4c2.7,1.8,4.3,4.7,6.1,7.3c2.4,4,5.9,7.3,7.2,11.8c0.5,0.3,1.4,0.9,1.8,1.2
	c7.8,14.1,14.5,29.2,17.5,45.3c0.4,9.1,2.4,18,1.5,27.1c-0.5,0.2-1.6,0.5-2.2,0.7c-2.7-6-7.5-10.8-10.1-16.8
	c-3.3-5.4-7.6-10.5-7.8-17.2C402.2,367.2,396.7,347,388.1,328.4z"/>
<path class="st13" d="M227.8,420.6c-1.9-0.4-3.8-0.8-5.1-2.2c-1-1-2.1-2-3.1-3c-3.9-3.7-7.9-7.5-11.7-11.5l-0.2,0.1
	c-2.2,0.8-4.5,1.7-6.7,2.5l-0.1,0c0,0-1.1-0.4-1.7-0.6c-1.2-0.4-2.3-0.8-3.5-1.2l0-0.4c0.8-0.2,2.3-0.5,3.2-0.7
	c-2.9-4.4-6.9-7.9-10.7-11.3c-2.2-1.9-4.5-3.9-6.5-6.1l-0.1-0.1l0.1-0.1c1-1.4,2-2.8,2.9-4.2c-1.9,0.1-4,0.4-6.3,0.8l-0.1,0
	l-0.1-0.1c-0.7-0.8-1.3-1.5-1.9-2.3c-0.4-0.5-0.8-0.9-1.2-1.4l-0.1-0.1l0-0.1c0.3-0.8,0.7-1.6,1.1-2.4l0.4-0.8l-0.8-0.1
	c-3.1-0.5-6.4-1-8.8-3.3l-0.1-0.1l0.1-0.1c1-1.4,2-2.7,3-4.1c-0.2,0-0.4,0-0.6,0c-2,0-4.1,0.3-6.1,1l-0.1,0l-0.1-0.1
	c-2.4-2.2-2.9-5.1-1.4-8.1c-0.8,0.2-1.5,0.2-2.2,0.2c-2.6,0-4.9-1-6.6-2.9l-0.1-0.1l2.7-3.9c-0.9,0.1-1.8,0.2-2.6,0.2
	c-3.3,0-5.9-1.1-7.7-3.3l-0.1-0.1c0,0,2.2-2.9,2.8-3.7c-4.1,0-7.6-1.3-10.2-3.6l-0.2-0.2l2.8-1.6c0.8-0.6,1.7-1.2,2.7-2l0.1-0.1
	l0.1,0.1c2.7,1.6,5.3,2.5,7.9,2.5c0.6,0,1.1,0,1.7-0.1l0.3,0l0,0.3c0,0.4-0.1,0.7-0.1,1.1c-0.2,1.4-0.3,2.8-0.2,4.2
	c0.5,1.2,1.4,1.8,3,1.8c0.7,0,1.5-0.1,2.3-0.2c0.6-0.1,1.2-0.2,1.8-0.2l0.2,0l0,0.2c0,0.5-0.1,1-0.2,1.6c-0.3,2.2-0.6,4.7,1.7,5.7
	c0.1,0,0.1,0,0.2,0c0.1,0,0.1,0,0.2,0c1.3,0,2.6-0.2,3.8-0.4c0.4-0.1,0.8-0.1,1.2-0.2l0.2,0l0,0.2c0,0.6-0.1,1.2-0.2,1.8
	c-0.3,2.3-0.7,4.6,1.6,5.5c0.2,0,0.5,0.1,0.8,0.1c1.2,0,2.5-0.5,3.7-0.9c0.6-0.2,1.3-0.5,1.9-0.7l0.3-0.1l-0.1,0.3
	c-0.1,0.6-0.4,1.3-0.6,2c-0.7,1.9-1.4,3.8,0.1,5.2c0.6,0.7,1.4,1.1,2.3,1.1c1.1,0,2.3-0.5,3.4-0.9c0.6-0.2,1.1-0.4,1.7-0.6l0.3-0.1
	l-0.1,0.3c-0.1,0.5-0.3,1-0.5,1.5c-0.5,1.6-1,3.2-1,4.8c0.9,1.3,2.3,1.9,4.3,1.9c1.1,0,2.2-0.2,3.3-0.4l0.7-0.1l0,0.3
	c-0.3,1.8-0.6,3.5-0.8,5.3l0,0.2c6,6,12.4,12.1,19,18.2c4.9,2.6,8.9,6.7,12.7,10.6c2.6,2.6,5.2,5.4,8.2,7.7l0.1,0.1l-0.1,1.4
	L227.8,420.6z"/>
<path class="st13" d="M140.2,341.9c0.9-0.6,1.8-1.3,2.7-2c2.9,1.8,6.2,2.9,9.7,2.4c-0.2,1.8-0.5,3.6-0.3,5.4
	c1.2,3.1,4.9,1.6,7.3,1.5c-0.1,2.5-1.4,6.2,1.7,7.5c1.8,0.1,3.7-0.3,5.5-0.5c-0.1,2.5-1.6,6.2,1.5,7.5c2.2,0.4,4.4-0.9,6.5-1.5
	c-0.5,2.4-2.6,5.4-0.4,7.4c2.1,2.4,5.2,0.3,7.6-0.4c-0.6,2.1-1.5,4.2-1.4,6.4c1.9,2.8,5.4,2.1,8.2,1.6c-0.3,1.9-0.6,3.7-0.9,5.6
	c6.2,6.2,12.6,12.3,19,18.3c8.3,4.4,13.6,12.6,21,18.3l-0.1,1c-1.8-0.3-3.7-0.8-5-2.2c-5-4.8-10.1-9.5-14.9-14.5
	c-2.4,0.9-4.7,1.8-7.1,2.6c-1.7-0.6-3.4-1.2-5.2-1.8c0.9-0.2,2.7-0.5,3.5-0.7c-4.6-7-11.7-11.6-17.4-17.6c1.1-1.5,2.1-3,3.2-4.5
	c-2.3,0.1-4.5,0.5-6.7,0.9c-1.1-1.2-2.1-2.5-3.1-3.7c0.5-1.1,1.1-2.3,1.6-3.4c-3.4-0.5-7.1-0.8-9.8-3.4c1.1-1.5,2.2-2.9,3.2-4.4
	c-2.4-0.1-4.8,0.2-7.1,1c-2.6-2.3-2.8-5.3-1.1-8.3c-3.4,0.9-6.7,0.1-9.1-2.5c1-1.4,1.9-2.7,2.9-4.1c-3.9,0.7-7.9,0.3-10.6-3
	c1-1.3,1.9-2.6,2.9-3.9c-3.8,0.1-7.6-0.9-10.5-3.5C138.3,343,139.6,342.3,140.2,341.9z"/>
<path class="st14" d="M128.1,528.9c-21.8-17.8-34.7-46.6-34.5-76.9c0.1-35.1,14.9-70.8,41.6-100.4l0.1-0.2l0.1,0.2
	c3.1,3.3,6.5,6.5,9.7,9.5c3.3,3.2,6.8,6.5,10,9.9l0.1,0.1l-0.1,0.1c-24.1,28.5-33.5,64.8-24.7,94.6l0.2,0.6l-0.5-0.4
	c-3.8-2.9-4.5-7.3-5.2-11.5c-0.4-2.1-0.7-4.3-1.5-6.2c-0.3,3.1-0.1,6.5,0.6,10.3l0,0.2l-0.5,0c-0.9,0.1-1.9,0.2-2.8,0.2
	c1.1,2.5,0.8,5.2,0.4,7.8c-0.2,1.6-0.4,3.3-0.3,4.9c0.3,1.9-0.6,3.5-1.4,5.1c-0.7,1.2-1.3,2.5-1.4,3.9c-0.7,5.1,0.8,9.9,2.3,14.6
	c1.2,3.7,2.3,7.5,2.5,11.5c-0.1,1.6,0.2,3.3,0.5,4.8c0.3,1.7,0.6,3.4,0.5,5.1c1.4-1,3-2.1,4.6-3.2l0.5-0.3l-0.2,0.6
	c-0.9,2.3-1.7,4.6-2.6,6.9c0.2,0.3,0.3,0.6,0.5,0.9c1.1,2.2,2.2,4.4,1.9,6.9l0,0.4L128.1,528.9z"/>
<path class="st14" d="M135.3,351.8c6.4,6.7,13.3,12.7,19.7,19.4c-21.7,25.7-34.6,61.6-24.7,94.8c-5.8-4.4-4.3-12.3-6.9-18.3
	c-0.5,3.7-0.2,7.4,0.5,11.1c-1.1,0.1-2.3,0.2-3.4,0.3c2,4.1-0.1,8.6,0.3,12.9c0.5,3.4-2.6,5.7-2.8,9c-1.3,9.1,4.4,17.1,4.7,26
	c-0.1,3.5,1.3,6.8,1,10.4c1.6-1.2,3.3-2.3,4.9-3.4c-0.9,2.3-1.8,4.7-2.6,7c1.2,2.4,2.7,4.9,2.4,7.8c-22.6-18.5-34.6-47.8-34.4-76.7
	C93.9,414.8,110.7,379.1,135.3,351.8z"/>
<path class="st15" d="M275.9,449.7c-0.2-0.9-0.2-1.8-0.3-2.7c-0.1-2.1-0.3-4.3-1.9-5.8c-1.8-1.9-3.1-4.2-4.4-6.4c-1.4-2.5-2.9-5-5-7
	c-1.6-1.5-3.1-3.4-4.6-5.6c-1.6,0.9-3.3,1.7-5.1,2.5l-0.5,0.2l0.2-0.5c4.4-9.6,3.8-23.7-6-30.8c-4.3-3.2-9.6-4.9-15.5-4.9
	c-6.8,0-13.9,2.2-20.1,6.2l-0.1,0.1l-0.1-0.1c-1.6-1.6-3.1-3.3-4.4-4.7L208,390l0.1-0.1c0.3-0.5,0.8-0.9,1.2-1.3c1-1,2-1.9,1.5-3.3
	c-1.5-4.8-4.8-8.5-8-12.1c-1.2-1.4-2.5-2.8-3.6-4.2l-0.1-0.2l0.2-0.1c9.7-5.9,24.8-12.9,41.9-12.9c4.6,0,9,0.5,13.3,1.5
	c12.6,2.6,23.6,9.9,30.3,20c5.9,8.7,8.7,19.9,8.1,31.6c-1,14.2-6.9,28.7-16.6,40.9l-0.3,0.3L275.9,449.7z"/>
<path class="st15" d="M199.3,368.8c16.3-9.9,36.1-15.8,55.1-11.3c12.1,2.5,23.4,9.6,30.2,20c6.2,9.2,8.6,20.5,8,31.4
	c-1.1,14.9-7.3,29.1-16.5,40.8c-0.6-2.9,0.1-6.3-2.2-8.6c-3.8-4-5.4-9.7-9.4-13.5c-1.8-1.7-3.3-3.7-4.7-5.7
	c-1.7,0.9-3.5,1.8-5.2,2.6c4.6-10.2,3.6-24.1-6-31c-10.5-8-25.4-5.5-35.9,1.2c-1.5-1.5-3-3.1-4.4-4.7c1.1-1.5,3.5-2.7,2.8-4.8
	C209,378.5,203.5,374,199.3,368.8z"/>
<path class="st16" d="M205.6,517.6c-5,0-9.9-0.4-14.6-1.2c-20.2-2.9-38.2-13.1-49.4-28.1c-4.6-6-8.4-13.3-11.5-22.3
	c-4.6-15.6-4.5-33,0.5-50.4c4.6-15.8,12.9-31.3,24.2-44.7l0.1-0.2l0.2,0.1c3,2.8,5.9,5.8,8.7,8.6c3.8,3.8,7.7,7.8,11.8,11.4l0.1,0.1
	l-0.1,0.1c-10.4,13.6-15.8,30.2-14.8,45.5c0.5,12.1,5.6,23.7,14.1,31.7c11.8,11.4,26.7,13.8,37,13.8c11.2,0,22.9-2.8,33.1-8
	c9.4-4.6,17.8-10.7,25-18.1l0.3-0.3l0,0.4c0.1,0.7,0.1,1.3,0.2,2c0.1,0.9,0.2,1.8,0.2,2.6l0,0.2l-0.2,0c-0.2,0-0.4,0-0.6,0
	c-2.8,0-3.9,1.9-4.3,3c-0.9,2.6,0,5.8,2.1,7.6l0.4,0.3l-0.5,0c-1.8,0.1-3.6,0.1-5.4,0.2c0.2,0.6,0.5,1.1,0.9,1.7
	c1,1.8,2,3.7,1.1,5.8l-0.1,0.3c-1.5,4.4-3.1,8.9-5.6,12.8l3.6,3.9l-0.6-0.1c-1.9-0.4-3.8-0.9-6.1-1.5c-0.1,3.6-0.7,7.4-4.3,9
	l2.6,2.2l-0.3,0.1C237.5,513.8,221,517.6,205.6,517.6z"/>
<path class="st16" d="M130.3,466c-9.9-33.2,3-69.2,24.7-94.8c6.9,6.6,13.4,13.6,20.5,20c-9.9,12.9-15.9,29.3-14.9,45.7
	c0.5,11.9,5.5,23.6,14.1,31.9c18.6,17.9,48.5,16.9,70.4,5.9c9.3-4.6,17.8-10.7,25-18.1c0.1,1.5,0.3,3,0.4,4.6c-6.3-0.6-7,7.6-3,10.9
	c-1.9,0.1-3.8,0.2-5.7,0.2c0.9,2.4,3.3,4.9,2.1,7.6c-1.6,4.6-3.1,9.2-5.8,13.2c1.1,1.2,2.2,2.3,3.3,3.5c-2.1-0.4-4.3-1-6.4-1.5
	c0,3.7-0.6,7.7-4.5,9.3c0.9,0.7,1.7,1.4,2.6,2.2c-19.3,8.8-41.1,13.2-62.2,9.8c-19.1-2.7-37.6-12.4-49.3-28
	C136.6,481.6,133,473.9,130.3,466z"/>
<path class="st17" d="M242,440.3c-0.5-0.5-1-1-1.5-1.5c-4.2-4.2-9.3-9.3-7.3-15.4c-1.1,0.6-2.2,1.2-3.4,1.2c-0.9,0-1.6-0.3-2.3-1
	l-0.1-0.1l0.2-3.2l0.1-1l0.3-2.4c-2.6-3-5.5-5.8-8.3-8.5c-2.2-2.1-4.4-4.4-6.6-6.6c-1.4-1.4-1.1-3.2-0.9-5c0.1-0.7,0.2-1.4,0.2-2.1
	l0-0.1l0.1-0.1c6.3-4,13.5-6.3,20.4-6.3c5.9,0,11.4,1.7,15.7,5c9.9,7.2,10.5,21.5,6.1,31.3c-2.7,5.9-7.1,11.4-12.5,15.8l-0.1,0.1
	L242,440.3z"/>
<path class="st17" d="M212.7,394.6c10.5-6.7,25.3-9.2,35.9-1.2c9.6,7,10.7,20.9,6,31c-2.8,6.2-7.2,11.5-12.5,15.8
	c-4.3-4.5-11.3-10.2-8.6-17.2c-1.9,1-4,2.3-5.9,0.5c0.1-1.1,0.1-2.1,0.2-3.1l0.1-1c0.1-0.6,0.2-1.8,0.3-2.4
	c-4.7-5.4-10.1-10-14.9-15.3C211.4,399.8,212.7,397,212.7,394.6z"/>
<path class="st18" d="M417.3,453c-4.4-0.5-6.1-4.1-7.8-7.6c-0.5-1.1-1.1-2.3-1.7-3.3l-1-1.8c-2.8-4.8-5.8-9.8-9.1-14.4l-0.1-0.1
	l0-0.1c3.3-12.6,4.1-25.7,4.4-38l0.4,0c0.1,5.5,3.1,10,5.9,14.3c0.6,0.9,1.2,1.9,1.8,2.8c1.4,3.1,3.3,5.9,5.2,8.6
	c1.8,2.5,3.6,5.2,4.9,8l2.3-0.8l0,0.3c-0.4,10.9-2.1,21.6-5,31.7l0,0.2L417.3,453z"/>
<path class="st18" d="M402.2,387.8c0.1,6.7,4.4,11.8,7.8,17.2c2.6,6.1,7.4,10.8,10.1,16.8c0.5-0.2,1.6-0.5,2.2-0.7
	c-0.4,10.7-2.1,21.4-5,31.7c-5.8-0.6-6.8-6.7-9.3-10.8c-3.2-5.5-6.4-11-10.2-16.1C401.1,413.4,401.9,400.6,402.2,387.8z"/>
<path class="st10" d="M174.6,468.9c-8.5-8.2-13.7-19.8-14.2-32c-0.9-15.5,4.5-32.2,14.9-45.8l0.1-0.2l0.2,0.1
	c1.8,1.3,3.6,2.8,5.3,4.3c4.4,3.8,9,7.6,14.8,8.9c1.2,0.4,2.4,0.8,3.6,1.2c0.5,0.2,1.9,0.7,1.9,0.7l-0.2,0.2
	c-6.4,8.7-9.6,22.9-1.6,33.5l-0.3,0.3c-0.3-0.2-0.6-0.5-0.9-0.7c-1.6-1.3-3.3-2.6-5.2-3.4c-2.4,0.6-4.7,1.8-6.9,3
	c-1.1,0.6-2.2,1.2-3.4,1.7c-2.7,1.3-4.6,3.5-6.4,5.7c-1.8,2.1-3.6,4.3-6.2,5.6c-0.2,0.2-0.6,0.4-0.9,0.6c-0.7,0.4-1.4,0.8-1.6,1.5
	c0.1,2.7,2,4.7,3.7,6.6c2,2.2,4.2,4.5,3.6,7.9l-0.1,0.4L174.6,468.9z"/>
<path class="st10" d="M160.6,436.9c-1-16.4,5-32.8,14.9-45.7c6.5,4.7,12.1,11.4,20.2,13.3c1.7,0.6,3.4,1.2,5.2,1.8
	c-7,9.6-9.1,23.8-1.6,33.8c-2-1.5-3.9-3.3-6.3-4.2c-3.7,0.9-6.9,3.2-10.4,4.8c-5.3,2.5-7.4,8.7-12.6,11.3c-0.9,0.7-2.3,1-2.6,2.3
	c0.2,5.9,8.3,8.4,7.4,14.5C166.1,460.5,161.1,448.8,160.6,436.9z"/>
<path class="st19" d="M219.1,448.8c-8.3,0-15.4-3-20.1-8.6c-8.1-10.8-4.8-25.2,1.6-34l0-0.1l0.1,0c2.3-0.8,4.5-1.6,6.7-2.5l0.5-0.2
	l0.1,0.1c3.8,4,7.9,7.8,11.8,11.5c1,1,2.1,2,3.1,3c1.2,1.3,2.9,1.8,4.9,2.1l0.2,0l-0.2,3.2c0.6,0.5,1.2,0.8,1.9,0.8
	c1.2,0,2.3-0.7,3.5-1.3l0.6-0.4l-0.2,0.5c-2.4,6.1,2.8,11.3,7.1,15.5c0.5,0.5,1,1,1.5,1.5l0.2,0.2l-0.2,0.1
	c-3.2,2.5-6.9,4.5-10.8,6.1C227.5,448,223.3,448.8,219.1,448.8z"/>
<path class="st19" d="M200.8,406.3c2.4-0.8,4.7-1.7,7.1-2.6c4.8,5,9.9,9.7,14.9,14.5c1.3,1.4,3.2,1.8,5,2.2c-0.1,1-0.1,2.1-0.2,3.1
	c1.9,1.8,4,0.6,5.9-0.5c-2.7,6.9,4.2,12.7,8.6,17.2c-3.3,2.5-6.9,4.6-10.7,6.1c-10.8,4.1-24.4,3-32.2-6.3
	C191.7,430.1,193.8,415.9,200.8,406.3z"/>
<path class="st20" d="M244.9,474.6c0.9-3.9,2.1-7.9,3.5-11.9c-2.7-3-4.6-6.6-6.5-10c-1.4-2.5-2.9-5.2-4.6-7.6
	c-0.4,0.2-0.7,0.4-1.1,0.6c-1.1,0.6-2.3,1.3-3.4,1.8l-0.1,0.1l-1.7-1.4l0.3-0.1c3.9-1.6,7.5-3.6,10.7-6.1c5.4-4.4,9.7-9.8,12.4-15.7
	l0-0.1l0.1,0c1.8-0.8,3.6-1.7,5.2-2.6l0.2-0.1l0.1,0.1c1.6,2.3,3.1,4.1,4.6,5.7c2.2,2,3.7,4.6,5.1,7.1c1.3,2.2,2.6,4.5,4.3,6.4
	c1.7,1.6,1.8,3.9,2,6.1c0.1,0.9,0.1,1.8,0.3,2.6l0,0.1l-0.1,0.1c-2,2.6-3.9,4.8-6,6.9c-7.2,7.4-15.6,13.5-25.1,18.2l-0.4,0.2
	L244.9,474.6z"/>
<path class="st20" d="M254.6,424.5c1.8-0.8,3.5-1.7,5.2-2.6c1.4,2,2.9,4,4.7,5.7c4.1,3.8,5.6,9.5,9.4,13.5c2.3,2.3,1.6,5.7,2.2,8.6
	c-1.9,2.4-3.8,4.7-5.9,6.9c-7.2,7.4-15.7,13.6-25,18.1c0.9-4.1,2.1-8,3.6-12c-4.7-5.3-7.2-12.1-11.3-17.8c-1.5,0.9-3.1,1.8-4.7,2.5
	c-0.3-0.3-1-0.8-1.3-1.1c3.8-1.5,7.4-3.6,10.7-6.1C247.4,436,251.8,430.6,254.6,424.5z"/>
<path class="st21" d="M407.6,481.9c-2.4-2.2-4.2-4.7-5.3-7.3c-1.6-3.8-3.9-7.4-6-10.8c-1.8-2.9-3.7-5.8-5.2-8.9
	c-1.1-2.3-0.4-4.7,0.2-6.9c0.1-0.4,0.2-0.7,0.3-1.1c1.7-5.1,3.1-10.4,4.5-15.6c0.5-1.8,1-3.6,1.5-5.4l0.1-0.4l0.2,0.3
	c3.4,4.6,6.3,9.6,9.1,14.4l1,1.8c0.6,1,1.2,2.2,1.7,3.4c1.6,3.4,3.2,6.9,7.4,7.3l0.2,0l0,0.2c-1.6,8.6-4.7,17.8-9.6,29l-0.1,0.3
	L407.6,481.9z"/>
<path class="st21" d="M391.8,446.9c2.3-6.9,4.1-14,6-21c3.8,5.1,6.9,10.7,10.2,16.1c2.5,4.1,3.6,10.2,9.3,10.8
	c-1.9,10-5.5,19.7-9.6,29c-2.2-2-4.1-4.5-5.2-7.3c-2.9-7-7.9-12.9-11.2-19.8C390,452.2,391.1,449.4,391.8,446.9z"/>
<path class="st22" d="M211.9,482.9c-14.9,0-27.8-4.8-37.3-13.9l-0.1-0.1l0-0.1c0.5-3.2-1.5-5.3-3.5-7.6c-1.8-2-3.7-4.1-3.8-6.9
	c0.2-1,1-1.4,1.8-1.9c0.3-0.2,0.7-0.4,0.9-0.6c2.5-1.3,4.3-3.5,6.1-5.5c1.9-2.2,3.8-4.5,6.6-5.8c1.1-0.5,2.2-1.1,3.3-1.7
	c2.2-1.2,4.6-2.5,7.1-3.1l0.1,0l0.1,0c2,0.8,3.7,2.1,5.4,3.5c0.3,0.2,0.6,0.5,0.9,0.7c4.6,5.5,11.6,8.5,19.8,8.5
	c4.1,0,8.3-0.8,12.2-2.3l0.1,0l1.3,1.1c1.1-0.5,2.2-1.2,3.3-1.8c0.4-0.2,1.4-0.8,1.4-0.8l0.1,0.1c1.8,2.4,3.3,5.1,4.7,7.7
	c1.9,3.4,3.9,7,6.6,10l0.1,0.1l0,0.1c-1.5,4-2.7,8-3.6,11.9l0,0.1l-0.1,0C235,480,223.1,482.9,211.9,482.9z"/>
<path class="st22" d="M182.6,440.7c3.4-1.6,6.7-3.9,10.4-4.8c2.4,0.9,4.3,2.6,6.3,4.2c7.8,9.3,21.4,10.3,32.2,6.3
	c0.3,0.3,1,0.8,1.3,1.1c1.6-0.8,3.1-1.7,4.7-2.5c4.2,5.7,6.6,12.5,11.3,17.8c-1.5,3.9-2.7,7.9-3.6,12c-21.9,11-51.8,12.1-70.4-5.9
	c1-6.2-7.1-8.6-7.4-14.5c0.3-1.2,1.7-1.6,2.6-2.3C175.1,449.3,177.2,443.1,182.6,440.7z"/>
<path class="st10" d="M199.8,552.9c-2.2,0-4.5-0.1-6.7-0.2c-24.9-0.9-48-9.4-65-23.9l-0.1-0.1l0-0.1c0.3-2.4-0.8-4.6-1.8-6.7
	c-0.2-0.3-0.3-0.7-0.5-1l0-0.1l0-0.1c0.8-2.2,1.6-4.3,2.4-6.4c-1.6,1-3,2-4.4,3.1l-0.4,0.3l0-0.4c0.2-1.8-0.2-3.7-0.5-5.4
	c-0.3-1.6-0.6-3.2-0.5-4.9c-0.1-3.9-1.3-7.7-2.5-11.3c-1.5-4.7-3-9.6-2.3-14.7c0.1-1.5,0.8-2.8,1.4-4.1c0.8-1.6,1.6-3,1.3-4.8
	c-0.2-1.7,0.1-3.4,0.3-5c0.4-2.7,0.7-5.3-0.5-7.8l-0.1-0.3l0.3,0c1-0.1,2.1-0.2,3.1-0.3l0.1,0c-0.7-4.1-0.9-7.7-0.4-10.9l0.1-0.7
	l0.3,0.7c1,2.2,1.4,4.6,1.8,7c0.8,4.3,1.5,8.4,5.1,11.2l0,0l0,0.1c3.1,8.9,6.8,16.2,11.4,22.2c11.1,14.9,29,25.1,49.1,27.9
	c4.7,0.8,9.6,1.2,14.6,1.2c15.3,0,31.7-3.8,47.5-10.9c7.5-3.4,15-7.8,22.5-13.1l0.1-0.1l0.1,0.1c2.5,1.9,4.9,3,7.2,3.4l0.3,0.1
	l-0.2,0.3c-2.9,3.5-5,6.6-6.4,9.8c-1.1,10.4-6.7,20-14.5,25.1l3.7,0.4l0.3,3c0,0-1.2,0.5-1.7,0.7c-0.8,0.3-1.6,0.6-2.4,0.9l-0.1,0
	l-0.1-0.1c-0.8-0.7-1.6-1.4-2.4-2.1l-0.3-0.2c0.3,1.8,0.9,3.5,1.7,4.9l0.1,0.2l-0.2,0.1C241,548.3,219.9,552.9,199.8,552.9z"/>
<path class="st10" d="M123.4,447.7c2.6,6,1.2,13.9,6.9,18.3c2.7,7.9,6.3,15.6,11.4,22.2c11.6,15.6,30.1,25.3,49.3,28
	c21.1,3.4,42.9-1,62.2-9.8c7.9-3.6,15.4-8.1,22.5-13.1c2.2,1.6,4.6,2.9,7.3,3.4c-2.5,3-4.8,6.3-6.4,9.9c-1.1,9.9-6.3,19.9-14.9,25.3
	c1.4,0.2,2.8,0.3,4.1,0.5c0.1,0.7,0.2,2,0.3,2.7c-1.3,0.5-2.7,1-4,1.6c-1-0.9-2.1-1.8-3.1-2.7c0.3,1.9,0.9,3.8,1.8,5.5
	c-21.2,9.3-44.4,14.3-67.6,13.1c-23.4-0.9-46.9-8.6-64.9-23.9c0.3-2.8-1.2-5.3-2.4-7.8c0.9-2.4,1.7-4.7,2.6-7
	c-1.7,1.1-3.3,2.2-4.9,3.4c0.3-3.5-1.1-6.8-1-10.4c-0.3-8.9-6-17-4.7-26c0.1-3.3,3.3-5.6,2.8-9c-0.4-4.3,1.8-8.8-0.3-12.9
	c1.1-0.1,2.3-0.2,3.4-0.3C123.1,455.1,122.9,451.4,123.4,447.7z"/>
<path class="st23" d="M260.6,539.6c-0.9-1.7-1.5-3.6-1.8-5.6l-0.1-0.5l1.1,1c0.8,0.7,1.5,1.3,2.3,2c0.8-0.3,1.5-0.6,2.3-0.9
	c0.5-0.2,1-0.4,1.4-0.6l-0.2-2.4l-4.5-0.5l0.5-0.3c8-5,13.6-14.7,14.8-25.2c1.5-3.2,3.4-6.2,6.3-9.7c-2.3-0.5-4.6-1.6-7.1-3.4
	l-0.2-0.2l0.2-0.2c13.5-9.7,25-21.6,34.2-35.5l0.2-0.3l0.1,0.4c0.5,1.6,1.1,3.2,1.6,4.8c1.4-1.3,2.6-2.3,3.8-3.3l0.3-0.2l0.1,0.3
	c0.8,4.7-1.4,8.5-3.5,10.8c0.4,0.9,0.7,1.9,1.1,2.8c1.4-1.5,3.1-3.2,4.8-4.8l0.3-0.3l0.1,0.4c0.6,3.7-0.6,7.2-1.6,10.6
	c-1.2,3.8-2.4,7.6-1.3,11.6c0.4,0.7,0.9,1.4,1.3,2.2c1.1,1.7,2.2,3.5,2.9,5.4l0,0.1l-0.1,0.1c-16.6,17.4-37,31.7-59.1,41.3l-0.2,0.1
	L260.6,539.6z"/>
<path class="st23" d="M275.7,493.4c13.5-9.6,25.1-21.7,34.3-35.5c0.6,1.7,1.1,3.4,1.7,5c1.3-1.2,2.6-2.3,4-3.4
	c0.7,4-0.8,7.8-3.5,10.7c0.4,1.1,0.9,2.2,1.3,3.2c1.6-1.7,3.3-3.4,5-5c1.2,7.7-5,14.6-3,22.3c1.5,2.5,3.2,4.9,4.3,7.6
	c-16.7,17.5-36.9,31.6-59,41.3c-0.9-1.7-1.5-3.6-1.8-5.5c1,0.9,2.1,1.8,3.1,2.7c1.3-0.5,2.7-1,4-1.6c-0.1-0.7-0.2-2-0.3-2.7
	c-1.4-0.2-2.8-0.3-4.1-0.5c8.6-5.4,13.8-15.4,14.9-25.3c1.7-3.6,3.9-6.8,6.4-9.9C280.3,496.3,277.9,495,275.7,493.4z"/>
<path class="st24" d="M359.1,548c-2.3-4.4-5.1-8.3-8.2-12.7c-0.6-2.5-1.8-4.7-2.9-6.8c-1.4-2.5-2.8-5-3.1-7.9l0-0.1l0.1-0.1
	c5.1-5.5,10.1-11.4,14.8-17.1c3.6-4.3,7.4-8.7,11.2-13l0.2-0.2l0.1,0.2c3.5,4.3,6.1,9.2,8.6,14c1.8,3.4,3.6,6.9,5.8,10.1
	c0.3,0,0.7,0,1,0c0.5,0,1.1,0,1.6,0c0.5,0,1.1,0,1.6,0l0.8,0l-0.2,0.3c-8.6,12.8-17.1,23.1-26,31.6c-1.3,0.5-2.6,0.9-3.9,1.3
	l-1.3,0.4L359.1,548z"/>
<path class="st24" d="M345,520.5c9-9.8,17.2-20.2,26-30.1c6,7.3,9.2,16.4,14.4,24.2c1.6,0,3.2,0,4.8,0c-7.6,11.3-16.2,22.2-26,31.6
	c-1.7,0.6-3.3,1.1-5,1.6c-2.4-4.5-5.3-8.6-8.2-12.7C349.9,529.9,345.7,526,345,520.5z"/>
<path class="st25" d="M338.3,569.6c-2.7-1.1-5.4-1.5-7.8-1.8l-0.1,0l0-0.1c-1.1-2.5-2.5-4.9-3.8-7.2c-0.6-1-0.9-2.2-1.1-3.4
	c-0.3-1.4-0.6-2.8-1.6-3.8c-1.6-1.9-3.5-3.5-5.2-5.2c-0.8-0.7-1.6-1.4-2.3-2.2l-0.2-0.2l2.1-1.7c9.2-7.3,18.6-14.8,26.6-23.6
	l0.3-0.3l0.1,0.4c0.4,2.9,1.7,5.4,3.1,7.8c1.2,2.1,2.4,4.3,2.9,6.8c3.1,4.2,5.8,8.2,8.1,12.5l1-0.3c1.3-0.4,2.6-0.8,3.8-1.2l0.7-0.2
	l-0.4,0.5c-5.4,6.7-12.3,12.2-18.9,17.6c-2.3,1.8-4.6,3.7-6.8,5.6l-0.1,0.1L338.3,569.6z"/>
<path class="st25" d="M316.4,545.8c9.9-7.9,20-15.8,28.6-25.2c0.7,5.4,4.9,9.4,6,14.6c2.9,4.1,5.9,8.2,8.2,12.7c1.7-0.5,3.3-1,5-1.6
	c-7.3,9-16.9,15.8-25.6,23.2l-0.3-0.1c-2.5-1-5.2-1.5-7.8-1.8c-1.1-2.5-2.5-4.9-3.8-7.2c-1.4-2.2-0.9-5.3-2.7-7.2
	C321.6,550.4,318.9,548.2,316.4,545.8z"/>
<path class="st26" d="M297.5,591c-1.6,0-2.8-0.5-3.8-1.6l0,0l0-0.1c-0.2-1-0.3-2.1-0.3-3.1c-0.1-2.1-0.1-4.2-1.8-5.7
	c-1.6-1.7-2.9-3.7-4.1-5.6c-1.8-2.9-3.5-5.6-6.4-7.3l-0.3-0.2l0.3-0.2c13.9-7,25.5-14.1,35.2-21.6l0.1-0.1l0.1,0.1
	c0.8,0.7,1.5,1.4,2.3,2.1c1.8,1.6,3.6,3.3,5.3,5.2c1.1,1.1,1.4,2.6,1.7,4c0.2,1.1,0.5,2.3,1.1,3.2c1.3,2.3,2.7,4.6,3.8,7.2
	c2.4,0.3,5.1,0.8,7.8,1.8l0.3,0.1l-0.2,0.2c-7.8,6.7-16.8,12-25.6,17.1l-2.1,1.2c-0.4,0.2-0.9,0.5-1.3,0.7c-1.2,0.7-2.5,1.4-3.9,1.4
	c-0.1,0-0.2,0-0.3,0c-0.3,0-0.5,0-0.8,0c-1.1,0-2.4,0.3-3.5,0.6C299.8,590.8,298.6,591,297.5,591z"/>
<path class="st26" d="M281.1,567.4c12.3-6.2,24.3-13.2,35.3-21.7c2.5,2.4,5.2,4.7,7.5,7.3c1.9,2,1.3,5,2.7,7.2
	c1.4,2.4,2.8,4.7,3.8,7.2c2.7,0.4,5.3,0.8,7.8,1.8c-8.4,7.3-18.1,12.7-27.6,18.3c-1.7,0.9-3.4,2.3-5.4,2.1c-3.9-0.5-8.3,3-11.5-0.5
	c-0.7-3,0.4-6.5-2.2-8.9C287.7,576.4,286.1,570.4,281.1,567.4z"/>
<path class="st27" d="M214.4,614.1c-3.1,0-6.3-0.1-9.4-0.3c-3.7-0.8-7.4-1.4-11-2c-6.5-1.1-13.2-2.3-19.6-4.2
	c-23-7.2-42.5-19.1-56.4-34.5l-0.1-0.1l2.8-2.5l0.1,0.1c19,10.5,40.8,16.7,63.1,17.8c3.5,0.2,7.1,0.3,10.7,0.3
	c28.9,0,58.8-7.4,86.5-21.3l0.1,0l0.1,0.1c3,1.8,4.8,4.7,6.5,7.5c1.2,1.9,2.4,3.9,4.1,5.5c1.8,1.6,1.9,3.8,1.9,6c0,1,0.1,2,0.3,3
	c0.9,1,2,1.5,3.5,1.5c1.1,0,2.2-0.3,3.4-0.5c1.2-0.3,2.4-0.6,3.6-0.6c0.3,0,0.6,0,0.8,0.1l0.2,0l-0.1,0.2c-0.6,1.6-2,2.2-3.5,2.7
	c-0.4,0.2-0.8,0.3-1.2,0.5C273.4,606.8,243.5,614.1,214.4,614.1z"/>
<path class="st27" d="M183.9,588.4c33.6,2.1,67.4-5.9,97.3-21c4.9,2.9,6.5,9,10.5,13c2.6,2.3,1.5,5.9,2.2,8.9
	c3.2,3.5,7.6,0,11.5,0.5c-0.7,2-2.9,2.3-4.6,3c-29.5,14.8-62.7,22.6-95.8,20.8c-10.2-2.2-20.6-3.3-30.5-6.3
	c-21.1-6.6-41.3-17.9-56.3-34.4c0.9-0.8,1.7-1.5,2.6-2.3C140,581.3,161.9,587.4,183.9,588.4z"/>
</svg>
