<?xml version="1.0" encoding="utf-8"?>
<!-- Generator: Adobe Illustrator 19.0.0, SVG Export Plug-In . SVG Version: 6.00 Build 0)  -->
<svg version="1.1" xmlns="http://www.w3.org/2000/svg" xmlns:xlink="http://www.w3.org/1999/xlink" x="0px" y="0px" width="600px"
	 height="600px" viewBox="0 0 600 600" style="enable-background:new 0 0 600 600;" xml:space="preserve">
<style type="text/css">
	.st0{fill:#0F1533;stroke:#0F1533;stroke-width:9.375000e-002;}
	.st1{fill:#2D2F46;stroke:#2D2F46;stroke-width:9.375000e-002;}
	.st2{fill:#434A60;stroke:#434A60;stroke-width:9.375000e-002;}
	.st3{fill:#E7D29E;stroke:#E7D29E;stroke-width:9.375000e-002;}
	.st4{fill:#C6C2C3;stroke:#C6C2C3;stroke-width:9.375000e-002;}
	.st5{fill:#B49769;stroke:#B49769;stroke-width:9.375000e-002;}
	.st6{fill:#5E6B7E;stroke:#5E6B7E;stroke-width:9.375000e-002;}
	.st7{fill:#886E54;stroke:#886E54;stroke-width:9.375000e-002;}
	.st8{fill:#D6BE89;stroke:#D6BE89;stroke-width:9.375000e-002;}
	.st9{fill:#C8AC76;stroke:#C8AC76;stroke-width:9.375000e-002;}
	.st10{fill:#FEFEFE;stroke:#FEFEFE;stroke-width:9.375000e-002;}
	.st11{fill:#F3F3F4;stroke:#F3F3F4;stroke-width:9.375000e-002;}
	.st12{fill:#9D4319;stroke:#9D4319;stroke-width:9.375000e-002;}
	.st13{fill:#503544;stroke:#503544;stroke-width:9.375000e-002;}
	.st14{fill:#B96E17;stroke:#B96E17;stroke-width:9.375000e-002;}
	.st15{fill:#401528;stroke:#401528;stroke-width:9.375000e-002;}
	.st16{fill:#682B2E;stroke:#682B2E;stroke-width:9.375000e-002;}
	.st17{fill:#7F3932;stroke:#7F3932;stroke-width:9.375000e-002;}
	.st18{fill:#BD5608;stroke:#BD5608;stroke-width:9.375000e-002;}
	.st19{fill:#65161A;stroke:#65161A;stroke-width:9.375000e-002;}
</style>
<g id="Layer_2">
</g>
<g id="Layer_1">
	<g id="XMLID_1_">
		<path id="XMLID_87_" class="st0" d="M518.4,46.3c7.4-4,14.5-8.4,21.9-12.1c12.6-3.9,27.2-4.3,38.8,2.8c2.5,4.7,7.3,8.9,5.8,14.8
			c0,14.8-15.5,23.2-28.3,25.4c-6.6,5-14.7,7-21.4,11.8c2.2-5.9,5.8-11,7.8-17c7-4.1,14.1-7.9,21.1-12.2c0.4-0.3,1.3-0.9,1.7-1.3
			c2.7-2.7,1.9-6.5,0.7-9.7c-3.8-2.5-8.6-4.8-13.1-3.1C537.7,53,523.2,62.3,507.9,70c-5.7,1.4-11,3.8-16.5,5.8
			c-2.3-0.3-4.7-0.4-7.1-0.5c-0.1-0.9-0.3-1.8-0.4-2.6c3.1-3.2,6.2-6.5,9.3-9.8c0-0.6,0-1.9,0-2.5C501.7,55.7,510,50.9,518.4,46.3z"
			/>
		<path id="XMLID_86_" class="st1" d="M392.9,117.2c33.4-19.1,66.9-38,100.4-56.9c0,0.6,0,1.9,0,2.5c-3.1,3.3-6.2,6.6-9.3,9.8
			c0.1,0.9,0.3,1.8,0.4,2.6c2.4,0.1,4.7,0.2,7.1,0.5c5.5-2,10.8-4.4,16.5-5.8c-3.1,1.8-6,3.9-8.1,6.9c-9.1,4.6-17.8,10-26.6,15.1
			c-22.6,10.8-43.8,24.5-65.8,36.5c-2.8-3.9-6.5-7.1-10.8-9.1C395.4,118.6,394.1,118,392.9,117.2z"/>
		<path id="XMLID_85_" class="st2" d="M553.3,45.8c4.6-1.7,9.3,0.6,13.1,3.1c-2.2-0.5-4.4-1-6.6-1.4c-7.7-1.4-13.9,4.4-20.3,7.6
			c-13.4,6.9-26,15.3-39.7,21.8c2-3,5-5.1,8.1-6.9C523.2,62.3,537.7,53,553.3,45.8z"/>
		<path id="XMLID_84_" class="st1" d="M579.1,36.9c1.6,0.9,3.2,1.9,4.7,2.8c5.9,5.8,8.4,14.6,5.3,22.4c-4.2,7.4-11.2,12.5-19,15.8
			c-10.9,4.4-20.5,11.5-31.4,16c-11.1,4.8-21.4,12.5-33.7,13.2c-4.2,1.3-8.2,3.3-12.7,2.8c2-4.4,4.3-8.7,6.5-13.1
			C513.5,88.6,528.1,80,543,72c-2,5.9-5.6,11.1-7.9,16.9c6.7-4.8,14.9-6.8,21.4-11.8c12.8-2.2,28.3-10.6,28.3-25.4
			C586.3,45.8,581.6,41.6,579.1,36.9z"/>
		<path id="XMLID_83_" class="st3" d="M355.6,110c3-1.4,6.1-2.4,9.3-2.9c-2.2,0.6-4.4,1.3-6.5,2c1.9,4.4,3.6,8.9,4.5,13.5
			C359.9,118.7,357.6,114.4,355.6,110z"/>
		<path id="XMLID_82_" class="st4" d="M539.5,55.1c6.4-3.2,12.6-9,20.3-7.6c-7.8,2.8-15.3,6.5-22.1,11.4c5.4-1.9,10.1-5.5,15.8-6.4
			c4.9-0.6,9,2.7,12.1,6.1c-0.4,0.3-1.3,1-1.7,1.3c-2.7-6.6-11.4-6.6-16.8-3.6c-40.6,22.1-80.8,44.9-121.2,67.5
			c-5.7,3.3-12,5.8-16.7,10.4c-0.3-1.4-0.6-2.8-1-4.2c21.3-13.2,43.9-24.4,64.9-38.1c8.8-5.1,17.5-10.4,26.6-15.1
			C513.5,70.5,526.1,62.1,539.5,55.1z"/>
		<path id="XMLID_81_" class="st5" d="M339.5,125.6c2.8-7.2,9.2-12.3,16.1-15.6c2,4.4,4.4,8.7,7.3,12.6c-1-4.7-2.6-9.2-4.5-13.5
			c2.2-0.7,4.3-1.4,6.5-2c1.3-0.2,2.6-0.4,3.8-0.4c-1,0.7-1.9,1.3-2.9,2c-0.4,5.4-1.2,10.8-2.2,16.1c2.2,0.8,4.5,1.5,6.7,2.3
			c6,3,13.4,3.1,18.2,8c-1.3,1.6-2.6,3-3.9,4.6c-0.6-0.3-1.8-0.8-2.4-1c-8.3,5.4-13.9-5.2-16.2-11.8c-0.4,0.2-1.3,0.5-1.7,0.6
			c-0.7-1.4-1.4-2.7-2.1-4c-0.8-0.2-1.6-0.5-2.3-0.7c0.4,1.2,0.9,2.3,1.3,3.5c-0.9,0.1-1.8,0.1-2.7,0.2c-3.6-4-9.8-2.9-14.3-5.3
			c-1,1.5-2.1,2.9-3.1,4.4c5,0.6,10.1-0.1,15.1,1.1c-4.4,1.6-8.9,3.4-13.7,3.1C341.5,128.3,340.5,127,339.5,125.6z"/>
		<path id="XMLID_80_" class="st6" d="M559.8,47.5c2.2,0.4,4.4,0.9,6.6,1.4c1.2,3.2,2,7-0.7,9.7c-3.1-3.4-7.2-6.8-12.1-6.1
			c-5.7,0.9-10.5,4.5-15.8,6.4C544.5,54.1,552,50.4,559.8,47.5z"/>
		<path id="XMLID_79_" class="st7" d="M365.9,108.6c1-0.7,1.9-1.3,2.9-2c7.4-0.3,15.2,1.7,20.3,7.3c0.8,2.5,2.9,6.9-0.3,8.5
			c-5.5,1.3-11.1,1.9-16.4,4.1c-0.5,0.2-1.5,0.5-2.1,0.6c-2.2-0.8-4.4-1.6-6.7-2.3C364.7,119.4,365.5,114.1,365.9,108.6z"/>
		<path id="XMLID_78_" class="st8" d="M344.3,121.1c4.5,2.5,10.7,1.4,14.3,5.3c-0.6,0-1.7,0.1-2.3,0.1c-4.9-1.2-10-0.5-15.1-1.1
			C342.2,124,343.2,122.6,344.3,121.1z"/>
		<path id="XMLID_77_" class="st7" d="M337.9,130.6c0.5-1.7,1.1-3.3,1.7-5c1,1.4,2,2.7,3,4.1c4.8,0.3,9.3-1.5,13.7-3.1
			c0.6,0,1.7-0.1,2.3-0.1c0.9-0.1,1.8-0.1,2.7-0.2c-0.5-1.2-0.9-2.3-1.3-3.5c0.8,0.2,1.5,0.5,2.3,0.7c0.7,1.3,1.4,2.7,2.1,4
			c0.2,0.4,0.5,1.2,0.7,1.5c0.2,3.7,0.3,7.4-0.2,11.1c-0.5,4.3-4.7,6.6-7.4,9.6c-1.3-0.3-2.6-0.5-4-0.8l-0.7-0.1
			c-1.6-0.1-3.3,0.1-4.9,0.2c-0.4,1-0.8,2-1.2,3c-0.3-0.4-0.9-1-1.3-1.4c0-1.7,0-3.3,0.1-5c-1.6-1.1-3.2-2.1-4.8-3.2l-0.3-0.9
			C339.5,137.9,338.6,134.3,337.9,130.6z"/>
		<path id="XMLID_76_" class="st5" d="M389.1,113.9c1.2,1.1,2.4,2.3,3.8,3.3c1.2,0.8,2.5,1.4,3.7,2.1c-1,0.1-2.1,0.2-3.1,0.3
			c-1.3,2.3-2.6,4.6-3.9,6.9c-5.7-0.5-11.5-0.2-17.2,0c5.2-2.2,10.9-2.8,16.4-4.1C392,120.9,389.9,116.4,389.1,113.9z"/>
		<path id="XMLID_75_" class="st5" d="M335.6,135.1c0.7-1.5,1.6-3,2.3-4.5c0.7,3.7,1.6,7.4,2.6,11c-0.4,0.4-1.1,1.4-1.5,1.8
			c1.3,2.5,2.5,5,3.8,7.5c-2.2,4-5.5,8.1-5.3,12.8c2.7,3.9,8,4.5,12.3,5.3c9,1.5,19.2,3.3,27.1-2.6c5.2-4,11.4-9,11.7-16.1
			c1.6-1.7,3.2-3.5,4.9-5.2c1.4,14.9-14.2,22.8-26.1,26.8c-5,1-10.5-2.4-15.1,0.9c-6.2-0.8-12.3-1.3-18.5-2.2
			c-3.2-0.4-6.4-0.8-9.6-1.2c0.9-6,4.2-11.2,6.3-16.7c1.7-2.7,3.2-5.5,3.8-8.6C335.1,141.2,335.3,138.1,335.6,135.1z"/>
		<path id="XMLID_74_" class="st6" d="M407.4,128.5c22-12,43.2-25.7,65.8-36.5c-21,13.7-43.6,24.9-64.9,38.1
			C408.1,129.7,407.7,128.9,407.4,128.5z"/>
		<path id="XMLID_73_" class="st4" d="M334.4,144.2c-0.7-3.1-0.7-6.4,1.2-9.1C335.3,138.1,335.1,141.2,334.4,144.2z"/>
		<path id="XMLID_72_" class="st8" d="M364.3,127.6c0.4-0.2,1.3-0.5,1.7-0.6c2.3,6.5,7.9,17.2,16.2,11.8c0.6,0.2,1.8,0.7,2.4,1
			c-0.7,0.9-1.4,1.8-2.1,2.6c-1.5-0.2-3-0.4-4.4-0.6c-4.7,0.4-7.8-2.5-9.3-6.7c2,4.3,1.9,9-2.2,12c1.1,0.6,2.1,1.3,3.2,2l0.4,0.3
			c-2.1,0.1-4.1,0.2-6.1,0.3c-0.2-0.6-0.4-1.8-0.6-2.4c7.9-3.4,4.3-12.4,1.5-18.2C364.8,128.7,364.5,128,364.3,127.6z"/>
		<path id="XMLID_71_" class="st9" d="M370.3,127.1c0.5-0.2,1.6-0.5,2.1-0.6c5.7-0.2,11.5-0.5,17.2,0c1.3-2.3,2.6-4.6,3.9-6.9
			c1-0.1,2.1-0.2,3.1-0.3c4.3,2.1,8,5.2,10.8,9.1c0.2,0.4,0.7,1.2,0.9,1.6c0.4,1.4,0.7,2.8,1,4.2c0.1,0.6,0.5,1.9,0.6,2.5
			c-1.7-2.6-4.5-3.9-7.5-4.4c-0.7-1.8-1.5-3.7-2.2-5.5c-0.5,0.1-1.4,0.4-1.9,0.5c-0.7,2.5-1.4,5-2.3,7.5c-0.8-3.6-1.6-7.1-2.4-10.7
			c-3.6,2.6-4.6,6.9-5.2,11.1C383.7,130.2,376.3,130.1,370.3,127.1z"/>
		<path id="XMLID_70_" class="st5" d="M365,129.1c2.7,5.7,6.4,14.8-1.5,18.2c0.1,0.6,0.4,1.8,0.6,2.4c0.4,2.6,0.3,5.2,0.2,7.8
			c-1-0.3-2-0.7-3-1c-0.1,0.5-0.3,1.6-0.4,2.2c-1.3-2.6-2.6-5.3-3.9-7.9c0.2,2.6,0.5,5.3,0.8,7.9c-1.2-3.3-2.6-6.5-4.1-9.7
			c1.3,0.3,2.6,0.5,4,0.8c2.7-3,6.9-5.2,7.4-9.6C365.3,136.5,365.2,132.8,365,129.1z"/>
		<path id="XMLID_69_" class="st6" d="M570.1,77.9c7.8-3.3,14.7-8.3,19-15.8c-1.5,4.8-4.5,8.9-7,13.2c-20.4,12.2-41.2,24-62.1,35.2
			c-9.8,4.4-19.4,9.2-28.7,14.7c-0.5-0.3-1.4-0.9-1.9-1.2C516,108,543.6,93.9,570.1,77.9z"/>
		<path id="XMLID_68_" class="st3" d="M388.5,135.2c0.6-4.2,1.6-8.4,5.2-11.1c0.9,3.5,1.6,7.1,2.4,10.7c-0.5,1.5-1.1,3.1-1.6,4.6
			c-0.2-0.7-0.6-2.2-0.8-3c-0.2,1.1-0.4,2.3-0.7,3.4c-0.9-2.1-1.9-4.3-2.9-6.4c0.8,3.6,1.9,7.1,3.4,10.5c-0.1,0.4-0.1,0.9-0.1,1.3
			c-1.7,1.7-3.3,3.5-4.9,5.2c-4.6,4.6-10.7,7.5-16.9,9.2c-0.6-3.4-0.9-6.9-1.5-10.3l-0.4-0.3c3.6-1.3,9-2.3,8.3-7.3
			c1.5,0.2,3,0.4,4.4,0.6c0.7-0.9,1.4-1.8,2.1-2.6C385.9,138.2,387.3,136.7,388.5,135.2z"/>
		<path id="XMLID_67_" class="st8" d="M338.9,143.4c0.4-0.4,1.1-1.4,1.5-1.8l0.3,0.9c1,3,2.6,5.8,4.7,8.2c0.3,0.3,0.9,1,1.3,1.4
			c1.1,0.7,2.3,1.3,3.5,2c0.2,1.3,0.5,2.7,0.7,4c-2.9-1.7-5.5-3.9-7.8-6.3l-0.4-0.8C341.5,148.4,340.2,145.9,338.9,143.4z"/>
		<path id="XMLID_66_" class="st5" d="M340.7,142.5c1.6,1,3.2,2.1,4.8,3.2c-0.1,1.7-0.2,3.3-0.1,5
			C343.3,148.3,341.8,145.5,340.7,142.5z"/>
		<path id="XMLID_65_" class="st10" d="M368.7,135.1c1.5,4.2,4.7,7.1,9.3,6.7c0.7,5-4.7,6-8.3,7.3c-1.1-0.7-2.1-1.3-3.2-2
			C370.6,144.1,370.8,139.4,368.7,135.1z"/>
		<path id="XMLID_64_" class="st8" d="M398.4,127.3c0.5-0.1,1.4-0.4,1.9-0.5c0.7,1.9,1.4,3.7,2.2,5.5c3,0.5,5.8,1.8,7.5,4.4
			c0.3,1.3,0.7,2.5,1,3.8c-2.1,6.4-6.5,13.4-3.5,20.2c-0.6,1.5-1.2,3-1.8,4.5c-3.8-5-0.7-11.1-0.8-16.7c0.2-3.1-5.3-4.3-6.1-1.2
			c-1.9,4.2-2.8,9.1-6.7,12.1c2.3-5.4,5.2-10.9,4.1-17c-0.6,0.4-1.8,1.1-2.5,1.5c0.3-1.5,0.6-3,0.9-4.5c0.5-1.5,1.1-3.1,1.6-4.6
			C397,132.3,397.7,129.8,398.4,127.3z"/>
		<path id="XMLID_63_" class="st2" d="M426.1,138.2c24.2-13.8,48.3-27.7,72.7-41.3c-2.1,4.4-4.4,8.7-6.5,13.1
			c4.5,0.4,8.5-1.6,12.7-2.8c12.4-0.8,22.7-8.5,33.7-13.2c10.9-4.5,20.4-11.6,31.4-16c-26.5,15.9-54.2,30.1-80.7,46
			c-6.1,4.5-13.2,7.2-19.8,10.9c-19.8,12.3-40.1,23.5-60.5,34.9c-1.2-1.4-2.5-2.8-3.7-4.2l0.1-0.3c0.6-1.5,1.2-3,1.8-4.5
			c2.3-4.9,3.9-10.1,4.5-15.5C417.2,144.1,421.5,140.7,426.1,138.2z"/>
		<path id="XMLID_62_" class="st11" d="M393.6,143.9c-1.4-3.4-2.5-6.9-3.4-10.5c1,2.1,1.9,4.2,2.9,6.4c0.2-1.1,0.4-2.3,0.7-3.4
			c0.2,0.8,0.6,2.3,0.8,3C394.2,140.8,393.9,142.4,393.6,143.9z"/>
		<path id="XMLID_61_" class="st2" d="M264.2,190.6c22-12.9,44-25.7,66.4-37.8c-2.2,5.6-5.5,10.7-6.3,16.7
			c-1.4,5.6-6.7,9.3-7.6,15.2c-6.6,1.6-12.7,5.3-18.1,9.3c-3.3,2.6-1.6,6.8-0.5,10c3.1,1,6.3,1.7,9.6,1.6c-1.7,3.2-3.3,6.4-4.6,9.7
			c-3.1,7.2-5.9,14.4-9.2,21.4c-0.2-0.4-0.6-1.2-0.8-1.6c0.2-0.5,0.5-1.5,0.7-1.9c-7.8-1.9-13.1,5-20.4,5.1
			c-0.2,2.9,0.3,6.7-2.7,8.4c-2.3,1.5-4.6,3.2-5.3,6c-1.9,1.2-3.7,2.6-5.5,4c9.4-4.1,17.7-10.1,26.7-14.9c1.2,0.3,2.4,0.6,3.6,0.9
			c-9,4-17.3,9.4-25.9,14.3c-2.4,1-4.9,1.8-7.3,2.7c0.8-0.9,1.6-1.9,2.4-2.8c-13.7,6.8-26.4,15.6-39.8,23.1c-5.9,3.4-12,6.6-17.3,11
			c-6.7,3.2-13,7.1-19.6,10.5c1-2.9,3.4-4.8,6.2-5.9c10.5-4.8,19.6-12,29.5-17.8c7-3.5,13.5-8,19.1-13.5c4.9-1.2,9.4-4,11.4-8.9
			c4.8-2.1,5.4-8.3,2.1-12c0.7-3.1,1.5-6.2,2.5-9.2c-3.8-1.8-7.2-4.3-10.1-7.3c-0.7-3-1.8-5.9-3-8.8c-2.5,0.4-5.1,1.1-7.1,2.8
			c-0.9-0.9-1.8-1.7-2.7-2.6c-9.6,2.5-18.7,6.4-28.5,8.1c13.4-8.1,27-15.9,40.6-23.4C251,201.9,261.7,199.9,264.2,190.6z"/>
		<path id="XMLID_60_" class="st4" d="M520,110.5c21-11.2,41.7-23,62.1-35.2c-1,1.6-2.1,3.1-3.8,4.1c-52.9,29.6-105.7,59.4-158.6,89
			c-1.7,0.1-3.4,0.1-5,0c13.1-6.3,25.9-13.3,38.5-20.7C475.4,135.2,497.9,123.2,520,110.5z"/>
		<path id="XMLID_59_" class="st5" d="M347.9,149.1c1.6-0.2,3.2-0.3,4.9-0.2c0.7,2.6,1.3,5.3,2,7.9c-1.2-2.3-2.3-4.5-3.5-6.8
			c0.3,1.7,0.6,3.4,0.9,5.1c-0.7-0.4-1.3-0.7-2-1.1c-1.2-0.6-2.3-1.3-3.5-2C347.1,151,347.5,150.1,347.9,149.1z"/>
		<path id="XMLID_58_" class="st7" d="M337.5,163.7c-0.2-4.7,3.1-8.8,5.3-12.8l0.4,0.8c0.5,4.5-1.9,10.2,2.3,13.5
			c1.4,1.3,2.9,2.6,4.3,3.8C345.4,168.2,340.2,167.6,337.5,163.7z"/>
		<path id="XMLID_57_" class="st12" d="M345.4,165.2c-4.2-3.3-1.8-9-2.3-13.5c2.3,2.4,4.9,4.6,7.8,6.3c2.2,1,4.5,1.7,6.8,2.3
			c2.7,0.5,5.5,0.6,8.2,0.5c0.2,1.1,0.5,2.3,0.8,3.4c-2.7,1-5.2,2.5-7.3,4.5C354.8,167.4,350.3,165.5,345.4,165.2z"/>
		<path id="XMLID_56_" class="st3" d="M352.8,148.8l0.7,0.1c1.5,3.2,2.9,6.4,4.1,9.7c0.1,0.4,0.1,1.3,0.2,1.7
			c-2.3-0.6-4.6-1.3-6.8-2.3c-0.2-1.3-0.5-2.7-0.7-4c0.7,0.4,1.3,0.7,2,1.1c-0.3-1.7-0.6-3.4-0.9-5.1c1.2,2.3,2.3,4.5,3.5,6.8
			C354.1,154.1,353.4,151.5,352.8,148.8z"/>
		<path id="XMLID_55_" class="st9" d="M357.5,158.6c-0.2-2.6-0.6-5.3-0.8-7.9c1.3,2.6,2.6,5.3,3.9,7.9c0.1-0.5,0.3-1.6,0.4-2.2
			c1,0.3,2,0.7,3,1c0.1-2.6,0.2-5.2-0.2-7.8c2-0.1,4.1-0.2,6.1-0.3c0.6,3.4,0.9,6.9,1.5,10.3c-1.9,0.5-3.8,0.9-5.7,1.2
			c-2.8,0.2-5.5,0-8.2-0.5C357.7,159.9,357.6,159.1,357.5,158.6z"/>
		<path id="XMLID_54_" class="st9" d="M393.6,143.9c0.6-0.4,1.8-1.1,2.5-1.5c1.1,6.1-1.7,11.6-4.1,17c-6.6,6.4-15.2,10-22.5,15.4
			c-1.8-0.2-3.6-0.2-5.3-0.3c-2.2-0.1-4.5-0.3-6.7-0.7c-0.6-0.1-1.7-0.3-2.3-0.4c-0.7-0.1-2.1-0.4-2.9-0.6
			c4.6-3.3,10.1,0.1,15.1-0.9c11.9-4,27.5-11.9,26.1-26.8C393.5,144.8,393.6,144.3,393.6,143.9z"/>
		<path id="XMLID_53_" class="st5" d="M407.4,160.7c-3.1-6.8,1.3-13.8,3.5-20.2c0.4,1.6,0.7,3.2,1,4.7
			C411.3,150.6,409.7,155.8,407.4,160.7z"/>
		<path id="XMLID_50_" class="st3" d="M398.7,147.3c0.8-3.1,6.3-1.9,6.1,1.2c0.1,5.6-2.9,11.6,0.8,16.7l-0.1,0.3
			c-0.1,0.2-0.3,0.8-0.4,1c-1.6,4.3-3.3,8.7-6.2,12.4c-0.7-0.6-1.4-1.2-2.2-1.8c-9.2,1.3-18.2-1.5-27.3-2.3c7.4-5.4,16-9,22.5-15.4
			C395.9,156.5,396.8,151.6,398.7,147.3 M394.7,159.8c-0.7,4.9-2.6,9.5-4.5,14c7.8-1.2,14-10.8,8.9-17.9
			C397.6,157.2,396.2,158.5,394.7,159.8z"/>
		<path id="XMLID_49_" class="st13" d="M316.7,184.7c0.9-5.9,6.2-9.6,7.6-15.2c3.2,0.3,6.4,0.7,9.6,1.2c-0.5,1.9-1.1,3.7-1.6,5.6
			c-1.3-1.2-2.6-2.4-3.9-3.6c-3.6,5.4-1.9,12.5-5.6,17.9c-2.4,4-3.4,8.8-6.3,12.6c-4.5,5.4-3.7,13.4-9,18.4c-0.5-2.3-1-4.6-1.5-7
			c-0.7,0.2-2.1,0.5-2.9,0.7c1.3-3.3,2.9-6.5,4.6-9.7c2.8-5.7,5.3-11.6,7.8-17.5C315.9,186.9,316.2,185.8,316.7,184.7z"/>
		<path id="XMLID_48_" class="st14" d="M371.7,159.6c6.3-1.7,12.3-4.6,16.9-9.2c-0.3,7.1-6.5,12.1-11.7,16.1
			c-8,5.9-18.1,4.1-27.1,2.6c-1.5-1.3-2.9-2.5-4.3-3.8c4.8,0.3,9.3,2.2,14,3.6c2.1-2,4.6-3.6,7.3-4.5c-0.3-1.1-0.5-2.3-0.8-3.4
			C367.9,160.5,369.8,160.1,371.7,159.6z"/>
		<path id="XMLID_47_" class="st5" d="M491.3,125.2c9.2-5.5,18.9-10.3,28.7-14.7c-22.1,12.7-44.6,24.7-66.8,37.2
			c-12.5,7.4-25.3,14.4-38.5,20.7c-2.2,1.2-4.1,2.9-5.6,5c-0.1-0.4-0.3-1.3-0.5-1.8c-1.1-1.8-2.4-3.4-3.5-5.1c0.1-0.2,0.3-0.8,0.4-1
			c1.2,1.4,2.5,2.8,3.7,4.2c20.3-11.3,40.7-22.6,60.5-34.9c6.5-3.7,13.7-6.4,19.8-10.9C489.9,124.3,490.8,124.9,491.3,125.2z"/>
		<path id="XMLID_46_" class="st6" d="M242.8,202.8c7-4.3,14.1-8.5,21.4-12.2C261.7,199.9,251,201.9,242.8,202.8z"/>
		<path id="XMLID_45_" class="st15" d="M322.6,190.5c3.7-5.4,2-12.5,5.6-17.9c1.3,1.2,2.6,2.4,3.9,3.6c0.6-1.9,1.1-3.7,1.6-5.6
			c6.1,0.8,12.3,1.4,18.5,2.2c0.7,0.1,2.1,0.4,2.9,0.6c0,6.6,5.9,9.7,11.3,11.5c2.2,1.2,3.6,3.3,4.4,5.6c-1.3-0.8-2.6-1.6-3.9-2.4
			c-0.6,2.5-0.5,5.1,0.3,7.6c-4.1,2-8.2,5-13,4.1c-4.3-0.7-5.8,4.5-7.7,7.4c-1.9-0.7-3.8-1.4-5.7-2.1c-6,4.8-10.7,11.1-18,13.9
			c-2.6,5.8-5.1,12-10.7,15.7c-0.3-0.7-1-2.1-1.3-2.7c-2.9,4.5-7.3,7.5-10.6,11.6l-0.4,0.5c-4.4,6.5-8.5,13.6-16.3,16.4
			c2.6-6.1,5.6-12,7.7-18.3l-1.1,0.5c-1.2-0.3-2.4-0.6-3.6-0.9c2.6-1.4,5.3-2.8,7.4-5.1c3.3-7.1,6.2-14.3,9.2-21.4
			c0.7-0.2,2.1-0.5,2.9-0.7c0.5,2.3,0.9,4.7,1.5,7c5.3-5,4.5-13,9-18.4C319.2,199.3,320.2,194.6,322.6,190.5z"/>
		<path id="XMLID_44_" class="st11" d="M394.7,159.8c1.4-1.3,2.9-2.6,4.3-3.8c5.1,7-1.1,16.6-8.9,17.9
			C392.1,169.3,394,164.7,394.7,159.8z"/>
		<path id="XMLID_43_" class="st4" d="M298.5,194c5.4-4,11.5-7.7,18.1-9.3c-0.4,1.1-0.8,2.2-1.3,3.4c-5.8,1.2-11.1,4.3-15.7,8
			c-2.7,1.8-1.6,5.3-1.7,7.9C297,200.7,295.2,196.5,298.5,194z"/>
		<path id="XMLID_42_" class="st7" d="M355.2,173.4c0.6,0.1,1.7,0.3,2.3,0.4c0.8,2.3,1.6,4.6,2.3,6.9c2.4,0.7,4.9,1.4,7.3,2.1
			c-0.9-2.8-1.9-5.5-3-8.3c1.8,0.1,3.6,0.1,5.3,0.3c9.1,0.8,18.1,3.6,27.3,2.3c-0.5,1.3-1.1,2.5-1.6,3.8c-6.1,1.4-12.4,2.7-18.5,1
			c-3.1-1-6.1-0.1-8.5,1.9c-0.4,0.3-1.2,0.8-1.7,1C361,183.1,355.2,180,355.2,173.4z"/>
		<path id="XMLID_41_" class="st5" d="M357.4,173.8c2.2,0.4,4.4,0.6,6.7,0.7c1.1,2.7,2.1,5.5,3,8.3c-2.4-0.7-4.9-1.4-7.3-2.1
			C359,178.4,358.2,176.1,357.4,173.8z"/>
		<path id="XMLID_40_" class="st1" d="M127.1,270.1c24.5-15.4,50.1-29.2,75.1-43.9c9.8-1.7,18.9-5.7,28.5-8.1
			c0.9,0.9,1.8,1.7,2.7,2.6c2-1.7,4.5-2.4,7.1-2.8c1.2,2.9,2.3,5.8,3,8.8c2.9,3,6.3,5.6,10.1,7.3c-0.9,3-1.8,6.1-2.5,9.2
			c3.3,3.7,2.7,10-2.1,12c-2,4.9-6.5,7.7-11.4,8.9c-5.7,5.4-12.2,9.9-19.1,13.5c-9.9,5.8-19,13-29.5,17.8c-2.8,1.1-5.2,3-6.2,5.9
			c-28.3,17.7-57.7,33.7-86.1,51.2c-5.2,3.5-11.3,0-16.8-0.8c10.3-1.5,20.1-6,27.3-13.7c5.8-6.4,16.5-8,19.5-16.8
			c1.5-0.3,3-0.7,4.4-1c-0.2-1.2-0.5-2.3-0.7-3.5c5.3-4,11-10.4,8.9-17.5c1.4,0.6,2.7,1.2,4.1,1.8c-0.5-1.2-1-2.4-1.4-3.6
			c0.9-1,1.7-1.9,2.6-2.9c-1.9-2.2-3.1-5-3.6-7.9c-0.5,0.5-1,1.1-1.5,1.6c-2.1-1.5-4.3-3-6.5-4.4c-1.1,1.1-2.1,2.1-3.2,3.2
			c-2.1-1.6-4.2-3.3-6.2-5c-1.8,1.2-3.6,2.4-5.4,3.6c-0.9-0.7-1.8-1.3-2.6-2c-3.1,3.1-7.1,4.8-11.3,5.7c-8,1.6-14.4,8.9-23.1,7.2
			C96.2,287.8,111.2,278.2,127.1,270.1z"/>
		<path id="XMLID_39_" class="st4" d="M398.9,178.9c2.9-3.7,4.6-8.1,6.2-12.4c1.2,1.7,2.4,3.3,3.5,5.1
			c-29.7,75.9-58.6,152.1-88.3,228c-1.8,3.8-3.5,7.7-3.9,11.9c3.7-6.6,6-13.8,8.9-20.8c28.4-72.3,56-144.8,83.8-217.3
			c1.5-2.1,3.4-3.7,5.6-5c-0.5,10.9-6.6,20.6-10.1,30.7c0.6,0.9,1.3,1.8,1.9,2.8c-37.1,99.6-75.8,198.7-112.8,298.3
			c-1-0.3-2.1-0.5-3.1-0.8c-8,20-15.5,40.2-23.5,60.1c-3.7-2.1-7.2-4.4-10.8-6.7c-0.5-0.3-1.4-0.9-1.9-1.2
			c10.6-18.9,16.1-40.2,24.5-60.1c1.9-3.3,0.7-6.8-1.6-9.5c0.2-0.4,0.5-1.1,0.6-1.4c9-22,17.1-44.2,26.1-66.1
			c7.4-18.8,14.8-37.6,22-56.5c5.9-15.4,12.1-30.6,18-46c6.6-17,13.1-34.1,20-51c10.1-26.7,20.5-53.4,31.1-79.9
			c0.5-1.3,1-2.5,1.6-3.8C397.5,177.7,398.2,178.3,398.9,178.9z"/>
		<path id="XMLID_38_" class="st2" d="M368.1,183.9c2.4-2,5.5-2.9,8.5-1.9c6.2,1.7,12.5,0.4,18.5-1c-10.6,26.6-21,53.2-31.1,79.9
			c-1.8-7.7,2.9-14.7,3.1-22.3c3.2-1.6,3.3-5.1,2.4-8.2c0.9-0.5,1.7-1.1,2.6-1.6c-1.1-6.3,4.7-10.3,5.6-16.2
			c1.3-7.9,7.3-14.7,5.2-23.1c-1.3-0.1-2.6-0.3-3.8-0.4c0.8-1.4,1.5-2.8,2.3-4.2C376.9,184.4,372.5,183.8,368.1,183.9z"/>
		<path id="XMLID_37_" class="st11" d="M414.7,168.4c1.7,0,3.4,0,5,0c-5.2,10.8-7.8,22.8-13.3,33.5c-0.6-0.9-1.3-1.8-1.9-2.8
			C408.1,189,414.3,179.3,414.7,168.4z"/>
		<path id="XMLID_36_" class="st13" d="M366.4,184.9c0.4-0.3,1.3-0.8,1.7-1c4.4,0,8.8,0.5,13.2,1.2c-0.8,1.4-1.5,2.8-2.3,4.2
			c1.3,0.1,2.6,0.3,3.8,0.4c2,8.3-3.9,15.2-5.2,23.1c-0.9,5.9-6.7,9.9-5.6,16.2c-0.9,0.5-1.7,1.1-2.6,1.6c0.9,3.1,0.9,6.5-2.4,8.2
			c-0.2,7.6-4.9,14.5-3.1,22.3c-6.9,16.9-13.4,34-20,51c-0.5,0-1.4,0.1-1.9,0.1c-4.5,11.3-13.1,20.7-15.3,33
			c-0.9-0.2-1.7-0.4-2.6-0.5c-2,3.3-5,5.7-8.5,7.2c3.7-6.3,8.9-13.4,7.7-21c9.4-6.5,3.3-18.6,6.5-27.7c1.3-6.5,2.8-14.4-1.3-20.1
			c-0.3-0.4-1-1.3-1.3-1.7c1-1.8,2.1-3.7,3.1-5.5c0.8,0.7,1.7,1.4,2.5,2.2c1-0.4,2-0.8,3-1.2c0.6,2.3,1.2,4.6,1.9,6.8
			c0.9-0.6,1.8-1.2,2.8-1.8c1.1,0.8,2.2,1.5,3.3,2.3c3-7.4,2.7-18.7,12.5-20.6c2.2-6.5,1.9-13.3,2.3-20.1c2.3-9.8,2.2-20.1,5.6-29.7
			c-1.5-0.5-3-1-4.5-1.5c-0.1-1.5-0.1-3-0.2-4.5c-2.8,1.8-5.6,4.2-5.5,7.7c0.2,6.4-5.8,10.5-11.1,12.7c0.4,1.7,0.9,3.5,1.3,5.2
			c-2.7,2.7-3.7,6.5-4.6,10.1c0.1-5.8,0.5-11.6,0.9-17.4c0.3-4.8,4.5-8.3,5.5-12.8c-1.1-2-3.9-2.7-5.7-4c-3.4,4.2-8.4,7.3-9.9,12.8
			c-1.7-0.4-3.4-0.9-5.2-1.3c-3.2,5.4-6.1,11.3-11.5,14.8c-4.4,2.8-9.1,5.2-13.5,8.1c3.3-4,7.7-7.1,10.6-11.6c0.3,0.7,1,2.1,1.3,2.7
			c5.7-3.7,8.1-9.9,10.7-15.7c7.4-2.9,12.1-9.2,18-13.9c1.9,0.7,3.8,1.4,5.7,2.1c1.9-2.9,3.4-8.1,7.7-7.4c4.8,0.9,8.9-2.1,13-4.1
			c-0.8-2.5-0.9-5.1-0.3-7.6c1.3,0.8,2.6,1.6,3.9,2.4C370.1,188.2,368.7,186.1,366.4,184.9z"/>
		<path id="XMLID_35_" class="st2" d="M320.4,399.6c29.7-75.9,58.6-152.1,88.3-228c0.1,0.4,0.4,1.3,0.5,1.8
			c-27.9,72.4-55.4,145-83.8,217.3c-2.8,7-5.2,14.2-8.9,20.8C316.9,407.3,318.5,403.3,320.4,399.6z"/>
		<path id="XMLID_34_" class="st16" d="M330.4,221.9c1.5-5.5,6.5-8.5,9.9-12.8c1.9,1.3,4.6,2,5.7,4c-1,4.5-5.2,8-5.5,12.8
			c-0.4,5.8-0.8,11.6-0.9,17.4c-1.2,5.3-1.5,10.8-2,16.2c-1.9-2.2-3.6-4.6-5.1-7.1c-5.5,1.3-7.1,6.7-6.8,11.7
			c-0.4,6.3-2.9,12.4-1.9,18.8c1.2-0.6,2.3-1.2,3.5-1.8c0.3,0.4,1,1.3,1.3,1.7c-1.6,2.9-0.9,8.6-4.6,9.2c-1.1-3.7-1.5-7.6-2.3-11.4
			c-3,4.3-7.8,6.9-11.5,10.5c-1,1.5-1.9,3-2.8,4.5c-1.6-2.1-3.9-4.5-2.4-7.3c3.1-7.1,2.1-15,4.2-22.3c1.4-6.6,0.2-13.3,0.5-19.9
			c-10.1,6-15.2,17.8-14.9,29.3c-0.3-0.8-0.9-2.4-1.2-3.1c-0.6,1.2-1.2,2.5-1.8,3.7c-1.1,0.1-2.1,0.1-3.2,0.2
			C288,286,283,295,283,304.9c1.8-3.5,3.5-7.1,5.4-10.6c0.4,2.3,0.8,4.6,1.2,7c0.8-1.5,1.7-3.1,2.5-4.7
			c-0.9,11.2-8.3,20.2-12.7,30.1c-1.9-6.1-4.1-12.7-0.3-18.7c-2.6-3.5-2.7-7.8-2.8-12c-0.6-9.4,4.4-17.6,8.2-25.8
			c5.5-0.3,6.1-6.1,7.6-10.2c1.7-5.7,6-10.3,7.5-16.1l0.4-0.5c4.4-2.9,9.1-5.3,13.5-8.1c5.4-3.5,8.4-9.4,11.5-14.8
			C326.9,221.1,328.6,221.5,330.4,221.9z"/>
		<path id="XMLID_33_" class="st1" d="M354,215.2c0-3.6,2.8-6,5.5-7.7c0.1,1.5,0.1,3,0.2,4.5c1.5,0.5,3,1,4.5,1.5
			c-3.4,9.6-3.3,19.9-5.6,29.7c-0.3,6.7,0,13.6-2.3,20.1c-9.8,1.9-9.5,13.3-12.5,20.6c-1.1-0.8-2.2-1.5-3.3-2.3
			c-0.9,0.6-1.8,1.2-2.8,1.8c-0.6-2.3-1.3-4.5-1.9-6.8c-1,0.4-2,0.8-3,1.2c-0.9-0.7-1.7-1.4-2.5-2.2c-1.1,1.8-2.1,3.6-3.1,5.5
			c-1.2,0.6-2.3,1.2-3.5,1.8c-1-6.4,1.4-12.5,1.9-18.8c-0.2-5,1.4-10.4,6.8-11.7c1.5,2.5,3.2,4.9,5.1,7.1c0.5-5.4,0.8-10.9,2-16.2
			c0.9-3.6,1.8-7.4,4.6-10.1c-0.4-1.7-0.9-3.5-1.3-5.2C348.3,225.7,354.2,221.6,354,215.2z"/>
		<path id="XMLID_32_" class="st0" d="M103.8,289.5c4.2-0.8,8.2-2.6,11.3-5.7c0.9,0.7,1.8,1.3,2.6,2c1.8-1.2,3.6-2.4,5.4-3.6
			c2.1,1.7,4.2,3.3,6.2,5c1.1-1.1,2.1-2.1,3.2-3.2c2.2,1.4,4.4,2.9,6.5,4.4c0.5-0.5,1-1.1,1.5-1.6c0.5,2.9,1.7,5.6,3.6,7.9
			c-0.9,1-1.7,1.9-2.6,2.9c0.5,1.2,0.9,2.4,1.4,3.6c-1.4-0.6-2.7-1.2-4.1-1.8c2.1,7.2-3.6,13.5-8.9,17.5c0.2,1.2,0.5,2.3,0.7,3.5
			c-1.5,0.3-3,0.6-4.4,1c-3,8.8-13.6,10.4-19.5,16.8c-7.2,7.8-17,12.2-27.3,13.7c-10.1-1.4-20-4.2-30.2-5.1
			c-1.2-0.2-2.4-0.4-3.5-0.7c-12.2-2.7-24.6-4.6-36.9-7.3c0.9-0.6,1.8-1.2,2.7-1.7c3.2-2,6.4-4.2,10.2-5c-0.2-0.1-0.7-0.4-0.9-0.5
			c19.9-11.6,39.8-23.3,59.8-34.8C89.4,298.4,95.8,291.1,103.8,289.5z"/>
		<path id="XMLID_31_" class="st6" d="M273.2,238.2c7.3-0.1,12.6-7,20.4-5.1c-0.2,0.5-0.5,1.4-0.7,1.9c0.2,0.4,0.6,1.2,0.8,1.6
			c-9.9,4.6-18.9,10.9-28.6,15.9c0.8-2.8,3-4.6,5.3-6C273.5,244.9,273.1,241.1,273.2,238.2z"/>
		<path id="XMLID_30_" class="st4" d="M265.2,252.6c9.7-5,18.7-11.3,28.6-15.9c-2.1,2.2-4.8,3.7-7.4,5.1c-9,4.7-17.3,10.8-26.7,14.9
			C261.5,255.2,263.3,253.8,265.2,252.6z"/>
		<path id="XMLID_29_" class="st5" d="M219.4,279.9c13.4-7.5,26.1-16.3,39.8-23.1c-0.8,0.9-1.6,1.9-2.4,2.8c2.4-0.9,4.9-1.7,7.3-2.7
			c-16.3,10.2-32.9,19.8-49.8,29c-4.1,1.6-8.2,3.2-12.2,5C207.4,286.5,213.5,283.3,219.4,279.9z"/>
		<path id="XMLID_28_" class="st13" d="M283.4,260.5c7.8-2.8,12-9.9,16.3-16.4c-1.5,5.8-5.8,10.4-7.5,16.1
			c-1.5,4.1-2.1,9.9-7.6,10.2c-1.6-0.7-3.2-1.3-4.8-1.9C281.1,265.7,282.3,263.1,283.4,260.5z"/>
		<path id="XMLID_27_" class="st12" d="M294.9,275.4c-0.3-11.5,4.8-23.2,14.9-29.3c-0.2,6.6,0.9,13.4-0.5,19.9
			c-2.1,7.3-1.1,15.2-4.2,22.3c-1.6,2.8,0.8,5.2,2.4,7.3c0.9-1.5,1.8-3.1,2.8-4.5c3.1-1.3,6-2.8,9-4.4c0,4.9,0.5,9.7,1.7,14.5
			c-4.5,6.1,0.9,13,1.1,19.6c-0.6,1-1.2,2.1-1.8,3.1c-4.4,1.9-8,5.3-11.9,8c0.2-1.4,0.4-2.7,0.5-4.1c-0.8,0.5-1.7,1-2.5,1.4
			c0.9-3.1,2.3-6.1,3.6-9c-0.5-0.3-1.4-0.9-1.9-1.2c-6.4,3.9-8,11.4-11,17.8c2.8-1.3,5.5-2.7,8.2-4.2c-3.4,6.5-4.8,14-8.6,20.2
			c-3-1.4-5.8-3.1-8.5-5.1c0.3-2.2,0.5-4.3,0.8-6.5c-1.3-0.2-2.6-0.4-4-0.5c1.8-2,3.6-4,5.3-6c-2.1,0.2-4.2,0.3-6.2,0.6
			c6-2.2,7.7-9,12.5-12.6c0.6-5.3,4.6-9.1,8-12.8c-1.7-2.6-3.4-5.3-5-7.9c-5.2,4.9-9.1,11-12.8,17c-4.1,7-9.4,13.2-12.1,20.9
			c0.8,0.2,2.5,0.5,3.4,0.7c-2.3,3-4.7,6-7.2,8.8c0.3-2.4,0.5-4.7,0.8-7.1c-3.4,1.2-6.8,2.4-10,4c1.9-11.3,15.8-20.5,10-33
			c-2,1-4,2-6.1,2.8c2.5-4.7,5.2-9.4,7.2-14.4c-1.2-0.6-2.4-1.2-3.5-1.8c1-1.4,1.9-2.8,2.9-4.2c1.4,0.1,2.9,0.2,4.3,0.3
			c0.1,4.1,0.2,8.5,2.8,12c-3.7,6-1.5,12.5,0.3,18.7c4.4-10,11.7-19,12.7-30.1C293.1,289.5,294.5,282.5,294.9,275.4z"/>
		<path id="XMLID_26_" class="st4" d="M202.1,290.9c4-1.8,8.1-3.4,12.2-5c-5.4,4-11.3,7.1-17,10.6c-31.3,18-62.5,36.2-93.7,54.3
			c-4.7,2.5-9.5,7.2-15.2,5.1c-12.9-3.3-26.5-4.5-39-9.2c10.2,0.9,20.1,3.7,30.2,5.1c5.5,0.7,11.6,4.3,16.8,0.8
			c28.5-17.4,57.8-33.4,86.1-51.2C189.1,298,195.4,294.1,202.1,290.9z"/>
		<path id="XMLID_25_" class="st17" d="M247.5,343.9c9.8-25.6,22-50.2,32.4-75.6c1.6,0.6,3.2,1.3,4.8,1.9
			c-3.8,8.2-8.8,16.4-8.2,25.8c-1.5-0.1-2.9-0.2-4.3-0.3c-1,1.4-2,2.8-2.9,4.2C259.8,313.6,256.9,330.5,247.5,343.9z"/>
		<path id="XMLID_24_" class="st15" d="M291.9,276c0.6-1.2,1.2-2.5,1.8-3.7c0.3,0.8,0.9,2.4,1.2,3.1c-0.4,7.1-1.8,14.1-2.6,21.2
			c-0.8,1.6-1.6,3.2-2.5,4.7c-0.4-2.3-0.8-4.7-1.2-7c-1.9,3.5-3.6,7.1-5.4,10.6c0-9.9,5-18.9,5.6-28.7
			C289.8,276.1,290.8,276.1,291.9,276z"/>
		<path id="XMLID_23_" class="st17" d="M310.3,291.2c3.7-3.7,8.4-6.2,11.5-10.5c0.7,3.8,1.2,7.6,2.3,11.4c3.7-0.7,3-6.4,4.6-9.2
			c4.1,5.7,2.5,13.7,1.3,20.1c-3.2,9.1,2.9,21.2-6.5,27.7c-0.6-3.2-0.9-6.4-1.4-9.6c-0.2-6.6-5.5-13.5-1.1-19.6
			c-1.2-4.7-1.7-9.6-1.7-14.5C316.3,288.4,313.3,289.9,310.3,291.2z"/>
		<path id="XMLID_22_" class="st14" d="M247.5,343.9c9.5-13.4,12.4-30.4,21.7-43.9c1.2,0.6,2.4,1.2,3.5,1.8c-2,5-4.7,9.7-7.2,14.4
			c-4,9.6-10.8,17.9-13.3,28.2c-1.7,4.5-4.6,8.4-7.4,12.3c-0.9-0.6-1.8-1.2-2.7-1.8C243.7,351.1,245.4,347.5,247.5,343.9z"/>
		<path id="XMLID_21_" class="st18" d="M286.8,319.1c3.8-6,7.7-12.1,12.8-17c1.7,2.6,3.4,5.3,5,7.9c-3.5,3.7-7.4,7.5-8,12.8
			c-4.8,3.6-6.5,10.4-12.5,12.6c-2.5,1.2-4.4,3.1-6.1,5.3c-0.8-0.2-2.5-0.5-3.4-0.7C277.4,332.3,282.7,326.1,286.8,319.1z"/>
		<path id="XMLID_20_" class="st18" d="M265.5,316.2c2.1-0.9,4.1-1.8,6.1-2.8c5.8,12.5-8.1,21.7-10,33c-1.7,0.8-3.3,1.7-5,2.6
			c-1-0.4-2-0.8-3-1.2c0.4-1.1,0.8-2.1,1.2-3.1c-0.9-0.1-1.7-0.1-2.5-0.2C254.7,334.1,261.5,325.9,265.5,316.2z"/>
		<path id="XMLID_19_" class="st18" d="M297.1,337c2.9-6.3,4.6-13.8,11-17.8c0.5,0.3,1.4,0.9,1.9,1.2c-1.4,2.9-2.7,5.9-3.6,9
			c-0.3,1.1-0.7,2.2-1,3.3C302.6,334.3,299.9,335.7,297.1,337z"/>
		<path id="XMLID_18_" class="st17" d="M342.1,312c0.5,0,1.4-0.1,1.9-0.1c-5.9,15.4-12.1,30.6-18,46c-0.5-1.1-0.9-2.2-1.3-3.2
			c-3.6,2.1-7.5,4.9-7.3,9.6c-0.1,7.9-5.3,14.3-6.5,21.9c-0.8,6.4-5.1,11.3-9.3,15.8c-2.2,3.7,1.6,7.7,0.4,11.7
			c0.5,0.2,1.6,0.6,2.1,0.8c-9,21.9-17.1,44.2-26.1,66.1c-0.8,0.5-1.6,1.1-2.5,1.6c-4.1-0.9-8.1-2-12.1-3.2
			c3.2-5.4,9.2-8.2,12.2-13.7c4.8-2.2,5.9-7.6,8.2-11.8c4.8-7.5-0.9-18,5.8-24.8c-0.5-0.3-1-0.7-1.4-1c-0.9,0.2-1.7,0.4-2.6,0.6
			c2.2-5.1,3.1-10.7,3.8-16.2c1.7-1.3,3.4-2.7,5.1-4c-1.8-1-3.6-2.1-5.4-3.1c2.5-1.9,4.7-4,6.8-6.3c-9.6-0.1-13,9.8-17.9,16.2
			c-0.5-1.5-0.9-3.1-1.4-4.6c5.6-2.8,6.1-9.3,7.7-14.6c-1.2,0.4-2.4,0.8-3.6,1.2c1.3-3,2.9-5.9,4.7-8.7c1.1-0.2,2.3-0.3,3.4-0.5
			c0.2-2.6,0.4-5.3,0.6-7.9c-1.4-0.7-2.7-1.3-4.1-2c0.5-2.2,1-4.3,1.5-6.5c0.4,0.4,1.2,1.1,1.6,1.4c0.1,2,0.3,4,0.6,6
			c1.6-3.5,2-7.7-1-10.6c3-4,5.1-9.4,10.6-10.3c0.1-0.9,0.3-1.8,0.4-2.7c-1.2-0.3-2.3-0.6-3.5-0.8c0.3-0.4,0.8-1.1,1.1-1.4
			c3.9-6.2,5.2-13.7,8.6-20.2c0.4-1.1,0.7-2.2,1-3.3c0.8-0.5,1.7-1,2.5-1.4c-0.2,1.3-0.4,2.7-0.5,4.1c3.9-2.8,7.5-6.1,11.9-8
			c-1.6,3.3-4.5,5.8-7.4,8c2.5,6.3,0.9,13.2,2.9,19.5c3.5-1.5,6.5-3.9,8.5-7.2c0.9,0.2,1.7,0.4,2.6,0.5
			C329,332.7,337.6,323.3,342.1,312z"/>
		<path id="XMLID_17_" class="st16" d="M320.2,324.1c0.6-1,1.2-2.1,1.8-3.1c0.5,3.2,0.8,6.4,1.4,9.6c1.2,7.7-4,14.7-7.7,21
			c-2-6.4-0.5-13.3-2.9-19.5C315.7,329.9,318.6,327.4,320.2,324.1z"/>
		<path id="XMLID_16_" class="st17" d="M252.3,344.4c0.8,0.1,1.7,0.1,2.5,0.2c-0.4,1-0.8,2.1-1.2,3.1c1,0.4,2,0.8,3,1.2
			c-3.8,1.6-7.2,4.2-9,8.1c0.8-0.1,2.4-0.3,3.3-0.4c-5.3,9-11.2,17.6-15.2,27.3c-4.7,7.2-8.2,15.1-12.7,22.4
			c-1.1-0.1-2.2-0.2-3.2-0.3c7.3-17.1,14.9-34.1,22.3-51.2c0.9,0.6,1.8,1.2,2.7,1.8C247.7,352.9,250.6,349,252.3,344.4z"/>
		<path id="XMLID_12_" class="st19" d="M278,340.7c1.7-2.1,3.6-4.1,6.1-5.3c2.1-0.3,4.1-0.4,6.2-0.6c-1.8,2-3.6,4-5.3,6
			c1.3,0.2,2.6,0.4,4,0.5c-0.3,2.2-0.5,4.3-0.8,6.5c2.6,2,5.5,3.7,8.5,5.1c-0.3,0.4-0.8,1.1-1.1,1.4c1.2,0.3,2.3,0.6,3.5,0.8
			c-0.1,0.9-0.3,1.8-0.4,2.7c-5.5,0.9-7.7,6.3-10.6,10.3c3.1,2.9,2.7,7,1,10.6c-0.3-2-0.5-4-0.6-6c-0.4-0.4-1.2-1.1-1.6-1.4
			c-0.5,2.2-1,4.3-1.5,6.5c1.4,0.7,2.7,1.3,4.1,2c-0.3,2.6-0.5,5.3-0.6,7.9c-1.1,0.2-2.3,0.3-3.4,0.5c-1.8,2.8-3.4,5.7-4.7,8.7
			c1.2-0.4,2.4-0.8,3.6-1.2c-1.6,5.3-2,11.8-7.7,14.6c0.5,1.5,0.9,3.1,1.4,4.6c4.9-6.4,8.4-16.3,17.9-16.2c-2.1,2.3-4.3,4.4-6.8,6.3
			c1.8,1,3.6,2,5.4,3.1c-1.7,1.3-3.4,2.7-5.1,4c-0.6,5.5-1.5,11-3.8,16.2c0.9-0.2,1.7-0.4,2.6-0.6c0.5,0.3,0.9,0.7,1.4,1
			c-6.7,6.8-0.9,17.3-5.8,24.8c-2.3,4.2-3.4,9.6-8.2,11.8c-3,5.5-9,8.2-12.2,13.7c-17.7-5-35.4-9.8-53.1-14.9
			c3.7-6.6,6.6-14,12.4-19.1c3.3-2.9,1.7-7.6,1.3-11.3c3.3-2.1,6.3-4.6,9-7.5c0.2,3-0.2,6.3,1.4,9c6.1,0,10.2-6,16.3-6.1
			c0.8-1.2,1.6-2.4,2.4-3.6c-1.6-1.2-3.2-2.4-4.8-3.6c2-2.6,3.9-5.3,5.4-8.3c-3.5,1.7-6.3,4.6-9.7,6.6c-2.7,0.5-5.5-0.5-8.2-0.9
			c-0.5-1.6-1-3.2-1.5-4.8c-1.9,0.5-3.7,0.9-5.6,1.4c1.6-5.6,5.2-10.3,8.1-15.3c3.4-5.9,9.8-10.3,9.9-17.7c3.3-2.8,6.6-6.4,5.3-11.1
			c-6.5,2.6-12.4,6.4-16.4,12.2c4-9.7,9.9-18.3,15.2-27.3c-0.8,0.1-2.4,0.3-3.3,0.4c1.8-3.8,5.2-6.4,9-8.1c1.7-0.9,3.3-1.7,5-2.6
			c3.2-1.6,6.6-2.8,10-4c-0.2,2.4-0.5,4.7-0.8,7.1C273.3,346.7,275.7,343.7,278,340.7 M285.5,416.3c-1.1,1.6,1.4,2.9,2.1,1.1
			C288.7,415.8,286.1,414.5,285.5,416.3 M255,436.2c0.8,0.4,1.6,0.8,2.4,1.3c-0.3,0.4-1,1.2-1.4,1.6c-1.8-0.1-3.7-0.2-5.5-0.2
			c0.2,1.2,0.4,2.4,0.6,3.7c0.9,0.7,1.7,1.5,2.6,2.2c-1.4,1.4-2.8,2.8-4.2,4.2c-0.4-0.5-1.1-1.5-1.4-2c-1.5,0.1-3,0.2-4.5,0.3
			c-0.6,1.4-1.2,2.7-1.7,4c1.9,2.4,4,4.7,6.5,6.5c2.2-3.4,5.6-5.4,9.1-7.2c4.1-3.7,4.9-9.8,8.9-13.7c-1.5-2.6-4.2-4.3-6.7-5.7
			c0.7-2.8,0.8-5.6-2.6-6.1C255.8,428.6,255.1,432.3,255,436.2z"/>
		<path id="XMLID_11_" class="st15" d="M235.7,384c4-5.8,9.9-9.6,16.4-12.2c1.3,4.7-2.1,8.3-5.3,11.1c-0.1,7.4-6.5,11.8-9.9,17.7
			c-3,4.9-6.5,9.7-8.1,15.3c1.9-0.4,3.7-0.9,5.6-1.4c0.5,1.6,1,3.2,1.5,4.8c2.7,0.4,5.4,1.4,8.2,0.9c3.3-2,6.1-4.9,9.7-6.6
			c-1.4,3-3.3,5.7-5.4,8.3c1.6,1.2,3.2,2.4,4.8,3.6c-0.8,1.2-1.6,2.4-2.4,3.6c-6.1,0.1-10.2,6.1-16.3,6.1c-1.5-2.7-1.2-6-1.4-9
			c-2.6,2.9-5.7,5.4-9,7.5c0.4,3.7,1.9,8.4-1.3,11.3c-5.8,5.1-8.7,12.5-12.4,19.1c-2.8-0.8-5.6-1.4-8.4-2.2
			c3.9-6.6,4.7-14.5,8.6-21.1c2.4-4,2.7-8.7,4.9-12.7c-0.7-0.4-1.5-0.8-2.2-1.3c5.8-5.6,5.2-14.2,9.8-20.5
			C227.5,399.1,231,391.2,235.7,384z"/>
		<path id="XMLID_10_" class="st7" d="M317.4,364.3c-0.2-4.7,3.7-7.5,7.3-9.6c0.4,1.1,0.9,2.2,1.3,3.2c-7.2,18.9-14.5,37.7-22,56.5
			c-0.5-0.2-1.6-0.6-2.1-0.8c1.1-4-2.6-8.1-0.4-11.7c4.2-4.5,8.5-9.4,9.3-15.8C312.2,378.5,317.3,372.1,317.4,364.3z"/>
		<path id="XMLID_9_" class="st16" d="M196.3,460c7.8-18,15.6-36,23.5-53.9c1.1,0.1,2.1,0.2,3.2,0.3c-4.6,6.3-4,14.9-9.8,20.5
			c0.7,0.4,1.5,0.8,2.2,1.3c-2.2,4-2.6,8.7-4.9,12.7c-3.9,6.6-4.7,14.4-8.6,21.1C200,461.4,198.2,460.7,196.3,460z"/>
		<path id="XMLID_8_" class="st17" d="M285.5,416.3c0.7-1.8,3.2-0.5,2.1,1.1C286.9,419.2,284.4,417.8,285.5,416.3z"/>
		<path id="XMLID_7_" class="st15" d="M255,436.2c0.1-3.8,0.8-7.6,2-11.2c3.5,0.5,3.4,3.4,2.6,6.1c2.6,1.5,5.2,3.1,6.7,5.7
			c-3.9,3.9-4.8,9.9-8.9,13.7c-3.5,1.8-6.9,3.8-9.1,7.2c-2.5-1.8-4.6-4.1-6.5-6.5c0.6-1.3,1.1-2.7,1.7-4c1.5-0.1,3-0.2,4.5-0.3
			c0.4,0.5,1.1,1.5,1.4,2c1.4-1.4,2.8-2.8,4.2-4.2c-0.9-0.8-1.7-1.5-2.6-2.2c-0.2-1.2-0.4-2.5-0.6-3.7c1.8,0.1,3.7,0.2,5.5,0.2
			c0.3-0.4,1-1.2,1.4-1.6C256.7,437,255.8,436.6,255,436.2z"/>
		<path id="XMLID_6_" class="st9" d="M187.6,482.1c2.8-7.4,6.1-14.6,8.7-22.1c1.8,0.7,3.7,1.3,5.6,1.9c2.8,0.8,5.6,1.4,8.4,2.2
			c17.7,5.1,35.4,9.9,53.1,14.9c4,1.2,8,2.2,12.1,3.2c0.8-0.6,1.6-1.1,2.5-1.6c-0.2,0.4-0.5,1.1-0.6,1.4c-4.8,9-7.6,18.9-12.2,28.1
			c-1.8,2.4-3.4,5-4.8,7.8c-0.5-0.8-1.1-1.7-1.6-2.5c1.8-4.7,3-9.7,3.5-14.7c-9.1,2.4-5.7,16.3-15.4,18.4c-0.3-2.7-0.5-5.3-0.7-8
			c-2.7,2.1-5.3,4.2-7.9,6.4c0.2-3,0.3-6,0.3-9c-1.4,2.6-2.7,5.3-4.1,7.9c-0.7-3.7-1.4-7.4-2.3-11.1c-1.6,4.3-3.2,8.6-5.2,12.7
			c-4.7-3.6,0.5-8.5,1.9-12.4c-4.6,2.1-9.2,4.4-12.8,8.1c-2.7-4.2,0.5-8.9,2.4-12.7c0-1,0-1.9,0-2.8c-1,0.4-2,0.9-3,1.3
			c0.5-1.6,0.9-3.3,1.4-4.9c-1.3,0.1-2.6,0.1-3.9,0.2c-0.2,5.7-6,7.9-9.4,11.5c-1.3-4.2-1.9-8.5-1.2-12.8c-2.6,2.7-5,5.6-7.1,8.7
			c0-3,0-6.1,0.2-9.1c-0.6,0.7-1.2,1.5-1.8,2.2c-0.9-1.6-1.9-3.1-2.8-4.6c-2,1.5-4.1,3-6.1,4.4C185.9,490.6,186.9,486.4,187.6,482.1
			z"/>
		<path id="XMLID_5_" class="st8" d="M177.3,503.7c3.3-7.2,5.7-15,10.3-21.6c-0.7,4.3-1.7,8.5-2.7,12.7c2-1.5,4.1-2.9,6.1-4.4
			c0.9,1.6,1.9,3.1,2.8,4.6c0.6-0.7,1.2-1.5,1.8-2.2c-0.2,3-0.3,6-0.2,9.1c2.1-3.1,4.5-6,7.1-8.7c-0.6,4.3,0,8.7,1.2,12.8
			c3.4-3.7,9.2-5.8,9.4-11.5c1.3-0.1,2.6-0.1,3.9-0.2c-0.5,1.6-0.9,3.3-1.4,4.9c1-0.4,2-0.9,3-1.3c0,1,0,1.9,0,2.8
			c-1.9,3.8-5.1,8.6-2.4,12.7c3.5-3.7,8.2-6,12.8-8.1c-1.4,4-6.6,8.8-1.9,12.4c2-4.1,3.5-8.4,5.2-12.7c0.9,3.7,1.6,7.4,2.3,11.1
			c1.4-2.7,2.7-5.3,4.1-7.9c0,3-0.1,6-0.3,9c2.6-2.2,5.2-4.3,7.9-6.4c0.2,2.7,0.5,5.3,0.7,8c9.7-2.1,6.2-16,15.4-18.4
			c-0.4,5.1-1.7,10-3.5,14.7c0.5,0.8,1.1,1.7,1.6,2.5c1.3-2.8,2.9-5.4,4.8-7.8c-1.7,5.7-3.8,11.3-6.6,16.6c-0.9,1-1.9,1.9-2.8,2.8
			c-1.9-2.2-3.6-4.5-5.1-7c-2.6,2.8-4.8,5.8-6.8,9c-1.5-1.3-2.7-3.2-4.7-3.8c-1.7,1.2-3.1,2.7-4.5,4.2c-0.1-3.2-0.2-6.4-0.2-9.6
			c-6.6-1-10.4,3.8-14.2,8.3c-2.3-1-1.1-3.6-1.2-5.5c-0.8,1.1-1.7,2.2-2.6,3.3c-0.9-0.5-1.7-0.9-2.6-1.4c0.4-1.3,0.7-2.6,1.1-3.9
			c-1.1,0.3-2.3,0.6-3.4,0.9c-0.3-2.7-0.8-5.3-1.4-7.9c-1.2,2.3-2.2,4.6-3.3,7c-3.9-0.3-6.9-2.6-6.5-6.8c-0.8,1.6-1.7,3.1-2.5,4.7
			c-0.9-1.6-1.7-3.1-2.6-4.7c-0.3-1.1-0.6-2.2-0.9-3.2c-0.9-0.6-1.9-1.1-2.8-1.6c-0.4-1.7-0.7-3.4-1.1-5.1c-1.4,2.5-3.3,4.7-5.6,6.4
			c-1.2-3.1-2.3-6.1-3.5-9.1c-0.9,0.1-1.8,0.3-2.7,0.4C178.4,504,177.7,503.8,177.3,503.7z"/>
		<path id="XMLID_4_" class="st3" d="M170,520.7c1.8-5.9,4.8-11.4,7.3-17c0.4,0.1,1.1,0.2,1.5,0.3c0.9-0.1,1.8-0.2,2.7-0.4
			c1.2,3,2.4,6.1,3.5,9.1c2.3-1.7,4.2-3.9,5.6-6.4c0.3,1.7,0.7,3.4,1.1,5.1c0.9,0.5,1.9,1.1,2.8,1.6c0.3,1.1,0.6,2.1,0.9,3.2
			c0.9,1.6,1.7,3.1,2.6,4.7c0.8-1.6,1.7-3.1,2.5-4.7c-0.4,4.2,2.6,6.5,6.5,6.8c1.1-2.3,2.2-4.7,3.3-7c0.6,2.6,1.1,5.2,1.4,7.9
			c1.1-0.3,2.3-0.6,3.4-0.9c-0.4,1.3-0.7,2.6-1.1,3.9c0.9,0.5,1.7,0.9,2.6,1.4c0.9-1.1,1.7-2.2,2.6-3.3c0.1,1.9-1.1,4.5,1.2,5.5
			c3.7-4.5,7.5-9.3,14.2-8.3c0,3.2,0.1,6.4,0.2,9.6c1.4-1.5,2.8-3,4.5-4.2c2,0.6,3.2,2.5,4.7,3.8c2-3.2,4.2-6.2,6.8-9
			c1.5,2.5,3.2,4.8,5.1,7c0.9-0.9,1.9-1.9,2.8-2.8c-3.2,6.4-3.3,18.3-12.7,18.2c-10-0.6-19-5.5-28.6-7.8c-13.4-4.7-27.7-6.9-40.5-13
			c-1.9-0.9-3.8,0.2-5.6,0.7C171.4,523.3,171.3,521.7,170,520.7z"/>
		<path id="XMLID_3_" class="st11" d="M265.2,510c4.5-9.1,7.4-19,12.2-28.1c2.3,2.7,3.4,6.3,1.6,9.5c-8.4,19.9-13.9,41.2-24.5,60.1
			c0.5,0.3,1.4,0.9,1.9,1.2c-0.1,0.5-0.4,1.6-0.6,2.1c-6.5-3-13.5-4.1-20.3-5.9c-13.4-4.8-27.2-8.4-40.8-12.6
			c-3.9-1.7-8.5,0.5-12.2-2c0.5,0,1.5,0.1,2,0.1c-4.1-3.7-8.7-6.8-13.4-9.7c1.8-0.5,3.7-1.6,5.6-0.7c12.9,6.1,27.1,8.3,40.5,13
			c9.6,2.2,18.7,7.1,28.6,7.8c9.4,0.1,9.5-11.8,12.7-18.2C261.4,521.3,263.5,515.7,265.2,510z"/>
		<path id="XMLID_2_" class="st5" d="M170,520.7c1.3,1,1.5,2.6,1.2,4.1c4.7,2.9,9.3,6,13.4,9.7c-0.5,0-1.5-0.1-2-0.1
			c-4.8-2.5-9.6-4.8-14.5-7.1C168.7,525.1,169.3,522.9,170,520.7z"/>
	</g>
</g>
</svg>
