<?xml version="1.0" encoding="UTF-8" ?>
<!DOCTYPE svg PUBLIC "-//W3C//DTD SVG 1.1//EN" "http://www.w3.org/Graphics/SVG/1.1/DTD/svg11.dtd">
<svg width="900pt" height="900pt" viewBox="0 0 900 900" version="1.1" xmlns="http://www.w3.org/2000/svg">
<path fill="#000000" stroke="#000000" stroke-width="0.09375" opacity="1.00" d=" M 770.61 131.52 C 779.90 128.27 789.09 124.21 798.99 123.28 C 806.37 123.94 813.77 125.92 820.05 129.97 C 825.05 136.90 826.54 145.65 827.60 153.95 C 827.62 235.31 827.62 316.68 827.60 398.05 C 826.77 406.22 824.65 414.33 820.46 421.46 C 813.33 425.65 805.23 427.77 797.06 428.60 C 566.69 428.62 336.32 428.62 105.95 428.60 C 97.32 427.55 88.43 425.78 81.05 420.91 C 72.04 409.01 72.06 391.85 80.74 379.74 C 86.44 375.85 93.15 373.80 99.60 371.50 C 323.27 291.51 546.94 211.50 770.61 131.52 M 101.31 400.87 C 334.20 401.17 567.10 400.91 800.00 401.00 C 800.00 317.67 800.00 234.34 800.00 151.01 C 567.10 234.28 334.22 317.63 101.31 400.87 Z" />
<path fill="#f42222" stroke="#f42222" stroke-width="0.09375" opacity="1.00" d=" M 101.31 400.87 C 334.22 317.63 567.10 234.28 800.00 151.01 C 800.00 234.34 800.00 317.67 800.00 401.00 C 567.10 400.91 334.20 401.17 101.31 400.87 Z" />
<path fill="#000000" stroke="#000000" stroke-width="0.09375" opacity="1.00" d=" M 79.92 479.92 C 87.21 475.56 95.59 473.45 103.98 472.68 C 334.33 472.70 564.68 472.66 795.02 472.70 C 803.53 473.78 812.22 475.69 819.47 480.54 C 828.29 492.58 828.28 509.50 819.64 521.64 C 814.38 525.20 808.27 527.23 802.31 529.29 C 580.11 608.78 357.89 688.21 135.70 767.73 C 124.25 771.49 113.16 776.83 101.06 778.17 C 93.71 777.10 86.07 775.53 79.98 771.05 C 75.31 763.92 73.68 755.34 72.69 747.02 C 72.67 668.02 72.70 589.01 72.68 510.00 C 72.25 499.57 74.66 488.97 79.92 479.92 M 101.00 501.00 C 101.00 584.33 101.00 667.66 101.00 750.99 C 333.91 667.73 566.78 584.37 799.70 501.13 C 566.80 500.82 333.90 501.09 101.00 501.00 Z" />
<path fill="#f42222" stroke="#f42222" stroke-width="0.09375" opacity="1.00" d=" M 101.00 501.00 C 333.90 501.09 566.80 500.82 799.70 501.13 C 566.78 584.37 333.91 667.73 101.00 750.99 C 101.00 667.66 101.00 584.33 101.00 501.00 Z" />
</svg>
