<?xml version="1.0" encoding="UTF-8" ?>
<!DOCTYPE svg PUBLIC "-//W3C//DTD SVG 1.1//EN" "http://www.w3.org/Graphics/SVG/1.1/DTD/svg11.dtd">
<svg width="692pt" height="692pt" viewBox="0 0 692 692" version="1.1" xmlns="http://www.w3.org/2000/svg">
<path fill="#666666" stroke="#666666" stroke-width="0.09375" opacity="1.00" d=" M 287.04 69.09 C 318.77 62.26 351.70 61.22 383.86 65.42 C 446.94 73.77 506.80 104.23 550.63 150.37 C 600.58 202.26 629.58 273.91 628.96 346.00 C 621.68 346.01 614.40 346.00 607.12 345.99 C 607.25 283.51 583.80 221.38 542.48 174.52 C 501.69 127.65 443.57 96.34 381.99 88.06 C 315.88 78.63 246.49 96.16 192.70 135.69 C 160.65 159.25 133.39 189.97 115.59 225.64 C 109.04 225.75 102.47 225.37 95.93 225.83 C 95.48 242.43 95.84 259.04 95.80 275.64 C 88.52 298.15 85.77 322.07 85.70 345.67 C 78.16 346.28 70.59 345.92 63.04 346.00 C 62.48 278.65 87.72 211.63 131.84 160.84 C 171.76 114.45 227.14 81.67 287.04 69.09 Z" />
<path fill="#ffffff" stroke="#ffffff" stroke-width="0.09375" opacity="1.00" d=" M 192.70 135.69 C 246.49 96.16 315.88 78.63 381.99 88.06 C 443.57 96.34 501.69 127.65 542.48 174.52 C 583.80 221.38 607.25 283.51 607.12 345.99 C 601.01 346.00 594.90 345.93 588.80 346.16 C 579.53 325.81 557.86 316.20 538.14 308.82 C 524.53 303.28 509.34 299.92 498.17 289.81 C 490.08 282.89 491.29 268.86 499.52 262.56 C 505.42 258.01 512.98 256.39 520.23 255.54 C 539.83 253.85 559.50 257.52 578.11 263.54 C 578.07 251.80 578.52 240.05 577.87 228.33 C 544.47 221.18 506.54 216.49 475.79 234.81 C 445.74 252.39 442.22 300.76 469.61 322.35 C 483.75 333.85 501.60 339.14 518.38 345.51 C 485.75 346.64 453.02 345.69 420.36 345.99 C 420.34 305.89 420.46 265.80 420.30 225.70 C 408.65 225.74 396.96 225.25 385.34 225.94 C 385.42 265.96 385.41 305.97 385.35 345.99 C 381.85 345.99 378.36 346.01 374.86 346.09 C 356.45 306.01 338.47 265.73 319.96 225.70 C 304.27 225.59 288.57 225.57 272.88 225.71 C 272.76 265.80 272.86 305.90 272.83 346.00 C 264.79 345.99 256.76 346.03 248.72 345.96 C 251.36 320.04 250.39 292.67 239.55 268.57 C 231.86 251.37 216.73 237.97 198.93 231.95 C 172.17 222.44 143.38 226.50 115.59 225.64 C 133.39 189.97 160.65 159.25 192.70 135.69 Z" />
<path fill="#060606" stroke="#060606" stroke-width="0.09375" opacity="1.00" d=" M 475.79 234.81 C 506.54 216.49 544.47 221.18 577.87 228.33 C 578.52 240.05 578.07 251.80 578.11 263.54 C 559.50 257.52 539.83 253.85 520.23 255.54 C 512.98 256.39 505.42 258.01 499.52 262.56 C 491.29 268.86 490.08 282.89 498.17 289.81 C 509.34 299.92 524.53 303.28 538.14 308.82 C 557.86 316.20 579.53 325.81 588.80 346.16 C 597.76 368.35 592.85 396.49 574.98 412.96 C 571.72 416.11 566.89 418.18 565.83 423.03 C 546.88 478.20 506.06 525.44 454.28 552.29 C 421.08 569.75 383.53 579.07 346.00 578.73 C 287.18 579.05 228.68 555.45 186.30 514.70 C 162.26 491.95 143.26 463.93 130.99 433.20 C 130.24 431.95 129.90 429.57 128.04 429.70 C 117.39 429.47 106.72 429.72 96.07 429.65 C 95.47 401.80 95.98 373.91 95.82 346.05 C 95.82 322.58 95.86 299.11 95.80 275.64 C 95.84 259.04 95.48 242.43 95.93 225.83 C 102.47 225.37 109.04 225.75 115.59 225.64 C 143.38 226.50 172.17 222.44 198.93 231.95 C 216.73 237.97 231.86 251.37 239.55 268.57 C 250.39 292.67 251.36 320.04 248.72 345.96 C 246.14 367.69 238.40 389.83 222.00 405.01 C 202.93 423.22 175.58 429.69 149.85 429.41 C 149.45 432.88 151.68 435.82 153.05 438.83 C 172.07 478.95 203.92 512.88 242.79 534.36 C 302.44 567.97 378.41 570.39 439.82 539.95 C 486.67 517.68 525.36 477.54 544.38 429.21 C 513.03 436.04 479.78 433.96 449.10 424.91 C 448.85 412.29 448.94 399.65 449.07 387.03 C 470.33 393.98 492.46 399.69 515.02 398.94 C 524.75 398.62 535.01 396.85 543.01 390.96 C 552.08 384.21 553.67 369.39 545.85 361.10 C 538.58 353.19 528.26 349.11 518.38 345.51 C 501.60 339.14 483.75 333.85 469.61 322.35 C 442.22 300.76 445.74 252.39 475.79 234.81 M 134.43 258.26 C 134.22 287.46 134.55 316.69 134.27 345.90 L 134.94 345.88 C 134.12 362.94 133.77 380.26 138.10 396.93 C 153.39 398.14 169.86 397.55 183.35 389.37 C 198.30 380.42 206.08 362.75 207.06 345.91 L 207.67 345.89 C 209.15 331.40 209.09 316.70 206.77 302.30 C 204.71 288.73 199.14 274.58 187.42 266.56 C 172.07 256.08 151.79 257.05 134.43 258.26 Z" />
<path fill="#060606" stroke="#060606" stroke-width="0.09375" opacity="1.00" d=" M 272.88 225.71 C 288.57 225.57 304.27 225.59 319.96 225.70 C 338.47 265.73 356.45 306.01 374.86 346.09 C 378.50 353.74 380.86 361.97 385.03 369.36 C 385.69 361.59 385.16 353.78 385.35 345.99 C 385.41 305.97 385.42 265.96 385.34 225.94 C 396.96 225.25 408.65 225.74 420.30 225.70 C 420.46 265.80 420.34 305.89 420.36 345.99 C 420.22 373.75 420.62 401.51 420.17 429.26 C 404.60 429.32 388.83 430.12 373.37 428.87 C 360.62 401.40 348.52 373.60 336.02 346.00 C 326.61 324.98 317.20 303.96 308.12 282.80 C 307.85 303.87 308.06 324.94 308.01 346.00 C 307.90 373.89 308.30 401.80 307.82 429.68 C 296.25 429.67 284.69 429.68 273.13 429.68 C 272.44 401.80 273.05 373.89 272.83 346.00 C 272.86 305.90 272.76 265.80 272.88 225.71 Z" />
<path fill="#ffffff" stroke="#ffffff" stroke-width="0.09375" opacity="1.00" d=" M 134.43 258.26 C 151.79 257.05 172.07 256.08 187.42 266.56 C 199.14 274.58 204.71 288.73 206.77 302.30 C 209.09 316.70 209.15 331.40 207.67 345.89 L 207.06 345.91 C 183.03 346.05 158.98 346.09 134.94 345.88 L 134.27 345.90 C 134.55 316.69 134.22 287.46 134.43 258.26 Z" />
<path fill="#ffffff" stroke="#ffffff" stroke-width="0.09375" opacity="1.00" d=" M 85.70 345.67 C 85.77 322.07 88.52 298.15 95.80 275.64 C 95.86 299.11 95.82 322.58 95.82 346.05 C 92.44 346.14 89.07 345.84 85.70 345.67 Z" />
<path fill="#ffffff" stroke="#ffffff" stroke-width="0.09375" opacity="1.00" d=" M 308.12 282.80 C 317.20 303.96 326.61 324.98 336.02 346.00 C 326.68 346.00 317.35 346.00 308.01 346.00 C 308.06 324.94 307.85 303.87 308.12 282.80 Z" />
<path fill="#ff9999" stroke="#ff9999" stroke-width="0.09375" opacity="1.00" d=" M 63.04 346.00 C 70.59 345.92 78.16 346.28 85.70 345.67 C 89.07 345.84 92.44 346.14 95.82 346.05 C 95.98 373.91 95.47 401.80 96.07 429.65 C 106.72 429.72 117.39 429.47 128.04 429.70 C 129.90 429.57 130.24 431.95 130.99 433.20 C 143.26 463.93 162.26 491.95 186.30 514.70 C 228.68 555.45 287.18 579.05 346.00 578.73 C 383.53 579.07 421.08 569.75 454.28 552.29 C 506.06 525.44 546.88 478.20 565.83 423.03 C 566.89 418.18 571.72 416.11 574.98 412.96 C 592.85 396.49 597.76 368.35 588.80 346.16 C 594.90 345.93 601.01 346.00 607.12 345.99 C 614.40 346.00 621.68 346.01 628.96 346.00 C 637.01 346.02 645.06 345.95 653.12 346.03 C 653.85 413.09 631.03 480.03 590.17 533.15 C 559.69 573.25 518.93 605.39 473.05 626.14 C 415.19 652.42 349.04 659.91 286.75 647.32 C 223.96 634.88 165.36 602.12 122.05 554.96 C 69.90 498.95 39.79 422.64 40.79 346.03 C 48.21 345.95 55.62 346.02 63.04 346.00 Z" />
<path fill="#993333" stroke="#993333" stroke-width="0.09375" opacity="1.00" d=" M 518.38 345.51 C 528.26 349.11 538.58 353.19 545.85 361.10 C 553.67 369.39 552.08 384.21 543.01 390.96 C 535.01 396.85 524.75 398.62 515.02 398.94 C 492.46 399.69 470.33 393.98 449.07 387.03 C 448.94 399.65 448.85 412.29 449.10 424.91 C 479.78 433.96 513.03 436.04 544.38 429.21 C 525.36 477.54 486.67 517.68 439.82 539.95 C 378.41 570.39 302.44 567.97 242.79 534.36 C 203.92 512.88 172.07 478.95 153.05 438.83 C 151.68 435.82 149.45 432.88 149.85 429.41 C 175.58 429.69 202.93 423.22 222.00 405.01 C 238.40 389.83 246.14 367.69 248.72 345.96 C 256.76 346.03 264.79 345.99 272.83 346.00 C 273.05 373.89 272.44 401.80 273.13 429.68 C 284.69 429.68 296.25 429.67 307.82 429.68 C 308.30 401.80 307.90 373.89 308.01 346.00 C 317.35 346.00 326.68 346.00 336.02 346.00 C 348.52 373.60 360.62 401.40 373.37 428.87 C 388.83 430.12 404.60 429.32 420.17 429.26 C 420.62 401.51 420.22 373.75 420.36 345.99 C 453.02 345.69 485.75 346.64 518.38 345.51 Z" />
<path fill="#cccccc" stroke="#cccccc" stroke-width="0.09375" opacity="1.00" d=" M 14.03 346.03 C 22.95 345.97 31.87 345.98 40.79 346.03 C 39.79 422.64 69.90 498.95 122.05 554.96 C 165.36 602.12 223.96 634.88 286.75 647.32 C 349.04 659.91 415.19 652.42 473.05 626.14 C 518.93 605.39 559.69 573.25 590.17 533.15 C 631.03 480.03 653.85 413.09 653.12 346.03 C 661.73 345.98 670.35 345.97 678.98 346.03 C 679.42 416.49 656.26 486.76 614.47 543.45 C 554.59 625.92 454.97 677.74 353.01 678.93 C 291.15 680.41 229.07 663.76 175.99 632.02 C 122.15 599.98 77.76 552.33 49.62 496.35 C 26.22 449.96 13.68 398.02 14.03 346.03 Z" />
<path fill="#993333" stroke="#993333" stroke-width="0.09375" opacity="1.00" d=" M 134.94 345.88 C 158.98 346.09 183.03 346.05 207.06 345.91 C 206.08 362.75 198.30 380.42 183.35 389.37 C 169.86 397.55 153.39 398.14 138.10 396.93 C 133.77 380.26 134.12 362.94 134.94 345.88 Z" />
<path fill="#993333" stroke="#993333" stroke-width="0.09375" opacity="1.00" d=" M 374.86 346.09 C 378.36 346.01 381.85 345.99 385.35 345.99 C 385.16 353.78 385.69 361.59 385.03 369.36 C 380.86 361.97 378.50 353.74 374.86 346.09 Z" />
</svg>
