<?xml version="1.0" encoding="UTF-8" ?>
<!DOCTYPE svg PUBLIC "-//W3C//DTD SVG 1.1//EN" "http://www.w3.org/Graphics/SVG/1.1/DTD/svg11.dtd">
<svg width="191pt" height="215pt" viewBox="0 0 191 215" version="1.1" xmlns="http://www.w3.org/2000/svg">
<path fill="#e2e9ef" stroke="#e2e9ef" stroke-width="0.09375" opacity="1.00" d=" M 66.25 4.09 C 70.50 1.35 75.46 3.72 79.68 5.26 C 105.94 14.63 132.02 24.39 158.31 33.69 C 166.73 37.54 178.11 38.80 182.35 48.24 C 183.35 54.44 180.04 59.86 176.96 64.91 C 165.06 87.31 153.13 109.71 141.19 132.09 C 138.75 138.57 132.37 144.53 125.00 143.26 C 91.09 128.55 55.67 116.65 21.24 102.86 C 14.80 100.34 12.29 91.75 15.91 85.99 C 28.72 64.44 41.41 42.82 54.31 21.33 C 57.97 15.39 60.63 8.55 66.25 4.09 M 71.25 8.16 C 53.64 32.41 40.28 59.91 24.11 85.25 C 22.50 87.61 21.45 90.98 23.62 93.38 C 49.90 103.52 76.32 113.36 102.64 123.38 C 108.98 126.45 116.72 126.87 121.74 132.27 C 125.28 135.99 131.97 134.54 134.15 130.07 C 147.57 103.38 162.79 77.61 176.33 51.02 C 177.82 44.68 170.77 41.19 165.46 41.26 C 135.66 30.50 105.82 19.80 76.11 8.77 C 74.57 8.36 72.73 6.87 71.25 8.16 Z" />
<path fill="#c9cfd3" stroke="#c9cfd3" stroke-width="0.09375" opacity="1.00" d=" M 52.99 13.18 C 56.77 9.53 60.59 4.12 66.25 4.09 C 60.63 8.55 57.97 15.39 54.31 21.33 C 41.41 42.82 28.72 64.44 15.91 85.99 C 12.29 91.75 14.80 100.34 21.24 102.86 C 55.67 116.65 91.09 128.55 125.00 143.26 C 132.37 144.53 138.75 138.57 141.19 132.09 C 153.13 109.71 165.06 87.31 176.96 64.91 C 180.04 59.86 183.35 54.44 182.35 48.24 C 184.98 50.55 185.94 57.19 185.40 61.52 C 169.26 88.36 155.89 117.06 140.37 144.36 C 134.30 152.98 121.68 152.62 113.30 147.77 C 81.75 135.47 50.00 123.66 18.38 111.57 C 11.65 108.62 8.06 101.64 7.33 94.61 C 7.24 91.70 5.80 94.91 4.98 95.82 C 19.42 67.72 37.56 40.95 52.99 13.18 Z" />
<path fill="#f5fcfe" stroke="#f5fcfe" stroke-width="0.09375" opacity="1.00" d=" M 71.25 8.16 C 72.73 6.87 74.57 8.36 76.11 8.77 C 105.82 19.80 135.66 30.50 165.46 41.26 C 170.77 41.19 177.82 44.68 176.33 51.02 C 162.79 77.61 147.57 103.38 134.15 130.07 C 131.97 134.54 125.28 135.99 121.74 132.27 C 116.72 126.87 108.98 126.45 102.64 123.38 C 76.32 113.36 49.90 103.52 23.62 93.38 C 21.45 90.98 22.50 87.61 24.11 85.25 C 40.28 59.91 53.64 32.41 71.25 8.16 M 72.43 19.55 C 66.86 20.69 61.56 25.86 63.18 31.95 C 66.60 42.62 84.36 42.49 87.92 32.01 C 90.44 23.23 79.91 17.34 72.43 19.55 M 103.37 30.46 C 97.46 31.67 92.57 37.82 95.00 43.89 C 99.49 53.66 116.27 53.05 119.58 42.67 C 121.78 33.84 110.84 27.88 103.37 30.46 M 135.19 41.28 C 129.53 42.37 124.41 48.10 126.50 54.06 C 130.20 64.85 149.02 64.34 151.45 52.94 C 152.86 44.36 142.48 39.09 135.19 41.28 M 46.31 68.40 C 39.63 68.97 33.31 76.02 36.35 82.77 C 40.94 92.77 58.12 91.51 61.24 80.97 C 63.35 72.55 53.71 66.65 46.31 68.40 M 77.47 79.63 C 71.50 80.71 65.90 86.65 68.04 93.00 C 71.55 104.11 90.74 103.34 93.29 91.95 C 95.21 83.25 84.96 77.59 77.47 79.63 M 108.23 91.32 C 102.46 92.74 98.26 98.93 100.32 104.81 C 104.56 115.54 123.42 114.59 125.70 102.95 C 127.14 93.83 115.85 88.30 108.23 91.32 Z" />
<path fill="#000000" stroke="#000000" stroke-width="0.09375" opacity="1.00" d=" M 72.43 19.55 C 79.91 17.34 90.44 23.23 87.92 32.01 C 84.36 42.49 66.60 42.62 63.18 31.95 C 61.56 25.86 66.86 20.69 72.43 19.55 Z" />
<path fill="#000000" stroke="#000000" stroke-width="0.09375" opacity="1.00" d=" M 103.37 30.46 C 110.84 27.88 121.78 33.84 119.58 42.67 C 116.27 53.05 99.49 53.66 95.00 43.89 C 92.57 37.82 97.46 31.67 103.37 30.46 Z" />
<path fill="#000000" stroke="#000000" stroke-width="0.09375" opacity="1.00" d=" M 135.19 41.28 C 142.48 39.09 152.86 44.36 151.45 52.94 C 149.02 64.34 130.20 64.85 126.50 54.06 C 124.41 48.10 129.53 42.37 135.19 41.28 Z" />
<path fill="#a1a6aa" stroke="#a1a6aa" stroke-width="0.09375" opacity="1.00" d=" M 140.37 144.36 C 155.89 117.06 169.26 88.36 185.40 61.52 C 184.42 81.38 184.58 101.47 182.24 121.28 C 170.24 145.38 157.88 169.44 144.93 193.01 C 140.33 197.70 137.62 212.19 129.14 206.74 C 128.73 189.98 127.24 172.82 124.50 156.54 C 89.06 142.41 53.18 129.27 17.60 115.48 C 12.02 113.13 8.30 108.09 5.22 103.11 C 5.16 103.86 5.04 105.36 4.97 106.11 C 4.02 102.81 3.76 99.08 4.98 95.82 C 5.80 94.91 7.24 91.70 7.33 94.61 C 8.06 101.64 11.65 108.62 18.38 111.57 C 50.00 123.66 81.75 135.47 113.30 147.77 C 121.68 152.62 134.30 152.98 140.37 144.36 M 178.34 114.11 C 173.75 120.47 169.72 128.94 171.05 136.87 C 176.86 133.74 178.04 125.87 180.00 120.03 C 180.53 118.08 181.91 112.25 178.34 114.11 M 153.31 128.27 C 148.10 134.52 145.07 142.89 144.63 150.95 C 146.49 154.73 149.64 148.72 150.62 146.58 C 152.63 141.43 158.43 131.15 153.31 128.27 Z" />
<path fill="#000000" stroke="#000000" stroke-width="0.09375" opacity="1.00" d=" M 46.31 68.40 C 53.71 66.65 63.35 72.55 61.24 80.97 C 58.12 91.51 40.94 92.77 36.35 82.77 C 33.31 76.02 39.63 68.97 46.31 68.40 Z" />
<path fill="#000000" stroke="#000000" stroke-width="0.09375" opacity="1.00" d=" M 77.47 79.63 C 84.96 77.59 95.21 83.25 93.29 91.95 C 90.74 103.34 71.55 104.11 68.04 93.00 C 65.90 86.65 71.50 80.71 77.47 79.63 Z" />
<path fill="#000000" stroke="#000000" stroke-width="0.09375" opacity="1.00" d=" M 108.23 91.32 C 115.85 88.30 127.14 93.83 125.70 102.95 C 123.42 114.59 104.56 115.54 100.32 104.81 C 98.26 98.93 102.46 92.74 108.23 91.32 Z" />
<path fill="#8a8e91" stroke="#8a8e91" stroke-width="0.09375" opacity="1.00" d=" M 5.22 103.11 C 8.30 108.09 12.02 113.13 17.60 115.48 C 53.18 129.27 89.06 142.41 124.50 156.54 C 127.24 172.82 128.73 189.98 129.14 206.74 C 137.62 212.19 140.33 197.70 144.93 193.01 C 141.70 205.59 129.56 216.72 115.92 212.20 C 85.23 200.66 54.74 188.54 24.09 176.88 C 16.09 174.15 9.95 166.45 9.74 157.90 C 8.10 140.64 5.94 123.41 4.97 106.11 C 5.04 105.36 5.16 103.86 5.22 103.11 M 26.39 124.44 C 17.61 132.96 40.80 147.06 46.93 137.92 C 45.57 129.18 34.66 123.35 26.39 124.44 M 87.40 148.47 C 81.27 157.99 101.94 169.40 108.86 161.99 C 108.60 152.46 95.97 146.45 87.40 148.47 M 28.31 164.34 C 23.83 173.53 41.68 182.90 48.87 177.80 C 49.70 168.49 36.43 161.94 28.31 164.34 M 88.32 187.44 C 83.39 196.64 102.58 206.92 109.33 200.30 C 109.20 191.12 96.48 185.21 88.32 187.44 Z" />
<path fill="#000000" stroke="#000000" stroke-width="0.09375" opacity="1.00" d=" M 178.34 114.11 C 181.91 112.25 180.53 118.08 180.00 120.03 C 178.04 125.87 176.86 133.74 171.05 136.87 C 169.72 128.94 173.75 120.47 178.34 114.11 Z" />
<path fill="#000000" stroke="#000000" stroke-width="0.09375" opacity="1.00" d=" M 26.39 124.44 C 34.66 123.35 45.57 129.18 46.93 137.92 C 40.80 147.06 17.61 132.96 26.39 124.44 Z" />
<path fill="#000000" stroke="#000000" stroke-width="0.09375" opacity="1.00" d=" M 153.31 128.27 C 158.43 131.15 152.63 141.43 150.62 146.58 C 149.64 148.72 146.49 154.73 144.63 150.95 C 145.07 142.89 148.10 134.52 153.31 128.27 Z" />
<path fill="#000000" stroke="#000000" stroke-width="0.09375" opacity="1.00" d=" M 87.40 148.47 C 95.97 146.45 108.60 152.46 108.86 161.99 C 101.94 169.40 81.27 157.99 87.40 148.47 Z" />
<path fill="#000000" stroke="#000000" stroke-width="0.09375" opacity="1.00" d=" M 28.31 164.34 C 36.43 161.94 49.70 168.49 48.87 177.80 C 41.68 182.90 23.83 173.53 28.31 164.34 Z" />
<path fill="#000000" stroke="#000000" stroke-width="0.09375" opacity="1.00" d=" M 88.32 187.44 C 96.48 185.21 109.20 191.12 109.33 200.30 C 102.58 206.92 83.39 196.64 88.32 187.44 Z" />
</svg>
