<?xml version="1.0" encoding="UTF-8" ?>
<!DOCTYPE svg PUBLIC "-//W3C//DTD SVG 1.1//EN" "http://www.w3.org/Graphics/SVG/1.1/DTD/svg11.dtd">
<svg width="265pt" height="265pt" viewBox="0 0 265 265" version="1.1" xmlns="http://www.w3.org/2000/svg">
<g id="#966723ff">
<path fill="#966723" opacity="1.00" d=" M 0.00 0.00 L 23.40 0.00 C 21.89 1.35 20.28 2.99 18.04 2.50 C 11.99 2.09 6.03 3.40 0.00 3.49 L 0.00 0.00 Z" />
<path fill="#966723" opacity="1.00" d=" M 137.03 0.00 L 140.10 0.00 C 137.92 5.04 136.07 10.23 133.64 15.17 C 132.23 18.76 131.52 22.58 131.02 26.39 C 132.85 26.89 134.68 27.39 136.51 27.88 C 136.32 28.58 135.96 29.99 135.77 30.69 C 133.38 30.19 130.98 29.71 128.59 29.22 C 127.71 32.53 126.92 35.86 126.41 39.25 C 125.51 40.34 124.58 41.41 123.65 42.47 C 122.99 42.69 121.67 43.12 121.01 43.33 C 123.97 37.85 125.43 31.74 128.11 26.14 C 129.38 23.82 128.99 21.16 128.85 18.64 C 130.90 12.17 134.52 6.31 137.03 0.00 Z" />
<path fill="#966723" opacity="1.00" d=" M 177.06 0.00 L 198.64 0.00 C 194.07 7.79 188.08 14.65 183.88 22.67 C 182.81 23.66 181.70 24.59 180.58 25.52 C 180.43 27.00 180.26 28.47 180.07 29.93 C 181.84 28.55 183.65 27.22 185.46 25.88 C 185.33 26.65 185.07 28.19 184.94 28.97 C 180.68 36.91 174.65 44.03 172.45 53.00 C 172.21 53.72 171.72 55.15 171.48 55.87 C 169.35 49.46 172.23 43.18 176.25 38.26 C 173.44 32.55 176.89 26.67 179.17 21.44 C 182.07 15.35 184.49 9.05 187.03 2.80 C 183.25 6.48 181.73 11.64 178.75 15.86 C 177.96 17.38 176.37 16.91 175.04 16.58 C 177.92 11.99 177.61 6.61 175.53 1.79 C 175.91 1.34 176.67 0.45 177.06 0.00 Z" />
<path fill="#966723" opacity="1.00" d=" M 23.27 26.29 C 24.98 23.63 26.37 20.78 27.90 18.01 C 29.40 19.43 30.89 20.86 32.38 22.30 C 33.41 21.95 34.43 21.60 35.46 21.26 C 35.35 23.65 35.24 26.05 35.10 28.44 C 32.65 25.92 30.48 23.15 28.45 20.29 C 24.88 26.62 24.76 34.10 24.70 41.17 C 25.78 39.61 26.85 38.04 27.92 36.47 C 27.85 38.90 27.79 41.34 27.67 43.77 C 27.36 43.64 26.74 43.38 26.43 43.25 C 23.87 42.33 21.40 41.18 19.03 39.85 C 17.13 41.83 15.26 43.87 13.79 46.20 C 8.02 57.50 9.85 70.75 5.25 82.36 C 3.77 81.65 2.27 80.98 0.80 80.23 C 1.06 78.45 1.33 76.67 1.59 74.88 C 2.61 76.34 3.63 77.79 4.66 79.25 C 6.02 74.28 6.55 69.15 6.98 64.04 C 7.70 55.04 10.19 46.21 14.09 38.08 C 16.22 33.47 20.57 30.50 23.27 26.29 Z" />
<path fill="#966723" opacity="1.00" d=" M 35.10 28.44 C 36.62 29.60 38.11 30.77 39.61 31.95 C 38.43 34.12 35.59 37.39 38.69 39.28 C 42.27 40.68 46.26 39.58 50.00 39.62 C 47.91 40.79 45.78 41.91 43.61 42.94 C 40.43 44.27 38.00 46.75 35.53 49.06 C 33.52 50.88 31.40 52.57 29.25 54.22 C 28.75 51.24 29.31 48.30 30.47 45.55 C 29.54 44.95 28.62 44.33 27.67 43.77 C 28.45 43.49 30.02 42.92 30.81 42.64 C 30.46 37.47 31.99 32.54 35.10 28.44 Z" />
<path fill="#966723" opacity="1.00" d=" M 58.91 35.26 C 62.49 36.49 66.35 36.33 70.00 36.95 C 74.47 40.83 79.62 43.71 85.15 45.79 C 85.35 46.63 85.55 47.47 85.75 48.30 C 85.21 48.60 84.14 49.19 83.61 49.49 C 79.19 47.77 74.91 45.67 71.14 42.77 C 67.46 39.30 59.83 41.60 58.91 35.26 Z" />
<path fill="#966723" opacity="1.00" d=" M 134.17 40.32 C 136.60 37.49 139.95 39.34 142.67 40.60 C 142.38 41.38 141.78 42.94 141.49 43.72 L 141.13 43.10 C 140.44 41.90 139.74 40.71 139.05 39.51 C 137.43 39.79 135.80 40.06 134.17 40.32 Z" />
<path fill="#966723" opacity="1.00" d=" M 138.78 46.68 C 141.43 44.56 144.31 46.08 146.83 47.56 C 142.11 48.64 139.48 52.31 138.42 56.82 C 137.13 57.20 135.86 57.62 134.59 58.07 C 135.97 56.78 137.27 55.41 138.54 54.01 C 139.08 51.14 140.83 48.78 142.54 46.50 C 141.60 46.54 139.72 46.63 138.78 46.68 Z" />
<path fill="#966723" opacity="1.00" d=" M 151.47 50.63 C 152.86 49.37 154.29 48.16 155.71 46.94 C 156.37 47.69 157.03 48.45 157.69 49.20 C 157.49 50.14 157.29 51.09 157.09 52.04 C 151.62 57.37 149.82 64.86 148.23 72.05 C 146.82 72.27 145.42 72.49 144.01 72.71 C 143.53 71.99 142.57 70.54 142.09 69.82 C 143.29 67.46 144.55 65.15 145.82 62.83 C 145.72 63.48 145.51 64.79 145.41 65.44 C 146.52 65.26 148.75 64.89 149.86 64.70 C 148.71 63.42 147.70 62.03 146.69 60.64 C 146.73 60.50 146.80 60.21 146.84 60.07 C 147.01 59.08 147.18 58.09 147.36 57.10 C 148.28 58.06 149.12 59.09 149.88 60.19 C 150.16 57.83 150.42 55.46 150.62 53.09 C 149.92 53.44 148.50 54.15 147.79 54.50 C 148.93 53.13 150.18 51.86 151.47 50.63 Z" />
<path fill="#966723" opacity="1.00" d=" M 65.48 52.03 C 66.49 51.87 67.50 51.69 68.51 51.49 C 69.02 52.13 69.54 52.76 70.05 53.40 C 71.48 53.47 72.91 53.54 74.34 53.64 C 72.03 58.60 70.36 63.82 69.48 69.23 C 71.41 69.97 73.35 70.72 75.28 71.46 C 73.35 74.07 70.49 76.84 71.26 80.42 C 72.12 83.25 74.24 85.48 75.77 87.96 C 72.43 86.75 69.08 85.57 65.69 84.52 C 67.29 79.73 69.77 75.30 72.15 70.86 C 70.42 71.66 68.70 72.48 66.94 73.22 C 65.83 70.46 64.40 67.86 62.86 65.33 C 62.13 69.86 58.44 72.18 54.30 73.19 C 53.90 72.66 53.11 71.62 52.71 71.09 C 57.37 65.76 61.77 59.80 69.12 58.16 C 67.91 56.11 66.69 54.07 65.48 52.03 Z" />
<path fill="#966723" opacity="1.00" d=" M 38.91 66.34 C 40.11 63.72 41.07 60.22 44.59 60.10 C 45.20 64.16 42.56 65.99 38.91 66.34 Z" />
<path fill="#966723" opacity="1.00" d=" M 77.77 72.06 C 79.18 69.28 81.09 66.79 83.29 64.58 C 83.68 66.30 84.06 68.02 84.47 69.74 C 83.40 70.83 82.32 71.91 81.23 72.98 C 80.07 72.71 78.92 72.37 77.77 72.06 Z" />
<path fill="#966723" opacity="1.00" d=" M 78.63 83.34 C 83.83 79.96 87.86 73.85 94.81 74.43 C 94.64 75.11 94.30 76.47 94.13 77.15 C 93.58 78.26 93.01 79.37 92.46 80.48 C 89.14 81.98 85.35 83.03 82.82 85.79 C 81.20 88.50 84.01 90.98 85.49 93.01 C 84.54 94.59 83.60 96.18 82.65 97.77 C 81.44 97.33 80.16 97.09 78.94 96.69 C 77.96 98.44 77.23 100.31 76.45 102.15 C 75.36 102.11 74.28 102.07 73.19 102.04 C 71.62 97.74 68.74 94.06 63.78 94.13 C 63.64 97.79 63.49 101.45 63.21 105.10 C 61.63 104.53 60.05 103.96 58.48 103.38 C 58.81 101.55 59.14 99.72 59.48 97.89 C 58.46 96.87 57.46 95.85 56.43 94.85 C 54.98 93.37 53.57 91.86 52.14 90.36 C 53.80 90.50 55.46 90.62 57.12 90.76 C 58.40 87.43 56.58 85.03 53.67 83.50 C 53.92 81.45 54.18 79.40 54.43 77.34 C 55.67 76.81 56.91 76.26 58.17 75.76 C 59.27 78.86 60.21 82.02 61.05 85.20 C 62.41 85.57 63.78 85.94 65.15 86.29 C 66.61 92.99 74.65 91.51 79.72 91.14 C 79.34 88.54 78.99 85.94 78.63 83.34 Z" />
<path fill="#966723" opacity="1.00" d=" M 96.82 79.99 C 97.46 80.15 98.73 80.48 99.37 80.64 C 100.03 80.81 100.69 80.96 101.35 81.10 C 101.92 81.20 103.04 81.42 103.60 81.52 C 106.32 82.90 109.28 83.67 112.26 84.23 C 113.01 86.84 113.41 89.52 113.88 92.18 C 110.80 90.81 107.76 89.33 104.68 87.93 C 104.58 90.41 104.45 92.90 104.50 95.39 C 103.66 95.30 101.96 95.13 101.11 95.05 C 98.62 94.65 96.10 94.17 93.78 93.14 C 93.66 88.62 92.66 83.07 96.82 79.99 Z" />
<path fill="#966723" opacity="1.00" d=" M 173.77 89.96 C 174.35 88.25 174.92 86.53 175.49 84.81 C 175.53 87.45 175.58 90.09 175.62 92.74 C 170.60 95.38 165.35 99.37 166.63 105.86 C 168.78 103.97 170.53 101.69 171.96 99.22 C 171.82 100.82 171.69 102.42 171.58 104.02 C 173.71 103.79 175.84 103.57 177.98 103.33 C 178.74 102.11 179.50 100.90 180.33 99.74 C 181.64 100.01 182.95 100.28 184.26 100.56 C 182.86 105.91 184.58 111.27 186.29 116.31 C 189.22 110.53 186.23 104.08 187.60 98.08 C 187.78 98.43 188.14 99.12 188.32 99.47 C 190.06 98.73 191.88 98.17 193.64 97.45 C 194.55 104.97 196.09 112.43 196.27 120.02 C 196.26 122.35 194.58 124.21 193.35 126.06 C 192.99 126.43 192.26 127.17 191.89 127.54 C 191.14 127.28 189.65 126.76 188.90 126.50 C 185.82 125.45 182.56 125.96 179.43 126.45 C 176.88 124.03 174.48 121.42 171.72 119.23 C 168.84 116.76 164.82 117.02 161.29 116.53 C 161.04 115.25 160.79 113.98 160.54 112.70 C 160.24 110.90 159.72 109.14 159.22 107.39 C 155.18 111.42 155.85 117.49 153.79 122.45 C 151.10 127.06 147.75 131.58 147.30 137.09 C 145.69 150.43 146.41 163.92 145.35 177.30 C 144.41 186.50 145.13 195.75 144.80 204.98 C 144.42 209.57 143.61 214.12 142.82 218.66 C 142.20 216.51 141.59 214.28 141.97 212.02 C 143.68 197.98 141.62 183.75 143.60 169.73 C 145.21 156.72 143.71 143.57 144.98 130.53 C 145.61 129.42 146.25 128.32 146.89 127.22 C 148.60 124.21 150.52 121.32 151.99 118.18 C 154.13 113.59 153.90 108.11 156.98 103.93 C 160.16 99.45 163.74 95.26 166.84 90.72 C 166.74 91.60 166.54 93.38 166.44 94.27 C 168.71 92.56 171.09 90.96 173.77 89.96 Z" />
<path fill="#966723" opacity="1.00" d=" M 81.00 113.15 C 83.00 109.20 85.98 105.88 89.60 103.35 C 90.31 103.91 90.91 104.56 91.40 105.32 C 90.37 109.77 90.03 114.33 89.65 118.87 C 89.19 123.15 88.90 127.54 90.04 131.75 C 89.20 131.77 87.52 131.80 86.68 131.82 C 86.63 132.66 86.54 134.35 86.49 135.20 C 87.59 135.26 89.78 135.39 90.88 135.45 C 88.35 135.50 85.81 135.53 83.28 135.53 C 82.51 137.13 81.74 138.74 80.98 140.34 C 79.02 140.28 77.07 140.20 75.11 140.13 C 75.43 139.54 76.05 138.36 76.36 137.78 C 77.28 135.99 78.21 134.22 79.16 132.45 C 80.90 133.13 82.64 133.82 84.38 134.51 C 84.53 131.96 84.66 129.42 84.80 126.87 C 83.97 127.44 83.14 128.02 82.31 128.58 C 82.11 128.07 81.70 127.03 81.50 126.51 C 80.96 126.33 79.88 125.95 79.33 125.77 C 80.44 124.66 81.58 123.58 82.74 122.54 C 82.60 119.35 82.23 116.13 81.00 113.15 Z" />
<path fill="#966723" opacity="1.00" d=" M 28.01 114.16 C 28.60 112.13 29.72 110.36 31.29 108.94 C 31.42 111.04 31.50 113.14 31.56 115.24 C 30.67 114.97 28.89 114.43 28.01 114.16 Z" />
<path fill="#966723" opacity="1.00" d=" M 44.40 129.49 C 45.08 122.48 46.68 114.28 53.13 110.27 C 52.55 116.46 48.08 121.44 47.53 127.62 C 47.69 131.39 48.96 135.03 49.25 138.81 C 47.70 139.97 46.06 141.02 44.52 142.21 C 43.94 141.95 42.77 141.44 42.19 141.18 C 44.22 137.62 44.44 133.49 44.40 129.49 Z" />
<path fill="#966723" opacity="1.00" d=" M 92.04 119.96 C 92.41 116.09 94.58 112.80 97.00 109.89 C 98.84 113.71 100.54 117.59 102.13 121.52 C 102.19 122.02 102.31 123.03 102.36 123.54 C 103.27 123.45 104.19 123.37 105.10 123.30 C 107.26 126.28 109.24 129.40 110.97 132.66 C 110.22 133.27 108.73 134.48 107.99 135.09 C 105.91 132.08 103.17 129.62 99.83 128.10 C 99.48 125.26 98.86 122.45 97.85 119.77 C 96.17 121.16 94.50 122.55 92.82 123.94 C 92.55 122.61 92.28 121.29 92.04 119.96 Z" />
<path fill="#966723" opacity="1.00" d=" M 56.80 127.40 C 58.28 127.46 59.75 127.53 61.23 127.60 C 61.67 128.98 62.05 130.39 62.42 131.79 C 59.66 136.28 57.60 141.20 57.06 146.48 C 58.58 146.50 60.10 146.51 61.62 146.48 C 60.77 149.25 59.81 151.99 58.90 154.74 C 57.19 159.84 58.22 165.42 56.23 170.47 C 54.30 167.95 52.94 165.00 53.22 161.76 C 53.81 155.19 53.49 148.58 53.87 142.01 C 55.17 137.19 58.23 132.61 56.80 127.40 M 55.21 145.66 C 54.09 146.18 54.35 148.63 55.79 148.27 C 56.91 147.75 56.65 145.30 55.21 145.66 Z" />
<path fill="#966723" opacity="1.00" d=" M 63.11 150.22 C 66.79 145.70 73.28 144.06 78.51 146.96 C 75.02 149.90 70.81 151.68 66.63 153.40 C 66.42 155.30 66.20 157.20 65.98 159.10 C 65.33 159.54 64.03 160.42 63.38 160.86 C 62.73 157.40 61.53 153.62 63.11 150.22 Z" />
<path fill="#966723" opacity="1.00" d=" M 86.84 148.81 C 88.77 146.83 91.50 145.99 93.96 144.90 C 91.64 152.24 92.67 160.57 87.64 166.95 C 86.79 164.12 85.74 161.16 86.58 158.19 C 86.55 159.71 86.55 161.23 86.58 162.76 C 87.28 162.40 88.69 161.69 89.39 161.34 C 91.32 159.92 89.62 157.60 88.68 156.14 C 86.79 154.18 85.30 151.48 86.84 148.81 Z" />
<path fill="#966723" opacity="1.00" d=" M 105.51 147.58 C 107.09 146.79 108.82 146.38 110.51 145.88 C 110.89 152.94 110.46 160.01 110.32 167.08 C 109.65 167.40 108.31 168.04 107.64 168.36 C 106.61 165.54 105.70 162.54 103.54 160.35 C 103.26 160.03 102.70 159.39 102.42 159.07 C 101.52 160.29 100.63 161.53 99.78 162.79 C 98.29 162.34 96.79 161.91 95.30 161.48 C 94.64 157.95 94.81 154.36 95.67 150.88 C 97.55 151.98 99.19 154.03 101.41 154.31 C 103.69 152.85 103.89 149.64 105.51 147.58 Z" />
<path fill="#966723" opacity="1.00" d=" M 92.42 184.57 C 93.69 183.30 95.06 182.13 96.40 180.93 C 96.35 181.72 96.24 183.28 96.18 184.06 C 95.45 185.34 94.58 186.54 93.59 187.64 C 93.30 186.87 92.71 185.34 92.42 184.57 Z" />
<path fill="#966723" opacity="1.00" d=" M 70.60 211.80 C 72.68 203.35 70.02 194.17 73.81 186.15 C 74.56 192.11 74.67 198.15 74.31 204.14 C 74.09 206.64 73.72 209.12 73.39 211.60 C 72.69 211.65 71.29 211.75 70.60 211.80 Z" />
<path fill="#966723" opacity="1.00" d=" M 113.36 204.43 C 113.79 203.61 114.23 202.79 114.66 201.96 C 115.32 202.26 116.65 202.84 117.31 203.13 C 117.15 204.42 117.01 205.73 116.89 207.03 C 115.71 206.16 114.53 205.29 113.36 204.43 Z" />
<path fill="#966723" opacity="1.00" d=" M 131.61 241.56 C 136.54 244.31 139.27 238.76 140.76 234.96 C 140.75 239.46 141.08 243.95 141.57 248.42 C 138.87 250.62 135.50 250.58 132.26 249.82 C 132.07 248.64 131.88 247.45 131.69 246.27 C 131.63 244.70 131.63 243.13 131.61 241.56 Z" />
</g>
<g id="#311a05ff">
<path fill="#311a05" opacity="1.00" d=" M 23.40 0.00 L 104.11 0.00 C 106.35 1.23 108.55 2.53 110.77 3.79 C 111.77 2.51 112.77 1.22 113.84 0.00 L 115.07 0.00 C 115.42 5.61 117.45 11.16 116.90 16.78 C 114.52 19.30 110.51 20.01 108.81 23.20 C 107.57 25.35 106.34 27.52 104.96 29.59 C 104.76 31.25 104.58 32.92 104.39 34.59 C 101.47 34.10 96.31 31.71 95.57 36.16 C 92.07 44.65 100.35 51.80 99.58 60.33 C 96.06 59.88 91.37 57.70 89.14 61.74 C 92.60 63.85 96.16 65.79 99.82 67.52 C 100.24 71.00 100.48 74.50 100.37 78.00 C 97.54 75.80 94.95 73.10 91.56 71.76 C 88.10 71.84 84.77 74.20 81.23 72.98 C 82.32 71.91 83.40 70.83 84.47 69.74 C 85.07 67.75 84.86 65.66 84.73 63.62 C 82.01 62.67 79.17 61.89 76.73 60.31 C 74.44 58.91 74.77 55.92 74.34 53.64 C 72.91 53.54 71.48 53.47 70.05 53.40 C 69.54 52.76 69.02 52.13 68.51 51.49 C 67.50 51.69 66.49 51.87 65.48 52.03 C 63.96 52.23 62.43 52.42 60.93 52.70 C 60.58 51.82 59.90 50.06 59.55 49.18 C 56.04 49.86 55.71 53.51 54.19 56.08 C 50.70 59.13 45.75 58.75 41.56 57.68 C 39.52 60.87 36.42 62.96 32.63 63.42 C 32.68 62.70 32.78 61.25 32.83 60.52 C 36.35 57.64 36.68 53.19 35.53 49.06 C 38.00 46.75 40.43 44.27 43.61 42.94 C 44.59 44.09 45.58 45.25 46.57 46.40 C 50.43 45.83 54.32 45.62 58.20 45.21 C 55.13 43.72 51.81 42.88 48.44 42.38 C 49.37 41.64 50.31 40.89 51.24 40.15 C 48.38 37.28 46.04 33.95 44.17 30.37 C 47.50 30.48 50.84 30.56 54.17 30.57 C 52.00 23.40 42.75 23.34 37.70 18.82 C 34.55 16.60 30.83 15.38 27.60 13.30 C 24.55 11.32 22.41 8.06 19.01 6.63 C 12.56 6.14 5.98 7.40 0.00 9.82 L 0.00 3.49 C 6.03 3.40 11.99 2.09 18.04 2.50 C 20.28 2.99 21.89 1.35 23.40 0.00 M 58.91 35.26 C 59.83 41.60 67.46 39.30 71.14 42.77 C 74.91 45.67 79.19 47.77 83.61 49.49 C 84.14 49.19 85.21 48.60 85.75 48.30 C 85.55 47.47 85.35 46.63 85.15 45.79 C 79.62 43.71 74.47 40.83 70.00 36.95 C 66.35 36.33 62.49 36.49 58.91 35.26 Z" />
<path fill="#311a05" opacity="1.00" d=" M 140.10 0.00 L 171.51 0.00 C 169.96 7.04 167.34 13.79 164.35 20.32 C 162.13 24.62 157.13 26.39 152.62 24.85 C 152.25 22.83 151.86 20.81 151.49 18.79 C 146.10 17.19 143.67 23.25 139.93 25.84 C 137.38 22.57 134.95 19.14 133.64 15.17 C 136.07 10.23 137.92 5.04 140.10 0.00 Z" />
<path fill="#311a05" opacity="1.00" d=" M 147.64 46.26 C 142.67 43.31 141.23 34.71 145.87 31.01 C 150.26 36.31 152.62 44.48 148.45 50.58 C 147.59 52.29 145.55 52.46 143.94 53.00 C 145.48 50.93 146.89 48.75 147.64 46.26 Z" />
<path fill="#311a05" opacity="1.00" d=" M 13.79 46.20 C 15.26 43.87 17.13 41.83 19.03 39.85 C 21.40 41.18 23.87 42.33 26.43 43.25 C 26.67 47.70 24.88 51.80 23.03 55.72 C 21.60 54.88 20.18 54.03 18.75 53.18 C 19.03 52.05 19.30 50.91 19.57 49.78 C 17.64 48.59 15.71 47.40 13.79 46.20 Z" />
<path fill="#311a05" opacity="1.00" d=" M 123.65 42.47 C 124.58 41.41 125.51 40.34 126.41 39.25 C 127.46 42.91 126.09 46.30 123.71 49.08 C 125.92 51.66 128.22 55.16 132.17 54.33 C 132.23 55.86 132.41 57.38 132.57 58.91 C 133.08 58.70 134.09 58.28 134.59 58.07 C 135.86 57.62 137.13 57.20 138.42 56.82 C 141.65 56.29 144.27 58.49 146.84 60.07 C 146.80 60.21 146.73 60.50 146.69 60.64 C 146.47 61.19 146.04 62.28 145.82 62.83 C 144.55 65.15 143.29 67.46 142.09 69.82 C 142.57 70.54 143.53 71.99 144.01 72.71 C 145.42 72.49 146.82 72.27 148.23 72.05 C 145.18 77.02 141.82 81.82 138.77 86.80 C 136.81 90.43 131.96 90.51 129.47 93.34 C 127.46 99.37 125.82 105.90 120.28 109.77 C 120.55 110.56 120.85 111.35 121.10 112.15 C 121.13 113.33 121.20 115.67 121.23 116.84 C 121.22 119.59 121.23 122.34 121.29 125.10 C 118.44 125.88 115.47 126.47 112.88 127.95 C 111.68 130.66 112.17 133.77 112.47 136.63 C 113.09 137.70 113.76 138.73 114.42 139.77 C 114.44 141.36 114.46 142.96 114.48 144.55 C 107.43 141.04 101.81 148.33 94.97 149.03 C 95.79 147.61 96.62 146.19 97.46 144.78 C 95.52 143.63 93.58 142.49 91.65 141.35 C 92.59 140.21 93.54 139.07 94.48 137.93 C 96.05 136.03 97.51 134.00 99.44 132.44 C 102.41 132.85 105.16 134.15 107.99 135.09 C 108.73 134.48 110.22 133.27 110.97 132.66 C 109.24 129.40 107.26 126.28 105.10 123.30 C 104.19 123.37 103.27 123.45 102.36 123.54 C 102.31 123.03 102.19 122.02 102.13 121.52 C 103.08 115.98 100.35 111.08 97.17 106.81 C 95.84 106.60 94.51 106.38 93.17 106.18 C 91.86 103.82 90.49 101.49 89.46 98.99 C 88.62 97.04 87.41 95.29 86.05 93.68 C 86.69 93.14 87.33 92.60 87.97 92.06 C 89.07 92.85 90.17 93.65 91.27 94.46 C 91.79 94.92 92.84 95.86 93.37 96.33 C 95.46 96.41 97.55 96.47 99.64 96.52 C 99.41 98.46 99.19 100.39 98.98 102.33 C 101.69 102.34 104.37 101.90 106.88 100.89 C 106.07 99.06 105.20 97.26 104.50 95.39 C 104.45 92.90 104.58 90.41 104.68 87.93 C 107.76 89.33 110.80 90.81 113.88 92.18 C 113.41 89.52 113.01 86.84 112.26 84.23 C 110.94 83.41 109.56 82.69 108.19 81.98 C 109.07 77.92 110.44 73.88 110.22 69.67 C 110.22 68.43 110.42 67.18 111.18 66.16 C 116.09 58.69 120.00 50.62 123.65 42.47 Z" />
<path fill="#311a05" opacity="1.00" d=" M 27.88 80.09 C 38.31 83.31 45.93 91.82 56.43 94.85 C 57.46 95.85 58.46 96.87 59.48 97.89 C 59.14 99.72 58.81 101.55 58.48 103.38 C 60.05 103.96 61.63 104.53 63.21 105.10 C 63.49 101.45 63.64 97.79 63.78 94.13 C 68.74 94.06 71.62 97.74 73.19 102.04 C 74.15 103.35 75.20 104.59 76.25 105.83 C 75.24 108.05 72.92 110.27 73.80 112.87 C 75.21 114.81 77.13 116.31 78.51 118.27 C 78.94 120.51 76.61 121.90 75.54 123.58 C 73.37 125.73 72.84 128.80 72.18 131.65 C 65.90 129.61 61.18 124.82 55.89 121.10 C 51.73 117.96 55.10 112.39 53.89 108.24 C 52.61 105.72 48.62 105.89 47.21 108.19 C 43.23 113.98 39.95 120.31 37.95 127.07 C 36.59 131.72 34.15 136.87 28.89 137.86 C 28.71 138.01 28.35 138.32 28.17 138.47 C 27.14 139.51 26.13 140.58 25.08 141.60 C 24.51 141.39 23.38 140.96 22.81 140.75 C 22.02 140.17 21.25 139.58 20.48 138.98 C 17.64 140.07 14.90 141.39 12.26 142.89 C 14.08 144.72 15.98 146.49 17.99 148.12 C 18.18 148.29 18.58 148.62 18.78 148.79 L 19.66 150.15 C 15.40 149.39 12.64 146.14 9.69 143.34 C 6.45 141.96 2.51 141.95 0.00 139.13 L 0.00 81.30 C 1.18 82.88 2.40 84.51 4.11 85.56 C 10.72 89.34 17.02 93.64 23.63 97.41 C 25.28 101.27 25.12 105.62 25.62 109.73 C 21.33 110.50 17.10 111.70 12.74 112.10 C 9.52 112.42 5.75 111.65 3.39 114.46 C 9.35 115.37 15.34 116.10 21.33 116.84 C 22.12 117.76 22.90 118.67 23.69 119.59 C 26.31 118.32 28.91 117.01 31.51 115.69 C 34.41 108.16 30.39 100.42 32.77 92.88 C 32.62 88.27 29.10 84.50 27.88 80.09 Z" />
<path fill="#311a05" opacity="1.00" d=" M 62.42 131.79 C 66.84 134.30 71.82 135.53 76.36 137.78 C 76.05 138.36 75.43 139.54 75.11 140.13 C 71.74 144.07 66.55 145.61 61.62 146.48 C 60.10 146.51 58.58 146.50 57.06 146.48 C 57.60 141.20 59.66 136.28 62.42 131.79 Z" />
<path fill="#311a05" opacity="1.00" d=" M 77.34 151.53 C 78.74 151.37 80.13 151.22 81.53 151.10 C 79.77 154.30 76.85 157.08 76.30 160.81 C 76.43 165.39 79.17 169.46 79.20 174.08 C 79.19 174.65 79.19 175.79 79.19 176.36 C 78.80 175.14 78.40 173.93 77.98 172.73 C 77.40 173.11 76.24 173.87 75.66 174.24 C 74.81 171.10 74.25 167.62 72.14 165.03 C 70.06 164.00 67.75 163.56 65.54 162.93 C 65.68 161.65 65.83 160.38 65.98 159.10 C 66.20 157.20 66.42 155.30 66.63 153.40 C 70.21 152.82 73.75 152.04 77.34 151.53 Z" />
</g>
<g id="#623402ff">
<path fill="#623402" opacity="1.00" d=" M 104.11 0.00 L 113.84 0.00 C 112.77 1.22 111.77 2.51 110.77 3.79 C 108.55 2.53 106.35 1.23 104.11 0.00 Z" />
<path fill="#623402" opacity="1.00" d=" M 115.07 0.00 L 137.03 0.00 C 134.52 6.31 130.90 12.17 128.85 18.64 C 127.96 23.06 126.23 27.29 123.16 30.65 C 122.00 28.96 120.84 27.27 119.69 25.58 C 113.40 28.09 108.58 33.21 104.48 38.41 C 102.31 46.08 99.08 53.91 100.39 62.06 C 100.60 66.74 103.36 70.66 104.80 74.97 C 104.12 77.24 102.62 79.13 101.35 81.10 C 100.69 80.96 100.03 80.81 99.37 80.64 C 97.56 79.57 95.86 78.35 94.13 77.15 C 94.30 76.47 94.64 75.11 94.81 74.43 C 87.86 73.85 83.83 79.96 78.63 83.34 C 78.99 85.94 79.34 88.54 79.72 91.14 C 74.65 91.51 66.61 92.99 65.15 86.29 L 65.69 84.52 C 69.08 85.57 72.43 86.75 75.77 87.96 C 74.24 85.48 72.12 83.25 71.26 80.42 C 70.49 76.84 73.35 74.07 75.28 71.46 C 73.35 70.72 71.41 69.97 69.48 69.23 C 70.36 63.82 72.03 58.60 74.34 53.64 C 74.77 55.92 74.44 58.91 76.73 60.31 C 79.17 61.89 82.01 62.67 84.73 63.62 C 84.86 65.66 85.07 67.75 84.47 69.74 C 84.06 68.02 83.68 66.30 83.29 64.58 C 81.09 66.79 79.18 69.28 77.77 72.06 C 78.92 72.37 80.07 72.71 81.23 72.98 C 84.77 74.20 88.10 71.84 91.56 71.76 C 94.95 73.10 97.54 75.80 100.37 78.00 C 100.48 74.50 100.24 71.00 99.82 67.52 C 96.16 65.79 92.60 63.85 89.14 61.74 C 91.37 57.70 96.06 59.88 99.58 60.33 C 100.35 51.80 92.07 44.65 95.57 36.16 C 96.31 31.71 101.47 34.10 104.39 34.59 C 104.58 32.92 104.76 31.25 104.96 29.59 C 106.34 27.52 107.57 25.35 108.81 23.20 C 110.51 20.01 114.52 19.30 116.90 16.78 C 117.45 11.16 115.42 5.61 115.07 0.00 M 124.43 8.26 C 125.30 9.62 126.17 10.98 127.04 12.34 C 128.45 11.50 129.85 10.66 131.25 9.81 C 130.38 8.62 129.50 7.43 128.63 6.23 C 129.32 4.30 129.99 2.36 130.59 0.39 C 127.17 1.81 126.60 5.68 124.43 8.26 Z" />
<path fill="#623402" opacity="1.00" d=" M 171.51 0.00 L 177.06 0.00 C 176.67 0.45 175.91 1.34 175.53 1.79 C 177.61 6.61 177.92 11.99 175.04 16.58 C 172.81 23.40 169.30 29.73 167.41 36.66 C 167.29 37.11 167.07 38.00 166.95 38.44 L 167.34 39.29 C 167.96 41.01 168.20 42.83 168.50 44.63 C 169.97 47.58 170.57 50.83 170.00 54.10 C 169.05 56.27 167.86 58.31 166.63 60.32 C 163.94 55.71 162.52 50.43 163.69 45.11 C 160.31 44.70 156.77 43.67 153.43 44.78 C 152.18 46.44 152.08 48.69 151.47 50.63 C 150.18 51.86 148.93 53.13 147.79 54.50 C 147.68 55.15 147.47 56.45 147.36 57.10 C 147.18 58.09 147.01 59.08 146.84 60.07 C 144.27 58.49 141.65 56.29 138.42 56.82 C 139.48 52.31 142.11 48.64 146.83 47.56 C 144.31 46.08 141.43 44.56 138.78 46.68 C 136.64 47.66 134.57 48.78 132.47 49.84 C 132.36 51.34 132.24 52.83 132.17 54.33 C 128.22 55.16 125.92 51.66 123.71 49.08 C 126.09 46.30 127.46 42.91 126.41 39.25 C 126.92 35.86 127.71 32.53 128.59 29.22 C 130.98 29.71 133.38 30.19 135.77 30.69 C 135.96 29.99 136.32 28.58 136.51 27.88 C 134.68 27.39 132.85 26.89 131.02 26.39 C 131.52 22.58 132.23 18.76 133.64 15.17 C 134.95 19.14 137.38 22.57 139.93 25.84 C 143.67 23.25 146.10 17.19 151.49 18.79 C 151.86 20.81 152.25 22.83 152.62 24.85 C 157.13 26.39 162.13 24.62 164.35 20.32 C 167.34 13.79 169.96 7.04 171.51 0.00 M 141.95 31.90 C 144.21 30.02 146.56 28.26 149.06 26.71 C 149.24 29.03 149.39 31.35 149.51 33.68 C 150.91 34.08 152.32 34.48 153.72 34.88 C 154.77 32.72 155.83 30.55 156.89 28.39 C 154.70 27.89 152.52 27.38 150.34 26.86 C 150.56 24.42 150.52 21.97 150.15 19.55 C 145.04 21.44 142.79 26.91 141.95 31.90 M 147.64 46.26 C 146.89 48.75 145.48 50.93 143.94 53.00 C 145.55 52.46 147.59 52.29 148.45 50.58 C 152.62 44.48 150.26 36.31 145.87 31.01 C 141.23 34.71 142.67 43.31 147.64 46.26 M 134.17 40.32 C 133.90 42.12 133.61 43.92 133.35 45.73 C 135.98 44.96 138.58 44.10 141.13 43.10 L 141.49 43.72 C 141.78 42.94 142.38 41.38 142.67 40.60 C 139.95 39.34 136.60 37.49 134.17 40.32 Z" />
<path fill="#623402" opacity="1.00" d=" M 198.64 0.00 L 218.92 0.00 C 216.51 6.30 214.37 12.84 209.92 18.08 C 204.97 25.36 198.17 32.66 198.09 41.95 C 195.95 43.37 193.78 44.73 191.62 46.11 C 190.68 44.13 189.75 42.15 188.83 40.17 C 184.64 45.23 178.32 47.92 174.48 53.33 C 173.98 53.25 172.96 53.08 172.45 53.00 C 174.65 44.03 180.68 36.91 184.94 28.97 C 185.34 28.01 185.72 27.05 186.11 26.10 C 185.13 25.60 184.17 25.11 183.20 24.62 C 183.37 24.14 183.71 23.16 183.88 22.67 C 188.08 14.65 194.07 7.79 198.64 0.00 Z" />
<path fill="#623402" opacity="1.00" d=" M 0.00 9.82 C 5.98 7.40 12.56 6.14 19.01 6.63 C 22.41 8.06 24.55 11.32 27.60 13.30 C 30.83 15.38 34.55 16.60 37.70 18.82 C 35.48 18.81 33.10 19.14 31.11 17.91 C 26.75 15.48 21.81 14.52 17.20 12.68 C 14.45 15.71 11.06 18.07 7.05 19.08 C 5.34 21.43 3.08 23.25 0.00 22.76 L 0.00 9.82 Z" />
<path fill="#623402" opacity="1.00" d=" M 5.25 82.36 C 9.85 70.75 8.02 57.50 13.79 46.20 C 15.71 47.40 17.64 48.59 19.57 49.78 C 19.30 50.91 19.03 52.05 18.75 53.18 C 18.10 53.62 17.44 54.08 16.80 54.54 C 14.01 56.41 12.28 59.32 10.97 62.33 C 13.03 63.29 15.09 64.23 17.16 65.16 C 19.89 71.42 24.15 78.18 21.46 85.20 C 22.72 85.89 23.97 86.60 25.22 87.30 C 26.68 81.32 28.59 74.58 24.45 69.17 C 25.31 68.58 26.16 67.99 27.03 67.40 C 29.04 66.30 31.10 65.18 32.63 63.42 C 36.42 62.96 39.52 60.87 41.56 57.68 C 45.75 58.75 50.70 59.13 54.19 56.08 C 55.71 53.51 56.04 49.86 59.55 49.18 C 59.90 50.06 60.58 51.82 60.93 52.70 C 62.43 52.42 63.96 52.23 65.48 52.03 C 66.69 54.07 67.91 56.11 69.12 58.16 C 61.77 59.80 57.37 65.76 52.71 71.09 C 53.11 71.62 53.90 72.66 54.30 73.19 C 58.44 72.18 62.13 69.86 62.86 65.33 C 64.40 67.86 65.83 70.46 66.94 73.22 C 64.10 74.35 61.09 74.90 58.17 75.76 C 56.91 76.26 55.67 76.81 54.43 77.34 C 54.18 79.40 53.92 81.45 53.67 83.50 C 56.58 85.03 58.40 87.43 57.12 90.76 C 55.46 90.62 53.80 90.50 52.14 90.36 C 53.57 91.86 54.98 93.37 56.43 94.85 C 45.93 91.82 38.31 83.31 27.88 80.09 C 29.10 84.50 32.62 88.27 32.77 92.88 C 30.39 100.42 34.41 108.16 31.51 115.69 C 28.91 117.01 26.31 118.32 23.69 119.59 C 22.90 118.67 22.12 117.76 21.33 116.84 C 15.34 116.10 9.35 115.37 3.39 114.46 C 5.75 111.65 9.52 112.42 12.74 112.10 C 17.10 111.70 21.33 110.50 25.62 109.73 C 25.12 105.62 25.28 101.27 23.63 97.41 C 17.02 93.64 10.72 89.34 4.11 85.56 C 2.40 84.51 1.18 82.88 0.00 81.30 L 0.00 79.78 L 0.80 80.23 C 2.27 80.98 3.77 81.65 5.25 82.36 M 38.91 66.34 C 42.56 65.99 45.20 64.16 44.59 60.10 C 41.07 60.22 40.11 63.72 38.91 66.34 M 28.01 114.16 C 28.89 114.43 30.67 114.97 31.56 115.24 C 31.50 113.14 31.42 111.04 31.29 108.94 C 29.72 110.36 28.60 112.13 28.01 114.16 Z" />
<path fill="#623402" opacity="1.00" d=" M 157.09 52.04 C 157.68 52.21 158.87 52.56 159.47 52.74 C 157.67 58.42 153.39 63.24 153.37 69.44 C 151.84 75.59 149.91 81.79 146.18 86.99 C 147.90 90.92 149.41 95.06 148.46 99.43 C 148.41 99.71 148.31 100.27 148.26 100.55 C 143.80 104.66 149.10 110.27 146.94 115.15 C 145.32 119.06 145.08 123.32 146.89 127.22 C 146.25 128.32 145.61 129.42 144.98 130.53 C 143.27 133.49 140.89 136.56 141.25 140.17 C 142.37 144.50 144.04 149.13 142.42 153.55 C 140.36 156.59 137.63 159.26 136.70 162.95 C 135.37 168.26 130.03 170.62 125.78 173.22 C 124.74 171.68 123.70 170.13 122.66 168.59 C 119.93 179.16 118.72 190.12 115.35 200.50 C 114.67 198.29 113.97 196.08 113.37 193.85 C 117.20 182.88 118.87 171.37 122.73 160.43 C 122.61 159.05 122.40 157.68 122.21 156.32 C 113.76 161.53 113.41 172.48 109.85 180.82 C 107.64 186.68 108.52 193.01 109.59 199.01 C 110.73 204.73 108.55 210.32 108.09 215.98 C 107.53 222.05 107.08 228.16 107.09 234.26 C 105.42 224.28 107.14 214.14 105.84 204.12 C 104.97 197.93 106.59 191.29 103.52 185.54 C 101.63 182.37 104.02 178.98 105.14 175.98 C 107.25 173.27 109.72 170.59 110.32 167.08 C 110.46 160.01 110.89 152.94 110.51 145.88 C 108.82 146.38 107.09 146.79 105.51 147.58 C 103.89 149.64 103.69 152.85 101.41 154.31 C 99.19 154.03 97.55 151.98 95.67 150.88 C 94.81 154.36 94.64 157.95 95.30 161.48 C 96.79 161.91 98.29 162.34 99.78 162.79 C 100.63 161.53 101.52 160.29 102.42 159.07 C 102.70 159.39 103.26 160.03 103.54 160.35 C 104.08 161.97 104.63 163.60 105.18 165.22 C 100.37 167.17 95.17 166.62 90.26 165.43 C 90.12 167.04 89.98 168.65 89.89 170.26 C 89.57 169.82 88.91 168.94 88.58 168.50 C 84.35 178.51 89.56 189.97 84.83 199.68 C 84.13 188.30 85.43 176.88 84.15 165.54 C 82.26 168.23 80.46 171.02 79.20 174.08 C 79.17 169.46 76.43 165.39 76.30 160.81 C 76.85 157.08 79.77 154.30 81.53 151.10 C 80.13 151.22 78.74 151.37 77.34 151.53 C 79.52 148.94 81.43 146.13 83.03 143.15 C 82.35 142.21 81.66 141.28 80.98 140.34 C 81.74 138.74 82.51 137.13 83.28 135.53 C 85.81 135.53 88.35 135.50 90.88 135.45 C 90.61 134.21 90.33 132.98 90.04 131.75 C 88.90 127.54 89.19 123.15 89.65 118.87 C 90.24 119.14 91.44 119.69 92.04 119.96 C 92.28 121.29 92.55 122.61 92.82 123.94 C 94.04 128.36 93.12 132.89 91.70 137.13 C 92.63 137.40 93.55 137.66 94.48 137.93 C 93.54 139.07 92.59 140.21 91.65 141.35 C 93.58 142.49 95.52 143.63 97.46 144.78 C 96.62 146.19 95.79 147.61 94.97 149.03 C 101.81 148.33 107.43 141.04 114.48 144.55 C 114.46 142.96 114.44 141.36 114.42 139.77 C 115.63 139.11 116.83 138.45 118.04 137.80 C 119.80 143.88 121.59 149.98 124.27 155.74 C 125.04 155.97 126.59 156.42 127.36 156.64 C 126.05 148.38 124.17 140.11 125.31 131.69 C 121.88 133.13 118.23 132.94 114.83 131.55 C 114.04 133.24 113.25 134.93 112.47 136.63 C 112.17 133.77 111.68 130.66 112.88 127.95 C 115.47 126.47 118.44 125.88 121.29 125.10 C 121.23 122.34 121.22 119.59 121.23 116.84 C 122.61 116.22 123.98 115.61 125.37 115.00 C 123.96 114.02 122.54 113.07 121.10 112.15 C 120.85 111.35 120.55 110.56 120.28 109.77 C 125.82 105.90 127.46 99.37 129.47 93.34 C 131.96 90.51 136.81 90.43 138.77 86.80 C 141.82 81.82 145.18 77.02 148.23 72.05 C 149.82 64.86 151.62 57.37 157.09 52.04 M 86.84 148.81 C 85.30 151.48 86.79 154.18 88.68 156.14 C 88.15 156.65 87.11 157.68 86.58 158.19 C 85.74 161.16 86.79 164.12 87.64 166.95 C 92.67 160.57 91.64 152.24 93.96 144.90 C 91.50 145.99 88.77 146.83 86.84 148.81 Z" />
<path fill="#623402" opacity="1.00" d=" M 82.65 97.77 C 83.60 96.18 84.54 94.59 85.49 93.01 L 86.05 93.68 C 87.41 95.29 88.62 97.04 89.46 98.99 C 88.86 98.84 87.67 98.55 87.07 98.41 C 84.29 100.27 81.32 101.84 78.19 103.03 C 78.70 106.51 79.70 109.89 81.00 113.15 C 82.23 116.13 82.60 119.35 82.74 122.54 C 81.58 123.58 80.44 124.66 79.33 125.77 C 78.80 126.28 77.74 127.31 77.20 127.83 C 77.59 128.61 78.37 130.17 78.76 130.95 C 79.94 130.16 81.12 129.37 82.31 128.58 C 83.14 128.02 83.97 127.44 84.80 126.87 C 84.66 129.42 84.53 131.96 84.38 134.51 C 82.64 133.82 80.90 133.13 79.16 132.45 C 78.21 134.22 77.28 135.99 76.36 137.78 C 71.82 135.53 66.84 134.30 62.42 131.79 C 62.05 130.39 61.67 128.98 61.23 127.60 C 59.56 126.29 57.76 125.15 56.00 123.98 C 53.55 128.83 52.15 134.19 49.25 138.81 C 48.96 135.03 47.69 131.39 47.53 127.62 C 48.08 121.44 52.55 116.46 53.13 110.27 C 46.68 114.28 45.08 122.48 44.40 129.49 C 41.14 134.48 36.81 138.82 31.74 141.96 C 30.56 140.78 29.37 139.63 28.17 138.47 C 28.35 138.32 28.71 138.01 28.89 137.86 C 34.15 136.87 36.59 131.72 37.95 127.07 C 39.95 120.31 43.23 113.98 47.21 108.19 C 48.62 105.89 52.61 105.72 53.89 108.24 C 55.10 112.39 51.73 117.96 55.89 121.10 C 61.18 124.82 65.90 129.61 72.18 131.65 C 72.84 128.80 73.37 125.73 75.54 123.58 C 76.61 121.90 78.94 120.51 78.51 118.27 C 77.13 116.31 75.21 114.81 73.80 112.87 C 72.92 110.27 75.24 108.05 76.25 105.83 C 75.20 104.59 74.15 103.35 73.19 102.04 C 74.28 102.07 75.36 102.11 76.45 102.15 C 77.23 100.31 77.96 98.44 78.94 96.69 C 80.16 97.09 81.44 97.33 82.65 97.77 Z" />
<path fill="#623402" opacity="1.00" d=" M 91.27 94.46 C 94.54 94.72 97.83 94.76 101.11 95.05 C 101.96 95.13 103.66 95.30 104.50 95.39 C 105.20 97.26 106.07 99.06 106.88 100.89 C 104.37 101.90 101.69 102.34 98.98 102.33 C 99.19 100.39 99.41 98.46 99.64 96.52 C 97.55 96.47 95.46 96.41 93.37 96.33 C 92.84 95.86 91.79 94.92 91.27 94.46 Z" />
<path fill="#623402" opacity="1.00" d=" M 153.79 122.45 C 155.85 117.49 155.18 111.42 159.22 107.39 C 159.72 109.14 160.24 110.90 160.54 112.70 C 160.82 114.83 160.13 117.40 161.85 119.07 C 164.39 122.00 168.82 121.15 171.91 123.11 C 174.67 125.39 174.64 129.48 176.79 132.14 C 180.17 133.26 182.76 129.34 185.66 128.08 C 185.66 128.90 185.67 129.72 185.68 130.54 C 188.66 132.94 190.15 136.40 189.88 140.22 C 184.09 137.85 178.72 134.28 172.41 133.38 C 166.01 131.53 159.64 135.10 153.22 133.40 C 152.91 132.28 152.58 131.17 152.24 130.06 C 153.65 128.62 155.08 127.21 156.49 125.77 C 155.59 124.66 154.69 123.55 153.79 122.45 Z" />
<path fill="#623402" opacity="1.00" d=" M 196.30 126.81 C 196.57 129.35 196.84 131.90 197.03 134.46 C 196.61 141.13 195.85 148.15 198.41 154.51 C 200.25 159.29 200.87 164.42 201.82 169.43 C 199.33 167.08 196.06 164.78 195.82 161.04 C 195.28 155.10 196.12 149.03 194.60 143.18 C 192.88 137.60 196.51 132.38 196.30 126.81 Z" />
</g>
<g id="#804703ff">
<path fill="#804703" opacity="1.00" d=" M 218.92 0.00 L 229.13 0.00 C 226.00 9.66 220.12 18.79 211.58 24.49 C 207.48 27.18 207.61 32.70 206.65 37.00 C 205.44 42.13 207.58 47.07 208.39 52.07 C 208.89 58.69 208.37 66.32 202.89 70.90 C 199.20 69.63 194.89 68.93 192.22 65.83 C 190.24 62.60 189.51 58.81 188.25 55.28 C 187.11 56.45 185.96 57.61 184.82 58.78 C 185.86 59.92 186.88 61.08 187.85 62.30 C 185.46 63.62 182.98 64.77 180.45 65.78 C 179.48 67.78 178.55 69.80 177.67 71.85 C 171.39 68.30 178.85 61.33 174.77 56.84 C 170.37 60.62 170.39 66.81 167.11 71.30 C 165.74 71.22 164.37 71.16 163.01 71.11 C 163.22 72.56 163.43 74.01 163.63 75.47 C 164.62 75.31 165.61 75.16 166.60 75.02 C 167.02 79.07 167.69 84.14 164.29 87.14 C 161.22 88.10 157.81 88.40 154.73 87.27 C 158.35 77.54 161.31 67.46 162.24 57.07 C 160.69 60.56 158.90 63.95 156.68 67.06 C 157.53 69.24 159.02 71.51 158.15 73.93 C 156.02 82.81 152.00 91.06 148.46 99.43 C 149.41 95.06 147.90 90.92 146.18 86.99 C 149.91 81.79 151.84 75.59 153.37 69.44 C 153.39 63.24 157.67 58.42 159.47 52.74 C 158.87 52.56 157.68 52.21 157.09 52.04 C 157.29 51.09 157.49 50.14 157.69 49.20 C 157.03 48.45 156.37 47.69 155.71 46.94 C 154.29 48.16 152.86 49.37 151.47 50.63 C 152.08 48.69 152.18 46.44 153.43 44.78 C 156.77 43.67 160.31 44.70 163.69 45.11 C 162.52 50.43 163.94 55.71 166.63 60.32 C 167.86 58.31 169.05 56.27 170.00 54.10 C 170.45 55.10 170.90 56.10 171.36 57.10 C 171.39 56.79 171.45 56.18 171.48 55.87 C 171.72 55.15 172.21 53.72 172.45 53.00 C 172.96 53.08 173.98 53.25 174.48 53.33 C 178.32 47.92 184.64 45.23 188.83 40.17 C 189.75 42.15 190.68 44.13 191.62 46.11 C 193.78 44.73 195.95 43.37 198.09 41.95 C 198.17 32.66 204.97 25.36 209.92 18.08 C 214.37 12.84 216.51 6.30 218.92 0.00 Z" />
<path fill="#804703" opacity="1.00" d=" M 17.20 12.68 C 21.81 14.52 26.75 15.48 31.11 17.91 C 33.10 19.14 35.48 18.81 37.70 18.82 C 42.75 23.34 52.00 23.40 54.17 30.57 C 50.84 30.56 47.50 30.48 44.17 30.37 C 46.04 33.95 48.38 37.28 51.24 40.15 C 50.31 40.89 49.37 41.64 48.44 42.38 C 51.81 42.88 55.13 43.72 58.20 45.21 C 54.32 45.62 50.43 45.83 46.57 46.40 C 45.58 45.25 44.59 44.09 43.61 42.94 C 45.78 41.91 47.91 40.79 50.00 39.62 C 46.26 39.58 42.27 40.68 38.69 39.28 C 35.59 37.39 38.43 34.12 39.61 31.95 C 38.11 30.77 36.62 29.60 35.10 28.44 C 35.24 26.05 35.35 23.65 35.46 21.26 C 34.43 21.60 33.41 21.95 32.38 22.30 C 30.89 20.86 29.40 19.43 27.90 18.01 C 26.37 20.78 24.98 23.63 23.27 26.29 C 20.57 30.50 16.22 33.47 14.09 38.08 C 10.19 46.21 7.70 55.04 6.98 64.04 C 6.55 69.15 6.02 74.28 4.66 79.25 C 3.63 77.79 2.61 76.34 1.59 74.88 C 1.33 76.67 1.06 78.45 0.80 80.23 L 0.00 79.78 L 0.00 22.76 C 3.08 23.25 5.34 21.43 7.05 19.08 C 11.06 18.07 14.45 15.71 17.20 12.68 Z" />
<path fill="#804703" opacity="1.00" d=" M 128.85 18.64 C 128.99 21.16 129.38 23.82 128.11 26.14 C 125.43 31.74 123.97 37.85 121.01 43.33 C 118.59 48.10 116.21 52.89 113.84 57.69 C 112.65 57.29 111.46 56.89 110.27 56.49 C 113.27 49.25 114.81 41.52 115.42 33.72 C 111.81 35.68 107.60 37.71 106.21 41.91 C 103.89 48.08 100.47 55.02 103.55 61.56 C 106.31 67.35 108.03 73.62 107.42 80.09 C 106.15 80.56 104.87 81.04 103.60 81.52 C 103.04 81.42 101.92 81.20 101.35 81.10 C 102.62 79.13 104.12 77.24 104.80 74.97 C 103.36 70.66 100.60 66.74 100.39 62.06 C 99.08 53.91 102.31 46.08 104.48 38.41 C 108.58 33.21 113.40 28.09 119.69 25.58 C 120.84 27.27 122.00 28.96 123.16 30.65 C 126.23 27.29 127.96 23.06 128.85 18.64 Z" />
<path fill="#804703" opacity="1.00" d=" M 141.95 31.90 C 142.79 26.91 145.04 21.44 150.15 19.55 C 150.52 21.97 150.56 24.42 150.34 26.86 C 152.52 27.38 154.70 27.89 156.89 28.39 C 155.83 30.55 154.77 32.72 153.72 34.88 C 152.32 34.48 150.91 34.08 149.51 33.68 C 149.39 31.35 149.24 29.03 149.06 26.71 C 146.56 28.26 144.21 30.02 141.95 31.90 Z" />
<path fill="#804703" opacity="1.00" d=" M 180.58 25.52 C 181.70 24.59 182.81 23.66 183.88 22.67 C 183.71 23.16 183.37 24.14 183.20 24.62 C 184.17 25.11 185.13 25.60 186.11 26.10 C 185.72 27.05 185.34 28.01 184.94 28.97 C 185.07 28.19 185.33 26.65 185.46 25.88 C 183.65 27.22 181.84 28.55 180.07 29.93 C 180.26 28.47 180.43 27.00 180.58 25.52 Z" />
<path fill="#804703" opacity="1.00" d=" M 26.43 43.25 C 26.74 43.38 27.36 43.64 27.67 43.77 C 28.62 44.33 29.54 44.95 30.47 45.55 C 29.31 48.30 28.75 51.24 29.25 54.22 C 31.40 52.57 33.52 50.88 35.53 49.06 C 36.68 53.19 36.35 57.64 32.83 60.52 C 32.79 58.71 32.70 56.89 32.57 55.08 C 30.19 58.94 28.95 63.33 27.03 67.40 C 26.16 67.99 25.31 68.58 24.45 69.17 C 28.59 74.58 26.68 81.32 25.22 87.30 C 23.97 86.60 22.72 85.89 21.46 85.20 C 24.15 78.18 19.89 71.42 17.16 65.16 C 15.09 64.23 13.03 63.29 10.97 62.33 C 12.25 62.70 13.53 63.07 14.82 63.44 C 16.50 61.58 18.20 59.76 19.98 57.99 C 18.88 56.88 17.77 55.77 16.80 54.54 C 17.44 54.08 18.10 53.62 18.75 53.18 C 20.18 54.03 21.60 54.88 23.03 55.72 C 24.88 51.80 26.67 47.70 26.43 43.25 Z" />
<path fill="#804703" opacity="1.00" d=" M 92.46 80.48 C 93.01 79.37 93.58 78.26 94.13 77.15 C 95.86 78.35 97.56 79.57 99.37 80.64 C 98.73 80.48 97.46 80.15 96.82 79.99 C 92.66 83.07 93.66 88.62 93.78 93.14 C 96.10 94.17 98.62 94.65 101.11 95.05 C 97.83 94.76 94.54 94.72 91.27 94.46 C 90.17 93.65 89.07 92.85 87.97 92.06 C 87.33 92.60 86.69 93.14 86.05 93.68 L 85.49 93.01 C 84.01 90.98 81.20 88.50 82.82 85.79 C 85.35 83.03 89.14 81.98 92.46 80.48 Z" />
<path fill="#804703" opacity="1.00" d=" M 188.47 91.27 L 189.02 90.84 C 190.72 90.94 192.42 91.04 194.12 91.14 C 193.94 93.24 193.72 95.34 193.64 97.45 C 191.88 98.17 190.06 98.73 188.32 99.47 C 188.14 99.12 187.78 98.43 187.60 98.08 C 188.28 95.88 188.49 93.57 188.47 91.27 Z" />
<path fill="#804703" opacity="1.00" d=" M 78.19 103.03 C 81.32 101.84 84.29 100.27 87.07 98.41 C 87.67 98.55 88.86 98.84 89.46 98.99 C 90.49 101.49 91.86 103.82 93.17 106.18 C 94.51 106.38 95.84 106.60 97.17 106.81 C 100.35 111.08 103.08 115.98 102.13 121.52 C 100.54 117.59 98.84 113.71 97.00 109.89 C 94.58 112.80 92.41 116.09 92.04 119.96 C 91.44 119.69 90.24 119.14 89.65 118.87 C 90.03 114.33 90.37 109.77 91.40 105.32 C 90.91 104.56 90.31 103.91 89.60 103.35 C 85.98 105.88 83.00 109.20 81.00 113.15 C 79.70 109.89 78.70 106.51 78.19 103.03 Z" />
<path fill="#804703" opacity="1.00" d=" M 220.14 111.24 C 221.25 108.27 222.05 105.18 223.52 102.35 C 224.94 105.05 226.98 107.90 226.27 111.13 C 224.70 120.52 221.76 129.60 219.42 138.80 C 217.47 146.32 217.52 154.15 216.54 161.81 C 215.51 170.38 212.56 178.68 212.52 187.38 C 212.38 190.25 212.85 193.21 212.00 196.01 C 210.00 197.57 207.59 198.48 205.37 199.67 C 202.34 189.88 202.92 179.50 201.82 169.43 C 200.87 164.42 200.25 159.29 198.41 154.51 C 195.85 148.15 196.61 141.13 197.03 134.46 C 197.80 139.01 199.24 143.44 201.53 147.46 C 202.04 144.05 201.80 140.44 203.06 137.18 C 204.72 134.06 208.73 134.13 211.72 133.28 C 211.55 129.41 210.65 125.40 211.55 121.59 C 214.13 117.92 218.30 115.46 220.14 111.24 Z" />
<path fill="#804703" opacity="1.00" d=" M 161.85 119.07 C 160.13 117.40 160.82 114.83 160.54 112.70 C 160.79 113.98 161.04 115.25 161.29 116.53 C 164.82 117.02 168.84 116.76 171.72 119.23 C 174.48 121.42 176.88 124.03 179.43 126.45 C 182.56 125.96 185.82 125.45 188.90 126.50 C 187.81 127.01 186.73 127.54 185.66 128.08 C 182.76 129.34 180.17 133.26 176.79 132.14 C 174.64 129.48 174.67 125.39 171.91 123.11 C 168.82 121.15 164.39 122.00 161.85 119.07 Z" />
<path fill="#804703" opacity="1.00" d=" M 92.82 123.94 C 94.50 122.55 96.17 121.16 97.85 119.77 C 98.86 122.45 99.48 125.26 99.83 128.10 C 103.17 129.62 105.91 132.08 107.99 135.09 C 105.16 134.15 102.41 132.85 99.44 132.44 C 97.51 134.00 96.05 136.03 94.48 137.93 C 93.55 137.66 92.63 137.40 91.70 137.13 C 93.12 132.89 94.04 128.36 92.82 123.94 Z" />
<path fill="#804703" opacity="1.00" d=" M 49.25 138.81 C 52.15 134.19 53.55 128.83 56.00 123.98 C 57.76 125.15 59.56 126.29 61.23 127.60 C 59.75 127.53 58.28 127.46 56.80 127.40 C 58.23 132.61 55.17 137.19 53.87 142.01 C 53.49 148.58 53.81 155.19 53.22 161.76 C 48.68 161.67 44.06 160.94 40.37 158.09 C 39.96 158.79 39.56 159.50 39.17 160.21 C 39.58 155.08 40.40 149.88 42.65 145.19 C 43.31 144.22 43.94 143.23 44.52 142.21 C 46.06 141.02 47.70 139.97 49.25 138.81 Z" />
<path fill="#804703" opacity="1.00" d=" M 31.74 141.96 C 36.81 138.82 41.14 134.48 44.40 129.49 C 44.44 133.49 44.22 137.62 42.19 141.18 L 41.73 141.92 C 40.32 145.03 37.79 147.33 34.17 146.67 C 33.75 149.68 33.39 152.70 33.33 155.74 C 28.20 155.67 21.78 155.94 19.66 150.15 L 18.78 148.79 C 20.61 149.99 22.48 151.14 24.35 152.27 C 24.18 148.84 21.71 146.61 19.09 144.79 C 18.72 145.90 18.35 147.01 17.99 148.12 C 15.98 146.49 14.08 144.72 12.26 142.89 C 14.90 141.39 17.64 140.07 20.48 138.98 C 21.25 139.58 22.02 140.17 22.81 140.75 C 22.33 142.66 21.90 144.57 21.47 146.49 C 24.55 144.25 28.15 143.08 31.74 141.96 Z" />
<path fill="#804703" opacity="1.00" d=" M 141.25 140.17 C 140.89 136.56 143.27 133.49 144.98 130.53 C 143.71 143.57 145.21 156.72 143.60 169.73 C 141.62 183.75 143.68 197.98 141.97 212.02 C 141.59 214.28 142.20 216.51 142.82 218.66 C 141.91 228.56 141.37 238.48 141.57 248.42 C 141.08 243.95 140.75 239.46 140.76 234.96 C 139.27 238.76 136.54 244.31 131.61 241.56 C 131.63 243.13 131.63 244.70 131.69 246.27 C 128.91 237.03 128.70 227.45 128.25 217.91 C 125.74 204.77 130.59 189.63 122.08 178.09 C 122.47 174.94 122.56 171.76 122.66 168.59 C 123.70 170.13 124.74 171.68 125.78 173.22 C 130.03 170.62 135.37 168.26 136.70 162.95 C 137.63 159.26 140.36 156.59 142.42 153.55 C 144.04 149.13 142.37 144.50 141.25 140.17 Z" />
<path fill="#804703" opacity="1.00" d=" M 112.47 136.63 C 113.25 134.93 114.04 133.24 114.83 131.55 C 118.23 132.94 121.88 133.13 125.31 131.69 C 124.17 140.11 126.05 148.38 127.36 156.64 C 126.59 156.42 125.04 155.97 124.27 155.74 C 121.59 149.98 119.80 143.88 118.04 137.80 C 116.83 138.45 115.63 139.11 114.42 139.77 C 113.76 138.73 113.09 137.70 112.47 136.63 Z" />
<path fill="#804703" opacity="1.00" d=" M 61.62 146.48 C 66.55 145.61 71.74 144.07 75.11 140.13 C 77.07 140.20 79.02 140.28 80.98 140.34 C 81.66 141.28 82.35 142.21 83.03 143.15 C 81.43 146.13 79.52 148.94 77.34 151.53 C 73.75 152.04 70.21 152.82 66.63 153.40 C 70.81 151.68 75.02 149.90 78.51 146.96 C 73.28 144.06 66.79 145.70 63.11 150.22 C 61.53 153.62 62.73 157.40 63.38 160.86 C 64.03 160.42 65.33 159.54 65.98 159.10 C 65.83 160.38 65.68 161.65 65.54 162.93 C 67.75 163.56 70.06 164.00 72.14 165.03 C 74.25 167.62 74.81 171.10 75.66 174.24 C 76.94 184.20 74.32 194.16 74.31 204.14 C 74.67 198.15 74.56 192.11 73.81 186.15 C 70.02 194.17 72.68 203.35 70.60 211.80 C 71.29 211.75 72.69 211.65 73.39 211.60 C 72.42 212.11 71.46 212.63 70.50 213.14 C 69.11 204.77 68.04 196.34 67.42 187.87 C 67.51 183.43 63.06 180.89 62.44 176.65 C 61.48 171.98 59.55 167.09 61.30 162.36 C 62.23 159.77 61.65 157.07 61.07 154.48 C 60.53 154.55 59.44 154.68 58.90 154.74 C 59.81 151.99 60.77 149.25 61.62 146.48 Z" />
<path fill="#804703" opacity="1.00" d=" M 109.85 180.82 C 113.41 172.48 113.76 161.53 122.21 156.32 C 122.40 157.68 122.61 159.05 122.73 160.43 C 122.13 160.61 121.54 160.80 120.94 160.98 C 118.78 167.30 117.31 173.83 115.23 180.18 C 114.08 184.62 111.84 189.22 113.37 193.85 C 113.97 196.08 114.67 198.29 115.35 200.50 C 115.17 200.87 114.83 201.60 114.66 201.96 C 114.23 202.79 113.79 203.61 113.36 204.43 C 114.53 205.29 115.71 206.16 116.89 207.03 C 117.01 205.73 117.15 204.42 117.31 203.13 C 117.48 202.08 117.68 201.04 117.91 200.01 C 118.50 214.57 118.90 229.51 114.90 243.64 C 114.40 242.01 113.90 240.38 113.51 238.73 C 113.69 228.20 114.56 217.70 114.45 207.18 C 110.27 213.68 113.54 221.73 111.46 228.70 C 109.39 231.52 107.41 234.51 107.51 238.19 C 107.40 236.88 107.23 235.57 107.09 234.26 C 107.08 228.16 107.53 222.05 108.09 215.98 C 108.55 210.32 110.73 204.73 109.59 199.01 C 108.52 193.01 107.64 186.68 109.85 180.82 Z" />
<path fill="#804703" opacity="1.00" d=" M 103.54 160.35 C 105.70 162.54 106.61 165.54 107.64 168.36 C 108.31 168.04 109.65 167.40 110.32 167.08 C 109.72 170.59 107.25 173.27 105.14 175.98 C 102.34 178.87 99.04 181.21 96.18 184.06 C 96.24 183.28 96.35 181.72 96.40 180.93 C 95.06 182.13 93.69 183.30 92.42 184.57 C 91.06 179.91 90.71 175.03 89.89 170.26 C 89.98 168.65 90.12 167.04 90.26 165.43 C 95.17 166.62 100.37 167.17 105.18 165.22 C 104.63 163.60 104.08 161.97 103.54 160.35 M 102.39 175.52 C 101.04 175.50 100.67 177.93 102.17 177.99 C 103.53 178.01 103.88 175.57 102.39 175.52 Z" />
<path fill="#804703" opacity="1.00" d=" M 79.20 174.08 C 80.46 171.02 82.26 168.23 84.15 165.54 C 85.43 176.88 84.13 188.30 84.83 199.68 C 83.90 201.60 82.82 203.44 81.74 205.29 C 80.55 195.69 79.84 186.01 79.19 176.36 C 79.19 175.79 79.19 174.65 79.20 174.08 Z" />
</g>
<g id="#9c5701ff">
<path fill="#9c5701" opacity="1.00" d=" M 229.13 0.00 L 235.31 0.00 C 233.03 6.64 229.31 12.65 227.12 19.33 C 226.19 22.43 224.09 24.94 221.78 27.14 C 220.83 25.69 219.88 24.24 218.93 22.80 C 213.64 25.42 209.12 30.67 209.98 36.91 C 214.44 49.64 214.92 64.10 209.78 76.74 C 207.73 81.07 208.95 85.84 210.83 89.98 C 212.77 88.01 214.59 85.92 216.29 83.74 C 218.85 86.60 223.26 87.07 225.45 83.49 C 229.17 77.11 233.80 71.28 237.04 64.62 C 239.25 60.40 242.93 57.04 244.36 52.40 C 246.09 47.08 248.05 41.83 250.08 36.61 C 251.13 36.96 252.19 37.32 253.26 37.67 C 254.72 34.99 256.41 32.21 256.20 29.03 C 256.64 19.14 252.94 9.78 252.18 0.00 L 265.00 0.00 L 265.00 29.89 C 262.96 31.99 260.62 33.76 258.26 35.49 C 257.94 48.99 249.78 60.04 242.61 70.80 C 235.39 80.83 233.64 93.37 229.51 104.76 C 224.98 121.96 222.17 139.63 220.83 157.36 C 220.92 166.36 217.85 175.01 217.84 184.01 C 217.76 191.41 216.50 199.68 210.51 204.72 C 209.32 203.56 208.13 202.40 206.92 201.26 C 206.90 201.98 206.85 203.42 206.82 204.15 C 206.37 202.64 205.85 201.15 205.37 199.67 C 207.59 198.48 210.00 197.57 212.00 196.01 C 212.85 193.21 212.38 190.25 212.52 187.38 C 212.56 178.68 215.51 170.38 216.54 161.81 C 217.52 154.15 217.47 146.32 219.42 138.80 C 221.76 129.60 224.70 120.52 226.27 111.13 C 226.98 107.90 224.94 105.05 223.52 102.35 C 222.05 105.18 221.25 108.27 220.14 111.24 C 218.30 115.46 214.13 117.92 211.55 121.59 C 210.65 125.40 211.55 129.41 211.72 133.28 C 208.73 134.13 204.72 134.06 203.06 137.18 C 201.80 140.44 202.04 144.05 201.53 147.46 C 199.24 143.44 197.80 139.01 197.03 134.46 C 196.84 131.90 196.57 129.35 196.30 126.81 C 196.25 126.27 196.15 125.20 196.09 124.67 C 195.17 125.11 194.25 125.57 193.35 126.06 C 194.58 124.21 196.26 122.35 196.27 120.02 C 196.09 112.43 194.55 104.97 193.64 97.45 C 193.72 95.34 193.94 93.24 194.12 91.14 C 192.42 91.04 190.72 90.94 189.02 90.84 C 191.00 89.22 193.05 87.67 195.14 86.19 C 195.00 83.71 194.46 81.28 193.56 78.96 C 192.12 80.20 190.69 81.44 189.27 82.70 C 189.66 81.43 190.05 80.17 190.45 78.91 C 188.79 77.28 187.12 75.64 185.46 74.01 C 187.36 72.08 189.75 70.85 192.35 70.14 C 191.65 69.39 190.96 68.65 190.27 67.91 C 189.96 67.56 189.33 66.87 189.01 66.53 C 188.66 65.11 188.33 63.68 187.85 62.30 C 186.88 61.08 185.86 59.92 184.82 58.78 C 185.96 57.61 187.11 56.45 188.25 55.28 C 189.51 58.81 190.24 62.60 192.22 65.83 C 194.89 68.93 199.20 69.63 202.89 70.90 C 208.37 66.32 208.89 58.69 208.39 52.07 C 207.58 47.07 205.44 42.13 206.65 37.00 C 207.61 32.70 207.48 27.18 211.58 24.49 C 220.12 18.79 226.00 9.66 229.13 0.00 Z" />
<path fill="#9c5701" opacity="1.00" d=" M 178.75 15.86 C 181.73 11.64 183.25 6.48 187.03 2.80 C 184.49 9.05 182.07 15.35 179.17 21.44 C 176.89 26.67 173.44 32.55 176.25 38.26 C 172.23 43.18 169.35 49.46 171.48 55.87 C 171.45 56.18 171.39 56.79 171.36 57.10 C 170.90 56.10 170.45 55.10 170.00 54.10 C 170.57 50.83 169.97 47.58 168.50 44.63 C 168.20 42.83 167.96 41.01 167.34 39.29 C 169.49 39.87 169.44 36.48 167.41 36.66 C 169.30 29.73 172.81 23.40 175.04 16.58 C 176.37 16.91 177.96 17.38 178.75 15.86 Z" />
<path fill="#9c5701" opacity="1.00" d=" M 106.21 41.91 C 107.60 37.71 111.81 35.68 115.42 33.72 C 114.81 41.52 113.27 49.25 110.27 56.49 C 111.46 56.89 112.65 57.29 113.84 57.69 C 111.81 62.12 107.64 65.71 107.89 70.95 C 108.47 70.63 109.64 69.99 110.22 69.67 C 110.44 73.88 109.07 77.92 108.19 81.98 C 109.56 82.69 110.94 83.41 112.26 84.23 C 109.28 83.67 106.32 82.90 103.60 81.52 C 104.87 81.04 106.15 80.56 107.42 80.09 C 108.03 73.62 106.31 67.35 103.55 61.56 C 100.47 55.02 103.89 48.08 106.21 41.91 Z" />
<path fill="#9c5701" opacity="1.00" d=" M 174.77 56.84 C 178.85 61.33 171.39 68.30 177.67 71.85 C 177.42 72.42 177.18 73.00 176.94 73.58 C 173.73 72.58 170.49 71.51 167.11 71.30 C 170.39 66.81 170.37 60.62 174.77 56.84 Z" />
<path fill="#9c5701" opacity="1.00" d=" M 166.60 75.02 C 168.10 74.82 169.61 74.68 171.12 74.53 C 170.72 76.48 170.32 78.44 169.87 80.37 C 169.05 83.87 167.94 87.30 166.84 90.72 C 163.74 95.26 160.16 99.45 156.98 103.93 C 153.90 108.11 154.13 113.59 151.99 118.18 C 150.52 121.32 148.60 124.21 146.89 127.22 C 145.08 123.32 145.32 119.06 146.94 115.15 C 149.10 110.27 143.80 104.66 148.26 100.55 C 147.97 102.39 147.71 104.23 147.44 106.07 C 149.61 99.71 151.94 93.40 154.73 87.27 C 157.81 88.40 161.22 88.10 164.29 87.14 C 167.69 84.14 167.02 79.07 166.60 75.02 Z" />
<path fill="#9c5701" opacity="1.00" d=" M 34.17 146.67 C 37.79 147.33 40.32 145.03 41.73 141.92 C 41.53 143.16 41.84 144.25 42.65 145.19 C 40.40 149.88 39.58 155.08 39.17 160.21 C 38.68 165.01 38.56 169.84 37.69 174.59 C 36.59 174.63 35.49 174.67 34.39 174.72 C 33.67 168.42 33.35 162.08 33.33 155.74 C 33.39 152.70 33.75 149.68 34.17 146.67 Z" />
<path fill="#9c5701" opacity="1.00" d=" M 111.46 228.70 C 113.54 221.73 110.27 213.68 114.45 207.18 C 114.56 217.70 113.69 228.20 113.51 238.73 C 113.50 242.18 111.11 243.97 107.79 243.83 C 107.70 241.94 107.60 240.07 107.51 238.19 C 107.41 234.51 109.39 231.52 111.46 228.70 Z" />
</g>
<g id="#b86e07ff">
<path fill="#b86e07" opacity="1.00" d=" M 235.31 0.00 L 252.18 0.00 C 252.94 9.78 256.64 19.14 256.20 29.03 C 256.41 32.21 254.72 34.99 253.26 37.67 C 252.19 37.32 251.13 36.96 250.08 36.61 C 248.05 41.83 246.09 47.08 244.36 52.40 C 242.93 57.04 239.25 60.40 237.04 64.62 C 233.80 71.28 229.17 77.11 225.45 83.49 C 223.26 87.07 218.85 86.60 216.29 83.74 C 214.59 85.92 212.77 88.01 210.83 89.98 C 208.95 85.84 207.73 81.07 209.78 76.74 C 214.92 64.10 214.44 49.64 209.98 36.91 C 209.12 30.67 213.64 25.42 218.93 22.80 C 219.88 24.24 220.83 25.69 221.78 27.14 C 224.09 24.94 226.19 22.43 227.12 19.33 C 229.31 12.65 233.03 6.64 235.31 0.00 Z" />
<path fill="#b86e07" opacity="1.00" d=" M 258.26 35.49 C 260.62 33.76 262.96 31.99 265.00 29.89 L 265.00 64.96 C 258.98 62.19 259.48 55.28 259.23 49.70 C 256.16 52.68 254.31 56.56 252.74 60.48 C 250.43 66.19 246.37 70.89 243.18 76.09 C 235.91 90.03 230.92 105.08 227.87 120.49 C 227.31 125.13 227.73 129.87 226.58 134.45 C 225.08 140.34 225.86 146.50 224.45 152.40 C 223.11 157.90 223.95 163.66 222.51 169.14 C 221.22 174.32 220.50 179.65 220.53 185.00 C 220.88 194.48 217.82 203.61 217.38 213.04 C 217.52 215.95 215.17 217.67 213.08 219.20 C 211.62 217.16 210.15 215.13 208.69 213.10 C 208.71 215.07 208.71 217.05 208.80 219.03 C 208.09 214.08 207.38 209.12 206.82 204.15 C 206.85 203.42 206.90 201.98 206.92 201.26 C 208.13 202.40 209.32 203.56 210.51 204.72 C 216.50 199.68 217.76 191.41 217.84 184.01 C 217.85 175.01 220.92 166.36 220.83 157.36 C 222.17 139.63 224.98 121.96 229.51 104.76 C 233.64 93.37 235.39 80.83 242.61 70.80 C 249.78 60.04 257.94 48.99 258.26 35.49 Z" />
<path fill="#b86e07" opacity="1.00" d=" M 187.85 62.30 C 188.33 63.68 188.66 65.11 189.01 66.53 C 189.33 66.87 189.96 67.56 190.27 67.91 C 187.63 68.70 184.79 69.08 182.38 70.48 C 180.62 72.10 180.83 74.87 180.14 76.99 C 181.98 76.13 183.89 75.33 185.46 74.01 C 187.12 75.64 188.79 77.28 190.45 78.91 C 190.05 80.17 189.66 81.43 189.27 82.70 C 190.69 81.44 192.12 80.20 193.56 78.96 C 194.46 81.28 195.00 83.71 195.14 86.19 C 194.62 85.56 193.57 84.28 193.04 83.65 C 189.36 85.36 185.75 87.37 182.99 90.42 C 185.07 93.48 185.27 97.08 184.26 100.56 C 182.95 100.28 181.64 100.01 180.33 99.74 C 181.04 99.04 181.76 98.35 182.49 97.68 C 182.05 95.92 181.60 94.16 181.15 92.41 C 179.49 94.28 177.83 96.15 176.14 98.01 C 177.13 90.89 180.82 84.23 179.98 76.88 C 176.45 77.51 173.01 78.61 169.87 80.37 C 170.32 78.44 170.72 76.48 171.12 74.53 C 169.61 74.68 168.10 74.82 166.60 75.02 C 165.61 75.16 164.62 75.31 163.63 75.47 C 163.43 74.01 163.22 72.56 163.01 71.11 C 164.37 71.16 165.74 71.22 167.11 71.30 C 170.49 71.51 173.73 72.58 176.94 73.58 C 177.18 73.00 177.42 72.42 177.67 71.85 C 178.55 69.80 179.48 67.78 180.45 65.78 C 182.98 64.77 185.46 63.62 187.85 62.30 Z" />
</g>
<g id="#cf9532ff">
<path fill="#cf9532" opacity="1.00" d=" M 124.43 8.26 C 126.60 5.68 127.17 1.81 130.59 0.39 C 129.99 2.36 129.32 4.30 128.63 6.23 C 129.50 7.43 130.38 8.62 131.25 9.81 C 129.85 10.66 128.45 11.50 127.04 12.34 C 126.17 10.98 125.30 9.62 124.43 8.26 Z" />
<path fill="#cf9532" opacity="1.00" d=" M 24.70 41.17 C 24.76 34.10 24.88 26.62 28.45 20.29 C 30.48 23.15 32.65 25.92 35.10 28.44 C 31.99 32.54 30.46 37.47 30.81 42.64 C 30.02 42.92 28.45 43.49 27.67 43.77 C 27.79 41.34 27.85 38.90 27.92 36.47 C 26.85 38.04 25.78 39.61 24.70 41.17 Z" />
<path fill="#cf9532" opacity="1.00" d=" M 166.95 38.44 C 167.07 38.00 167.29 37.11 167.41 36.66 C 169.44 36.48 169.49 39.87 167.34 39.29 L 166.95 38.44 Z" />
<path fill="#cf9532" opacity="1.00" d=" M 134.17 40.32 C 135.80 40.06 137.43 39.79 139.05 39.51 C 139.74 40.71 140.44 41.90 141.13 43.10 C 138.58 44.10 135.98 44.96 133.35 45.73 C 133.61 43.92 133.90 42.12 134.17 40.32 Z" />
<path fill="#cf9532" opacity="1.00" d=" M 121.01 43.33 C 121.67 43.12 122.99 42.69 123.65 42.47 C 120.00 50.62 116.09 58.69 111.18 66.16 C 110.42 67.18 110.22 68.43 110.22 69.67 C 109.64 69.99 108.47 70.63 107.89 70.95 C 107.64 65.71 111.81 62.12 113.84 57.69 C 116.21 52.89 118.59 48.10 121.01 43.33 Z" />
<path fill="#cf9532" opacity="1.00" d=" M 132.47 49.84 C 134.57 48.78 136.64 47.66 138.78 46.68 C 139.72 46.63 141.60 46.54 142.54 46.50 C 140.83 48.78 139.08 51.14 138.54 54.01 C 137.27 55.41 135.97 56.78 134.59 58.07 C 134.09 58.28 133.08 58.70 132.57 58.91 C 132.41 57.38 132.23 55.86 132.17 54.33 C 132.24 52.83 132.36 51.34 132.47 49.84 Z" />
<path fill="#cf9532" opacity="1.00" d=" M 252.74 60.48 C 254.31 56.56 256.16 52.68 259.23 49.70 C 259.48 55.28 258.98 62.19 265.00 64.96 L 265.00 108.03 C 262.77 99.23 263.02 90.00 260.29 81.30 C 253.06 90.20 247.33 100.26 242.64 110.68 C 237.71 118.77 231.50 126.63 230.37 136.35 C 228.88 146.26 224.97 155.86 225.72 166.03 C 224.86 177.08 223.88 188.14 222.63 199.17 C 222.24 209.91 222.16 220.67 222.61 231.40 C 218.24 234.34 212.97 231.50 210.21 227.76 C 209.30 224.94 209.18 221.95 208.80 219.03 C 208.71 217.05 208.71 215.07 208.69 213.10 C 210.15 215.13 211.62 217.16 213.08 219.20 C 215.17 217.67 217.52 215.95 217.38 213.04 C 217.82 203.61 220.88 194.48 220.53 185.00 C 220.50 179.65 221.22 174.32 222.51 169.14 C 223.95 163.66 223.11 157.90 224.45 152.40 C 225.86 146.50 225.08 140.34 226.58 134.45 C 227.73 129.87 227.31 125.13 227.87 120.49 C 230.92 105.08 235.91 90.03 243.18 76.09 C 246.37 70.89 250.43 66.19 252.74 60.48 Z" />
<path fill="#cf9532" opacity="1.00" d=" M 147.79 54.50 C 148.50 54.15 149.92 53.44 150.62 53.09 C 150.42 55.46 150.16 57.83 149.88 60.19 C 149.12 59.09 148.28 58.06 147.36 57.10 C 147.47 56.45 147.68 55.15 147.79 54.50 Z" />
<path fill="#cf9532" opacity="1.00" d=" M 16.80 54.54 C 17.77 55.77 18.88 56.88 19.98 57.99 C 18.20 59.76 16.50 61.58 14.82 63.44 C 13.53 63.07 12.25 62.70 10.97 62.33 C 12.28 59.32 14.01 56.41 16.80 54.54 Z" />
<path fill="#cf9532" opacity="1.00" d=" M 27.03 67.40 C 28.95 63.33 30.19 58.94 32.57 55.08 C 32.70 56.89 32.79 58.71 32.83 60.52 C 32.78 61.25 32.68 62.70 32.63 63.42 C 31.10 65.18 29.04 66.30 27.03 67.40 Z" />
<path fill="#cf9532" opacity="1.00" d=" M 162.24 57.07 C 161.31 67.46 158.35 77.54 154.73 87.27 C 151.94 93.40 149.61 99.71 147.44 106.07 C 147.71 104.23 147.97 102.39 148.26 100.55 C 148.31 100.27 148.41 99.71 148.46 99.43 C 152.00 91.06 156.02 82.81 158.15 73.93 C 159.02 71.51 157.53 69.24 156.68 67.06 C 158.90 63.95 160.69 60.56 162.24 57.07 Z" />
<path fill="#cf9532" opacity="1.00" d=" M 145.82 62.83 C 146.04 62.28 146.47 61.19 146.69 60.64 C 147.70 62.03 148.71 63.42 149.86 64.70 C 148.75 64.89 146.52 65.26 145.41 65.44 C 145.51 64.79 145.72 63.48 145.82 62.83 Z" />
<path fill="#cf9532" opacity="1.00" d=" M 182.38 70.48 C 184.79 69.08 187.63 68.70 190.27 67.91 C 190.96 68.65 191.65 69.39 192.35 70.14 C 189.75 70.85 187.36 72.08 185.46 74.01 C 183.89 75.33 181.98 76.13 180.14 76.99 C 180.83 74.87 180.62 72.10 182.38 70.48 Z" />
<path fill="#cf9532" opacity="1.00" d=" M 66.94 73.22 C 68.70 72.48 70.42 71.66 72.15 70.86 C 69.77 75.30 67.29 79.73 65.69 84.52 L 65.15 86.29 C 63.78 85.94 62.41 85.57 61.05 85.20 C 60.21 82.02 59.27 78.86 58.17 75.76 C 61.09 74.90 64.10 74.35 66.94 73.22 Z" />
<path fill="#cf9532" opacity="1.00" d=" M 169.87 80.37 C 173.01 78.61 176.45 77.51 179.98 76.88 C 180.82 84.23 177.13 90.89 176.14 98.01 C 177.83 96.15 179.49 94.28 181.15 92.41 C 181.60 94.16 182.05 95.92 182.49 97.68 C 181.76 98.35 181.04 99.04 180.33 99.74 C 179.50 100.90 178.74 102.11 177.98 103.33 C 175.84 103.57 173.71 103.79 171.58 104.02 C 171.69 102.42 171.82 100.82 171.96 99.22 C 170.53 101.69 168.78 103.97 166.63 105.86 C 165.35 99.37 170.60 95.38 175.62 92.74 C 175.58 90.09 175.53 87.45 175.49 84.81 C 174.92 86.53 174.35 88.25 173.77 89.96 C 171.09 90.96 168.71 92.56 166.44 94.27 C 166.54 93.38 166.74 91.60 166.84 90.72 C 167.94 87.30 169.05 83.87 169.87 80.37 Z" />
<path fill="#cf9532" opacity="1.00" d=" M 182.99 90.42 C 185.75 87.37 189.36 85.36 193.04 83.65 C 193.57 84.28 194.62 85.56 195.14 86.19 C 193.05 87.67 191.00 89.22 189.02 90.84 L 188.47 91.27 C 188.49 93.57 188.28 95.88 187.60 98.08 C 186.23 104.08 189.22 110.53 186.29 116.31 C 184.58 111.27 182.86 105.91 184.26 100.56 C 185.27 97.08 185.07 93.48 182.99 90.42 Z" />
<path fill="#cf9532" opacity="1.00" d=" M 121.10 112.15 C 122.54 113.07 123.96 114.02 125.37 115.00 C 123.98 115.61 122.61 116.22 121.23 116.84 C 121.20 115.67 121.13 113.33 121.10 112.15 Z" />
<path fill="#cf9532" opacity="1.00" d=" M 79.33 125.77 C 79.88 125.95 80.96 126.33 81.50 126.51 C 81.70 127.03 82.11 128.07 82.31 128.58 C 81.12 129.37 79.94 130.16 78.76 130.95 C 78.37 130.17 77.59 128.61 77.20 127.83 C 77.74 127.31 78.80 126.28 79.33 125.77 Z" />
<path fill="#cf9532" opacity="1.00" d=" M 86.68 131.82 C 87.52 131.80 89.20 131.77 90.04 131.75 C 90.33 132.98 90.61 134.21 90.88 135.45 C 89.78 135.39 87.59 135.26 86.49 135.20 C 86.54 134.35 86.63 132.66 86.68 131.82 Z" />
<path fill="#cf9532" opacity="1.00" d=" M 28.17 138.47 C 29.37 139.63 30.56 140.78 31.74 141.96 C 28.15 143.08 24.55 144.25 21.47 146.49 C 21.90 144.57 22.33 142.66 22.81 140.75 C 23.38 140.96 24.51 141.39 25.08 141.60 C 26.13 140.58 27.14 139.51 28.17 138.47 Z" />
<path fill="#cf9532" opacity="1.00" d=" M 42.19 141.18 C 42.77 141.44 43.94 141.95 44.52 142.21 C 43.94 143.23 43.31 144.22 42.65 145.19 C 41.84 144.25 41.53 143.16 41.73 141.92 L 42.19 141.18 Z" />
<path fill="#cf9532" opacity="1.00" d=" M 19.09 144.79 C 21.71 146.61 24.18 148.84 24.35 152.27 C 22.48 151.14 20.61 149.99 18.78 148.79 C 18.58 148.62 18.18 148.29 17.99 148.12 C 18.35 147.01 18.72 145.90 19.09 144.79 Z" />
<path fill="#cf9532" opacity="1.00" d=" M 55.21 145.66 C 56.65 145.30 56.91 147.75 55.79 148.27 C 54.35 148.63 54.09 146.18 55.21 145.66 Z" />
<path fill="#cf9532" opacity="1.00" d=" M 88.68 156.14 C 89.62 157.60 91.32 159.92 89.39 161.34 C 88.69 161.69 87.28 162.40 86.58 162.76 C 86.55 161.23 86.55 159.71 86.58 158.19 C 87.11 157.68 88.15 156.65 88.68 156.14 Z" />
<path fill="#cf9532" opacity="1.00" d=" M 120.94 160.98 C 121.54 160.80 122.13 160.61 122.73 160.43 C 118.87 171.37 117.20 182.88 113.37 193.85 C 111.84 189.22 114.08 184.62 115.23 180.18 C 117.31 173.83 118.78 167.30 120.94 160.98 Z" />
<path fill="#cf9532" opacity="1.00" d=" M 115.35 200.50 C 118.72 190.12 119.93 179.16 122.66 168.59 C 122.56 171.76 122.47 174.94 122.08 178.09 C 121.00 185.45 120.01 192.86 117.91 200.01 C 117.68 201.04 117.48 202.08 117.31 203.13 C 116.65 202.84 115.32 202.26 114.66 201.96 C 114.83 201.60 115.17 200.87 115.35 200.50 Z" />
<path fill="#cf9532" opacity="1.00" d=" M 102.39 175.52 C 103.88 175.57 103.53 178.01 102.17 177.99 C 100.67 177.93 101.04 175.50 102.39 175.52 Z" />
</g>
<g id="#201001ff">
</g>
</svg>
