<?xml version="1.0" encoding="UTF-8" ?>
<!DOCTYPE svg PUBLIC "-//W3C//DTD SVG 1.1//EN" "http://www.w3.org/Graphics/SVG/1.1/DTD/svg11.dtd">
<svg width="650pt" height="650pt" viewBox="0 0 650 650" version="1.1" xmlns="http://www.w3.org/2000/svg">
<path fill="#355b93" stroke="#355b93" stroke-width="0.09375" opacity="1.00" d=" M 269.99 29.43 C 285.00 25.90 300.57 24.56 316.00 25.00 C 336.36 25.19 357.02 23.77 377.01 28.48 C 377.80 29.15 378.70 29.38 379.72 29.18 C 380.30 29.23 381.46 29.34 382.04 29.40 C 382.82 30.09 383.71 30.34 384.73 30.14 C 385.31 30.20 386.45 30.32 387.03 30.38 C 387.79 31.09 388.69 31.37 389.71 31.22 C 397.97 31.99 406.08 34.63 413.95 37.20 C 414.43 37.42 415.38 37.86 415.86 38.08 C 419.38 38.38 422.78 39.67 425.96 41.17 C 426.43 41.40 427.37 41.86 427.84 42.10 L 428.96 42.12 C 429.41 42.38 430.31 42.91 430.76 43.18 C 432.93 43.27 435.10 44.04 436.90 45.26 C 437.36 45.50 438.30 45.99 438.76 46.23 C 453.52 51.32 467.72 58.76 480.94 67.07 C 481.37 67.37 482.23 67.98 482.66 68.29 C 489.53 71.63 496.04 76.20 501.99 80.99 C 502.41 81.32 503.24 81.97 503.65 82.30 C 506.10 83.25 508.26 84.98 509.98 86.96 C 510.39 87.30 511.19 87.98 511.59 88.32 C 527.16 99.74 541.52 113.43 553.68 128.43 C 554.03 128.82 554.73 129.61 555.08 130.01 C 556.62 131.10 558.08 132.59 558.68 134.41 C 559.03 134.81 559.72 135.61 560.06 136.01 C 561.29 136.75 562.34 137.98 562.69 139.40 C 563.03 139.80 563.70 140.61 564.04 141.02 C 566.01 142.73 567.74 144.90 568.70 147.35 C 569.02 147.76 569.67 148.59 570.00 149.01 C 571.66 150.37 573.03 152.25 573.63 154.33 C 573.94 154.76 574.57 155.60 574.88 156.02 C 576.39 156.92 577.33 158.63 577.64 160.32 C 577.95 160.75 578.57 161.60 578.88 162.02 C 580.69 163.68 582.02 165.98 582.71 168.35 C 583.02 168.77 583.63 169.63 583.93 170.06 C 592.24 183.29 599.68 197.48 604.77 212.24 C 605.01 212.70 605.49 213.63 605.74 214.10 C 606.96 215.90 607.72 218.06 607.82 220.24 C 608.09 220.69 608.62 221.59 608.89 222.04 L 608.91 223.16 C 609.14 223.63 609.60 224.57 609.84 225.04 C 611.33 228.21 612.61 231.62 612.93 235.14 C 613.14 235.62 613.58 236.57 613.80 237.05 C 616.36 244.92 619.01 253.03 619.79 261.29 C 619.62 262.31 619.90 263.20 620.62 263.97 C 620.68 264.55 620.80 265.69 620.86 266.27 C 620.65 267.28 620.89 268.18 621.57 268.99 C 627.89 295.47 623.86 323.03 625.00 350.00 C 625.33 360.42 624.14 370.94 621.57 381.01 C 620.89 381.81 620.65 382.71 620.86 383.73 C 620.80 384.31 620.68 385.45 620.62 386.03 C 619.90 386.79 619.62 387.68 619.78 388.71 C 619.01 396.97 616.37 405.08 613.80 412.95 C 613.58 413.43 613.14 414.38 612.92 414.86 C 612.63 418.38 611.34 421.79 609.85 424.96 C 609.61 425.43 609.13 426.36 608.89 426.83 C 608.83 428.22 608.70 429.83 607.67 430.90 C 607.43 431.37 606.97 432.31 606.74 432.78 C 606.86 433.99 606.54 435.03 605.77 435.90 C 605.52 436.37 605.02 437.29 604.77 437.75 C 599.68 452.51 592.26 466.73 583.92 479.93 C 583.62 480.37 583.03 481.24 582.74 481.67 C 582.61 482.94 581.95 484.30 580.78 484.92 C 580.50 485.36 579.94 486.25 579.66 486.69 C 579.48 487.02 579.10 487.69 578.92 488.02 C 578.59 488.43 577.95 489.25 577.63 489.66 C 576.70 492.40 574.93 494.92 572.89 496.95 C 572.57 497.36 571.93 498.19 571.61 498.61 C 571.52 499.71 570.99 500.51 570.02 501.00 C 569.69 501.41 569.02 502.24 568.69 502.65 C 567.75 505.10 566.01 507.26 564.04 508.99 C 563.70 509.39 563.02 510.20 562.68 510.60 C 544.56 534.74 521.91 556.07 496.66 572.61 C 496.24 572.93 495.40 573.57 494.98 573.88 C 494.07 575.38 492.36 576.33 490.67 576.63 C 490.25 576.94 489.43 577.58 489.02 577.90 C 488.69 578.09 488.02 578.47 487.69 578.67 C 487.25 578.94 486.36 579.50 485.92 579.78 C 485.30 580.95 483.94 581.61 482.67 581.74 C 482.24 582.03 481.37 582.62 480.93 582.91 C 467.73 591.26 453.50 598.67 438.75 603.77 C 438.29 604.02 437.36 604.52 436.90 604.77 C 436.04 605.55 435.00 605.87 433.78 605.74 C 433.31 605.97 432.37 606.44 431.90 606.67 C 430.83 607.70 429.23 607.83 427.83 607.89 C 427.36 608.13 426.43 608.61 425.97 608.85 C 421.77 610.62 417.38 612.35 412.84 612.85 C 412.36 613.07 411.40 613.49 410.92 613.71 C 404.04 615.91 396.94 618.22 389.71 618.78 C 388.69 618.62 387.79 618.90 387.03 619.62 C 386.45 619.68 385.31 619.80 384.73 619.86 C 383.71 619.65 382.81 619.89 382.01 620.57 C 367.00 624.10 351.43 625.44 336.00 625.00 C 315.63 624.81 294.98 626.23 274.99 621.52 C 274.19 620.84 273.28 620.60 272.28 620.82 C 271.70 620.76 270.54 620.66 269.96 620.60 C 269.17 619.90 268.27 619.65 267.26 619.86 C 266.69 619.80 265.55 619.68 264.98 619.62 C 264.20 618.90 263.31 618.63 262.29 618.79 C 254.03 618.00 245.92 615.37 238.04 612.80 C 237.57 612.58 236.62 612.14 236.14 611.92 C 232.62 611.62 229.22 610.32 226.04 608.85 C 225.57 608.61 224.64 608.13 224.17 607.89 C 222.76 607.84 221.17 607.70 220.11 606.67 C 219.64 606.44 218.70 605.98 218.22 605.74 C 217.00 605.87 215.96 605.54 215.09 604.76 C 214.63 604.52 213.71 604.02 213.24 603.77 C 198.49 598.68 184.28 591.25 171.06 582.93 C 170.63 582.62 169.77 582.02 169.34 581.71 C 166.99 581.00 164.62 579.71 163.04 577.83 C 162.60 577.55 161.72 576.98 161.28 576.69 C 160.95 576.50 160.30 576.12 159.97 575.93 C 159.56 575.61 158.74 574.96 158.33 574.64 C 129.12 555.92 103.27 531.02 83.31 502.65 C 82.98 502.24 82.31 501.41 81.98 501.00 C 81.00 500.51 80.47 499.72 80.40 498.61 C 80.08 498.20 79.45 497.36 79.13 496.95 C 76.42 493.93 73.97 490.39 72.38 486.65 C 72.07 486.22 71.47 485.36 71.17 484.93 C 70.05 484.25 69.38 482.94 69.26 481.67 C 68.97 481.24 68.37 480.37 68.08 479.94 C 59.75 466.72 52.32 452.51 47.23 437.75 C 46.98 437.29 46.48 436.36 46.24 435.90 C 45.45 435.03 45.12 433.99 45.26 432.78 C 45.02 432.30 44.56 431.36 44.33 430.89 C 43.30 429.82 43.15 428.22 43.11 426.83 C 42.87 426.36 42.39 425.43 42.15 424.96 C 40.65 421.79 39.36 418.38 39.08 414.86 C 38.86 414.38 38.42 413.43 38.20 412.96 C 35.63 405.09 32.99 396.97 32.22 388.71 C 32.37 387.69 32.09 386.79 31.39 386.03 C 31.33 385.45 31.20 384.31 31.14 383.73 C 31.34 382.71 31.10 381.81 30.43 381.02 C 23.01 344.28 23.01 305.72 30.43 268.98 C 31.10 268.18 31.34 267.27 31.14 266.27 C 31.20 265.69 31.32 264.55 31.38 263.97 C 32.09 263.20 32.37 262.31 32.21 261.29 C 32.99 253.03 35.63 244.91 38.20 237.04 C 38.42 236.57 38.86 235.61 39.08 235.14 C 39.38 231.62 40.67 228.21 42.16 225.04 C 42.39 224.57 42.86 223.63 43.09 223.17 L 43.12 222.04 C 43.38 221.59 43.91 220.69 44.18 220.24 C 44.27 218.06 45.04 215.90 46.26 214.10 C 46.50 213.64 46.99 212.70 47.23 212.24 C 51.60 199.28 58.03 186.77 65.14 175.08 C 65.42 174.64 66.00 173.76 66.29 173.32 C 66.37 172.06 66.99 170.76 68.07 170.07 C 68.38 169.64 68.98 168.77 69.29 168.34 C 69.98 165.99 71.30 163.67 73.13 162.03 C 73.44 161.60 74.05 160.75 74.36 160.32 C 74.66 158.63 75.61 156.91 77.12 156.02 C 77.44 155.60 78.06 154.75 78.37 154.33 C 78.97 152.25 80.33 150.37 82.00 149.02 C 82.33 148.60 82.98 147.76 83.30 147.35 C 84.25 144.90 85.98 142.73 87.96 141.02 C 88.30 140.61 88.97 139.80 89.31 139.40 C 89.65 137.98 90.71 136.75 91.93 136.01 C 92.28 135.61 92.97 134.81 93.31 134.41 C 93.92 132.59 95.37 131.10 96.92 130.02 C 97.27 129.62 97.96 128.82 98.31 128.43 C 110.48 113.43 124.84 99.75 140.40 88.32 C 140.80 87.98 141.61 87.30 142.02 86.96 C 143.73 84.98 145.90 83.26 148.35 82.30 C 148.76 81.97 149.60 81.32 150.01 81.00 C 151.37 79.33 153.25 77.96 155.33 77.37 C 155.75 77.06 156.60 76.43 157.02 76.12 C 157.92 74.61 159.64 73.67 161.32 73.36 C 161.75 73.05 162.60 72.43 163.02 72.12 C 164.68 70.31 166.98 68.97 169.34 68.29 C 169.77 67.98 170.63 67.37 171.06 67.07 C 184.29 58.76 198.48 51.32 213.24 46.23 C 213.71 45.99 214.64 45.50 215.10 45.25 C 216.90 44.04 219.06 43.27 221.24 43.18 C 221.69 42.91 222.59 42.38 223.04 42.12 L 224.16 42.10 C 224.63 41.87 225.57 41.40 226.04 41.17 C 229.21 39.67 232.62 38.39 236.14 38.07 C 236.62 37.85 237.57 37.42 238.05 37.20 C 245.91 34.63 254.03 32.00 262.28 31.22 C 263.30 31.37 264.19 31.09 264.97 30.38 C 265.54 30.32 266.70 30.20 267.27 30.14 C 268.28 30.34 269.19 30.10 269.99 29.43 M 489.84 161.84 C 478.26 172.36 478.65 189.39 481.53 203.51 C 438.48 233.74 394.68 263.00 351.62 293.24 C 320.65 275.29 289.83 257.06 258.88 239.10 C 261.33 226.16 261.21 210.76 251.12 200.89 C 237.48 183.70 207.87 182.97 193.34 199.33 C 179.67 212.33 179.00 236.79 190.95 251.06 C 204.94 269.95 237.02 270.31 251.45 251.78 C 280.00 269.25 309.25 285.65 338.03 302.77 C 274.89 345.09 212.71 389.11 149.67 431.63 C 142.26 426.14 133.54 421.97 124.00 422.95 C 102.87 420.70 82.70 440.86 84.95 462.00 C 83.23 482.79 103.26 502.25 124.00 500.05 C 139.55 501.55 153.59 490.47 159.81 476.90 C 163.58 466.18 162.46 454.28 159.36 443.55 C 223.24 399.01 288.05 355.67 351.64 310.75 C 383.11 328.65 413.94 347.92 445.71 365.14 C 443.91 370.21 443.93 375.68 443.95 381.00 C 442.78 401.43 462.65 420.21 483.00 418.05 C 499.51 419.54 514.79 407.05 519.83 391.90 C 522.42 379.03 522.12 363.70 512.13 353.88 C 498.19 336.36 467.89 336.03 453.52 353.15 C 424.47 335.52 394.83 318.80 365.61 301.43 C 406.89 273.53 447.77 244.98 488.92 216.87 C 490.83 215.20 492.47 218.07 493.98 219.00 C 500.58 225.40 510.03 227.59 519.00 227.05 C 539.79 228.78 559.25 208.73 557.05 188.00 C 558.54 172.19 547.10 157.84 533.13 151.89 C 518.38 147.56 500.16 149.16 489.84 161.84 Z" />
<path fill="#364f4e" stroke="#364f4e" stroke-width="0.09375" opacity="1.00" d=" M 377.01 28.48 C 378.38 27.28 379.28 27.51 379.72 29.18 C 378.70 29.38 377.80 29.15 377.01 28.48 Z" />
<path fill="#364f4e" stroke="#364f4e" stroke-width="0.09375" opacity="1.00" d=" M 267.27 30.14 C 267.69 28.47 268.60 28.23 269.99 29.43 C 269.19 30.10 268.28 30.34 267.27 30.14 Z" />
<path fill="#364f4e" stroke="#364f4e" stroke-width="0.09375" opacity="1.00" d=" M 382.04 29.40 C 383.43 28.23 384.33 28.47 384.73 30.14 C 383.71 30.34 382.82 30.09 382.04 29.40 Z" />
<path fill="#364f4e" stroke="#364f4e" stroke-width="0.09375" opacity="1.00" d=" M 262.28 31.22 C 262.64 29.53 263.53 29.25 264.97 30.38 C 264.19 31.09 263.30 31.37 262.28 31.22 Z" />
<path fill="#364f4e" stroke="#364f4e" stroke-width="0.09375" opacity="1.00" d=" M 387.03 30.38 C 388.45 29.25 389.35 29.53 389.71 31.22 C 388.69 31.37 387.79 31.09 387.03 30.38 Z" />
<path fill="#364f4e" stroke="#364f4e" stroke-width="0.09375" opacity="1.00" d=" M 236.14 38.07 C 236.62 37.85 237.57 37.42 238.05 37.20 C 237.57 37.42 236.62 37.85 236.14 38.07 Z" />
<path fill="#364f4e" stroke="#364f4e" stroke-width="0.09375" opacity="1.00" d=" M 413.95 37.20 C 414.43 37.42 415.38 37.86 415.86 38.08 C 415.38 37.86 414.43 37.42 413.95 37.20 Z" />
<path fill="#364f4e" stroke="#364f4e" stroke-width="0.09375" opacity="1.00" d=" M 224.16 42.10 C 224.63 41.87 225.57 41.40 226.04 41.17 C 225.57 41.40 224.63 41.87 224.16 42.10 Z" />
<path fill="#364f4e" stroke="#364f4e" stroke-width="0.09375" opacity="1.00" d=" M 425.96 41.17 C 426.43 41.40 427.37 41.86 427.84 42.10 C 427.37 41.86 426.43 41.40 425.96 41.17 Z" />
<path fill="#364f4e" stroke="#364f4e" stroke-width="0.09375" opacity="1.00" d=" M 221.24 43.18 C 221.69 42.91 222.59 42.38 223.04 42.12 C 222.59 42.38 221.69 42.91 221.24 43.18 Z" />
<path fill="#364f4e" stroke="#364f4e" stroke-width="0.09375" opacity="1.00" d=" M 428.96 42.12 C 429.41 42.38 430.31 42.91 430.76 43.18 C 430.31 42.91 429.41 42.38 428.96 42.12 Z" />
<path fill="#364f4e" stroke="#364f4e" stroke-width="0.09375" opacity="1.00" d=" M 213.24 46.23 C 213.71 45.99 214.64 45.50 215.10 45.25 C 214.64 45.50 213.71 45.99 213.24 46.23 Z" />
<path fill="#364f4e" stroke="#364f4e" stroke-width="0.09375" opacity="1.00" d=" M 436.90 45.26 C 437.36 45.50 438.30 45.99 438.76 46.23 C 438.30 45.99 437.36 45.50 436.90 45.26 Z" />
<path fill="#364f4e" stroke="#364f4e" stroke-width="0.09375" opacity="1.00" d=" M 169.34 68.29 C 169.77 67.98 170.63 67.37 171.06 67.07 C 170.63 67.37 169.77 67.98 169.34 68.29 Z" />
<path fill="#364f4e" stroke="#364f4e" stroke-width="0.09375" opacity="1.00" d=" M 480.94 67.07 C 481.37 67.37 482.23 67.98 482.66 68.29 C 482.23 67.98 481.37 67.37 480.94 67.07 Z" />
<path fill="#364f4e" stroke="#364f4e" stroke-width="0.09375" opacity="1.00" d=" M 161.32 73.36 C 161.75 73.05 162.60 72.43 163.02 72.12 C 162.60 72.43 161.75 73.05 161.32 73.36 Z" />
<path fill="#364f4e" stroke="#364f4e" stroke-width="0.09375" opacity="1.00" d=" M 155.33 77.37 C 155.75 77.06 156.60 76.43 157.02 76.12 C 156.60 76.43 155.75 77.06 155.33 77.37 Z" />
<path fill="#364f4e" stroke="#364f4e" stroke-width="0.09375" opacity="1.00" d=" M 148.35 82.30 C 148.76 81.97 149.60 81.32 150.01 81.00 C 149.60 81.32 148.76 81.97 148.35 82.30 Z" />
<path fill="#364f4e" stroke="#364f4e" stroke-width="0.09375" opacity="1.00" d=" M 501.99 80.99 C 502.41 81.32 503.24 81.97 503.65 82.30 C 503.24 81.97 502.41 81.32 501.99 80.99 Z" />
<path fill="#364f4e" stroke="#364f4e" stroke-width="0.09375" opacity="1.00" d=" M 140.40 88.32 C 140.80 87.98 141.61 87.30 142.02 86.96 C 141.61 87.30 140.80 87.98 140.40 88.32 Z" />
<path fill="#364f4e" stroke="#364f4e" stroke-width="0.09375" opacity="1.00" d=" M 509.98 86.96 C 510.39 87.30 511.19 87.98 511.59 88.32 C 511.19 87.98 510.39 87.30 509.98 86.96 Z" />
<path fill="#364f4e" stroke="#364f4e" stroke-width="0.09375" opacity="1.00" d=" M 96.92 130.02 C 97.27 129.62 97.96 128.82 98.31 128.43 C 97.96 128.82 97.27 129.62 96.92 130.02 Z" />
<path fill="#364f4e" stroke="#364f4e" stroke-width="0.09375" opacity="1.00" d=" M 553.68 128.43 C 554.03 128.82 554.73 129.61 555.08 130.01 C 554.73 129.61 554.03 128.82 553.68 128.43 Z" />
<path fill="#364f4e" stroke="#364f4e" stroke-width="0.09375" opacity="1.00" d=" M 91.93 136.01 C 92.28 135.61 92.97 134.81 93.31 134.41 C 92.97 134.81 92.28 135.61 91.93 136.01 Z" />
<path fill="#364f4e" stroke="#364f4e" stroke-width="0.09375" opacity="1.00" d=" M 558.68 134.41 C 559.03 134.81 559.72 135.61 560.06 136.01 C 559.72 135.61 559.03 134.81 558.68 134.41 Z" />
<path fill="#364f4e" stroke="#364f4e" stroke-width="0.09375" opacity="1.00" d=" M 87.96 141.02 C 88.30 140.61 88.97 139.80 89.31 139.40 C 88.97 139.80 88.30 140.61 87.96 141.02 Z" />
<path fill="#364f4e" stroke="#364f4e" stroke-width="0.09375" opacity="1.00" d=" M 562.69 139.40 C 563.03 139.80 563.70 140.61 564.04 141.02 C 563.70 140.61 563.03 139.80 562.69 139.40 Z" />
<path fill="#364f4e" stroke="#364f4e" stroke-width="0.09375" opacity="1.00" d=" M 82.00 149.02 C 82.33 148.60 82.98 147.76 83.30 147.35 C 82.98 147.76 82.33 148.60 82.00 149.02 Z" />
<path fill="#364f4e" stroke="#364f4e" stroke-width="0.09375" opacity="1.00" d=" M 568.70 147.35 C 569.02 147.76 569.67 148.59 570.00 149.01 C 569.67 148.59 569.02 147.76 568.70 147.35 Z" />
<path fill="#737373" stroke="#737373" stroke-width="0.09375" opacity="1.00" d=" M 489.84 161.84 C 500.16 149.16 518.38 147.56 533.13 151.89 C 547.10 157.84 558.54 172.19 557.05 188.00 C 559.25 208.73 539.79 228.78 519.00 227.05 C 510.03 227.59 500.58 225.40 493.98 219.00 C 492.47 218.07 490.83 215.20 488.92 216.87 C 447.77 244.98 406.89 273.53 365.61 301.43 C 360.90 298.77 356.25 296.03 351.62 293.24 C 394.68 263.00 438.48 233.74 481.53 203.51 C 478.65 189.39 478.26 172.36 489.84 161.84 M 514.35 158.41 C 502.04 160.10 491.41 169.81 488.89 182.01 C 484.80 198.08 496.66 215.66 512.95 218.32 C 531.80 222.58 550.99 205.01 548.79 185.89 C 547.60 169.18 530.94 155.71 514.35 158.41 Z" />
<path fill="#364f4e" stroke="#364f4e" stroke-width="0.09375" opacity="1.00" d=" M 77.12 156.02 C 77.44 155.60 78.06 154.75 78.37 154.33 C 78.06 154.75 77.44 155.60 77.12 156.02 Z" />
<path fill="#364f4e" stroke="#364f4e" stroke-width="0.09375" opacity="1.00" d=" M 573.63 154.33 C 573.94 154.76 574.57 155.60 574.88 156.02 C 574.57 155.60 573.94 154.76 573.63 154.33 Z" />
<path fill="#dd1032" stroke="#dd1032" stroke-width="0.09375" opacity="1.00" d=" M 514.35 158.41 C 530.94 155.71 547.60 169.18 548.79 185.89 C 550.99 205.01 531.80 222.58 512.95 218.32 C 496.66 215.66 484.80 198.08 488.89 182.01 C 491.41 169.81 502.04 160.10 514.35 158.41 Z" />
<path fill="#364f4e" stroke="#364f4e" stroke-width="0.09375" opacity="1.00" d=" M 73.13 162.03 C 73.44 161.60 74.05 160.75 74.36 160.32 C 74.05 160.75 73.44 161.60 73.13 162.03 Z" />
<path fill="#364f4e" stroke="#364f4e" stroke-width="0.09375" opacity="1.00" d=" M 577.64 160.32 C 577.95 160.75 578.57 161.60 578.88 162.02 C 578.57 161.60 577.95 160.75 577.64 160.32 Z" />
<path fill="#364f4e" stroke="#364f4e" stroke-width="0.09375" opacity="1.00" d=" M 68.07 170.07 C 68.38 169.64 68.98 168.77 69.29 168.34 C 68.98 168.77 68.38 169.64 68.07 170.07 Z" />
<path fill="#364f4e" stroke="#364f4e" stroke-width="0.09375" opacity="1.00" d=" M 582.71 168.35 C 583.02 168.77 583.63 169.63 583.93 170.06 C 583.63 169.63 583.02 168.77 582.71 168.35 Z" />
<path fill="#364f4e" stroke="#364f4e" stroke-width="0.09375" opacity="1.00" d=" M 65.14 175.08 C 65.42 174.64 66.00 173.76 66.29 173.32 C 66.00 173.76 65.42 174.64 65.14 175.08 Z" />
<path fill="#737373" stroke="#737373" stroke-width="0.09375" opacity="1.00" d=" M 193.34 199.33 C 207.87 182.97 237.48 183.70 251.12 200.89 C 261.21 210.76 261.33 226.16 258.88 239.10 C 257.36 243.82 254.73 248.07 251.45 251.78 C 237.02 270.31 204.94 269.95 190.95 251.06 C 179.00 236.79 179.67 212.33 193.34 199.33 M 216.32 196.42 C 194.55 199.20 183.12 227.95 197.15 244.87 C 207.03 258.78 228.97 261.14 241.49 249.50 C 252.90 240.10 255.35 222.09 247.10 209.87 C 240.65 199.82 228.10 194.25 216.32 196.42 Z" />
<path fill="#11531a" stroke="#11531a" stroke-width="0.09375" opacity="1.00" d=" M 216.32 196.42 C 228.10 194.25 240.65 199.82 247.10 209.87 C 255.35 222.09 252.90 240.10 241.49 249.50 C 228.97 261.14 207.03 258.78 197.15 244.87 C 183.12 227.95 194.55 199.20 216.32 196.42 Z" />
<path fill="#364f4e" stroke="#364f4e" stroke-width="0.09375" opacity="1.00" d=" M 46.26 214.10 C 46.50 213.64 46.99 212.70 47.23 212.24 C 46.99 212.70 46.50 213.64 46.26 214.10 Z" />
<path fill="#364f4e" stroke="#364f4e" stroke-width="0.09375" opacity="1.00" d=" M 604.77 212.24 C 605.01 212.70 605.49 213.63 605.74 214.10 C 605.49 213.63 605.01 212.70 604.77 212.24 Z" />
<path fill="#364f4e" stroke="#364f4e" stroke-width="0.09375" opacity="1.00" d=" M 43.12 222.04 C 43.38 221.59 43.91 220.69 44.18 220.24 C 43.91 220.69 43.38 221.59 43.12 222.04 Z" />
<path fill="#364f4e" stroke="#364f4e" stroke-width="0.09375" opacity="1.00" d=" M 607.82 220.24 C 608.09 220.69 608.62 221.59 608.89 222.04 C 608.62 221.59 608.09 220.69 607.82 220.24 Z" />
<path fill="#364f4e" stroke="#364f4e" stroke-width="0.09375" opacity="1.00" d=" M 42.16 225.04 C 42.39 224.57 42.86 223.63 43.09 223.17 C 42.86 223.63 42.39 224.57 42.16 225.04 Z" />
<path fill="#364f4e" stroke="#364f4e" stroke-width="0.09375" opacity="1.00" d=" M 608.91 223.16 C 609.14 223.63 609.60 224.57 609.84 225.04 C 609.60 224.57 609.14 223.63 608.91 223.16 Z" />
<path fill="#364f4e" stroke="#364f4e" stroke-width="0.09375" opacity="1.00" d=" M 38.20 237.04 C 38.42 236.57 38.86 235.61 39.08 235.14 C 38.86 235.61 38.42 236.57 38.20 237.04 Z" />
<path fill="#364f4e" stroke="#364f4e" stroke-width="0.09375" opacity="1.00" d=" M 612.93 235.14 C 613.14 235.62 613.58 236.57 613.80 237.05 C 613.58 236.57 613.14 235.62 612.93 235.14 Z" />
<path fill="#242424" stroke="#242424" stroke-width="0.09375" opacity="1.00" d=" M 258.88 239.10 C 289.83 257.06 320.65 275.29 351.62 293.24 C 356.25 296.03 360.90 298.77 365.61 301.43 C 394.83 318.80 424.47 335.52 453.52 353.15 C 450.23 356.65 447.50 360.66 445.71 365.14 C 413.94 347.92 383.11 328.65 351.64 310.75 C 347.13 308.05 342.62 305.34 338.03 302.77 C 309.25 285.65 280.00 269.25 251.45 251.78 C 254.73 248.07 257.36 243.82 258.88 239.10 Z" />
<path fill="#364f4e" stroke="#364f4e" stroke-width="0.09375" opacity="1.00" d=" M 31.38 263.97 C 30.25 262.54 30.53 261.64 32.21 261.29 C 32.37 262.31 32.09 263.20 31.38 263.97 Z" />
<path fill="#364f4e" stroke="#364f4e" stroke-width="0.09375" opacity="1.00" d=" M 619.79 261.29 C 621.46 261.65 621.74 262.54 620.62 263.97 C 619.90 263.20 619.62 262.31 619.79 261.29 Z" />
<path fill="#364f4e" stroke="#364f4e" stroke-width="0.09375" opacity="1.00" d=" M 30.43 268.98 C 29.23 267.60 29.47 266.69 31.14 266.27 C 31.34 267.27 31.10 268.18 30.43 268.98 Z" />
<path fill="#364f4e" stroke="#364f4e" stroke-width="0.09375" opacity="1.00" d=" M 620.86 266.27 C 622.52 266.69 622.76 267.60 621.57 268.99 C 620.89 268.18 620.65 267.28 620.86 266.27 Z" />
<path fill="#737373" stroke="#737373" stroke-width="0.09375" opacity="1.00" d=" M 149.67 431.63 C 212.71 389.11 274.89 345.09 338.03 302.77 C 342.62 305.34 347.13 308.05 351.64 310.75 C 288.05 355.67 223.24 399.01 159.36 443.55 C 162.46 454.28 163.58 466.18 159.81 476.90 C 153.59 490.47 139.55 501.55 124.00 500.05 C 103.26 502.25 83.23 482.79 84.95 462.00 C 82.70 440.86 102.87 420.70 124.00 422.95 C 133.54 421.97 142.26 426.14 149.67 431.63 M 118.33 431.43 C 103.52 433.63 91.89 448.08 93.07 463.05 C 93.37 479.34 108.79 493.27 125.04 491.93 C 141.74 491.65 155.82 475.49 153.87 458.90 C 152.99 441.64 135.26 428.01 118.33 431.43 Z" />
<path fill="#737373" stroke="#737373" stroke-width="0.09375" opacity="1.00" d=" M 453.52 353.15 C 467.89 336.03 498.19 336.36 512.13 353.88 C 522.12 363.70 522.42 379.03 519.83 391.90 C 514.79 407.05 499.51 419.54 483.00 418.05 C 462.65 420.21 442.78 401.43 443.95 381.00 C 443.93 375.68 443.91 370.21 445.71 365.14 C 447.50 360.66 450.23 356.65 453.52 353.15 M 477.32 349.42 C 455.56 352.20 444.11 380.94 458.15 397.87 C 468.03 411.78 489.97 414.13 502.49 402.51 C 514.28 392.80 516.46 373.92 507.30 361.72 C 500.68 352.36 488.63 347.36 477.32 349.42 Z" />
<path fill="#11531a" stroke="#11531a" stroke-width="0.09375" opacity="1.00" d=" M 477.32 349.42 C 488.63 347.36 500.68 352.36 507.30 361.72 C 516.46 373.92 514.28 392.80 502.49 402.51 C 489.97 414.13 468.03 411.78 458.15 397.87 C 444.11 380.94 455.56 352.20 477.32 349.42 Z" />
<path fill="#364f4e" stroke="#364f4e" stroke-width="0.09375" opacity="1.00" d=" M 30.43 381.02 C 31.10 381.81 31.34 382.71 31.14 383.73 C 29.47 383.30 29.23 382.39 30.43 381.02 Z" />
<path fill="#364f4e" stroke="#364f4e" stroke-width="0.09375" opacity="1.00" d=" M 620.86 383.73 C 620.65 382.71 620.89 381.81 621.57 381.01 C 622.76 382.39 622.52 383.30 620.86 383.73 Z" />
<path fill="#364f4e" stroke="#364f4e" stroke-width="0.09375" opacity="1.00" d=" M 31.39 386.03 C 32.09 386.79 32.37 387.69 32.22 388.71 C 30.53 388.35 30.25 387.45 31.39 386.03 Z" />
<path fill="#364f4e" stroke="#364f4e" stroke-width="0.09375" opacity="1.00" d=" M 619.78 388.71 C 619.62 387.68 619.90 386.79 620.62 386.03 C 621.74 387.46 621.46 388.35 619.78 388.71 Z" />
<path fill="#364f4e" stroke="#364f4e" stroke-width="0.09375" opacity="1.00" d=" M 38.20 412.96 C 38.42 413.43 38.86 414.38 39.08 414.86 C 38.86 414.38 38.42 413.43 38.20 412.96 Z" />
<path fill="#364f4e" stroke="#364f4e" stroke-width="0.09375" opacity="1.00" d=" M 612.92 414.86 C 613.14 414.38 613.58 413.43 613.80 412.95 C 613.58 413.43 613.14 414.38 612.92 414.86 Z" />
<path fill="#364f4e" stroke="#364f4e" stroke-width="0.09375" opacity="1.00" d=" M 42.15 424.96 C 42.39 425.43 42.87 426.36 43.11 426.83 C 42.87 426.36 42.39 425.43 42.15 424.96 Z" />
<path fill="#364f4e" stroke="#364f4e" stroke-width="0.09375" opacity="1.00" d=" M 608.89 426.83 C 609.13 426.36 609.61 425.43 609.85 424.96 C 609.61 425.43 609.13 426.36 608.89 426.83 Z" />
<path fill="#364f4e" stroke="#364f4e" stroke-width="0.09375" opacity="1.00" d=" M 44.33 430.89 C 44.56 431.36 45.02 432.30 45.26 432.78 C 45.02 432.30 44.56 431.36 44.33 430.89 Z" />
<path fill="#dd1032" stroke="#dd1032" stroke-width="0.09375" opacity="1.00" d=" M 118.33 431.43 C 135.26 428.01 152.99 441.64 153.87 458.90 C 155.82 475.49 141.74 491.65 125.04 491.93 C 108.79 493.27 93.37 479.34 93.07 463.05 C 91.89 448.08 103.52 433.63 118.33 431.43 Z" />
<path fill="#364f4e" stroke="#364f4e" stroke-width="0.09375" opacity="1.00" d=" M 606.74 432.78 C 606.97 432.31 607.43 431.37 607.67 430.90 C 607.43 431.37 606.97 432.31 606.74 432.78 Z" />
<path fill="#364f4e" stroke="#364f4e" stroke-width="0.09375" opacity="1.00" d=" M 46.24 435.90 C 46.48 436.36 46.98 437.29 47.23 437.75 C 46.98 437.29 46.48 436.36 46.24 435.90 Z" />
<path fill="#364f4e" stroke="#364f4e" stroke-width="0.09375" opacity="1.00" d=" M 604.77 437.75 C 605.02 437.29 605.52 436.37 605.77 435.90 C 605.52 436.37 605.02 437.29 604.77 437.75 Z" />
<path fill="#364f4e" stroke="#364f4e" stroke-width="0.09375" opacity="1.00" d=" M 68.08 479.94 C 68.37 480.37 68.97 481.24 69.26 481.67 C 68.97 481.24 68.37 480.37 68.08 479.94 Z" />
<path fill="#364f4e" stroke="#364f4e" stroke-width="0.09375" opacity="1.00" d=" M 582.74 481.67 C 583.03 481.24 583.62 480.37 583.92 479.93 C 583.62 480.37 583.03 481.24 582.74 481.67 Z" />
<path fill="#364f4e" stroke="#364f4e" stroke-width="0.09375" opacity="1.00" d=" M 71.17 484.93 C 71.47 485.36 72.07 486.22 72.38 486.65 C 72.07 486.22 71.47 485.36 71.17 484.93 Z" />
<path fill="#364f4e" stroke="#364f4e" stroke-width="0.09375" opacity="1.00" d=" M 579.66 486.69 C 579.94 486.25 580.50 485.36 580.78 484.92 C 580.50 485.36 579.94 486.25 579.66 486.69 Z" />
<path fill="#364f4e" stroke="#364f4e" stroke-width="0.09375" opacity="1.00" d=" M 577.63 489.66 C 577.95 489.25 578.59 488.43 578.92 488.02 C 578.59 488.43 577.95 489.25 577.63 489.66 Z" />
<path fill="#364f4e" stroke="#364f4e" stroke-width="0.09375" opacity="1.00" d=" M 79.13 496.95 C 79.45 497.36 80.08 498.20 80.40 498.61 C 80.08 498.20 79.45 497.36 79.13 496.95 Z" />
<path fill="#364f4e" stroke="#364f4e" stroke-width="0.09375" opacity="1.00" d=" M 571.61 498.61 C 571.93 498.19 572.57 497.36 572.89 496.95 C 572.57 497.36 571.93 498.19 571.61 498.61 Z" />
<path fill="#364f4e" stroke="#364f4e" stroke-width="0.09375" opacity="1.00" d=" M 81.98 501.00 C 82.31 501.41 82.98 502.24 83.31 502.65 C 82.98 502.24 82.31 501.41 81.98 501.00 Z" />
<path fill="#364f4e" stroke="#364f4e" stroke-width="0.09375" opacity="1.00" d=" M 568.69 502.65 C 569.02 502.24 569.69 501.41 570.02 501.00 C 569.69 501.41 569.02 502.24 568.69 502.65 Z" />
<path fill="#364f4e" stroke="#364f4e" stroke-width="0.09375" opacity="1.00" d=" M 562.68 510.60 C 563.02 510.20 563.70 509.39 564.04 508.99 C 563.70 509.39 563.02 510.20 562.68 510.60 Z" />
<path fill="#364f4e" stroke="#364f4e" stroke-width="0.09375" opacity="1.00" d=" M 494.98 573.88 C 495.40 573.57 496.24 572.93 496.66 572.61 C 496.24 572.93 495.40 573.57 494.98 573.88 Z" />
<path fill="#364f4e" stroke="#364f4e" stroke-width="0.09375" opacity="1.00" d=" M 158.33 574.64 C 158.74 574.96 159.56 575.61 159.97 575.93 C 159.56 575.61 158.74 574.96 158.33 574.64 Z" />
<path fill="#364f4e" stroke="#364f4e" stroke-width="0.09375" opacity="1.00" d=" M 161.28 576.69 C 161.72 576.98 162.60 577.55 163.04 577.83 C 162.60 577.55 161.72 576.98 161.28 576.69 Z" />
<path fill="#364f4e" stroke="#364f4e" stroke-width="0.09375" opacity="1.00" d=" M 489.02 577.90 C 489.43 577.58 490.25 576.94 490.67 576.63 C 490.25 576.94 489.43 577.58 489.02 577.90 Z" />
<path fill="#364f4e" stroke="#364f4e" stroke-width="0.09375" opacity="1.00" d=" M 485.92 579.78 C 486.36 579.50 487.25 578.94 487.69 578.67 C 487.25 578.94 486.36 579.50 485.92 579.78 Z" />
<path fill="#364f4e" stroke="#364f4e" stroke-width="0.09375" opacity="1.00" d=" M 169.34 581.71 C 169.77 582.02 170.63 582.62 171.06 582.93 C 170.63 582.62 169.77 582.02 169.34 581.71 Z" />
<path fill="#364f4e" stroke="#364f4e" stroke-width="0.09375" opacity="1.00" d=" M 480.93 582.91 C 481.37 582.62 482.24 582.03 482.67 581.74 C 482.24 582.03 481.37 582.62 480.93 582.91 Z" />
<path fill="#364f4e" stroke="#364f4e" stroke-width="0.09375" opacity="1.00" d=" M 213.24 603.77 C 213.71 604.02 214.63 604.52 215.09 604.76 C 214.63 604.52 213.71 604.02 213.24 603.77 Z" />
<path fill="#364f4e" stroke="#364f4e" stroke-width="0.09375" opacity="1.00" d=" M 436.90 604.77 C 437.36 604.52 438.29 604.02 438.75 603.77 C 438.29 604.02 437.36 604.52 436.90 604.77 Z" />
<path fill="#364f4e" stroke="#364f4e" stroke-width="0.09375" opacity="1.00" d=" M 218.22 605.74 C 218.70 605.98 219.64 606.44 220.11 606.67 C 219.64 606.44 218.70 605.98 218.22 605.74 Z" />
<path fill="#364f4e" stroke="#364f4e" stroke-width="0.09375" opacity="1.00" d=" M 431.90 606.67 C 432.37 606.44 433.31 605.97 433.78 605.74 C 433.31 605.97 432.37 606.44 431.90 606.67 Z" />
<path fill="#364f4e" stroke="#364f4e" stroke-width="0.09375" opacity="1.00" d=" M 224.17 607.89 C 224.64 608.13 225.57 608.61 226.04 608.85 C 225.57 608.61 224.64 608.13 224.17 607.89 Z" />
<path fill="#364f4e" stroke="#364f4e" stroke-width="0.09375" opacity="1.00" d=" M 425.97 608.85 C 426.43 608.61 427.36 608.13 427.83 607.89 C 427.36 608.13 426.43 608.61 425.97 608.85 Z" />
<path fill="#364f4e" stroke="#364f4e" stroke-width="0.09375" opacity="1.00" d=" M 236.14 611.92 C 236.62 612.14 237.57 612.58 238.04 612.80 C 237.57 612.58 236.62 612.14 236.14 611.92 Z" />
<path fill="#364f4e" stroke="#364f4e" stroke-width="0.09375" opacity="1.00" d=" M 410.92 613.71 C 411.40 613.49 412.36 613.07 412.84 612.85 C 412.36 613.07 411.40 613.49 410.92 613.71 Z" />
<path fill="#364f4e" stroke="#364f4e" stroke-width="0.09375" opacity="1.00" d=" M 262.29 618.79 C 263.31 618.63 264.20 618.90 264.98 619.62 C 263.54 620.74 262.65 620.47 262.29 618.79 Z" />
<path fill="#364f4e" stroke="#364f4e" stroke-width="0.09375" opacity="1.00" d=" M 387.03 619.62 C 387.79 618.90 388.69 618.62 389.71 618.78 C 389.35 620.46 388.45 620.74 387.03 619.62 Z" />
<path fill="#364f4e" stroke="#364f4e" stroke-width="0.09375" opacity="1.00" d=" M 267.26 619.86 C 268.27 619.65 269.17 619.90 269.96 620.60 C 268.57 621.77 267.67 621.52 267.26 619.86 Z" />
<path fill="#364f4e" stroke="#364f4e" stroke-width="0.09375" opacity="1.00" d=" M 382.01 620.57 C 382.81 619.89 383.71 619.65 384.73 619.86 C 384.30 621.52 383.40 621.75 382.01 620.57 Z" />
<path fill="#364f4e" stroke="#364f4e" stroke-width="0.09375" opacity="1.00" d=" M 272.28 620.82 C 273.28 620.60 274.19 620.84 274.99 621.52 C 273.61 622.71 272.71 622.48 272.28 620.82 Z" />
</svg>
