<?xml version="1.0" encoding="UTF-8" ?>
<!DOCTYPE svg PUBLIC "-//W3C//DTD SVG 1.1//EN" "http://www.w3.org/Graphics/SVG/1.1/DTD/svg11.dtd">
<svg width="600pt" height="600pt" viewBox="0 0 600 600" version="1.1" xmlns="http://www.w3.org/2000/svg">
<path fill="#10393c" stroke="#10393c" stroke-width="0.09375" opacity="1.00" d=" M 258.99 5.57 C 271.34 2.58 284.32 2.97 297.00 3.00 C 309.31 3.26 321.69 2.28 333.93 3.91 C 368.88 7.72 403.11 17.86 434.61 33.48 C 489.76 60.84 535.97 105.82 564.82 160.21 C 579.62 188.00 589.89 218.16 595.43 249.14 C 595.72 251.18 596.40 253.29 595.81 255.34 C 595.47 256.33 595.68 257.21 596.43 257.99 C 597.83 261.77 597.84 265.99 598.02 270.00 C 597.93 291.36 598.11 312.72 597.93 334.07 C 590.97 396.33 563.85 456.27 521.22 502.24 C 472.68 555.69 403.95 590.02 332.16 597.27 C 323.15 598.51 314.05 597.83 305.00 598.00 C 289.66 597.78 273.97 599.02 258.99 595.43 C 258.21 594.68 257.32 594.47 256.33 594.82 C 253.56 595.49 250.75 594.38 248.01 594.03 C 194.62 584.26 143.91 559.81 103.43 523.60 C 81.13 503.69 61.51 480.60 46.28 454.84 C 48.85 454.97 51.64 455.34 53.98 453.98 C 111.96 422.33 170.01 390.78 228.01 359.16 C 231.88 357.25 235.47 354.19 239.96 354.01 C 276.70 353.85 313.46 354.31 350.19 353.44 C 352.03 356.31 353.93 359.75 357.60 360.44 C 363.88 361.94 370.38 363.58 376.88 362.74 C 380.19 361.65 382.14 358.19 382.71 354.90 C 386.34 336.67 390.34 318.51 394.05 300.29 C 401.50 298.50 407.24 293.23 412.14 287.64 C 418.37 290.18 424.32 293.33 430.53 295.92 C 431.48 293.70 432.42 291.48 433.37 289.26 C 431.10 288.22 428.86 287.14 426.62 286.07 C 427.50 284.05 428.39 282.04 429.27 280.03 C 425.53 278.28 421.80 276.52 418.04 274.80 C 417.82 268.84 418.32 262.86 417.72 256.92 C 416.59 250.04 411.96 244.29 406.64 240.03 C 410.16 223.70 413.52 207.33 416.99 190.99 C 417.77 187.09 418.44 183.06 417.80 179.10 C 416.71 176.11 413.76 174.02 410.71 173.38 C 405.21 172.14 399.63 170.79 393.95 171.04 C 390.25 170.90 387.49 174.37 386.65 177.67 C 385.65 181.78 385.00 185.96 384.00 190.07 C 322.02 184.27 260.05 178.40 198.07 172.55 C 193.48 171.88 189.59 174.81 185.68 176.69 C 125.44 206.91 65.43 237.60 4.98 267.42 C 5.48 264.29 5.29 260.91 6.56 257.98 C 7.31 257.20 7.51 256.32 7.17 255.33 C 6.50 252.56 7.61 249.75 7.97 247.01 C 17.99 192.22 43.46 140.23 81.29 99.27 C 124.23 51.83 183.00 19.24 245.84 7.38 C 249.31 6.95 252.82 5.51 256.33 6.18 C 257.32 6.52 258.21 6.31 258.99 5.57 M 442.78 286.22 C 442.54 289.18 442.87 292.13 444.02 294.89 C 444.62 295.16 445.82 295.71 446.42 295.98 C 445.42 298.03 444.62 300.18 443.96 302.37 C 452.75 306.26 461.47 310.34 470.19 314.41 C 471.60 312.24 471.84 309.69 471.75 307.16 C 469.92 306.28 468.10 305.36 466.28 304.46 C 467.24 302.46 468.17 300.44 469.01 298.39 C 460.27 294.32 451.47 290.39 442.78 286.22 M 482.02 304.67 C 481.42 306.83 480.13 309.36 481.58 311.47 C 482.44 313.18 484.52 313.55 486.04 314.48 C 485.28 316.49 484.41 318.46 483.40 320.36 C 492.21 324.74 501.20 328.76 510.11 332.93 C 510.93 330.42 510.89 327.78 510.80 325.18 C 509.20 324.44 507.60 323.70 506.01 322.96 C 506.95 320.97 507.89 318.97 508.85 316.99 C 499.95 312.79 491.12 308.42 482.02 304.67 M 528.09 325.87 C 526.10 324.90 524.11 323.96 522.11 323.05 C 521.04 325.26 520.01 327.50 519.03 329.76 C 520.89 330.58 522.75 331.38 524.65 332.13 C 522.24 339.46 522.19 347.93 526.22 354.71 C 532.38 367.42 549.67 372.80 562.04 366.09 C 573.11 361.05 579.16 347.60 576.32 335.90 C 574.42 328.51 569.74 321.57 562.71 318.24 C 551.35 311.69 535.77 315.40 528.09 325.87 Z" />
<path fill="#1b566b" stroke="#1b566b" stroke-width="0.09375" opacity="1.00" d=" M 256.33 6.18 C 256.79 4.56 257.68 4.36 258.99 5.57 C 258.21 6.31 257.32 6.52 256.33 6.18 Z" />
<path fill="#000000" stroke="#000000" stroke-width="0.09375" opacity="1.00" d=" M 386.65 177.67 C 387.49 174.37 390.25 170.90 393.95 171.04 C 399.63 170.79 405.21 172.14 410.71 173.38 C 413.76 174.02 416.71 176.11 417.80 179.10 C 418.44 183.06 417.77 187.09 416.99 190.99 C 413.52 207.33 410.16 223.70 406.64 240.03 C 406.02 243.04 405.44 246.06 404.85 249.08 C 401.83 263.01 398.97 276.98 396.03 290.93 C 395.36 294.04 394.69 297.17 394.05 300.29 C 390.34 318.51 386.34 336.67 382.71 354.90 C 382.14 358.19 380.19 361.65 376.88 362.74 C 370.38 363.58 363.88 361.94 357.60 360.44 C 353.93 359.75 352.03 356.31 350.19 353.44 C 313.46 354.31 276.70 353.85 239.96 354.01 C 235.47 354.19 231.88 357.25 228.01 359.16 C 170.01 390.78 111.96 422.33 53.98 453.98 C 51.64 455.34 48.85 454.97 46.28 454.84 C 45.36 453.61 44.52 452.29 44.01 450.85 C 43.97 448.92 43.99 447.02 44.00 445.11 C 46.91 443.23 49.92 441.50 52.99 439.91 C 110.21 408.81 167.37 377.59 224.59 346.49 C 227.98 344.86 230.89 341.23 235.02 342.12 C 240.64 342.90 246.32 342.78 251.97 342.45 C 285.36 341.91 318.75 342.00 352.14 342.02 C 355.89 325.40 359.08 308.65 362.80 292.03 C 363.37 289.55 363.80 287.05 364.25 284.56 C 367.29 270.35 370.21 256.11 373.23 241.90 C 373.96 238.72 374.66 235.53 375.27 232.33 C 377.20 222.22 379.61 212.21 381.44 202.09 C 377.63 201.45 373.80 201.07 369.96 200.80 C 316.01 195.70 262.06 190.64 208.11 185.53 C 204.09 185.22 199.75 184.02 195.93 185.88 C 134.74 216.69 73.51 247.48 12.32 278.30 C 9.52 279.75 6.24 279.14 3.94 277.09 C 4.42 273.88 4.75 270.65 4.98 267.42 C 65.43 237.60 125.44 206.91 185.68 176.69 C 189.59 174.81 193.48 171.88 198.07 172.55 C 260.05 178.40 322.02 184.27 384.00 190.07 C 385.00 185.96 385.65 181.78 386.65 177.67 M 395.25 179.02 C 383.14 236.64 371.10 294.28 359.02 351.91 C 363.92 352.95 368.82 353.96 373.73 354.99 C 385.89 297.37 397.88 239.72 409.98 182.09 C 405.07 181.05 400.16 180.04 395.25 179.02 Z" />
<path fill="#e8dd62" stroke="#e8dd62" stroke-width="0.09375" opacity="1.00" d=" M 395.25 179.02 C 400.16 180.04 405.07 181.05 409.98 182.09 C 397.88 239.72 385.89 297.37 373.73 354.99 C 368.82 353.96 363.92 352.95 359.02 351.91 C 371.10 294.28 383.14 236.64 395.25 179.02 Z" />
<path fill="#1b566b" stroke="#1b566b" stroke-width="0.09375" opacity="1.00" d=" M 195.93 185.88 C 199.75 184.02 204.09 185.22 208.11 185.53 C 262.06 190.64 316.01 195.70 369.96 200.80 C 373.80 201.07 377.63 201.45 381.44 202.09 C 379.61 212.21 377.20 222.22 375.27 232.33 C 371.06 233.27 366.86 234.73 363.54 237.59 C 357.79 242.61 351.79 248.29 350.24 256.12 C 332.17 255.37 314.06 256.21 296.00 255.35 C 281.16 255.33 266.32 255.14 251.48 255.09 C 249.00 247.27 242.97 241.25 236.56 236.45 C 229.70 231.59 220.97 231.76 212.95 232.11 C 206.72 232.29 200.65 234.87 196.08 239.09 C 191.17 243.60 186.21 248.71 184.56 255.38 C 183.68 259.96 184.08 264.65 184.11 269.28 C 148.58 285.31 113.27 301.82 77.67 317.70 C 72.81 312.35 66.46 307.90 59.06 307.27 C 49.98 306.65 39.84 306.28 32.29 312.27 C 25.37 317.98 17.97 325.34 18.06 334.98 C 18.27 343.16 16.55 352.25 21.57 359.41 C 27.13 367.22 34.92 374.72 44.93 375.71 C 53.12 376.18 62.05 376.78 69.33 372.28 C 74.69 368.83 79.32 364.15 82.80 358.82 C 86.71 352.70 86.70 345.20 86.53 338.20 C 119.13 322.68 152.24 308.21 184.97 292.97 C 187.30 291.85 189.76 291.02 192.22 290.22 C 197.19 295.51 203.50 300.05 210.94 300.71 C 219.57 301.26 229.11 301.75 236.55 296.52 C 243.16 291.60 249.37 285.33 251.60 277.16 C 284.53 276.91 317.44 278.12 350.36 277.77 C 352.16 284.33 356.79 289.49 361.89 293.76 C 362.12 293.33 362.58 292.46 362.80 292.03 C 359.08 308.65 355.89 325.40 352.14 342.02 C 318.75 342.00 285.36 341.91 251.97 342.45 C 246.32 342.78 240.64 342.90 235.02 342.12 C 230.89 341.23 227.98 344.86 224.59 346.49 C 167.37 377.59 110.21 408.81 52.99 439.91 C 49.92 441.50 46.91 443.23 44.00 445.11 C 43.99 447.02 43.97 448.92 44.01 450.85 C 28.51 425.30 17.82 396.95 10.85 367.94 C 10.48 366.19 9.87 364.39 10.26 362.59 C 10.56 361.52 10.29 360.65 9.44 359.98 L 8.56 359.11 L 9.18 357.58 C 9.62 356.59 9.36 355.74 8.43 355.03 C 3.05 329.51 2.13 303.09 3.94 277.09 C 6.24 279.14 9.52 279.75 12.32 278.30 C 73.51 247.48 134.74 216.69 195.93 185.88 Z" />
<path fill="#3c97cf" stroke="#3c97cf" stroke-width="0.09375" opacity="1.00" d=" M 196.08 239.09 C 200.65 234.87 206.72 232.29 212.95 232.11 C 220.97 231.76 229.70 231.59 236.56 236.45 C 242.97 241.25 249.00 247.27 251.48 255.09 C 247.81 254.82 242.65 256.48 240.84 252.14 C 236.16 244.24 227.05 239.41 218.00 238.99 C 208.20 239.43 198.47 245.13 194.01 254.01 C 191.92 257.63 191.64 261.86 190.55 265.81 C 188.88 267.63 186.26 268.20 184.11 269.28 C 184.08 264.65 183.68 259.96 184.56 255.38 C 186.21 248.71 191.17 243.60 196.08 239.09 Z" />
<path fill="#3c97cf" stroke="#3c97cf" stroke-width="0.09375" opacity="1.00" d=" M 363.54 237.59 C 366.86 234.73 371.06 233.27 375.27 232.33 C 374.66 235.53 373.96 238.72 373.23 241.90 C 366.81 244.71 362.09 250.09 358.90 256.20 C 356.01 256.25 353.12 256.24 350.24 256.12 C 351.79 248.29 357.79 242.61 363.54 237.59 Z" />
<path fill="#103e8a" stroke="#103e8a" stroke-width="0.09375" opacity="1.00" d=" M 194.01 254.01 C 198.47 245.13 208.20 239.43 218.00 238.99 C 227.05 239.41 236.16 244.24 240.84 252.14 C 242.65 256.48 247.81 254.82 251.48 255.09 C 266.32 255.14 281.16 255.33 296.00 255.35 C 314.06 256.21 332.17 255.37 350.24 256.12 C 353.12 256.24 356.01 256.25 358.90 256.20 C 362.09 250.09 366.81 244.71 373.23 241.90 C 370.21 256.11 367.29 270.35 364.25 284.56 C 362.42 282.41 361.18 279.63 358.89 277.97 C 356.07 277.45 353.20 277.71 350.36 277.77 C 317.44 278.12 284.53 276.91 251.60 277.16 C 248.81 277.16 246.01 277.19 243.22 277.23 C 238.03 287.54 226.70 295.16 214.94 293.78 C 209.31 293.02 204.57 289.76 199.79 286.98 C 196.89 286.77 194.54 288.81 192.22 290.22 C 189.76 291.02 187.30 291.85 184.97 292.97 C 152.24 308.21 119.13 322.68 86.53 338.20 C 84.14 339.19 81.72 340.11 79.34 341.11 C 79.14 350.67 74.47 360.21 66.06 365.11 C 57.46 370.46 45.81 370.26 37.36 364.70 C 29.75 359.87 24.89 351.02 25.00 342.00 C 24.85 333.46 29.20 325.09 36.10 320.12 C 43.03 314.95 52.52 313.59 60.68 316.33 C 64.00 317.42 66.75 319.70 70.00 320.96 C 72.78 320.50 75.14 318.83 77.67 317.70 C 113.27 301.82 148.58 285.31 184.11 269.28 C 186.26 268.20 188.88 267.63 190.55 265.81 C 191.64 261.86 191.92 257.63 194.01 254.01 Z" />
<path fill="#e8dd62" stroke="#e8dd62" stroke-width="0.09375" opacity="1.00" d=" M 406.64 240.03 C 411.96 244.29 416.59 250.04 417.72 256.92 C 418.32 262.86 417.82 268.84 418.04 274.80 C 421.80 276.52 425.53 278.28 429.27 280.03 C 428.39 282.04 427.50 284.05 426.62 286.07 C 428.86 287.14 431.10 288.22 433.37 289.26 C 432.42 291.48 431.48 293.70 430.53 295.92 C 424.32 293.33 418.37 290.18 412.14 287.64 C 407.24 293.23 401.50 298.50 394.05 300.29 C 394.69 297.17 395.36 294.04 396.03 290.93 C 403.52 286.87 409.38 279.63 410.66 271.08 C 412.06 263.31 409.74 255.20 404.85 249.08 C 405.44 246.06 406.02 243.04 406.64 240.03 Z" />
<path fill="#00166a" stroke="#00166a" stroke-width="0.09375" opacity="1.00" d=" M 396.03 290.93 C 398.97 276.98 401.83 263.01 404.85 249.08 C 409.74 255.20 412.06 263.31 410.66 271.08 C 409.38 279.63 403.52 286.87 396.03 290.93 Z" />
<path fill="#1b566b" stroke="#1b566b" stroke-width="0.09375" opacity="1.00" d=" M 6.56 257.98 C 5.35 256.68 5.56 255.79 7.17 255.33 C 7.51 256.32 7.31 257.20 6.56 257.98 Z" />
<path fill="#1b566b" stroke="#1b566b" stroke-width="0.09375" opacity="1.00" d=" M 595.81 255.34 C 597.42 255.79 597.63 256.68 596.43 257.99 C 595.68 257.21 595.47 256.33 595.81 255.34 Z" />
<path fill="#3c97cf" stroke="#3c97cf" stroke-width="0.09375" opacity="1.00" d=" M 243.22 277.23 C 246.01 277.19 248.81 277.16 251.60 277.16 C 249.37 285.33 243.16 291.60 236.55 296.52 C 229.11 301.75 219.57 301.26 210.94 300.71 C 203.50 300.05 197.19 295.51 192.22 290.22 C 194.54 288.81 196.89 286.77 199.79 286.98 C 204.57 289.76 209.31 293.02 214.94 293.78 C 226.70 295.16 238.03 287.54 243.22 277.23 Z" />
<path fill="#3c97cf" stroke="#3c97cf" stroke-width="0.09375" opacity="1.00" d=" M 350.36 277.77 C 353.20 277.71 356.07 277.45 358.89 277.97 C 361.18 279.63 362.42 282.41 364.25 284.56 C 363.80 287.05 363.37 289.55 362.80 292.03 C 362.58 292.46 362.12 293.33 361.89 293.76 C 356.79 289.49 352.16 284.33 350.36 277.77 Z" />
<path fill="#e8dd62" stroke="#e8dd62" stroke-width="0.09375" opacity="1.00" d=" M 442.78 286.22 C 451.47 290.39 460.27 294.32 469.01 298.39 C 468.17 300.44 467.24 302.46 466.28 304.46 C 468.10 305.36 469.92 306.28 471.75 307.16 C 471.84 309.69 471.60 312.24 470.19 314.41 C 461.47 310.34 452.75 306.26 443.96 302.37 C 444.62 300.18 445.42 298.03 446.42 295.98 C 445.82 295.71 444.62 295.16 444.02 294.89 C 442.87 292.13 442.54 289.18 442.78 286.22 Z" />
<path fill="#e8dd62" stroke="#e8dd62" stroke-width="0.09375" opacity="1.00" d=" M 482.02 304.67 C 491.12 308.42 499.95 312.79 508.85 316.99 C 507.89 318.97 506.95 320.97 506.01 322.96 C 507.60 323.70 509.20 324.44 510.80 325.18 C 510.89 327.78 510.93 330.42 510.11 332.93 C 501.20 328.76 492.21 324.74 483.40 320.36 C 484.41 318.46 485.28 316.49 486.04 314.48 C 484.52 313.55 482.44 313.18 481.58 311.47 C 480.13 309.36 481.42 306.83 482.02 304.67 Z" />
<path fill="#3c97cf" stroke="#3c97cf" stroke-width="0.09375" opacity="1.00" d=" M 32.29 312.27 C 39.84 306.28 49.98 306.65 59.06 307.27 C 66.46 307.90 72.81 312.35 77.67 317.70 C 75.14 318.83 72.78 320.50 70.00 320.96 C 66.75 319.70 64.00 317.42 60.68 316.33 C 52.52 313.59 43.03 314.95 36.10 320.12 C 29.20 325.09 24.85 333.46 25.00 342.00 C 24.89 351.02 29.75 359.87 37.36 364.70 C 45.81 370.26 57.46 370.46 66.06 365.11 C 74.47 360.21 79.14 350.67 79.34 341.11 C 81.72 340.11 84.14 339.19 86.53 338.20 C 86.70 345.20 86.71 352.70 82.80 358.82 C 79.32 364.15 74.69 368.83 69.33 372.28 C 62.05 376.78 53.12 376.18 44.93 375.71 C 34.92 374.72 27.13 367.22 21.57 359.41 C 16.55 352.25 18.27 343.16 18.06 334.98 C 17.97 325.34 25.37 317.98 32.29 312.27 Z" />
<path fill="#00166a" stroke="#00166a" stroke-width="0.09375" opacity="1.00" d=" M 528.09 325.87 C 535.77 315.40 551.35 311.69 562.71 318.24 C 569.74 321.57 574.42 328.51 576.32 335.90 C 579.16 347.60 573.11 361.05 562.04 366.09 C 549.67 372.80 532.38 367.42 526.22 354.71 C 522.19 347.93 522.24 339.46 524.65 332.13 C 525.61 329.95 526.77 327.86 528.09 325.87 Z" />
<path fill="#e8dd62" stroke="#e8dd62" stroke-width="0.09375" opacity="1.00" d=" M 522.11 323.05 C 524.11 323.96 526.10 324.90 528.09 325.87 C 526.77 327.86 525.61 329.95 524.65 332.13 C 522.75 331.38 520.89 330.58 519.03 329.76 C 520.01 327.50 521.04 325.26 522.11 323.05 Z" />
<path fill="#10393c" stroke="#10393c" stroke-width="0.09375" opacity="1.00" d=" M 8.43 355.03 C 9.36 355.74 9.62 356.59 9.18 357.58 C 7.61 357.21 7.36 356.36 8.43 355.03 Z" />
<path fill="#10393c" stroke="#10393c" stroke-width="0.09375" opacity="1.00" d=" M 9.44 359.98 C 10.29 360.65 10.56 361.52 10.26 362.59 C 8.65 362.23 8.37 361.36 9.44 359.98 Z" />
<path fill="#1b566b" stroke="#1b566b" stroke-width="0.09375" opacity="1.00" d=" M 256.33 594.82 C 257.32 594.47 258.21 594.68 258.99 595.43 C 257.68 596.63 256.79 596.43 256.33 594.82 Z" />
</svg>
