<?xml version="1.0" encoding="utf-8"?>
<!-- Generator: Adobe Illustrator 22.1.0, SVG Export Plug-In . SVG Version: 6.00 Build 0)  -->
<svg version="1.1" xmlns="http://www.w3.org/2000/svg" xmlns:xlink="http://www.w3.org/1999/xlink" x="0px" y="0px"
	 viewBox="0 0 600 600" style="enable-background:new 0 0 600 600;" xml:space="preserve">
<style type="text/css">
	.st0{fill:#8C2800;}
	.st1{fill:#CB661B;}
	.st2{fill:#FFBF00;}
</style>
<g id="Layer_1">
	<g>
		<path d="M66,387.9H13.7v-34.6h97.8v150.4h53.4v34.6H7.4v-34.6H66V387.9z M115.2,302.7c0,4-0.7,7.8-2.2,11.3
			c-1.5,3.5-3.5,6.6-6.1,9.2c-2.6,2.6-5.7,4.7-9.2,6.2c-3.5,1.5-7.3,2.3-11.5,2.3c-4.1,0-8-0.8-11.6-2.3c-3.6-1.5-6.7-3.6-9.3-6.2
			c-2.6-2.6-4.6-5.7-6.1-9.2c-1.5-3.5-2.2-7.3-2.2-11.3c0-4,0.7-7.8,2.2-11.3c1.5-3.5,3.5-6.6,6.1-9.3c2.6-2.7,5.7-4.8,9.3-6.3
			c3.6-1.5,7.4-2.3,11.6-2.3c4.1,0,7.9,0.8,11.5,2.3c3.5,1.5,6.6,3.6,9.2,6.3c2.6,2.7,4.6,5.8,6.1,9.3
			C114.4,294.9,115.2,298.7,115.2,302.7z"/>
		<path d="M375.2,450.8c0,15.2-2,28.5-6.1,40c-4.1,11.5-9.9,21-17.5,28.7c-7.6,7.6-16.8,13.4-27.8,17.3c-10.9,3.9-23.2,5.8-36.8,5.8
			c-15.3,0-28.4-1.9-39.3-5.8c-10.9-3.9-19.8-9.5-26.6-16.8c-6.8-7.3-11.7-16.1-14.7-26.6c-3-10.4-4.6-22.2-4.6-35.1V300.4h44.8
			v155.1c0,8,0.7,15.1,2.1,21.3c1.4,6.2,3.8,11.4,7.3,15.7c3.5,4.3,7.8,7.6,13,9.7c5.2,2.2,11.8,3.3,19.7,3.3
			c7.4,0,13.7-0.9,18.8-2.8c5.1-1.9,9.3-4.9,12.7-9.1c3.4-4.2,5.9-9.6,7.6-16.1c1.7-6.6,2.5-14.5,2.5-23.9V300.4h44.8V450.8z"/>
		<path d="M519.8,538.3h-51.2l-73.4-185h49.5l38.4,104.9l11.5,33.9l11.3-32.4l38.8-106.3h47.7L519.8,538.3z"/>
	</g>
</g>
<g id="Layer_2">
	<rect x="16.8" y="93.6" width="133.3" height="59.5"/>
	<rect x="221.9" y="93.6" width="133.3" height="59.5"/>
	<polygon points="411.8,197.1 501,123.6 411.8,49.5 454.1,6.4 593,123.2 454.1,240.3 	"/>
</g>
<g id="Layer_3">
	<path class="st0" d="M26.8,143.1v-39.5h113.3v39.5H26.8z"/>
	<path class="st1" d="M231.9,143.1v-39.5h113.3v39.5H231.9z"/>
	<path class="st2" d="M454.8,20l122.7,103.2L454.8,226.7l-28.2-28.8l90.1-74.3l-90.1-74.8L454.8,20z"/>
</g>
</svg>
