<?xml version="1.0" encoding="UTF-8" ?>
<!DOCTYPE svg PUBLIC "-//W3C//DTD SVG 1.1//EN" "http://www.w3.org/Graphics/SVG/1.1/DTD/svg11.dtd">
<svg width="600pt" height="600pt" viewBox="0 0 600 600" version="1.1" xmlns="http://www.w3.org/2000/svg">
<g id="#ffffffff">
</g>
<g id="#645e5bff">
<path fill="#645e5b" opacity="1.00" d=" M 475.31 19.35 C 483.82 12.86 495.86 11.50 505.58 16.04 C 505.70 17.49 505.83 18.94 505.96 20.39 C 504.26 19.30 502.53 18.26 500.76 17.31 C 496.78 15.74 489.98 13.74 489.81 20.07 C 482.37 21.24 480.13 29.50 473.53 32.03 C 468.03 34.68 469.02 42.59 463.52 45.34 C 456.27 49.37 451.56 56.29 446.86 62.87 C 436.34 76.21 428.66 91.55 417.35 104.30 C 419.84 99.77 422.64 95.42 425.50 91.11 C 422.18 93.86 416.84 93.08 414.98 97.58 C 416.34 100.08 416.12 102.63 414.07 104.62 C 413.48 104.24 412.32 103.47 411.73 103.09 C 406.80 108.73 403.98 115.87 398.68 121.21 C 409.83 98.59 424.21 77.52 439.76 57.69 C 451.52 44.83 462.63 31.32 475.31 19.35 Z" />
<path fill="#645e5b" opacity="1.00" d=" M 494.34 56.22 C 499.05 52.20 502.75 47.19 507.37 43.08 C 501.73 53.56 492.98 61.98 487.72 72.68 C 470.28 98.70 451.94 124.24 436.82 151.74 C 432.53 159.20 431.73 169.08 424.42 174.47 C 423.39 172.56 422.37 170.65 421.36 168.73 C 420.10 168.56 418.83 168.38 417.58 168.21 C 416.61 165.30 415.36 162.49 413.81 159.85 C 414.97 159.47 416.14 159.10 417.30 158.72 C 418.28 159.97 419.26 161.22 420.26 162.47 C 428.28 149.08 433.83 134.15 444.11 122.14 C 457.30 101.73 470.72 81.47 485.32 62.03 C 488.31 58.24 491.23 54.40 493.94 50.41 C 494.07 52.35 494.20 54.29 494.34 56.22 Z" />
<path fill="#645e5b" opacity="1.00" d=" M 404.45 150.70 L 405.24 151.09 C 405.74 151.78 406.25 152.49 406.76 153.20 C 399.72 159.89 394.70 168.37 387.45 174.86 C 387.79 175.92 388.14 176.98 388.49 178.04 C 386.83 177.86 385.17 177.67 383.51 177.58 C 383.33 177.95 382.97 178.71 382.79 179.09 C 382.72 177.34 382.18 175.08 383.82 173.85 C 392.05 167.43 397.67 158.50 404.45 150.70 Z" />
<path fill="#645e5b" opacity="1.00" d=" M 318.21 271.85 C 320.72 271.92 323.23 272.04 325.74 272.17 C 326.08 279.77 329.27 287.72 326.09 295.09 C 324.71 298.95 323.43 302.85 322.32 306.80 C 319.75 306.75 317.18 306.66 314.62 306.53 C 314.37 299.03 311.19 291.25 314.17 283.94 C 315.55 279.92 316.96 275.91 318.21 271.85 M 321.03 274.58 C 320.70 277.38 320.56 280.21 320.50 283.03 C 319.05 282.46 317.60 281.88 316.16 281.30 C 316.02 282.54 315.88 283.77 315.75 285.01 C 317.37 284.73 318.99 284.47 320.63 284.28 C 319.27 285.91 317.26 286.60 315.34 287.34 C 316.01 288.58 316.68 289.83 317.35 291.08 C 318.56 289.56 319.75 288.03 320.93 286.49 C 321.94 286.92 322.94 287.34 323.96 287.77 C 324.95 285.55 325.91 283.18 325.16 280.73 C 324.36 282.35 323.60 283.99 322.84 285.62 C 322.28 282.00 323.78 277.52 321.03 274.58 M 318.45 293.06 C 319.06 293.48 320.29 294.30 320.90 294.71 C 320.14 295.42 319.37 296.11 318.62 296.82 C 318.30 296.65 317.67 296.30 317.35 296.12 C 317.59 295.06 317.84 294.00 318.08 292.94 C 316.78 293.20 315.48 293.46 314.18 293.72 C 316.33 297.02 316.04 301.07 317.69 304.54 C 317.93 303.08 318.17 301.63 318.39 300.17 C 319.42 301.01 320.43 301.83 321.48 302.67 C 323.23 300.03 322.69 297.02 321.70 294.22 C 322.52 294.68 323.35 295.16 324.18 295.63 C 324.31 294.89 324.44 294.15 324.58 293.42 C 323.51 292.08 322.46 290.74 321.44 289.38 C 320.45 290.61 319.44 291.83 318.45 293.06 Z" />
</g>
<g id="#453e3cff">
<path fill="#453e3c" opacity="1.00" d=" M 489.81 20.07 C 489.98 13.74 496.78 15.74 500.76 17.31 C 494.73 21.76 490.39 27.94 485.52 33.53 C 455.72 70.12 428.70 108.89 403.76 148.94 C 404.13 149.48 404.87 150.55 405.24 151.09 L 404.45 150.70 C 397.47 147.00 389.67 148.68 382.20 148.92 C 388.12 139.94 392.79 130.17 398.68 121.21 C 403.98 115.87 406.80 108.73 411.73 103.09 C 412.32 103.47 413.48 104.24 414.07 104.62 C 416.12 102.63 416.34 100.08 414.98 97.58 C 416.84 93.08 422.18 93.86 425.50 91.11 C 422.64 95.42 419.84 99.77 417.35 104.30 C 428.66 91.55 436.34 76.21 446.86 62.87 C 451.56 56.29 456.27 49.37 463.52 45.34 C 469.02 42.59 468.03 34.68 473.53 32.03 C 480.13 29.50 482.37 21.24 489.81 20.07 Z" />
<path fill="#453e3c" opacity="1.00" d=" M 505.96 20.39 C 505.83 18.94 505.70 17.49 505.58 16.04 C 511.38 19.12 516.35 23.95 518.97 30.03 C 519.17 30.71 519.56 32.07 519.76 32.76 C 519.07 32.32 517.70 31.44 517.01 31.00 C 516.95 30.90 516.83 30.70 516.77 30.60 C 515.05 35.70 510.95 39.28 507.37 43.08 C 502.75 47.19 499.05 52.20 494.34 56.22 C 494.20 54.29 494.07 52.35 493.94 50.41 C 499.64 42.73 505.25 34.60 513.14 28.99 C 511.79 31.73 510.37 34.42 508.98 37.14 C 511.29 35.40 514.43 34.04 515.27 31.03 C 514.60 25.95 509.73 23.14 505.96 20.39 Z" />
<path fill="#453e3c" opacity="1.00" d=" M 471.67 74.14 C 474.66 67.04 479.48 60.99 484.20 54.96 C 482.52 60.70 477.58 64.69 475.98 70.44 C 479.10 67.65 482.16 64.78 485.32 62.03 C 470.72 81.47 457.30 101.73 444.11 122.14 C 433.83 134.15 428.28 149.08 420.26 162.47 C 419.26 161.22 418.28 159.97 417.30 158.72 C 416.14 159.10 414.97 159.47 413.81 159.85 C 413.03 158.80 412.20 157.79 411.37 156.79 C 436.37 133.01 448.13 99.06 471.67 74.14 Z" />
<path fill="#453e3c" opacity="1.00" d=" M 466.05 137.09 C 466.92 136.65 467.89 137.12 468.82 137.07 C 453.44 156.18 435.75 173.30 420.38 192.42 C 412.45 204.21 405.44 216.65 399.48 229.55 C 400.95 221.65 404.76 214.44 408.40 207.36 C 412.25 199.77 419.10 193.43 419.97 184.57 C 428.09 181.64 431.34 172.89 437.37 167.36 C 445.58 156.13 454.17 144.70 466.05 137.09 Z" />
</g>
<g id="#221f1eff">
<path fill="#221f1e" opacity="1.00" d=" M 485.52 33.53 C 490.39 27.94 494.73 21.76 500.76 17.31 C 502.53 18.26 504.26 19.30 505.96 20.39 C 509.73 23.14 514.60 25.95 515.27 31.03 C 514.43 34.04 511.29 35.40 508.98 37.14 C 510.37 34.42 511.79 31.73 513.14 28.99 C 505.25 34.60 499.64 42.73 493.94 50.41 C 491.23 54.40 488.31 58.24 485.32 62.03 C 482.16 64.78 479.10 67.65 475.98 70.44 C 477.58 64.69 482.52 60.70 484.20 54.96 C 479.48 60.99 474.66 67.04 471.67 74.14 C 448.13 99.06 436.37 133.01 411.37 156.79 C 404.50 164.07 398.21 171.94 392.14 179.87 C 398.79 189.56 399.44 201.61 399.68 212.97 C 400.12 223.03 396.72 232.75 392.89 241.90 C 388.43 240.78 388.79 235.64 388.38 232.00 C 386.39 214.37 385.69 196.62 382.79 179.09 C 382.97 178.71 383.33 177.95 383.51 177.58 C 385.17 177.67 386.83 177.86 388.49 178.04 C 388.14 176.98 387.79 175.92 387.45 174.86 C 394.70 168.37 399.72 159.89 406.76 153.20 C 406.25 152.49 405.74 151.78 405.24 151.09 C 404.87 150.55 404.13 149.48 403.76 148.94 C 428.70 108.89 455.72 70.12 485.52 33.53 Z" />
<path fill="#221f1e" opacity="1.00" d=" M 509.91 74.89 C 511.87 72.46 515.32 66.62 518.76 69.85 C 518.44 71.24 518.07 72.62 517.65 73.99 C 516.06 79.66 511.20 83.25 507.61 87.59 C 496.30 102.52 484.65 117.21 472.78 131.70 C 472.34 130.80 471.91 129.89 471.49 128.99 C 483.80 110.61 498.64 93.99 509.91 74.89 Z" />
</g>
<g id="#7b7471ff">
<path fill="#7b7471" opacity="1.00" d=" M 516.77 30.60 C 516.83 30.70 516.95 30.90 517.01 31.00 C 520.74 43.57 520.34 56.98 518.76 69.85 C 515.32 66.62 511.87 72.46 509.91 74.89 C 498.64 93.99 483.80 110.61 471.49 128.99 C 471.91 129.89 472.34 130.80 472.78 131.70 L 473.02 132.22 C 471.70 133.90 470.34 135.56 468.82 137.07 C 467.89 137.12 466.92 136.65 466.05 137.09 C 454.17 144.70 445.58 156.13 437.37 167.36 C 431.34 172.89 428.09 181.64 419.97 184.57 C 419.65 179.06 418.95 173.56 417.58 168.21 C 418.83 168.38 420.10 168.56 421.36 168.73 C 422.37 170.65 423.39 172.56 424.42 174.47 C 431.73 169.08 432.53 159.20 436.82 151.74 C 451.94 124.24 470.28 98.70 487.72 72.68 C 492.98 61.98 501.73 53.56 507.37 43.08 C 510.95 39.28 515.05 35.70 516.77 30.60 Z" />
<path fill="#7b7471" opacity="1.00" d=" M 362.58 187.56 C 364.44 172.92 373.64 160.52 382.20 148.92 C 389.67 148.68 397.47 147.00 404.45 150.70 C 397.67 158.50 392.05 167.43 383.82 173.85 C 382.18 175.08 382.72 177.34 382.79 179.09 C 385.69 196.62 386.39 214.37 388.38 232.00 C 388.79 235.64 388.43 240.78 392.89 241.90 C 392.78 242.16 392.57 242.68 392.46 242.94 C 391.67 244.75 390.84 246.55 390.07 248.38 C 389.67 248.42 388.88 248.49 388.48 248.53 C 386.58 230.70 384.77 212.85 383.07 194.99 C 382.31 189.19 382.16 183.21 380.20 177.65 C 380.00 176.41 378.64 176.40 377.71 176.05 C 374.98 178.89 373.89 182.87 374.71 186.72 C 376.49 196.46 379.06 206.11 379.66 216.03 C 379.92 221.73 381.80 227.91 378.46 233.10 C 370.90 218.72 368.33 202.04 369.53 185.94 C 346.23 216.44 322.85 246.87 299.74 277.51 C 261.06 327.08 221.98 376.40 186.10 428.07 C 155.19 472.87 126.18 519.00 99.21 566.27 C 95.65 573.47 90.50 580.09 89.15 588.19 C 95.98 588.33 102.55 586.29 108.91 584.06 C 143.37 571.95 173.88 550.25 199.04 524.02 C 205.75 516.88 213.34 510.50 219.08 502.50 C 240.06 480.90 257.60 456.24 278.40 434.47 C 283.77 429.39 288.37 423.57 292.77 417.65 C 300.10 406.97 309.20 397.66 316.47 386.93 C 317.02 387.08 317.58 387.24 318.14 387.40 C 298.38 413.35 277.48 438.41 256.11 463.05 C 220.52 503.95 184.54 546.81 136.24 573.14 C 122.22 580.59 107.86 588.85 91.70 590.19 C 90.55 589.67 89.44 589.06 88.33 588.49 C 88.23 581.20 92.63 574.99 95.74 568.72 C 122.35 519.95 150.50 471.93 182.37 426.40 C 210.10 384.99 240.98 345.84 271.44 306.44 C 301.76 266.77 332.32 227.26 362.58 187.56 Z" />
<path fill="#7b7471" opacity="1.00" d=" M 342.73 248.97 C 342.77 244.55 345.72 241.27 348.59 238.26 C 348.95 239.81 349.32 241.36 349.70 242.91 C 344.16 247.44 340.86 253.91 336.68 259.58 C 335.98 258.46 335.28 257.35 334.58 256.24 C 334.73 259.03 334.63 261.89 333.15 264.35 C 332.41 263.29 331.55 262.35 330.56 261.55 C 329.49 262.90 330.45 264.89 330.44 266.49 C 329.59 267.30 328.75 268.10 327.91 268.91 C 327.03 261.65 333.96 257.58 337.30 252.07 C 338.16 252.91 339.02 253.75 339.90 254.60 C 339.69 252.87 339.48 251.16 339.28 249.44 C 339.99 248.69 340.72 247.94 341.45 247.19 C 341.77 247.64 342.41 248.53 342.73 248.97 Z" />
<path fill="#7b7471" opacity="1.00" d=" M 340.19 263.25 C 339.48 259.91 341.17 257.21 344.08 255.70 C 343.58 258.57 342.16 261.13 340.19 263.25 Z" />
<path fill="#7b7471" opacity="1.00" d=" M 345.41 270.38 C 348.98 266.19 351.46 260.93 356.07 257.72 C 354.65 262.79 350.23 266.17 347.32 270.38 C 341.48 276.69 337.60 284.79 330.78 290.16 C 333.86 282.47 340.76 277.12 345.41 270.38 Z" />
<path fill="#7b7471" opacity="1.00" d=" M 333.82 278.70 C 334.55 271.97 341.75 269.20 343.84 263.19 C 343.89 264.67 343.97 266.15 344.06 267.63 C 339.12 272.99 334.80 278.89 330.36 284.67 C 330.31 282.82 330.25 280.97 330.18 279.12 C 330.75 279.93 331.32 280.74 331.90 281.55 C 332.02 280.82 332.26 279.36 332.38 278.62 C 332.74 278.64 333.46 278.68 333.82 278.70 Z" />
</g>
<g id="#dededdff">
<path fill="#dededd" opacity="1.00" d=" M 518.97 30.03 C 523.46 37.15 522.14 45.99 522.29 53.99 C 521.84 60.75 521.78 68.28 517.65 73.99 C 518.07 72.62 518.44 71.24 518.76 69.85 C 520.34 56.98 520.74 43.57 517.01 31.00 C 517.70 31.44 519.07 32.32 519.76 32.76 C 519.56 32.07 519.17 30.71 518.97 30.03 Z" />
<path fill="#dededd" opacity="1.00" d=" M 377.71 176.05 C 378.64 176.40 380.00 176.41 380.20 177.65 C 382.16 183.21 382.31 189.19 383.07 194.99 C 384.77 212.85 386.58 230.70 388.48 248.53 C 388.88 248.49 389.67 248.42 390.07 248.38 C 387.77 253.53 386.03 258.88 384.18 264.20 C 383.91 257.96 382.73 251.83 381.74 245.68 C 380.87 240.40 383.32 235.36 383.27 230.11 C 382.36 212.00 380.21 193.99 377.71 176.05 Z" />
<path fill="#dededd" opacity="1.00" d=" M 321.03 274.58 C 323.78 277.52 322.28 282.00 322.84 285.62 C 323.60 283.99 324.36 282.35 325.16 280.73 C 325.91 283.18 324.95 285.55 323.96 287.77 C 322.94 287.34 321.94 286.92 320.93 286.49 C 319.75 288.03 318.56 289.56 317.35 291.08 C 316.68 289.83 316.01 288.58 315.34 287.34 C 317.26 286.60 319.27 285.91 320.63 284.28 C 318.99 284.47 317.37 284.73 315.75 285.01 C 315.88 283.77 316.02 282.54 316.16 281.30 C 317.60 281.88 319.05 282.46 320.50 283.03 C 320.56 280.21 320.70 277.38 321.03 274.58 Z" />
<path fill="#dededd" opacity="1.00" d=" M 186.10 428.07 C 221.98 376.40 261.06 327.08 299.74 277.51 C 300.81 278.74 301.89 279.98 302.96 281.22 C 296.28 286.01 294.43 294.37 289.70 300.67 C 283.57 308.25 282.82 318.89 284.92 328.09 C 286.33 326.65 287.73 325.19 289.13 323.75 C 290.56 324.89 291.99 326.02 293.44 327.15 C 294.54 325.54 295.65 323.95 296.76 322.36 C 297.72 325.49 298.74 328.61 299.79 331.72 C 294.85 337.74 291.21 344.69 286.67 351.01 C 293.78 349.36 295.58 339.65 302.76 339.15 C 299.39 345.24 293.77 349.78 290.92 356.19 C 294.02 354.09 296.89 351.69 299.89 349.46 C 298.71 355.46 293.53 359.33 290.13 364.07 C 290.93 364.32 291.73 364.57 292.54 364.82 C 292.62 365.89 292.69 366.96 292.77 368.05 C 295.94 364.87 299.35 361.86 303.38 359.82 C 300.85 363.77 298.07 367.58 295.81 371.71 C 297.95 370.84 300.09 369.97 302.25 369.14 C 300.86 371.59 299.41 374.01 297.91 376.40 C 299.41 376.07 300.91 375.74 302.42 375.42 C 300.60 378.58 298.76 381.74 296.97 384.93 C 302.52 380.66 306.67 374.97 311.85 370.32 C 310.54 375.84 305.56 379.40 303.14 384.41 C 304.50 384.42 305.86 384.43 307.22 384.45 C 305.96 386.86 304.67 389.26 303.36 391.65 C 304.50 391.48 305.64 391.31 306.79 391.15 C 303.55 397.44 298.58 402.51 294.38 408.05 C 293.06 415.92 286.55 420.93 282.00 426.98 C 278.04 432.23 271.41 434.30 267.10 439.15 C 254.05 456.68 236.84 471.14 226.03 490.34 C 225.35 490.12 224.67 489.91 224.00 489.70 C 224.31 494.56 220.24 498.01 219.08 502.50 C 213.34 510.50 205.75 516.88 199.04 524.02 C 173.88 550.25 143.37 571.95 108.91 584.06 C 102.55 586.29 95.98 588.33 89.15 588.19 C 90.50 580.09 95.65 573.47 99.21 566.27 C 126.18 519.00 155.19 472.87 186.10 428.07 Z" />
</g>
<g id="#c4c4c4ff">
<path fill="#c4c4c4" opacity="1.00" d=" M 411.37 156.79 C 412.20 157.79 413.03 158.80 413.81 159.85 C 415.36 162.49 416.61 165.30 417.58 168.21 C 418.95 173.56 419.65 179.06 419.97 184.57 C 419.10 193.43 412.25 199.77 408.40 207.36 C 404.76 214.44 400.95 221.65 399.48 229.55 C 398.17 234.42 395.80 239.14 392.46 242.94 C 392.57 242.68 392.78 242.16 392.89 241.90 C 396.72 232.75 400.12 223.03 399.68 212.97 C 399.44 201.61 398.79 189.56 392.14 179.87 C 398.21 171.94 404.50 164.07 411.37 156.79 Z" />
<path fill="#c4c4c4" opacity="1.00" d=" M 374.71 186.72 C 373.89 182.87 374.98 178.89 377.71 176.05 C 380.21 193.99 382.36 212.00 383.27 230.11 C 383.32 235.36 380.87 240.40 381.74 245.68 C 382.73 251.83 383.91 257.96 384.18 264.20 C 383.04 275.14 382.57 286.15 381.44 297.10 C 381.06 302.63 377.58 307.13 374.76 311.65 C 357.13 337.71 338.39 363.02 318.71 387.56 L 318.14 387.40 C 317.58 387.24 317.02 387.08 316.47 386.93 C 309.20 397.66 300.10 406.97 292.77 417.65 C 288.37 423.57 283.77 429.39 278.40 434.47 C 257.60 456.24 240.06 480.90 219.08 502.50 C 220.24 498.01 224.31 494.56 224.00 489.70 C 224.67 489.91 225.35 490.12 226.03 490.34 C 236.84 471.14 254.05 456.68 267.10 439.15 C 271.41 434.30 278.04 432.23 282.00 426.98 C 286.55 420.93 293.06 415.92 294.38 408.05 C 298.58 402.51 303.55 397.44 306.79 391.15 C 305.64 391.31 304.50 391.48 303.36 391.65 C 304.67 389.26 305.96 386.86 307.22 384.45 C 305.86 384.43 304.50 384.42 303.14 384.41 C 305.56 379.40 310.54 375.84 311.85 370.32 C 306.67 374.97 302.52 380.66 296.97 384.93 C 298.76 381.74 300.60 378.58 302.42 375.42 C 300.91 375.74 299.41 376.07 297.91 376.40 C 299.41 374.01 300.86 371.59 302.25 369.14 C 300.09 369.97 297.95 370.84 295.81 371.71 C 298.07 367.58 300.85 363.77 303.38 359.82 C 299.35 361.86 295.94 364.87 292.77 368.05 C 292.69 366.96 292.62 365.89 292.54 364.82 C 291.73 364.57 290.93 364.32 290.13 364.07 C 293.53 359.33 298.71 355.46 299.89 349.46 C 296.89 351.69 294.02 354.09 290.92 356.19 C 293.77 349.78 299.39 345.24 302.76 339.15 C 295.58 339.65 293.78 349.36 286.67 351.01 C 291.21 344.69 294.85 337.74 299.79 331.72 C 298.74 328.61 297.72 325.49 296.76 322.36 C 295.65 323.95 294.54 325.54 293.44 327.15 C 291.99 326.02 290.56 324.89 289.13 323.75 C 287.73 325.19 286.33 326.65 284.92 328.09 C 282.82 318.89 283.57 308.25 289.70 300.67 C 294.43 294.37 296.28 286.01 302.96 281.22 C 301.89 279.98 300.81 278.74 299.74 277.51 C 322.85 246.87 346.23 216.44 369.53 185.94 C 368.33 202.04 370.90 218.72 378.46 233.10 C 381.80 227.91 379.92 221.73 379.66 216.03 C 379.06 206.11 376.49 196.46 374.71 186.72 M 342.73 248.97 C 342.41 248.53 341.77 247.64 341.45 247.19 C 340.72 247.94 339.99 248.69 339.28 249.44 C 339.48 251.16 339.69 252.87 339.90 254.60 C 339.02 253.75 338.16 252.91 337.30 252.07 C 333.96 257.58 327.03 261.65 327.91 268.91 C 328.75 268.10 329.59 267.30 330.44 266.49 C 330.45 264.89 329.49 262.90 330.56 261.55 C 331.55 262.35 332.41 263.29 333.15 264.35 C 334.63 261.89 334.73 259.03 334.58 256.24 C 335.28 257.35 335.98 258.46 336.68 259.58 C 340.86 253.91 344.16 247.44 349.70 242.91 C 349.32 241.36 348.95 239.81 348.59 238.26 C 345.72 241.27 342.77 244.55 342.73 248.97 M 340.19 263.25 C 342.16 261.13 343.58 258.57 344.08 255.70 C 341.17 257.21 339.48 259.91 340.19 263.25 M 345.41 270.38 C 340.76 277.12 333.86 282.47 330.78 290.16 C 337.60 284.79 341.48 276.69 347.32 270.38 C 350.23 266.17 354.65 262.79 356.07 257.72 C 351.46 260.93 348.98 266.19 345.41 270.38 M 333.82 278.70 C 333.46 278.68 332.74 278.64 332.38 278.62 C 332.26 279.36 332.02 280.82 331.90 281.55 C 331.32 280.74 330.75 279.93 330.18 279.12 C 330.25 280.97 330.31 282.82 330.36 284.67 C 334.80 278.89 339.12 272.99 344.06 267.63 C 343.97 266.15 343.89 264.67 343.84 263.19 C 341.75 269.20 334.55 271.97 333.82 278.70 M 318.21 271.85 C 316.96 275.91 315.55 279.92 314.17 283.94 C 311.19 291.25 314.37 299.03 314.62 306.53 C 317.18 306.66 319.75 306.75 322.32 306.80 C 323.43 302.85 324.71 298.95 326.09 295.09 C 329.27 287.72 326.08 279.77 325.74 272.17 C 323.23 272.04 320.72 271.92 318.21 271.85 Z" />
<path fill="#c4c4c4" opacity="1.00" d=" M 318.45 293.06 C 319.44 291.83 320.45 290.61 321.44 289.38 C 322.46 290.74 323.51 292.08 324.58 293.42 C 324.44 294.15 324.31 294.89 324.18 295.63 C 323.35 295.16 322.52 294.68 321.70 294.22 C 322.69 297.02 323.23 300.03 321.48 302.67 C 320.43 301.83 319.42 301.01 318.39 300.17 C 318.17 301.63 317.93 303.08 317.69 304.54 C 316.04 301.07 316.33 297.02 314.18 293.72 C 315.48 293.46 316.78 293.20 318.08 292.94 C 317.84 294.00 317.59 295.06 317.35 296.12 C 317.67 296.30 318.30 296.65 318.62 296.82 C 319.37 296.11 320.14 295.42 320.90 294.71 C 320.29 294.30 319.06 293.48 318.45 293.06 Z" />
</g>
</svg>
