<?xml version="1.0" encoding="utf-8"?>
<!-- Generator: Adobe Illustrator 19.0.0, SVG Export Plug-In . SVG Version: 6.00 Build 0)  -->
<svg version="1.1" id="Layer_1" xmlns="http://www.w3.org/2000/svg" xmlns:xlink="http://www.w3.org/1999/xlink" x="0px" y="0px"
	 width="600px" height="600px" viewBox="-5 97 600 600" style="enable-background:new -5 97 600 600;" xml:space="preserve">
<style type="text/css">
	.st0{fill:#1A1A1A;stroke:#1A1A1A;stroke-width:9.375000e-002;}
	.st1{fill:#353437;stroke:#353437;stroke-width:9.375000e-002;}
	.st2{fill:#706D6C;stroke:#706D6C;stroke-width:9.375000e-002;}
	.st3{fill:#686466;stroke:#686466;stroke-width:9.375000e-002;}
	.st4{fill:#BAB1AC;stroke:#BAB1AC;stroke-width:9.375000e-002;}
	.st5{fill:#A49C98;stroke:#A49C98;stroke-width:9.375000e-002;}
	.st6{fill:#8D8684;stroke:#8D8684;stroke-width:9.375000e-002;}
	.st7{fill:#D4C9C3;stroke:#D4C9C3;stroke-width:9.375000e-002;}
	.st8{fill:#ABA2A0;stroke:#ABA2A0;stroke-width:9.375000e-002;}
	.st9{fill:#E1D7D0;stroke:#E1D7D0;stroke-width:9.375000e-002;}
	.st10{fill:#817F7F;stroke:#817F7F;stroke-width:9.375000e-002;}
	.st11{fill:#A19B99;stroke:#A19B99;stroke-width:9.375000e-002;}
	.st12{fill:#AAA39F;stroke:#AAA39F;stroke-width:9.375000e-002;}
	.st13{fill:#808183;stroke:#808183;stroke-width:9.375000e-002;}
	.st14{fill:#8A898A;stroke:#8A898A;stroke-width:9.375000e-002;}
	.st15{fill:#7E7E80;stroke:#7E7E80;stroke-width:9.375000e-002;}
	.st16{fill:#7A7A7C;stroke:#7A7A7C;stroke-width:9.375000e-002;}
	.st17{fill:#808082;stroke:#808082;stroke-width:9.375000e-002;}
	.st18{fill:#7B7B7D;stroke:#7B7B7D;stroke-width:9.375000e-002;}
	.st19{fill:#6E6F72;stroke:#6E6F72;stroke-width:9.375000e-002;}
	.st20{fill:#605F62;stroke:#605F62;stroke-width:9.375000e-002;}
	.st21{fill:#424346;stroke:#424346;stroke-width:9.375000e-002;}
	.st22{fill:#5B5B5D;stroke:#5B5B5D;stroke-width:9.375000e-002;}
	.st23{fill:#2F333E;stroke:#2F333E;stroke-width:9.375000e-002;}
	.st24{fill:#060708;stroke:#060708;stroke-width:9.375000e-002;}
	.st25{fill:#050505;stroke:#050505;stroke-width:9.375000e-002;}
	.st26{fill:#060706;stroke:#060706;stroke-width:9.375000e-002;}
	.st27{fill:#050506;stroke:#050506;stroke-width:9.375000e-002;}
	.st28{fill:#464955;stroke:#464955;stroke-width:9.375000e-002;}
	.st29{fill:#51545D;stroke:#51545D;stroke-width:9.375000e-002;}
	.st30{fill:#484D57;stroke:#484D57;stroke-width:9.375000e-002;}
	.st31{fill:#808086;stroke:#808086;stroke-width:9.375000e-002;}
	.st32{fill:#E1DFDF;stroke:#E1DFDF;stroke-width:9.375000e-002;}
	.st33{fill:#C2C0C2;stroke:#C2C0C2;stroke-width:9.375000e-002;}
	.st34{fill:#E0DFDD;stroke:#E0DFDD;stroke-width:9.375000e-002;}
	.st35{fill:#EAE8EA;stroke:#EAE8EA;stroke-width:9.375000e-002;}
	.st36{fill:#D4D2D1;stroke:#D4D2D1;stroke-width:9.375000e-002;}
	.st37{fill:#D2D1CF;stroke:#D2D1CF;stroke-width:9.375000e-002;}
	.st38{fill:#BFBEC1;stroke:#BFBEC1;stroke-width:9.375000e-002;}
	.st39{fill:#8A8A8E;stroke:#8A8A8E;stroke-width:9.375000e-002;}
	.st40{fill:#646366;stroke:#646366;stroke-width:9.375000e-002;}
	.st41{fill:#B3AFB1;stroke:#B3AFB1;stroke-width:9.375000e-002;}
	.st42{fill:#ACABAE;stroke:#ACABAE;stroke-width:9.375000e-002;}
	.st43{fill:#9E9C9F;stroke:#9E9C9F;stroke-width:9.375000e-002;}
	.st44{fill:#9E9B9F;stroke:#9E9B9F;stroke-width:9.375000e-002;}
	.st45{fill:#111011;stroke:#111011;stroke-width:9.375000e-002;}
	.st46{fill:#191718;stroke:#191718;stroke-width:9.375000e-002;}
	.st47{fill:#C2C1BF;stroke:#C2C1BF;stroke-width:9.375000e-002;}
	.st48{fill:#D2D1D1;stroke:#D2D1D1;stroke-width:9.375000e-002;}
	.st49{fill:#D5D4D2;stroke:#D5D4D2;stroke-width:9.375000e-002;}
	.st50{fill:#C3C2C0;stroke:#C3C2C0;stroke-width:9.375000e-002;}
	.st51{fill:#5C5F68;stroke:#5C5F68;stroke-width:9.375000e-002;}
	.st52{fill:#464850;stroke:#464850;stroke-width:9.375000e-002;}
	.st53{fill:#4A4D55;stroke:#4A4D55;stroke-width:9.375000e-002;}
	.st54{fill:#545860;stroke:#545860;stroke-width:9.375000e-002;}
	.st55{fill:#CFCECD;stroke:#CFCECD;stroke-width:9.375000e-002;}
	.st56{fill:#626067;stroke:#626067;stroke-width:9.375000e-002;}
	.st57{fill:#E0E0DE;stroke:#E0E0DE;stroke-width:9.375000e-002;}
	.st58{fill:#777E82;stroke:#777E82;stroke-width:9.375000e-002;}
	.st59{fill:#AAA9AA;stroke:#AAA9AA;stroke-width:9.375000e-002;}
	.st60{fill:#4E4E59;stroke:#4E4E59;stroke-width:9.375000e-002;}
	.st61{fill:#E4E4E4;stroke:#E4E4E4;stroke-width:9.375000e-002;}
	.st62{fill:#51555E;stroke:#51555E;stroke-width:9.375000e-002;}
	.st63{fill:#E1E2E0;stroke:#E1E2E0;stroke-width:9.375000e-002;}
	.st64{fill:#88868A;stroke:#88868A;stroke-width:9.375000e-002;}
	.st65{fill:#D6D6D4;stroke:#D6D6D4;stroke-width:9.375000e-002;}
	.st66{fill:#E3E3E0;stroke:#E3E3E0;stroke-width:9.375000e-002;}
	.st67{fill:#7B7A7C;stroke:#7B7A7C;stroke-width:9.375000e-002;}
	.st68{fill:#9D999C;stroke:#9D999C;stroke-width:9.375000e-002;}
	.st69{fill:#C8C7C6;stroke:#C8C7C6;stroke-width:9.375000e-002;}
	.st70{fill:#BDBABC;stroke:#BDBABC;stroke-width:9.375000e-002;}
	.st71{fill:#F2F0F1;stroke:#F2F0F1;stroke-width:9.375000e-002;}
	.st72{fill:#F6F4F6;stroke:#F6F4F6;stroke-width:9.375000e-002;}
	.st73{fill:#272B30;stroke:#272B30;stroke-width:9.375000e-002;}
	.st74{fill:#232529;stroke:#232529;stroke-width:9.375000e-002;}
	.st75{fill:#050404;stroke:#050404;stroke-width:9.375000e-002;}
	.st76{fill:#1E1D21;stroke:#1E1D21;stroke-width:9.375000e-002;}
	.st77{fill:#292D33;stroke:#292D33;stroke-width:9.375000e-002;}
	.st78{fill:#191919;stroke:#191919;stroke-width:9.375000e-002;}
	.st79{fill:#040404;stroke:#040404;stroke-width:9.375000e-002;}
	.st80{fill:#1E1E1F;stroke:#1E1E1F;stroke-width:9.375000e-002;}
	.st81{fill:#262A30;stroke:#262A30;stroke-width:9.375000e-002;}
	.st82{fill:#9A9899;stroke:#9A9899;stroke-width:9.375000e-002;}
	.st83{fill:#181617;stroke:#181617;stroke-width:9.375000e-002;}
	.st84{fill:#0B0F12;stroke:#0B0F12;stroke-width:9.375000e-002;}
	.st85{fill:#BBBCBD;stroke:#BBBCBD;stroke-width:9.375000e-002;}
	.st86{fill:#101012;stroke:#101012;stroke-width:9.375000e-002;}
	.st87{fill:#87878D;stroke:#87878D;stroke-width:9.375000e-002;}
	.st88{fill:#919193;stroke:#919193;stroke-width:9.375000e-002;}
	.st89{fill:#CBCBC9;stroke:#CBCBC9;stroke-width:9.375000e-002;}
	.st90{fill:#BEBEBC;stroke:#BEBEBC;stroke-width:9.375000e-002;}
	.st91{fill:#504D55;stroke:#504D55;stroke-width:9.375000e-002;}
	.st92{fill:#DBDAD8;stroke:#DBDAD8;stroke-width:9.375000e-002;}
	.st93{fill:#DBDBD9;stroke:#DBDBD9;stroke-width:9.375000e-002;}
	.st94{fill:#E9E9E9;stroke:#E9E9E9;stroke-width:9.375000e-002;}
	.st95{fill:#ECEAEB;stroke:#ECEAEB;stroke-width:9.375000e-002;}
	.st96{fill:#262A2E;stroke:#262A2E;stroke-width:9.375000e-002;}
	.st97{fill:#19181B;stroke:#19181B;stroke-width:9.375000e-002;}
	.st98{fill:#040405;stroke:#040405;stroke-width:9.375000e-002;}
	.st99{fill:#1E1E22;stroke:#1E1E22;stroke-width:9.375000e-002;}
	.st100{fill:#1B1C1E;stroke:#1B1C1E;stroke-width:9.375000e-002;}
	.st101{fill:#282A30;stroke:#282A30;stroke-width:9.375000e-002;}
	.st102{fill:#374048;stroke:#374048;stroke-width:9.375000e-002;}
	.st103{fill:#535559;stroke:#535559;stroke-width:9.375000e-002;}
	.st104{fill:#565A5F;stroke:#565A5F;stroke-width:9.375000e-002;}
	.st105{fill:#797B84;stroke:#797B84;stroke-width:9.375000e-002;}
	.st106{fill:#414245;stroke:#414245;stroke-width:9.375000e-002;}
	.st107{fill:#59595B;stroke:#59595B;stroke-width:9.375000e-002;}
	.st108{fill:#737374;stroke:#737374;stroke-width:9.375000e-002;}
	.st109{fill:#7C7C7F;stroke:#7C7C7F;stroke-width:9.375000e-002;}
	.st110{fill:#818183;stroke:#818183;stroke-width:9.375000e-002;}
	.st111{fill:#979494;stroke:#979494;stroke-width:9.375000e-002;}
	.st112{fill:#949090;stroke:#949090;stroke-width:9.375000e-002;}
	.st113{fill:#B5ACA8;stroke:#B5ACA8;stroke-width:9.375000e-002;}
	.st114{fill:#BFB7B4;stroke:#BFB7B4;stroke-width:9.375000e-002;}
	.st115{fill:#999696;stroke:#999696;stroke-width:9.375000e-002;}
	.st116{fill:#9D9998;stroke:#9D9998;stroke-width:9.375000e-002;}
	.st117{fill:#D4C8C2;stroke:#D4C8C2;stroke-width:9.375000e-002;}
	.st118{fill:#9B9290;stroke:#9B9290;stroke-width:9.375000e-002;}
	.st119{fill:#C6BDB8;stroke:#C6BDB8;stroke-width:9.375000e-002;}
	.st120{fill:#787474;stroke:#787474;stroke-width:9.375000e-002;}
	.st121{fill:#494A4B;stroke:#494A4B;stroke-width:9.375000e-002;}
	.st122{fill:#282829;stroke:#282829;stroke-width:9.375000e-002;}
	.st123{fill:#444243;stroke:#444243;stroke-width:9.375000e-002;}
	.st124{fill:#0F0F0F;stroke:#0F0F0F;stroke-width:9.375000e-002;}
</style>
<path class="st0" d="M595,103.6c-41.7-0.2-84.1-0.6-125.1-0.9c-61.8-0.5-125.7-1.1-188.5-1.1c-17.7,0-35,0-51.3,0.1
	c-6.3,0.5-12.7,0.8-19.7,0.8c-7.5,0-15.4-0.3-24.3-0.9c-14.2,0-28.3,0-42.5,0c-0.1,0-0.1,0-0.2,0c-17.6,0-35.2,0-52.8,0
	c-17.7,0-35.3,0-53,0c-14.2,0-28.3,0-42.5,0l0-4.6l600,0V103.6L595,103.6z"/>
<path class="st0" d="M-5,97h600v6.5c-121.7-0.6-243.3-2.5-365-1.8c-14.6,1.3-29.4,0.9-44-0.1c-63.7,0.1-127.3-0.1-191,0V97z"/>
<path class="st1" d="M595,107.4c-32.5,0-65.5-0.2-97.5-0.4c-33.3-0.2-67.8-0.5-101.7-0.5c-9,0-17.9,0-26.9,0.1
	c-87.6-0.1-176.5-0.3-262.5-0.6c-37.2-0.1-74.3-0.2-111.5-0.3l0-4.2c14.2-0.1,28.4-0.1,42.5-0.1c17.7,0,35.4,0,53,0
	c17.7,0,35.3,0,53,0c14.2,0,28.3,0,42.5,0c8.9,0.6,16.8,0.9,24.3,0.9c7,0,13.4-0.3,19.7-0.8c16.3-0.1,33.6-0.1,51.3-0.1
	c62.9,0,126.8,0.5,188.5,1.1c41,0.3,83.4,0.7,125.1,0.9V107.4L595,107.4z"/>
<path class="st1" d="M-5,101.6c63.7-0.1,127.3,0.1,191,0c14.6,1,29.4,1.4,44,0.1c121.7-0.6,243.3,1.3,365,1.8v3.8
	c-75.3,0-150.6-1.1-226-0.8c-124.8-0.1-249.2-0.5-374-0.8V101.6z"/>
<path class="st2" d="M369,108.7c-46.2,0-92.4,0-138.7-0.1c-62,0-124.1-0.1-186.1-0.1c-16.4,0-32.8,0-49.2,0l0-2.9
	c37.2,0,74.4,0.1,111.5,0.2c86,0.2,174.9,0.5,262.5,0.6C369,107,369,108.1,369,108.7L369,108.7L369,108.7z"/>
<path class="st2" d="M-5,105.7c124.8,0.3,249.2,0.7,374,0.8c0,0.5,0,1.6,0,2.1c-124.7,0-249.3-0.2-374-0.1V105.7z"/>
<path class="st3" d="M583.1,109.5c-3.4,0-6.8-0.1-10.1-0.1c-3.3-0.1-6.8-0.1-10.1-0.1c-3.4,0-6.4,0.1-9.2,0.2c-3.1,0-6.2,0-9.3,0
	c-17.7,0-35.8-0.2-53.2-0.5c-17.4-0.2-35.5-0.5-53.2-0.5c-11.2,0-21.3,0.1-30.9,0.3c-4.5-0.1-9.3-0.2-15.6-0.2c-2.6,0-5.2,0-7.8,0
	c-2.6,0-5.2,0-7.8,0c-2.3,0-4.6,0-6.8,0c0-0.6,0-1.6,0-2.2c9-0.1,18-0.1,26.9-0.1c33.9,0,68.4,0.2,101.7,0.5
	c31.9,0.2,65,0.4,97.5,0.5l0,1.8C591.4,109.4,587.7,109.5,583.1,109.5z"/>
<path class="st3" d="M369,106.5c75.4-0.3,150.7,0.8,226,0.8v1.8c-13.8,0.8-27.6-0.3-41.4,0.3c-48.8,0.2-97.7-1.6-146.5-0.6
	c-12.7-0.3-25.4-0.1-38.1-0.2C369,108.1,369,107,369,106.5z"/>
<path class="st4" d="M488.4,124.3c-2.5-0.5-5.2-0.8-8.6-0.8c-2.2,0-4.5,0.1-6.7,0.2c-2.2,0.1-4.5,0.2-6.7,0.2c-1.3,0-2.6,0-3.7-0.1
	c-11.1-0.1-22.3-0.1-33.2-0.1c-17.1,0-34.8,0-52.2-0.4c4.4-1.8,9-2,12.9-2c1.7,0,3.4,0.1,5.1,0.1l1.8,0.1c5.8,0.1,11.8,0.1,18,0.1
	c23.3,0,46.3-0.6,67.9-1.3c1-0.3,2.1-0.5,3.4-0.5c1,0,2,0.1,2.9,0.2c0.9,0.1,1.9,0.2,2.9,0.2c2,0,4.3-0.3,6.2-2.4
	c1.4,0.5,2.7,0.9,4,1.4c0.3-0.2,0.7-0.6,1.2-0.9l1.2-0.8c-6.4-2.6-13.4-2.7-20.2-2.8c-3.4,0-7-0.1-10.4-0.5l-36.4-0.4
	c-94.7-1.1-192.6-2.1-289-2.1c-6.2,0-12.4,0-18.6,0c-13.5,0.1-27.2,0.3-40.4,0.4c-23.4,0.3-47.6,0.6-71.4,0.6
	c-8.2,0-15.7,0-23.2-0.1l0-4c16.4-0.1,32.8-0.1,49.2-0.1c62.1,0,124.1,0,186.2,0.1c46.2,0,92.4,0,138.6,0.1c2.3,0,4.6,0,6.9,0
	c2.6,0,5.2,0,7.8,0c2.6,0,5.2,0,7.8,0c6.3,0,11.1,0.1,15.6,0.2c4.2,1.4,8.7,1.5,12.6,1.5c0.7,0,3.5,0,4.2,0c0.7,0,1.4,0,2,0
	c52.4,0.4,99.6,1.1,147.1,5.7c0.3,0.1,1,0.2,1.4,0.3l0.1,0c1.1-0.2,2.1-0.5,3.2-0.7l0.3-0.1c-0.6,1.2-1.3,2.4-1.9,3.5l-0.8,1.3
	c-1.2-0.4-2.4-0.9-3.5-1.3l-2.1-0.8c-1,1.3-2,2.5-3,3.8c-11.3,0.4-22.8,0.7-33.9,1C518.3,123.2,503.2,123.5,488.4,124.3L488.4,124.3
	L488.4,124.3z"/>
<path class="st4" d="M-5,108.5c124.7,0,249.3,0.1,374,0.1c12.7,0.1,25.4-0.2,38.1,0.2c6.1,2,12.6,1.4,18.9,1.5
	c49.1,0.4,98.3,1,147.1,5.7c0.4,0.1,1.1,0.2,1.5,0.3c1.2-0.2,2.4-0.5,3.6-0.8c-0.9,1.6-1.8,3.2-2.8,4.8c-1.9-0.7-3.7-1.5-5.5-2.2
	c-1,1.3-2.1,2.5-3.1,3.8c-26.1,1-52.2,1.1-78.3,2.4c-8.5-1.7-17.2,0.1-25.7-0.4c-28.5-0.3-57,0.1-85.5-0.5
	c6.3-2.3,13.1-1.9,19.7-1.7c28.6,0.4,57.3-0.3,85.8-1.1c5.2-1.7,11.3,2,15.4-2.6c1.3,0.5,2.6,0.9,3.9,1.4c0.6-0.4,1.8-1.3,2.4-1.7
	c-9.6-4.1-20.4-2.2-30.6-3.3c-114.7-1.3-229.3-2.7-344-2.5c-45,0.4-89.9,1.3-135,0.9V108.5z"/>
<path class="st5" d="M573,116c-47.4-4.5-94.7-5.2-147.1-5.7c-0.7,0-1.4,0-2,0c-0.7,0-3.5,0-4.2,0c-3.9,0-8.4-0.1-12.6-1.5
	c9.6-0.3,19.7-0.4,30.9-0.4c17.7,0,35.8,0.2,53.2,0.5s35.5,0.5,53.2,0.5c3.1,0,6.2,0,9.3,0c3.8,0.5,7.3,1.5,11.3,2.6
	c1.8-0.5,3.7-0.7,5.9-0.7c2.9,0,5.8,0.4,8.5,0.8C577.4,113.2,575.5,114.4,573,116L573,116L573,116z"/>
<path class="st5" d="M407.1,108.8c48.9-0.9,97.7,0.9,146.5,0.6c3.8,0.5,7.6,1.5,11.3,2.6c4.8-1.2,9.6-0.6,14.4,0.2
	c-2.1,1.2-4.2,2.5-6.2,3.8c-48.8-4.6-98-5.3-147.1-5.7C419.6,110.2,413.2,110.8,407.1,108.8z"/>
<path class="st6" d="M595,112.9c-2.5-0.2-5.1-0.3-7.6-0.4c-2.7-0.1-5.4-0.2-8.2-0.4c-2.7-0.4-5.6-0.8-8.5-0.8
	c-2.1,0-4.1,0.2-5.9,0.7c-4-1.1-7.5-2.1-11.3-2.6c2.8-0.2,5.8-0.3,9.2-0.3c3.4,0,6.8,0.1,10.1,0.1s6.8,0.1,10.1,0.1
	c4.6,0,8.4-0.1,11.9-0.3V112.9L595,112.9z"/>
<path class="st6" d="M553.6,109.4c13.8-0.6,27.6,0.5,41.4-0.3v3.8c-5.3-0.3-10.5-0.4-15.8-0.7c-4.8-0.8-9.6-1.3-14.4-0.2
	C561.2,110.9,557.4,109.9,553.6,109.4z"/>
<path class="st7" d="M80.6,123.6c-9.9-1-20.7-1.5-34.1-1.5c-7.7,0-15.6,0.2-23.2,0.3c-7.6,0.1-15.4,0.3-23.1,0.3c0,0,0,0,0,0
	c-1.2,0-2.4,0-3.6,0c-0.3-0.3-0.6-0.7-0.9-1l-0.7-0.9l0-8.3c7.5,0,15.1,0,23.2,0c23.8,0,48-0.3,71.4-0.6c13.3-0.2,27-0.3,40.4-0.4
	c6.2,0,12.4,0,18.6,0c96.4,0,194.3,1.1,288.9,2.1l36.4,0.4c3.4,0.4,6.9,0.4,10.4,0.5c6.8,0.1,13.9,0.2,20.2,2.9l-1.2,0.9
	c-0.5,0.3-0.9,0.7-1.3,0.9c-1.4-0.5-2.7-0.9-4-1.4c-1.9,2.2-4.2,2.4-6.2,2.4c-0.9,0-1.9-0.1-2.9-0.2c-1-0.1-2-0.2-2.9-0.2
	c-1.3,0-2.4,0.1-3.4,0.5c-21.6,0.6-44.6,1.3-67.9,1.3c-6.2,0-12.2,0-18-0.1l-1.8-0.1c-1.7,0-3.4-0.1-5.1-0.1
	c-3.9,0-8.4,0.2-12.9,1.9l-1.7,0c-4.2-0.8-8.4-0.9-12.4-0.9l-3.7,0c-2.1,0-4.4,0-6.8-0.2c-5.1-1.5-10.4-1.6-15.4-1.6l-1.6,0
	c2.2-0.8,4.6-0.9,6.7-0.9c0.6,0,1.3,0,1.9,0c0.6,0,1.3,0,1.9,0c3.3,0,7.2-0.2,10.3-2.7c-10.8-1.5-21.7-1.7-30-1.7
	c-4.2,0-8.6,0.1-12.8,0.1c-4.2,0.1-8.5,0.1-12.8,0.1c-8.3,0-15-0.2-21.1-0.7c-17.6-0.2-36.5-0.3-57.6-0.3c-26.2,0-52.7,0.2-78.5,0.3
	c-7.6,0-15.3,0.1-22.9,0.1c-0.8,0.1-1.6,0.1-2.5,0.2c-5,0.3-10.1,0.7-14.5,3.3c3.4,0.9,7.1,1.1,10.6,1.3c4.4,0.2,8.9,0.5,13.1,2.3
	c-2.8,0.3-5.8,0.4-9.2,0.4c-3.5,0-7-0.1-10.4-0.2c-3.4-0.1-6.9-0.2-10.4-0.2C91,122.2,85.6,122.6,80.6,123.6L80.6,123.6z"/>
<path class="st7" d="M130,111.6c114.7-0.2,229.3,1.3,344,2.5c10.1,1.1,21-0.7,30.6,3.3c-0.6,0.4-1.8,1.3-2.4,1.7
	c-1.3-0.5-2.6-0.9-3.9-1.4c-4.1,4.6-10.2,0.9-15.4,2.6c-28.6,0.8-57.2,1.6-85.8,1.1c-6.6-0.2-13.4-0.6-19.7,1.7c-0.4,0-1.2,0-1.7,0
	c-7.5-1.4-15.2-0.5-22.9-1c-5.5-1.6-11.3-1.6-17-1.6c6.9-2,14.9,1.3,20.9-3.4c-25.3-3.6-51.1-0.1-76.6-2.3c-53-0.7-106-0.2-159,0.1
	c-5.8,0.4-11.9,0.4-17,3.5c7.8,2.3,16.2,0.5,23.7,3.8c-15.6,1.2-31.6-1.7-47,1.3l-0.1,0c-27.7-2.8-56-0.7-84-0.9
	c-0.4-0.5-1.2-1.4-1.6-1.9v-8.3C40.1,112.9,85,111.9,130,111.6z"/>
<path class="st8" d="M582.7,122.5c-3.7,0-7.4-0.2-11-0.4c-1.6-0.1-3.3-0.2-4.9-0.2c1-1.4,2-2.6,3.1-3.9l2.1,0.8
	c1.1,0.5,2.3,0.9,3.5,1.4l0.7-1.3c0.7-1.1,1.3-2.3,2-3.4l-0.3,0.2c-1.1,0.3-2.2,0.5-3.3,0.7l-0.1,0c-0.4-0.1-1-0.2-1.4-0.3
	c2.4-1.7,4.3-2.9,6.2-3.9c2.7,0.2,5.5,0.3,8.2,0.4c2.5,0.1,5.1,0.2,7.6,0.4l0,8.6C591.3,122.2,587.4,122.5,582.7,122.5z"/>
<path class="st8" d="M579.2,112.2c5.2,0.3,10.5,0.4,15.8,0.7v8.6c-9.4,1.6-18.9,0.7-28.3,0.3c1-1.3,2.1-2.6,3.1-3.8
	c1.8,0.7,3.7,1.5,5.5,2.2c0.9-1.6,1.8-3.2,2.8-4.8c-1.2,0.3-2.4,0.6-3.6,0.8c-0.4-0.1-1.1-0.2-1.5-0.3
	C575,114.6,577.1,113.3,579.2,112.2z"/>
<path class="st9" d="M296,122.5c-20.9,0-42.2-0.1-62.8-0.1c-20.6-0.1-41.8-0.1-62.8-0.1c-15.6,0-29.6,0-42.8,0.1
	c-4.2-1.8-8.7-2.1-13.1-2.3c-3.5-0.2-7.2-0.4-10.6-1.4c4.4-2.7,9.6-3.1,14.6-3.4c0.8-0.1,1.7-0.1,2.5-0.2c7.6,0,15.3-0.1,22.9-0.1
	c25.7-0.2,52.3-0.3,78.5-0.3c21.1,0,40,0.1,57.6,0.3c6.1,0.5,12.8,0.7,21.1,0.7c4.3,0,8.6-0.1,12.8-0.1c4.2-0.1,8.5-0.1,12.8-0.1
	c8.3,0,19.2,0.2,30,1.8c-3.2,2.6-7,2.8-10.4,2.8c-0.6,0-1.3,0-1.9,0c-0.6,0-1.3,0-1.9,0c-2.1,0-4.4,0.1-6.6,0.7l1.6-0.1
	c5,0,10.3,0.1,15.4,1.6C335.6,122.4,317.1,122.5,296,122.5z"/>
<path class="st9" d="M121,115c53-0.3,106-0.8,159-0.1c25.5,2.1,51.3-1.4,76.6,2.3c-6,4.7-14,1.4-20.9,3.4c5.7,0,11.5,0,17,1.6
	c-75.1,0.6-150-0.4-225,0.1c-7.5-3.3-16-1.5-23.7-3.8C109.1,115.4,115.2,115.5,121,115z"/>
<path class="st10" d="M526.4,126.7c-6.1,0-11.6-0.1-16.7-0.4c-3.5-1-7.1-1-10.6-1c-3.5,0-7.1-0.1-10.6-1c14.8-0.8,29.9-1.2,44.5-1.5
	c11.1-0.3,22.6-0.5,33.8-1c1.7,0.1,3.3,0.1,4.9,0.2c3.6,0.2,7.3,0.4,11,0.4c4.7,0,8.6-0.3,12.3-0.9l0.1,5.2
	c-6.7-0.5-14.1-0.7-22.4-0.7c-7.7,0-15.5,0.2-23.1,0.4C541.9,126.5,534.1,126.7,526.4,126.7z"/>
<path class="st10" d="M488.4,124.2c26-1.3,52.2-1.4,78.3-2.4c9.4,0.4,18.9,1.2,28.3-0.3v5.1c-28.3-2.2-56.9,1.2-85.4-0.4
	C502.7,124.3,495.4,126.1,488.4,124.2z"/>
<path class="st11" d="M29.5,125.8c-4.3-1.1-9.1-1.5-15-1.5c-3.9,0-7.8,0.2-11.6,0.4c-2.6,0.1-5.3,0.3-7.9,0.4l-0.1-4.2l0.8,0.8
	c0.3,0.4,0.6,0.8,0.9,1c0.7,0,1.4,0,2,0c0.5,0,1,0,1.5,0c7.7,0,15.5-0.2,23.1-0.3c7.6-0.1,15.5-0.3,23.2-0.3
	c13.3,0,24.2,0.5,34.1,1.5c-4.4,0.9-9.3,1.2-15.4,1.2c-3.1,0-6.3-0.1-9.3-0.2c-3.1-0.1-6.2-0.2-9.4-0.2c-6.8,0-12,0.4-16.8,1.4
	L29.5,125.8L29.5,125.8z"/>
<path class="st11" d="M-5,120.8c0.4,0.5,1.2,1.4,1.6,1.9c27.9,0.2,56.3-1.9,84,0.9c-16.7,2.9-34.2-1.1-50.9,2.1l-0.1,0
	C18.4,123,6.4,124.6-5,124.9V120.8z"/>
<path class="st12" d="M209.1,125.5c-1.7,0-3.4,0-5.1,0c-10.3-0.8-21.5-1.2-35.4-1.2c-7.2,0-14.5,0.1-21.5,0.2
	c-5.1,0.1-10.1,0.1-15.2,0.2c-2.3-0.1-4.7-0.1-7.4-0.1c-3.6,0-7.3,0.1-10.8,0.1c-3.6,0.1-7.2,0.1-10.9,0.1c-9,0-15.9-0.4-22.2-1.2
	c4.9-1,10.3-1.5,17.1-1.5c3.4,0,7,0.1,10.4,0.2c3.4,0.1,6.9,0.2,10.4,0.2c3.4,0,6.4-0.1,9.2-0.3c13.2-0.1,27.2-0.1,42.8-0.1
	c20.9,0,42.2,0.1,62.8,0.1c20.6,0.1,41.9,0.1,62.8,0.1c21,0,39.6-0.1,56.7-0.2c2.3,0.2,4.6,0.2,6.8,0.2l3.7,0c4,0,8.2,0.1,12.4,0.9
	l-0.9,0.2l-2,0.1c1.9,0.7,3.3,1.3,4.7,1.8c-2.8,0.2-5.7,0.2-8.9,0.2c-4.6,0-9.3-0.1-13.9-0.1c-4.5-0.1-9.3-0.1-13.9-0.1
	c-4.4,0-8.3,0.1-11.9,0.2c-5.8-0.7-12.2-1-20.1-1c-4,0-8.1,0.1-12,0.2c-3.9,0.1-8,0.2-12,0.2c-3.1,0-5.9,0-8.5-0.1
	c-2,0.1-4.1,0.1-6.4,0.1c-3.1,0-6.3-0.1-9.4-0.2c-3.1-0.1-6.3-0.2-9.4-0.2c-6.4,0-11.4,0.3-16.1,1.1c-0.5-0.1-1-0.2-1.5-0.3
	c-0.5-0.1-1-0.2-1.5-0.3c-1.9-0.4-3.8-0.6-5.9-0.6c-3.8,0-7.6,0.7-10.5,1.2l-2.4,0C211.7,125.5,210.4,125.5,209.1,125.5z"/>
<path class="st12" d="M80.7,123.5c15.5-2.9,31.4,0,47-1.3c75-0.4,150,0.6,225-0.1c7.6,0.5,15.3-0.4,22.9,1c-0.7,0.1-2.2,0.2-2.9,0.2
	c1.5,0.7,3.1,1.3,4.7,1.9c-16.2,0.3-32.4-0.5-48.6,0c-17.5-2.1-35.1-0.2-52.7-0.9c-13.8,0.7-27.6-1.3-41.3,1c-1-0.2-1.9-0.5-2.9-0.7
	c-5.4-1.2-11-0.4-16.4,0.6c-3.8,0-7.6,0.1-11.4,0c-24-1.9-48-1-72.1-0.8C114.9,124.1,97.5,125.7,80.7,123.5z"/>
<path class="st13" d="M190.7,127.7c-7-0.9-14.5-1.3-24.3-1.3c-4.1,0-8.2,0.1-12.2,0.1c-4,0.1-8.1,0.1-12.2,0.1
	c-4.6,0-8.6-0.1-12.2-0.3l2.1-1.8c5.1,0,10.1-0.1,15.2-0.2c7-0.1,14.3-0.2,21.5-0.2c13.9,0,25.2,0.4,35.4,1.2
	c-3.8,0.9-7.7,1.6-11.8,2.1L190.7,127.7L190.7,127.7z"/>
<path class="st13" d="M131.9,124.6c24.1-0.2,48.1-1.1,72.1,0.8c-3.9,0.9-7.8,1.5-11.8,2c-0.4,0-1.1,0.1-1.5,0.2
	c-20.2-2.6-40.6-0.3-60.9-1.3L131.9,124.6z"/>
<path class="st14" d="M449.1,126.5c-3.5,0-7.1-0.1-10.5-0.1c-3.4-0.1-7-0.1-10.4-0.1c-3.6,0-6.8,0.1-9.7,0.2
	c-3.3-0.4-6.9-0.5-11.2-0.5c-2.7,0-5.5,0.1-8.2,0.1c-2.7,0.1-5.4,0.1-8.2,0.1c-5.3,0-9.6-0.3-13.6-0.8c-1.4-0.5-2.8-1.1-4.7-1.9
	l2-0.2l0.9-0.1l1.7,0c17.4,0.4,35.1,0.4,52.2,0.4c10.9,0,22.2,0,33.2,0.1c0.9,0.8,1.8,1.6,2.7,2.4c-0.4,0-1-0.2-1.3-0.3
	C459.7,126.3,454.9,126.5,449.1,126.5z"/>
<path class="st14" d="M372.6,123.4c0.7-0.1,2.2-0.2,2.9-0.2c0.4,0,1.3,0,1.7,0c28.5,0.6,57,0.3,85.5,0.5c0.9,0.8,1.8,1.6,2.7,2.4
	c-0.3-0.1-1-0.3-1.3-0.4c-15.2,1.4-30.6-0.2-45.7,0.6c-13.6-1.5-27.4,0.8-41.1-1.1C375.7,124.7,374.2,124.1,372.6,123.4z"/>
<path class="st15" d="M-5,124.9c2.6-0.1,5.3-0.3,7.9-0.4c3.8-0.2,7.8-0.4,11.6-0.4c5.9,0,10.7,0.5,15,1.6c-3.6,0.8-7.6,1.1-12.7,1.1
	c-2.1,0-4.2,0-6.3-0.1c-2.1,0-4.2-0.1-6.3-0.1c-3.6,0-6.5,0.1-9.2,0.4L-5,124.9z"/>
<path class="st15" d="M-5,124.9c11.4-0.3,23.4-1.9,34.5,0.8c-11.4,2.1-23.1-0.1-34.5,1.2V124.9z"/>
<path class="st16" d="M74.8,126.8c-17.7,0-32-0.3-45.2-1c4.8-1,10-1.5,16.8-1.5c3.1,0,6.3,0.1,9.4,0.2c3.1,0.1,6.2,0.2,9.3,0.2
	c6.1,0,11-0.4,15.4-1.1c6.4,0.8,13.3,1.1,22.3,1.1c3.6,0,7.3-0.1,10.9-0.1c3.6-0.1,7.2-0.1,10.8-0.1c2.7,0,5.1,0,7.4,0.1l-2,1.8
	c-8.3,0-16.8,0.1-25,0.2C95,126.7,84.9,126.8,74.8,126.8z"/>
<path class="st16" d="M29.7,125.7c16.7-3.3,34.2,0.8,50.9-2.1l0.1,0c16.9,2.1,34.2,0.6,51.3,1l-2.1,1.8
	C96.7,126.4,62.9,127.5,29.7,125.7z"/>
<path class="st17" d="M230.1,127.6c-0.9-0.6-1.8-1.2-2.7-1.7c-1.5,0.3-3.1,0.4-4.7,0.4c-2.3,0-4.7-0.3-7.3-0.8
	c2.9-0.7,6.6-1.3,10.5-1.3c2.1,0,4.1,0.2,5.9,0.6l-0.7,1.3C230.8,126.5,230.1,127.6,230.1,127.6L230.1,127.6z"/>
<path class="st17" d="M215.4,125.4c5.4-1.1,10.9-1.8,16.4-0.6c-0.6,0.9-1.1,1.9-1.7,2.8c-0.9-0.6-1.8-1.2-2.7-1.7
	C223.4,126.6,219.4,126.3,215.4,125.4z"/>
<path class="st18" d="M271.4,126.7c-13.6,0-25.6-0.4-36.7-1.2c4.6-0.9,9.7-1.2,16.1-1.2c3.1,0,6.3,0.1,9.4,0.2
	c3.1,0.1,6.3,0.2,9.4,0.2c2.4,0,4.5,0,6.4-0.1c2.6,0.1,5.4,0.1,8.5,0.1c4,0,8.1-0.1,12-0.2c3.9-0.1,8-0.2,12-0.2
	c7.9,0,14.3,0.3,20.1,1c-4.3,0.2-8.6,0.4-12.9,0.5C301.3,126.2,286.2,126.7,271.4,126.7z"/>
<path class="st18" d="M234.7,125.4c13.7-2.3,27.5-0.3,41.3-1c17.5,0.7,35.2-1.2,52.7,0.9C297.5,126.2,265.9,127.8,234.7,125.4z"/>
<path class="st19" d="M465.4,126.2c-0.9-0.8-1.8-1.6-2.7-2.4c0.1,0,0.2,0,0.4,0c1.1,0,2.2,0,3.4,0c2.2,0,4.5-0.1,6.7-0.2
	c2.2-0.1,4.5-0.2,6.7-0.2c3.3,0,6,0.2,8.6,0.8c3.5,1,7.1,1,10.6,1c3.5,0,7.1,0.1,10.6,1c-9.8,1.2-19.9,1.2-29.6,1.2
	c-4.3,0-8.7,0-13,0.1l0,0L465.4,126.2z"/>
<path class="st19" d="M462.7,123.8c8.6,0.6,17.2-1.3,25.7,0.4c7,1.9,14.3,0.1,21.2,2c-14.2,1.5-28.4,0.9-42.6,1.3
	c-0.4-0.3-1.2-1-1.6-1.4C464.5,125.4,463.6,124.6,462.7,123.8z"/>
<path class="st20" d="M215,130c-2-0.3-4.1-0.3-5.8-0.3c-0.8,0-1.5,0-2.3,0c-0.8,0-1.5,0-2.3,0c-3.9,0-8.4-0.2-12.5-2.3
	c4-0.6,8-1.3,11.8-2.1c1.7,0,3.4,0,5.1,0c1.3,0,2.6,0,3.9,0l2.4,0c2.6,0.6,5,0.8,7.3,0.8c1.6,0,3.2-0.1,4.7-0.4
	c0.9,0.6,1.8,1.2,2.7,1.7c0.2-0.5,0.6-1,0.9-1.6l0.7-1.2c0.5,0.1,1,0.2,1.5,0.3c0.5,0.1,1,0.2,1.5,0.3c11.1,0.8,23.1,1.2,36.7,1.2
	c14.8,0,29.9-0.5,44.4-0.9c4.3-0.1,8.6-0.3,12.9-0.4c3.6-0.1,7.5-0.2,11.9-0.2c4.6,0,9.3,0.1,13.9,0.1c4.6,0.1,9.3,0.1,13.9,0.1
	c3.2,0,6.2,0,8.9-0.1c3.9,0.5,8.2,0.8,13.5,0.8c2.7,0,5.5-0.1,8.2-0.1c2.7-0.1,5.4-0.1,8.2-0.1c4.4,0,7.9,0.2,11.2,0.5
	c-13.3,1.5-26.9,1.7-40.1,1.9c-10.9,0.2-22.2,0.4-33.2,1.2c-3.6-0.6-7.1-0.7-9.8-0.7c-1.5,0-3,0-4.5,0.1c-1.5,0-3,0.1-4.4,0.1
	c-2.9,0-6.7-0.1-10.4-0.8c-15.3,1.4-30.6,1.5-43.5,1.5c-4.9,0-9.9,0-14.8-0.1c-5,0-9.9-0.1-14.9-0.1C231.5,129.5,223,129.7,215,130
	L215,130L215,130z"/>
<path class="st20" d="M204,125.4c3.8,0.1,7.6,0,11.4,0c3.9,0.8,8,1.2,12,0.4c0.9,0.6,1.8,1.2,2.7,1.7c0.6-0.9,1.1-1.9,1.7-2.8
	c1,0.2,1.9,0.4,2.9,0.7c31.1,2.3,62.7,0.8,94-0.1c16.2-0.5,32.4,0.3,48.6,0c13.7,1.9,27.4-0.4,41.1,1.1c-24.2,2.6-48.9,1.2-73.3,3
	c-9.7-1.7-19.7,0.5-29.2-1.4c-33.4,3-67.3,0.5-100.8,1.9c-7.6-1-15.7,1.1-22.8-2.5C196.2,126.9,200.1,126.3,204,125.4z"/>
<path class="st21" d="M145.8,139.3c-1.8,0-3.7-0.5-5.5-0.9c-1.8-0.4-3.6-0.9-5.4-0.9c-2.6,0.2-5.4,0.4-8.5,0.4
	c-4.9,0-10-0.3-14.8-0.6c-4.9-0.3-9.9-0.6-14.8-0.6c-6.9,0-12.5,0.6-17.8,1.9c-7.3-0.7-15.2-1.1-24.1-1.1c-9.1,0-18.3,0.4-27.2,0.7
	c-8.9,0.4-18.1,0.7-27.2,0.7c-1.9,0-3.7,0-5.6,0l0-8.6l26.8,0c15.2,0,30.5,0,45.7,0c26.6,0,61.8,0,97.5-0.4c1.1,0.1,2.2,0.2,3.2,0.2
	c2.9,0.2,5.8,0.5,8.7,0.5c5.7,0,10-0.9,13.7-3l1.5-0.2c4.1,2.1,8.6,2.3,12.5,2.3c0.8,0,1.5,0,2.3,0s1.5,0,2.3,0c1.7,0,3.8,0,5.8,0.3
	c8-0.4,16.5-0.5,27.6-0.5c5,0,9.9,0,14.9,0.1c4.9,0,9.9,0.1,14.8,0.1c12.9,0,28.2-0.2,43.5-1.5c3.7,0.7,7.5,0.8,10.4,0.8
	c1.5,0,3,0,4.4-0.1c1.5,0,3-0.1,4.5-0.1c2.7,0,6.3,0.1,9.9,0.7c11-0.9,22.3-1,33.2-1.2c13.2-0.2,26.9-0.4,40.1-1.8
	c2.9-0.2,6.1-0.2,9.8-0.2c3.5,0,7,0.1,10.4,0.1c3.4,0.1,7,0.1,10.5,0.1c5.9,0,10.6-0.2,15-0.6c0.3,0.1,1,0.3,1.3,0.4l1.7,1.4
	c4.3-0.1,8.7-0.1,13-0.2c9.7,0,19.8-0.1,29.6-1.2c5.1,0.3,10.6,0.4,16.7,0.4c7.7,0,15.6-0.2,23.1-0.4c7.6-0.2,15.4-0.4,23.1-0.4
	c8.4,0,15.7,0.3,22.4,0.8l0,5.8c-35.4,0.5-71.3,0.8-106.1,1.1c-60,0.5-122.1,1-183,2.4c-11.3,0.6-23.7,0.9-39,0.9
	c-8.2,0-16.5-0.1-24.6-0.2c-8.1-0.1-16.4-0.2-24.6-0.2c-11,0-20.2,0.1-28.8,0.4c-3.1,0.5-6.5,0.7-10.7,0.7c-2.4,0-4.9-0.1-7.2-0.1
	c-2.4-0.1-4.8-0.1-7.2-0.1c-4.4,0-10.1,0.2-15.8,1.7C147.4,139.2,146.6,139.3,145.8,139.3z"/>
<path class="st21" d="M418.4,126.4c15.1-0.8,30.5,0.9,45.7-0.6c0.3,0.1,1,0.3,1.3,0.4c0.4,0.3,1.2,1,1.6,1.4
	c14.2-0.4,28.5,0.2,42.6-1.3c28.4,1.5,57.1-1.9,85.4,0.4v5.8c-96.2,1.3-192.9,1.2-289,3.5c-38.9,2.1-78-0.3-117,1
	c-13.6,2-27.6-1.5-40.9,2.1c-4.5,1.1-8.7-1.5-13.1-1.6c-18.6,1.7-37.5-3.5-56,1c-28-2.8-56,0.8-84,0.3v-8.5
	c56.7,0,113.4,0.2,170.1-0.3c8.5,0.6,17.9,2,25.7-2.3c0.4-0.1,1.1-0.2,1.5-0.2c7.1,3.6,15.2,1.6,22.8,2.5c33.6-1.5,67.4,1,100.8-1.9
	c9.5,1.9,19.5-0.3,29.2,1.4C369.4,127.6,394.2,129,418.4,126.4z"/>
<path class="st22" d="M177,130.7c-2.9,0-5.9-0.2-8.7-0.5c-1.1-0.1-2.2-0.2-3.2-0.2c-35.8,0.3-70.9,0.4-97.5,0.4
	c-15.2,0-30.5,0-45.7,0l-26.8,0l0-3.3c2.7-0.4,5.7-0.5,9.3-0.5c2.1,0,4.2,0,6.3,0.1c2.1,0,4.2,0.1,6.3,0.1c5.2,0,9.1-0.3,12.7-1
	l0.1,0c13.2,0.7,27.5,1,45.2,1c10,0,20.2-0.1,30.1-0.2c8.2-0.1,16.7-0.2,24.9-0.2c3.7,0.2,7.7,0.3,12.2,0.3c4.1,0,8.2-0.1,12.2-0.1
	c4-0.1,8.1-0.1,12.2-0.1c9.9,0,17.4,0.4,24.3,1.3C187.1,129.7,182.7,130.7,177,130.7z"/>
<path class="st22" d="M29.5,125.7l0.1,0c33.3,1.8,67,0.7,100.2,0.6c20.3,1,40.7-1.3,60.9,1.3c-7.8,4.3-17.2,2.8-25.7,2.3
	c-56.6,0.5-113.3,0.4-170.1,0.3v-3.3C6.5,125.6,18.2,127.8,29.5,125.7z"/>
<path class="st23" d="M19.3,661c-8.7,0-16.7-0.1-24.3-0.4l0-521.8c0.7,0,1.4,0,2,0c1.2,0,2.4,0,3.6,0c9.1,0,18.3-0.4,27.2-0.7
	c8.9-0.4,18.1-0.7,27.2-0.7c8.9,0,16.8,0.4,24.1,1.1c5.3-1.3,10.9-1.9,17.8-1.9c4.9,0,10,0.3,14.8,0.6c4.9,0.3,9.9,0.6,14.8,0.6
	c3.1,0,5.8-0.1,8.5-0.4c1.8,0,3.7,0.5,5.4,0.9c1.8,0.4,3.6,0.9,5.4,0.9c0.8,0,1.5-0.1,2.2-0.3c5.7-1.5,11.4-1.7,15.8-1.7
	c2.4,0,4.8,0.1,7.2,0.1c2.4,0.1,4.8,0.1,7.2,0.1c0,0,0,0,0,0c4.2,0,7.6-0.2,10.7-0.7c8.6-0.3,17.8-0.4,28.8-0.4
	c8.2,0,16.5,0.1,24.6,0.2c8.1,0.1,16.4,0.2,24.6,0.2c15.3,0,27.6-0.3,39-0.9c60.9-1.5,122.9-2,183-2.4c34.8-0.3,70.7-0.6,106-1
	l0.1,520.5c-3,0.8-6.1,1.3-9.1,1.8l-0.5,0.1c-0.8-1-1.6-1.9-2.4-2.9c-2,1.5-4.5,2.2-7.7,2.2c-1.7,0-3.4-0.2-5.1-0.4
	c-1.7-0.2-3.5-0.4-5.2-0.4c-1.6,0-3.1,0.2-4.4,0.5c-2,0.4-4.2,0.5-6.5,0.5c-3.2,0-6.4-0.3-9.6-0.6c-3.1-0.3-6.3-0.6-9.5-0.6
	c-3.4,0-6.4,0.4-9.1,1.2c-5.3,0.2-10.7,0.3-16.2,0.3c-13.8,0-28.5-0.7-43.8-2c-5.8,2-11.8,2.2-16.3,2.2c-2.4,0-4.9-0.1-7.3-0.2
	c-2.4-0.1-4.9-0.2-7.3-0.2c-4,0-7.2,0.2-10.1,0.7c-8.6,0.3-17.7,0.4-28.7,0.4c-8.3,0-16.7-0.1-24.8-0.2c-8.1-0.1-16.6-0.2-24.8-0.2
	c-18.8,0-33.2,0.4-46.7,1.4c-4.6,0-9.1,0-13.6,0c-40.7,0-82.1,1-122.1,2c-10.9,0.3-21.9,0.5-32.8,0.8c-5.4-0.1-11-0.2-16.9-0.2
	c-15.9,0-32,0.5-47.6,0.9C51.3,660.6,35.1,661,19.3,661z"/>
<path class="st23" d="M306,135.9c96.1-2.3,192.8-2.2,289-3.5v520.4c-3.2,0.8-6.4,1.3-9.5,1.8c-0.8-1-1.6-1.9-2.3-2.9
	c-6.6,4.8-15,0-22.5,2c-11.7,2.1-23.3-2.9-34.7,0.4c-20,0.8-40.1,0-60-1.7c-13.3,4.5-27.5,0.4-41,2.6c-41.6,1.4-83.5-1.4-125,1.5
	c-56.3-0.3-112.4,1.5-168.6,2.8c-45.5-1.1-90.9,2.9-136.4,1.2V138.8c28,0.5,56-3.1,84-0.3c18.5-4.5,37.4,0.7,56-1
	c4.4,0,8.7,2.6,13.1,1.6c13.4-3.6,27.4-0.1,40.9-2.1C228,135.5,267.1,137.9,306,135.9z"/>
<path class="st24" d="M365.3,236.6c-0.6-3.4-0.9-6.8-0.7-10.1c0.2-5.4,0.1-10.9,0.1-16.2c-0.1-5.5-0.2-11.2,0.1-16.8
	c1.4-0.7,3.5-1.6,5.7-1.6c2.1,0,3.8,0.8,5,2.4c0.5,6,0.4,12,0.3,17.8c-0.1,3.8-0.1,7.7,0,11.6c0,4-0.1,8.2-0.3,12.6
	c-3.4,0.1-6.7,0.2-10,0.3L365.3,236.6L365.3,236.6z"/>
<path class="st24" d="M364.8,193.5c3.4-1.7,8-2.7,10.6,0.8c0.8,9.8,0.1,19.6,0.3,29.4c0,4.2-0.1,8.4-0.3,12.6
	c-3.4,0.1-6.7,0.2-10,0.3c-0.6-3.3-0.9-6.7-0.7-10.1C365.1,215.5,364.3,204.5,364.8,193.5z"/>
<path class="st25" d="M98.5,301.8c-3-39.2-2.2-78.3-1-108c1.7-0.9,3.7-1.4,5.4-1.4c3.1,0,4.8,1.6,4.9,4.6
	c0.3,33.6-0.1,67.8-0.4,100.9c-0.1,0.8-0.3,1.7-0.4,2.5l-0.2,1l-1.2,0.1C103.2,301.4,100.8,301.5,98.5,301.8L98.5,301.8L98.5,301.8z
	"/>
<path class="st25" d="M97.5,193.8c3.7-1.8,10-2.6,10.2,3.2c0.3,33.6,0,67.3-0.4,100.9c-0.2,1.2-0.4,2.4-0.6,3.5
	c-2.7,0-5.5,0-8.2,0.4C95.8,266,96.1,229.6,97.5,193.8z"/>
<path class="st26" d="M240.2,236.8c-3,0-5.9,0-8.7-0.1c-0.1-1.5-0.1-3-0.1-4.5c0-3.2-0.1-6.3-0.1-9.5c-0.1-9.7-0.3-19.7,0.1-29.5
	c1.8-0.6,3.5-0.9,5.1-0.9c1.8,0,3.5,0.4,5.1,1.1c1.4,8.5,0.9,17.2,0.4,25.6c-0.3,5-0.6,10.1-0.5,15.1l-0.1,2.6L240.2,236.8z"/>
<path class="st26" d="M231.4,193.1c3.3-1,6.9-1.3,10.1,0.3c2.2,13.5-0.3,27.1-0.1,40.7c0,0.6,0,1.9-0.1,2.6c-3.3,0-6.6,0-9.9-0.1
	c0-1.5,0-3,0-4.5C231.3,219.1,231,206.1,231.4,193.1z"/>
<path class="st27" d="M506.4,304.7c-1.5-0.1-2.9-0.1-4.4-0.2l-1.5-0.1c-2.2-24.3-1.8-49.2-1.4-73.3c0.2-11.7,0.4-23.8,0.3-35.7
	c0,0,0,0,0,0c0.4,0,0.7,0,1.1,0c0.8,0,1.7-0.1,2.6-0.2c0.9-0.1,1.8-0.2,2.7-0.2c2.1,0,3.4,0.6,4.2,1.8c-0.5,23-0.4,46.4-0.4,69
	c0,11,0.1,22.3,0.1,33.5l0,1.3c-0.5,1.2-1.4,2-2.3,2.9C507.2,304,506.8,304.3,506.4,304.7L506.4,304.7L506.4,304.7z"/>
<path class="st27" d="M500.6,304.4c-3.1-36.1-0.7-72.6-1-108.9c3.3,0.5,8.4-1.7,10.5,1.5c-0.8,34.1-0.2,68.4-0.3,102.5l0,1.3
	c-0.7,1.6-2.2,2.6-3.3,3.9C504.5,304.5,502.5,304.5,500.6,304.4z"/>
<path class="st28" d="M385,340c-0.4,0-0.7,0-1.1,0c-2,0-4-0.1-5.9-0.2l-0.9,0c-1-0.1-1.9-0.1-2.9-0.1l-2.7-0.1
	c-1.9-0.1-3.7-0.1-5.6-0.2l-2-0.1c0.2-0.2,0.6-0.3,1-0.5c0.4-0.1,0.8-0.3,1.1-0.4c1.4,0,2.8,0,4.2,0c2.4,0,4.9,0,7.3,0.1
	c2.4,0,4.9,0.1,7.3,0.1c1,0,2.1,0,3.1,0l1.5,0c1-18.1,0.7-36.6,0.3-54.6c-0.2-10.4-0.4-21.1-0.3-31.7c0-0.8,0.1-1.6,0.1-2.4
	c0.2-4.3,0.4-8.7-2-12.4l-1.1,0c-1.3,0-2.6,0-3.8,0c-3,0-5.3,0.1-7.4,0.2l0-1.3c0.2-4.4,0.3-8.5,0.3-12.6c0.4,2.6,0.6,5.3,0.8,8.3
	c0.4-0.6,0.8-1.2,1.3-1.8c1.4,0.8,2.9,1.5,4.4,2.1c3.5,1.5,7,3.1,9,6.6c3.5,11,1.7,22.9,0.2,33.3c-0.2,9.8,0.6,19.8,1.4,29.5
	c1,12.1,2,24.7,1,37C390.5,339.6,387.6,340,385,340z"/>
<path class="st28" d="M375.4,236.3c0.2-4.2,0.3-8.4,0.3-12.6c0.3,2.8,0.5,5.5,0.7,8.3c0.4-0.6,0.9-1.2,1.4-1.8
	c4.5,2.7,10.5,3.8,13.3,8.7c3.4,10.8,1.8,22.3,0.2,33.2c-0.5,22.1,4.3,44.4,2.4,66.5c-3.2,0.9-6.4,1.5-9.7,1.3
	c-2.3,0-4.5-0.2-6.8-0.3c-1-0.1-1.9-0.1-2.9-0.1c-2.8-0.1-5.5-0.2-8.3-0.3l-2-0.1c0.5-0.2,1.6-0.6,2.1-0.7
	c7.3-0.1,14.6,0.2,21.8,0.1l1.5,0c1.7-28.6-0.2-57.6,0-86.3c0.1-5,1-10.4-1.9-14.8c-4.1,0-8.2-0.1-12.3,0.2L375.4,236.3z"/>
<path class="st29" d="M387.9,287.3c-8.5-0.4-16.9-0.8-25.4-0.8c-4.9,0-9.3,0.1-13.5,0.4l-2.4,0.3c-0.3-3.6-0.3-7.2-0.3-10.6
	c-0.1-6.2-0.1-12.6-1.1-18.8c-2.3-7.9-1.8-16.3,1.4-23c6.8-0.5,14.2-1.8,18-8.2c-0.1,3.3,0.2,6.6,0.8,10.1l0.1,0
	c3.3-0.1,6.6-0.2,9.9-0.3l0,1.3l-0.7,0.1c-1.4,0.1-2.9,0.1-4.6,0.1c-2.6,0-5.3-0.1-7.8-0.1c-2.6-0.1-5.2-0.1-7.8-0.1
	c-2.5,0-4.6,0.1-6.6,0.2c-1.9,8.1-1,17.1,0,24c-0.2,2.6-0.3,5.5-0.2,9c0.1,4.3,0,8.7,0,12.9l0,1.9c1.4-0.1,2.8-0.1,4.2-0.1
	c3.4,0,6.9,0,10.3,0c6.2,0,11.8,0.1,17.3,0.2c1.4,0,2.9,0.1,4.4,0.1c1.6,0.2,3,0.4,4.4,0.6L387.9,287.3L387.9,287.3z"/>
<path class="st29" d="M346.6,234.7c6.9-0.4,14.2-1.7,18-8.2c-0.2,3.4,0.1,6.7,0.7,10.1c3.3-0.1,6.7-0.2,10-0.3l-0.1,1.3l-0.7,0
	c-9,0.4-17.9-0.6-26.9,0c-1.9,7.8-1.2,16.4-0.1,24.1c-0.2,3-0.2,6-0.2,9c0.1,4.9,0,9.8,0,14.8c1.4,0,2.9-0.1,4.3-0.1
	c9.2-0.1,18.4-0.1,27.6,0.1c1.5,0,2.9,0.1,4.4,0.1c1.5,0.2,3,0.4,4.4,0.6l-0.2,1c-13-0.6-26-1.1-38.9-0.4c-0.6,0.1-1.8,0.2-2.4,0.3
	c-0.5-9.8,0.1-19.7-1.4-29.4C343,250.3,343.2,241.8,346.6,234.7z"/>
<path class="st30" d="M256.2,337.6c0.5-14.7,0.3-29.8,0.2-44.3c-0.2-16.5-0.4-33.6,0.4-50.4c0.2-1.6-0.1-2.8-0.8-3.7
	c-1.6-2-5.1-2.3-8.2-2.6c-1.2-0.1-2.4-0.2-3.4-0.4c-2.1,1.3-4.6,1.9-7.6,1.9c-2.6,0-5.3-0.5-7.9-0.9c-2.6-0.4-5.3-0.9-7.9-0.9
	c-3.3,0-5.9,0.7-8.3,2.3c-1.8,4.3-1.8,9.1-1.8,13.7c0,1.4,0,2.8-0.1,4.2c-2.7-3.4-2.4-7.5-2.1-11.4c0.1-1.8,0.3-3.6,0.1-5.3
	c2.8-4.5,7.4-5.6,11.9-6.6c2.9-0.7,6-1.4,8.5-3c0.8,0.6,1.6,1.3,2.3,1.9c0,1.5,0,3,0,4.5c2.7,0,5.6,0.1,8.6,0.1l1.2,0l0-1.3l0-1.3
	c0.9-1,1.7-2,2.6-3c1.9,1.7,4.5,2.5,7,3.3c4.2,1.3,8.1,2.5,8.4,7.5c0.1,6.1-0.2,12.3-0.4,18.3c-0.5,12.8-1.1,26,1.6,38.7
	c-0.9,4.8-0.2,10.2,0.5,15.4c1.2,9.3,2.4,18.8-4.9,25.3l-0.1,0.1L256.2,337.6z"/>
<path class="st30" d="M208.8,239.8c4.5-7.3,13.9-5.4,20.4-9.5c0.8,0.6,1.5,1.3,2.3,1.9c0,1.5,0,3,0,4.5c3.3,0.1,6.6,0.1,9.9,0.1
	c0-0.6,0-1.9,0.1-2.6c0.8-1,1.7-2,2.5-2.9c4.7,4.5,14.8,2.7,15.3,10.8c0.3,19-2.8,38.3,1.2,57c-2.4,13.2,7.1,30.5-4.4,40.7l0.2-2
	c1-31.5-0.9-63.2,0.5-94.7c0.9-7-7.9-5.9-12.4-6.8c-9.8,5.8-22.1-4.1-31.8,2.4c-2.4,5.6-1.7,12-1.9,18
	C206.9,251.6,209.2,245.3,208.8,239.8z"/>
<path class="st31" d="M255.2,339.3c-0.1-7.2-0.2-14.5-0.3-21.5c-0.2-9.3-0.3-19-0.4-28.5l-0.2,0.2c-0.4,0.3-0.9,0.6-1.2,0.8
	c0.4-1.3,0.8-2.5,1.3-3.8c0.5-6.5,0.4-13.1,0.3-19.4c-0.1-4.9-0.1-9.9,0-14.8c0.8-3.8,0.7-8-0.1-12.8l-0.1-0.9c-3,0-6-0.1-8.9-0.2
	c-2.2,0-4.4,0-6.5,0c-4,0-7.9,0-11.9-0.1c-4,0-7.9-0.1-11.9-0.1l-1.1,0c-0.5,1.6-1,3.3-1.4,5.1c-0.3,3.7-0.2,7.4-0.2,10.9
	c0,1-0.1,2.1-0.1,3.1c0,1-0.1,2.1-0.1,3.1c-0.3,0.6-0.9,1.6-1.2,2.2c-0.3-2.2-0.5-4.2-0.6-6.2c0.1-1.4,0.1-2.8,0.1-4.2
	c0-4.7,0-9.5,1.9-13.8c2.4-1.6,5.1-2.3,8.4-2.3c2.6,0,5.3,0.5,8,0.9c2.6,0.4,5.3,0.9,7.9,0.9c3,0,5.4-0.6,7.6-1.9
	c1,0.2,2.2,0.3,3.4,0.4c3.1,0.3,6.6,0.6,8.2,2.6c0.8,1,1.1,2.2,0.9,3.8c-0.7,16.8-0.6,33.9-0.4,50.4c0.2,14.5,0.3,29.5-0.2,44.3
	l-1,1.8L255.2,339.3z"/>
<path class="st31" d="M212.5,238.5c9.8-6.5,22,3.4,31.8-2.4c4.5,0.9,13.3-0.2,12.4,6.8c-1.4,31.5,0.5,63.2-0.5,94.7l-0.9,1.6
	c-0.2-16.7-0.6-33.3-0.7-50c-0.4,0.3-1.1,0.7-1.5,1c0.5-1.2,0.9-2.5,1.4-3.7c0.8-11.4-0.1-22.9,0.3-34.3c0.9-4.2,0.6-8.6-0.1-12.8
	l-0.1-0.9c-3-0.1-6-0.2-9-0.2c-10.5,0.1-21-0.1-31.5-0.1c-0.6,1.7-1.1,3.4-1.5,5.2c-0.3,3.6-0.2,7.3-0.2,10.9c0,2.1-0.1,4.1-0.2,6.2
	c-0.3,0.5-0.9,1.6-1.2,2.2c-0.2-2-0.4-4.1-0.5-6.1C210.8,250.5,210.1,244.1,212.5,238.5z"/>
<path class="st32" d="M347.6,261.7c-1-6.9-1.9-16,0.1-24.1c2.1-0.2,4.2-0.2,6.7-0.2c2.6,0,5.3,0.1,7.8,0.1c2.6,0.1,5.2,0.1,7.8,0.1
	c1.7,0,3.2,0,4.6-0.1c2.4,0.2,4.8,0.5,7.1,0.8c2.1,0.2,4.3,0.5,6.5,0.7c0.1,3.8-0.1,7.3-0.5,10.6c-0.6,1.4-1.3,2.8-1.9,4.1l-0.5,1.1
	c-4.1-2.8-9-4.2-15-4.2c-5,0-10.1,0.9-15.1,1.8c-1,0.2-2,0.4-3,0.5c-1.4-2.3-2.9-5-4.7-7.6c-0.5,2.7-0.2,5.5,0.1,8.2
	C347.9,256.3,348.2,259,347.6,261.7L347.6,261.7z"/>
<path class="st32" d="M347.7,237.6c9-0.6,17.9,0.4,26.9,0c4.5,0.4,9,1,13.6,1.5c0.1,3.5-0.1,7-0.5,10.5c-0.8,1.8-1.6,3.5-2.4,5.2
	c-9.8-6.9-22.2-3.7-33-1.8c-1.5-2.6-3-5.1-4.7-7.6c-1.2,5.4,1.2,10.8,0.1,16.3C346.5,254.1,345.8,245.5,347.7,237.6z"/>
<path class="st33" d="M388.1,286.4c-1.4-0.2-2.9-0.4-4.4-0.6c-0.2-4.5-0.6-8.9-1.3-13.3c-3.7-1.4-7.8-2-12.9-2
	c-2.7,0-5.5,0.2-8.2,0.3c-2.7,0.2-5.4,0.3-8.1,0.3c-2.1,0-4-0.1-5.7-0.3c-0.1-3.6-0.1-6.4,0.1-9c0.5,0.5,1.4,1.7,1.9,2.3
	c0.2,0.8,0.3,1.6,0.5,2.4c0.2,1,0.4,2.1,0.6,3.1c3.7-2.3,11.1-6.2,17.7-6.2c4.5,0,7.9,1.8,10.2,5.3c1.7,1.5,4,2.1,6.2,2.7
	c0.9,0.2,1.8,0.5,2.6,0.7c0.3-4.6,0.3-9.4,0.3-14c0-2.8,0-5.6,0.1-8.4c0.4-3.3,0.6-6.8,0.5-10.5c-2.1-0.2-4.3-0.4-6.5-0.7
	c-2.3-0.3-4.7-0.5-7.1-0.8l0.7-0.1c2.1-0.2,4.4-0.2,7.4-0.2c1.3,0,2.6,0,3.8,0l1.1,0c2.5,3.8,2.3,8.2,2,12.5c0,0.8-0.1,1.6-0.1,2.4
	c-1.3,6.3-1.1,12.8-1,19.1C388.7,276.2,388.8,281.3,388.1,286.4L388.1,286.4L388.1,286.4z"/>
<path class="st33" d="M375.3,237.6c4.1-0.3,8.2-0.3,12.3-0.2c2.9,4.4,2,9.8,1.9,14.8c-2.3,11.2-0.1,22.8-1.4,34.1
	c-1.5-0.3-3-0.5-4.4-0.6c-0.2-4.4-0.6-8.8-1.2-13.3c-11.4-4.4-23.4-0.3-35-1.7c-0.1-3-0.1-6,0.2-9c0.4,0.6,1.3,1.7,1.8,2.3
	c0.4,1.8,0.7,3.7,1.1,5.5c7.9-4.8,21.6-10.6,27.9-0.9c2.4,2.2,5.9,2.5,8.8,3.5c0.6-7.5,0.2-15,0.4-22.5c0.5-3.5,0.6-7,0.5-10.5
	c-4.5-0.4-9-1.1-13.6-1.5L375.3,237.6z"/>
<path class="st34" d="M217.6,251.5c-1.6-2.7-3.3-5.4-5-8c0.4-1.8,1-3.6,1.5-5.2l1.7,3.5c4.1,0.5,8.5,0.8,13,0.8
	c6.7,0,13.9-0.6,21.5-1.8c-1.5-0.7-3.1-1.6-4.6-2.3c0.6,0,1.3,0,1.9,0c2.4,0,4.7,0.1,7.1,0.1l0.1,0.9c-0.8,3.9-2,7.6-3.4,11.9
	c-5.3-1.1-10.7-1.7-16.3-1.7C229.3,249.7,223.4,250.3,217.6,251.5L217.6,251.5L217.6,251.5z"/>
<path class="st34" d="M212.6,243.4c0.4-1.8,0.9-3.4,1.5-5.2c0.4,0.9,1.2,2.6,1.6,3.5c11.4,1.4,23.1,0.8,34.5-1
	c-1.5-0.8-3-1.6-4.6-2.4c3,0.1,6,0.1,9,0.2l0.1,0.9c-0.9,4-2.1,8-3.4,11.9c-11-2.4-22.6-2.2-33.6,0.1
	C216,248.8,214.3,246.1,212.6,243.4z"/>
<path class="st35" d="M228.7,242.6c-4.5,0-8.9-0.3-13-0.8l-1.6-3.5l1.2-0.1c4,0,7.9,0,11.9,0.1c4,0,7.9,0.1,11.9,0.1
	c2.2,0,4.4,0,6.5,0c1.6,0.8,3.1,1.6,4.6,2.4l0.1,0.1l-0.1,0C242.6,242,235.4,242.6,228.7,242.6z"/>
<path class="st35" d="M214.1,238.3c10.5,0,21,0.3,31.5,0.1c1.6,0.8,3.1,1.6,4.6,2.4c-11.4,1.8-23.1,2.4-34.5,1
	C215.3,240.9,214.5,239.2,214.1,238.3z"/>
<path class="st36" d="M248.6,269.8c-0.2-1-0.5-1.9-0.7-2.9l-0.3-1.2c-3.8-1.2-7.9-1.9-12.1-1.9c-6.6,0-13.4,1.6-20.1,4.7l-0.1-0.2
	c-0.9-4.6-1.9-9.3-2.9-14c-0.1-3.5-0.1-7.2,0.2-10.9c1.8,2.5,3.5,5.2,5.1,8c5.7-1.2,11.6-1.8,17.3-1.8c5.6,0,11.1,0.6,16.3,1.7
	c1.4-4.3,2.5-8,3.3-11.9c1,4.8,1,9,0.2,12.8c-1.7,2.3-1.9,5.3-2,8.1C252.7,264.2,252.5,267.9,248.6,269.8L248.6,269.8L248.6,269.8z"
	/>
<path class="st36" d="M254.7,239.5c0.8,4.2,1,8.6,0.1,12.8c-4,5.3,0.6,14.1-6.1,17.5c-0.4-1.4-0.7-2.7-1-4.1
	c-10.7-3.6-22.1-2-32.3,2.7c-0.9-4.7-1.9-9.4-3-14.1c-0.1-3.6-0.1-7.3,0.2-10.9c1.7,2.6,3.4,5.3,5,8c11-2.3,22.6-2.5,33.6-0.1
	C252.6,247.5,253.8,243.5,254.7,239.5z"/>
<path class="st37" d="M387.2,272.1c-0.8-0.3-1.7-0.5-2.6-0.7c-2.2-0.6-4.5-1.2-6.3-2.7c-2.3-3.5-5.7-5.3-10.1-5.3
	c-6.5,0-13.9,3.8-17.7,6.1c-0.3-1.1-0.5-2.1-0.7-3.2c-0.2-0.8-0.3-1.6-0.5-2.4c-0.4-0.5-1.3-1.7-1.8-2.3c0.5-2.7,0.2-5.4-0.1-8.1
	c-0.3-2.7-0.6-5.5,0-8.3c1.9,2.6,3.4,5.3,4.8,7.6c0.9-0.2,1.9-0.4,3-0.6c5-0.9,10.1-1.8,15.1-1.8c6,0,10.9,1.4,15,4.2l0.4-1.1
	c0.6-1.3,1.3-2.7,1.9-4.1c0,2.8,0,5.7,0,8.4C387.6,262.6,387.6,267.4,387.2,272.1L387.2,272.1L387.2,272.1z"/>
<path class="st37" d="M347.6,245.4c1.6,2.5,3.2,5,4.7,7.6c10.9-1.9,23.2-5,33,1.8c0.8-1.7,1.7-3.4,2.4-5.2c-0.2,7.5,0.1,15-0.4,22.5
	c-3-1-6.4-1.3-8.8-3.5c-6.3-9.7-20-3.9-27.9,0.9c-0.4-1.8-0.7-3.7-1.1-5.5c-0.4-0.6-1.3-1.7-1.8-2.3
	C348.7,256.2,346.4,250.8,347.6,245.4z"/>
<path class="st38" d="M254.5,286.6c-2.8-0.7-5.3-1.1-7.8-1.2c0.7-2.4,0.2-4.7-0.2-6.9c-0.3-1.9-0.7-3.9-0.4-5.8
	c-3.9-0.9-8.2-1.3-13.1-1.3c-4.8,0-9.6,0.4-14.3,0.8c-2.1,0.2-4.2,0.4-6.3,0.5c-0.1-1.9-0.1-3.8-0.1-5.7c0-2.2-0.1-4.3-0.1-6.5
	c0-1,0.1-2.1,0.1-3.1c0-1,0.1-2.1,0.1-3.1c1.2,4.6,2.1,9.4,3,14l0,0.1c6.6-3.1,13.4-4.7,20-4.7c4.2,0,8.3,0.7,12.2,1.9l0.3,1.2
	c0.2,1,0.5,1.9,0.7,2.9c3.7-1.9,3.9-5.5,4-9.4c0.1-2.9,0.3-5.8,2-8.1c-0.1,5,0,10,0,14.9C254.9,273.5,255,280.1,254.5,286.6
	L254.5,286.6L254.5,286.6z"/>
<path class="st38" d="M248.7,269.8c6.7-3.4,2.1-12.2,6.1-17.5c-0.4,11.4,0.5,22.9-0.3,34.3c-2.6-0.7-5.2-1.1-7.8-1.2
	c1.3-4.3-1.1-8.4-0.5-12.7c-11.2-2.6-22.5-0.8-33.8-0.1c0-4-0.1-8.1-0.1-12.1c0-2.1,0.1-4.1,0.2-6.2c1.1,4.7,2,9.4,3,14.1
	c10.1-4.7,21.5-6.3,32.3-2.7C248,267.1,248.3,268.4,248.7,269.8z"/>
<path class="st39" d="M355.4,339.5c-3.6,0-6.4-0.4-8.8-1.3c-1.4-12.5-0.9-25.2-0.4-37.5c0.2-3.8,0.3-7.7,0.4-11.5c0.7,0,1.3,0,1.9,0
	c0.4,0,0.9,0,1.3,0c5.5,0.1,11.2,0.1,17.3,0.1c0,0,0,0,0,0c6.3,0,12.9,0,20.2-0.1c0.1-0.6,0.3-1.3,0.5-2l0.2-1
	c0.6-5,0.5-10.1,0.4-15c-0.1-6.3-0.3-12.8,1-19.1c0,10.5,0.2,21.3,0.4,31.7c0.3,17.9,0.7,36.5-0.4,54.6c-0.2-2.7-0.2-5.2-0.2-7.7
	c-0.8-16.3-1-28.9-0.8-40.8l-1.1,0.2c-6.9,0.3-14,0.5-21.2,0.5c-4.6,0-9.4-0.1-14.1-0.2l-4.1,0c-0.1,3.4-0.2,6.9-0.4,10.4
	c-0.4,10.4-0.9,21.1-0.2,31.6c0.1,1.9,0.2,3.7,0.3,5.4c3.6,0.4,7.3,0.4,10.8,0.5c2.5,0,5,0,7.6,0.2c-0.2,0.2-0.6,0.3-1,0.5
	c-0.4,0.1-0.8,0.3-1,0.4c-1.3,0-2.7,0.1-4,0.1C358.6,339.4,357,339.5,355.4,339.5z"/>
<path class="st39" d="M388.1,286.3c1.3-11.3-0.9-22.9,1.4-34.1c-0.2,28.7,1.7,57.6,0,86.3c-0.1-2.6-0.1-5.1-0.1-7.7
	c-0.6-13.6-1.1-27.2-0.8-40.8l-1.1,0.1c-11.8,0.5-23.5,0.6-35.3,0.3c-1.4,0-2.8,0-4.1,0c-0.4,14-1.5,28.1-0.6,42.1
	c0.1,1.8,0.2,3.6,0.3,5.3c6.1,0.8,12.3,0.3,18.5,0.7c-0.5,0.2-1.6,0.6-2.1,0.7h0c-5.8,0.1-11.9,1-17.5-1
	c-1.9-16.3-0.4-32.6,0.1-48.9c1.1,0,2.1,0,3.2,0c12.5,0.2,25,0.2,37.5,0c0.2-0.7,0.4-1.4,0.5-2L388.1,286.3z"/>
<path class="st40" d="M232.6,290.4c-7.1,0-13-0.1-18.5-0.2l-1.4-1.3c7.1,0.2,14.3,0.4,21.4,0.4c6.4,0,12.8-0.1,19.1-0.4
	c-3.5-2.2-7.7-2.5-10.9-2.5c-1.8,0-3.6,0.1-5.4,0.2c-1.8,0.1-3.6,0.2-5.4,0.2c-1.6,0-3-0.1-4.2-0.3l-1.7-0.1
	c-4.5-0.3-9.1-0.6-13.6-0.6c-0.2-2.1-0.3-4.2-0.4-6.3c-0.3-5.5-0.7-11.2-0.5-16.7c0.3-0.6,0.9-1.6,1.2-2.2c0.1,2.2,0.1,4.3,0.2,6.5
	c0,1.9,0.1,3.7,0.1,5.6c0,4.3,0.2,8.6,0.4,12.7l3.2-0.1c1.6,0,3.3-0.1,4.9-0.1c1.7,0,3.3,0,5,0c4.3,0,8.7,0.1,12.9,0.1l3.9,0.1
	c1,0,3,0.1,4,0.1c2.5,0.1,5.1,0.5,7.8,1.2c-0.4,1.3-0.9,2.5-1.3,3.8l-5,0.1C243,290.4,237.8,290.4,232.6,290.4z"/>
<path class="st40" d="M211.1,262.7c0.3-0.5,0.9-1.6,1.2-2.2c0,4,0.1,8.1,0.1,12.1c0.1,4.3,0.2,8.5,0.4,12.7c2.7-0.1,5.4-0.1,8.1-0.2
	c7.3-0.1,14.5,0,21.8,0.1c1,0,3,0,4,0.1c2.6,0.1,5.3,0.5,7.8,1.2c-0.4,1.2-0.9,2.5-1.4,3.7c-13,0.1-26,0.3-39-0.1l-1.4-1.3
	c13.5,0.6,27,0.6,40.5,0.1c-7.1-4.8-17.5-1.3-26-2.5c-5.1-0.3-10.2-0.7-15.3-0.8C211.6,278.1,210.8,270.3,211.1,262.7z"/>
<path class="st41" d="M383.7,285.7c-1.5-0.1-2.9-0.1-4.4-0.1c-0.6-1.8-0.6-3.6-0.7-5.5c-0.1-2.5-0.2-5.1-1.4-7.2
	c-3-0.8-6.4-1.1-10-1.1c-4.3,0-9.1,0.6-14.4,1.7c0.1,2.4-0.2,4.9-0.9,7.4l0.1,0l2.6,1.7c-1,1-1.9,1.9-2.9,2.8
	c-1.5,0-2.9,0.1-4.3,0.1l0-1.9c0-4.2,0.1-8.6,0-12.9c1.8,0.2,3.7,0.3,5.8,0.3c2.7,0,5.5-0.2,8.1-0.3c2.7-0.2,5.4-0.3,8.2-0.3
	c5.2,0,9.3,0.7,13,2.1C383.2,276.8,383.6,281.2,383.7,285.7L383.7,285.7L383.7,285.7z"/>
<path class="st41" d="M347.5,270.7c11.6,1.4,23.6-2.7,35,1.7c0.6,4.4,1,8.8,1.2,13.3c-1.5-0.1-2.9-0.1-4.4-0.1
	c-1.2-4.1,0.1-9-2.1-12.6c-8-2-16.5-1.2-24.4,0.6c0.1,2.5-0.3,5-0.9,7.4c0.9,0.6,1.8,1.2,2.7,1.8c-1,0.9-1.9,1.8-2.9,2.7
	c-1.4,0-2.9,0-4.3,0.1C347.5,280.5,347.6,275.6,347.5,270.7z"/>
<path class="st42" d="M246.6,285.4c-1,0-3,0-4-0.1c0.5-1.7,1.1-3.3,1.7-4.9c-1.5-2.3-2.9-4.8-4.3-7.4c-2.4-0.3-4.7-0.4-6.9-0.4
	c-4.2,0-8.2,0.6-11.7,1.7c0.8,1.1,1.6,2.2,2.4,3.3c-1,0.8-2,1.5-3.1,2.2l-0.7,0.5l0.5,0.3l2.7,2.1c-0.8,0.9-1.6,1.6-2.3,2.4
	c-1.7,0-3.3,0.1-4.9,0.1l-3.2,0.1c-0.2-4.2-0.4-8.5-0.4-12.8c2.1-0.2,4.2-0.4,6.3-0.5c4.7-0.4,9.6-0.8,14.4-0.8
	c4.9,0,9.2,0.4,13.2,1.4c-0.3,2,0.1,4,0.4,5.9C247,280.7,247.4,283.1,246.6,285.4L246.6,285.4L246.6,285.4z"/>
<path class="st42" d="M212.4,272.6c11.2-0.8,22.6-2.5,33.8,0.1c-0.7,4.3,1.8,8.4,0.5,12.7c-1,0-3,0-4-0.1c0.6-1.6,1.1-3.2,1.7-4.8
	c-1.6-2.4-3-4.9-4.3-7.4c-6.3-0.8-12.6-0.7-18.7,1.3c0.8,1.1,1.6,2.3,2.4,3.4c-1.3,0.9-2.5,1.8-3.8,2.7c1.1,0.8,2.1,1.6,3.2,2.4
	c-0.8,0.8-1.6,1.6-2.3,2.3c-2.7,0-5.4,0.1-8.1,0.2C212.6,281.1,212.4,276.9,212.4,272.6z"/>
<path class="st43" d="M379.3,285.6c-5.5-0.1-11.1-0.2-17.3-0.2c-3.4,0-6.9,0-10.3,0c0.9-1,1.9-1.9,2.8-2.8l-2.7-1.7
	c0.7-2.6,1-5.1,0.9-7.5c5.4-1.2,10.1-1.8,14.5-1.8c3.6,0,6.9,0.4,10,1.2c1.3,2.2,1.4,4.7,1.5,7.3
	C378.8,281.9,378.9,283.8,379.3,285.6L379.3,285.6L379.3,285.6z"/>
<path class="st43" d="M352.8,273.5c8-1.7,16.5-2.6,24.4-0.6c2.2,3.6,0.9,8.5,2.1,12.6c-9.2-0.2-18.4-0.2-27.6-0.1
	c1-0.9,1.9-1.8,2.9-2.7c-0.9-0.6-1.8-1.2-2.7-1.8C352.6,278.5,352.9,276,352.8,273.5z"/>
<path class="st44" d="M238.8,285.3c-4.2-0.1-8.6-0.1-12.9-0.1c-1.7,0-3.3,0-5,0c0.7-0.9,1.5-1.7,2.3-2.4l-2.7-2l-0.5-0.4l0.7-0.6
	c1-0.7,2-1.4,3.1-2.2c-0.8-1.1-1.6-2.2-2.4-3.3c3.6-1.2,7.6-1.8,11.8-1.8c2.2,0,4.5,0.2,6.9,0.5c1.4,2.7,2.8,5.2,4.3,7.5
	c-0.6,1.7-1.1,3.3-1.7,4.9l0,0L238.8,285.3z"/>
<path class="st44" d="M221.4,274.3c6-1.9,12.4-2.1,18.7-1.3c1.3,2.5,2.7,5,4.3,7.4c-0.6,1.6-1.1,3.2-1.7,4.8
	c-7.3-0.1-14.5-0.2-21.8-0.1c0.8-0.8,1.6-1.6,2.3-2.3c-1.1-0.8-2.1-1.6-3.2-2.4c1.3-0.9,2.5-1.8,3.8-2.7
	C223,276.6,222.2,275.5,221.4,274.3z"/>
<path class="st45" d="M234.1,289.4c-7,0-14.2-0.2-21.3-0.5l-1.8-1c3.9-1.2,8-1.3,12-1.4c1.4,0,2.8-0.1,4.2-0.1
	c1.2,0.2,2.6,0.3,4.2,0.3c1.8,0,3.6-0.1,5.4-0.2c1.8-0.1,3.6-0.2,5.4-0.2c3.3,0,7.5,0.3,11,2.6C246.9,289.2,240.5,289.4,234.1,289.4
	z"/>
<path class="st45" d="M211,287.9c5.3-1.5,10.8-1.1,16.3-1.4c8.4,1.1,18.8-2.3,26,2.5c-13.5,0.5-27,0.5-40.5-0.1L211,287.9z"/>
<path class="st46" d="M367.2,289.5c-6.1,0-11.7,0-17.3-0.1c-0.3-0.6-0.7-1.9-1-2.5c4.3-0.3,8.7-0.4,13.6-0.4
	c8.5,0,16.9,0.4,25.4,0.8c-0.1,0.7-0.3,1.4-0.5,2.1C380.1,289.4,373.5,289.5,367.2,289.5z"/>
<path class="st46" d="M349,286.9c13-0.7,26-0.2,38.9,0.4c-0.2,0.7-0.4,1.3-0.5,2c-12.5,0.2-25,0.2-37.5,0
	C349.7,288.7,349.2,287.5,349,286.9z"/>
<path class="st47" d="M211.7,311.9c-0.3-3-0.2-6-0.1-8.9c0-1.3,0.1-2.5,0.1-3.8l0.7,0.5c0-2,0-4.1,0-6.1c0-1.2,0-2.3,0.1-3.5l1.7,0
	c5.5,0.2,11.4,0.2,18.5,0.2c5.2,0,10.4,0,15.5-0.1l5,0c-2,1.2-3,3.2-3.9,5.2c-0.5,1.1-1,2.2-1.7,3.1c-3.3,1.8-7.2,2.8-11.2,2.8
	c-8,0-15-3.8-18.4-10c-1.4,0-2.8-0.1-4.3-0.1c0,1.4,0,2.9-0.1,4.3C213.4,301,213.3,306.6,211.7,311.9L211.7,311.9z"/>
<path class="st47" d="M212.5,290.1l1.6,0c13,0.4,26,0.2,39,0.1c-3.2,1.7-3.7,5.5-5.7,8.3c-9.7,5.3-24,3-29.5-7.2
	c-1.4-0.1-2.9-0.1-4.3-0.2c-0.3,6.9,0.1,14-1.9,20.7c-0.4-4.2,0-8.5,0-12.7l0.6,0.5C212.4,296.5,212.4,293.3,212.5,290.1z"/>
<path class="st48" d="M255,338.6c-2.1-6.3-4.2-13.1-4.6-20.2c-2.2,0.1-4.6,0.2-7.1,0.4c-2.7,0.2-5.5,0.4-8.2,0.4
	c-6.5,0-14.6-1-19.6-8.4c-1.2,1.7-2.6,3.4-3.9,5l-0.1-1.7l0-1.7l0.1-0.5c1.5-5.3,1.7-10.9,1.8-16.3c0-1.5,0.1-2.9,0.1-4.4
	c1.5,0,2.9,0.1,4.4,0.1c3.4,6.1,10.4,9.9,18.3,9.9c0,0,0,0,0,0c4,0,7.9-1,11.2-2.8c0.7-0.9,1.2-2,1.7-3.1c0.9-2,1.9-4.1,4-5.1
	c0.3-0.2,0.8-0.5,1.2-0.8l0.3-0.2c0.1,9.5,0.3,19.2,0.4,28.5c0.1,7,0.3,14.3,0.3,21.5l-0.1,0L255,338.6z"/>
<path class="st48" d="M253.1,290.3c0.4-0.3,1.1-0.7,1.5-1c0.1,16.7,0.5,33.3,0.7,50l-0.2-0.7c-2.2-6.6-4.2-13.3-4.6-20.2
	c-11.8,0.1-27.1,4-34.9-7.7c-1.3,1.7-2.7,3.4-4,5c0-0.8,0-2.5,0-3.3l0.1-0.5c1.9-6.7,1.6-13.8,1.9-20.7c1.4,0,2.9,0.1,4.3,0.2
	c5.6,10.2,19.9,12.5,29.5,7.2C249.4,295.8,249.9,291.9,253.1,290.3z"/>
<path class="st49" d="M347.3,332.4c-0.7-10.6-0.2-21.3,0.2-31.6c0.1-3.5,0.3-7,0.4-10.4l2.1,0l2.1,0c-0.6,1.4-1.3,2.8-1.9,4.1
	c6.3,4.7,13.4,7.4,20.1,7.4c1.7,0,3.3-0.2,4.9-0.5c2-1.5,3.8-3.4,5.5-5.2c2-2.1,4.1-4.4,6.6-6l1.2-0.1c-0.2,12,0.1,24.6,0.9,40.8
	c-2.3-3.2-2.8-7.2-3-10.6c-0.6-0.2-1.2-0.5-1.8-0.7l-1.2,1.6l-1.1,1.5c-2.4,0.2-4.8,0.3-7.5,0.3c-4.8,0-9.6-0.3-14.3-0.6
	c-2.7-0.2-5.5-0.4-8.2-0.5l-0.1,0c-4.3,0-4.6,4.7-4.8,8.2l0,0.3C347.5,330.7,347.5,331.8,347.3,332.4L347.3,332.4z"/>
<path class="st49" d="M348,290.3c1.4,0,2.8,0,4.1,0c-0.7,1.3-1.3,2.7-2,4c7.1,5.4,16.2,8.8,25.1,7c4.4-3.3,7.4-8.2,12.1-11.3
	l1.1-0.1c-0.3,13.6,0.2,27.2,0.8,40.8c-2.2-3.1-2.6-6.9-2.9-10.6c-0.6-0.3-1.2-0.5-1.8-0.8c-0.8,1-1.5,2.1-2.3,3.1
	c-10,0.9-20-0.4-30-0.8c-4.6-0.1-4.8,5.1-5,8.5c0,0.6,0,1.7,0,2.3C346.5,318.4,347.6,304.3,348,290.3z"/>
<path class="st50" d="M370.4,301.9c-6.7,0-13.9-2.7-20.2-7.5c0.6-1.4,1.3-2.7,1.9-4.1c4.8,0.1,9.5,0.2,14.2,0.2
	c7.2,0,14.3-0.2,21.2-0.5c-2.5,1.7-4.6,3.9-6.6,6.1c-1.7,1.8-3.5,3.7-5.5,5.2C373.7,301.7,372,301.9,370.4,301.9z"/>
<path class="st50" d="M352.1,290.3c11.8,0.3,23.5,0.3,35.3-0.3c-4.7,3-7.7,8-12.1,11.3c-8.9,1.8-18.1-1.6-25.1-7
	C350.8,293,351.5,291.7,352.1,290.3z"/>
<path class="st51" d="M79.8,302.5c2.2-2.5,5.4-2.7,8.8-3c2.3-0.2,4.7-0.4,6.8-1.4l0.9,2.1l0.8,2.2c-1,0-1.9,0-2.8,0
	c-0.3,0-0.6,0-0.9,0c-2.8,0-5.5,0-8.3,0.1C83.3,302.6,81.6,302.6,79.8,302.5L79.8,302.5L79.8,302.5z"/>
<path class="st51" d="M79.8,302.6c3.7-4.2,10.6-2,15.6-4.4c0.6,1.4,1.1,2.8,1.7,4.2C91.3,302.4,85.6,302.5,79.8,302.6z"/>
<path class="st52" d="M103.3,302.7c-2.3,0-4.3-0.1-6.1-0.2l1.3-0.8c2.3-0.4,4.7-0.4,7-0.4l1.2,0l0.1-1c0.1-0.8,0.3-1.7,0.4-2.5
	l0.7,1.3l0.6,1.5c0.3-0.8,0.6-1.6,1-2.3c1.1,0.2,2.3,0.4,3.4,0.5c2.9,0.4,5.9,0.8,8,3.2c-0.5,0.2-1.6,0.3-2.1,0.4
	c-2.6,0-5.2,0.1-7.8,0.1C108.5,302.6,105.9,302.7,103.3,302.7z"/>
<path class="st52" d="M106.7,301.4c0.2-1.2,0.4-2.4,0.6-3.5c0.3,0.7,0.9,2.1,1.2,2.8c0.4-0.8,0.7-1.6,1.1-2.3
	c3.8,1,8.5,0.5,11.3,3.7c-0.5,0.1-1.5,0.2-2,0.3c-7.2,0-14.4,0.6-21.7,0.1l1.3-0.7C101.2,301.3,103.9,301.4,106.7,301.4z"/>
<path class="st53" d="M527.3,409.5c-3.7,0-7.4-0.4-11-0.8c-1.9-0.2-3.7-0.4-5.6-0.5c5-0.3,9.5-0.7,13.6-1.2
	c0.8-15.2,0.9-31.1,0.2-48.6c-0.1,0-0.4-0.2-0.6-0.3c-0.2-0.1-0.5-0.2-0.6-0.3c-0.5-0.8-0.9-1.6-1.4-2.4c0.4,0,1.1-0.1,1.7-0.1
	c0.3,0,0.6,0,0.8,0c-0.5-10.4-0.3-20.9-0.1-31.2c0.1-5.5,0.2-11.3,0.2-16.9c-0.7-0.6-1.4-1.2-2.1-1.9c-2.1-0.1-4.7-0.1-7.2-0.1
	c-1.9,0-3.7,0-5.3,0.1c-0.1-1.5-0.2-3.1-0.3-4.7l0-1.3c3.6,0,7,0.8,10.4,1.5c2.4,0.5,4.9,1,7.3,1.3c1.9,8.4,1.3,17,0.8,25.3
	c-0.6,9.4-1.2,19,1.6,28.3c1.1,6.9,0.6,13.9,0.1,20.7c-0.4,5.7-0.9,11.6-0.3,17.4c-0.1,1.4,0,2.8,0.1,4.2
	C529.8,402.2,530,406.2,527.3,409.5L527.3,409.5L527.3,409.5z"/>
<path class="st53" d="M509.8,299.5c6,0.2,11.7,2.2,17.7,2.9c3.9,17.8-2.9,36.1,2.4,53.6c2,12.6-1.4,25.3-0.3,38
	c-0.3,5.2,1.3,11-2.2,15.5c-5.6-0.1-11.1-0.9-16.6-1.3c4.5-0.2,9.1-0.5,13.6-1c0.9-16.2,0.9-32.4,0.3-48.7c-0.3-0.2-1-0.5-1.3-0.7
	c-0.5-0.8-0.9-1.6-1.4-2.4c0.6,0,1.8,0,2.5,0c-0.7-16,0.2-32,0.2-48.1c-0.7-0.6-1.4-1.3-2.1-1.9c-4.2-0.1-8.4-0.2-12.5,0
	c-0.1-1.6-0.2-3.1-0.2-4.7L509.8,299.5z"/>
<path class="st54" d="M481.9,306.4c1.1-3.6,5-3.9,9.2-4.1c2.5-0.2,5.1-0.4,7.1-1.3l0.4,1.7c0.2,1,0.4,1.9,0.7,2.9l-0.3,0.1
	c-1.4,0-2.8,0-4.2-0.1c-1.4,0-2.8-0.1-4.2-0.1C487.1,305.4,484.4,305.7,481.9,306.4L481.9,306.4L481.9,306.4z"/>
<path class="st54" d="M482,306.4c1.7-5.8,11.2-2.9,16.3-5.4c0.3,1.5,0.7,3,1,4.5C493.5,305.5,487.6,304.7,482,306.4z"/>
<path class="st55" d="M121.8,391c-4-2.4-3.9-6.4-3.9-10.7c0-3.5,0.1-7.2-2.3-9.9c-3.1,4.5-8.2,5-13,5.4c-1.9,0.2-3.9,0.4-5.8,0.8
	c-0.9,0.1-1.9,0.2-2.9,0.2c-6.2,0-12.2-3-15.6-7.8c0.2-4.2,0.5-8.7,0.9-13.8c2,0.4,3.9,0.8,5.8,1.2l-4.3,3.7
	c7.1,2.4,12.7,3.5,17.2,3.5c6.8,0,10.5-2.8,11-8.4l3.4,0l-1.6-0.5c2.9-0.1,5.7-0.1,8.6-0.2c-0.1-0.6-0.1-2-0.1-2.7l-0.5,2.1
	c-0.2-0.6-0.3-1.7-0.4-2.3c-0.8-1.1-1.7-2.1-2.5-3.2c3.2-10.5-8-16-14-19c-1-0.1-2-0.1-3-0.1c-6.4,0-13.1,1.4-19.9,4.3
	c-0.3-2.1-0.8-4.1-1.3-6l-0.1-0.3l0-0.5c-0.3-2.1-0.1-3.6,0.7-4.8c1.4-1.9,4.3-2.3,7.3-2.7c2-0.3,4-0.5,5.6-1.3
	c1.7-0.5,3.4-0.8,5.3-0.8c4.1,0,8.2,1.3,12.2,2.5c1.6,0.5,3.2,1,4.8,1.4c5.5-3.6,7.1-11.3,6.7-17.3c-5-0.2-10.5-0.4-16.7-0.4
	c-7,0-14,0.2-20.9,0.3l-2.3,0.1l-0.6,1.2c-0.7,1.4-1.4,2.9-2,4.4c0.1-1.8,0.5-3.6,0.8-5.4l0.3-1.7c0.3-0.1,0.9-0.1,1.2-0.1
	c1.7,0,3.5,0,5.2-0.1c2.8,0,5.5-0.1,8.3-0.1c1.2,0,2.4,0,3.7,0l0.1,0c1.9,0.1,3.9,0.2,6.1,0.2c2.6,0,5.2-0.1,7.8-0.1
	c2.5-0.1,5.2-0.1,7.8-0.1c0.9,0.5,1.9,0.9,2.8,1.4l0,1.6c-0.2,16.6,0,33.5,0.1,49.8C121.8,366.8,121.9,379,121.8,391L121.8,391
	L121.8,391z"/>
<path class="st55" d="M78.7,302.6c0.3,0,0.8,0,1.1,0c5.7,0,11.5-0.2,17.2-0.1l0.1,0c7.2,0.4,14.5-0.1,21.7-0.1
	c0.9,0.4,1.8,0.9,2.7,1.4l0,1.6c-0.3,28.6,0.3,57.2,0.3,85.7c-7.3-4.4-0.9-14.6-6.2-20.6c-4.5,6.3-12.3,4.7-18.9,6.2
	c-6.8,1.1-14.4-1.9-18.4-7.6c0.3-4.6,0.6-9.2,0.9-13.7c1.9,0.4,3.8,0.8,5.8,1.2c-1.4,1.2-2.9,2.4-4.3,3.6c8.5,2.9,27.2,8.4,28.3-4.9
	c0.8,0,2.5,0,3.4,0l-1.6-0.6c2.9,0,5.7,0,8.6-0.1c0-0.7-0.1-2.1-0.1-2.8l-0.6,2.1c-0.1-0.6-0.2-1.7-0.3-2.3
	c-0.8-1.1-1.7-2.1-2.5-3.2c3.1-9.9-6.7-15.3-14.1-19c-7.8-0.6-15.8,1.2-23,4.2c-0.3-2.1-0.8-4.2-1.3-6.3l0-0.4
	c-1.5-9,8.4-6.3,13.6-8.7c7.6-2.4,15,1.3,22.2,3.2c5.4-3.6,7.1-11.1,6.8-17.4c-13.3-0.7-26.7-0.3-40,0c-0.9,1.9-1.8,3.7-2.6,5.6
	c0.2-1.8,0.6-3.7,0.9-5.5C78.5,303.8,78.7,303,78.7,302.6z"/>
<path class="st56" d="M78.5,349.4c-0.4-4.5-1-9.1-1.5-13.6c-1.3-10.3-2.7-21-1.5-31.5l1.5-0.1l1.4-0.1l0,0.2
	c-0.3,1.7-0.6,3.6-0.9,5.3c-0.5,4.9-0.3,9.9-0.1,14.7c0,0.9,0.1,3,0.1,3c0.1,2.3,0.3,4.6,0.4,6.9C78.4,339.2,78.7,344.4,78.5,349.4
	L78.5,349.4z"/>
<path class="st56" d="M75.6,304.3c0.7,0,2.2-0.1,2.9-0.2c-0.3,1.8-0.6,3.6-0.9,5.5c-0.6,5.8-0.2,11.6,0,17.3l0,0.4
	c0.4,7.3,1.1,14.6,1,22C77.3,334.5,73.8,319.4,75.6,304.3z"/>
<path class="st57" d="M77.5,327c-0.2-1-0.2-1.8-0.1-2.6c0,0,0,0,0,0l0,0l-0.1,0c-0.2-4.8-0.4-9.8,0.1-14.7c0.6-1.5,1.3-3,2-4.4
	l0.6-1.3l2.4-0.1c6.8-0.2,13.9-0.3,20.9-0.3c6.2,0,11.7,0.1,16.8,0.4c0.4,6.1-1.2,13.8-6.8,17.4c-1.6-0.4-3.3-0.9-4.9-1.4
	c-3.9-1.2-8-2.5-12.1-2.5c-1.9,0-3.6,0.3-5.2,0.8c-1.6,0.7-3.6,1-5.6,1.3c-3.9,0.5-7.6,1-8.1,4.9l-0.1,0
	C77.5,325.3,77.6,326.1,77.5,327L77.5,327z"/>
<path class="st57" d="M80.2,304c13.3-0.3,26.7-0.7,40,0c0.3,6.3-1.3,13.8-6.8,17.4c-7.2-1.9-14.6-5.6-22.2-3.2
	c-5.2,2.4-15.1-0.2-13.6,8.7c-0.2-5.8-0.6-11.6,0-17.3C78.4,307.7,79.3,305.9,80.2,304z"/>
<path class="st58" d="M117.1,404.6c-0.8,0-1.7-0.1-2.5-0.1c-0.8-0.1-1.7-0.1-2.5-0.1c-0.5,0-1,0-1.4,0.1l-2.8,0
	c-2.4,0-4.8-0.1-7.2-0.1c-0.8,0-1.6,0-2.3,0l-2.1,0c-0.4,0-0.8,0-1.3,0c-1.3,0-2.5,0-3.8,0c-1.3,0-2.5,0-3.8,0
	c-2.3,0-5.3-0.1-8.4-0.5l1.7-1.3c3.9,0,7.9,0.1,11.7,0.2c4.1,0.1,8.4,0.2,12.6,0.2c0,0,0,0,0,0c6.3,0,11.4-0.3,16.2-0.8l0.2-4.6
	c0.1-1.5,0.1-3,0.1-4.5l0.1-2.2c0-12-0.1-24.2-0.2-35.9c-0.1-16.3-0.3-33.2-0.1-49.8l0.3-1.9l0.4,0.6c0.7,1.7,1.5,3.5,1.4,5.4
	c-1.3,14.7-0.9,29.7-0.5,44.2c0.4,16.2,0.9,33-1,49.3C120.7,404.4,118.7,404.6,117.1,404.6z"/>
<path class="st58" d="M121.6,305.3l0.3-1.9c0.8,1.9,1.8,3.9,1.7,6c-2.8,31,2.2,62.6-1.5,93.4c-2.7,3.2-7.7,1.1-11.4,1.7
	c-0.7,0-2.1,0-2.8,0c-3.2,0-6.4-0.1-9.6-0.1c-0.5,0-1.6,0-2.1,0c-5.7-0.1-11.5,0.4-17.2-0.4l1.8-1.2c13.5,0.1,27.2,1.2,40.5-0.4
	c0.1-1.5,0.2-3.1,0.2-4.6c0.1-2.2,0.1-4.5,0.2-6.7C121.9,362.4,121.2,333.8,121.6,305.3z"/>
<path class="st59" d="M524.5,355.5c-0.6,0-1.8,0-2.5,0h-1.1c-2.9-1.5-6.3-2.2-10.4-2.2c-0.6,0-1.2,0-1.8,0c1-1.8,2.1-3.6,3.2-5.3
	c-1.2-0.7-2.5-1.4-3.7-2.1c0.7-1.1,1.4-2.2,2.1-3.2c-2.7-1.1-5.5-1.8-8.2-1.8c-5.5,0-9.7,2.7-11.8,7.7l1,1.6c0.6,1,1.3,2,1.9,3
	c-3.5,0.1-7,0.4-10.4,0.7l-0.1-4.4c0-2.9,0-5.9-0.1-8.8c4.9-1,12.2-2.3,19.5-2.3c6.5,0,12.2,1,17.5,2.9c0,4.1-0.3,7.8-1.1,11.2
	c1.5,0.1,3,0.3,4.5,0.4c-0.4-4.9-0.3-9.9-0.2-14.7l0-2.6c-0.1-6.4,0.1-12.9,0.4-19.2l0.1-2.9c0-2.1-0.1-4.3-0.1-6.7
	c-0.4,0-0.7,0-1.1,0c-2.9,0-5.8-0.1-8.8-0.1c-4.2-0.1-8.5-0.2-12.8-0.2c-7.1,0-12.9,0.3-18.2,0.9c0,3.5,0.1,6.7,0.2,9.7l0,1.5
	c0,1.3,0.1,2.7,0.1,4c-0.1,1.4-0.3,2.8-0.5,4.2c-0.2,1.8-0.4,3.6-0.6,5.4c-0.1-1.1-0.1-2.2-0.1-3.3c0-1.1,0-2.2,0-3.3
	c-0.2-5.8-0.6-11.8-1.3-18.3c0.5-0.3,1.3-0.8,1.8-1c2.4-0.8,5.1-1.1,8.7-1.1c1.4,0,2.8,0,4.2,0.1c1.4,0,2.8,0.1,4.1,0.1l0.3,0
	c1.7,0.1,3.3,0.1,4.9,0.1c2,0,3.9-0.1,5.8-0.2c1.7-0.1,3.4-0.1,5.3-0.1c2.5,0,5,0.1,7.2,0.1c0.7,0.6,1.4,1.3,2.1,1.9
	c0,5.7-0.1,11.4-0.2,16.9C524.3,334.5,524.1,345,524.5,355.5L524.5,355.5L524.5,355.5z"/>
<path class="st59" d="M482,306.4c5.6-1.7,11.5-0.9,17.3-0.9c3.6,0.2,7.2,0.1,10.8,0c4.2-0.2,8.3-0.1,12.5,0c0.7,0.6,1.4,1.3,2.1,1.9
	c0,16-0.9,32.1-0.2,48.1c-0.6,0-1.8,0-2.5,0c-0.3,0-0.8,0-1.1,0c-3.8-2-8-2.4-12.2-2.2c1.1-1.8,2.2-3.5,3.3-5.2
	c-1.3-0.7-2.5-1.5-3.8-2.2c0.7-1,1.4-2.1,2.1-3.1c-7.6-3.4-16.5-2.5-20.1,5.9c1,1.6,2,3.1,3,4.7c-3.5,0.1-6.9,0.4-10.4,0.7
	c0-4.4,0-8.8-0.1-13.2c12.1-2.4,25-3.8,36.9,0.7c0,3.7-0.3,7.5-1.2,11.1c1.5,0.2,3,0.3,4.6,0.5c-0.4-5.8-0.2-11.5-0.1-17.3
	c-0.2-7.4,0.2-14.7,0.5-22.1c0-2.3-0.1-4.5-0.1-6.7c-13.6-0.1-27.3-1-40.9,0.5c0,3.3,0,6.5,0.1,9.8c0,1.8,0.1,3.7,0.1,5.5
	c-0.3,3.2-0.8,6.4-1,9.6c0-2.2,0-4.4,0-6.6c-0.2-6.1-0.7-12.2-1.3-18.3C480.7,307.1,481.6,306.6,482,306.4z"/>
<path class="st60" d="M481.5,325.7c-6.3-5.1-3.9-14.7-1.9-19.9l0.7,1.6C481,313.9,481.4,319.9,481.5,325.7L481.5,325.7L481.5,325.7z
	"/>
<path class="st60" d="M479.6,305.8l0.6,1.6c0.6,6.1,1.1,12.2,1.3,18.3C475.7,320.9,477.3,312,479.6,305.8z"/>
<path class="st61" d="M482.5,317.2c-0.1-3.1-0.1-6.3-0.1-9.8c5.4-0.6,11.2-0.9,18.3-0.9c4.3,0,8.6,0.1,12.8,0.2
	c3.3,0.1,6.6,0.1,9.9,0.2c0.1,2.4,0.2,4.6,0.2,6.8c-1.3,0.2-2.6,0.3-4,0.3c-3.5,0-7.3-0.5-10.9-1c-3.6-0.5-7.4-1-11-1
	C491.1,311.9,486.3,313.6,482.5,317.2l0,0.1L482.5,317.2z"/>
<path class="st61" d="M482.4,307.4c13.5-1.5,27.3-0.6,40.9-0.5c0.1,2.2,0.1,4.5,0.1,6.7c-13.3,1.8-29.8-7-40.9,3.6
	C482.4,313.9,482.4,310.6,482.4,307.4z"/>
<path class="st62" d="M122,402.8c1.9-16.3,1.5-33,1-49.3c-0.4-14.5-0.8-29.5,0.5-44.2c1.6,11.6,1.7,23.8,1.9,35.6
	c0,4.2,0.1,8.6,0.2,12.9c1.6,12.3,3.1,28.5,0.3,44.8C124.6,402.7,123.3,402.8,122,402.8L122,402.8L122,402.8z"/>
<path class="st62" d="M123.6,309.3c2,15.8,1.5,32.4,2,48.5c2,14.8,2.9,29.9,0.3,44.7c-1.3,0-2.5,0.1-3.8,0.2
	C125.7,371.9,120.8,340.4,123.6,309.3z"/>
<path class="st63" d="M254.6,338.3c-5.4-2.8-11.5-3.2-16.1-3.2c-2.5,0-5.1,0.1-7.6,0.2c-2.5,0.1-5.2,0.2-7.7,0.2
	c-3.9,0-7-0.3-9.8-0.9l0.1,1.4l0.1,1.3c-2-6.1-1.9-12.5-1.9-18.7c0-1,0-2,0-3c1.4-1.7,2.7-3.4,4-5c5,7.4,13.1,8.4,19.6,8.4
	c2.7,0,5.5-0.2,8.2-0.4c2.5-0.2,4.9-0.3,7.1-0.3c0.5,7.1,2.5,14,4.6,20.2l0,0.1L254.6,338.3z"/>
<path class="st63" d="M215.6,310.7c7.8,11.7,23.1,7.8,34.9,7.7c0.4,6.9,2.4,13.6,4.6,20.2l-0.5-0.3c-12.3-6.4-27.8-0.7-41.3-3.6
	c0,0.7,0.1,2,0.1,2.7c-2.2-7-1.8-14.4-1.8-21.7C212.9,314,214.3,312.4,215.6,310.7z"/>
<path class="st64" d="M249.1,339.7c-1.3,0-2.7,0-4-0.1l-4-0.1c-1.7,0-3.4,0-5.1,0c-1.5,0-3,0-4.5,0c-2.4,0-5.6,0.1-8.9,0.1
	c-3.6,0-6.8-0.1-9.7-0.2c-3.6-9.7-2.9-20.4-2-29.6l0.8,2.5l0,3.3c0,1,0,2,0,3c0,6.2-0.1,12.6,1.8,18.7l0.2,1.1
	c2.5-0.1,5.1-0.1,7.7-0.1c3,0,6,0,9.1,0c3,0,6,0,9.1,0c5.9,0,10.7-0.1,15-0.2l0.5,0.3c-1,0.7-2,1-3.1,1.2
	C251,339.7,250.1,339.7,249.1,339.7z"/>
<path class="st64" d="M212.9,339.4c-3.4-9.4-2.9-19.8-2-29.6l0.7,2.5c0,0.8,0,2.5,0,3.3c0,7.3-0.4,14.7,1.8,21.7l0.2,1.1
	c13.6-0.2,27.3,0.3,40.9-0.2l0.5,0.3c-1,0.6-2,0.9-3.1,1.1c-2.9,0.1-5.8,0-8.7,0c-0.6,0-1.7,0-2.2-0.1c-3.2-0.1-6.4-0.1-9.6,0
	C225.3,339.6,219.1,339.7,212.9,339.4z"/>
<path class="st65" d="M522.9,335.7c-2.3-0.9-4.5-2.2-6.7-3.4c-4.3-2.4-8.8-4.9-13.8-4.9c-1.4,0-2.9,0.2-4.3,0.6
	c-0.4-0.1-0.8-0.1-1.2-0.1c-2.3,0-4.3,1.4-6.1,2.7c-1.8,1.3-3.5,2.5-5.5,2.5c-0.9,0-1.8-0.3-2.8-0.8c0-1.7,0-3.3,0-4.9
	c0-1.6,0-3.2,0-4.8c0-1.3,0-2.7-0.1-4l0-1.5c3.8-3.7,8.6-5.3,15-5.3c3.6,0,7.4,0.5,11,1c3.6,0.5,7.4,1,10.9,1c1.4,0,2.7-0.1,4-0.2
	l-0.1,2.9C523.1,322.8,522.8,329.3,522.9,335.7L522.9,335.7L522.9,335.7z"/>
<path class="st65" d="M482.5,317.2c11.1-10.5,27.6-1.8,40.9-3.6c-0.3,7.4-0.6,14.7-0.5,22.1c-8.1-3.3-15.3-10.4-24.8-7.7
	c-6.2-1.2-9.5,7.8-15.5,4.3c0-3.2,0-6.5,0-9.7C482.6,320.8,482.6,319,482.5,317.2z"/>
<path class="st66" d="M387.9,336.9c0-1,0-2.1,0-3.1c-2.3-0.2-4.8-0.3-7.8-0.3c-2,0-4,0-6,0.1c-2,0-4,0.1-6,0.1
	c-6.7,0-13.9-0.4-20.7-3.6l0-0.3c0.2-3.3,0.5-8.3,4.9-8.3l0.1,0c2.7,0.1,5.5,0.3,8.2,0.5c4.7,0.3,9.5,0.6,14.3,0.6h0
	c2.7,0,5.2-0.1,7.5-0.3l1.1-1.4l1.2-1.6c0.7,0.2,1.3,0.5,1.9,0.8c0.2,3.5,0.7,7.4,2.9,10.6c0,2.5,0,5,0.1,7.7l-1.6,0.1L387.9,336.9z
	"/>
<path class="st66" d="M384.7,319.4c0.6,0.3,1.2,0.5,1.8,0.8c0.2,3.7,0.7,7.5,2.9,10.6c0,2.6,0,5.1,0.1,7.7l-1.5,0c0-1.6,0-3.1,0-4.7
	c-13.5-1.3-27.9,2.1-40.6-3.7c0.2-3.4,0.4-8.6,5-8.5c10,0.5,20,1.7,30,0.8C383.1,321.4,383.9,320.4,384.7,319.4z"/>
<path class="st67" d="M516,355.6c-3.9,0-7.9-0.2-11.7-0.3c-3.8-0.2-7.8-0.3-11.7-0.3c-3.1,0-5.9,0.1-8.5,0.3c-0.4,0-1.3,0-1.7,0
	c-0.5-5.6-0.6-11.3-0.6-16.8c0-2.1,0-4.1-0.1-6.2c0.1-1.8,0.4-3.7,0.6-5.4c0.2-1.4,0.3-2.8,0.5-4.2c0.1,1.6,0.1,3.2,0.1,4.8
	c0,1.6,0,3.2,0,4.8c0,1.5,0,3,0.1,4.6c0,1.3,0.1,2.5,0.1,3.8c0,2.9,0,5.9,0.1,8.8l0,4.4c3.4-0.3,6.9-0.6,10.3-0.7c0.9,0,1.8,0,2.6,0
	c1.6,0,3.1,0,4.7,0c1.6,0,3.2,0,4.7,0c1.1,0,2.3,0,3.4,0c0.6,0,1.2,0,1.8,0c4.1,0,7.5,0.7,10.4,2.2
	C519.4,355.5,517.8,355.6,516,355.6z"/>
<path class="st67" d="M481.6,332.3c0.2-3.2,0.8-6.4,1-9.6c0,3.2,0,6.5,0,9.7c0,2.8,0.1,5.5,0.1,8.3c0.1,4.4,0.1,8.8,0.1,13.2
	c3.5-0.3,6.9-0.6,10.4-0.7c5.2,0,10.3,0.1,15.5,0c4.2-0.2,8.4,0.2,12.2,2.2c-12.3,0.5-24.6-1.2-36.9-0.2c-0.4,0-1.3,0-1.7,0
	C481.6,347.6,481.7,339.9,481.6,332.3z"/>
<path class="st68" d="M116.9,351.7c-12.4-0.2-22.4-0.3-31.5-0.3c-2.3,0-4.5,0-6.8,0c-0.1-0.5-0.1-1.5-0.1-2c0.1-5-0.2-10.2-0.6-15.1
	c-0.2-2.3-0.3-4.6-0.4-6.9l0.2,0.3c0.5,2,0.9,4,1.2,6c0.1,1,0.2,3,0.2,4c0.2,0,0.4,0,0.6,0c0,0,0.1,0,0.1,0c2.5,0,5.2-0.3,8.1-0.7
	c3.1-0.4,6.3-0.7,9.3-0.7c8.4,0,12.8,3,14.2,9.8c-0.4,1-0.8,1.9-1.3,2.9l1.4,0.5C113.3,350.2,115.1,350.9,116.9,351.7L116.9,351.7z"
	/>
<path class="st68" d="M77.6,327.4c0.5,2.1,1,4.2,1.3,6.3c0.1,1,0.2,3,0.2,4c10.8,0.3,29.1-6.8,32.3,8.4c-0.4,1-0.8,1.9-1.3,2.8
	c2.3,0.9,4.5,1.9,6.8,2.7c-12.8-0.2-25.5-0.3-38.3-0.2c0-0.5,0-1.5-0.1-2C78.7,342.1,77.9,334.7,77.6,327.4z"/>
<path class="st69" d="M523,353.1c-1.5-0.2-3.1-0.3-4.6-0.5c0.8-3.5,1.1-7.1,1.1-11.2c-5.2-1.9-10.9-2.9-17.4-2.9
	c-7.3,0-14.6,1.3-19.4,2.2c-0.1-1.3-0.1-2.6-0.1-3.8c0-1.5-0.1-3-0.1-4.6c1,0.5,1.9,0.7,2.8,0.7c2,0,3.6-1.2,5.4-2.5
	c1.9-1.3,3.8-2.7,6.2-2.7c0.4,0,0.8,0,1.2,0.1c1.4-0.4,2.9-0.6,4.3-0.6c5,0,9.5,2.5,13.8,4.9c2.2,1.2,4.4,2.4,6.7,3.4l0,2.6
	C522.8,343.1,522.8,348.1,523,353.1L523,353.1L523,353.1z"/>
<path class="st69" d="M482.6,332.4c6,3.5,9.3-5.5,15.5-4.3c9.5-2.8,16.7,4.4,24.8,7.7c-0.1,5.8-0.3,11.5,0.1,17.3
	c-1.5-0.2-3.1-0.4-4.6-0.5c0.9-3.6,1.2-7.4,1.2-11.1c-11.9-4.5-24.7-3.1-36.9-0.7C482.7,337.9,482.6,335.1,482.6,332.4z"/>
<path class="st70" d="M116.9,351.7c-1.8-0.7-3.6-1.4-5.3-2.1l-1.5-0.6c0.4-1,0.8-2,1.2-2.9c-1.4-6.7-5.8-9.7-14.1-9.7
	c-3,0-6.2,0.4-9.3,0.7c-2.9,0.3-5.7,0.7-8.2,0.7c-0.2,0-0.5,0-0.7,0c-0.1-1-0.2-3-0.3-4c6.9-2.9,13.6-4.3,20-4.3c1,0,2,0,3,0.1
	c6.1,3,17.4,8.5,14.1,19c0.8,1,1.7,2.1,2.5,3.1l0.1,0.1L116.9,351.7z"/>
<path class="st70" d="M78.8,333.7c7.2-3,15.2-4.7,23-4.2c7.4,3.6,17.1,9.1,14.1,19c0.8,1,1.7,2.1,2.5,3.2c-0.4,0-1.1-0.1-1.5-0.1
	c-2.3-0.9-4.5-1.8-6.8-2.7c0.4-1,0.9-1.9,1.3-2.8c-3.2-15.1-21.5-8.1-32.3-8.4C79,336.7,78.9,334.7,78.8,333.7z"/>
<path class="st71" d="M384.9,338.6c-2.4,0-4.9,0-7.3-0.1s-4.9-0.1-7.3-0.1c-1.4,0-2.8,0-4.2,0c-2.5-0.2-5.1-0.2-7.6-0.2
	c-3.6,0-7.3,0-10.9-0.5c-0.2-1.7-0.3-3.5-0.3-5.4c0-0.6,0-1.7,0-2.3c6.9,3.1,14,3.5,20.7,3.5c2,0,4,0,6-0.1c2,0,4-0.1,6-0.1
	c3.1,0,5.6,0.1,7.9,0.3c0,1.1,0,2.1,0,3.2l0,1.6C386.9,338.6,385.9,338.6,384.9,338.6z"/>
<path class="st71" d="M347.4,330.1c12.7,5.9,27.1,2.4,40.6,3.7c0,1.5,0,3.1,0,4.7c-7.3,0.1-14.6-0.2-21.8-0.1
	c-6.2-0.4-12.3,0.1-18.5-0.7c-0.1-1.8-0.2-3.6-0.3-5.3C347.4,331.8,347.4,330.7,347.4,330.1z"/>
<path class="st72" d="M239.5,338.5c-3,0-6,0-9.1,0c-3,0-6,0-9.1,0c-2.6,0-5.2,0-7.8,0l-0.3-1.1l-0.1-2.7c2.9,0.5,6,0.8,9.8,0.8
	c2.6,0,5.2-0.1,7.7-0.2c2.5-0.1,5.1-0.2,7.6-0.2c4.7,0,10.7,0.4,16.2,3.2C250.2,338.4,245.4,338.5,239.5,338.5z"/>
<path class="st72" d="M213.3,334.6c13.5,2.9,29-2.8,41.3,3.6c-13.6,0.5-27.3,0-40.9,0.2l-0.2-1.1
	C213.4,336.7,213.3,335.3,213.3,334.6z"/>
<path class="st73" d="M364.7,436.3c-0.9-7.1-0.9-14.4-0.8-21.4c0-5.3,0-10.8-0.3-16.3c-3.4-0.2-6.5-1.6-9.5-3
	c-3.4-1.5-6.6-2.9-10.1-2.9c-1.5,0-3,0.3-4.5,0.8c-0.4-0.9-0.7-1.7-1.1-2.5c-0.3-0.8-0.6-1.5-0.9-2.3c-0.5,0.2-1,0.2-1.4,0.2
	c-3.3,0-4.3-3.6-5.4-7.5c-0.8-2.9-1.6-5.9-3.5-7.4c3.2-4.7,3.1-10.3,2.9-15.8c-0.1-5.7-0.2-11.6,3.5-16.2c-1-1.7-1.2-3.2-0.6-4.3
	c0.7-1.3,2.4-2,4.6-2c2.2,0,5.2,0.8,6.6,3.2l1.1-0.4l1.2-0.4c2.5,0.9,5.2,1.3,8.8,1.3c1.6,0,3.2-0.1,4.7-0.1
	c1.3-0.1,2.6-0.1,3.9-0.1c-0.1,0.9-0.5,2.7-0.7,3.6c-0.3,0.1-0.5,0.1-0.8,0.1c-0.9,0-1.9-0.1-2.9-0.2c-1-0.1-2.1-0.2-3.1-0.2
	c-2.1,0-4.7,0.3-6,3c-1.9,7.9-2.4,16.9-1.5,26.6c0.2,5,4.2,6.4,8.4,8c2.4,0.9,5,1.8,6.7,3.5l0-1.2c0.1-1.2,0.2-2.4,0.3-3.5
	C364.8,395.7,364.9,414,364.7,436.3L364.7,436.3z"/>
<path class="st73" d="M333.7,342.2c-4.3-7.3,7.5-8.2,10.5-3.1c0.6-0.2,1.8-0.6,2.3-0.8c5.6,2,11.7,1.1,17.5,1
	c-0.2,0.9-0.5,2.7-0.7,3.6c-4.1,0.3-10.5-2-12.8,2.7c-2,8.7-2.3,17.8-1.5,26.6c0.3,8,10.4,7.1,15.1,11.5c0.1-1.6,0.3-3.2,0.4-4.8
	c0.3,19.2,0.4,38.4,0.3,57.6c-1.6-12.5-0.3-25.1-1.1-37.7c-8.6-0.7-15.2-8.4-24.2-5.2c-0.7-1.6-1.2-3.2-1.9-4.8
	c-7.4,2-5.7-10.8-10.3-14.6C333.8,364.6,326.4,350.9,333.7,342.2z"/>
<path class="st74" d="M230.9,479.4c-0.9-12.5-0.8-25.4-0.7-37.8c0.1-12.8,0.2-26.1-0.8-39.1c-1.6-3.6-5.1-3.9-8.2-3.9
	c-0.6,0-1.2,0-1.8,0c-0.6,0-1.2,0-1.8,0c-1.1,0-2.5,0-3.8-0.4c-2.7-2.8-4.1-6.8-4.4-12.3c-0.2-5.2-1.3-10.5-2.3-15.6
	c-2.1-10.4-4.3-21.2,0.8-31.5l1.4,0.9l1.9,1.3c0.6-0.6,1.2-1.1,1.9-1.7c3,0.1,6.2,0.2,9.8,0.2c3.3,0,6.5,0,8.9-0.1c0,0.5,0,1.2,0,2
	c0,0.8-0.1,1.5-0.1,2c-3.8,0.8-8,1.3-13,1.9c-2.2,10.4-5.4,24.8,4.5,33.3c1.6-0.5,3.3-0.9,5-1.4l0.3-0.1c1.4,5.6,2,11.3,2.6,16.9
	l0.1,1.3C231.4,425.5,231.4,453,230.9,479.4L230.9,479.4z"/>
<path class="st74" d="M207.8,338.9c1.1,0.8,2.1,1.5,3.2,2.3c0.6-0.6,1.3-1.1,1.9-1.7c6.2,0.2,12.4,0.2,18.6,0.1c0,1-0.1,3-0.2,3.9
	c-4.3,0.8-8.6,1.4-12.9,1.8c-2.4,11-5.3,24.9,4.4,33.4c1.8-0.5,3.6-1,5.4-1.4c1.4,6,2,12,2.7,18.1c0.4,28,0.5,56,0,84
	c-1.8-25.5,0.5-51.3-1.5-76.8c-2.7-6.1-10.7-3-15.7-4.3c-3.1-3.3-4.2-7.9-4.4-12.3C208.7,370.2,200.3,354.3,207.8,338.9z"/>
<path class="st75" d="M233.3,610.3c-0.8-0.9-1.9-2-2-3.4c-0.5-23.1-0.4-46.6-0.3-69.3c0.1-19.1,0.2-38.8-0.1-58.2
	c0.4-26.4,0.4-53.9,0-84c0.7-7.9,0.3-15.9-0.1-23.6c-0.5-9.3-0.9-18.9,0.5-28.3c0-0.5,0.2-3.5,0.2-3.9c1.6-0.1,3.1-0.1,4.6-0.1
	c1.7,0,3.4,0,5.1,0c2.5,12.6,1.8,25.5,1.2,38.1c-0.2,3.1-0.3,6.3-0.4,9.4c-0.3,33.2-0.1,66.9,0.1,99.5c0.2,40,0.4,81.3-0.1,121.9
	c0,0.3,0,1,0,1.3c-1.9,0.6-3.9,1.1-6.3,1.6l0,0L233.3,610.3z"/>
<path class="st75" d="M231.5,339.5c3.2,0,6.4,0,9.6,0c3.1,15.6,1.3,31.7,0.7,47.5c-0.6,73.8,1,147.7-0.1,221.5c0,0.3,0,1,0,1.3
	c-2.1,0.6-4.1,1.1-6.2,1.5c-0.6-0.2-1.7-0.7-2.2-1c-0.9-1-1.8-2-1.9-3.4c-0.9-42.5,0.2-85-0.4-127.5c0.4-28,0.4-56,0-84
	c1.6-17.3-2.2-34.6,0.4-51.9C231.4,342.5,231.5,340.5,231.5,339.5z"/>
<path class="st76" d="M241.7,608.5c0.6-40.6,0.4-82,0.1-121.9c-0.2-32.6-0.4-66.4-0.1-99.5c0.1-3.1,0.3-6.3,0.4-9.4
	c0.7-12.6,1.3-25.5-1.1-38l1.1,0l1.1,0c10.4,5.5,8.4,16.7,6.5,26.5c-0.4,2.4-0.9,4.7-1.1,6.9c0.5,3.7-1,6.9-2.4,9.9
	c-1.3,2.8-2.7,5.8-2.5,9.1c0,4.7-0.3,9.4-0.5,14c-0.3,6.4-0.7,13.1-0.4,19.6c0,16.6,0,33.1,0,49.7c-0.1,42.2-0.1,85.9,0.6,128.8
	c-0.1,1.2-0.6,2.4-1.2,3.5C242.1,607.8,241.9,608.1,241.7,608.5L241.7,608.5z"/>
<path class="st76" d="M241.1,339.5c0.6,0,1.7,0,2.2,0.1c12.9,6.8,6.6,22.1,5.4,33.4c1,7.1-5.4,12.1-5,19c0,11.2-1.4,22.4-0.9,33.6
	c0.1,59.5-0.4,119,0.5,178.5c-0.1,1.6-1,3-1.6,4.5c1.1-73.8-0.5-147.6,0.1-221.5C242.4,371.2,244.2,355.1,241.1,339.5z"/>
<path class="st77" d="M242.8,425.6c-0.3-6.5,0-13.2,0.4-19.6c0.2-4.6,0.5-9.3,0.5-14c-0.2-3.3,1.2-6.3,2.5-9.1
	c1.5-3.1,3-6.2,2.4-9.9c0.2-2.2,0.7-4.5,1.1-6.9c1.8-9.8,3.9-20.9-6.5-26.4l1.8-0.1c1.3,0,2.7,0.1,4,0.1c0.9,0,1.9,0,2.8-0.1
	c3.7,4.4,5.5,10.1,5.3,16.3l1.7,1.1l1.7,1.2c0.9,13.1,2.2,32.9-13.4,41.6c-0.8,3.8-1.3,7.7-1.8,11.5
	C244.8,416,244.1,420.9,242.8,425.6L242.8,425.6z"/>
<path class="st77" d="M243.3,339.6c2.9,0,5.8,0.2,8.7,0c3.8,4.6,5.4,10.3,5.2,16.2c1.1,0.8,2.3,1.5,3.4,2.3
	c1,14.9,1.6,33.1-13.4,41.5c-1.8,8.5-2.1,17.4-4.3,25.8c-0.6-11.2,0.9-22.4,0.9-33.6c-0.4-6.9,6-12,5-19
	C250,361.7,256.2,346.4,243.3,339.6z"/>
<path class="st78" d="M364,383.6c-1.7-1.7-4.2-2.6-6.7-3.5c-4.2-1.6-8.3-3-8.4-8.1c-0.8-9.7-0.3-18.7,1.6-26.6c1.3-2.7,3.9-3,6.1-3
	c1,0,2.1,0.1,3.2,0.2c1,0.1,2,0.2,2.9,0.2c0.3,0,0.5,0,0.8,0c0.1-0.9,0.5-2.6,0.7-3.5l2,0c-1.9,9.1-1.7,18.4-1.6,27.4
	c0.1,4,0.2,8.1,0,12.1c-0.1,1.2-0.2,2.4-0.3,3.5L364,383.6L364,383.6z"/>
<path class="st78" d="M364,339.2L364,339.2l2,0.1c-2.8,13-1.2,26.3-1.6,39.5c-0.1,1.6-0.3,3.2-0.4,4.8c-4.6-4.5-14.8-3.6-15.1-11.5
	c-0.8-8.8-0.5-18,1.5-26.6c2.3-4.7,8.7-2.4,12.8-2.7C363.5,341.8,363.9,340,364,339.2z"/>
<path class="st79" d="M371.1,611.3c-1.7,0-3.3-0.6-4.4-1.7c-0.9-0.9-1.4-2.1-1.4-3.5c-0.2-16.2-0.1-32.6-0.1-48.5
	c0.1-15.4,0.1-31.4-0.1-47.1c0-4.5,0-9,0.1-13.6c0.1-12.3,0.2-25.1-0.4-37.6c0-2.8,0-5.7,0.1-8.5c0.1-4.8,0.3-9.7-0.2-14.6
	c0-22.3-0.1-40.6-0.3-57.6c0.1-4,0-8.1,0-12.1c-0.2-9-0.3-18.4,1.6-27.4c1.9,0,3.8,0.1,5.6,0.2l2.7,0.1c1.2,3.4,2.4,6.8,2.4,10.5
	c-0.6,96.2-0.7,180.7-0.3,258.3C375.4,610.2,373.5,611.3,371.1,611.3z"/>
<path class="st79" d="M366,339.2c2.8,0.1,5.5,0.2,8.3,0.3c1.1,3.4,2.3,6.8,2.3,10.4c-0.6,86.1-0.8,172.2-0.3,258.3
	c-2.5,4.9-11,3.6-11-2.2c-0.4-31.9,0.2-63.8-0.2-95.6c0-17,0.5-34.1-0.3-51.1c-0.1-7.7,0.7-15.4-0.1-23.1c0-19.2,0-38.4-0.3-57.6
	C364.8,365.6,363.2,352.2,366,339.2z"/>
<path class="st80" d="M376.3,608.3c-0.5-77.6-0.4-162.1,0.3-258.3c0-3.6-1.2-7.1-2.3-10.4c0.2,0,0.4,0,0.6,0c0.8,0,1.5,0,2.3,0.1
	c0.7,0.4,1.4,0.9,2.2,1.3c3.5,2,7.4,4.3,6.3,9c-0.6,3.1-0.9,6.3-1.2,9.3c-0.8,6.9-1.6,14-4.6,20.5c-2.7,5.8-2.7,12.3-2.6,18.6l0,1.8
	c-0.5,33.1-0.4,66.7-0.3,99.3c0.1,36.1,0.2,73.4-0.4,110l-0.1,0L376.3,608.3z"/>
<path class="st80" d="M374.3,339.6c1,0,1.9,0.1,2.9,0.1c3.7,2.4,9.8,4.5,8.5,10.2c-1.8,10-1.4,20.5-5.9,29.8
	c-3,6.4-2.6,13.6-2.6,20.4c-1,69.7,0.5,139.6-0.7,209.3l0-1.1c-0.5-86.1-0.3-172.2,0.3-258.3C376.6,346.4,375.4,342.9,374.3,339.6z"
	/>
<path class="st81" d="M377.1,400.2l0-1.8c0-6.3-0.1-12.8,2.6-18.6c3.1-6.4,3.9-13.5,4.6-20.4c0.3-3.1,0.7-6.3,1.2-9.3
	c1.1-4.6-2.8-6.9-6.3-8.9c-0.8-0.4-1.5-0.9-2.2-1.3l0.9-0.1c1.9,0.1,3.9,0.2,5.9,0.2c5.1,3.3,5.5,9,5.9,14.5
	c0.2,2.2,0.3,4.4,0.8,6.4c-0.5,2.4-0.2,4.9,0.1,7.3c0.4,3.5,0.9,7.1-1.2,10.2c0.2,4.6-2.8,7.7-6,11.1
	C380.6,392.4,377.5,395.6,377.1,400.2L377.1,400.2z"/>
<path class="st81" d="M377.1,339.7c2.3,0.1,4.5,0.2,6.8,0.3c7,4.6,5,13.7,6.6,20.8c-1.3,5.8,2.5,12.2-1.1,17.4
	c0.5,9-11.7,12.6-12.4,21.9c0-6.9-0.4-14.1,2.6-20.4c4.5-9.3,4.1-19.8,5.9-29.8C387,344.2,380.9,342.1,377.1,339.7z"/>
<path class="st82" d="M505.3,353.3c-1.6,0-3.2,0-4.7,0c-1.6,0-3.1,0-4.7,0c-0.9,0-1.8,0-2.6,0c-0.7-1-1.3-2.1-2-3.1l-1-1.7
	c2.2-5,6.4-7.8,11.9-7.8c2.6,0,5.5,0.6,8.2,1.9c-0.7,1.1-1.4,2.2-2.1,3.2c1.2,0.7,2.5,1.4,3.7,2.1c-1.1,1.8-2.2,3.6-3.2,5.3
	C507.6,353.3,506.5,353.3,505.3,353.3z"/>
<path class="st82" d="M490.3,348.5c3.6-8.4,12.5-9.2,20.1-5.9c-0.7,1-1.4,2.1-2.1,3.1c1.3,0.7,2.5,1.5,3.8,2.2
	c-1.1,1.7-2.2,3.5-3.3,5.2c-5.2,0.1-10.4-0.1-15.5,0C492.2,351.6,491.3,350.1,490.3,348.5z"/>
<path class="st83" d="M230.8,394.1c-0.6-5.5-1.2-11.3-2.5-16.8l-0.2,0.1c-1.7,0.4-3.4,0.9-5.1,1.3c-9.9-8.6-6.8-22.9-4.5-33.4
	c5-0.6,9.2-1.2,13-1.9c-1.4,9.5-0.9,19.1-0.4,28.4c0.4,7.7,0.8,15.7,0.1,23.6l-0.1,0L230.8,394.1z"/>
<path class="st83" d="M218.4,345.3c4.3-0.5,8.6-1,12.9-1.8c-2.6,17.3,1.1,34.6-0.4,51.9c-0.7-6.1-1.3-12.2-2.7-18.1
	c-1.8,0.5-3.6,0.9-5.4,1.4C213.1,370.2,216,356.4,218.4,345.3z"/>
<path class="st84" d="M78.3,355.4c0.1-1.4,0.2-2.7,0.3-4c2.3-0.1,4.6-0.1,6.8-0.1c9.1,0,19.1,0.1,31.5,0.3l1.5,0.1
	c0.1,0.6,0.3,1.8,0.3,2.3l0.5-2.1c0.1,0.7,0.2,2.1,0.2,2.8c-2.9,0.1-5.8,0.1-8.6,0.1l1.6,0.5l-3.4,0.1c-2.4,0-4.7,0-7.1,0
	c-2.3,0-4.7,0-7,0c-2.3,0-4.7,0-7,0c-2.9,0-5.7,0-8.6,0L78.3,355.4L78.3,355.4z"/>
<path class="st84" d="M78.6,351.4c12.8-0.1,25.5,0.1,38.3,0.2c0.4,0,1.1,0.1,1.5,0.1c0.1,0.6,0.2,1.7,0.3,2.3l0.6-2.1
	c0,0.7,0.1,2.1,0.1,2.8c-2.9,0.1-5.7,0.1-8.6,0.1l1.6,0.6c-0.8,0-2.5,0-3.4,0c-9.9,0.1-19.8-0.1-29.7,0l-0.9,0.1
	C78.5,354.1,78.6,352.7,78.6,351.4z"/>
<path class="st85" d="M97.9,363.8c-4.5,0-10.1-1.2-17.3-3.6l4.3-3.7c-1.9-0.3-3.8-0.7-5.7-1.2c2.9-0.1,5.7-0.1,8.6-0.1
	c2.3,0,4.7,0,7,0s4.7,0,7,0c2.4,0,4.7,0,7.1,0C108.5,361,104.8,363.8,97.9,363.8z"/>
<path class="st85" d="M79.2,355.3c9.9-0.1,19.8,0.1,29.7,0c-1.2,13.3-19.9,7.8-28.3,4.9c1.4-1.2,2.9-2.4,4.3-3.6
	C83.1,356.2,81.2,355.8,79.2,355.3z"/>
<path class="st86" d="M500,358.3c-4.5,0-8.2-0.2-11.7-0.6c-1.5-0.1-3.1-0.4-4.6-0.6l-0.6-0.1l0.4-1l0.5-0.9c2.7-0.2,5.4-0.3,8.6-0.3
	c3.9,0,7.9,0.2,11.7,0.3c3.8,0.2,7.8,0.3,11.7,0.3c1.7,0,3.4,0,4.9-0.1h1.1c0.5,0.8,0.9,1.6,1.4,2.4c-0.6,0.1-1.1,0.1-1.6,0.1
	c0,0-0.1,0-0.1,0c-3.6,0-7.3,0.1-10.9,0.2C507.3,358.2,503.6,358.3,500,358.3z"/>
<path class="st86" d="M484,355.2c12.3-1,24.6,0.7,36.9,0.2c0.3,0,0.8,0,1.1,0c0.4,0.8,0.9,1.6,1.4,2.4c-11.7-0.1-23.4,1.2-35.1-0.1
	c-1.7-0.2-3.5-0.5-5.2-0.8C483.3,356.5,483.8,355.6,484,355.2z"/>
<path class="st87" d="M78.5,400c-4.3-10.1-2.8-21.1-1.5-31.7c0.5-4.3,1.1-8.7,1.3-12.9l0.9-0.1c-0.3,5.1-0.6,9.6-0.8,13.8
	c-0.1,1.7-0.3,3.5-0.4,5.2c-0.6,7-1.2,14.2,0.1,21.2C78.3,396.8,78.4,398.2,78.5,400L78.5,400z"/>
<path class="st87" d="M78.5,400c-6-14.2-0.8-29.9-0.2-44.6l0.9-0.1c-0.3,4.6-0.6,9.2-0.9,13.7c-0.6,8.8-2,17.7-0.3,26.4
	C78.3,397,78.4,398.5,78.5,400z"/>
<path class="st88" d="M523.2,407.2c0.2-3.5,0.3-7.2,0.2-10.9c-0.1-5.9,0-11.8,0-17.6c0-4.1,0-8.2,0-12.2c0-2.4,0.1-4.9,0.1-7.3
	l-0.4,0c-1.5-0.1-3-0.1-4.5-0.1l-0.5,0l-4.4,0.1c-5.3,0.1-10.9,0.3-16.3,0.3c-1.4,0-2.9,0-4.3,0c-2.9,0-6-0.2-10-0.5l0,0.8
	c-0.1,2.6-0.3,5.4-0.3,8.1c-0.1,5-0.1,10.1-0.1,15c0,4.8,0.1,9.9-0.1,14.8c-0.2,3.2,0,6.4,0.6,9.6c-1-0.3-1.6-0.9-1.9-1.7
	c0.3-7.4,0.2-14.9,0.2-22.2c-0.1-5.5-0.1-11.3,0-16.9c0-2,0.1-4,0.2-5.9l0.1-1.9l1-0.2c1.8-0.3,3.6-0.6,5.5-0.7
	c3.5,0.4,7.3,0.6,11.7,0.6c3.6,0,7.3-0.1,10.9-0.2c3.6-0.1,7.2-0.2,10.9-0.2c0.6,0,1.1,0,1.7,0c0.2,0.1,1.1,0.6,1.3,0.7
	c0.6,17.5,0.5,33.5-0.3,48.7L523.2,407.2L523.2,407.2z"/>
<path class="st88" d="M481.8,358.6c2.1-0.3,4.3-0.7,6.5-0.9c11.7,1.3,23.4,0,35.1,0.1c0.3,0.2,1,0.5,1.3,0.7
	c0.6,16.2,0.6,32.5-0.3,48.7l-1.1,0.1c0.2-3.6,0.3-7.3,0.2-10.9c-0.1-9.9,0.1-19.9,0-29.8c0-2.4,0.1-4.9,0.1-7.3
	c-1.9-0.1-3.7-0.2-5.5-0.1c-8.4,0.2-16.7,0.5-25.1,0.4c-3.3,0-6.7-0.3-10-0.5c-0.1,3-0.3,6-0.4,9c-0.3,9.9,0.1,19.8-0.1,29.8
	c-0.2,3.2,0.1,6.5,0.6,9.7c-0.9-0.4-1.5-0.9-1.8-1.7c0.6-13-0.1-26,0.2-39.1C481.6,363.8,481.7,361.2,481.8,358.6z"/>
<path class="st89" d="M500.2,376.8c-3.7,0-7.6-0.5-11.4-1.5c-2.3-1.1-3.6-3.2-4.8-5.3c-0.4-0.7-0.9-1.4-1.3-2.1
	c0.1-2.7,0.2-5.5,0.3-8.1l0-0.9c4.1,0.3,7.2,0.5,10,0.5c-0.9,1.4-1.9,2.7-2.8,4c3.2,1.6,6.6,2.5,10.2,2.5c5.9,0,12.2-2.4,17.6-6.9
	l0.6,0c1.5,0,3,0.1,4.5,0.1l0.5,0c0,2.5-0.1,4.9-0.1,7.4C516.9,375,507.2,376.8,500.2,376.8z"/>
<path class="st89" d="M483.1,358.8c3.3,0.3,6.7,0.5,10,0.5c-1,1.3-1.9,2.6-2.9,4c9.7,5.1,20.1,2,27.9-4.3c1.8,0,3.7,0.1,5.5,0.1
	c-0.1,2.4-0.1,4.9-0.1,7.3c-8.3,10.5-22.5,11.9-34.7,8.7c-3-1.4-4.3-4.8-6.1-7.4C482.8,364.8,482.9,361.8,483.1,358.8z"/>
<path class="st90" d="M500.5,365.9c-3.6,0-7-0.9-10.3-2.6c0.9-1.4,1.9-2.7,2.8-4c1.5,0,2.9,0,4.4,0c5.4,0,11-0.1,16.3-0.3l4.4-0.1
	C512.7,363.5,506.4,365.9,500.5,365.9z"/>
<path class="st90" d="M493.1,359.4c8.4,0.1,16.7-0.2,25.1-0.4c-7.8,6.4-18.2,9.4-27.9,4.3C491.2,362,492.1,360.7,493.1,359.4z"/>
<path class="st91" d="M481.3,405.5c-4.5-10.4-4.4-25,0.2-39.1c0,5.7,0,11.4,0.1,16.9C481.7,390.6,481.8,398.1,481.3,405.5
	L481.3,405.5z"/>
<path class="st91" d="M481.4,405.5c-5.1-11.8-3.8-26.9,0.2-39.1C481.3,379.4,482,392.5,481.4,405.5z"/>
<path class="st92" d="M504.3,398.6c-5,0-10.1-0.3-15-0.6c-2.2-0.1-4.5-0.3-6.7-0.4c0.1-5,0-10,0-14.8c0-4.9-0.1-10,0.1-15
	c0.6,0.6,1,1.4,1.4,2.1c1.2,2.1,2.5,4.2,4.8,5.3c3.8,1,7.6,1.5,11.4,1.5c6.9,0,16.6-1.8,23.2-10.2c0.1,4.1,0.1,8.2,0.1,12.3
	c0,5.8-0.1,11.7,0,17.6C517.9,397.9,511.8,398.6,504.3,398.6z"/>
<path class="st92" d="M488.8,375.2c12.2,3.2,26.4,1.8,34.7-8.7c0,9.9-0.1,19.9,0,29.8c-13.4,3.8-27.3,2-40.9,1.3
	c0.3-9.9-0.1-19.9,0.1-29.8C484.5,370.4,485.8,373.8,488.8,375.2z"/>
<path class="st93" d="M121.6,397.7c-3.6-2.6-8-3.9-12.9-3.9c-2.7,0-5.6,0.4-8.6,1.2c-1.3,0.4-2.6,0.6-4.1,0.6c-2,0-4.1-0.3-6.1-0.6
	c-2-0.3-4-0.6-6-0.6c-2.2,0-4,0.4-5.7,1.2c-1.4-7.1-0.8-14.3-0.2-21.2c0.2-1.7,0.3-3.5,0.4-5.2c3.5,4.8,9.5,7.7,15.6,7.7
	c1,0,1.9-0.1,2.9-0.2c1.9-0.4,3.9-0.6,5.8-0.8c4.8-0.5,9.9-0.9,13-5.4c2.5,2.8,2.4,6.4,2.4,10c0,4.2-0.1,8.2,3.8,10.6l0,2.3
	C121.8,394.7,121.7,396.2,121.6,397.7L121.6,397.7L121.6,397.7z"/>
<path class="st93" d="M78.4,369.1c4.1,5.7,11.6,8.7,18.4,7.6c6.6-1.5,14.4,0,18.9-6.2c5.2,6-1.1,16.2,6.2,20.6
	c-0.1,2.2-0.1,4.5-0.2,6.7c-6.4-4.5-14.3-4.6-21.6-2.7c-7.4,2.1-14.9-2.9-22,0.5C76.4,386.7,77.7,377.9,78.4,369.1z"/>
<path class="st94" d="M105.2,403.2c-4.2,0-8.5-0.1-12.6-0.2c-3.8-0.1-7.8-0.2-11.7-0.2l-2.1-0.3l-0.1-1.1l-0.1-1.3
	c-0.2-1.8-0.3-3.2-0.5-4.5c1.7-0.9,3.6-1.3,5.8-1.3c2,0,4,0.3,6,0.6c2,0.3,4.1,0.6,6.1,0.6c1.5,0,2.8-0.2,4.1-0.5
	c3-0.8,5.9-1.2,8.6-1.2c5,0,9.3,1.3,13,3.9l-0.2,4.7C116.6,403,111.5,403.2,105.2,403.2z"/>
<path class="st94" d="M78,395.5c7.1-3.4,14.6,1.7,22-0.5c7.3-2,15.2-1.8,21.6,2.7c-0.1,1.5-0.2,3.1-0.2,4.6
	c-13.3,1.6-27.1,0.4-40.5,0.4c-0.5-0.1-1.6-0.2-2.1-0.3c-0.1-0.8-0.1-1.6-0.2-2.4C78.4,398.5,78.3,397,78,395.5z"/>
<path class="st95" d="M518.2,407.5c-2.4,0-4.8-0.1-7.2-0.3c-2.4-0.1-4.8-0.2-7.2-0.2c-1.7,0-3.2,0.1-4.6,0.2c-3,0.2-6,0.2-9,0.2
	c-2.3,0-4.7,0-7,0.1l-0.1-0.3c-0.6-3.2-0.8-6.5-0.6-9.7c2.3,0.1,4.5,0.2,6.8,0.4c4.9,0.3,10,0.6,15,0.6c7.5,0,13.6-0.7,19.2-2.3
	c0.1,3.8,0.1,7.5-0.1,11C521.7,407.4,520.1,407.5,518.2,407.5z"/>
<path class="st95" d="M482.6,397.5c13.6,0.7,27.5,2.5,40.9-1.3c0.1,3.6,0,7.3-0.2,10.9c-8,0.8-16.1-0.8-24.1-0.1
	c-5.3,0.3-10.7,0.1-16,0.3l0-0.2C482.6,404,482.4,400.8,482.6,397.5z"/>
<path class="st96" d="M97.8,607.4c-1.3-21.1-1.1-42.8-0.9-63.7c0.2-21.8,0.4-44.3-1.1-66.3c-0.7,0.3-1.4,0.5-2.1,0.5
	c-2.7,0-5.1-1.9-7.4-3.6c-2.2-1.7-4.3-3.3-6.5-3.3c-1.7,0-3.3,1-4.9,3c-9.7-7.7-8.8-19.9-7.9-31.8c0.3-3.9,0.6-7.6,0.5-11.1
	c1.3-4.6,1.4-9.3,1.6-13.9c0.1-4.6,0.3-9.3,1.6-13.7c0.5-1.3,1.3-2,2.4-2c1.1,0,2.4,0.7,3.7,1.4c0.9,0.5,1.8,0.9,2.5,1.1
	c3,0.5,6,0.5,8.3,0.5c1.3,0,2.5,0,3.8,0c1.3,0,2.5,0,3.8,0c0.4,0,0.8,0,1.3,0c-0.6,1.1-1.2,2.1-1.8,3.2c-1.9,0-3.7,0-5.6-0.1
	c-1.9,0-3.9-0.1-5.8-0.1c-0.7,5.6-2.6,10.9-4.5,16.1c-1.2,3.5-2.5,7.1-3.4,10.8c-0.6,3.4,0.1,6.3,2.1,8.7c4.2,5,13.1,6.9,19.5,6.9
	c1.4,32.7,1.2,66,1,98.2C97.8,567.4,97.6,587.6,97.8,607.4L97.8,607.4z"/>
<path class="st96" d="M70.6,403.4c1.8-4.4,5.8-0.2,8.6,0.5c5.7,0.9,11.4,0.4,17.2,0.4c-0.6,1-1.2,2-1.8,3.1
	c-3.8-0.1-7.6-0.2-11.3-0.2c-1.3,9.4-5.7,17.9-7.9,26.9c-2.1,11.9,12.5,15.6,21.6,15.7c2.2,52.4,0.4,105,1,157.5
	c-2.7-43.1,1-86.8-2-130c-8.1,3.2-13.6-13-21-3.5c-12.8-10.2-7-28.7-7.4-42.8C70,422,68,412.4,70.6,403.4z"/>
<path class="st97" d="M96.8,449.9c-6.4-0.1-15.4-1.9-19.5-6.9c-2-2.4-2.8-5.4-2.1-8.8c0.9-3.7,2.2-7.3,3.4-10.8
	c1.8-5.2,3.7-10.5,4.5-16.1c0.2,0,0.3,0,0.5,0c1.8,0,3.6,0,5.4,0.1c1.8,0,3.7,0.1,5.5,0.1c0.5-1,1.1-2,1.8-3.1l0.9,0l1.2,0
	c-2.4,8.9-1.9,18.1-1.5,27C97.2,437.4,97.5,443.7,96.8,449.9L96.8,449.9L96.8,449.9z"/>
<path class="st97" d="M96.3,404.4c0.5,0,1.5,0,2.1,0c-4.1,15,0,30.4-1.5,45.5c-9.1-0.1-23.8-3.8-21.6-15.7c2.3-9,6.6-17.6,7.9-26.9
	c3.8,0.1,7.6,0.2,11.3,0.2C95.1,406.4,95.7,405.4,96.3,404.4z"/>
<path class="st98" d="M102.7,611.6c-0.6,0-1.1-0.1-1.7-0.3c0,0-2.3-1.2-3.1-1.7c0-0.3,0-0.7-0.1-1.1c0-0.4,0-0.8,0-1.1
	c-0.2-19.8-0.1-39.9,0-59.4c0.2-32.2,0.4-65.4-1-98.1c0.6-6.2,0.3-12.5,0-18.6c-0.4-8.9-0.9-18.1,1.5-26.9c0.8,0,1.6,0,2.4,0
	c2.4,0,4.8,0,7.2,0.1c1.5,11.8,1.2,23.8,0.8,35.5c-0.3,10.8-0.7,22,0.5,32.9c-0.5,21.6-0.4,43.5-0.3,64.7
	c0.1,23.6,0.3,47.9-0.5,71.9c-0.5,0.3-0.9,0.5-1.4,0.7C105.7,610.8,104.2,611.6,102.7,611.6z"/>
<path class="st98" d="M98.3,404.3c3.2,0,6.4,0,9.6,0.1c2.8,22.6-1.1,45.6,1.2,68.3c-1.1,45.5,0.7,91.1-0.7,136.6
	c-2.3,1.1-4.8,3-7.4,1.9c-1.1-0.6-2.1-1.1-3.1-1.7c0-0.5-0.1-1.6-0.1-2.2c-0.6-52.5,1.2-105-1-157.5
	C98.3,434.7,94.3,419.3,98.3,404.3z"/>
<path class="st99" d="M109.1,472.7c-1.1-10.9-0.8-22.1-0.5-32.9c0.4-11.6,0.7-23.7-0.8-35.4l2.8,0c2.3,1.6,5.4,3.8,8.3,6.2
	c-1.3,6-1.3,12.2-1.3,18.2c0,3.4,0,6.8-0.2,10.2c-0.1,3.1-1.6,5.7-3.1,8.3c-1.3,2.1-2.6,4.3-3,6.7c-0.9,2.8-0.8,5.7-0.7,8.5
	C110.7,466,110.7,469.5,109.1,472.7l0,0.2L109.1,472.7z"/>
<path class="st99" d="M107.9,404.4c0.7,0,2.1,0,2.8,0c2.8,2,5.6,4,8.3,6.2c-2.1,9.4-0.9,18.9-1.5,28.4c-0.1,5.7-5.2,9.5-6.1,15
	c-1.9,6.1,0.7,12.8-2.2,18.7C106.8,450,110.8,427,107.9,404.4z"/>
<path class="st100" d="M498.6,486.4c-0.6-5.2-0.6-10.4-0.6-14.9c-0.1-1.8-0.1-3.6,0-5.4c0-4.9,0.1-9.9-1.6-14.6
	c-1.6-1.1-3.5-2-5.2-2.8c-1.6-0.7-3.3-1.5-4.8-2.5l-0.1-1c-0.8-9.5-1.7-19.4,0.1-28.9c1.1-3.1,4-3.6,6.6-3.6c0.7,0,1.4,0,2.1,0.1
	c0.7,0,1.3,0.1,1.9,0.1l0,0c0.3,0,0.6,0,0.8,0c0.3-1.5,0.7-3,1.1-4.5l0.3-1.3c1.5-0.2,3-0.2,4.7-0.2c2.4,0,4.8,0.1,7.2,0.2
	c2.4,0.1,4.8,0.3,7.2,0.3c1.9,0,3.5-0.1,5.1-0.2l1.1-0.1c-4.1,0.6-8.6,0.9-13.6,1.2l-0.9,0c0.2,0.4,0.6,1.3,0.8,1.8
	c10.2,2.6,9.4,11.4,8.5,20.6c-0.5,5.8-1.1,11.7,1.2,16.2c-7.5,4.5-8.4,12.6-9.2,20.5c-0.3,2.5-0.5,4.9-1,7.1
	c-0.6-9.1-0.3-18.4-0.1-27.4c0.3-12.1,0.6-24.6-0.8-36.9c-2.8-0.3-5.9-0.7-9.4-1c-2,14.2-1.5,28.7-1.1,42.8
	C499.2,463.3,499.6,475,498.6,486.4L498.6,486.4z"/>
<path class="st100" d="M499.2,407.1c8-0.7,16,0.9,24.1,0.1l1.1-0.1c-4.5,0.5-9.1,0.8-13.6,1l-0.8,0c0.2,0.5,0.6,1.4,0.8,1.8
	c16.6,4.3,3.9,25.3,9.8,36.8c-9.8,5.8-8.3,18.1-10.3,27.6c-1.1-21.4,1.5-42.9-0.8-64.3c-3.1-0.4-6.3-0.7-9.5-1
	c-3.7,25.6,0.8,51.5-1.3,77.2c-0.6-5-0.6-9.9-0.6-14.9c-0.3-6.6,0.7-13.6-1.7-20c-3.1-2.2-6.9-3.2-10.1-5.3c-0.9-9.9-1.8-20,0-29.9
	c1.7-4.8,7.4-3.2,11.3-3.4c0.4-1.5,0.8-3,1.2-4.5L499.2,407.1z"/>
<path class="st101" d="M498,471.5c-3.1-4.6-8.1-6.8-13-8.8c-5.5-2.3-11.2-4.8-14.1-10.8c-2.6-2-4.2-5.4-4.2-9c0-3.6,1.7-7,4.4-8.9
	c-2.8-3.7-3.3-8.8-1.4-13.7c2.1-5.1,6.3-8.7,11.2-9.5c2.2-1.1,4.4-1.3,6.2-1.3c1,0,2,0.1,2.9,0.1c1,0,1.9,0.1,2.9,0.1
	c1.7,0,3.9-0.1,5.9-1.2c-0.3,1.5-0.7,3-1.1,4.5c-0.3,0.1-0.6,0.1-0.9,0.1c-0.6,0-1.3,0-1.9-0.1c-0.7,0-1.4-0.1-2.1-0.1
	c-2.6,0-5.4,0.4-6.5,3.5c-1.7,9.5-0.9,19.3-0.1,28.9l0.1,1c1.5,0.9,3.1,1.7,4.8,2.4c1.8,0.8,3.6,1.6,5.3,2.8
	c1.7,4.7,1.7,9.7,1.7,14.6C498.1,467.8,498.1,469.7,498,471.5l0.1,0.1L498,471.5z"/>
<path class="st101" d="M480.9,410.7c5.7-3,12.3,0.6,17.9-2.3c-0.4,1.5-0.8,3-1.2,4.5c-3.9,0.2-9.6-1.4-11.3,3.4
	c-1.8,9.8-0.9,19.9,0,29.9c3.2,2.1,7,3.1,10.1,5.3c2.3,6.4,1.4,13.4,1.7,20c-6.6-9.9-21.7-8.3-27.1-19.6c-5.6-4.2-5.5-13.8,0.2-17.9
	C464.9,425.7,470.9,412.3,480.9,410.7z"/>
<path class="st79" d="M507.7,611.5c-1.1,0-2.1,0-3.2,0c-0.7,0-1.4,0-2.1,0c-1.8-1.6-4.2-4.2-3.8-7.4c0.1-22.3,0.1-44.9,0-66.8
	c0-16.7-0.1-33.9,0-50.9c0.9-11.4,0.5-23.1,0.2-34.4c-0.5-14.1-1-28.6,1.1-42.9c3.5,0.3,6.6,0.6,9.5,1c1.4,12.3,1.1,24.8,0.8,36.9
	c-0.2,9-0.4,18.3,0,27.4c0.1,17.8,0.1,36,0,53.5c-0.1,21.3-0.1,43.4,0.1,65c-0.1,1.6-0.1,3.4,0,5
	C510.5,602.7,510.7,607.5,507.7,611.5L507.7,611.5L507.7,611.5z"/>
<path class="st79" d="M499.9,409.2c3.2,0.3,6.3,0.6,9.5,1c2.4,21.4-0.3,42.9,0.8,64.3c0.3,39.5-0.3,79,0.2,118.5
	c-0.4,6.2,1.3,13.1-2.7,18.5c-1.8,0-3.6-0.1-5.3,0c-2.1-1.9-4.1-4.3-3.7-7.4c0.2-39.2-0.1-78.4,0-117.7
	C500.7,460.7,496.2,434.8,499.9,409.2z"/>
<path class="st102" d="M357.5,552.1c-0.6-0.7-1.2-1.4-1.8-2.1c1.6-16.6,2-33.5,2.5-49.9c0.3-12.2,0.7-24.8,1.5-37.2
	c-0.2-3,2-4.9,4.3-6.6c0.2,0.4,0.4,0.9,0.5,1.5c0.2,0.5,0.3,1.1,0.5,1.4c0.6,12.5,0.5,25.3,0.4,37.6c0,4.5-0.1,9-0.1,13.6
	c-1.2,5.5-1.1,11.3-0.9,16.9c0.2,6.8,0.4,13.8-1.9,20.4c-0.8-0.4-1.6-0.7-2.4-1.1l-0.5-0.2c-0.3,2.2-0.7,4.4-1.2,6.6l0,0.1
	L357.5,552.1z"/>
<path class="st102" d="M359.7,463c-0.2-3,2.1-4.9,4.3-6.5c0.2,0.7,0.7,2.2,0.9,2.9c0.8,17,0.4,34.1,0.3,51.1
	c-2.8,12.3,1.4,25.2-2.8,37.2c-0.9-0.5-1.9-0.9-2.8-1.3c-0.4,2.2-0.8,4.4-1.2,6.6c-0.9-1-1.8-2-2.7-3C358.5,521,357.8,492,359.7,463
	z"/>
<path class="st3" d="M103.3,614.1c-2.4,0-4.7-1.2-6.8-3.7l0.6-0.5c0.3-0.2,0.5-0.4,0.7-0.5c0.9,0.5,1.8,0.9,2.7,1.4l0.5,0.3
	c1.5,0.8,3,1.7,4.4,2.6C104.7,614,104,614.1,103.3,614.1z"/>
<path class="st3" d="M96.5,610.4c0.3-0.2,1-0.7,1.3-0.9c1,0.5,2.1,1.1,3.1,1.7c1.5,0.8,2.9,1.7,4.4,2.6
	C101.8,614.8,98.8,613,96.5,610.4z"/>
<path class="st103" d="M236.8,614.1c-2.9,0-5.4-1.3-7.1-3.6l3.5-0.3l1.4,0.6l0.9,0.4c1.5,0.7,2.9,1.5,4.3,2.4
	C238.9,614,237.8,614.1,236.8,614.1z"/>
<path class="st103" d="M229.8,610.5c0.9,0,2.6-0.1,3.5-0.2c0.6,0.2,1.7,0.7,2.2,1c1.5,0.7,2.9,1.5,4.3,2.4
	C236.1,614.8,232.2,613.8,229.8,610.5z"/>
<path class="st104" d="M366.5,613.8c-0.1-0.7-0.3-1.9-0.4-2.5l0.6,0c2.4,0.2,4.8,0.5,7.2,0.7c-0.1,0.4-0.2,0.8-0.3,1.3l-0.3,1.1
	L366.5,613.8z"/>
<path class="st104" d="M366.1,611.3c2.6,0.3,5.1,0.5,7.7,0.8c-0.2,0.6-0.5,1.7-0.7,2.3c-2.2-0.2-4.4-0.4-6.6-0.6
	C366.4,613.1,366.3,611.9,366.1,611.3z"/>
<path class="st105" d="M505.4,613.9c-2.3,0-4.4-0.8-6.5-2.3c0.8-0.1,2.4-0.2,3.3-0.2l0.2,0c0.7,0,1.4,0,2.1,0c1.1,0,2.1,0,3.2,0l2,0
	c-1.2,0.8-2.5,1.6-3.8,2.4C505.8,613.9,505.6,613.9,505.4,613.9z"/>
<path class="st105" d="M498.9,611.6c0.9,0,2.6-0.1,3.5-0.1c1.8,0,3.5,0,5.3,0c0.5,0,1.5,0,2,0c-1.3,0.7-2.5,1.5-3.8,2.3
	C503.4,614,501,613.1,498.9,611.6z"/>
<path class="st106" d="M-5,660.6c7.7,0.2,15.6,0.4,24.3,0.4c15.9,0,32-0.5,47.6-0.9c15.6-0.4,31.7-0.9,47.6-0.9
	c6,0,11.5,0.1,16.9,0.2c10.9-0.3,21.9-0.5,32.8-0.8c40-1,81.4-2,122.1-2c4.5,0,9.1,0,13.6,0c13.5-0.9,27.9-1.4,46.7-1.4
	c8.3,0,16.7,0.1,24.8,0.2c8.1,0.1,16.6,0.2,24.8,0.2c11,0,20.1-0.1,28.7-0.4c3-0.5,6.2-0.7,10.2-0.7c2.4,0,4.9,0.1,7.3,0.2
	c2.4,0.1,4.8,0.2,7.3,0.2c4.5,0,10.5-0.3,16.3-2.2c15.3,1.3,30,2,43.8,2c5.5,0,10.9-0.1,16.2-0.3c2.7-0.8,5.7-1.2,9.1-1.2
	c3.1,0,6.4,0.3,9.5,0.6c3.1,0.3,6.4,0.6,9.6,0.6c2.4,0,4.5-0.2,6.5-0.5c1.3-0.3,2.7-0.5,4.4-0.5c1.7,0,3.5,0.2,5.2,0.4
	c1.7,0.2,3.4,0.4,5.1,0.4c3.2,0,5.7-0.7,7.8-2.2c0.8,1,1.6,1.9,2.4,2.9l0.5-0.1c3-0.5,6-1,9-1.7l0.1,8c-51,0.5-102.8,0.7-152.9,0.9
	c-73.8,0.3-150.1,0.6-225.2,1.5c-6.7,0.6-14,0.9-23,0.9c-5.3,0-10.6-0.1-15.8-0.2c-5.2-0.1-10.5-0.2-15.8-0.2c-9,0-16.3,0.3-23,0.9
	c-22.8,0.7-46.1,0.8-68.6,0.8c-24.9,0.1-50.6,0.1-75.8,1.1l-0.1,0V660.6z"/>
<path class="st106" d="M560.7,653.8c7.4-2,15.9,2.8,22.5-2c0.8,1,1.5,1.9,2.3,2.9c3.2-0.5,6.4-1.1,9.5-1.8v8
	c-126.2,1-252,0.7-378,2.3c-25.8,2.4-51.9-0.9-77.6,1.4c-48,1.5-96.3,0.1-144.4,1.9v-5.9c45.5,1.7,90.9-2.3,136.4-1.2
	c56.2-1.3,112.3-3.1,168.6-2.8c41.5-2.9,83.4,0,125-1.5c13.6-2.2,27.8,1.9,41-2.6c19.8,1.7,40,2.5,60,1.7
	C537.4,650.9,549,655.9,560.7,653.8z"/>
<path class="st107" d="M387.8,666.9c2.1-0.5,4.2-1.2,6.2-1.9l0.5-0.2c-6.6,0.4-13.6,0.6-22.8,0.6c-4.4,0-8.7,0-13.1-0.1
	c-4.4,0-8.7-0.1-13.1-0.1c-10.2,0-22.3,0.1-34.6,1.3h-0.8c-7.2,0-14.3,0-21.5-0.1c-7.2,0-14.3-0.1-21.5-0.1
	c-12.5,0-22.8,0.1-32.2,0.3c-9.3-0.2-19.2-0.3-31.3-0.3c-8.4,0-17,0-25.3,0.1c-8.3,0-16.9,0.1-25.3,0.1l-3,0c-3.4-0.9-7-1.6-10.6-2
	c6.7-0.7,14.1-1,23-1c5.2,0,10.6,0.1,15.8,0.2c5.2,0.1,10.5,0.2,15.8,0.2c9,0,16.3-0.3,23-0.9c75.1-1,151.4-1.3,225.2-1.5
	c50.1-0.2,101.9-0.4,152.9-0.8l0,4.9l-7.4,0.1c-16,0-32.1,0-48.1-0.1c-16,0-32-0.1-48.1-0.1c-20.8,0-38,0.1-54.3,0.2
	c-5.1-0.4-10.1-0.6-14.9-0.6c-7.6,0-14.9,0.5-21.9,1.4c-1.4,0-2.7-0.1-3.9-0.1C393.3,666.4,390.4,666.6,387.8,666.9L387.8,666.9z"/>
<path class="st107" d="M217,663.1c126-1.6,251.9-1.3,378-2.3v4.8c-52.7,0-105.2-0.4-157.8,0c-12.2-0.9-24.7-0.8-36.8,0.8
	c-4.2-0.1-8.4-0.1-12.6,0.5c2.3-0.5,4.5-1.3,6.7-2c-27.8,1.3-55.8-0.9-83.5,1.6c-25.3,0-50.7-0.4-76,0.2
	c-28.3-0.6-56.6-0.1-84.8-0.1c-3.5-1-7-1.6-10.6-2C165.1,662.2,191.2,665.5,217,663.1z"/>
<path class="st108" d="M-5,666.5c25.3-1,51-1.1,75.9-1.1c22.5-0.1,45.8-0.1,68.6-0.8c3.7,0.4,7.2,1.1,10.6,2l1.9,1.5
	c-3.2,0-6.3,0-9.5,0c-1.8,0-3.7,0-5.5,0c-24,0-49.5,0.4-78,1.2c-0.6,0-1.2,0.1-1.7,0.1c-1.5,0-3-0.1-4.5-0.2c-1.5-0.1-3-0.2-4.5-0.2
	c-3.5,0-6.1,0.6-8.4,1.9c-0.8-0.7-1.6-1.5-2.4-2.2l-0.3-0.3c-0.9,0.6-1.9,1.3-2.9,1.9l-0.3,0.2c-2.8-0.5-5.7-0.7-8.7-0.7
	c-3.3,0-6.7,0.3-10.2,0.9c-0.8-0.4-1.5-0.9-2.3-1.3c-0.6,0.6-1.3,1.3-2,2l-0.6,0.5l-0.4-0.7c-0.3-0.7-0.6-1.3-0.9-1.9
	c-1.1,0.2-2.4,0.4-3.6,0.5c-3.6,0.4-7.3,0.8-10.4,2.8l-0.1,0V666.5z"/>
<path class="st108" d="M-5,666.5c48.1-1.8,96.4-0.4,144.4-1.9c3.6,0.4,7.1,1.1,10.6,2l1.9,1.5c-31-0.2-61.9,0.3-92.9,1.1
	c-6.4,0.4-13.2-1.8-19.2,1.6c-0.9-0.8-1.8-1.7-2.7-2.5c-1.1,0.7-2.1,1.4-3.2,2.1c-6.2-1.1-12.7-0.9-18.9,0.2
	c-0.8-0.4-1.5-0.9-2.2-1.3c-0.9,0.8-1.7,1.7-2.6,2.5c-0.4-0.9-0.8-1.8-1.2-2.7c-4.7,0.8-9.9,0.6-14,3.3V666.5z"/>
<path class="st109" d="M364.5,668.4c-9.6-0.4-19.6-0.6-29.8-0.6c-8.3,0-17,0.1-25.8,0.4l1.9-1.8c12.3-1.1,24.5-1.3,34.7-1.3
	c4.4,0,8.7,0,13.1,0.1c4.4,0,8.7,0.1,13.1,0.1c9.1,0,16.1-0.1,22.8-0.5l-0.5,0.3c-2,0.7-4.1,1.4-6.2,1.9c-1.5,0.1-3.1,0.2-5.1,0.2
	c-1.2,0-2.4,0-3.6,0c-1.2,0-2.4,0-3.6,0C372.2,667.1,368.4,667.3,364.5,668.4L364.5,668.4L364.5,668.4z"/>
<path class="st109" d="M310.9,666.5c27.7-2.5,55.7-0.3,83.5-1.6c-2.2,0.7-4.4,1.5-6.7,2c-7.7,0.7-15.6-0.9-23.2,1.4
	c-18.5-0.8-37-0.8-55.6-0.2L310.9,666.5z"/>
<path class="st110" d="M570,669.5c-2.7-0.4-5.6-0.6-9-0.6c-2.9,0-5.8,0.1-8.7,0.3c-2.8,0.1-5.8,0.3-8.7,0.3c-4.7,0-8.5-0.3-12-1.1
	c-9.4-0.8-19.5-1.3-29.9-1.3c-10.1,0-20.9,0.4-32.1,1.2c-3.2-0.3-6.7-0.5-10.7-0.5c-3.7,0-7.5,0.1-11.1,0.3
	c-3.6,0.1-7.4,0.3-11.1,0.3c-5.5,0-10.1-0.3-14.3-0.9c-2-0.3-4.1-0.4-7-0.4c-1.1,0-2.3,0-3.4,0c-1.1,0-2.3,0-3.4,0
	c-2.3,0-5.3-0.1-8.3-0.6c6.9-1,14.3-1.5,21.9-1.5c4.8,0,9.9,0.2,14.9,0.6c16.3-0.1,33.6-0.2,54.3-0.2c16,0,32,0,48.1,0.1
	c16,0,32.1,0.1,48.1,0.1l7.4,0l0,2.5c-2.6,0.9-5.3,1.3-8.9,1.3c-1.6,0-3.3-0.1-4.9-0.2c-1.6-0.1-3.3-0.2-4.9-0.2
	C573.9,669,571.9,669.2,570,669.5L570,669.5L570,669.5z"/>
<path class="st110" d="M400.4,666.5c12.1-1.6,24.6-1.8,36.8-0.8c52.6-0.4,105.2,0,157.8,0v2.4c-8.2,2.8-16.7-0.2-25,1.5
	c-12.7-1.8-25.6,1.6-38.3-1.2c-20.5-1.8-41.4-1.5-62-0.1c-15.7-1.6-31.5,1.4-47.2-0.9C415.1,666.4,407.7,667.8,400.4,666.5z"/>
<path class="st111" d="M206.7,668.6c-11.4,0-23-0.1-34.2-0.3c-6.8-0.1-13.7-0.2-20.5-0.2l-1.9-1.5l3-0.1c8.4,0,17,0,25.3-0.1
	c8.3,0,16.9-0.1,25.3-0.1c12,0,22,0.1,31.3,0.3l2.2,1.5C227.9,668.5,217.9,668.6,206.7,668.6z"/>
<path class="st111" d="M150,666.6c28.3,0,56.6-0.5,84.8,0.1l2.2,1.4c-28.4,0.8-56.8,0.1-85.1-0.1L150,666.6z"/>
<path class="st112" d="M253,669.5c-4,0-7.9-0.1-12.6-0.1c-1.2-0.4-2.3-0.7-3.4-1.1l-2.2-1.5c9.4-0.3,19.7-0.4,32.2-0.4
	c7.2,0,14.3,0,21.5,0.1c7.2,0,14.3,0.1,21.5,0.1h0.8l-1.9,1.8c-3.5,0.4-7.2,0.5-11.7,0.5c-3.4,0-6.9-0.1-10.3-0.2
	c-3.4-0.1-6.8-0.2-10.3-0.2c-6,0-10.9,0.3-15.3,1C258.8,669.4,256.1,669.5,253,669.5z"/>
<path class="st112" d="M234.9,666.7c25.3-0.6,50.7-0.2,76-0.2l-1.9,1.7c-15.8,1.6-31.8-1.3-47.5,1.1c-7,0.2-14,0.1-21,0
	c-1.1-0.4-2.3-0.7-3.4-1.1L234.9,666.7z"/>
<path class="st113" d="M446.4,683.5c-122.4,0-252.8-0.1-383.5-1.9c-10.4-2.3-21.1-2.9-31.4-3.5c-7.6-0.4-15.5-0.9-23.2-2
	c0-0.7,0.1-2,0.1-2.7l0.9-0.9l0.9-0.8l0.6-0.6c0.7-0.7,1.4-1.3,2-2c0.8,0.4,1.5,0.8,2.3,1.3c3.4-0.6,6.8-0.9,10.1-0.9
	c3,0,5.9,0.3,8.7,0.8l0.2-0.2c1-0.6,1.9-1.3,2.9-1.9l0.4,0.3c0.8,0.7,1.6,1.5,2.4,2.2c2.3-1.3,4.9-1.9,8.4-1.9c1.5,0,3,0.1,4.5,0.2
	c1.5,0.1,3,0.2,4.5,0.2c0.6,0,1.2,0,1.7-0.1c28.5-0.8,54.1-1.2,78-1.2c5,0,9.9,0,14.9,0c6.8,0.1,13.7,0.1,20.5,0.2
	c11.2,0.1,22.8,0.3,34.2,0.3c11.3,0,21.2-0.1,30.3-0.4c1.1,0.4,2.3,0.8,3.4,1.1c-7.9,0.9-16.5,1.3-27.6,1.3c-4.6,0-9.3-0.1-13.8-0.1
	c-4.5-0.1-9.2-0.1-13.8-0.1c-4.7,0-8.9,0.1-12.8,0.2c-6.3-0.4-13-0.6-20.6-0.6c-8.3,0-16.7,0.3-24.8,0.5c-8.1,0.2-16.6,0.5-24.8,0.5
	c-4.4,0-8.4-0.1-12.2-0.2c-0.9-0.1-1.8-0.1-2.7-0.1c-5.1,0-9.6,1.3-13.5,3.7c2.3,1.4,4.5,2.1,6.6,2.1l0.2,0l0.8,0
	c24.6,1.6,50,3.2,75,3.2c9.3,0,17.9-0.2,26.3-0.7c99.9,1.4,197.7,1.6,280.1,1.6c35.1,0,70.3,0,105.4-0.1l26.8,0l0,3.1
	c-13,0-25.9,0-38.8,0C554.9,683.5,464,683.5,446.4,683.5z"/>
<path class="st113" d="M59,669.2c31-0.8,62-1.3,92.9-1.1c28.3,0.2,56.7,0.9,85.1,0.1c1.1,0.4,2.3,0.8,3.4,1.1
	c-22.6,2.3-45.3,0.4-68,1.1c-27.5-1.9-54.9,1.1-82.4,0.1c-5.7-0.5-11.4,0.5-16.2,3.6c2.1,1.3,4.4,2.2,6.9,2.2
	c34,2.2,68.1,4.4,102.1,2.6c137.4,2,274.7,1.7,412.3,1.5v3c-177.4-0.1-354.8,0.5-532.1-1.9c-18.1-4.1-36.5-2.9-54.6-5.5
	c0-0.7,0.1-2,0.2-2.6c0.4-0.4,1.3-1.2,1.7-1.6c0.9-0.8,1.7-1.7,2.6-2.5c0.8,0.4,1.5,0.8,2.2,1.3c6.2-1.1,12.7-1.3,18.9-0.2
	c1.1-0.7,2.1-1.4,3.2-2.1c0.9,0.8,1.8,1.6,2.7,2.5C45.8,667.4,52.6,669.6,59,669.2z"/>
<path class="st114" d="M487.3,670.7c-19.9,0-39.9-0.1-59.9-0.1c-26.8-0.1-54.5-0.2-81.8-0.2c-22.1,0-41.7,0.1-60.2,0.2
	c-1.9-0.1-3.7-0.1-5.5-0.1c-6.1-0.1-12.4-0.2-18.5-1.1c4.5-0.8,9.3-1.1,15.4-1.1c3.4,0,6.9,0.1,10.3,0.2c3.4,0.1,6.8,0.2,10.3,0.2
	c4.5,0,8.2-0.2,11.6-0.5c8.8-0.3,17.5-0.4,25.8-0.4c10.1,0,20.2,0.2,29.8,0.6c1.6,0,3.3,0,4.9,0c4.7,0,9.5,0.1,14.1,0.2
	c4.6,0.1,9.4,0.2,14.1,0.2c9.9,0,17.5-0.4,24.7-1.3c4.2,0.6,8.8,0.9,14.3,0.9c3.7,0,7.5-0.1,11.1-0.3c3.6-0.1,7.4-0.3,11.1-0.3
	c4,0,7.5,0.2,10.7,0.5c4.3,0.8,8.7,0.9,12.9,0.9c1.2,0,2.5,0.1,3.7,0.1l1.1,1.4H487.3z"/>
<path class="st114" d="M309,668.2c18.6-0.6,37-0.6,55.6,0.2c19.3-0.3,38.8,1.4,57.9-1c15.8,2.3,31.5-0.7,47.2,0.9
	c5.5,1,11.1,0.8,16.6,1l1,1.3c-67.3-0.1-134.6-0.5-201.8-0.1c-8-0.2-16.1-0.1-24.1-1.2C277.1,666.9,293.2,669.8,309,668.2z"/>
<path class="st115" d="M397.7,668.8c-4.7,0-9.5-0.1-14.1-0.2c-4.6-0.1-9.4-0.2-14.1-0.2c-1.6,0-3.3,0-4.9,0c3.8-1.3,7.7-1.4,11-1.4
	c1.2,0,2.4,0,3.6,0c1.2,0,2.4,0,3.6,0c2,0,3.6-0.1,5.1-0.2c2.6-0.4,5.5-0.6,8.7-0.6c1.2,0,2.5,0,3.9,0.1c3,0.5,6,0.6,8.3,0.6
	c1.1,0,2.3,0,3.4,0c1.1,0,2.3,0,3.4,0c2.8,0,5,0.1,7,0.4C415.2,668.4,407.6,668.8,397.7,668.8z"/>
<path class="st115" d="M364.5,668.4c7.6-2.3,15.5-0.7,23.2-1.4c4.2-0.6,8.4-0.6,12.6-0.5c7.3,1.3,14.7-0.1,22.1,0.9
	C403.3,669.8,383.8,668.1,364.5,668.4z"/>
<path class="st116" d="M513.4,669.7c-3.7,0-7.5-0.1-11.1-0.2c-3.6-0.1-7.4-0.2-11.1-0.2c-1.8,0-3.4,0-4.9,0.1
	c-1.2,0-2.5-0.1-3.7-0.1c-4.3-0.1-8.6-0.2-12.9-0.9c11.2-0.9,22-1.3,32.1-1.3c10.4,0,20.5,0.4,29.9,1.3
	C526.4,669.3,520.6,669.7,513.4,669.7z"/>
<path class="st116" d="M469.6,668.3c20.6-1.5,41.6-1.8,62,0.1c-15,2.6-30.3,0.5-45.4,1C480.7,669.1,475.1,669.3,469.6,668.3z"/>
<path class="st117" d="M462.8,680.6c-82.4,0-180.2-0.2-280.1-1.6c-9-1.7-18.2-1.8-27.1-1.9c-9.5-0.1-19.3-0.2-28.7-2.2
	c8.6-3,18-3.2,27-3.3c6.1-0.1,12.4-0.2,18.5-1.2c3.8-0.1,8-0.2,12.8-0.2c4.6,0,9.3,0.1,13.8,0.1c4.5,0.1,9.2,0.1,13.8,0.1
	c11.1,0,19.6-0.4,27.6-1.2c4.7,0.1,8.6,0.1,12.6,0.1c3,0,5.8,0,8.4-0.1c6.1,0.8,12.4,1,18.5,1.1c1.9,0,3.7,0.1,5.5,0.1
	c-1.9,0.8-4.2,1.2-7.1,1.2c-1.6,0-3.3-0.1-4.9-0.2c-1.6-0.1-3.3-0.2-4.8-0.2c-3.6,0-7.7,0.5-11.1,3.9c10.7,1.3,21.6,1.5,29.8,1.5
	c4.2,0,8.4-0.1,12.6-0.1c4.1-0.1,8.4-0.1,12.6-0.1c9,0,16,0.2,22.5,0.8c17.3,0.2,35.7,0.3,56.1,0.3c29.1,0,58.6-0.2,87.2-0.4
	L493,677c0.9-0.1,1.7-0.1,2.6-0.2c5-0.3,10.1-0.7,14.4-3.3c-3.9-1-8-1.3-12-1.5c-3.5-0.2-7.2-0.5-10.7-1.3l-1.1-1.3
	c1.6-0.1,3.2-0.2,5-0.2c3.7,0,7.5,0.1,11.1,0.2c3.6,0.1,7.4,0.2,11.1,0.2c7.2,0,13-0.4,18.2-1.3c3.5,0.7,7.3,1.1,12,1.1
	c2.9,0,5.8-0.1,8.7-0.3c2.8-0.1,5.8-0.3,8.7-0.3c3.4,0,6.3,0.2,9,0.6c1.8-0.4,3.9-0.6,6.3-0.6c1.6,0,3.3,0.1,4.9,0.2
	c1.6,0.1,3.3,0.2,4.9,0.2c3.6,0,6.3-0.4,8.8-1.3l0.1,12.5l-26.8,0.1C533.1,680.6,498,680.6,462.8,680.6z"/>
<path class="st117" d="M486.3,669.3c15.1-0.5,30.4,1.6,45.4-1c12.7,2.7,25.6-0.7,38.3,1.2c8.3-1.7,16.8,1.3,25-1.5v12.4
	c-137.5,0.2-274.9,0.5-412.3-1.5c-18.4-3.4-37.4-0.2-55.8-4.1c14.5-4.8,30.5-2.1,45.5-4.4c22.7-0.8,45.4,1.2,68-1.1
	c7,0.1,14,0.2,21,0c8,1.1,16,1,24.1,1.2c-9.1,3.4-20.6-3-28,4.5c25.6,3.3,51.7,0,77.5,2.2c52.7,0.6,105.4,0.1,158-0.2
	c5.8-0.5,11.9-0.4,17.1-3.5c-7.4-2.1-15.3-1.1-22.8-2.9L486.3,669.3z"/>
<path class="st118" d="M48,682c-15.1,0-30.5-1.2-45.4-2.3c-2.5-0.2-5-0.4-7.5-0.6l0-6.8c3.2-2,6.9-2.5,10.5-2.9
	c1.2-0.1,2.4-0.3,3.6-0.5c0.4,0.7,0.6,1.3,0.9,2l0.3,0.7l-0.9,0.9l-0.9,0.8c0,0.6-0.1,1.9-0.2,2.6c7.6,1.1,15.5,1.5,23.1,2
	c10.3,0.6,21,1.2,31.4,3.5C58.1,681.9,53.2,682,48,682z"/>
<path class="st118" d="M-5,672.4c4.2-2.7,9.3-2.5,14-3.3c0.4,0.9,0.8,1.8,1.2,2.7c-0.4,0.4-1.3,1.2-1.7,1.6c-0.1,0.7-0.1,2-0.2,2.6
	c18,2.7,36.5,1.5,54.6,5.5c-22.6,1.3-45.3-0.8-67.9-2.4V672.4z"/>
<path class="st119" d="M156.4,679.6c-25,0-50.4-1.6-75-3.2l-0.8-0.1l-0.2,0c-2.2,0-4.4-0.7-6.7-2.2c3.9-2.5,8.6-3.8,13.6-3.8
	c0.9,0,1.8,0,2.7,0.1c3.8,0.1,7.8,0.2,12.2,0.2c8.3,0,16.7-0.3,24.8-0.5c8.1-0.2,16.5-0.5,24.8-0.5c7.6,0,14.3,0.2,20.6,0.6
	c-6.1,1.1-12.4,1.2-18.5,1.3c-9,0.2-18.4,0.4-27,3.2c9.5,1.9,19.2,2,28.7,2.1c8.9,0.1,18.2,0.2,27.1,1.9
	C174.3,679.4,165.7,679.6,156.4,679.6z"/>
<path class="st119" d="M90,670.5c27.5,1,55-2,82.4-0.1c-15,2.4-31-0.4-45.5,4.4c18.4,3.8,37.4,0.6,55.8,4.1
	c-34,1.8-68.1-0.4-102.1-2.6c-2.5,0-4.8-0.9-6.9-2.2C78.6,671.1,84.3,670.1,90,670.5z"/>
<path class="st9" d="M391.1,677.5c-20.4,0-38.8-0.1-56.1-0.3c-6.5-0.5-13.5-0.8-22.5-0.8c-4.2,0-8.5,0.1-12.6,0.1
	c-4.1,0.1-8.4,0.1-12.6,0.1c-8.2,0-19.1-0.2-29.8-1.6c3.3-3.5,7.5-4,11.1-4c1.6,0,3.3,0.1,4.9,0.2c1.6,0.1,3.3,0.2,4.9,0.2
	c2.8,0,5.1-0.3,7-1.1c18.4-0.1,38.1-0.2,60.2-0.2c27.3,0,55,0.1,81.8,0.2c20,0.1,39.9,0.1,59.9,0.1c3.5,0.8,7.2,1,10.7,1.3
	c4,0.3,8.1,0.5,12,1.6c-4.4,2.8-9.5,3.1-14.5,3.4c-0.9,0.1-1.7,0.1-2.6,0.2l-14.6,0.1C449.8,677.3,420.2,677.5,391.1,677.5z"/>
<path class="st9" d="M285.5,670.5c67.2-0.4,134.5,0,201.8,0.1c7.5,1.7,15.3,0.8,22.8,2.9c-5.1,3.1-11.3,3-17.1,3.5
	c-52.6,0.3-105.3,0.7-158,0.2c-25.8-2.2-51.8,1.2-77.5-2.2C264.9,667.5,276.5,673.9,285.5,670.5z"/>
<path class="st120" d="M540,685.7c-142.2,0-286.9-0.4-430-1.2c-0.3,0-0.6,0-0.9,0c-2.8,0-5.7,0.3-8.6,1c-2.7-0.7-5.5-0.8-8.1-0.8
	c-0.6,0-1.3,0-1.9,0c-0.6,0-1.3,0-1.9,0c-0.8,0-1.5,0-2.3,0c-14.4-0.8-29.1-0.9-43.3-0.9c-15.8,0-32,0-48-1.2l0-3.4
	c2.6,0.1,5.1,0.3,7.6,0.5c14.9,1.1,30.3,2.3,45.4,2.3c5.3,0,10.2-0.1,15-0.4c130.6,1.7,261.1,1.9,383.5,1.9c17.6,0,88.1,0,105.7,0
	c14.3,0,28.6,0,42.9,0l0,2.2C576.7,685.7,558.3,685.7,540,685.7z"/>
<path class="st120" d="M-5,679.1c22.6,1.7,45.3,3.8,67.9,2.4c177.3,2.4,354.7,1.8,532.1,1.9v2.1c-161.7,0.1-323.3-0.3-485-1.2
	c-3.2-0.1-6.4,0.3-9.6,1c-4.6-1.3-9.4-0.7-14.1-0.8c-30.3-1.8-60.9,0.1-91.3-2.1V679.1z"/>
<path class="st121" d="M78.9,686.6c-1.2,0-2.4-0.1-3.5-0.2c-0.7,0-1.5-0.1-2.2-0.1c-9.9,0.2-20.4,0.2-32,0.2
	c-15.6,0-31.4-0.1-46.2-0.3l0-3.8c16,1.1,32.3,1.1,48.1,1.1c14.2,0,28.9,0,43.3,0.9C83.8,686.4,81,686.6,78.9,686.6z"/>
<path class="st121" d="M-5,682.5c30.4,2.2,61,0.3,91.3,2.1c-3.9,2.9-8.7,1.9-13.1,1.8c-26,0.4-52.1,0.2-78.2,0V682.5z"/>
<path class="st122" d="M483.8,692.6c-170.5,0-342.8-0.4-488.8-0.8l0-5.5c14.9,0.1,30.7,0.2,46.2,0.2c11.6,0,22.1-0.1,32-0.2
	c0.7,0,1.5,0.1,2.2,0.1c1.1,0.1,2.3,0.2,3.5,0.2c2.2,0,5-0.2,7.4-2c0.8,0,1.5,0,2.3,0c0.6,0,1.3,0,1.9,0c0.6,0,1.3,0,1.9,0
	c2.6,0,5.4,0.1,8.1,0.8c3,0.9,6.3,1.8,9.6,1.9c66.4,0.1,133.8,0.3,199.1,0.5c91.9,0.3,186.9,0.6,280.5,0.6h5.5l0,4.1
	C557.9,692.6,520.8,692.6,483.8,692.6z"/>
<path class="st122" d="M-5,686.3c26,0.3,52.1,0.5,78.2,0c4.4,0.2,9.3,1.1,13.1-1.8c4.7,0.2,9.5-0.4,14.1,0.8c3.1,1,6.3,1.8,9.6,1.9
	c161.8,0.3,323.3,1.2,485,1.1v4.1c-200,0.2-400.1-0.2-600-0.8V686.3z"/>
<path class="st123" d="M589.5,688.5c-93.5,0-188.6-0.3-280.5-0.6c-65.2-0.2-132.7-0.4-199.1-0.5c-3.3-0.1-6.6-1-9.6-1.9
	c3-0.8,5.9-1.1,8.7-1.1c0.3,0,0.6,0,0.9,0c143.1,0.8,287.8,1.2,430,1.2c18.3,0,36.7,0,55,0l0,2.9L589.5,688.5z"/>
<path class="st123" d="M100.4,685.4c3.1-0.7,6.4-1.1,9.6-1c161.7,0.9,323.3,1.3,485,1.2v2.8c-161.7,0-323.2-0.9-485-1.1
	C106.7,687.2,103.5,686.3,100.4,685.4z"/>
<path class="st124" d="M-5,697l0-5.3c146.1,0.4,318.3,0.8,488.8,0.8c37.1,0,74.1,0,111.2-0.1l0,4.6H-5z"/>
<path class="st124" d="M-5,691.7c199.9,0.6,400,1,600,0.8v4.5H-5V691.7z"/>
</svg>
