<?xml version="1.0" encoding="utf-8"?>
<!-- Generator: Adobe Illustrator 19.0.0, SVG Export Plug-In . SVG Version: 6.00 Build 0)  -->
<svg version="1.1" id="Layer_1" xmlns="http://www.w3.org/2000/svg" xmlns:xlink="http://www.w3.org/1999/xlink" x="0px" y="0px"
	 width="600px" height="600px" viewBox="0 0 600 600" style="enable-background:new 0 0 600 600;" xml:space="preserve">
<style type="text/css">
	.st0{fill:#131313;stroke:#131313;stroke-width:9.375000e-002;}
	.st1{fill:#878787;stroke:#878787;stroke-width:9.375000e-002;}
	.st2{fill:#DEDEDD;stroke:#DEDEDD;stroke-width:9.375000e-002;}
	.st3{fill:#B6B7B7;stroke:#B6B7B7;stroke-width:9.375000e-002;}
	.st4{fill:#FAFAFA;stroke:#FAFAFA;stroke-width:9.375000e-002;}
</style>
<path id="XMLID_130_" class="st0" d="M170,13.9c10.7-5.4,24.7-3.4,34,4c8.5,7.7,12.6,20.2,10.3,31.4c-1.2,5-6.7,6.6-8.6,11.1
	c-1.3,2.7-4.1,3.9-6,5.9c0.2,2.3,0.7,4.5,1.2,6.7c3.3-2.2,6.7-4.7,10.9-5c5.1-1.3,10.1,2.1,15.2,0.4c5.5-1.2,10.4,2.2,15.8,1.5
	c2.1,1.7,6.8,5,1.2,4.4c1.2,6.9-3.1,12.6-6.3,18.2c14.5-2.7,29.3-3.9,44-3.5c-2.7-1.6-10.7-0.4-11.5-6.4c1.8-4.5,6.9-7.3,10.7-10.2
	c7-0.7,14.2,3.4,19.1,8.1c-1.1,5.7-7.4,8.3-12.7,8.8c-0.9,2.8,2.4,3.1,4,1.7c3.2-2.1,6.5,2.7,9.7-0.1c1-4.6,6.3-6.1,10.1-8
	c0-2.1-0.3-4.4-1.7-6.1c-3.3-1.2-8,4-10.4,0.1c3.7-0.7,7.3-1.8,11-2.5c3.5,0.6,1.8,5.5,2.9,7.9c2.5,0.5,4.3-2.1,6.7-1.7
	c0.4,1.7-1.1,6.8,1.9,4.3c7.4-0.8,8.6-9.5,9.8-15.5c6.6,3.8,15.2,5.5,22.5,3.6c-3,8.7,5.3,14.8,10.9,19.9c4.9,7.2,1.7,16.5,1.6,24.6
	c1.5,1.1,3.1,2.8,4.9,3c5.4-4,14.1-5.2,18.3,1.1c2.1,2-2.3,2.2-2.7,3.9c1.7,0.8,3.5,0.5,5.2,0.2c1.3,2-1.3,2.8-2.9,2.8
	c-6.1,0.1-12.1-1.3-17.8-3.5c-0.4,3-2.7,7.5,1.1,9.2c5.3,2.9,9.1,7.9,14.5,10.6c0.6,2.5,2.2,3.9,4.7,4.3c-0.8,2.4,0.6,5.1,2.6,2.2
	c3.7-6.3,11.2-7.7,17.8-6.3c2.3,1.5,3.5,10.2,6.3,5.9c6.5,2.1,8.2,11.1,15.7,9.6c5.9,6.4,8.6,15.6,6,24.1c6.6,8.6,11.8,19.8,12,31
	c2.3,3.5,8.9,5.4,7.3,10.5c-0.8,2,0.3,3.5,1.7,4.8c2.7,4.9,1.3,12.8-4,15c1.1,2.1,2.5,3.9,3.7,5.9c-3.1,3.4-2.1,8.5-2,12.7
	c5.1,5.8,13.6,2.5,20,5.8c9.5,4.4,18.4,10.6,25.4,18.4c2.4,5.6-5.7,8-9.9,7.6c-8.1-1.2-18.4,4.9-24.6-2.8c-4-5.1-10.1-7.4-16.4-5.9
	c1.8,6.8,3.4,13.7,4.9,20.6c2.7,4.5,4.1,9.5,4.9,14.7c1.8,3.1,5.4,7.4,1.5,10.5c-2.4,6.3-0.5,13.7-0.8,20.4c3.3-0.7,5,0.7,2.7,3.7
	c0.4,7.2,10.9,3.1,13.7,6.5c-4.6,0.2-9.5,0.9-13.1-2.6c0.9,5.7-0.7,10.6,0.4,16.2c-2.8,2.9,1,6.9-3,9.2c-1.5,6.3-5,12.2-8.3,17.8
	c-7,7.5-18.7,3.8-26.6,9.5c-11,4.9-15.6,17.1-19.4,27.7c0,11,0.3,22.2-2,33.1c-2.9,3.8-1.8,8.3-2.9,12.7c-1.1,3.3,5.5,3.9,3.5,7.4
	c-6.3,5.9-1.3,15-2.2,22.3c3.7-1.2,7.1-3.1,9.3-6.4c5.4-1.1,6.4,5.9,10,8.3c4.3,7.3,3.2,16.7,0.8,24.4c3.6,8-8.5,10.8-7.7,18.6
	c-7.5-4.2-0.1,8.5-7.7,7.6c-0.8,4.4-3.9,7.7-8,9.2c-0.8,2.6-1,6.2-4.6,6c-3.4,3.2-7.7,5.6-11.6,8.4c-4.1-0.3-3.7-5.8-7.5-6.4
	c-2.8,1.7-5.9,0.7-8.4-1c-3.5-3.2-2.7-9-6.9-11.7c-1.3-1.1-2.7-2.1-4-3.2c2.4-2.2,5.2-1.1,7.9-0.4c0.2-1.7,0.3-3.5,0.4-5.1
	c2.7-3.8,0.8-7.8-0.6-11.6c-1.1-3.3,3-4.6,4.9-6.4c2.7-2.4-0.8-4.4-3.3-4.2c-0.2-3.3,4.2-3.9,3.7-6.2c-0.2-0.7-0.5-2-0.7-2.7
	c3.1-2,1.9-4.7-1.1-5.9c-1.9-0.9-1.1-2.6-0.7-4.2c1.2-1.2,2.3-2.3,3.4-3.6c0.3-0.6,1-1.8,1.3-2.4c1.1-5.4,1.2-11.3-1.4-16.3l-0.1-1
	c5.7-1.2-0.4-6.9-1.3-10.1c0.8-0.6,1.6-1.3,2.4-1.9c0.3-0.3,0.9-0.8,1.2-1c4.5-2.6,2.5-7.6,1.7-11.6c1.5-7.2-1.2-14.3-1.9-21.4
	c-0.1-2.1-0.6-4.6,1.3-6.1c1.9-1.5,3.8-3,5.4-4.9c0.9-1.1,1.7-2.2,2.4-3.5c0.4-1.9,0.6-3.9,0.7-5.8c-5.9,3.2-7.1-5.9-2.4-8.1
	c-3.4-1.9-10.3-1.7-10.1-6.8c1.7-2.6,5.3-3.3,7.3-5.7c0-7.8-2.4-14.9-1.5-23.1c0.7-3.8-1.1-7.6-1.5-11.4c-0.5-2.2-1-4.5-1.8-6.7
	c-3.7-5.1-0.9-11.4-2.8-16.9c-1-4.1-1.4-8.4-2.3-12.5c-0.3-1.4-0.7-2.7-1.2-3.9c-4.2-6.1,0-13.6-1.5-20.4c-4.6,2-8.5-0.4-11.7-3.6
	c-1.1-4.5-6.1-5.5-9.5-7.6c-0.7-0.3-2-0.9-2.7-1.2c-3.8,0.2-6.3-3.6-10-2c-3.4-1.4-6.7-3.1-9.7-5.1c-0.6-0.4-1.7-1.1-2.3-1.4
	c-0.8-3.1-0.5-7.6-4.6-8.4c-4-0.8-9-2.4-7.7-7.6c-0.9,2.3-8.1,2.7-3.6,4.3c-3.4,1.7-3.6-4.5-8.3-2.8c-1.7-6.5,7.4-1.7,9.2-7.2
	c5.1-5.3-5.2-8.4-9.2-9.1c-6.6-2.8-1.9,3.5-1,6.8c0,5.5-13.2,4.3-5.9,8.8c-3.4,2.8-5.2,6.6-5.8,10.9c-1.9,0.6-3.8,1.2-2.3,3.5
	c0.3,2,2.2,5-0.5,6.1c-5.3,1.4-11.8,1.5-16.2-2.2c-5.3-3.5-10.9,6.2-6.5,10.1c-1.1-0.8-2.2-1.7-3.5-2.3c-3.6,3.5-6.7,7.4-11.6,9.2
	c0.5,0.3,1.5,1,2,1.3c-4.3,0.2-2.3,4.8-4.6,7c-1.9-1.7-4.1-2.5-6.4-1.1c-2.2,0.3-4.5,0.4-6.7,0.5c-1-2.2-2.2-4.2-3.4-6.3l-0.5-1
	c-0.1-1.8-1.6-2.9-3.2-3.1c-0.2-1.1-0.5-2.2-0.9-3.3c-5-2.2,0-1.8,2.6-2.5c1.9,2.7,3,5.9,4.2,9c2.8-1.3,7.6-0.9,7.7-5
	c-2.2-2.7-1.7-6.1-2.5-9.1c-4-3.3,2.1-5.5,0.6-9.1c-1.3-5.1,8-5.3,2-9.7c-6.2,2.2-11.3,6.5-17.4,8.9c-4,2.5-9.4,7.4-13.9,3.5
	c-1.3,5.8-1.8,12.3,1.5,17.6c1.5,2.6,2.8,5.2,4.3,7.8c4.9,8.1-7,13.4-13.4,14.8c-1.9-0.3-3.8-0.6-5.7-1c-3.3-1.9-8.8-3.9-7-8.7
	c2.7-7,9.3-12,10-19.7c-3.4,3.9-5.9,8.6-9.8,12c-3.8-1.4-9.5-3.9-8.8-8.8c0.2-2.1-0.4-4.1-0.8-6.1c4.6,2.7,9.8,1,14-1.5
	c-0.1-4.2,4.3-0.2,2.9-4.9c-2.8,1.2-5.8,0.9-8.7,0.6l-0.7-0.4c-3.4-2.3-7.3-3.5-10.6-5.9c-3.4-3.2-9.6-2.3-11-7.7
	c-0.6-11.1,5-21.3,6.1-32.2c-2.3-1.6-3.8-3.8-3.8-6.7c-2.1,2.3-4.4,4.3-6.8,6.3c0,6.1,3.6,11.6,5.6,17.2c-3.2-1.3-4.5-4.6-6.6-7
	c-0.8,17,2,34.3-2.5,50.9c-0.2-0.2-0.7-0.7-0.9-0.9c0.7-20.3-2.1-40.7-0.4-61c-3.5,1.7-7.9,1.8-9.8-2.2c-5-5.3,2.9-10,4.1-15.2
	c-3.1-1.6-4.3-5.3-7.3-6.6c-3.1,0.4-5.8,2.9-7.7,5.2c2.9,1,7.2,1.8,7.7,5.6c1.2,2.8-3.5,3.9-2.4,6.6c1.4,2.6,0.9,6.3-2.2,7.3
	c-5-0.9-10.7-4-10.9-9.6c-2.1-0.1-4.4,0-4.6-2.7c-2.3,0.7-4.7,2-7.1,0.7c-0.7-3.5,4.8-8.1,0-10.1c-10,4.6-20.3,14.1-31.9,7.8
	c1.2-8.9,9.5-14.4,17.2-17.4c0.5-1.7-3.4-1.5-4.3-2.9c5-1.4,10.1-3.6,15.3-1.8c1.4-2,2.9-4,4.3-6c-5.5-8.2-10-17.3-10.3-27.3
	c9-2.3,18.6-2,26.8,2.7c1.5-2.5,3.2-5.7,1.4-8.5c-1.2-0.7-5.8-0.6-4.1-2.6c4.5,1.4,9-2,13.1,1c6.9-1,3.4-9,3.3-13.8
	c0.8-3.6-5.8-2.1-4.1-5.9c2.8-0.3,5.7-2.2,8.4-0.5c-3.6,2.8-3.4,9.8,1.7,10.3c2.8,2.8,6.4-2.4,6.1-5c-6-5.4-11.2-11.6-17.4-16.8
	c-2.1-5,3.2-0.5,3.9,1.7c5.7,5.4,10.5,12.4,17.5,16.1c-0.4-7.7,2.4,2.6,6.8,1.2c0.9-2.4-0.9-2.6-2.6-3.1c1.2-5.6-2.3-13.4-8.4-13.5
	c1.2,3.5,2.9,6.8,3.6,10.4c-3.3-4-2.9-11.2-9-12.6c3.8-3.1,5.1-8.6,9.2-11.6c5.1-2.4,10.6,0.4,15.8,0.5c2-2.4-2-3.8-1.9-6.3
	c1.2-6.6,7.3-9.7,8.8-16.3c3.3-1.4,7.2-1.4,10.6-0.5c4.5-4.7,11-6.6,16.6-9.8c-1.5-5.8-6.7-9.8-8-15.6c-1.6-6.2-4.8-11.9-7.5-17.7
	c-12.3-1.5-19.9-12.4-26.5-21.8C157.6,37.2,159.3,20.8,170,13.9 M213.2,100.2c-0.9,1.4,0.9,3.9,2.5,2.8
	C217.4,101.6,214.8,98.8,213.2,100.2 M376.4,120.4c-1.2,0.3-2.3,2.7-0.5,2.8c4,1,10.7,4.6,11.1-2
	C383.4,121.4,379.7,118.9,376.4,120.4 M364.3,122.2c-1.7,1.9-3.8,3.5-5.4,5.5c1.8,2.6,6.2,2.3,8.9,4.2
	C366.1,127.9,371,122.6,364.3,122.2 M137.2,178.9c-1.2,3.6,1.4,3.6,4.2,3.1C140.2,180.7,138.9,179.4,137.2,178.9 M229.8,203.7
	c-1.1,1.3-6.1,5.7-1.8,4.6C231,209.6,232.2,202.6,229.8,203.7 M449.1,216.3c-2,3.8,2.3,4.5,5.1,4.6
	C453,218.8,451.1,217.4,449.1,216.3 M231.7,218c-2.6,0.3-5.3,0.5-7.9,1c0.6,4.9,4.7,7.8,7.4,11c4.4,1.7,2.7-3,1.3-5.2
	C229.8,221,239.7,215.9,231.7,218 M168.9,220.9c-1.6,1.6-0.2,7.5,3.2,6.2c1.2-1.9,2.9-3.5,4.2-5.3
	C175.1,219,171.2,220.4,168.9,220.9 M450.5,223.2c-0.7,4.1,2.2,6.7,5.5,8.4C455.5,228,455.4,222.9,450.5,223.2 M170.3,228.9
	c-2.7,0.8-2.4,5.4,0,6.7c5.1,3.1,8.2,10.6,5.3,16.1c-2.7-0.1-4.6,1.5-5.5,3.9c4.4-0.2,8.3-2.9,12.8-2.5c0.5-2.3-3.1-4.8-1-7.3
	c0.4-3.3,5.1-2.2,5.7-5.1c-2.6-1.4-5.7-1.9-7.1-4.7c-2.9-0.6-6.6,0-8.2-3.2C172.6,230.5,173.7,227.5,170.3,228.9 M451.8,231.8
	C447.9,236.2,457,233.6,451.8,231.8 M451.7,256.8c-0.7,1.4-1.2,2.9-1.3,4.4C453.4,263.1,455.3,256.4,451.7,256.8 M273.4,259.5
	c-1.5,0.1-6.6,1.5-2.7,2.4C272.7,263.9,275.1,259.5,273.4,259.5 M268.9,266.1c-3.3,1.2,1.5,3.7,2.4,1.1
	C272.5,265.5,269.7,265.6,268.9,266.1 M278.7,271.4C274.3,275.3,282.6,275,278.7,271.4 M246.3,287c-1.6,0.9-3.2,2-4.7,3.1
	C243,294.6,249.2,288.9,246.3,287 M249.4,288c-3.5,3.6,2.2,4.4,4.9,3.8C254.2,289.6,251.5,286.5,249.4,288 M192,289.9
	c0.5,3.8,1.4,6.7,2.8,10.8C194,297.5,196.3,290.2,192,289.9 M269,296.8c-3.1,3.1,4.1,2,5.2-0.3C272.4,296.5,270.6,296.4,269,296.8
	 M236.2,300.1c-1.4,3.2,2.4,4.5,3.9,1.4C242.4,298.7,237.8,299.6,236.2,300.1z"/>
<path id="XMLID_129_" class="st0" d="M128.9,130.3c6.9-0.5,1,7.3,5.1,10.5c-3.1-0.2-2.9-4.3-5.7-4.4
	C124.6,136.7,125.7,130.5,128.9,130.3z"/>
<path id="XMLID_128_" class="st0" d="M113.5,166.5c5.9,0,10.9,5.5,17.2,5.2c2.1-0.5-0.4,1.7-1.1,1.4c-5.4-1.4-11-2.3-16.6-1.7
	C112.5,169.7,110.6,166.5,113.5,166.5z"/>
<path id="XMLID_127_" class="st0" d="M132.8,172.8c1.1-0.7,3.7-0.9,4.1,0.7C136.2,175.1,132.1,174.7,132.8,172.8z"/>
<path id="XMLID_126_" class="st1" d="M229.8,203.7c2.4-1.1,1.2,5.9-1.8,4.6C223.7,209.4,228.8,205,229.8,203.7z"/>
<path id="XMLID_125_" class="st2" d="M231.7,218c7.9-2.1-2,3,0.9,6.8c1.4,2.1,3.1,6.9-1.3,5.2c-2.7-3.2-6.8-6.1-7.4-11
	C226.5,218.5,229.1,218.3,231.7,218z"/>
<path id="XMLID_124_" class="st3" d="M168.9,220.9c2.2-0.6,6.1-1.9,7.4,0.9c-1.3,1.8-3,3.4-4.2,5.3
	C168.8,228.5,167.3,222.6,168.9,220.9z"/>
<path id="XMLID_123_" class="st3" d="M170.3,228.9c3.4-1.4,2.2,1.6,1.9,3.8c1.6,3.3,5.3,2.7,8.2,3.2c1.4,2.8,4.5,3.4,7.1,4.7
	c-0.6,2.9-5.3,1.9-5.7,5.1c-2.1,2.5,1.4,5,1,7.3c-4.5-0.4-8.4,2.3-12.8,2.5c1-2.4,2.8-4,5.5-3.9c3-5.5-0.2-12.9-5.3-16.1
	C167.9,234.3,167.6,229.7,170.3,228.9z"/>
<path id="XMLID_122_" class="st1" d="M156.1,254.3c2.4-2,4.7-4,6.8-6.3c-0.1,2.9,1.5,5.1,3.8,6.7c-1,10.9-6.6,21.1-6.1,32.2
	c1.5,5.4,7.6,4.5,11,7.7c3.3,2.4,7.2,3.6,10.6,5.9c-6.4-0.5-2.9,8.2,1.6,5.5c3-1.2,0-3.6-1-5.1c2.9,0.3,6,0.6,8.7-0.6
	c1.4,4.8-3,0.7-2.9,4.9c-4.3,2.4-9.5,4.2-14,1.5c-3.1-6.9-3.9,6.8-8.8,4.3c-5.3-2.2-10.8-0.9-13.4,4.4c4.4-16.6,1.6-34,2.5-50.9
	c2.1,2.4,3.4,5.8,6.6,7C159.7,265.9,156.1,260.4,156.1,254.3z"/>
<path id="XMLID_121_" class="st4" d="M273.4,259.5c1.7-0.1-0.7,4.4-2.7,2.4C266.8,261,271.9,259.7,273.4,259.5z"/>
<path id="XMLID_120_" class="st4" d="M268.9,266.1c0.8-0.5,3.6-0.6,2.4,1.1C270.4,269.8,265.6,267.3,268.9,266.1z"/>
<path id="XMLID_117_" class="st4" d="M297,274.4c-0.9-3.3-5.7-9.6,1-6.8c2.9,3.4,8.4,3.9,9.2,9.1c-1.8,5.5-10.9,0.7-9.2,7.2
	c4.7-1.7,4.9,4.5,8.3,2.8c3.9,1.5,6.9,5,11.4,5.6c2.6,0.1,2.3,2.9,1.8,4.6c-1.7,2,0.8,3.1,2.2,4.2c-3.1,5.5-9.5,5.4-14.9,4
	c-11.4,0.3-22.8,3-34.2,1.2c-2.3-0.3-5.5-3-7.2-0.3c0-1.6-1.7-4.3,1-4.5c4.4,3.7,10.9,3.6,16.2,2.2c2.7-1.1,0.8-4.1,0.5-6.1
	c3.9-0.6,9-1.4,11.2-5c-1.9,0.2-4,0.8-5.8,0.1c3.8-0.3,7.2-5.8,3.6-8.5c-0.2-0.2-0.7-0.7-0.9-1C283.7,278.7,296.9,279.9,297,274.4
	 M302,293.2c0,2.1,4.6,3,5.5,1.3C305.9,293.8,303.8,292.4,302,293.2z"/>
<path id="XMLID_116_" class="st1" d="M297.9,267.6c4,0.7,14.3,3.8,9.2,9.1C306.3,271.5,300.8,271,297.9,267.6z"/>
<path id="XMLID_115_" class="st4" d="M278.7,271.4C282.6,275,274.3,275.3,278.7,271.4z"/>
<path id="XMLID_114_" class="st1" d="M306.2,286.8c-4.5-1.6,2.7-2,3.6-4.3c-1.3,5.2,3.7,6.8,7.7,7.6c4.1,0.7,3.8,5.2,4.6,8.4
	c-0.6-0.4-2-1.1-2.6-1.5c0.4-1.8,0.7-4.6-1.8-4.6C313.2,291.8,310.2,288.3,306.2,286.8z"/>
<path id="XMLID_113_" class="st1" d="M291.1,283.2c0.2,0.3,0.7,0.7,0.9,1c-0.6,1.5-0.2,4.2-2.5,4.2c-4-0.4-1,5.2-4.2,5.8
	C285.9,289.8,287.7,286.1,291.1,283.2z"/>
<path id="XMLID_112_" class="st3" d="M292,284.2c3.5,2.7,0.2,8.2-3.6,8.5c1.9,0.8,3.9,0.1,5.8-0.1c-2.2,3.6-7.3,4.3-11.2,5
	c-1.6-2.3,0.4-2.9,2.3-3.5c3.2-0.6,0.2-6.2,4.2-5.8C291.8,288.5,291.4,285.7,292,284.2z"/>
<path id="XMLID_109_" class="st3" d="M218.3,295.2c6.1-2.5,11.2-6.8,17.4-8.9c6,4.3-3.3,4.5-2,9.7c0.6,3.2-2.5,1.5-4.3,1.6
	c-2.2,1.9,3,4.8-0.8,6.1c-3.6,2.4-4.5-1.1-4.7-4.1c-0.6,3,0.4,5.8,2.9,7.6c-1.1,1-2.1,2-3.2,2.9c-2.7,0.6-7.6,0.3-2.6,2.5
	c-5,3.8-15.5-5.4-15.2,3.7c-3.3-5.3-2.7-11.8-1.5-17.6C208.9,302.6,214.4,297.7,218.3,295.2 M209.9,307.7c0.9,1.1,8.5,0.2,11.9,2.1
	C219.7,306.6,213.5,306.7,209.9,307.7z"/>
<path id="XMLID_108_" class="st3" d="M246.3,287c2.9,1.9-3.3,7.6-4.7,3.1C243.1,289,244.6,287.9,246.3,287z"/>
<path id="XMLID_107_" class="st2" d="M249.4,288c2.2-1.5,4.8,1.7,4.9,3.8C251.6,292.4,245.9,291.6,249.4,288z"/>
<path id="XMLID_106_" class="st3" d="M192,289.9c4.3,0.3,2,7.5,2.8,10.8C193.4,296.6,192.5,293.7,192,289.9z"/>
<path id="XMLID_105_" class="st1" d="M302,293.2c1.8-0.8,3.9,0.6,5.5,1.3C306.6,296.2,302,295.3,302,293.2z"/>
<path id="XMLID_104_" class="st1" d="M233.7,296c1.5,3.6-4.6,5.8-0.6,9.1c-2.4-0.4-4.7,0.3-6.3,2.2c-2.5-1.9-3.4-4.6-2.9-7.6
	c0.1,3,1.1,6.5,4.7,4.1c3.8-1.2-1.4-4.2,0.8-6.1C231.2,297.4,234.3,299.2,233.7,296z"/>
<path id="XMLID_103_" class="st1" d="M269,296.8c1.7-0.4,3.4-0.3,5.2-0.3C273,298.8,265.9,299.9,269,296.8z"/>
<path id="XMLID_99_" class="st2" d="M321.6,301.2c-1.3-1.1-3.8-2.1-2.2-4.2c0.6,0.4,2,1.1,2.6,1.5c0.6,0.4,1.7,1.1,2.3,1.4
	c-0.1,1.7-1.7,5,1.3,4.7c6-0.2,10.1,6.2,16.3,4.3c-0.1,2.4-0.9,4.7-1.3,7.1c3.3,4.1,10-1,12.5,4.7c-1.8-0.5-3.6-0.8-5.4-1.1
	c0.7,6.9,3.7,13.4,6.6,19.4c-3.6,5.8-13.2,8.1-18.7,3.1c-10.5-6-21.4,1.2-30.9,4.8c-5.2-1.9-11,0.1-16-2.2c6-0.6,12-0.1,18-0.8
	c-0.6-0.9-1.3-1.7-1.9-2.5c3-2.5,4.7-8.1,9.6-7c-0.3,5.7,4.7,1.6,6.3-0.7c-2-5.6-6.7-10-11.8-12.8c-1,2.7-4.6,4.9-6.5,1.7
	c0.4-1.9,0.9-4.3-1.9-4.2c-2.1,1.6-3.7,3.8-5.8,5.4c-3.7,1.9-7.1-3.7-10.6-0.9c-3.3,2-8.9,3.7-8.6,8.3c2.7,4,7.1,6.6,9.9,10.7
	c-7.1-1.7-14.1-4.1-20.9-6.8c0.2,4.3,6.5,3.7,9.3,5.8c0.2,5.5-7.8,3-8.3-1.1c-8.1-1.5-16.7-6.6-24.8-2.2c-3.8,4.8-6.5,12.3-2.7,17.8
	c2.1,3.5,2.1,7.8,4.6,11c-6.6-0.9-13.3-0.5-20-0.5c0.3-3,1.5-6.5-1.1-8.9c-0.6-1.5-1.2-3-1.7-4.6c0.2-5.5,3.6-3.5,7.1-2.2
	c0.9-4.2-1.4-8.2-1.4-12.3c1.7-1.8,4.5,0,6.7-0.2c-0.7-3.4-2.4-6.6-3.5-9.8c2.3-0.8,4.7-1.3,7.1-2c2.3-1.4,4.5-0.5,6.4,1.1
	c2.3-2.2,0.3-6.9,4.6-7c-0.5-0.3-1.5-1-2-1.3c4.8-1.8,8-5.8,11.6-9.2c1.2,0.6,2.3,1.5,3.5,2.3c2.5,0.7,4.3-3.7,5.6-5.6
	c1.7-2.7,4.8,0,7.2,0.3c11.4,1.8,22.8-0.9,34.2-1.2C312.1,306.5,318.5,306.6,321.6,301.2 M266.8,310.6c-0.3,1.7,2.3,2.1,3.5,1.7
	C270.7,310.8,267.9,309.4,266.8,310.6 M316,315.9c4,7.6,10.9,13.3,15.4,20.5c5.3-3.3,12.6,3.4,16.7-2.1c-1.9-3.4-0.8-7.2-1.6-10.7
	c-6.1-0.8-8.5-9-14.2-9.1c-2.9-0.9-5.8-1.7-8.7-2.5C320.8,309.2,314.6,311,316,315.9z"/>
<path id="XMLID_98_" class="st2" d="M236.2,300.1c1.5-0.5,6.1-1.4,3.9,1.4C238.7,304.5,234.9,303.3,236.2,300.1z"/>
<path id="XMLID_97_" class="st3" d="M324.3,299.9c3.1,2,6.3,3.7,9.7,5.1c2.7,3.1,6.4,2.5,10,2c0.7,0.3,2,0.9,2.7,1.2
	c0.9,3.6-1.6,5.4-3.7,7.6c2.2-0.8,4.6-3.7,6.6-0.9c4.9,3.2,10.4,6.2,16.3,6.8c3.4,5.2-0.2,9.8-1.3,14.9c-2.8,1.2-7.1,1.1-6.3,5.3
	c3-2.9,7.2-2.2,11-2.1c0.5,1.3,1,2.6,1.2,3.9c-3.6-1.9-5.6,3.3-9-0.9c-3.4,6.6-8.7-6.9-3.2-6.3c6.7-0.1,6.4-8.6,4.8-13.1
	c-3.3-1.3-6.8-1.5-10.1-2.6c-2.5-5.7-9.3-0.6-12.5-4.7c0.4-2.4,1.2-4.7,1.3-7.1c-6.2,1.9-10.3-4.5-16.3-4.3
	C322.6,304.9,324.3,301.6,324.3,299.9z"/>
<path id="XMLID_96_" class="st2" d="M183.9,306c-4.5,2.7-8-6-1.6-5.5l0.7,0.4C183.9,302.4,186.9,304.8,183.9,306z"/>
<path id="XMLID_95_" class="st3" d="M259.8,311.7c-4.4-3.9,1.2-13.6,6.5-10.1c-2.7,0.2-1,2.9-1,4.5C264,308,262.3,312.5,259.8,311.7
	z"/>
<path id="XMLID_94_" class="st1" d="M334.1,305c3.8-1.6,6.3,2.2,10,2C340.5,307.5,336.7,308.1,334.1,305z"/>
<path id="XMLID_91_" class="st3" d="M165.9,311c4.9,2.5,5.6-11.3,8.8-4.3c0.4,2,1,4,0.8,6.1c-0.7,4.9,5,7.4,8.8,8.8
	c3.9-3.4,6.4-8.1,9.8-12c-0.7,7.7-7.3,12.7-10,19.7c-0.6,1.6-1.1,3.6-3.2,2.8c2,3.9,5.3,8.3,10.2,5.9c1.9,0.3,3.8,0.6,5.7,1
	c-2.9,4.3,3.6,13.2-3.7,13.7c-9.3,0.4-8.1-12.8-16.7-14.2c6.3,4.1,5.9,12.2,8.8,18.4c5.3,6.1,8.4,13.6,12.2,20.7
	c-0.6,5,2.2,9.6,1.3,14.5c-6.8-3.2-4-12.4-7.6-18c-0.8,9.1,5.1,17.5,3.2,26.6c-0.6,0-1.8,0-2.4-0.1c-4.9-6.4-1.7-15.5-6.2-22.1
	c-0.8,4.7,3.3,8.8,1.4,13.4c-2.3,11.3,15.2,13.8,12.8,25.4c-7.4-0.1-4.3-13.4-12.3-9c-5.4-7.6-9.2-16.6-14.1-24.3
	c-1.6,4.6,7.1,11.4,1.1,13.5c-1.9-3-2.5-9.3-7.3-8.5c-4.7-6.8-5.1-15.7-2.7-23.5c0.7-3.7-3.5-5.6-4.9-8.6c-1.9-3.8,7.1-3.9,3.5-7.9
	c-3.3-5.9-4.7-17.6-13.2-17c-3.7,12.4-0.5,25.6-3,38.3c-3.3-11.2,0.7-23.5-3.6-34.5c-1.3,4.1-1.7,8.3-2.5,12.5
	c-1.7-5.3-0.2-10.9-1.1-16.4c-2.1-1.9-4.6-3.4-7.1-4.6c-3.7,2.1-2.9,7-3.6,10.6c2.3,20,9.9,39.1,19.5,56.7c1.4,2.7,4.4,4.1,7.1,5.2
	c1.9-2.9-2.9-5.6-2.9-8.8c0.3-0.7,1-2,1.3-2.6c2.5,2.9,5.8,5.2,7.6,8.6c1.3,4.2,0.7,10.6,6.3,11.8c3.4-1.6,0.6-6.7,2.7-9.5
	c3.5,4.3,6.4,9.6,6.3,15.3c-2.8,1.2-6.2,1.8-9,0.2c-5.6-3.2-11.9-5.5-16.7-9.9c-12.7-19.7-20.2-42.7-24.1-65.7c0.4-4.8,0-9.7,0-14.5
	c1.5-5.3,5.4-10.8,11-11.9c4.4,3.9,13.4,4.5,13.7,11.7c-1.6-1.3-3.2-2.7-4.8-4.1c-1.7-2.7-8.3-2.6-6.9,1.6
	c4.5,4.4,10.8,7.4,16.7,8.7c4.5,7.1,7.7,16.4,15.8,20c4.2-1,6.3-7,2.6-10.1c-2-9.8-9.4-17.1-16.5-23.6c2.2,5.7-4.3,0.6-5.9-1.5
	C155.2,310.1,160.7,308.9,165.9,311 M167.2,355.5c-1,2.8-2.4,5.7-1.2,8.7C167.9,361.6,168.5,358.5,167.2,355.5z"/>
<path id="XMLID_90_" class="st2" d="M226.8,307.2c1.6-1.9,3.9-2.6,6.3-2.2c0.7,3,0.3,6.4,2.5,9.1c-0.1,4.1-4.9,3.7-7.7,5
	c-1.2-3.1-2.3-6.2-4.2-9C224.7,309.2,225.8,308.2,226.8,307.2z"/>
<path id="XMLID_89_" class="st2" d="M209.9,307.7c3.6-1,9.8-1.2,11.9,2.1C218.4,308,210.8,308.8,209.9,307.7z"/>
<path id="XMLID_88_" class="st1" d="M346.8,308.2c3.4,2.1,8.4,3.1,9.5,7.6c3.2,3.2,7.1,5.6,11.7,3.6c1.5,6.8-2.7,14.3,1.5,20.4
	c-3.8-0.1-8-0.7-11,2.1c-0.9-4.2,3.5-4.1,6.3-5.3c1.1-5.1,4.7-9.7,1.3-14.9c-5.9-0.6-11.4-3.6-16.3-6.8c-2-2.8-4.4,0.1-6.6,0.9
	C345.2,313.6,347.7,311.8,346.8,308.2z"/>
<path id="XMLID_87_" class="st0" d="M266.8,310.6c1-1.2,3.9,0.2,3.5,1.7C269.1,312.7,266.5,312.3,266.8,310.6z"/>
<path id="XMLID_86_" class="st3" d="M316,315.9c-1.5-4.9,4.8-6.7,7.5-4c-3.9,6,7.1,7.8,8.7,2.5c5.7,0.1,8.1,8.3,14.2,9.1
	c0.8,3.5-0.4,7.2,1.6,10.7c-4.1,5.5-11.4-1.2-16.7,2.1C326.9,329.2,320,323.5,316,315.9z"/>
<path id="XMLID_85_" class="st4" d="M205.9,316.3c-0.4-9.1,10.1,0.1,15.2-3.7c0.4,1.1,0.7,2.1,0.9,3.3c-0.4,2,1.3,3.4,3.2,3.1l0.5,1
	c-3.5,1.7-6.9,4.3-5.1,8.7c-3.8-0.3-5.9-4.8-10.4-4.6C208.7,321.6,207.3,318.9,205.9,316.3z"/>
<path id="XMLID_84_" class="st1" d="M323.6,311.9c2.9,0.8,5.8,1.7,8.7,2.5C330.7,319.7,319.7,317.9,323.6,311.9z"/>
<path id="XMLID_83_" class="st4" d="M137.9,312.7c4.6-1.3,9.5-0.1,13.7,1.8c0.2,0.2,0.7,0.7,0.9,0.9c1.7,2.1,8.1,7.2,5.9,1.5
	c7.2,6.4,14.5,13.8,16.5,23.6c3.6,3.2,1.5,9.2-2.6,10.1c-8.2-3.6-11.4-12.9-15.8-20c-1-1.5-2.2-3-3.4-4.4c-0.4-0.5-1.2-1.4-1.6-1.8
	C151.3,317.3,142.3,316.7,137.9,312.7z"/>
<path id="XMLID_82_" class="st1" d="M221.9,315.9c1.7,0.3,3.1,1.3,3.2,3.1C223.2,319.2,221.6,317.9,221.9,315.9z"/>
<path id="XMLID_81_" class="st1" d="M139.8,321.9c-1.4-4.2,5.2-4.3,6.9-1.6c-7-0.8,2.9,8.2,6.4,5.9c1.2,1.4,2.4,2.8,3.4,4.4
	C150.6,329.3,144.3,326.3,139.8,321.9z"/>
<path id="XMLID_80_" class="st4" d="M294.7,323.8c2.1-1.6,3.7-3.7,5.8-5.4c2.7,0,2.2,2.4,1.9,4.2c1.9,3.2,5.6,1,6.5-1.7
	c5.1,2.8,9.8,7.2,11.8,12.8c-1.6,2.4-6.7,6.4-6.3,0.7c-4.8-1.1-6.6,4.5-9.6,7c-2.6,0.7-5.1,1.6-7.7,2.1c-1.4-2.4-1.8-7.1-5.7-6
	c-2.1,1.3-4.1,2.9-6.2,4.3c-2.7-4.1-7.1-6.7-9.9-10.7c-0.2-4.6,5.4-6.3,8.6-8.3C287.6,320.1,291,325.7,294.7,323.8z"/>
<path id="XMLID_76_" class="st4" d="M347.8,319.6c1.8,0.2,3.6,0.6,5.4,1.1c3.3,1.2,6.8,1.3,10.1,2.6c1.6,4.6,1.9,13-4.8,13.1
	c-5.5-0.6-0.2,12.9,3.2,6.3c3.5,4.3,5.4-0.9,9,0.9c0.9,4.1,1.3,8.4,2.3,12.5c-1.6,3.2-1.1,6.6-0.6,10c-1.2,2.6-3.6,3.3-6.2,2.3
	c-0.8,2.8-1.6,5.8-1.4,8.8c2.6,3.8,7,0.5,9.3-1.8c0.7,1.8,1.1,4.1,3.5,4.4c0.5,3.8,2.2,7.6,1.5,11.4l-1.5,0.2
	c-6.4,0.5-0.1,5.9-0.8,9.3c-7.8-0.3-5.7,9.1-3.1,13.5c-2.1,0.3-4.5,0.3-5.3-2.2c-9.2-6.8,3.6-17.3-3.4-24.9
	c-3.3-1.9-5.5-4.8-7.1-8.2c-1.8-3.6-6.3-0.7-9.2-0.4c-2.6,3.5-3.1,8-4.6,12c-1.7,5-5.8,8.9-6.1,14.4c-3.4,2.3-8.6,2.9-9.8,7.4
	c-4.2,5.1-11.8,4.8-16.2,9c2.6,0.4,5.4,0.2,7.7-1.3c3.7-0.4,7.7,1.1,7.9,5.3c-1.7,2.7-8.6,7.3-3.1,9.3c2.1,0.6-0.8,1.1-1.4,1.5
	c-2.6-3.4-2-8-4-11.6c-10.5-2.1-21.6-5.5-28.7-13.9c-5.7-3.4-9.8-8.6-14.7-13c-3.1-2.3-1.5-8.9-7-7.7c-0.3-0.4-0.9-1.1-1.2-1.4
	c2.7-2.6,0.5-4.9-2-6.3c-1-1.1-2-2.1-3-3.2c-5.2-6-11.6-11.4-19.7-12.9c-2.5-3.3-2.6-7.6-4.6-11c-3.8-5.5-1.1-13,2.7-17.8
	c8.1-4.4,16.7,0.7,24.8,2.2c0.5,4.1,8.5,6.6,8.3,1.1c4.9,1.7,10,2.6,15,4c5,2.3,10.8,0.3,16,2.2c9.6-3.6,20.5-10.8,30.9-4.8
	c5.5,5,15.2,2.7,18.7-3.1C351.5,333,348.5,326.6,347.8,319.6 M351.9,346.4c-3.4,1.9,1,6,3.6,5C355.9,349,355,345.3,351.9,346.4
	 M340.9,361.7c-2.7,4-5.7,10.7-2.2,14.9C345.1,377.4,347,363.6,340.9,361.7z"/>
<path id="XMLID_75_" class="st0" d="M153.1,326.2c-3.5,2.3-13.4-6.7-6.4-5.9c1.6,1.4,3.2,2.8,4.8,4.1
	C152,324.9,152.7,325.8,153.1,326.2z"/>
<path id="XMLID_74_" class="st2" d="M225.6,320c1.2,2.1,2.4,4.1,3.4,6.3c-2.6,1.7-5.5,2.7-8.6,2.4
	C218.7,324.3,222.2,321.8,225.6,320z"/>
<path id="XMLID_73_" class="st1" d="M210.1,324.1c4.4-0.2,6.5,4.3,10.4,4.6c3.1,0.3,6-0.7,8.6-2.4c2.2-0.1,4.5-0.2,6.7-0.5
	c-2.3,0.7-4.7,1.2-7.1,2c-2.4,0.6-1.7,3.5-2.3,5.4c-1-2.7-3.3-4.2-6.3-3.1c-1,4.8,0.7,9.4,1,14.2c-3.5,0.4-3.9-4.9-7.7-3.5
	c-0.8,5.1,1.3,10.1,6.5,11.6c0.5,1.5,1.1,3.1,1.7,4.6c-0.2,6.2-5.9-7-9.7-0.6c1.3-6.3-6.8,0.8-6.5-5.1c-1,12.2,2.8,23.7,4.7,35.4
	c3.7,4,2.6,10.3,6.9,13.8c2,2.1,0.9,5.4,1.5,8c-1.6,4-3.2,9.4,1.4,12.1c2.3,1.2-0.7,2.1-1.6,3.1c2.4,11,8.3,21.3,9.5,32.5
	c0.2,6.5-8.5-1.3-8.8,4.3c-0.8,15.3,6.6,30.4,16.7,41.8c7.3,10.1,18.9,16.9,23.4,29c2.1,5.4,9.3,12.5,14.5,6.7
	c4.3,2.5,8.4,5.5,12.9,7.6c1,3.1-4.4-1.4-6.3-1.3c-0.8,3.1,2,4.7,3.7,6.7c-6.3,1.2-9.5-6-15.4-5.6c-0.2-0.1-0.6-0.4-0.8-0.5
	c-2.4-4.9-7.6-7.2-11.1-11.1c-8.4-11.6-20.8-19.3-30.2-30.1c-17.1-15.8-25.9-37.9-37.3-57.7c-0.9-14.9-6-29.5-12.3-42.7
	c-0.1,5.4,2.6,10.6,1.2,16c-4.5,0.6-8.4-2.8-12.9-2.9c-6.3-1.1-10.9-6.7-14.2-11.8c4.9,4.4,11.1,6.7,16.7,9.9c2.8,1.6,6.2,1,9-0.2
	c0.1-5.7-2.7-11-6.3-15.3c1.7,1.3,5.9,1.1,4-1.8c6-2.1-2.7-8.9-1.1-13.5c5,7.7,8.8,16.6,14.1,24.3c8-4.4,4.9,8.9,12.3,9
	c2.3-11.5-15.2-14.1-12.8-25.4c1.9-4.6-2.2-8.7-1.4-13.4c4.5,6.6,1.3,15.7,6.2,22.1c0.6,0,1.8,0.1,2.4,0.1c1.9-9.2-4-17.5-3.2-26.6
	c3.5,5.6,0.8,14.8,7.6,18c0.9-5-2-9.6-1.3-14.5c-3.7-7-6.9-14.6-12.2-20.7c-2.9-6.2-2.5-14.3-8.8-18.4c8.6,1.4,7.4,14.5,16.7,14.2
	c7.3-0.6,0.8-9.4,3.7-13.7C203.1,337.6,215.1,332.2,210.1,324.1z"/>
<path id="XMLID_72_" class="st1" d="M126.9,339.2c-1.4-4.7-1.6-9.9,0-14.5C126.9,329.5,127.3,334.4,126.9,339.2z"/>
<path id="XMLID_71_" class="st4" d="M129,337.9c0.7-3.6-0.1-8.5,3.6-10.6c2.5,1.3,5,2.8,7.1,4.6c0.8,5.4-0.6,11,1.1,16.4
	c0.4,1.9,1,3.6,1.6,5.4c0.2,0.9,0.5,2.6,0.7,3.5c0.8,11.8,4.6,23.1,9.5,33.8c0.1,3.2,4.9,5.9,2.9,8.8c-2.7-1.1-5.7-2.4-7.1-5.2
	C138.9,377,131.3,357.9,129,337.9z"/>
<path id="XMLID_70_" class="st3" d="M226.4,333.2c0.5-1.9-0.2-4.8,2.3-5.4c1.2,3.3,2.8,6.4,3.5,9.8c-2.1,0.2-5-1.6-6.7,0.2
	c0,4.2,2.3,8.2,1.4,12.3c-3.5-1.3-6.8-3.3-7.1,2.2c-5.2-1.5-7.3-6.5-6.5-11.6c3.8-1.4,4.3,3.9,7.7,3.5c-0.3-4.7-2-9.4-1-14.2
	C223.1,329,225.4,330.5,226.4,333.2z"/>
<path id="XMLID_69_" class="st1" d="M180.8,332.1c2.1,0.7,2.6-1.2,3.2-2.8c-1.8,4.8,3.7,6.8,7,8.7
	C186.1,340.4,182.8,336,180.8,332.1z"/>
<path id="XMLID_68_" class="st2" d="M149.9,332c8.6-0.6,9.9,11.1,13.2,17c3.6,4-5.5,4.2-3.5,7.9c1.4,3,5.6,4.9,4.9,8.6
	c-3.8-2.1-8.3-2.8-12.6-1.8c-3.5,3.3-2,8.7-3,12.9c-0.6-2.1-1.3-4.3-2-6.4C149.4,357.7,146.2,344.4,149.9,332z"/>
<path id="XMLID_67_" class="st1" d="M264.4,335c6.8,2.8,13.7,5.1,20.9,6.8c3.7,1.8,7.9,2.1,11.9,1.7c2.6-0.5,5.1-1.5,7.7-2.1
	c0.6,0.8,1.3,1.7,1.9,2.5c-6,0.7-12,0.3-18,0.8c-5-1.4-10.1-2.3-15-4C270.9,338.7,264.6,339.3,264.4,335z"/>
<path id="XMLID_66_" class="st1" d="M143.2,335.8c4.4,11.1,0.4,23.3,3.6,34.5c0.7,2.1,1.4,4.2,2,6.4c1,4.1,2.5,8.2,5,11.7
	c-0.3,0.7-1,2-1.3,2.6c-4.9-10.6-8.7-22-9.5-33.8c1.4-4.5,0.8-9.3,0.1-13.9c-0.3,3.5-0.5,7-0.8,10.4c-0.6-1.8-1.2-3.6-1.6-5.4
	C141.6,344.2,141.9,339.9,143.2,335.8z"/>
<path id="XMLID_65_" class="st2" d="M285.3,341.8c2.1-1.4,4.1-3,6.2-4.3c3.9-1.2,4.3,3.6,5.7,6C293.2,343.9,289,343.7,285.3,341.8z"
	/>
<path id="XMLID_64_" class="st0" d="M143.2,343.3c0.7,4.6,1.3,9.4-0.1,13.9c-0.2-0.9-0.5-2.6-0.7-3.5
	C142.7,350.3,142.9,346.8,143.2,343.3z"/>
<path id="XMLID_63_" class="st3" d="M351.9,346.4c3.1-1,4.1,2.7,3.6,5C352.8,352.3,348.4,348.2,351.9,346.4z"/>
<path id="XMLID_62_" class="st0" d="M205.5,351.3c-0.3,5.9,7.8-1.2,6.5,5.1c-0.5,1.4-1,2.8-1.4,4.3c-3.1,4.8,2,4.9,5.6,4.9
	c2.2,0.2,4.3,0.3,6.5,0.3c6.7,0.1,13.4-0.4,20,0.5c8.1,1.4,14.5,6.8,19.7,12.9c-2.4,3.5,1.3,7.3-0.2,10.9c-0.8,3.5-4.6,4.5-6.9,6.8
	c-2.5,5.1-2.3,11.6,2.4,15.4c4.4,2.9-3,4.7-1.7,8.3c0.5,3.2,4.8,1.7,6.4,3.9c0.7,2.9-3.5,4.8-2.6,7.7c1.4,2.9-2.5,3.6-4.2,4.8
	c-3.8-4.4-8.9-7.4-13.8-10.4c0.5-1.6,1.2-3.2,1.8-4.8c-1.8,1.3-3.3,3.4-5.7,3.5c-8.8-2.3-12.9-11.3-19.4-16.8c-0.5-2.6,0.5-6-1.5-8
	c-4.3-3.5-3.2-9.8-6.9-13.8C208.3,375,204.5,363.5,205.5,351.3z"/>
<path id="XMLID_61_" class="st0" d="M167.2,355.5c1.3,2.9,0.7,6.1-1.2,8.7C164.8,361.2,166.3,358.3,167.2,355.5z"/>
<path id="XMLID_60_" class="st3" d="M211.9,356.4c3.8-6.4,9.5,6.8,9.7,0.6c2.5,2.4,1.3,5.9,1.1,8.9c-2.2,0-4.4-0.1-6.5-0.3
	c-1.4-2.2-2.8-4.5-5.6-4.9C211,359.2,211.5,357.8,211.9,356.4z"/>
<path id="XMLID_59_" class="st1" d="M372.9,356.2c1.9,5.6-0.9,11.9,2.8,16.9c-2.8-1.3-3.2-4.2-3.4-7
	C371.8,362.9,371.3,359.4,372.9,356.2z"/>
<path id="XMLID_58_" class="st1" d="M210.5,360.7c2.8,0.4,4.2,2.7,5.6,4.9C212.5,365.6,207.4,365.4,210.5,360.7z"/>
<path id="XMLID_57_" class="st2" d="M340.9,361.7c6.1,1.9,4.2,15.8-2.2,14.9C335.2,372.4,338.2,365.7,340.9,361.7z"/>
<path id="XMLID_56_" class="st4" d="M151.9,363.7c4.3-0.9,8.8-0.3,12.6,1.8c-2.4,7.7-2,16.7,2.7,23.5c2.2,2.8,5.4,6.7,3.3,10.3
	c-2.1,2.8,0.7,7.8-2.7,9.5c-5.6-1.2-5-7.5-6.3-11.8c-1.8-3.4-5.2-5.7-7.6-8.6c-2.5-3.5-4-7.6-5-11.7
	C149.9,372.4,148.4,367,151.9,363.7z"/>
<path id="XMLID_53_" class="st2" d="M366.1,368.5c2.7,0.9,5,0.3,6.2-2.3c0.1,2.8,0.5,5.7,3.4,7c0.8,2.2,1.2,4.4,1.8,6.7
	c-2.4-0.3-2.8-2.6-3.5-4.4c-2.3,2.3-6.7,5.6-9.3,1.8C364.5,374.3,365.3,371.4,366.1,368.5 M367.8,371.1c-0.7,1.8-2.4,5.2,0.9,3.5
	C372.6,375,370.5,370.2,367.8,371.1z"/>
<path id="XMLID_52_" class="st1" d="M367.8,371.1c2.7-0.9,4.8,3.8,0.9,3.5C365.4,376.4,367.1,373,367.8,371.1z"/>
<path id="XMLID_48_" class="st2" d="M348.7,378.6c2.9-0.3,7.4-3.2,9.2,0.4c1.6,3.4,3.8,6.3,7.1,8.2c7,7.6-5.8,18.2,3.4,24.9
	c-7.1-1.1-5.3,7.7-1.6,10.6c1.4,3.7,9,3,7.1,7.6c-1.7,2.9,4.4,1.5,2.5,4.6c-1.9,2.1-5.7,1.8-8.4,2.6c-4.9-3.4-11.5-1.1-15.8-5.6
	c-4.4-2.7-10.4-1.4-14.3,1.7c-3.3,3-4.6,7.7-8.5,10c-5.8,1.4-11.2-1.8-16.6-3.6c-2.3-1.1-5.2-3.5-4.4-6.4c0.6-3.3,4.9-3.8,5.8-6.8
	c-7.7-4-17.3-3.8-24-10c-2.6-1.4-0.3-4.1-0.1-6.2c7.1,8.4,18.3,11.7,28.7,13.9c2,3.6,1.4,8.2,4,11.6c0.6-0.4,3.5-0.9,1.4-1.5
	c-5.5-2,1.4-6.6,3.1-9.3c-0.1-4.2-4.2-5.7-7.9-5.3c5.8-4.9,13.8-3,20.5-5.3c-2.9-4.2-7.6-4.9-11.9-2.4c1.3-4.4,6.4-5.1,9.8-7.4
	c0.3-5.5,4.5-9.4,6.1-14.4C345.6,386.6,346,382.1,348.7,378.6 M346.7,398.6c-4.4,3-3.9,9.1-4.4,13.8
	C344.9,409,351.1,401.5,346.7,398.6 M335.5,419.1c0.4,2.2,1.9,4.3,0.8,6.6c2.3,0.3,4.7,0.3,7.1-0.1
	C341.3,423.1,338.9,420,335.5,419.1z"/>
<path id="XMLID_47_" class="st1" d="M262.4,379.2c1,1,2,2.1,3,3.2c-0.5,2.4,0,4.7,2,6.3c0.3,0.4,0.9,1.1,1.2,1.4
	c1.2,5.2,5.4,8.6,8.7,12.4c-4.3-0.7-5.8-5.5-9.5-6.9c-1.7,3.2-4.5,5.2-8,6c-1.1,4.1-0.7,10.4,4.7,10.8c5.5,3,13.3-3,17.3,3.3
	c-1.8,1.3-5.2,1.5-4.8,4.5c2.3,1.7,6.4,1.6,7.7,4.4c-2.4,0.6-5.4,7.4-6.7,2.7c-2.1-5.1-5.4,1.9-9,0.5c-4.8-1.2-2.3,2.9,0.4,4
	c-2.5,2.1-6.6,2.9-7.8,6.1c3.7,0.4,7.4,0.1,11.2,0.3c0,4.2-6.9,5-2.3,9.4c-5.4-2.9-8.5-8.3-14.6-10.1l-0.3-0.3
	c1.8-1.2,5.6-1.9,4.2-4.8c-0.9-3,3.3-4.8,2.6-7.7c-1.5-2.3-5.8-0.7-6.4-3.9c-1.3-3.5,6.1-5.3,1.7-8.3c-4.7-3.8-4.9-10.3-2.4-15.4
	c2.3-2.3,6.1-3.3,6.9-6.8C263.7,386.5,259.9,382.7,262.4,379.2z"/>
<path id="XMLID_46_" class="st3" d="M265.4,382.4c2.5,1.5,4.7,3.7,2,6.3C265.4,387.1,264.8,384.8,265.4,382.4z"/>
<path id="XMLID_45_" class="st0" d="M167.3,389c4.7-0.8,5.4,5.5,7.3,8.5c1.9,2.9-2.3,3.1-4,1.8C172.7,395.7,169.5,391.8,167.3,389z"
	/>
<path id="XMLID_44_" class="st3" d="M268.5,390.1c5.5-1.2,3.9,5.4,7,7.7c4.9,4.3,9,9.6,14.7,13c-0.2,2-2.5,4.8,0.1,6.2
	c6.7,6.1,16.3,6,24,10c-1,3-5.2,3.5-5.8,6.8c-0.8,2.9,2.1,5.2,4.4,6.4c5.3,1.8,10.7,4.9,16.6,3.6c3.9-2.3,5.2-7.1,8.5-10
	c3.9-3.1,9.9-4.4,14.3-1.7c-3.5,0.5-7,1.1-10.4,2.1c-2.4,0-1.1,2.6-1.2,4.1c-3.3,2.8-6.1,6.5-10.2,8.1c-10.3-1.3-17.8,8.2-28,7.3
	c-4.3,0-8.1,2-12.1,3.1c1.9-2.4,4.2-5.1,0.4-7.1c-4.2-4.7-7.5,2.4-11.7,2.9c2.5-6,9.6-8.3,14-12.9c-2.8-2.3-3.7-7.3-8.3-6.6
	c-6,1.2-10.5-3.5-15.9-5.1c3.6,1.4,6.8-5.6,9-0.5c1.3,4.7,4.3-2.1,6.7-2.7c-1.4-2.8-5.4-2.7-7.7-4.4c-0.4-2.9,3-3.1,4.8-4.5
	c-4-6.3-11.7-0.2-17.3-3.3c-5.4-0.3-5.8-6.7-4.7-10.8c3.5-0.8,6.3-2.8,8-6c3.8,1.5,5.2,6.2,9.5,6.9
	C273.8,398.8,269.7,395.3,268.5,390.1z"/>
<path id="XMLID_43_" class="st3" d="M376.7,400.8c0.6-3.3-5.6-8.7,0.8-9.3c-0.6,4.8,2.8,10.5-1.1,14.4c7.1,5.8-2.9,13.3-9.3,9.3
	c-0.8,6,4.5,9.2,9.3,10.9c5.2,1.2,1.3,8.6,5.8,10.5c1.9,0.6,2.7,2.2,2.7,4.1c-0.7,1.2-1.5,2.4-2.4,3.5c-2.7,1-5.6,1.7-8.2,0.2
	c-1.7-1.6-3.4-3.2-5-4.9c-0.3-0.5-0.9-1.6-1.2-2.1c2.7-0.8,6.5-0.6,8.4-2.6c1.9-3.1-4.2-1.7-2.5-4.6c1.9-4.6-5.7-3.9-7.1-7.6
	c-3.7-2.9-5.5-11.6,1.6-10.6c0.8,2.4,3.2,2.4,5.3,2.2C371,409.9,369,400.5,376.7,400.8z"/>
<path id="XMLID_42_" class="st1" d="M377.5,391.5l1.5-0.2c-0.9,8.2,1.5,15.3,1.5,23.1c-2,2.4-5.6,3.1-7.3,5.7
	c-0.1,5.1,6.7,4.9,10.1,6.8c-4.7,2.3-3.5,11.3,2.4,8.1c-0.1,2-0.4,3.9-0.7,5.8c0-2-0.8-3.5-2.7-4.1c-4.5-2-0.6-9.4-5.8-10.5
	c-4.8-1.7-10.1-5-9.3-10.9c6.4,3.9,16.4-3.5,9.3-9.3C380.3,402,376.9,396.3,377.5,391.5z"/>
<path id="XMLID_41_" class="st3" d="M346.7,398.6c4.4,2.8-1.7,10.3-4.4,13.8C342.8,407.7,342.3,401.6,346.7,398.6z"/>
<path id="XMLID_40_" class="st0" d="M176.8,403.6c6.2,13.1,11.3,27.8,12.3,42.7c11.4,19.7,20.1,41.8,37.3,57.7
	c9.3,10.8,21.7,18.5,30.2,30.1c3.5,3.9,8.7,6.2,11.1,11.1c-6.8-3.5-13.5-7.7-18.1-14c-14-12.6-29.1-24.4-39.5-40.4
	c-12.6-17.8-20.6-38.1-27.9-58.4c-2-4.9-4.4-10.7-10-12.3c-2.3-1.1-5.5-0.9-7-3.4c4.5,0.1,8.4,3.4,12.9,2.9
	C179.4,414.2,176.7,408.9,176.8,403.6z"/>
<path id="XMLID_39_" class="st3" d="M218.5,408.6c6.5,5.5,10.5,14.6,19.4,16.8c2.4-0.1,3.9-2.2,5.7-3.5c-0.6,1.6-1.3,3.1-1.8,4.8
	c4.9,3,10,6,13.8,10.4l0.3,0.3c0.2,8.7-1.4,18.2,3.2,26.1c2.6-0.7,5-1.8,7.6-2.3c-1.7,2.1-4.1,3.6-6.7,4.4c-3.4,0.7-5-2-7.2-3.7
	c-1.9,2.9-1.4,6.3,0.2,9.2c-4.3,1.2-9.8,4.7-12.8-0.4c0,4.6,2.5,9.2,5.5,12.4c4-1.2-0.9-4.6-1.1-6.9c2.8-2,6.1-4.2,9.7-3.8
	c2.9,4.5,6.1,9.7,12.1,9.8c-1.9-4.3-13.1-9.7-4.4-12.9c2.1,4.6,6.4,7.7,8.7,12.2c0.4,4.8-7.8,2.8-7.7,7.5c0.9,4.2,2,8.4,2.9,12.7
	c2.7,4.8,6.8,8.8,8.7,14c1.1,3.8,0.4,8.8,4.4,11.2c4.9,3.4,6.1,9.8,10.3,13.8c4.7,4.6,8.8,11.8,16.4,11.4c3.3,1.7,7.2,6.9,1.8,8.9
	c9.7,5.3,20.7,8.3,30.6,13.4c-9.8,4.1-19.3-3.9-28-7.6c-0.3-0.3-0.8-0.8-1.1-1.1c-3.4-3.5-6.6-9.4-12-5.5c-2.1-1-4.2-2.1-6.3-3
	c-2.7-1.5-4.8-3.6-6.7-6.1c-1.6-2.1-4.5-3.7-3.7-6.7c1.9-0.1,7.3,4.4,6.3,1.3c-4.5-2.1-8.6-5.1-12.9-7.6c-5.2,5.7-12.5-1.3-14.5-6.7
	c-4.6-12.1-16.2-18.9-23.4-29c-10-11.3-17.5-26.4-16.7-41.8c0.3-5.6,9,2.1,8.8-4.3c-1.2-11.2-7-21.5-9.5-32.5c0.8-1,3.9-1.9,1.6-3.1
	C215.3,418,216.9,412.6,218.5,408.6z"/>
<path id="XMLID_38_" class="st3" d="M328.1,412.3c4.3-2.5,9-1.8,11.9,2.4c-6.7,2.2-14.7,0.3-20.5,5.3c-2.3,1.5-5,1.6-7.7,1.3
	C316.4,417.1,324,417.4,328.1,412.3z"/>
<path id="XMLID_37_" class="st3" d="M335.5,419.1c3.4,0.9,5.8,3.9,7.9,6.6c-2.4,0.4-4.8,0.4-7.1,0.1
	C337.4,423.4,335.9,421.4,335.5,419.1z"/>
<path id="XMLID_34_" class="st2" d="M269.3,431.7c-2.7-1.1-5.2-5.2-0.4-4c5.4,1.6,10,6.3,15.9,5.1c4.5-0.7,5.5,4.3,8.3,6.6
	c-4.4,4.5-11.6,6.8-14,12.9c4.1-0.5,7.5-7.6,11.7-2.9c3.8,2,1.6,4.7-0.4,7.1c0.3,0.3,0.7,0.9,1,1.2c-6,6.4,10,6,8.2,12.2
	c-4.2-2.2-9.4-3.1-12,1.9c1.8,5.1,7.3,8.7,12.9,9.2c4.1,0.1,4.5,5.2,7.8,6.6c6.8,0.9,13.2-2.2,19.5-4.2c11-4.5,22.2,1.8,33.2,2.9
	c5.2,1.4,10.3-1.8,15.5-0.4c-0.1,0.6-0.2,1.8-0.3,2.4c-0.3,0.3-0.9,0.8-1.2,1c-19.5,3.1-39-2.4-58.4,0.3c-0.2,0.5-0.6,1.5-0.8,2
	c-2.2,0.8-11.3,2.7-6.8,5.2c14.7-0.9,28.1,6.1,40.3,13.4c4.4,3,11.1-0.5,14.3,4.5c2.7,4.3,8.4,0.9,11.9,3.8c-0.3,0.6-1,1.8-1.3,2.4
	c-9.2-0.3-18.2-2.2-26.7-5.7c-2.2-0.9-8.6,1.9-5.1,4.2c8.7,4.6,18.7,5.6,28.4,5c-0.4,1.5-1.2,3.3,0.7,4.2c0.3,2,0.5,4,1.1,5.9
	c0.2,0.7,0.5,2.1,0.7,2.7c-3.6-3.7-3.9,0.9-4.9,3.7c0-2.1,0-4.2-0.1-6.3c-1.7,0.3-5.5,0.7-5.2-1.8c1.5-3.4-2.7-7.4-5.9-5.9
	c-5,2-9.3-3.5-14.3-2.2c-2.5,0.7-5.5,0.2-7.1-2.1c-1.5-1.7-3.6-6.1-5.1-2.1c1,1.4,4.3,1.9,3.1,4.4c-3.7,2.4-8.2-0.1-12.3,0.1
	c-2.2-1.7-4.4-3.7-7.4-3.1c0.4,6.9,12.1,5.3,11.3,13.3c-3.4-0.3-6.7-1.6-10.2-1.1c1.2,5.5,7,9.8,4.9,15.9c3.1,4.5,8.8,8.1,10.8,13.6
	c-3.4,0.7-11.3-6.1-10,1.2c6.9-1.1,17.8,8.6,20.7-1.7c7.3-2.2,9.4,12.7,17.8,7.4l1.1,0.4c1.3,1,2.7,2.1,4,3.2
	c-0.3,0.2-1,0.7-1.3,0.9c-3.1,0-6.3,0-9.1-1.4c-4.4-2.6-8.7,1.8-13.2,2c-0.8-0.5-1.6-1-2.4-1.5c-9.9-5.1-20.9-8.1-30.6-13.4
	c5.4-1.9,1.5-7.1-1.8-8.9c-7.6,0.4-11.7-6.8-16.4-11.4c-4.2-4.1-5.4-10.4-10.3-13.8c-3.9-2.4-3.3-7.4-4.4-11.2
	c-1.9-5.2-6-9.2-8.7-14c-0.9-4.3-2-8.5-2.9-12.7c-0.1-4.7,8.2-2.7,7.7-7.5c-2.3-4.5-6.6-7.6-8.7-12.2c7.3-3.5,15.3-5.4,22.1-9.7
	c-9.9,2.6-19.2,7.3-29.2,9.1c0.4-2.4,3.4-2.2,5.1-3.2c2.6-0.8,5-2.3,6.7-4.4c-2.6,0.5-5.1,1.6-7.6,2.3c-4.6-7.9-3-17.4-3.2-26.1
	c6.2,1.7,9.3,7.1,14.6,10.1c-4.6-4.4,2.3-5.2,2.3-9.4c-3.7-0.2-7.5,0.1-11.2-0.3C262.7,434.6,266.8,433.8,269.3,431.7 M309.1,546.1
	c-1.5,4,4.2,5.9,3.9,9.6c-0.7,3.2,3.2,4.5,5.6,5.4c0.8-2.3,2-4.3,3.5-6.2C315.1,558.5,314.3,548.2,309.1,546.1z"/>
<path id="XMLID_33_" class="st1" d="M341.9,434c3.4-1,6.9-1.6,10.4-2.1c4.2,4.5,10.9,2.2,15.8,5.6c0.3,0.5,0.9,1.6,1.2,2.1l0.2,1.4
	c-0.6-0.4-1.9-1.3-2.5-1.7c-0.2-0.1-0.5-0.4-0.7-0.5c-3.4-2.7-8.1-1.8-12.1-2.2c-4.8-1.8-5,5.5-9.8,4.8l-0.4-1.3
	C349.4,439.9,344,435.2,341.9,434z"/>
<path id="XMLID_32_" class="st0" d="M340.7,438.1c0.1-1.5-1.2-4.1,1.2-4.1c2.1,1.2,7.5,5.9,2.1,6
	C342.8,439.4,341.8,438.7,340.7,438.1z"/>
<path id="XMLID_31_" class="st3" d="M344.3,441.3c4.8,0.7,5-6.6,9.8-4.8C354.5,441.7,347.4,444.3,344.3,441.3z"/>
<path id="XMLID_28_" class="st4" d="M354.2,436.5c4,0.5,8.7-0.5,12.1,2.2c1.1,6-7.6,4.4-7.2,9.8c1.2,2.2,3.4,0.8,5.3,0.6
	c0,2.4,0.5,5.9,3.3,3.1c2.9,0.4,6.3,0.5,8.2,3c0.6,7.1,3.4,14.2,1.9,21.4c-1.1,2.9-0.9,6.1-1.4,9.2c-5.2-1.3-10.3,1.8-15.5,0.4
	c-11-1.1-22.2-7.4-33.2-2.9c-6.3,1.9-12.7,5.1-19.5,4.2c-3.3-1.3-3.7-6.5-7.8-6.6c-5.6-0.6-11.1-4.1-12.9-9.2c2.6-5,7.8-4.1,12-1.9
	c1.7-6.1-14.2-5.7-8.2-12.2c4.8-2.5,10.2-2.5,15.5-2.7c8.1-2.2,16.2-4.8,23.6-8.9c4.2-1.6,6.9-5.3,10.2-8.1c1.1,0.6,2.2,1.3,3.2,1.9
	l0.4,1.3C347.4,444.3,354.5,441.7,354.2,436.5 M370.5,456c-4.6,2.5,3.9,6.3,3.6,2.5C374.9,455.6,372.6,455.7,370.5,456z"/>
<path id="XMLID_27_" class="st2" d="M366.3,438.7c0.2,0.1,0.5,0.4,0.7,0.5c2,4.4-0.9,9.2,0.7,13.1c-2.7,2.7-3.3-0.8-3.3-3.1
	c-1.9,0.2-4.1,1.6-5.3-0.6C358.6,443.1,367.4,444.8,366.3,438.7z"/>
<path id="XMLID_26_" class="st3" d="M367,439.2c0.6,0.4,1.9,1.3,2.5,1.7c0.3,1.5,0.5,3.1,0.8,4.6c0.6,3.3,4.3,2.9,6.8,3.6
	c-1.9,1.6-1.4,4-1.3,6.1c-2-2.5-5.3-2.7-8.2-3C366,448.4,369,443.6,367,439.2z"/>
<path id="XMLID_25_" class="st0" d="M369.3,439.6c1.6,1.7,3.3,3.3,5,4.9c-0.1,2.7-2.4,2.1-4,1c-0.4-1.5-0.6-3-0.8-4.6L369.3,439.6z"
	/>
<path id="XMLID_24_" class="st1" d="M374.3,444.5c2.6,1.5,5.6,0.8,8.2-0.2c-1.6,1.8-3.5,3.4-5.4,4.9c-2.5-0.7-6.2-0.4-6.8-3.6
	C371.9,446.6,374.2,447.3,374.3,444.5z"/>
<path id="XMLID_23_" class="st1" d="M302.5,453.4c10.2,0.9,17.6-8.5,28-7.3c-7.4,4.1-15.5,6.6-23.6,8.9c-5.3,0.2-10.6,0.2-15.5,2.7
	c-0.3-0.3-0.7-0.9-1-1.2C294.4,455.4,298.2,453.4,302.5,453.4z"/>
<path id="XMLID_22_" class="st2" d="M370.5,456c2.1-0.4,4.5-0.4,3.6,2.5C374.4,462.3,365.9,458.5,370.5,456z"/>
<path id="XMLID_21_" class="st1" d="M254.8,468.8c10-1.8,19.3-6.5,29.2-9.1c-6.8,4.3-14.9,6.2-22.1,9.7c-8.7,3.2,2.5,8.6,4.4,12.9
	c-6-0.1-9.2-5.3-12.1-9.8c-3.6-0.4-6.9,1.8-9.7,3.8c0.2,2.3,5.1,5.7,1.1,6.9c-3-3.2-5.4-7.8-5.5-12.4c3,5,8.5,1.6,12.8,0.4
	c-1.6-2.9-2.1-6.3-0.2-9.2c2.2,1.7,3.8,4.4,7.2,3.7C258.2,466.6,255.2,466.4,254.8,468.8z"/>
<path id="XMLID_20_" class="st1" d="M376.4,485.9c0.5-3.1,0.3-6.2,1.4-9.2c0.8,4,2.8,9-1.7,11.6
	C376.1,487.7,376.3,486.5,376.4,485.9z"/>
<path id="XMLID_19_" class="st3" d="M316.5,489.6c19.5-2.8,39,2.8,58.4-0.3c-0.8,0.7-1.6,1.3-2.4,1.9c-2.4,0.2-4.8,0.4-7.2,0.7
	c-11.1-0.4-22.2,0-33.3-0.6l-0.8-0.1c-3.5-0.7-7.4-1.8-10.8,0c-1.6,0.2-3.2,0.3-4.8,0.5C315.9,491.2,316.3,490.1,316.5,489.6z"/>
<path id="XMLID_18_" class="st1" d="M320.4,491.2c3.4-1.8,7.2-0.7,10.8,0c-2.3-0.1-4.8-0.3-6.7,1.1
	C323.1,492,321.8,491.6,320.4,491.2z"/>
<path id="XMLID_17_" class="st4" d="M308.8,496.8c-4.5-2.5,4.7-4.4,6.8-5.2c1.6-0.2,3.2-0.3,4.8-0.5c1.3,0.4,2.7,0.8,4,1.1
	c9.9,3,19.8,5.6,30,7.2c5.1,4.8,13.1,2.5,19.4,2.8c2.6,5,2.5,10.9,1.4,16.3c-3.5-2.9-9.2,0.5-11.9-3.8c-3.2-5.1-9.8-1.6-14.3-4.5
	C336.9,503,323.5,495.9,308.8,496.8z"/>
<path id="XMLID_16_" class="st1" d="M332,491.3c11.1,0.6,22.2,0.3,33.3,0.6C354.3,493.7,343,492.8,332,491.3z"/>
<path id="XMLID_15_" class="st3" d="M354.5,499.5c6.4,0.8,12.9,0.7,19.3,1.8l0.1,1C367.6,502,359.6,504.3,354.5,499.5z"/>
<path id="XMLID_14_" class="st3" d="M342.2,519.6c-3.5-2.4,2.9-5.1,5.1-4.2c8.5,3.5,17.5,5.4,26.7,5.7c-1.1,1.2-2.2,2.4-3.4,3.6
	C360.9,525.2,350.9,524.2,342.2,519.6z"/>
<path id="XMLID_13_" class="st4" d="M330.4,520.8c1.5-4,3.7,0.3,5.1,2.1c1.6,2.2,4.6,2.7,7.1,2.1c5-1.3,9.3,4.1,14.3,2.2
	c3.3-1.5,7.5,2.5,5.9,5.9c-0.3,2.5,3.5,2.1,5.2,1.8c0.1,2.1,0.1,4.2,0.1,6.3c-2,4.6,4.1,3.2,4.5,6.7c-1.9,1.8-6,3.1-4.9,6.4
	c1.4,3.8,3.3,7.8,0.6,11.6c-1.8,4.7-7.5,0.9-9.4,5.1c-8.4,5.2-10.5-9.7-17.8-7.4c-2.9,10.3-13.8,0.5-20.7,1.7
	c-1.3-7.4,6.6-0.5,10-1.2c-2.1-5.5-7.7-9.1-10.8-13.6c2.2-6.1-3.7-10.4-4.9-15.9c3.5-0.5,6.8,0.8,10.2,1.1c0.9-8-10.9-6.3-11.3-13.3
	c3-0.6,5.2,1.4,7.4,3.1c4.1-0.2,8.6,2.3,12.3-0.1C334.7,522.7,331.3,522.2,330.4,520.8z"/>
<path id="XMLID_12_" class="st1" d="M371.3,528.7c3,1.2,4.1,3.9,1.1,5.9C371.8,532.7,371.5,530.7,371.3,528.7z"/>
<path id="XMLID_11_" class="st1" d="M368.2,541.1c1-2.8,1.3-7.4,4.9-3.7c0.4,2.3-3.9,2.9-3.7,6.2c2.5-0.2,6,1.8,3.3,4.2
	C372.3,544.3,366.1,545.7,368.2,541.1z"/>
<path id="XMLID_10_" class="st0" d="M268.5,545.6c5.9-0.4,9.1,6.8,15.4,5.6c1.8,2.4,4,4.6,6.7,6.1c0.1,0.7,0.3,2.2,0.4,2.9
	C283.4,555.5,275.6,550.8,268.5,545.6z"/>
<path id="XMLID_9_" class="st3" d="M309.1,546.1c5.2,2.1,6,12.3,13,8.9c-1.5,1.9-2.7,3.9-3.5,6.2c-2.4-0.9-6.3-2.2-5.6-5.4
	C313.3,552,307.6,550.1,309.1,546.1z"/>
<path id="XMLID_8_" class="st1" d="M290.6,557.3c2.1,1,4.2,2,6.3,3c-1.2,0.3-2.3,0.7-3.5,1.1c-1.1,0-1.9-0.4-2.5-1.2
	C290.9,559.5,290.7,558,290.6,557.3z"/>
<path id="XMLID_7_" class="st1" d="M296.9,560.3c5.3-3.9,8.6,1.9,12,5.5c-1.5,0.4-2.9,0.8-4.4,1.2c-0.4-0.3-1.3-0.9-1.7-1.1
	C300.9,563.9,299.1,562,296.9,560.3z"/>
<path id="XMLID_6_" class="st0" d="M293.4,561.4c1.2-0.4,2.3-0.7,3.5-1.1c2.1,1.6,4,3.6,5.9,5.5
	C299.3,565.2,296.4,563.2,293.4,561.4z"/>
<path id="XMLID_5_" class="st0" d="M304.5,567c1.4-0.4,2.9-0.8,4.4-1.2c0.3,0.3,0.8,0.8,1.1,1.1c2.1,2.2,4.6,3.8,7,5.5
	C312.5,571.6,308.2,569.5,304.5,567z"/>
<path id="XMLID_4_" class="st1" d="M359,570.9c1.9-4.3,7.6-0.4,9.4-5.1c-0.2,1.7-0.2,3.4-0.4,5.1c-2.7-0.6-5.6-1.8-7.9,0.4
	L359,570.9z"/>
<path id="XMLID_3_" class="st1" d="M310,566.9c8.7,3.7,18.2,11.8,28,7.6c0.8,0.5,1.6,1,2.4,1.5c1.3,1.2,3.2,1.2,4.9,0.9
	c5.1-1.4,10.3,1,15.5,0.3c-14.6,2.1-30.2,1.6-43.7-4.7C314.6,570.6,312,569,310,566.9z"/>
<path id="XMLID_2_" class="st3" d="M340.3,576c4.5-0.2,8.8-4.6,13.2-2c2.8,1.5,6,1.5,9.1,1.4c-0.5,0.4-1.5,1.3-2,1.7
	c-5.2,0.8-10.3-1.7-15.5-0.3C343.5,577.2,341.7,577.2,340.3,576z"/>
</svg>
