<?xml version="1.0" encoding="utf-8"?>
<!-- Generator: Adobe Illustrator 19.0.0, SVG Export Plug-In . SVG Version: 6.00 Build 0)  -->
<svg version="1.1" xmlns="http://www.w3.org/2000/svg" xmlns:xlink="http://www.w3.org/1999/xlink" x="0px" y="0px" width="400px"
	 height="400px" viewBox="0 0 400 400" style="enable-background:new 0 0 400 400;" xml:space="preserve">
<style type="text/css">
	.st0{fill:#6B1E2D;}
	.st1{fill:#C49A6C;stroke:#231F20;stroke-width:7.0866;stroke-miterlimit:10;}
	.st2{fill:#6B1E2D;stroke:#231F20;stroke-width:8.5039;stroke-miterlimit:10;}
</style>
<g id="Layer_2">
	<g id="XMLID_2_">
		<polygon id="XMLID_34_" class="st0" points="33.3,44.1 93.8,31 45.5,69.7 		"/>
	</g>
	<g id="XMLID_7_">
		<polygon id="XMLID_32_" class="st0" points="129.5,14.8 190.2,56.2 118.3,40.8 		"/>
	</g>
	<g id="XMLID_8_">
		<polygon id="XMLID_30_" class="st0" points="225.6,53 285.9,92.1 215.2,79.3 		"/>
	</g>
	<g id="XMLID_9_">
		<polygon id="XMLID_23_" class="st0" points="311.6,79.2 364.7,70.8 323.3,105.1 		"/>
	</g>
</g>
<g id="Layer_1">
	<circle id="XMLID_11_" class="st1" cx="24.7" cy="63" r="15.9"/>
	<circle id="XMLID_6_" class="st1" cx="108.3" cy="24.6" r="15.9"/>
	<circle id="XMLID_5_" class="st1" cx="378.9" cy="63.7" r="15.9"/>
	<circle id="XMLID_4_" class="st1" cx="301.7" cy="94" r="15.9"/>
	<circle id="XMLID_3_" class="st1" cx="205.4" cy="60.8" r="15.9"/>
</g>
<g id="Layer_3">
	<g id="XMLID_12_">
		<path id="XMLID_13_" class="st2" d="M102.1,240c0,10.5-1.2,19.6-3.7,27.2c-2.5,7.6-5.8,13.9-10.1,18.8c-4.3,4.9-9.3,8.5-15.1,10.9
			c-5.8,2.4-11.9,3.5-18.5,3.5c-15.2,0-26.7-5.1-34.4-15.2c-7.7-10.1-11.5-24.9-11.5-44.2c0-10.5,1.2-19.6,3.7-27.2
			c2.5-7.6,5.8-13.9,10.1-18.8c4.3-4.9,9.3-8.5,15.1-10.9c5.8-2.4,11.9-3.5,18.5-3.5c15.2,0,26.7,5.1,34.4,15.2
			C98.3,205.9,102.1,220.6,102.1,240z M79,241.1c0-13.7-1.8-23.9-5.5-30.7c-3.7-6.7-9.7-10.1-18.1-10.1c-4.2,0-7.8,0.9-10.7,2.6
			c-3,1.7-5.4,4.3-7.3,7.7c-1.9,3.4-3.3,7.5-4.2,12.5c-0.9,4.9-1.3,10.6-1.3,17c0,13.7,1.8,23.9,5.5,30.7c3.7,6.7,9.7,10.1,18,10.1
			c4.2,0,7.8-0.9,10.8-2.6c3-1.7,5.4-4.3,7.3-7.7c1.9-3.4,3.3-7.5,4.2-12.5C78.6,253.1,79,247.4,79,241.1z"/>
		<path id="XMLID_16_" class="st2" d="M175.7,243.4c0.1-3.4,0-6.2-0.5-8.6c-0.4-2.4-1.2-4.3-2.1-5.9c-1-1.5-2.2-2.7-3.6-3.4
			c-1.4-0.7-3-1.1-4.9-1.1c-3.2,0-6.5,1.3-9.9,3.9c-3.4,2.6-7.1,7-11.2,13v57h-22.2v-90.1h19.6l0.8,13.1c1.5-2.3,3.1-4.4,5-6.2
			c1.9-1.8,3.9-3.4,6.2-4.7c2.3-1.3,4.8-2.3,7.6-3.1c2.8-0.7,5.8-1.1,9.1-1.1c4.5,0,8.6,0.8,12.1,2.3c3.5,1.6,6.5,3.9,8.9,7
			c2.4,3.1,4.2,6.9,5.3,11.6c1.2,4.6,1.6,10,1.5,16.1H175.7z"/>
		<path id="XMLID_26_" class="st2" d="M271.2,298.4v-58.7c0-9.9-3.7-14.8-11-14.8c-3.7,0-7.2,1.5-10.5,4.4c-3.3,3-6.9,7-10.6,12.1
			v57h-21.6v-90.1h18.7l0.5,13.3c1.8-2.3,3.7-4.4,5.7-6.3c2-1.9,4.1-3.5,6.4-4.8c2.3-1.3,4.8-2.3,7.4-3.1c2.7-0.7,5.6-1.1,9-1.1
			c4.6,0,8.6,0.8,12.1,2.3c3.4,1.5,6.3,3.6,8.6,6.4s4,6.1,5.2,9.9c1.2,3.9,1.7,8.2,1.7,13v60.5H271.2z"/>
		<path id="XMLID_28_" class="st2" d="M391.6,297.5c-3.9,0.9-7.8,1.6-11.8,2.1c-4,0.5-7.7,0.8-11.3,0.8c-5.9,0-11-0.6-15.3-1.9
			c-4.3-1.2-7.8-3.1-10.6-5.7c-2.8-2.5-4.9-5.8-6.2-9.7c-1.3-3.9-2-8.6-2-14v-44h-24.2v-16.8h24.2v-23l22.2-5.8v28.8h35v16.8h-35
			v42.4c0,5.1,1.2,9,3.5,11.7c2.4,2.6,6.3,3.9,11.9,3.9c3.5,0,7-0.3,10.4-0.9c3.4-0.6,6.4-1.3,9.2-2V297.5z"/>
	</g>
</g>
</svg>
