<?xml version="1.0" encoding="UTF-8" ?>
<!DOCTYPE svg PUBLIC "-//W3C//DTD SVG 1.1//EN" "http://www.w3.org/Graphics/SVG/1.1/DTD/svg11.dtd">
<svg width="540pt" height="540pt" viewBox="0 0 540 540" version="1.1" xmlns="http://www.w3.org/2000/svg">
<path fill="#46b694" stroke="#46b694" stroke-width="0.09375" opacity="1.00" d=" M 278.01 43.89 C 299.38 33.62 323.83 42.02 341.51 55.73 C 337.77 62.30 344.78 66.77 349.93 69.07 C 356.68 76.39 367.25 86.46 361.40 97.19 C 356.67 94.43 351.32 92.96 346.61 90.16 C 351.47 91.10 356.23 92.66 361.23 92.72 C 360.38 89.21 357.03 87.56 354.10 86.05 C 350.56 84.21 347.05 82.32 343.41 80.71 C 346.54 80.78 349.59 81.48 352.61 82.28 C 346.88 78.96 341.62 74.62 335.22 72.65 C 332.31 71.62 329.32 70.77 326.24 70.55 C 323.91 70.31 321.58 69.95 319.27 69.54 C 327.66 66.96 336.28 72.58 344.75 73.46 C 331.57 64.17 314.93 64.99 299.97 60.23 C 301.42 60.27 302.87 60.31 304.33 60.33 C 302.67 58.60 300.96 56.92 299.16 55.34 C 302.24 55.30 305.32 55.00 308.37 54.44 C 303.42 50.99 297.37 52.08 291.74 52.24 C 283.27 51.97 275.81 56.63 267.73 58.37 C 270.07 57.37 272.33 56.19 274.61 55.06 C 280.83 53.32 286.98 51.31 293.29 49.93 C 295.21 49.73 297.13 49.53 299.06 49.31 C 297.72 48.59 296.39 47.88 295.06 47.17 C 295.77 46.45 296.47 45.73 297.19 45.02 C 296.46 45.05 295.00 45.13 294.27 45.17 C 287.28 44.87 280.88 47.99 274.08 49.01 C 275.81 47.65 277.45 46.10 278.01 43.89 Z" />
<path fill="#e8efea" stroke="#e8efea" stroke-width="0.09375" opacity="1.00" d=" M 267.36 54.98 C 268.85 50.06 272.25 44.11 278.01 43.89 C 277.45 46.10 275.81 47.65 274.08 49.01 C 280.88 47.99 287.28 44.87 294.27 45.17 C 290.15 46.63 286.12 48.32 282.12 50.07 C 285.84 49.99 289.57 50.00 293.29 49.93 C 286.98 51.31 280.83 53.32 274.61 55.06 C 272.20 54.73 269.77 54.65 267.36 54.98 Z" />
<path fill="#c0d7cd" stroke="#c0d7cd" stroke-width="0.09375" opacity="1.00" d=" M 294.27 45.17 C 295.00 45.13 296.46 45.05 297.19 45.02 C 296.47 45.73 295.77 46.45 295.06 47.17 C 296.39 47.88 297.72 48.59 299.06 49.31 C 297.13 49.53 295.21 49.73 293.29 49.93 C 289.57 50.00 285.84 49.99 282.12 50.07 C 286.12 48.32 290.15 46.63 294.27 45.17 Z" />
<path fill="#e8efea" stroke="#e8efea" stroke-width="0.09375" opacity="1.00" d=" M 267.73 58.37 C 275.81 56.63 283.27 51.97 291.74 52.24 C 294.31 52.59 296.85 53.16 299.39 53.71 C 294.63 54.64 289.84 55.41 285.21 56.87 C 289.90 57.19 294.60 57.21 299.30 57.25 C 293.24 58.63 287.07 59.99 281.59 63.05 C 286.78 61.90 291.93 60.33 297.29 60.19 C 294.75 61.13 292.17 61.95 289.59 62.74 C 297.60 66.40 306.29 62.26 314.23 65.37 C 307.76 66.29 300.40 65.63 295.06 70.10 C 301.22 69.45 307.33 67.53 313.57 68.66 C 303.24 73.26 289.44 68.23 281.62 78.08 C 297.06 72.22 313.52 71.76 329.75 73.90 C 326.07 72.01 321.92 71.65 317.86 71.40 C 320.65 71.09 323.44 70.74 326.24 70.55 C 329.32 70.77 332.31 71.62 335.22 72.65 C 335.85 76.93 338.74 80.80 343.41 80.71 C 347.05 82.32 350.56 84.21 354.10 86.05 C 344.27 92.87 333.71 81.76 323.24 85.39 C 330.83 87.03 338.46 88.51 345.97 90.52 C 343.69 91.13 341.42 91.76 339.16 92.42 C 343.66 95.00 348.67 96.59 353.80 97.34 C 356.09 98.37 358.32 99.56 360.46 100.89 C 349.24 98.66 338.45 93.57 326.74 94.20 C 337.91 95.89 348.57 99.51 359.25 103.01 C 353.59 102.79 348.29 100.71 342.84 99.42 C 330.99 95.56 318.47 97.35 306.40 98.86 C 299.37 98.01 292.27 96.31 285.19 96.99 C 287.71 93.89 291.82 92.15 295.78 92.20 C 300.72 92.21 305.52 90.94 310.36 90.14 C 309.68 90.16 308.34 90.20 307.66 90.23 C 309.20 88.99 311.12 88.53 313.03 88.25 C 301.95 87.16 291.45 90.56 281.45 94.93 C 281.49 93.38 281.53 91.83 281.58 90.28 C 280.90 90.09 279.55 89.69 278.88 89.50 C 283.12 85.82 288.64 84.23 293.18 81.01 C 288.55 81.61 284.22 83.48 279.61 84.18 C 281.46 82.45 283.38 80.80 285.27 79.11 C 281.39 78.95 278.00 80.90 274.55 82.32 C 275.84 80.22 277.68 78.58 279.84 77.40 C 277.70 77.26 275.57 76.96 273.47 76.57 C 275.72 74.48 277.84 72.26 279.83 69.92 C 276.23 70.78 272.59 71.81 268.85 71.38 C 268.85 70.55 268.84 68.89 268.83 68.06 L 269.44 68.16 C 275.76 70.08 281.83 66.88 287.30 64.05 C 282.65 64.92 277.95 65.47 273.27 66.10 C 272.46 64.16 271.65 62.21 270.84 60.27 C 268.39 61.49 262.93 59.86 267.73 58.37 M 313.40 77.49 C 317.42 78.47 321.56 78.88 325.70 78.86 C 322.56 75.82 317.27 75.97 313.40 77.49 M 319.98 88.85 C 322.58 89.14 325.21 89.28 327.83 89.32 C 327.52 89.78 326.90 90.70 326.59 91.16 C 329.09 91.12 331.56 90.67 333.79 89.50 C 329.36 88.54 324.24 86.20 319.98 88.85 M 334.44 91.09 C 335.46 94.91 337.93 88.90 334.44 91.09 M 307.86 91.76 C 307.81 92.38 307.71 93.61 307.66 94.23 C 312.66 94.27 317.68 94.44 322.65 93.77 C 318.12 91.28 312.81 92.07 307.86 91.76 Z" />
<path fill="#c0d7cd" stroke="#c0d7cd" stroke-width="0.09375" opacity="1.00" d=" M 291.74 52.24 C 297.37 52.08 303.42 50.99 308.37 54.44 C 305.32 55.00 302.24 55.30 299.16 55.34 C 300.96 56.92 302.67 58.60 304.33 60.33 C 302.87 60.31 301.42 60.27 299.97 60.23 C 314.93 64.99 331.57 64.17 344.75 73.46 C 336.28 72.58 327.66 66.96 319.27 69.54 C 321.58 69.95 323.91 70.31 326.24 70.55 C 323.44 70.74 320.65 71.09 317.86 71.40 C 321.92 71.65 326.07 72.01 329.75 73.90 C 313.52 71.76 297.06 72.22 281.62 78.08 C 289.44 68.23 303.24 73.26 313.57 68.66 C 307.33 67.53 301.22 69.45 295.06 70.10 C 300.40 65.63 307.76 66.29 314.23 65.37 C 306.29 62.26 297.60 66.40 289.59 62.74 C 292.17 61.95 294.75 61.13 297.29 60.19 C 291.93 60.33 286.78 61.90 281.59 63.05 C 287.07 59.99 293.24 58.63 299.30 57.25 C 294.60 57.21 289.90 57.19 285.21 56.87 C 289.84 55.41 294.63 54.64 299.39 53.71 C 296.85 53.16 294.31 52.59 291.74 52.24 Z" />
<path fill="#03a278" stroke="#03a278" stroke-width="0.09375" opacity="1.00" d=" M 341.51 55.73 C 360.20 61.27 374.37 75.84 387.22 89.79 C 396.26 98.36 398.42 111.63 407.61 120.06 C 408.04 122.12 408.34 124.20 408.87 126.24 C 409.52 127.36 410.30 128.41 411.01 129.50 C 413.49 134.84 419.80 140.80 416.49 146.91 C 417.63 148.29 418.77 149.67 419.92 151.05 C 419.12 151.69 418.32 152.33 417.52 152.98 C 419.71 155.85 421.78 158.81 423.85 161.77 C 422.56 161.77 421.28 161.77 420.01 161.77 C 421.36 163.76 422.81 165.67 424.36 167.52 C 424.33 165.63 424.29 163.74 424.29 161.86 C 425.93 164.06 427.44 166.39 428.60 168.89 C 428.57 169.61 428.52 171.04 428.50 171.75 C 426.77 171.31 425.06 170.85 423.34 170.41 C 425.59 172.19 427.85 173.96 430.04 175.83 C 428.65 175.73 427.26 175.64 425.88 175.55 C 426.86 178.24 427.81 180.94 428.85 183.61 C 428.68 184.51 428.32 186.30 428.14 187.20 C 427.18 185.99 426.25 184.79 425.29 183.60 C 424.23 182.32 423.09 181.10 421.89 179.96 C 421.18 179.28 420.44 178.64 419.68 178.03 C 421.42 177.16 423.15 176.27 424.89 175.39 C 421.18 170.90 418.53 165.68 417.89 159.84 C 414.33 154.21 407.46 151.37 404.37 145.22 C 402.06 147.88 398.75 148.58 395.36 148.28 C 392.03 138.13 388.80 127.40 385.30 116.85 C 378.35 123.10 385.49 131.78 386.38 139.06 C 383.09 137.33 379.84 135.54 376.51 133.91 C 376.65 134.46 376.92 135.57 377.06 136.13 C 374.03 134.16 370.17 133.02 368.27 129.72 C 369.03 129.53 370.57 129.16 371.33 128.98 C 371.47 126.88 371.69 124.79 372.07 122.72 C 373.26 123.00 374.46 123.29 375.66 123.58 C 376.69 119.65 376.86 113.98 371.07 115.50 C 370.68 111.47 368.89 107.83 365.99 105.01 C 366.91 103.99 367.83 102.97 368.75 101.95 C 368.03 101.45 367.32 100.95 366.60 100.46 C 364.91 99.30 363.18 98.20 361.40 97.19 C 367.25 86.46 356.68 76.39 349.93 69.07 C 344.78 66.77 337.77 62.30 341.51 55.73 M 365.09 93.18 C 362.12 96.61 369.80 94.34 365.09 93.18 Z" />
<path fill="#c0d7cd" stroke="#c0d7cd" stroke-width="0.09375" opacity="1.00" d=" M 273.27 66.10 C 277.95 65.47 282.65 64.92 287.30 64.05 C 281.83 66.88 275.76 70.08 269.44 68.16 C 270.68 67.43 271.82 66.39 273.27 66.10 Z" />
<path fill="#c0d7cd" stroke="#c0d7cd" stroke-width="0.09375" opacity="1.00" d=" M 335.22 72.65 C 341.62 74.62 346.88 78.96 352.61 82.28 C 349.59 81.48 346.54 80.78 343.41 80.71 C 338.74 80.80 335.85 76.93 335.22 72.65 Z" />
<path fill="#c0d7cd" stroke="#c0d7cd" stroke-width="0.09375" opacity="1.00" d=" M 313.40 77.49 C 317.27 75.97 322.56 75.82 325.70 78.86 C 321.56 78.88 317.42 78.47 313.40 77.49 Z" />
<path fill="#c0d7cd" stroke="#c0d7cd" stroke-width="0.09375" opacity="1.00" d=" M 323.24 85.39 C 333.71 81.76 344.27 92.87 354.10 86.05 C 357.03 87.56 360.38 89.21 361.23 92.72 C 356.23 92.66 351.47 91.10 346.61 90.16 C 351.32 92.96 356.67 94.43 361.40 97.19 C 363.18 98.20 364.91 99.30 366.60 100.46 C 361.91 101.33 358.48 96.92 353.80 97.34 C 348.67 96.59 343.66 95.00 339.16 92.42 C 341.42 91.76 343.69 91.13 345.97 90.52 C 338.46 88.51 330.83 87.03 323.24 85.39 Z" />
<path fill="#c0d7cd" stroke="#c0d7cd" stroke-width="0.09375" opacity="1.00" d=" M 319.98 88.85 C 324.24 86.20 329.36 88.54 333.79 89.50 C 331.56 90.67 329.09 91.12 326.59 91.16 C 326.90 90.70 327.52 89.78 327.83 89.32 C 325.21 89.28 322.58 89.14 319.98 88.85 Z" />
<path fill="#046949" stroke="#046949" stroke-width="0.09375" opacity="1.00" d=" M 295.78 92.20 C 299.77 91.71 303.65 90.53 307.66 90.23 C 308.34 90.20 309.68 90.16 310.36 90.14 C 305.52 90.94 300.72 92.21 295.78 92.20 Z" />
<path fill="#968879" stroke="#968879" stroke-width="0.09375" opacity="1.00" d=" M 334.44 91.09 C 337.93 88.90 335.46 94.91 334.44 91.09 Z" />
<path fill="#c0d7cd" stroke="#c0d7cd" stroke-width="0.09375" opacity="1.00" d=" M 307.86 91.76 C 312.81 92.07 318.12 91.28 322.65 93.77 C 317.68 94.44 312.66 94.27 307.66 94.23 C 307.71 93.61 307.81 92.38 307.86 91.76 Z" />
<path fill="#46b694" stroke="#46b694" stroke-width="0.09375" opacity="1.00" d=" M 365.09 93.18 C 369.80 94.34 362.12 96.61 365.09 93.18 Z" />
<path fill="#46b694" stroke="#46b694" stroke-width="0.09375" opacity="1.00" d=" M 326.74 94.20 C 338.45 93.57 349.24 98.66 360.46 100.89 C 358.32 99.56 356.09 98.37 353.80 97.34 C 358.48 96.92 361.91 101.33 366.60 100.46 C 367.32 100.95 368.03 101.45 368.75 101.95 C 367.83 102.97 366.91 103.99 365.99 105.01 C 368.89 107.83 370.68 111.47 371.07 115.50 C 376.86 113.98 376.69 119.65 375.66 123.58 C 374.46 123.29 373.26 123.00 372.07 122.72 C 367.86 121.65 363.45 121.72 359.31 120.35 C 352.91 116.64 346.00 121.17 339.44 119.67 C 342.26 119.09 345.09 118.50 347.80 117.51 C 344.47 117.09 341.13 117.05 337.79 117.00 C 342.74 115.90 347.82 116.79 352.81 117.17 C 356.72 117.41 360.56 118.17 364.39 118.94 C 360.65 116.03 356.20 114.06 351.41 113.88 C 347.60 113.56 343.78 113.32 339.96 113.10 C 339.73 112.51 339.28 111.32 339.06 110.73 C 346.38 111.41 353.91 111.14 360.73 114.40 C 363.14 115.32 365.53 116.29 367.97 117.16 C 365.23 111.42 358.95 108.54 352.76 109.07 C 351.05 108.59 349.35 108.09 347.64 107.66 C 349.19 107.39 350.73 107.05 352.28 106.73 C 350.97 105.98 349.67 105.24 348.37 104.51 C 348.67 104.24 349.26 103.70 349.55 103.43 C 347.17 102.34 344.95 100.96 342.84 99.42 C 348.29 100.71 353.59 102.79 359.25 103.01 C 348.57 99.51 337.91 95.89 326.74 94.20 M 350.80 104.10 C 355.49 107.39 360.78 110.10 366.51 110.93 C 361.55 108.19 356.75 103.91 350.80 104.10 Z" />
<path fill="#c0d7cd" stroke="#c0d7cd" stroke-width="0.09375" opacity="1.00" d=" M 306.40 98.86 C 318.47 97.35 330.99 95.56 342.84 99.42 C 344.95 100.96 347.17 102.34 349.55 103.43 C 349.26 103.70 348.67 104.24 348.37 104.51 C 349.67 105.24 350.97 105.98 352.28 106.73 C 350.73 107.05 349.19 107.39 347.64 107.66 C 344.35 107.46 341.06 107.26 337.78 107.08 C 338.89 107.69 340.00 108.29 341.12 108.89 C 335.86 108.03 330.53 107.80 325.21 108.07 C 325.72 106.77 326.21 105.46 326.71 104.15 C 318.43 103.60 310.13 103.46 301.83 103.76 C 308.77 101.97 315.79 100.38 322.98 100.08 C 322.26 100.75 321.55 101.43 320.84 102.10 C 325.31 101.25 329.68 99.97 334.20 99.35 C 322.25 97.79 310.45 99.90 298.74 101.96 C 299.59 101.36 300.46 100.77 301.35 100.21 C 302.93 99.46 304.67 99.13 306.40 98.86 Z" />
<path fill="#e8efea" stroke="#e8efea" stroke-width="0.09375" opacity="1.00" d=" M 298.74 101.96 C 310.45 99.90 322.25 97.79 334.20 99.35 C 329.68 99.97 325.31 101.25 320.84 102.10 C 321.55 101.43 322.26 100.75 322.98 100.08 C 315.79 100.38 308.77 101.97 301.83 103.76 C 310.13 103.46 318.43 103.60 326.71 104.15 C 326.21 105.46 325.72 106.77 325.21 108.07 C 330.53 107.80 335.86 108.03 341.12 108.89 C 340.00 108.29 338.89 107.69 337.78 107.08 C 341.06 107.26 344.35 107.46 347.64 107.66 C 349.35 108.09 351.05 108.59 352.76 109.07 C 355.78 110.63 358.80 112.20 361.89 113.62 C 361.60 113.82 361.02 114.20 360.73 114.40 C 353.91 111.14 346.38 111.41 339.06 110.73 C 333.01 109.50 327.17 112.69 322.25 115.85 C 328.16 114.98 333.88 112.66 339.96 113.10 C 343.78 113.32 347.60 113.56 351.41 113.88 C 351.87 114.98 352.34 116.07 352.81 117.17 C 347.82 116.79 342.74 115.90 337.79 117.00 C 328.76 119.27 319.27 118.99 310.72 123.12 C 312.96 119.83 316.63 118.14 320.02 116.32 C 313.33 117.18 307.23 120.57 300.50 121.01 C 307.07 115.20 316.58 116.04 324.15 112.36 C 315.36 111.81 307.45 118.22 298.88 117.02 C 299.84 115.71 300.82 114.41 301.83 113.14 C 297.63 115.53 292.99 112.73 288.63 114.51 C 292.48 109.88 298.88 109.23 304.40 108.03 C 310.69 108.20 317.04 109.02 323.24 107.45 C 317.74 106.65 312.02 105.65 306.58 107.34 C 303.11 102.17 295.85 108.96 290.64 108.09 C 292.59 106.55 294.71 105.26 296.90 104.10 C 295.80 103.80 294.70 103.48 293.61 103.17 C 295.46 100.72 298.46 100.25 301.35 100.21 C 300.46 100.77 299.59 101.36 298.74 101.96 Z" />
<path fill="#c0d7cd" stroke="#c0d7cd" stroke-width="0.09375" opacity="1.00" d=" M 350.80 104.10 C 356.75 103.91 361.55 108.19 366.51 110.93 C 360.78 110.10 355.49 107.39 350.80 104.10 Z" />
<path fill="#c0d7cd" stroke="#c0d7cd" stroke-width="0.09375" opacity="1.00" d=" M 306.58 107.34 C 312.02 105.65 317.74 106.65 323.24 107.45 C 317.04 109.02 310.69 108.20 304.40 108.03 C 304.95 107.86 306.04 107.51 306.58 107.34 Z" />
<path fill="#c0d7cd" stroke="#c0d7cd" stroke-width="0.09375" opacity="1.00" d=" M 352.76 109.07 C 358.95 108.54 365.23 111.42 367.97 117.16 C 365.53 116.29 363.14 115.32 360.73 114.40 C 361.02 114.20 361.60 113.82 361.89 113.62 C 358.80 112.20 355.78 110.63 352.76 109.07 Z" />
<path fill="#c0d7cd" stroke="#c0d7cd" stroke-width="0.09375" opacity="1.00" d=" M 322.25 115.85 C 327.17 112.69 333.01 109.50 339.06 110.73 C 339.28 111.32 339.73 112.51 339.96 113.10 C 333.88 112.66 328.16 114.98 322.25 115.85 Z" />
<path fill="#c0d7cd" stroke="#c0d7cd" stroke-width="0.09375" opacity="1.00" d=" M 351.41 113.88 C 356.20 114.06 360.65 116.03 364.39 118.94 C 360.56 118.17 356.72 117.41 352.81 117.17 C 352.34 116.07 351.87 114.98 351.41 113.88 Z" />
<path fill="#049568" stroke="#049568" stroke-width="0.09375" opacity="1.00" d=" M 386.38 139.06 C 385.49 131.78 378.35 123.10 385.30 116.85 C 388.80 127.40 392.03 138.13 395.36 148.28 C 398.75 148.58 402.06 147.88 404.37 145.22 C 407.46 151.37 414.33 154.21 417.89 159.84 C 418.53 165.68 421.18 170.90 424.89 175.39 C 423.15 176.27 421.42 177.16 419.68 178.03 C 417.46 176.77 414.93 176.32 412.43 176.10 C 412.00 176.04 411.14 175.92 410.70 175.86 C 412.83 183.20 421.69 184.89 425.54 191.16 C 425.98 191.63 426.44 192.10 426.91 192.56 C 426.66 193.69 426.42 194.83 426.18 195.97 C 431.73 200.26 433.64 207.30 436.28 213.47 C 433.70 211.67 431.08 209.90 428.35 208.34 C 430.80 212.92 434.23 216.92 436.30 221.72 C 435.58 221.55 434.14 221.21 433.42 221.04 C 434.54 224.20 435.67 227.45 437.85 230.07 C 438.24 230.39 439.03 231.03 439.42 231.35 C 440.69 232.38 441.96 233.42 443.21 234.49 C 444.31 240.50 444.15 248.83 452.42 248.93 C 452.50 249.92 452.58 250.91 452.67 251.90 C 447.39 253.31 442.12 252.35 437.73 249.12 C 440.02 252.59 442.94 255.56 445.67 258.67 C 444.44 260.01 443.22 261.35 442.03 262.72 C 442.62 264.02 443.23 265.33 443.83 266.64 C 442.36 266.51 440.89 266.39 439.42 266.27 C 439.47 267.25 439.56 269.21 439.60 270.18 C 439.37 268.79 439.15 267.40 438.92 266.01 C 437.43 269.30 436.30 272.74 436.05 276.37 C 435.39 275.93 434.07 275.06 433.41 274.63 C 430.24 266.56 422.12 261.81 416.40 255.62 C 413.11 252.70 408.70 247.05 404.01 250.74 C 406.92 252.39 409.93 253.85 412.98 255.23 C 411.66 256.04 410.34 256.84 409.02 257.64 C 417.53 263.11 429.29 266.87 431.91 277.84 C 430.12 278.11 428.35 278.39 426.57 278.66 C 427.48 279.57 428.42 280.46 429.31 281.39 C 430.54 283.64 431.38 286.08 432.00 288.57 C 430.26 288.03 428.53 287.50 426.80 286.96 C 425.72 288.90 424.66 290.85 423.64 292.83 C 421.84 292.96 420.05 293.15 418.26 293.35 C 418.39 294.66 418.52 295.96 418.66 297.28 C 415.22 296.93 411.80 296.16 408.92 294.17 C 403.19 290.94 396.30 293.16 390.07 292.50 C 388.81 292.49 387.55 292.51 386.29 292.55 C 389.52 276.43 391.16 259.99 393.09 243.63 C 397.51 219.22 397.84 194.19 394.33 169.51 C 393.04 171.66 391.75 173.83 390.49 176.01 C 386.99 175.82 383.82 174.30 380.70 172.84 C 382.55 172.11 384.41 171.39 386.27 170.66 C 383.81 168.09 380.81 165.97 377.08 166.29 C 378.08 168.00 379.09 169.71 380.10 171.42 C 374.21 170.01 369.49 164.38 363.09 165.65 C 368.15 169.31 374.10 171.36 379.62 174.19 C 373.50 175.48 367.51 177.42 362.04 180.48 C 364.95 180.92 367.85 181.43 370.73 182.10 C 368.00 184.11 364.61 185.88 361.54 183.44 C 361.01 186.41 359.65 189.14 356.89 190.64 C 363.27 191.66 363.68 197.54 364.62 202.69 C 362.64 202.74 360.66 202.81 358.69 202.88 C 356.93 201.72 355.17 200.54 353.43 199.35 C 355.75 199.04 358.07 198.77 360.40 198.53 C 354.82 196.23 352.87 189.91 347.54 187.49 C 348.67 184.19 350.33 181.03 353.27 178.98 C 348.98 178.25 344.99 176.54 341.02 174.86 C 338.74 174.05 336.40 173.45 334.08 172.84 C 334.69 172.27 335.90 171.14 336.51 170.58 C 338.48 168.90 340.57 167.37 342.59 165.75 C 338.93 165.01 335.20 164.64 331.47 164.52 C 329.96 164.46 328.44 164.40 326.93 164.41 C 325.23 164.41 323.52 164.42 321.82 164.44 C 323.12 162.37 324.46 160.32 325.69 158.22 C 329.82 160.37 334.55 159.97 339.04 159.72 C 341.67 151.93 352.09 155.50 358.28 155.01 C 357.65 153.48 357.02 151.96 356.40 150.43 C 359.49 149.67 362.65 149.07 365.86 149.12 C 369.04 149.73 372.29 149.89 375.53 149.76 C 370.88 146.92 365.62 145.42 360.62 143.37 C 363.27 143.43 365.92 143.54 368.58 143.68 C 365.50 141.59 362.46 139.45 359.66 137.00 C 364.18 137.96 368.52 139.57 373.05 140.52 C 371.70 139.23 370.34 137.96 368.97 136.71 C 370.45 136.58 371.93 136.44 373.41 136.29 C 375.72 137.54 378.10 138.64 380.48 139.75 C 379.34 138.53 378.20 137.33 377.06 136.13 C 376.92 135.57 376.65 134.46 376.51 133.91 C 379.84 135.54 383.09 137.33 386.38 139.06 M 381.71 140.34 C 382.76 143.18 385.59 144.42 388.01 145.88 C 387.96 145.29 387.87 144.11 387.82 143.52 C 385.72 142.58 383.70 141.49 381.71 140.34 M 376.77 143.15 C 377.81 148.50 382.47 142.33 376.77 143.15 M 380.15 144.67 C 381.22 148.49 384.76 150.72 388.45 151.49 C 386.93 147.97 383.57 145.99 380.15 144.67 M 329.37 161.07 C 331.63 163.84 335.15 163.36 338.13 162.17 C 335.60 160.11 332.33 160.72 329.37 161.07 M 410.68 197.74 C 415.27 201.92 417.72 208.52 424.17 210.39 C 421.27 205.08 417.25 198.37 410.68 197.74 M 430.61 227.44 C 430.72 229.90 431.92 231.97 433.94 233.35 C 433.81 230.89 433.15 228.41 430.61 227.44 Z" />
<path fill="#e8efea" stroke="#e8efea" stroke-width="0.09375" opacity="1.00" d=" M 321.86 125.12 C 327.29 122.65 333.35 118.30 339.44 119.67 C 346.00 121.17 352.91 116.64 359.31 120.35 C 355.77 120.00 352.22 119.87 348.68 119.59 C 348.64 120.17 348.56 121.34 348.52 121.92 C 356.82 121.22 364.27 125.22 371.33 128.98 C 370.57 129.16 369.03 129.53 368.27 129.72 C 367.96 129.20 367.36 128.16 367.05 127.64 C 365.89 127.45 364.74 127.28 363.58 127.11 C 362.04 126.64 360.53 126.11 359.00 125.63 C 355.58 124.34 352.07 125.74 348.70 126.42 C 344.48 126.37 340.25 126.11 336.09 125.34 C 340.45 124.27 344.96 124.61 349.41 124.64 C 340.36 122.45 330.92 123.66 321.86 125.12 Z" />
<path fill="#c0d7cd" stroke="#c0d7cd" stroke-width="0.09375" opacity="1.00" d=" M 348.68 119.59 C 352.22 119.87 355.77 120.00 359.31 120.35 C 363.45 121.72 367.86 121.65 372.07 122.72 C 371.69 124.79 371.47 126.88 371.33 128.98 C 364.27 125.22 356.82 121.22 348.52 121.92 C 348.56 121.34 348.64 120.17 348.68 119.59 Z" />
<path fill="#c0d7cd" stroke="#c0d7cd" stroke-width="0.09375" opacity="1.00" d=" M 407.61 120.06 C 408.93 120.97 410.19 121.96 411.42 123.00 C 411.08 124.44 409.99 125.37 408.87 126.24 C 408.34 124.20 408.04 122.12 407.61 120.06 Z" />
<path fill="#46b694" stroke="#46b694" stroke-width="0.09375" opacity="1.00" d=" M 321.86 125.12 C 330.92 123.66 340.36 122.45 349.41 124.64 C 344.96 124.61 340.45 124.27 336.09 125.34 C 340.25 126.11 344.48 126.37 348.70 126.42 C 350.90 126.73 353.09 127.17 355.27 127.62 C 346.77 127.88 338.28 127.11 329.78 127.48 C 331.79 126.56 333.78 125.62 335.76 124.63 C 330.94 124.80 326.25 126.00 321.52 126.82 C 319.17 127.32 316.78 127.69 314.38 127.76 C 316.62 126.28 319.20 125.45 321.86 125.12 Z" />
<path fill="#c0d7cd" stroke="#c0d7cd" stroke-width="0.09375" opacity="1.00" d=" M 321.52 126.82 C 326.25 126.00 330.94 124.80 335.76 124.63 C 333.78 125.62 331.79 126.56 329.78 127.48 C 338.28 127.11 346.77 127.88 355.27 127.62 C 353.09 127.17 350.90 126.73 348.70 126.42 C 352.07 125.74 355.58 124.34 359.00 125.63 C 358.19 126.36 357.39 127.10 356.60 127.85 C 358.92 127.62 361.25 127.35 363.58 127.11 C 364.74 127.28 365.89 127.45 367.05 127.64 C 367.36 128.16 367.96 129.20 368.27 129.72 C 370.17 133.02 374.03 134.16 377.06 136.13 C 378.20 137.33 379.34 138.53 380.48 139.75 C 378.10 138.64 375.72 137.54 373.41 136.29 C 371.29 135.10 369.19 133.88 367.07 132.70 C 367.35 133.24 367.92 134.32 368.21 134.86 C 358.38 138.05 350.21 125.47 341.49 131.84 C 334.02 132.15 326.06 131.76 319.42 135.81 C 326.31 137.20 333.31 135.44 340.27 136.08 C 339.02 136.50 337.80 136.96 336.57 137.42 C 341.59 139.07 346.93 139.74 352.09 138.34 C 354.02 139.62 355.92 140.94 357.78 142.32 C 356.12 142.29 354.47 142.23 352.82 142.13 C 348.87 140.23 344.54 141.28 340.37 141.39 C 340.39 142.10 340.42 142.80 340.46 143.51 C 332.46 142.11 318.17 144.68 318.58 132.75 C 319.30 132.77 320.74 132.82 321.46 132.85 C 321.07 130.85 321.12 128.81 321.52 126.82 M 356.46 129.23 C 359.59 130.65 362.90 131.59 366.14 132.70 C 366.30 132.32 366.62 131.54 366.78 131.16 C 363.44 130.08 360.02 129.02 356.46 129.23 Z" />
<path fill="#46b694" stroke="#46b694" stroke-width="0.09375" opacity="1.00" d=" M 356.60 127.85 C 357.39 127.10 358.19 126.36 359.00 125.63 C 360.53 126.11 362.04 126.64 363.58 127.11 C 361.25 127.35 358.92 127.62 356.60 127.85 Z" />
<path fill="#c0d7cd" stroke="#c0d7cd" stroke-width="0.09375" opacity="1.00" d=" M 411.99 127.14 C 414.82 134.60 419.68 140.20 425.32 145.71 C 423.75 145.03 422.18 144.33 420.62 143.65 C 422.00 148.24 425.84 151.61 427.12 156.20 C 424.93 160.48 427.17 164.81 428.60 168.89 C 427.44 166.39 425.93 164.06 424.29 161.86 C 424.29 163.74 424.33 165.63 424.36 167.52 C 422.81 165.67 421.36 163.76 420.01 161.77 C 421.28 161.77 422.56 161.77 423.85 161.77 C 421.78 158.81 419.71 155.85 417.52 152.98 C 418.32 152.33 419.12 151.69 419.92 151.05 C 418.77 149.67 417.63 148.29 416.49 146.91 C 419.80 140.80 413.49 134.84 411.01 129.50 C 411.26 128.91 411.75 127.73 411.99 127.14 Z" />
<path fill="#68297a" stroke="#68297a" stroke-width="0.09375" opacity="1.00" d=" M 215.40 130.70 C 227.84 127.96 241.30 128.41 253.35 132.60 C 250.40 133.22 247.43 133.72 244.41 133.81 C 243.97 136.85 243.56 139.90 243.19 142.95 C 239.27 142.41 235.42 143.32 231.71 144.49 C 232.46 150.22 232.75 156.04 234.37 161.62 C 260.27 161.88 285.13 152.36 310.95 150.80 C 310.43 148.75 309.90 146.70 309.38 144.65 C 311.63 145.08 313.92 145.40 316.11 146.11 C 320.54 148.16 318.95 154.75 324.96 154.90 C 323.25 162.21 315.80 166.01 314.04 173.15 C 315.99 172.14 317.94 171.10 319.68 169.74 C 324.66 170.36 326.23 174.37 324.19 178.66 C 322.98 179.73 321.72 180.75 320.48 181.79 C 321.04 182.61 321.59 183.42 322.16 184.25 C 327.40 180.41 331.50 173.60 338.93 174.50 C 340.11 175.69 341.29 176.87 342.49 178.05 C 341.94 179.26 341.40 180.46 340.87 181.67 C 337.99 181.29 335.12 180.90 332.28 180.35 C 332.42 181.29 332.60 182.22 332.75 183.17 C 334.44 184.62 336.12 186.08 337.81 187.54 C 338.23 186.70 338.65 185.87 339.08 185.05 C 342.52 187.63 343.35 191.60 342.15 195.62 C 343.48 195.51 344.81 195.41 346.15 195.28 C 346.39 195.90 346.64 196.51 346.89 197.13 C 345.37 200.27 343.71 203.34 341.91 206.32 C 342.94 206.52 343.98 206.71 345.01 206.92 C 345.26 208.94 346.79 210.37 348.11 211.78 C 349.03 210.54 349.95 209.30 350.87 208.06 C 349.88 207.02 348.89 205.99 347.90 204.96 C 349.92 204.10 351.91 203.21 353.91 202.32 C 355.21 203.78 356.56 205.20 358.01 206.52 C 360.31 208.24 363.07 209.13 365.82 209.86 C 363.79 211.61 362.22 213.82 362.03 216.58 C 360.05 216.41 358.07 216.24 356.09 216.07 C 356.67 217.23 357.25 218.38 357.83 219.54 C 356.17 220.57 354.53 221.61 352.88 222.65 C 355.39 223.16 357.91 223.62 360.43 224.11 C 357.99 226.11 355.10 227.43 352.00 228.05 C 354.11 229.34 356.17 230.71 358.21 232.13 C 357.16 233.34 356.11 234.55 355.06 235.77 C 353.53 235.28 352.00 234.79 350.47 234.30 C 350.09 235.25 349.71 236.21 349.34 237.17 C 351.52 237.37 353.71 237.56 355.87 238.00 C 357.20 238.33 358.53 238.68 359.86 239.03 C 359.26 241.70 358.57 244.35 357.59 246.90 C 357.01 246.96 355.84 247.08 355.25 247.14 C 357.77 249.48 360.58 251.47 363.65 253.04 C 363.25 254.28 362.86 255.51 362.47 256.76 L 361.09 256.83 C 358.70 260.14 359.62 264.37 359.28 268.18 C 359.06 269.66 358.83 271.14 358.62 272.63 C 357.79 272.47 356.97 272.32 356.14 272.17 C 360.44 280.52 359.93 290.84 368.60 296.63 C 369.33 295.68 370.07 294.73 370.82 293.79 C 370.58 294.91 370.35 296.04 370.12 297.17 C 359.40 299.70 348.30 300.41 337.71 303.55 C 323.06 307.16 308.12 309.62 293.20 311.78 C 286.02 312.60 278.68 312.49 271.65 314.34 L 271.26 314.43 C 268.70 314.40 266.15 314.41 263.59 314.47 C 262.82 314.43 262.05 314.40 261.28 314.39 C 256.09 314.17 250.89 314.10 245.69 314.18 C 239.42 314.23 233.14 313.70 226.88 314.33 L 226.30 314.25 C 218.63 312.15 210.54 312.56 202.90 310.28 C 200.01 303.32 193.98 296.99 186.18 296.24 C 183.16 298.30 181.14 302.33 177.02 302.28 C 160.58 298.11 144.65 284.48 143.36 266.76 C 143.84 264.96 144.23 263.13 144.54 261.30 C 146.84 250.87 148.72 240.36 151.21 229.98 C 148.47 230.60 145.71 231.15 142.97 231.78 C 146.42 229.75 150.84 229.76 153.93 227.15 C 162.28 219.71 171.18 212.09 176.15 201.85 C 170.49 206.42 167.61 214.09 160.52 216.85 C 178.57 190.75 192.96 162.33 208.45 134.84 C 212.62 149.29 195.04 158.35 192.96 172.16 C 198.83 167.59 203.08 161.37 205.53 154.36 C 208.80 146.50 219.81 140.25 215.40 130.70 M 271.37 163.21 C 270.60 164.74 269.84 166.27 269.08 167.80 C 261.85 165.38 257.24 171.61 259.77 178.28 C 255.58 170.50 245.47 174.21 246.40 182.76 C 252.96 186.12 249.65 191.84 243.94 193.62 C 242.09 190.60 240.67 187.35 240.00 183.87 C 236.19 183.47 232.32 183.02 228.87 181.23 C 228.20 181.94 227.53 182.66 226.87 183.38 C 226.46 181.89 226.04 180.41 225.62 178.93 C 223.01 180.48 221.47 183.19 223.65 185.86 C 222.51 186.26 221.36 186.66 220.22 187.06 C 220.31 187.61 220.48 188.70 220.57 189.24 C 224.89 188.86 233.89 194.86 225.14 195.41 C 227.21 196.03 229.22 196.82 231.19 197.71 C 231.73 197.14 232.27 196.57 232.82 196.01 C 234.59 196.96 236.52 197.56 238.54 197.74 C 237.13 200.83 235.10 203.57 232.90 206.16 C 237.31 206.13 241.53 207.44 245.61 208.99 C 245.19 205.75 245.36 202.38 248.03 200.10 C 250.11 203.01 250.66 206.56 250.80 210.05 C 249.57 210.77 248.34 211.49 247.12 212.21 C 246.26 222.75 257.06 229.91 266.60 225.74 C 265.10 217.94 259.52 212.32 255.17 206.31 C 255.90 205.43 256.63 204.55 257.37 203.67 C 259.05 204.98 259.95 206.89 260.51 208.90 C 260.83 208.33 261.46 207.19 261.77 206.62 C 263.75 210.90 268.28 209.76 271.25 207.33 C 271.40 205.29 271.46 203.25 271.35 201.21 C 272.94 201.21 274.53 201.22 276.13 201.20 C 273.92 198.25 269.68 196.37 269.37 192.36 C 268.91 192.48 268.00 192.71 267.54 192.83 C 268.56 191.01 269.64 189.23 270.80 187.49 C 270.99 188.40 271.36 190.22 271.55 191.13 C 273.21 190.27 274.88 189.42 276.55 188.58 C 276.89 191.36 276.53 194.17 275.47 196.77 C 276.52 196.74 277.58 196.72 278.64 196.71 C 278.73 197.84 278.83 198.97 278.94 200.11 C 282.90 199.09 285.05 195.78 285.76 191.93 C 282.74 190.99 280.94 188.27 278.92 186.04 C 280.80 184.47 282.71 182.94 284.72 181.53 C 282.67 181.50 280.92 180.55 279.46 179.18 C 280.71 179.27 281.95 179.36 283.21 179.46 C 281.50 177.13 279.58 174.96 277.39 173.07 C 277.55 172.22 277.85 170.53 278.00 169.68 C 279.89 171.10 281.72 172.60 283.50 174.15 C 284.58 172.68 285.63 171.20 286.69 169.72 C 285.66 167.95 284.46 166.28 283.09 164.76 C 279.13 164.79 275.05 164.95 271.37 163.21 M 165.48 245.81 C 164.99 247.83 164.55 249.86 164.18 251.90 C 166.36 251.62 168.54 251.33 170.72 251.04 C 168.93 249.34 167.18 247.59 165.48 245.81 Z" />
<path fill="#46b694" stroke="#46b694" stroke-width="0.09375" opacity="1.00" d=" M 356.46 129.23 C 360.02 129.02 363.44 130.08 366.78 131.16 C 366.62 131.54 366.30 132.32 366.14 132.70 C 362.90 131.59 359.59 130.65 356.46 129.23 Z" />
<path fill="#46b694" stroke="#46b694" stroke-width="0.09375" opacity="1.00" d=" M 341.49 131.84 C 350.21 125.47 358.38 138.05 368.21 134.86 C 367.92 134.32 367.35 133.24 367.07 132.70 C 369.19 133.88 371.29 135.10 373.41 136.29 C 371.93 136.44 370.45 136.58 368.97 136.71 C 370.34 137.96 371.70 139.23 373.05 140.52 C 368.52 139.57 364.18 137.96 359.66 137.00 C 362.46 139.45 365.50 141.59 368.58 143.68 C 365.92 143.54 363.27 143.43 360.62 143.37 C 365.62 145.42 370.88 146.92 375.53 149.76 C 372.29 149.89 369.04 149.73 365.86 149.12 C 352.78 148.43 339.44 149.24 326.59 152.24 C 324.74 152.55 322.80 152.76 321.06 151.91 C 320.53 150.36 320.90 148.72 321.02 147.14 C 334.81 148.62 348.70 148.69 362.35 146.27 C 361.90 145.92 361.01 145.21 360.56 144.85 C 359.90 144.32 358.59 143.26 357.93 142.73 C 359.74 142.23 361.55 141.74 363.36 141.24 C 359.74 139.85 356.05 138.24 352.09 138.34 C 346.93 139.74 341.59 139.07 336.57 137.42 C 337.80 136.96 339.02 136.50 340.27 136.08 C 346.01 134.06 351.68 136.95 357.48 136.37 C 351.95 134.95 347.71 130.32 341.49 131.84 Z" />
<path fill="#968879" stroke="#968879" stroke-width="0.09375" opacity="1.00" d=" M 208.45 134.84 C 210.49 133.07 212.90 131.72 215.40 130.70 C 219.81 140.25 208.80 146.50 205.53 154.36 C 203.08 161.37 198.83 167.59 192.96 172.16 C 195.04 158.35 212.62 149.29 208.45 134.84 Z" />
<path fill="#e8efea" stroke="#e8efea" stroke-width="0.09375" opacity="1.00" d=" M 319.42 135.81 C 326.06 131.76 334.02 132.15 341.49 131.84 C 347.71 130.32 351.95 134.95 357.48 136.37 C 351.68 136.95 346.01 134.06 340.27 136.08 C 333.31 135.44 326.31 137.20 319.42 135.81 Z" />
<path fill="#2e053a" stroke="#2e053a" stroke-width="0.09375" opacity="1.00" d=" M 244.41 133.81 C 247.43 133.72 250.40 133.22 253.35 132.60 C 271.83 136.99 290.87 139.90 309.38 144.65 C 309.90 146.70 310.43 148.75 310.95 150.80 C 285.13 152.36 260.27 161.88 234.37 161.62 C 232.75 156.04 232.46 150.22 231.71 144.49 C 235.42 143.32 239.27 142.41 243.19 142.95 C 243.56 139.90 243.97 136.85 244.41 133.81 Z" />
<path fill="#e8efea" stroke="#e8efea" stroke-width="0.09375" opacity="1.00" d=" M 352.09 138.34 C 356.05 138.24 359.74 139.85 363.36 141.24 C 361.55 141.74 359.74 142.23 357.93 142.73 C 358.59 143.26 359.90 144.32 360.56 144.85 C 358.42 145.21 356.25 145.32 354.10 145.12 C 353.66 144.12 353.24 143.12 352.82 142.13 C 354.47 142.23 356.12 142.29 357.78 142.32 C 355.92 140.94 354.02 139.62 352.09 138.34 Z" />
<path fill="#46b694" stroke="#46b694" stroke-width="0.09375" opacity="1.00" d=" M 381.71 140.34 C 383.70 141.49 385.72 142.58 387.82 143.52 C 387.87 144.11 387.96 145.29 388.01 145.88 C 385.59 144.42 382.76 143.18 381.71 140.34 Z" />
<path fill="#46b694" stroke="#46b694" stroke-width="0.09375" opacity="1.00" d=" M 376.77 143.15 C 382.47 142.33 377.81 148.50 376.77 143.15 Z" />
<path fill="#46b694" stroke="#46b694" stroke-width="0.09375" opacity="1.00" d=" M 380.15 144.67 C 383.57 145.99 386.93 147.97 388.45 151.49 C 384.76 150.72 381.22 148.49 380.15 144.67 Z" />
<path fill="#04845a" stroke="#04845a" stroke-width="0.09375" opacity="1.00" d=" M 316.11 146.11 C 317.75 146.43 319.39 146.75 321.02 147.14 C 320.90 148.72 320.53 150.36 321.06 151.91 C 322.80 152.76 324.74 152.55 326.59 152.24 C 326.76 154.28 326.70 156.37 325.69 158.22 C 324.46 160.32 323.12 162.37 321.82 164.44 C 323.52 164.42 325.23 164.41 326.93 164.41 C 324.07 165.51 321.93 167.75 319.68 169.74 C 317.94 171.10 315.99 172.14 314.04 173.15 C 315.80 166.01 323.25 162.21 324.96 154.90 C 318.95 154.75 320.54 148.16 316.11 146.11 Z" />
<path fill="#03a278" stroke="#03a278" stroke-width="0.09375" opacity="1.00" d=" M 326.59 152.24 C 339.44 149.24 352.78 148.43 365.86 149.12 C 362.65 149.07 359.49 149.67 356.40 150.43 C 357.02 151.96 357.65 153.48 358.28 155.01 C 352.09 155.50 341.67 151.93 339.04 159.72 C 334.55 159.97 329.82 160.37 325.69 158.22 C 326.70 156.37 326.76 154.28 326.59 152.24 Z" />
<path fill="#e8efea" stroke="#e8efea" stroke-width="0.09375" opacity="1.00" d=" M 427.12 156.20 C 429.20 158.99 431.24 161.84 432.64 165.05 C 431.45 164.78 430.26 164.51 429.07 164.23 C 429.98 166.61 430.68 169.07 430.88 171.62 L 430.05 170.72 C 429.56 170.12 429.07 169.51 428.60 168.89 C 427.17 164.81 424.93 160.48 427.12 156.20 Z" />
<path fill="#046949" stroke="#046949" stroke-width="0.09375" opacity="1.00" d=" M 329.37 161.07 C 332.33 160.72 335.60 160.11 338.13 162.17 C 335.15 163.36 331.63 163.84 329.37 161.07 Z" />
<path fill="#2e053a" stroke="#2e053a" stroke-width="0.09375" opacity="1.00" d=" M 271.37 163.21 C 275.05 164.95 279.13 164.79 283.09 164.76 C 284.46 166.28 285.66 167.95 286.69 169.72 C 285.63 171.20 284.58 172.68 283.50 174.15 C 281.72 172.60 279.89 171.10 278.00 169.68 C 277.85 170.53 277.55 172.22 277.39 173.07 C 279.58 174.96 281.50 177.13 283.21 179.46 C 281.95 179.36 280.71 179.27 279.46 179.18 C 280.92 180.55 282.67 181.50 284.72 181.53 C 282.71 182.94 280.80 184.47 278.92 186.04 C 280.94 188.27 282.74 190.99 285.76 191.93 C 285.05 195.78 282.90 199.09 278.94 200.11 C 278.83 198.97 278.73 197.84 278.64 196.71 C 277.58 196.72 276.52 196.74 275.47 196.77 C 276.53 194.17 276.89 191.36 276.55 188.58 C 274.88 189.42 273.21 190.27 271.55 191.13 C 271.36 190.22 270.99 188.40 270.80 187.49 C 269.64 189.23 268.56 191.01 267.54 192.83 C 268.00 192.71 268.91 192.48 269.37 192.36 C 269.68 196.37 273.92 198.25 276.13 201.20 C 274.53 201.22 272.94 201.21 271.35 201.21 C 271.46 203.25 271.40 205.29 271.25 207.33 C 268.28 209.76 263.75 210.90 261.77 206.62 C 261.46 207.19 260.83 208.33 260.51 208.90 C 259.95 206.89 259.05 204.98 257.37 203.67 C 256.63 204.55 255.90 205.43 255.17 206.31 C 259.52 212.32 265.10 217.94 266.60 225.74 C 257.06 229.91 246.26 222.75 247.12 212.21 C 248.34 211.49 249.57 210.77 250.80 210.05 C 250.66 206.56 250.11 203.01 248.03 200.10 C 245.36 202.38 245.19 205.75 245.61 208.99 C 241.53 207.44 237.31 206.13 232.90 206.16 C 235.10 203.57 237.13 200.83 238.54 197.74 C 236.52 197.56 234.59 196.96 232.82 196.01 C 232.27 196.57 231.73 197.14 231.19 197.71 C 229.22 196.82 227.21 196.03 225.14 195.41 C 233.89 194.86 224.89 188.86 220.57 189.24 C 220.48 188.70 220.31 187.61 220.22 187.06 C 221.36 186.66 222.51 186.26 223.65 185.86 C 221.47 183.19 223.01 180.48 225.62 178.93 C 226.04 180.41 226.46 181.89 226.87 183.38 C 227.53 182.66 228.20 181.94 228.87 181.23 C 232.32 183.02 236.19 183.47 240.00 183.87 C 240.67 187.35 242.09 190.60 243.94 193.62 C 249.65 191.84 252.96 186.12 246.40 182.76 C 245.47 174.21 255.58 170.50 259.77 178.28 C 257.24 171.61 261.85 165.38 269.08 167.80 C 269.84 166.27 270.60 164.74 271.37 163.21 M 262.43 180.29 C 263.78 180.42 265.13 180.55 266.48 180.69 C 266.59 182.36 266.87 184.01 267.35 185.63 C 271.28 186.73 274.45 183.85 277.62 182.06 C 276.45 180.74 275.29 179.43 274.13 178.10 C 278.56 175.27 275.88 171.21 271.93 169.75 C 267.47 171.76 266.07 177.19 262.43 180.29 Z" />
<path fill="#2e053a" stroke="#2e053a" stroke-width="0.09375" opacity="1.00" d=" M 326.93 164.41 C 328.44 164.40 329.96 164.46 331.47 164.52 C 333.28 166.43 334.96 168.46 336.51 170.58 C 331.75 172.13 327.73 175.19 324.19 178.66 C 326.23 174.37 324.66 170.36 319.68 169.74 C 321.93 167.75 324.07 165.51 326.93 164.41 Z" />
<path fill="#046949" stroke="#046949" stroke-width="0.09375" opacity="1.00" d=" M 331.47 164.52 C 335.20 164.64 338.93 165.01 342.59 165.75 C 340.57 167.37 338.48 168.90 336.51 170.58 C 334.96 168.46 333.28 166.43 331.47 164.52 Z" />
<path fill="#04845a" stroke="#04845a" stroke-width="0.09375" opacity="1.00" d=" M 363.09 165.65 C 369.49 164.38 374.21 170.01 380.10 171.42 C 379.09 169.71 378.08 168.00 377.08 166.29 C 380.81 165.97 383.81 168.09 386.27 170.66 C 384.41 171.39 382.55 172.11 380.70 172.84 C 383.82 174.30 386.99 175.82 390.49 176.01 C 391.75 173.83 393.04 171.66 394.33 169.51 C 397.84 194.19 397.51 219.22 393.09 243.63 C 388.25 243.14 383.40 242.89 378.56 242.53 C 380.68 241.78 382.81 241.04 384.95 240.32 C 377.06 237.15 367.92 235.51 359.86 239.03 C 358.53 238.68 357.20 238.33 355.87 238.00 C 356.45 235.93 357.86 234.35 359.51 233.04 C 359.07 232.73 358.63 232.42 358.21 232.13 C 356.17 230.71 354.11 229.34 352.00 228.05 C 355.10 227.43 357.99 226.11 360.43 224.11 C 357.91 223.62 355.39 223.16 352.88 222.65 C 354.53 221.61 356.17 220.57 357.83 219.54 C 357.25 218.38 356.67 217.23 356.09 216.07 C 358.07 216.24 360.05 216.41 362.03 216.58 C 362.22 213.82 363.79 211.61 365.82 209.86 C 363.07 209.13 360.31 208.24 358.01 206.52 C 358.23 205.30 358.46 204.09 358.69 202.88 C 360.66 202.81 362.64 202.74 364.62 202.69 C 363.68 197.54 363.27 191.66 356.89 190.64 C 359.65 189.14 361.01 186.41 361.54 183.44 C 364.61 185.88 368.00 184.11 370.73 182.10 C 367.85 181.43 364.95 180.92 362.04 180.48 C 367.51 177.42 373.50 175.48 379.62 174.19 C 374.10 171.36 368.15 169.31 363.09 165.65 M 378.10 189.65 C 379.43 190.45 380.77 191.24 382.11 192.03 C 382.66 191.24 383.20 190.45 383.76 189.67 C 386.04 191.54 388.40 193.34 390.89 194.95 C 391.34 188.50 382.60 185.90 378.10 189.65 M 381.62 225.20 C 384.47 227.65 387.54 229.85 391.02 231.33 C 397.05 226.44 388.06 222.92 383.93 221.80 C 383.15 222.93 382.38 224.07 381.62 225.20 M 372.56 223.63 C 372.06 226.04 371.58 228.47 371.10 230.89 C 377.00 236.07 385.40 234.43 392.36 237.62 C 387.39 230.79 378.58 229.24 372.56 223.63 Z" />
<path fill="#c0d7cd" stroke="#c0d7cd" stroke-width="0.09375" opacity="1.00" d=" M 428.60 168.89 C 429.07 169.51 429.56 170.12 430.05 170.72 C 431.27 176.87 438.04 179.23 440.64 184.63 C 436.82 183.54 434.11 180.50 430.96 178.29 C 432.53 181.92 437.79 184.43 436.49 188.72 C 434.30 185.87 431.67 183.41 429.05 180.96 C 429.00 181.63 428.90 182.95 428.85 183.61 C 427.81 180.94 426.86 178.24 425.88 175.55 C 427.26 175.64 428.65 175.73 430.04 175.83 C 427.85 173.96 425.59 172.19 423.34 170.41 C 425.06 170.85 426.77 171.31 428.50 171.75 C 428.52 171.04 428.57 169.61 428.60 168.89 Z" />
<path fill="#68297a" stroke="#68297a" stroke-width="0.09375" opacity="1.00" d=" M 262.43 180.29 C 266.07 177.19 267.47 171.76 271.93 169.75 C 275.88 171.21 278.56 175.27 274.13 178.10 C 275.29 179.43 276.45 180.74 277.62 182.06 C 274.45 183.85 271.28 186.73 267.35 185.63 C 266.87 184.01 266.59 182.36 266.48 180.69 C 265.13 180.55 263.78 180.42 262.43 180.29 Z" />
<path fill="#04845a" stroke="#04845a" stroke-width="0.09375" opacity="1.00" d=" M 324.19 178.66 C 327.73 175.19 331.75 172.13 336.51 170.58 C 335.90 171.14 334.69 172.27 334.08 172.84 C 336.40 173.45 338.74 174.05 341.02 174.86 C 340.49 174.77 339.45 174.59 338.93 174.50 C 331.50 173.60 327.40 180.41 322.16 184.25 C 321.59 183.42 321.04 182.61 320.48 181.79 C 321.72 180.75 322.98 179.73 324.19 178.66 Z" />
<path fill="#046949" stroke="#046949" stroke-width="0.09375" opacity="1.00" d=" M 338.93 174.50 C 339.45 174.59 340.49 174.77 341.02 174.86 C 344.99 176.54 348.98 178.25 353.27 178.98 C 350.33 181.03 348.67 184.19 347.54 187.49 C 352.87 189.91 354.82 196.23 360.40 198.53 C 358.07 198.77 355.75 199.04 353.43 199.35 C 355.17 200.54 356.93 201.72 358.69 202.88 C 358.46 204.09 358.23 205.30 358.01 206.52 C 356.56 205.20 355.21 203.78 353.91 202.32 C 352.09 199.96 349.58 198.33 346.89 197.13 C 346.64 196.51 346.39 195.90 346.15 195.28 C 354.07 195.65 350.49 188.81 344.88 188.32 C 345.87 186.60 346.86 184.89 347.85 183.18 C 345.53 182.62 343.22 182.05 340.87 181.67 C 341.40 180.46 341.94 179.26 342.49 178.05 C 341.29 176.87 340.11 175.69 338.93 174.50 Z" />
<path fill="#04845a" stroke="#04845a" stroke-width="0.09375" opacity="1.00" d=" M 410.70 175.86 C 411.14 175.92 412.00 176.04 412.43 176.10 C 415.45 178.62 418.84 180.67 422.57 181.98 C 422.40 181.48 422.06 180.47 421.89 179.96 C 423.09 181.10 424.23 182.32 425.29 183.60 C 425.42 186.12 425.55 188.64 425.54 191.16 C 421.69 184.89 412.83 183.20 410.70 175.86 Z" />
<path fill="#046949" stroke="#046949" stroke-width="0.09375" opacity="1.00" d=" M 412.43 176.10 C 414.93 176.32 417.46 176.77 419.68 178.03 C 420.44 178.64 421.18 179.28 421.89 179.96 C 422.06 180.47 422.40 181.48 422.57 181.98 C 418.84 180.67 415.45 178.62 412.43 176.10 Z" />
<path fill="#2e053a" stroke="#2e053a" stroke-width="0.09375" opacity="1.00" d=" M 332.28 180.35 C 335.12 180.90 337.99 181.29 340.87 181.67 C 343.22 182.05 345.53 182.62 347.85 183.18 C 346.86 184.89 345.87 186.60 344.88 188.32 C 350.49 188.81 354.07 195.65 346.15 195.28 C 344.81 195.41 343.48 195.51 342.15 195.62 C 343.35 191.60 342.52 187.63 339.08 185.05 C 338.65 185.87 338.23 186.70 337.81 187.54 C 336.12 186.08 334.44 184.62 332.75 183.17 C 332.60 182.22 332.42 181.29 332.28 180.35 Z" />
<path fill="#e8efea" stroke="#e8efea" stroke-width="0.09375" opacity="1.00" d=" M 429.05 180.96 C 431.67 183.41 434.30 185.87 436.49 188.72 C 438.47 191.76 440.91 194.45 443.18 197.27 C 441.49 196.80 439.84 196.21 438.26 195.46 C 437.68 200.54 438.40 205.05 439.10 210.19 C 435.89 205.22 433.09 199.99 429.74 195.11 C 430.41 195.21 431.74 195.41 432.41 195.50 C 431.34 193.43 430.23 191.37 429.07 189.35 C 430.58 190.01 432.09 190.67 433.62 191.31 C 432.77 188.34 431.25 185.61 428.85 183.61 C 428.90 182.95 429.00 181.63 429.05 180.96 Z" />
<path fill="#c0d7cd" stroke="#c0d7cd" stroke-width="0.09375" opacity="1.00" d=" M 425.29 183.60 C 426.25 184.79 427.18 185.99 428.14 187.20 C 428.32 186.30 428.68 184.51 428.85 183.61 C 431.25 185.61 432.77 188.34 433.62 191.31 C 432.09 190.67 430.58 190.01 429.07 189.35 C 430.23 191.37 431.34 193.43 432.41 195.50 C 431.74 195.41 430.41 195.21 429.74 195.11 C 428.79 194.27 427.83 193.43 426.91 192.56 C 426.44 192.10 425.98 191.63 425.54 191.16 C 425.55 188.64 425.42 186.12 425.29 183.60 Z" />
<path fill="#046949" stroke="#046949" stroke-width="0.09375" opacity="1.00" d=" M 378.10 189.65 C 382.60 185.90 391.34 188.50 390.89 194.95 C 388.40 193.34 386.04 191.54 383.76 189.67 C 383.20 190.45 382.66 191.24 382.11 192.03 C 380.77 191.24 379.43 190.45 378.10 189.65 Z" />
<path fill="#46b694" stroke="#46b694" stroke-width="0.09375" opacity="1.00" d=" M 426.91 192.56 C 427.83 193.43 428.79 194.27 429.74 195.11 C 433.09 199.99 435.89 205.22 439.10 210.19 C 439.45 210.72 440.16 211.79 440.51 212.33 C 439.75 212.85 439.00 213.37 438.26 213.89 C 440.99 219.32 443.95 224.65 445.98 230.40 C 443.52 228.31 441.22 226.04 439.03 223.67 C 438.64 225.80 438.25 227.94 437.85 230.07 C 435.67 227.45 434.54 224.20 433.42 221.04 C 434.14 221.21 435.58 221.55 436.30 221.72 C 434.23 216.92 430.80 212.92 428.35 208.34 C 431.08 209.90 433.70 211.67 436.28 213.47 C 433.64 207.30 431.73 200.26 426.18 195.97 C 426.42 194.83 426.66 193.69 426.91 192.56 Z" />
<path fill="#2e053a" stroke="#2e053a" stroke-width="0.09375" opacity="1.00" d=" M 341.91 206.32 C 343.71 203.34 345.37 200.27 346.89 197.13 C 349.58 198.33 352.09 199.96 353.91 202.32 C 351.91 203.21 349.92 204.10 347.90 204.96 C 348.89 205.99 349.88 207.02 350.87 208.06 C 349.95 209.30 349.03 210.54 348.11 211.78 C 346.79 210.37 345.26 208.94 345.01 206.92 C 343.98 206.71 342.94 206.52 341.91 206.32 Z" />
<path fill="#04845a" stroke="#04845a" stroke-width="0.09375" opacity="1.00" d=" M 410.68 197.74 C 417.25 198.37 421.27 205.08 424.17 210.39 C 417.72 208.52 415.27 201.92 410.68 197.74 Z" />
<path fill="#968879" stroke="#968879" stroke-width="0.09375" opacity="1.00" d=" M 160.52 216.85 C 167.61 214.09 170.49 206.42 176.15 201.85 C 171.18 212.09 162.28 219.71 153.93 227.15 C 155.63 223.49 157.59 219.64 160.52 216.85 Z" />
<path fill="#c0d7cd" stroke="#c0d7cd" stroke-width="0.09375" opacity="1.00" d=" M 440.51 212.33 C 444.09 218.75 446.93 225.75 446.75 233.24 C 444.54 231.85 442.06 230.93 439.42 231.35 C 439.03 231.03 438.24 230.39 437.85 230.07 C 438.25 227.94 438.64 225.80 439.03 223.67 C 441.22 226.04 443.52 228.31 445.98 230.40 C 443.95 224.65 440.99 219.32 438.26 213.89 C 439.00 213.37 439.75 212.85 440.51 212.33 Z" />
<path fill="#046949" stroke="#046949" stroke-width="0.09375" opacity="1.00" d=" M 381.62 225.20 C 382.38 224.07 383.15 222.93 383.93 221.80 C 388.06 222.92 397.05 226.44 391.02 231.33 C 387.54 229.85 384.47 227.65 381.62 225.20 Z" />
<path fill="#046949" stroke="#046949" stroke-width="0.09375" opacity="1.00" d=" M 372.56 223.63 C 378.58 229.24 387.39 230.79 392.36 237.62 C 385.40 234.43 377.00 236.07 371.10 230.89 C 371.58 228.47 372.06 226.04 372.56 223.63 Z" />
<path fill="#46b694" stroke="#46b694" stroke-width="0.09375" opacity="1.00" d=" M 430.61 227.44 C 433.15 228.41 433.81 230.89 433.94 233.35 C 431.92 231.97 430.72 229.90 430.61 227.44 Z" />
<path fill="#2e053a" stroke="#2e053a" stroke-width="0.09375" opacity="1.00" d=" M 142.97 231.78 C 145.71 231.15 148.47 230.60 151.21 229.98 C 148.72 240.36 146.84 250.87 144.54 261.30 C 142.24 263.96 140.53 267.09 139.85 270.56 C 139.16 273.09 138.44 275.61 137.58 278.10 C 136.89 274.93 136.51 271.71 136.28 268.48 C 132.60 273.03 129.68 284.08 122.33 277.53 C 121.74 281.60 117.25 286.72 121.44 290.03 C 120.62 293.27 121.21 296.58 121.68 299.83 C 117.78 296.80 115.22 292.41 111.18 289.56 C 111.98 291.57 112.84 293.56 113.72 295.54 C 110.82 296.79 107.69 297.39 104.57 296.65 C 104.63 301.04 104.56 305.44 104.32 309.84 C 100.63 308.24 96.83 306.92 92.88 306.11 C 90.22 316.00 78.08 316.82 72.56 324.76 C 66.82 320.02 63.02 311.46 54.21 312.41 C 48.28 314.13 50.37 321.68 52.59 325.70 C 53.49 325.18 54.38 324.65 55.28 324.13 C 60.32 326.76 61.72 332.33 60.17 337.51 C 53.28 335.25 50.38 328.05 44.85 323.92 C 42.79 330.45 39.30 336.38 37.01 342.82 C 37.84 343.62 38.66 344.42 39.48 345.23 C 41.47 343.25 42.70 339.81 45.65 339.23 C 48.58 344.87 42.69 351.03 36.84 350.73 C 36.32 349.44 35.79 348.16 35.25 346.89 C 31.35 354.46 41.78 356.07 43.15 362.60 C 39.71 362.21 36.12 358.74 32.76 360.43 C 28.26 378.70 31.18 398.65 45.05 412.16 C 63.17 413.88 77.09 432.96 96.86 432.89 C 93.99 430.00 94.25 425.92 94.47 422.19 C 88.51 428.48 80.91 426.81 74.41 422.56 C 74.53 421.39 74.66 420.22 74.78 419.07 C 73.29 419.75 71.79 420.44 70.30 421.14 C 66.22 416.64 62.29 412.02 58.56 407.24 C 62.52 404.01 65.00 399.49 68.10 395.52 C 60.99 395.99 57.54 403.16 51.66 406.23 C 51.60 404.29 51.56 402.36 51.51 400.43 C 49.33 401.67 47.15 402.90 44.96 404.14 C 46.35 401.85 47.66 399.53 48.90 397.17 C 46.72 395.02 44.52 392.89 42.24 390.86 C 45.56 387.20 50.61 385.95 54.67 383.32 C 54.65 384.93 54.64 386.55 54.63 388.17 C 60.42 384.05 65.17 378.31 72.02 375.85 C 67.56 380.74 61.87 384.36 57.87 389.70 C 58.49 390.56 59.12 391.43 59.75 392.30 C 73.89 380.50 86.10 366.52 104.42 363.00 C 103.05 365.18 101.61 367.32 100.13 369.43 C 101.36 370.05 102.59 370.67 103.82 371.30 C 102.91 372.69 101.99 374.08 101.07 375.47 C 88.58 371.82 80.31 384.68 71.48 391.11 C 71.92 392.27 72.37 393.44 72.82 394.61 C 76.19 392.98 79.93 393.19 83.43 394.22 C 77.23 396.41 73.98 405.13 66.80 404.02 C 66.99 406.15 66.86 408.32 65.81 410.24 C 68.37 411.36 70.11 413.52 71.52 415.86 C 72.14 409.66 77.51 405.58 83.08 403.83 C 81.81 397.95 88.04 396.25 92.05 393.99 C 98.54 390.93 101.95 383.06 109.91 383.13 C 110.85 380.90 111.76 378.66 112.64 376.40 C 108.93 374.65 108.00 370.81 107.58 367.10 C 110.90 364.52 113.75 361.32 117.46 359.28 C 118.48 362.05 118.83 365.48 121.76 366.93 C 123.58 365.59 125.41 364.26 127.23 362.93 C 127.28 365.20 127.33 367.47 127.39 369.74 C 129.03 369.68 130.68 369.62 132.33 369.57 C 131.98 367.66 131.64 365.74 131.31 363.83 C 139.33 357.99 149.40 357.68 158.93 360.62 C 151.00 374.10 134.44 379.60 128.05 393.97 C 126.78 400.50 118.88 410.65 130.52 411.90 C 130.20 413.27 129.88 414.65 129.57 416.04 C 127.56 415.54 125.55 415.06 123.55 414.57 C 120.20 417.61 120.71 421.75 123.20 425.14 C 125.22 423.85 127.21 422.52 129.16 421.13 C 129.42 419.46 129.69 417.80 129.97 416.14 C 135.64 415.39 137.72 410.85 134.86 405.98 C 143.43 403.96 145.19 394.19 152.53 390.11 C 156.63 399.11 145.12 404.07 146.32 413.70 C 154.56 413.14 160.20 406.55 167.54 403.78 C 166.97 401.54 166.40 399.31 165.83 397.08 C 163.98 397.70 162.12 398.32 160.27 398.94 C 161.84 395.34 163.42 391.73 164.87 388.08 C 161.38 387.50 159.83 384.24 158.79 381.22 C 160.32 378.88 161.83 376.53 163.33 374.18 C 148.56 377.51 146.36 394.05 135.68 401.75 C 135.23 392.82 138.35 382.78 147.79 379.57 C 146.95 378.92 146.11 378.27 145.27 377.62 C 150.09 375.77 158.02 374.20 156.46 367.24 C 161.98 364.64 165.06 359.74 172.26 361.74 C 171.61 364.00 171.00 366.26 170.45 368.55 C 176.78 366.04 176.96 357.93 173.38 353.05 C 172.76 353.75 172.15 354.46 171.54 355.17 C 168.61 354.84 166.05 353.33 164.64 350.66 C 164.13 351.66 163.61 352.65 163.10 353.65 C 157.34 350.39 150.75 349.34 144.50 347.43 C 145.37 346.27 146.24 345.12 147.11 343.97 C 146.93 342.72 146.76 341.48 146.58 340.25 C 148.16 339.46 149.73 338.67 151.32 337.90 C 147.99 337.13 143.28 335.88 144.24 331.43 C 152.91 337.50 162.97 341.42 173.17 344.09 C 193.87 350.17 215.24 353.86 236.75 355.43 C 249.81 356.74 263.03 356.98 276.13 356.32 C 276.52 357.04 276.91 357.79 277.30 358.54 C 277.82 359.56 278.36 360.58 278.90 361.60 C 274.59 365.14 270.29 361.35 266.76 358.67 C 265.03 359.48 264.12 360.93 264.04 362.82 C 265.64 364.93 267.08 367.15 268.42 369.44 C 266.62 369.55 264.83 369.66 263.04 369.78 C 263.79 369.23 264.54 368.69 265.29 368.15 C 257.49 364.86 249.15 365.43 241.11 367.44 C 237.23 358.63 229.40 365.72 223.21 366.83 C 223.10 369.97 224.37 372.77 226.59 374.96 C 224.35 374.40 222.10 373.86 219.85 373.36 C 220.73 375.80 221.93 378.12 223.41 380.27 C 220.63 384.29 217.90 388.48 217.11 393.40 C 219.28 392.95 221.44 392.50 223.62 392.08 C 219.49 383.67 227.18 381.33 231.22 375.68 C 234.08 375.93 236.94 376.27 239.77 376.74 C 238.53 388.37 253.43 388.65 260.55 383.80 C 260.67 388.31 262.17 392.61 262.90 397.04 C 267.97 394.42 273.52 392.32 278.71 395.97 C 278.57 398.13 278.42 400.29 278.28 402.45 C 279.82 402.85 281.36 403.25 282.91 403.66 C 280.14 406.92 278.49 413.61 283.15 415.95 C 284.61 428.04 293.35 436.63 301.03 445.11 C 294.66 447.37 287.73 445.36 281.12 445.21 C 280.73 445.69 279.95 446.67 279.55 447.15 C 280.71 447.67 281.88 448.20 283.04 448.73 C 280.51 448.60 277.98 448.49 275.45 448.38 C 274.95 449.22 274.45 450.07 273.95 450.92 C 299.50 451.56 324.89 446.07 347.73 434.86 C 342.51 431.81 343.10 424.92 341.33 419.85 C 344.71 423.51 346.94 428.10 350.78 431.35 C 350.19 432.34 349.60 433.33 349.03 434.33 C 384.99 419.79 418.83 400.03 451.31 379.04 C 452.74 378.93 454.15 379.27 455.56 379.48 C 453.04 375.57 457.86 373.48 460.08 371.07 C 467.38 363.71 474.35 355.61 484.30 351.91 C 486.12 352.50 487.94 353.10 489.76 353.71 C 489.72 350.14 489.55 346.57 489.32 343.00 C 492.01 343.42 494.68 343.97 497.30 344.73 C 498.90 343.42 500.49 342.12 502.11 340.85 C 487.62 366.43 459.57 381.62 438.01 401.19 C 426.18 406.84 415.89 417.14 402.73 419.18 C 403.27 419.50 404.35 420.16 404.89 420.48 C 402.00 422.27 399.28 424.31 396.79 426.62 C 378.26 436.72 358.47 444.41 338.66 451.68 C 309.45 462.67 277.83 462.56 247.13 464.40 C 215.03 466.10 182.69 466.77 150.80 461.95 C 152.10 461.95 153.41 461.94 154.71 461.92 C 153.35 459.83 152.01 457.71 150.70 455.58 C 146.91 457.44 143.02 459.26 138.80 459.93 C 106.49 453.36 73.12 446.39 45.54 427.23 C 46.43 426.47 47.32 425.71 48.21 424.95 C 46.79 423.66 45.37 422.37 43.96 421.08 C 42.65 421.84 41.34 422.60 40.03 423.36 C 13.19 406.43 9.44 370.18 19.51 342.42 L 19.59 342.38 C 23.51 341.03 26.22 337.87 28.64 334.67 C 27.41 332.33 26.01 330.10 24.45 327.98 C 46.27 279.14 92.77 246.60 142.97 231.78 M 186.13 351.77 C 185.17 354.32 184.28 356.91 183.42 359.51 C 182.28 359.78 181.14 360.06 180.00 360.35 C 180.17 362.56 180.44 364.79 181.26 366.88 C 185.83 363.96 191.72 365.62 195.82 361.96 C 193.06 360.30 189.88 359.22 186.75 360.57 C 188.57 357.61 188.89 354.27 186.13 351.77 M 114.33 386.17 C 105.42 388.54 98.33 394.74 91.94 401.11 C 97.16 400.43 101.99 405.08 106.87 402.00 C 111.70 406.24 115.47 399.62 120.50 400.43 C 119.49 395.89 121.48 391.62 124.80 388.57 C 124.50 387.33 124.20 386.10 123.90 384.87 C 128.53 380.33 136.31 377.68 135.98 369.96 C 126.81 372.19 120.17 379.27 114.33 386.17 M 182.19 391.72 C 182.39 390.62 182.59 389.52 182.80 388.43 C 181.22 388.88 179.64 389.32 178.05 389.77 C 179.95 392.19 180.72 395.13 180.67 398.18 C 182.60 398.75 184.54 399.30 186.48 399.85 C 186.37 395.43 188.65 391.57 189.58 387.40 C 186.82 384.45 184.79 390.77 182.19 391.72 M 199.16 396.05 C 201.08 398.64 201.15 401.72 200.19 404.72 C 200.81 404.70 202.05 404.67 202.66 404.66 C 203.43 402.32 204.38 400.06 205.56 397.91 C 203.63 396.69 201.42 396.15 199.16 396.05 M 82.06 406.37 C 82.23 409.10 83.01 411.72 84.45 414.06 C 81.52 415.87 79.66 418.73 79.15 422.14 C 83.66 419.87 86.47 415.60 88.58 411.17 C 87.50 409.72 86.68 408.10 86.22 406.35 C 84.83 406.35 83.44 406.35 82.06 406.37 M 251.97 418.89 C 253.30 414.79 253.53 410.64 250.46 407.21 C 244.50 409.79 245.33 418.05 251.97 418.89 M 178.22 416.86 C 181.57 416.03 184.80 414.71 187.39 412.37 C 188.31 414.21 189.20 416.05 190.07 417.91 C 192.99 417.06 195.27 415.18 196.07 412.17 C 189.25 407.37 181.84 408.42 178.22 416.86 M 269.38 415.89 C 266.58 415.88 263.71 415.54 261.97 413.08 C 261.57 414.08 261.17 415.08 260.77 416.09 C 265.71 417.60 267.09 422.56 268.06 427.06 C 268.93 426.80 269.81 426.55 270.69 426.31 C 270.76 427.64 270.83 428.97 270.92 430.31 C 280.88 428.59 272.11 398.81 269.38 415.89 M 98.64 432.92 C 99.58 434.09 100.53 435.26 101.48 436.42 C 104.69 436.56 107.89 436.83 111.04 437.46 C 111.25 437.11 111.66 436.43 111.87 436.08 C 107.70 434.29 103.35 431.54 98.64 432.92 Z" />
<path fill="#968879" stroke="#968879" stroke-width="0.09375" opacity="1.00" d=" M 439.42 231.35 C 442.06 230.93 444.54 231.85 446.75 233.24 C 447.57 233.70 448.39 234.17 449.21 234.65 C 448.28 235.54 447.35 236.44 446.43 237.34 C 445.35 236.38 444.29 235.42 443.21 234.49 C 441.96 233.42 440.69 232.38 439.42 231.35 Z" />
<path fill="#46b694" stroke="#46b694" stroke-width="0.09375" opacity="1.00" d=" M 358.21 232.13 C 358.63 232.42 359.07 232.73 359.51 233.04 C 357.86 234.35 356.45 235.93 355.87 238.00 C 353.71 237.56 351.52 237.37 349.34 237.17 C 349.71 236.21 350.09 235.25 350.47 234.30 C 352.00 234.79 353.53 235.28 355.06 235.77 C 356.11 234.55 357.16 233.34 358.21 232.13 Z" />
<path fill="#2e053a" stroke="#2e053a" stroke-width="0.09375" opacity="1.00" d=" M 443.21 234.49 C 444.29 235.42 445.35 236.38 446.43 237.34 C 456.23 236.19 461.69 246.03 470.87 247.05 C 484.34 255.61 511.12 262.18 504.71 283.42 C 510.42 296.47 503.04 310.83 500.33 324.51 C 489.95 339.98 475.75 352.76 461.71 364.89 C 456.80 360.80 445.47 360.46 447.61 351.81 C 449.47 343.70 443.94 336.17 438.22 331.02 C 424.37 352.11 395.44 349.79 373.78 355.97 C 380.92 365.16 390.36 372.73 395.71 383.23 C 398.56 390.42 399.72 398.64 405.84 404.06 C 403.61 405.21 401.38 406.33 399.13 407.41 C 399.64 396.47 390.44 389.57 387.96 379.67 C 383.11 367.82 374.46 349.89 358.91 355.74 C 359.73 354.75 360.56 353.75 361.39 352.77 C 375.75 352.77 389.78 349.31 403.95 347.44 C 409.94 346.83 415.32 343.99 420.95 342.09 C 428.79 340.17 438.81 334.01 435.56 324.50 C 435.01 312.44 433.80 300.26 435.57 288.16 C 433.78 285.64 431.63 283.42 429.31 281.39 C 431.06 280.53 432.90 281.11 434.63 281.66 C 434.10 279.34 433.73 276.98 433.41 274.63 C 434.07 275.06 435.39 275.93 436.05 276.37 C 436.30 272.74 437.43 269.30 438.92 266.01 C 439.15 267.40 439.37 268.79 439.60 270.18 C 439.56 269.21 439.47 267.25 439.42 266.27 C 440.89 266.39 442.36 266.51 443.83 266.64 C 443.23 265.33 442.62 264.02 442.03 262.72 C 443.22 261.35 444.44 260.01 445.67 258.67 C 442.94 255.56 440.02 252.59 437.73 249.12 C 442.12 252.35 447.39 253.31 452.67 251.90 C 452.58 250.91 452.50 249.92 452.42 248.93 C 444.15 248.83 444.31 240.50 443.21 234.49 Z" />
<path fill="#68297a" stroke="#68297a" stroke-width="0.09375" opacity="1.00" d=" M 446.43 237.34 C 447.35 236.44 448.28 235.54 449.21 234.65 C 469.70 242.97 490.54 251.35 508.63 264.32 C 519.24 272.30 529.44 284.78 525.43 298.99 C 519.37 315.61 514.01 332.95 503.16 347.25 C 486.18 383.07 449.84 402.88 415.92 419.82 C 409.67 422.33 403.53 425.98 396.79 426.62 C 399.28 424.31 402.00 422.27 404.89 420.48 C 404.35 420.16 403.27 419.50 402.73 419.18 C 415.89 417.14 426.18 406.84 438.01 401.19 C 459.57 381.62 487.62 366.43 502.11 340.85 C 500.49 342.12 498.90 343.42 497.30 344.73 C 494.68 343.97 492.01 343.42 489.32 343.00 C 489.55 346.57 489.72 350.14 489.76 353.71 C 487.94 353.10 486.12 352.50 484.30 351.91 C 474.35 355.61 467.38 363.71 460.08 371.07 C 457.86 373.48 453.04 375.57 455.56 379.48 C 454.15 379.27 452.74 378.93 451.31 379.04 C 418.83 400.03 384.99 419.79 349.03 434.33 C 349.60 433.33 350.19 432.34 350.78 431.35 C 346.94 428.10 344.71 423.51 341.33 419.85 C 343.10 424.92 342.51 431.81 347.73 434.86 C 324.89 446.07 299.50 451.56 273.95 450.92 C 274.45 450.07 274.95 449.22 275.45 448.38 C 277.98 448.49 280.51 448.60 283.04 448.73 C 281.88 448.20 280.71 447.67 279.55 447.15 C 279.95 446.67 280.73 445.69 281.12 445.21 C 287.73 445.36 294.66 447.37 301.03 445.11 C 293.35 436.63 284.61 428.04 283.15 415.95 C 278.49 413.61 280.14 406.92 282.91 403.66 C 281.36 403.25 279.82 402.85 278.28 402.45 C 278.42 400.29 278.57 398.13 278.71 395.97 C 273.52 392.32 267.97 394.42 262.90 397.04 C 262.17 392.61 260.67 388.31 260.55 383.80 C 253.43 388.65 238.53 388.37 239.77 376.74 C 236.94 376.27 234.08 375.93 231.22 375.68 C 227.18 381.33 219.49 383.67 223.62 392.08 C 221.44 392.50 219.28 392.95 217.11 393.40 C 217.90 388.48 220.63 384.29 223.41 380.27 C 221.93 378.12 220.73 375.80 219.85 373.36 C 222.10 373.86 224.35 374.40 226.59 374.96 C 224.37 372.77 223.10 369.97 223.21 366.83 C 229.40 365.72 237.23 358.63 241.11 367.44 C 249.15 365.43 257.49 364.86 265.29 368.15 C 264.54 368.69 263.79 369.23 263.04 369.78 C 264.83 369.66 266.62 369.55 268.42 369.44 C 267.08 367.15 265.64 364.93 264.04 362.82 C 264.12 360.93 265.03 359.48 266.76 358.67 C 270.29 361.35 274.59 365.14 278.90 361.60 C 278.36 360.58 277.82 359.56 277.30 358.54 C 304.56 358.59 331.55 356.21 358.91 355.74 C 374.46 349.89 383.11 367.82 387.96 379.67 C 390.44 389.57 399.64 396.47 399.13 407.41 C 401.38 406.33 403.61 405.21 405.84 404.06 C 399.72 398.64 398.56 390.42 395.71 383.23 C 390.36 372.73 380.92 365.16 373.78 355.97 C 395.44 349.79 424.37 352.11 438.22 331.02 C 443.94 336.17 449.47 343.70 447.61 351.81 C 445.47 360.46 456.80 360.80 461.71 364.89 C 475.75 352.76 489.95 339.98 500.33 324.51 C 503.04 310.83 510.42 296.47 504.71 283.42 C 511.12 262.18 484.34 255.61 470.87 247.05 C 461.69 246.03 456.23 236.19 446.43 237.34 M 272.41 365.59 C 271.64 370.78 278.58 368.05 281.69 368.58 C 281.28 367.53 280.88 366.47 280.48 365.43 C 277.79 365.43 275.10 365.50 272.41 365.59 M 350.64 372.83 C 352.38 384.21 355.97 396.80 362.82 406.30 C 362.92 405.75 363.14 404.65 363.24 404.11 C 364.43 403.94 365.62 403.95 366.82 404.13 C 366.93 405.00 367.04 405.88 367.15 406.77 C 369.58 400.93 382.91 404.11 374.19 395.41 C 371.85 399.40 368.09 396.56 365.84 394.13 C 365.35 396.99 365.29 399.90 365.70 402.79 C 365.07 402.88 363.81 403.06 363.18 403.15 C 362.83 400.03 361.80 397.04 359.12 395.19 C 359.24 393.49 359.33 391.80 359.38 390.11 C 364.12 391.48 363.95 384.81 359.85 383.93 C 360.01 382.90 360.17 381.89 360.35 380.87 C 357.50 381.05 355.12 379.50 352.98 377.83 C 354.32 377.22 355.66 376.63 357.02 376.04 C 355.03 374.71 352.88 373.66 350.64 372.83 M 279.24 377.14 C 280.10 377.83 280.96 378.52 281.82 379.22 C 281.59 384.65 285.08 389.46 284.31 394.85 C 288.26 399.00 291.62 405.98 288.41 411.37 C 289.63 411.83 290.85 412.30 292.07 412.77 C 291.11 413.55 290.14 414.33 289.18 415.12 C 293.86 418.72 293.27 424.56 294.29 429.57 C 300.87 433.58 305.77 439.50 311.11 444.92 C 314.08 444.43 316.89 443.04 318.30 440.25 C 316.78 440.33 315.29 440.44 313.78 440.55 C 310.95 432.00 298.70 430.55 298.07 420.84 C 295.65 414.52 297.18 406.82 292.40 401.62 C 284.86 393.38 296.62 376.85 282.03 373.55 C 281.10 374.75 280.17 375.95 279.24 377.14 M 296.21 376.16 C 298.25 386.20 299.88 394.13 303.27 403.67 C 305.97 405.24 309.59 407.24 307.42 410.88 C 308.68 410.64 309.95 410.41 311.22 410.19 C 312.69 407.92 314.26 405.71 316.07 403.70 C 317.19 403.70 318.31 403.72 319.43 403.75 C 318.01 401.34 318.59 398.34 317.23 395.88 C 315.96 395.57 314.70 395.24 313.45 394.91 C 313.18 393.63 312.92 392.34 312.66 391.06 C 311.31 393.10 309.88 395.12 308.03 396.75 C 301.46 391.60 304.49 378.26 296.21 376.16 M 330.31 390.86 C 333.89 397.34 335.42 404.60 337.64 411.59 C 338.72 411.58 339.79 411.58 340.88 411.59 C 336.91 404.29 339.84 394.69 330.31 390.86 M 345.39 400.62 C 345.67 406.80 348.50 414.16 355.07 415.92 C 351.80 410.82 348.10 406.08 345.39 400.62 M 311.67 426.04 C 312.63 424.61 313.59 423.19 314.55 421.77 C 318.04 426.31 317.27 431.52 317.14 436.69 C 318.25 437.00 319.36 437.31 320.48 437.64 C 320.85 438.90 321.23 440.17 321.62 441.44 C 325.26 440.77 329.25 440.94 332.41 438.71 C 333.33 434.91 331.25 431.58 329.67 428.31 C 328.54 428.36 327.42 428.41 326.30 428.48 C 323.14 424.54 321.75 419.60 319.07 415.38 C 316.74 416.09 314.44 416.89 312.19 417.82 C 310.96 416.96 309.74 416.08 308.51 415.24 C 306.73 419.16 309.59 422.90 311.67 426.04 Z" />
<path fill="#046949" stroke="#046949" stroke-width="0.09375" opacity="1.00" d=" M 359.86 239.03 C 367.92 235.51 377.06 237.15 384.95 240.32 C 382.81 241.04 380.68 241.78 378.56 242.53 C 383.40 242.89 388.25 243.14 393.09 243.63 C 391.16 259.99 389.52 276.43 386.29 292.55 C 386.28 292.88 386.27 293.54 386.27 293.87 C 383.40 294.22 380.53 294.52 377.70 295.07 C 368.90 292.92 363.77 286.57 360.74 277.81 C 362.60 277.68 364.45 277.53 366.32 277.37 C 364.77 274.35 361.96 272.77 358.62 272.63 C 358.83 271.14 359.06 269.66 359.28 268.18 C 360.89 265.67 362.78 263.35 364.70 261.07 C 363.50 259.65 362.30 258.23 361.09 256.83 L 362.47 256.76 C 365.42 256.81 368.36 256.31 371.03 255.01 C 369.58 254.07 368.14 253.14 366.70 252.22 C 367.55 252.00 369.26 251.57 370.12 251.35 C 366.26 249.11 362.05 247.42 357.59 246.90 C 358.57 244.35 359.26 241.70 359.86 239.03 M 363.49 267.02 C 363.37 268.61 363.25 270.21 363.13 271.81 C 365.36 271.25 367.61 270.74 369.88 270.32 C 367.72 269.26 365.59 268.15 363.49 267.02 Z" />
<path fill="#2e053a" stroke="#2e053a" stroke-width="0.09375" opacity="1.00" d=" M 165.48 245.81 C 167.18 247.59 168.93 249.34 170.72 251.04 C 168.54 251.33 166.36 251.62 164.18 251.90 C 164.55 249.86 164.99 247.83 165.48 245.81 Z" />
<path fill="#2e053a" stroke="#2e053a" stroke-width="0.09375" opacity="1.00" d=" M 355.25 247.14 C 355.84 247.08 357.01 246.96 357.59 246.90 C 362.05 247.42 366.26 249.11 370.12 251.35 C 369.26 251.57 367.55 252.00 366.70 252.22 C 368.14 253.14 369.58 254.07 371.03 255.01 C 368.36 256.31 365.42 256.81 362.47 256.76 C 362.86 255.51 363.25 254.28 363.65 253.04 C 360.58 251.47 357.77 249.48 355.25 247.14 Z" />
<path fill="#046949" stroke="#046949" stroke-width="0.09375" opacity="1.00" d=" M 404.01 250.74 C 408.70 247.05 413.11 252.70 416.40 255.62 C 422.12 261.81 430.24 266.56 433.41 274.63 C 433.73 276.98 434.10 279.34 434.63 281.66 C 432.90 281.11 431.06 280.53 429.31 281.39 C 428.42 280.46 427.48 279.57 426.57 278.66 C 428.35 278.39 430.12 278.11 431.91 277.84 C 429.29 266.87 417.53 263.11 409.02 257.64 C 410.34 256.84 411.66 256.04 412.98 255.23 C 409.93 253.85 406.92 252.39 404.01 250.74 Z" />
<path fill="#2e053a" stroke="#2e053a" stroke-width="0.09375" opacity="1.00" d=" M 359.28 268.18 C 359.62 264.37 358.70 260.14 361.09 256.83 C 362.30 258.23 363.50 259.65 364.70 261.07 C 362.78 263.35 360.89 265.67 359.28 268.18 Z" />
<path fill="#c0d7cd" stroke="#c0d7cd" stroke-width="0.09375" opacity="1.00" d=" M 139.85 270.56 C 140.53 267.09 142.24 263.96 144.54 261.30 C 144.23 263.13 143.84 264.96 143.36 266.76 C 142.84 268.56 142.30 270.37 141.77 272.18 C 141.46 273.16 141.15 274.15 140.84 275.15 C 140.49 273.62 140.16 272.09 139.85 270.56 Z" />
<path fill="#2e053a" stroke="#2e053a" stroke-width="0.09375" opacity="1.00" d=" M 143.36 266.76 C 144.65 284.48 160.58 298.11 177.02 302.28 C 181.14 302.33 183.16 298.30 186.18 296.24 C 193.98 296.99 200.01 303.32 202.90 310.28 C 202.25 310.12 200.95 309.81 200.30 309.65 C 181.12 305.28 158.55 301.47 147.08 283.54 C 146.42 282.19 145.84 280.81 145.25 279.44 C 144.19 276.97 143.03 274.54 141.77 272.18 C 142.30 270.37 142.84 268.56 143.36 266.76 Z" />
<path fill="#2e053a" stroke="#2e053a" stroke-width="0.09375" opacity="1.00" d=" M 363.49 267.02 C 365.59 268.15 367.72 269.26 369.88 270.32 C 367.61 270.74 365.36 271.25 363.13 271.81 C 363.25 270.21 363.37 268.61 363.49 267.02 Z" />
<path fill="#68297a" stroke="#68297a" stroke-width="0.09375" opacity="1.00" d=" M 122.33 277.53 C 129.68 284.08 132.60 273.03 136.28 268.48 C 136.51 271.71 136.89 274.93 137.58 278.10 C 135.95 282.07 136.07 286.44 137.55 290.45 C 137.63 290.76 137.79 291.39 137.87 291.70 C 134.98 300.07 126.47 307.86 131.86 317.31 C 133.28 319.66 134.91 321.87 136.60 324.03 C 138.77 326.85 141.47 329.20 144.24 331.43 C 143.28 335.88 147.99 337.13 151.32 337.90 C 149.73 338.67 148.16 339.46 146.58 340.25 C 146.76 341.48 146.93 342.72 147.11 343.97 C 146.24 345.12 145.37 346.27 144.50 347.43 C 150.75 349.34 157.34 350.39 163.10 353.65 C 163.61 352.65 164.13 351.66 164.64 350.66 C 166.05 353.33 168.61 354.84 171.54 355.17 C 172.15 354.46 172.76 353.75 173.38 353.05 C 176.96 357.93 176.78 366.04 170.45 368.55 C 171.00 366.26 171.61 364.00 172.26 361.74 C 165.06 359.74 161.98 364.64 156.46 367.24 C 158.02 374.20 150.09 375.77 145.27 377.62 C 146.11 378.27 146.95 378.92 147.79 379.57 C 138.35 382.78 135.23 392.82 135.68 401.75 C 146.36 394.05 148.56 377.51 163.33 374.18 C 161.83 376.53 160.32 378.88 158.79 381.22 C 159.83 384.24 161.38 387.50 164.87 388.08 C 163.42 391.73 161.84 395.34 160.27 398.94 C 162.12 398.32 163.98 397.70 165.83 397.08 C 166.40 399.31 166.97 401.54 167.54 403.78 C 160.20 406.55 154.56 413.14 146.32 413.70 C 145.12 404.07 156.63 399.11 152.53 390.11 C 145.19 394.19 143.43 403.96 134.86 405.98 C 137.72 410.85 135.64 415.39 129.97 416.14 C 129.69 417.80 129.42 419.46 129.16 421.13 C 127.21 422.52 125.22 423.85 123.20 425.14 C 120.71 421.75 120.20 417.61 123.55 414.57 C 125.55 415.06 127.56 415.54 129.57 416.04 C 129.88 414.65 130.20 413.27 130.52 411.90 C 118.88 410.65 126.78 400.50 128.05 393.97 C 134.44 379.60 151.00 374.10 158.93 360.62 C 149.40 357.68 139.33 357.99 131.31 363.83 C 131.64 365.74 131.98 367.66 132.33 369.57 C 130.68 369.62 129.03 369.68 127.39 369.74 C 127.33 367.47 127.28 365.20 127.23 362.93 C 125.41 364.26 123.58 365.59 121.76 366.93 C 118.83 365.48 118.48 362.05 117.46 359.28 C 113.75 361.32 110.90 364.52 107.58 367.10 C 108.00 370.81 108.93 374.65 112.64 376.40 C 111.76 378.66 110.85 380.90 109.91 383.13 C 101.95 383.06 98.54 390.93 92.05 393.99 C 88.04 396.25 81.81 397.95 83.08 403.83 C 77.51 405.58 72.14 409.66 71.52 415.86 C 70.11 413.52 68.37 411.36 65.81 410.24 C 66.86 408.32 66.99 406.15 66.80 404.02 C 73.98 405.13 77.23 396.41 83.43 394.22 C 79.93 393.19 76.19 392.98 72.82 394.61 C 72.37 393.44 71.92 392.27 71.48 391.11 C 80.31 384.68 88.58 371.82 101.07 375.47 C 101.99 374.08 102.91 372.69 103.82 371.30 C 102.59 370.67 101.36 370.05 100.13 369.43 C 101.61 367.32 103.05 365.18 104.42 363.00 C 86.10 366.52 73.89 380.50 59.75 392.30 C 59.12 391.43 58.49 390.56 57.87 389.70 C 61.87 384.36 67.56 380.74 72.02 375.85 C 65.17 378.31 60.42 384.05 54.63 388.17 C 54.64 386.55 54.65 384.93 54.67 383.32 C 50.61 385.95 45.56 387.20 42.24 390.86 C 44.52 392.89 46.72 395.02 48.90 397.17 C 47.66 399.53 46.35 401.85 44.96 404.14 C 47.15 402.90 49.33 401.67 51.51 400.43 C 51.56 402.36 51.60 404.29 51.66 406.23 C 57.54 403.16 60.99 395.99 68.10 395.52 C 65.00 399.49 62.52 404.01 58.56 407.24 C 62.29 412.02 66.22 416.64 70.30 421.14 C 71.79 420.44 73.29 419.75 74.78 419.07 C 74.66 420.22 74.53 421.39 74.41 422.56 C 80.91 426.81 88.51 428.48 94.47 422.19 C 94.25 425.92 93.99 430.00 96.86 432.89 C 77.09 432.96 63.17 413.88 45.05 412.16 C 31.18 398.65 28.26 378.70 32.76 360.43 C 36.12 358.74 39.71 362.21 43.15 362.60 C 41.78 356.07 31.35 354.46 35.25 346.89 C 35.79 348.16 36.32 349.44 36.84 350.73 C 42.69 351.03 48.58 344.87 45.65 339.23 C 42.70 339.81 41.47 343.25 39.48 345.23 C 38.66 344.42 37.84 343.62 37.01 342.82 C 39.30 336.38 42.79 330.45 44.85 323.92 C 50.38 328.05 53.28 335.25 60.17 337.51 C 61.72 332.33 60.32 326.76 55.28 324.13 C 54.38 324.65 53.49 325.18 52.59 325.70 C 50.37 321.68 48.28 314.13 54.21 312.41 C 63.02 311.46 66.82 320.02 72.56 324.76 C 78.08 316.82 90.22 316.00 92.88 306.11 C 96.83 306.92 100.63 308.24 104.32 309.84 C 104.56 305.44 104.63 301.04 104.57 296.65 C 107.69 297.39 110.82 296.79 113.72 295.54 C 112.84 293.56 111.98 291.57 111.18 289.56 C 115.22 292.41 117.78 296.80 121.68 299.83 C 121.21 296.58 120.62 293.27 121.44 290.03 C 117.25 286.72 121.74 281.60 122.33 277.53 M 91.18 322.32 C 92.10 323.03 93.02 323.75 93.95 324.47 C 87.09 325.43 84.26 331.36 81.94 337.08 C 92.28 333.67 99.73 325.22 107.44 317.98 C 101.19 315.19 97.22 322.11 91.18 322.32 M 36.06 384.82 C 38.08 384.73 40.11 384.69 42.14 384.67 C 41.91 385.22 41.46 386.33 41.23 386.89 C 44.12 386.94 48.32 386.11 47.21 382.24 C 50.00 381.75 52.54 380.46 54.31 378.21 C 47.92 379.50 41.48 381.03 36.06 384.82 Z" />
<path fill="#837b62" stroke="#837b62" stroke-width="0.09375" opacity="1.00" d=" M 137.58 278.10 C 138.44 275.61 139.16 273.09 139.85 270.56 C 140.16 272.09 140.49 273.62 140.84 275.15 C 141.15 274.15 141.46 273.16 141.77 272.18 C 143.03 274.54 144.19 276.97 145.25 279.44 C 143.26 279.24 141.26 279.17 139.27 279.29 C 138.85 278.99 138.00 278.39 137.58 278.10 Z" />
<path fill="#2e053a" stroke="#2e053a" stroke-width="0.09375" opacity="1.00" d=" M 356.14 272.17 C 356.97 272.32 357.79 272.47 358.62 272.63 C 361.96 272.77 364.77 274.35 366.32 277.37 C 364.45 277.53 362.60 277.68 360.74 277.81 C 363.77 286.57 368.90 292.92 377.70 295.07 C 375.15 295.69 372.65 296.48 370.12 297.17 C 370.35 296.04 370.58 294.91 370.82 293.79 C 370.07 294.73 369.33 295.68 368.60 296.63 C 359.93 290.84 360.44 280.52 356.14 272.17 Z" />
<path fill="#968879" stroke="#968879" stroke-width="0.09375" opacity="1.00" d=" M 137.58 278.10 C 138.00 278.39 138.85 278.99 139.27 279.29 C 139.56 283.04 142.11 288.32 137.55 290.45 C 136.07 286.44 135.95 282.07 137.58 278.10 Z" />
<path fill="#605741" stroke="#605741" stroke-width="0.09375" opacity="1.00" d=" M 139.27 279.29 C 141.26 279.17 143.26 279.24 145.25 279.44 C 145.84 280.81 146.42 282.19 147.08 283.54 C 141.51 287.33 145.26 294.11 148.77 297.90 C 156.89 301.35 164.39 306.13 171.60 311.18 C 165.01 310.14 158.97 307.17 153.14 304.08 C 154.08 305.53 155.01 307.00 155.90 308.49 C 151.07 305.79 148.64 300.53 144.39 297.12 C 143.48 303.43 147.41 307.71 152.56 310.77 C 149.16 310.37 145.85 309.48 142.69 308.19 C 140.22 313.68 145.28 318.96 143.22 324.68 C 141.20 323.66 139.15 322.67 137.08 321.75 C 136.96 322.32 136.72 323.46 136.60 324.03 C 134.91 321.87 133.28 319.66 131.86 317.31 C 132.40 308.41 138.20 300.34 137.87 291.70 C 137.79 291.39 137.63 290.76 137.55 290.45 C 142.11 288.32 139.56 283.04 139.27 279.29 Z" />
<path fill="#968879" stroke="#968879" stroke-width="0.09375" opacity="1.00" d=" M 429.31 281.39 C 431.63 283.42 433.78 285.64 435.57 288.16 C 434.13 290.17 432.74 292.21 431.17 294.12 C 428.54 294.56 425.91 295.04 423.29 295.54 C 423.81 294.60 424.33 293.66 424.85 292.73 C 428.06 293.17 430.20 290.86 432.00 288.57 C 431.38 286.08 430.54 283.64 429.31 281.39 Z" />
<path fill="#837b62" stroke="#837b62" stroke-width="0.09375" opacity="1.00" d=" M 148.77 297.90 C 145.26 294.11 141.51 287.33 147.08 283.54 C 158.55 301.47 181.12 305.28 200.30 309.65 C 199.30 310.67 198.31 311.69 197.32 312.72 C 199.76 313.71 202.30 314.62 204.24 316.46 C 209.89 314.64 216.40 316.79 220.54 320.88 C 215.81 320.92 210.76 319.60 206.36 322.00 C 209.50 323.91 213.16 324.20 216.70 323.52 C 217.32 324.44 217.94 325.37 218.57 326.31 C 203.95 326.34 189.98 321.78 175.70 319.55 C 176.74 328.41 192.90 322.18 187.78 333.15 C 186.62 331.57 185.49 329.99 184.39 328.38 C 181.63 328.46 179.55 330.32 177.57 332.02 C 178.94 332.74 180.32 333.45 181.70 334.17 C 180.35 336.42 179.53 338.94 180.88 341.44 C 178.99 340.46 177.53 338.94 176.72 336.96 C 176.43 338.45 176.13 339.94 175.83 341.43 C 174.07 341.75 172.31 342.11 170.55 342.46 C 171.41 343.01 172.29 343.56 173.17 344.09 C 162.97 341.42 152.91 337.50 144.24 331.43 C 141.47 329.20 138.77 326.85 136.60 324.03 C 136.72 323.46 136.96 322.32 137.08 321.75 C 139.15 322.67 141.20 323.66 143.22 324.68 C 145.28 318.96 140.22 313.68 142.69 308.19 C 145.85 309.48 149.16 310.37 152.56 310.77 C 147.41 307.71 143.48 303.43 144.39 297.12 C 148.64 300.53 151.07 305.79 155.90 308.49 C 155.01 307.00 154.08 305.53 153.14 304.08 C 158.97 307.17 165.01 310.14 171.60 311.18 C 164.39 306.13 156.89 301.35 148.77 297.90 M 173.27 311.75 C 178.65 315.89 185.90 316.10 192.40 316.65 C 186.73 313.49 179.75 311.85 173.27 311.75 Z" />
<path fill="#2e053a" stroke="#2e053a" stroke-width="0.09375" opacity="1.00" d=" M 423.64 292.83 C 424.66 290.85 425.72 288.90 426.80 286.96 C 428.53 287.50 430.26 288.03 432.00 288.57 C 430.20 290.86 428.06 293.17 424.85 292.73 L 423.64 292.83 Z" />
<path fill="#42352d" stroke="#42352d" stroke-width="0.09375" opacity="1.00" d=" M 435.57 288.16 C 433.80 300.26 435.01 312.44 435.56 324.50 C 438.81 334.01 428.79 340.17 420.95 342.09 C 423.17 340.49 424.96 338.39 426.59 336.21 C 420.77 336.36 415.15 337.97 409.80 340.15 C 402.82 341.87 395.62 342.23 388.53 343.22 C 390.33 336.71 398.31 336.76 403.46 334.57 C 400.12 332.22 396.04 331.76 392.07 331.74 C 393.85 328.85 395.80 326.05 398.11 323.57 C 397.67 325.47 397.21 327.38 396.70 329.27 C 399.88 327.17 403.16 325.22 406.39 323.17 C 404.40 322.34 402.41 321.49 400.45 320.61 C 402.80 319.65 405.33 319.35 407.73 320.35 C 404.86 316.00 409.22 311.93 411.18 308.23 C 416.56 309.88 423.39 309.17 425.46 303.05 C 412.99 304.20 399.71 309.99 387.38 306.41 C 393.21 304.19 399.27 302.44 404.64 299.17 C 413.46 298.75 424.02 300.11 431.17 294.12 C 432.74 292.21 434.13 290.17 435.57 288.16 Z" />
<path fill="#837b62" stroke="#837b62" stroke-width="0.09375" opacity="1.00" d=" M 137.87 291.70 C 138.20 300.34 132.40 308.41 131.86 317.31 C 126.47 307.86 134.98 300.07 137.87 291.70 Z" />
<path fill="#605741" stroke="#605741" stroke-width="0.09375" opacity="1.00" d=" M 386.29 292.55 C 387.55 292.51 388.81 292.49 390.07 292.50 C 395.22 292.57 400.16 294.35 404.72 296.55 C 405.93 295.46 407.38 294.72 408.92 294.17 C 411.80 296.16 415.22 296.93 418.66 297.28 C 418.52 295.96 418.39 294.66 418.26 293.35 C 420.05 293.15 421.84 292.96 423.64 292.83 L 424.85 292.73 C 424.33 293.66 423.81 294.60 423.29 295.54 C 425.91 295.04 428.54 294.56 431.17 294.12 C 424.02 300.11 413.46 298.75 404.64 299.17 C 401.03 298.51 397.42 297.89 393.77 297.59 C 393.61 298.61 393.44 299.62 393.29 300.65 C 366.45 307.59 339.79 314.74 312.25 317.38 C 318.06 312.46 329.80 316.31 334.37 308.04 L 334.80 308.03 C 352.97 310.45 368.68 298.84 386.25 296.16 C 386.25 295.39 386.25 294.63 386.27 293.87 C 386.27 293.54 386.28 292.88 386.29 292.55 Z" />
<path fill="#42352d" stroke="#42352d" stroke-width="0.09375" opacity="1.00" d=" M 390.07 292.50 C 396.30 293.16 403.19 290.94 408.92 294.17 C 407.38 294.72 405.93 295.46 404.72 296.55 C 400.16 294.35 395.22 292.57 390.07 292.50 Z" />
<path fill="#837b62" stroke="#837b62" stroke-width="0.09375" opacity="1.00" d=" M 377.70 295.07 C 380.53 294.52 383.40 294.22 386.27 293.87 C 386.25 294.63 386.25 295.39 386.25 296.16 C 368.68 298.84 352.97 310.45 334.80 308.03 C 336.07 306.26 337.84 305.00 339.87 304.20 C 339.33 304.04 338.25 303.71 337.71 303.55 C 348.30 300.41 359.40 299.70 370.12 297.17 C 372.65 296.48 375.15 295.69 377.70 295.07 Z" />
<path fill="#837b62" stroke="#837b62" stroke-width="0.09375" opacity="1.00" d=" M 393.77 297.59 C 397.42 297.89 401.03 298.51 404.64 299.17 C 399.27 302.44 393.21 304.19 387.38 306.41 C 367.01 315.85 344.75 319.02 323.11 323.97 C 323.98 324.37 325.73 325.18 326.61 325.59 C 321.97 325.99 317.29 326.13 312.69 326.91 C 309.87 327.15 307.04 327.31 304.21 327.50 C 301.29 327.62 298.37 327.67 295.44 327.65 C 287.10 325.32 278.54 328.23 270.09 326.85 C 270.42 326.16 270.75 325.48 271.09 324.80 C 277.56 324.10 284.58 324.89 290.43 321.58 C 288.47 320.74 286.50 319.93 284.52 319.12 C 285.86 318.00 287.19 316.88 288.53 315.76 C 282.94 314.57 276.83 317.31 271.65 314.34 C 278.68 312.49 286.02 312.60 293.20 311.78 C 292.65 312.29 291.55 313.30 291.00 313.81 C 305.44 315.63 320.14 310.42 334.37 308.04 C 329.80 316.31 318.06 312.46 312.25 317.38 C 339.79 314.74 366.45 307.59 393.29 300.65 C 393.44 299.62 393.61 298.61 393.77 297.59 M 288.39 325.69 C 294.60 325.30 300.91 327.02 306.64 323.45 C 307.09 323.81 307.98 324.53 308.43 324.89 C 313.43 324.67 319.51 324.14 322.55 319.55 C 311.33 319.02 298.52 321.05 288.39 325.69 Z" />
<path fill="#605741" stroke="#605741" stroke-width="0.09375" opacity="1.00" d=" M 387.38 306.41 C 399.71 309.99 412.99 304.20 425.46 303.05 C 423.39 309.17 416.56 309.88 411.18 308.23 C 409.22 311.93 404.86 316.00 407.73 320.35 C 405.33 319.35 402.80 319.65 400.45 320.61 C 402.41 321.49 404.40 322.34 406.39 323.17 C 403.16 325.22 399.88 327.17 396.70 329.27 C 397.21 327.38 397.67 325.47 398.11 323.57 C 395.80 326.05 393.85 328.85 392.07 331.74 C 396.04 331.76 400.12 332.22 403.46 334.57 C 398.31 336.76 390.33 336.71 388.53 343.22 C 385.32 344.97 381.94 346.45 378.34 347.16 C 379.80 340.01 387.10 337.71 392.97 335.27 C 388.35 335.66 383.66 335.16 379.56 332.87 C 381.02 331.34 382.50 329.81 383.91 328.22 C 384.52 321.63 388.09 315.40 385.98 308.62 C 370.93 320.45 351.54 321.06 333.59 325.05 C 331.26 325.21 328.94 325.42 326.61 325.59 C 325.73 325.18 323.98 324.37 323.11 323.97 C 344.75 319.02 367.01 315.85 387.38 306.41 Z" />
<path fill="#968879" stroke="#968879" stroke-width="0.09375" opacity="1.00" d=" M 293.20 311.78 C 308.12 309.62 323.06 307.16 337.71 303.55 C 338.25 303.71 339.33 304.04 339.87 304.20 C 337.84 305.00 336.07 306.26 334.80 308.03 L 334.37 308.04 C 320.14 310.42 305.44 315.63 291.00 313.81 C 291.55 313.30 292.65 312.29 293.20 311.78 Z" />
<path fill="#837b62" stroke="#837b62" stroke-width="0.09375" opacity="1.00" d=" M 333.59 325.05 C 351.54 321.06 370.93 320.45 385.98 308.62 C 388.09 315.40 384.52 321.63 383.91 328.22 C 382.50 329.81 381.02 331.34 379.56 332.87 C 383.66 335.16 388.35 335.66 392.97 335.27 C 387.10 337.71 379.80 340.01 378.34 347.16 C 381.94 346.45 385.32 344.97 388.53 343.22 C 395.62 342.23 402.82 341.87 409.80 340.15 C 410.64 340.15 412.31 340.15 413.15 340.16 C 409.58 341.55 406.02 342.96 402.54 344.54 C 403.38 344.73 405.07 345.11 405.91 345.29 C 405.25 346.00 404.60 346.72 403.95 347.44 C 389.78 349.31 375.75 352.77 361.39 352.77 C 350.78 353.41 340.18 353.85 329.61 355.05 C 330.94 354.57 332.25 354.03 333.56 353.50 C 333.00 352.90 332.44 352.30 331.89 351.71 C 332.06 350.85 332.22 349.97 332.41 349.12 C 327.87 347.55 323.05 347.72 318.33 347.74 C 322.97 342.03 330.80 347.83 335.06 341.50 C 334.17 340.56 333.28 339.64 332.40 338.71 C 336.87 337.73 342.08 335.81 343.15 330.77 C 339.30 332.15 335.94 334.52 332.94 337.26 C 332.89 336.57 332.81 335.20 332.77 334.52 C 329.81 336.21 326.81 334.66 324.16 333.14 C 328.77 329.76 334.29 328.12 339.26 325.40 C 337.37 325.25 335.48 325.09 333.59 325.05 Z" />
<path fill="#968879" stroke="#968879" stroke-width="0.09375" opacity="1.00" d=" M 197.32 312.72 C 198.31 311.69 199.30 310.67 200.30 309.65 C 200.95 309.81 202.25 310.12 202.90 310.28 C 210.54 312.56 218.63 312.15 226.30 314.25 C 222.79 314.67 219.28 315.15 215.76 315.53 C 223.68 318.12 233.00 321.97 241.00 317.78 C 236.31 316.57 231.55 315.62 226.88 314.33 C 233.14 313.70 239.42 314.23 245.69 314.18 C 246.53 320.72 240.01 321.87 234.97 321.26 C 240.61 323.50 246.68 325.44 252.80 324.15 C 253.09 324.83 253.39 325.52 253.70 326.22 C 250.23 326.35 246.79 326.88 243.43 327.76 C 241.97 327.46 240.47 327.40 238.99 327.32 C 240.70 328.75 242.45 330.13 244.23 331.48 C 243.34 332.00 242.46 332.53 241.58 333.06 C 244.17 336.29 245.63 342.04 250.66 341.85 L 251.64 341.57 C 251.59 342.22 251.51 343.51 251.47 344.16 C 248.88 344.18 246.42 345.01 244.28 346.46 C 247.98 346.29 252.89 347.06 251.21 352.02 C 253.22 351.85 255.22 351.67 257.21 351.41 L 258.18 351.29 C 251.47 354.33 244.00 354.95 236.75 355.43 C 215.24 353.86 193.87 350.17 173.17 344.09 C 172.29 343.56 171.41 343.01 170.55 342.46 C 172.31 342.11 174.07 341.75 175.83 341.43 C 176.13 339.94 176.43 338.45 176.72 336.96 C 177.53 338.94 178.99 340.46 180.88 341.44 C 179.53 338.94 180.35 336.42 181.70 334.17 C 180.32 333.45 178.94 332.74 177.57 332.02 C 179.55 330.32 181.63 328.46 184.39 328.38 C 185.49 329.99 186.62 331.57 187.78 333.15 C 192.90 322.18 176.74 328.41 175.70 319.55 C 189.98 321.78 203.95 326.34 218.57 326.31 C 217.94 325.37 217.32 324.44 216.70 323.52 C 213.16 324.20 209.50 323.91 206.36 322.00 C 210.76 319.60 215.81 320.92 220.54 320.88 C 216.40 316.79 209.89 314.64 204.24 316.46 C 202.30 314.62 199.76 313.71 197.32 312.72 M 197.88 327.17 C 197.85 327.85 197.80 329.22 197.77 329.90 C 196.90 329.22 196.03 328.54 195.17 327.86 C 193.20 329.25 191.32 330.75 189.52 332.34 C 194.54 333.52 200.94 331.32 205.04 334.73 C 209.19 333.33 213.85 335.97 218.18 334.16 C 217.47 332.63 216.75 331.11 216.01 329.60 C 223.43 332.29 231.08 330.51 238.71 330.42 C 238.70 330.20 238.68 329.74 238.67 329.52 C 231.08 330.61 224.00 326.03 216.40 327.46 C 215.89 328.13 215.37 328.81 214.86 329.49 C 213.02 329.34 211.18 329.28 209.34 329.17 C 208.75 328.62 208.16 328.07 207.57 327.54 C 204.51 328.78 200.72 329.16 197.88 327.17 M 215.43 339.10 C 222.97 344.81 234.94 346.06 242.92 340.74 C 239.22 337.60 233.96 339.54 230.33 336.47 C 225.34 337.96 219.85 335.55 215.43 339.10 M 213.65 347.57 C 221.06 351.78 229.70 350.24 237.80 350.68 C 237.79 350.01 237.76 348.66 237.75 347.98 C 229.64 347.21 221.58 343.91 213.65 347.57 Z" />
<path fill="#605741" stroke="#605741" stroke-width="0.09375" opacity="1.00" d=" M 173.27 311.75 C 179.75 311.85 186.73 313.49 192.40 316.65 C 185.90 316.10 178.65 315.89 173.27 311.75 Z" />
<path fill="#c0d7cd" stroke="#c0d7cd" stroke-width="0.09375" opacity="1.00" d=" M 215.76 315.53 C 219.28 315.15 222.79 314.67 226.30 314.25 L 226.88 314.33 C 231.55 315.62 236.31 316.57 241.00 317.78 C 233.00 321.97 223.68 318.12 215.76 315.53 Z" />
<path fill="#837b62" stroke="#837b62" stroke-width="0.09375" opacity="1.00" d=" M 245.69 314.18 C 250.89 314.10 256.09 314.17 261.28 314.39 C 256.95 315.36 256.06 320.70 251.64 321.43 C 251.93 322.11 252.51 323.47 252.80 324.15 C 246.68 325.44 240.61 323.50 234.97 321.26 C 240.01 321.87 246.53 320.72 245.69 314.18 Z" />
<path fill="#605741" stroke="#605741" stroke-width="0.09375" opacity="1.00" d=" M 261.28 314.39 C 262.05 314.40 262.82 314.43 263.59 314.47 C 266.13 315.01 268.77 315.37 271.26 314.43 L 271.65 314.34 C 276.83 317.31 282.94 314.57 288.53 315.76 C 287.19 316.88 285.86 318.00 284.52 319.12 C 286.50 319.93 288.47 320.74 290.43 321.58 C 284.58 324.89 277.56 324.10 271.09 324.80 C 270.75 325.48 270.42 326.16 270.09 326.85 C 278.54 328.23 287.10 325.32 295.44 327.65 L 294.37 327.84 C 291.22 328.29 288.10 328.96 285.08 330.00 C 288.12 331.17 291.18 332.29 294.20 333.50 C 292.98 333.51 291.78 333.53 290.57 333.55 C 292.50 339.65 287.31 343.64 281.60 342.65 C 282.67 345.93 285.92 346.99 288.87 347.97 C 280.34 354.54 268.27 350.56 258.18 351.29 L 257.21 351.41 C 256.40 349.64 255.59 347.85 254.80 346.07 C 256.68 344.99 258.56 343.89 260.43 342.78 C 257.66 341.62 254.61 340.04 251.64 341.57 L 250.66 341.85 C 256.86 334.18 252.06 328.58 243.43 327.76 C 246.79 326.88 250.23 326.35 253.70 326.22 C 253.39 325.52 253.09 324.83 252.80 324.15 C 252.51 323.47 251.93 322.11 251.64 321.43 C 256.06 320.70 256.95 315.36 261.28 314.39 Z" />
<path fill="#968879" stroke="#968879" stroke-width="0.09375" opacity="1.00" d=" M 263.59 314.47 C 266.15 314.41 268.70 314.40 271.26 314.43 C 268.77 315.37 266.13 315.01 263.59 314.47 Z" />
<path fill="#2e053a" stroke="#2e053a" stroke-width="0.09375" opacity="1.00" d=" M 91.18 322.32 C 97.22 322.11 101.19 315.19 107.44 317.98 C 99.73 325.22 92.28 333.67 81.94 337.08 C 84.26 331.36 87.09 325.43 93.95 324.47 C 93.02 323.75 92.10 323.03 91.18 322.32 Z" />
<path fill="#968879" stroke="#968879" stroke-width="0.09375" opacity="1.00" d=" M 288.39 325.69 C 298.52 321.05 311.33 319.02 322.55 319.55 C 319.51 324.14 313.43 324.67 308.43 324.89 C 307.98 324.53 307.09 323.81 306.64 323.45 C 300.91 327.02 294.60 325.30 288.39 325.69 Z" />
<path fill="#968879" stroke="#968879" stroke-width="0.09375" opacity="1.00" d=" M 326.61 325.59 C 328.94 325.42 331.26 325.21 333.59 325.05 C 335.48 325.09 337.37 325.25 339.26 325.40 C 334.29 328.12 328.77 329.76 324.16 333.14 C 326.81 334.66 329.81 336.21 332.77 334.52 C 332.81 335.20 332.89 336.57 332.94 337.26 C 335.94 334.52 339.30 332.15 343.15 330.77 C 342.08 335.81 336.87 337.73 332.40 338.71 C 333.28 339.64 334.17 340.56 335.06 341.50 C 330.80 347.83 322.97 342.03 318.33 347.74 C 323.05 347.72 327.87 347.55 332.41 349.12 C 332.22 349.97 332.06 350.85 331.89 351.71 C 332.44 352.30 333.00 352.90 333.56 353.50 C 332.25 354.03 330.94 354.57 329.61 355.05 C 317.74 356.16 305.84 356.64 293.92 356.42 C 293.04 354.79 292.17 353.16 291.30 351.54 C 293.44 350.87 295.58 350.18 297.70 349.43 C 295.33 347.63 292.77 346.11 290.00 345.05 C 292.42 342.20 295.87 340.98 299.55 341.28 C 299.60 339.67 299.64 338.06 299.70 336.46 C 301.49 336.88 303.29 337.31 305.08 337.74 C 304.75 336.04 304.42 334.34 304.10 332.64 C 302.15 333.61 300.21 334.58 298.27 335.55 C 298.09 334.17 297.92 332.80 297.75 331.43 C 295.39 330.88 293.04 330.33 290.70 329.76 C 291.91 329.11 293.13 328.45 294.37 327.84 L 295.44 327.65 C 298.37 327.67 301.29 327.62 304.21 327.50 C 303.55 327.70 302.24 328.12 301.58 328.32 C 307.92 333.10 316.67 331.78 323.53 328.94 C 319.86 328.58 316.25 327.84 312.69 326.91 C 317.29 326.13 321.97 325.99 326.61 325.59 Z" />
<path fill="#837b62" stroke="#837b62" stroke-width="0.09375" opacity="1.00" d=" M 197.88 327.17 C 200.72 329.16 204.51 328.78 207.57 327.54 C 208.16 328.07 208.75 328.62 209.34 329.17 C 211.18 329.28 213.02 329.34 214.86 329.49 L 216.01 329.60 C 216.75 331.11 217.47 332.63 218.18 334.16 C 213.85 335.97 209.19 333.33 205.04 334.73 C 200.94 331.32 194.54 333.52 189.52 332.34 C 191.32 330.75 193.20 329.25 195.17 327.86 C 196.03 328.54 196.90 329.22 197.77 329.90 C 197.80 329.22 197.85 327.85 197.88 327.17 Z" />
<path fill="#c0d7cd" stroke="#c0d7cd" stroke-width="0.09375" opacity="1.00" d=" M 216.40 327.46 C 224.00 326.03 231.08 330.61 238.67 329.52 C 238.68 329.74 238.70 330.20 238.71 330.42 C 231.08 330.51 223.43 332.29 216.01 329.60 L 214.86 329.49 C 215.37 328.81 215.89 328.13 216.40 327.46 Z" />
<path fill="#837b62" stroke="#837b62" stroke-width="0.09375" opacity="1.00" d=" M 238.99 327.32 C 240.47 327.40 241.97 327.46 243.43 327.76 C 252.06 328.58 256.86 334.18 250.66 341.85 C 245.63 342.04 244.17 336.29 241.58 333.06 C 242.46 332.53 243.34 332.00 244.23 331.48 C 242.45 330.13 240.70 328.75 238.99 327.32 Z" />
<path fill="#c0d7cd" stroke="#c0d7cd" stroke-width="0.09375" opacity="1.00" d=" M 304.21 327.50 C 307.04 327.31 309.87 327.15 312.69 326.91 C 316.25 327.84 319.86 328.58 323.53 328.94 C 316.67 331.78 307.92 333.10 301.58 328.32 C 302.24 328.12 303.55 327.70 304.21 327.50 Z" />
<path fill="#68297a" stroke="#68297a" stroke-width="0.09375" opacity="1.00" d=" M 19.59 342.38 C 20.48 337.37 22.16 332.52 24.45 327.98 C 26.01 330.10 27.41 332.33 28.64 334.67 C 26.22 337.87 23.51 341.03 19.59 342.38 Z" />
<path fill="#837b62" stroke="#837b62" stroke-width="0.09375" opacity="1.00" d=" M 285.08 330.00 C 288.10 328.96 291.22 328.29 294.37 327.84 C 293.13 328.45 291.91 329.11 290.70 329.76 C 293.04 330.33 295.39 330.88 297.75 331.43 C 297.92 332.80 298.09 334.17 298.27 335.55 C 300.21 334.58 302.15 333.61 304.10 332.64 C 304.42 334.34 304.75 336.04 305.08 337.74 C 303.29 337.31 301.49 336.88 299.70 336.46 C 299.64 338.06 299.60 339.67 299.55 341.28 C 295.87 340.98 292.42 342.20 290.00 345.05 C 292.77 346.11 295.33 347.63 297.70 349.43 C 295.58 350.18 293.44 350.87 291.30 351.54 C 292.17 353.16 293.04 354.79 293.92 356.42 C 287.98 356.78 282.03 355.35 276.13 356.32 C 263.03 356.98 249.81 356.74 236.75 355.43 C 244.00 354.95 251.47 354.33 258.18 351.29 C 268.27 350.56 280.34 354.54 288.87 347.97 C 285.92 346.99 282.67 345.93 281.60 342.65 C 287.31 343.64 292.50 339.65 290.57 333.55 C 291.78 333.53 292.98 333.51 294.20 333.50 C 291.18 332.29 288.12 331.17 285.08 330.00 Z" />
<path fill="#c0d7cd" stroke="#c0d7cd" stroke-width="0.09375" opacity="1.00" d=" M 215.43 339.10 C 219.85 335.55 225.34 337.96 230.33 336.47 C 233.96 339.54 239.22 337.60 242.92 340.74 C 234.94 346.06 222.97 344.81 215.43 339.10 Z" />
<path fill="#605741" stroke="#605741" stroke-width="0.09375" opacity="1.00" d=" M 409.80 340.15 C 415.15 337.97 420.77 336.36 426.59 336.21 C 424.96 338.39 423.17 340.49 420.95 342.09 C 415.32 343.99 409.94 346.83 403.95 347.44 C 404.60 346.72 405.25 346.00 405.91 345.29 C 405.07 345.11 403.38 344.73 402.54 344.54 C 406.02 342.96 409.58 341.55 413.15 340.16 C 412.31 340.15 410.64 340.15 409.80 340.15 Z" />
<path fill="#837b62" stroke="#837b62" stroke-width="0.09375" opacity="1.00" d=" M 251.64 341.57 C 254.61 340.04 257.66 341.62 260.43 342.78 C 258.56 343.89 256.68 344.99 254.80 346.07 C 255.59 347.85 256.40 349.64 257.21 351.41 C 255.22 351.67 253.22 351.85 251.21 352.02 C 252.89 347.06 247.98 346.29 244.28 346.46 C 246.42 345.01 248.88 344.18 251.47 344.16 C 251.51 343.51 251.59 342.22 251.64 341.57 Z" />
<path fill="#c0d7cd" stroke="#c0d7cd" stroke-width="0.09375" opacity="1.00" d=" M 213.65 347.57 C 221.58 343.91 229.64 347.21 237.75 347.98 C 237.76 348.66 237.79 350.01 237.80 350.68 C 229.70 350.24 221.06 351.78 213.65 347.57 Z" />
<path fill="#68297a" stroke="#68297a" stroke-width="0.09375" opacity="1.00" d=" M 186.13 351.77 C 188.89 354.27 188.57 357.61 186.75 360.57 C 189.88 359.22 193.06 360.30 195.82 361.96 C 191.72 365.62 185.83 363.96 181.26 366.88 C 180.44 364.79 180.17 362.56 180.00 360.35 C 181.14 360.06 182.28 359.78 183.42 359.51 C 184.28 356.91 185.17 354.32 186.13 351.77 Z" />
<path fill="#42352d" stroke="#42352d" stroke-width="0.09375" opacity="1.00" d=" M 329.61 355.05 C 340.18 353.85 350.78 353.41 361.39 352.77 C 360.56 353.75 359.73 354.75 358.91 355.74 C 331.55 356.21 304.56 358.59 277.30 358.54 C 276.91 357.79 276.52 357.04 276.13 356.32 C 282.03 355.35 287.98 356.78 293.92 356.42 C 305.84 356.64 317.74 356.16 329.61 355.05 Z" />
<path fill="#2e053a" stroke="#2e053a" stroke-width="0.09375" opacity="1.00" d=" M 272.41 365.59 C 275.10 365.50 277.79 365.43 280.48 365.43 C 280.88 366.47 281.28 367.53 281.69 368.58 C 278.58 368.05 271.64 370.78 272.41 365.59 Z" />
<path fill="#68297a" stroke="#68297a" stroke-width="0.09375" opacity="1.00" d=" M 114.33 386.17 C 120.17 379.27 126.81 372.19 135.98 369.96 C 136.31 377.68 128.53 380.33 123.90 384.87 C 124.20 386.10 124.50 387.33 124.80 388.57 C 121.48 391.62 119.49 395.89 120.50 400.43 C 115.47 399.62 111.70 406.24 106.87 402.00 C 101.99 405.08 97.16 400.43 91.94 401.11 C 98.33 394.74 105.42 388.54 114.33 386.17 Z" />
<path fill="#2e053a" stroke="#2e053a" stroke-width="0.09375" opacity="1.00" d=" M 350.64 372.83 C 352.88 373.66 355.03 374.71 357.02 376.04 C 355.66 376.63 354.32 377.22 352.98 377.83 C 355.12 379.50 357.50 381.05 360.35 380.87 C 360.17 381.89 360.01 382.90 359.85 383.93 C 363.95 384.81 364.12 391.48 359.38 390.11 C 359.33 391.80 359.24 393.49 359.12 395.19 C 361.80 397.04 362.83 400.03 363.18 403.15 C 363.81 403.06 365.07 402.88 365.70 402.79 C 365.29 399.90 365.35 396.99 365.84 394.13 C 368.09 396.56 371.85 399.40 374.19 395.41 C 382.91 404.11 369.58 400.93 367.15 406.77 C 367.04 405.88 366.93 405.00 366.82 404.13 C 365.62 403.95 364.43 403.94 363.24 404.11 C 363.14 404.65 362.92 405.75 362.82 406.30 C 355.97 396.80 352.38 384.21 350.64 372.83 Z" />
<path fill="#2e053a" stroke="#2e053a" stroke-width="0.09375" opacity="1.00" d=" M 279.24 377.14 C 280.17 375.95 281.10 374.75 282.03 373.55 C 296.62 376.85 284.86 393.38 292.40 401.62 C 297.18 406.82 295.65 414.52 298.07 420.84 C 298.70 430.55 310.95 432.00 313.78 440.55 C 315.29 440.44 316.78 440.33 318.30 440.25 C 316.89 443.04 314.08 444.43 311.11 444.92 C 305.77 439.50 300.87 433.58 294.29 429.57 C 293.27 424.56 293.86 418.72 289.18 415.12 C 290.14 414.33 291.11 413.55 292.07 412.77 C 290.85 412.30 289.63 411.83 288.41 411.37 C 291.62 405.98 288.26 399.00 284.31 394.85 C 285.08 389.46 281.59 384.65 281.82 379.22 C 280.96 378.52 280.10 377.83 279.24 377.14 Z" />
<path fill="#2e053a" stroke="#2e053a" stroke-width="0.09375" opacity="1.00" d=" M 296.21 376.16 C 304.49 378.26 301.46 391.60 308.03 396.75 C 309.88 395.12 311.31 393.10 312.66 391.06 C 312.92 392.34 313.18 393.63 313.45 394.91 C 314.70 395.24 315.96 395.57 317.23 395.88 C 318.59 398.34 318.01 401.34 319.43 403.75 C 318.31 403.72 317.19 403.70 316.07 403.70 C 314.26 405.71 312.69 407.92 311.22 410.19 C 309.95 410.41 308.68 410.64 307.42 410.88 C 309.59 407.24 305.97 405.24 303.27 403.67 C 299.88 394.13 298.25 386.20 296.21 376.16 Z" />
<path fill="#2e053a" stroke="#2e053a" stroke-width="0.09375" opacity="1.00" d=" M 36.06 384.82 C 41.48 381.03 47.92 379.50 54.31 378.21 C 52.54 380.46 50.00 381.75 47.21 382.24 C 48.32 386.11 44.12 386.94 41.23 386.89 C 41.46 386.33 41.91 385.22 42.14 384.67 C 40.11 384.69 38.08 384.73 36.06 384.82 Z" />
<path fill="#68297a" stroke="#68297a" stroke-width="0.09375" opacity="1.00" d=" M 182.19 391.72 C 184.79 390.77 186.82 384.45 189.58 387.40 C 188.65 391.57 186.37 395.43 186.48 399.85 C 184.54 399.30 182.60 398.75 180.67 398.18 C 180.72 395.13 179.95 392.19 178.05 389.77 C 179.64 389.32 181.22 388.88 182.80 388.43 C 182.59 389.52 182.39 390.62 182.19 391.72 Z" />
<path fill="#2e053a" stroke="#2e053a" stroke-width="0.09375" opacity="1.00" d=" M 330.31 390.86 C 339.84 394.69 336.91 404.29 340.88 411.59 C 339.79 411.58 338.72 411.58 337.64 411.59 C 335.42 404.60 333.89 397.34 330.31 390.86 Z" />
<path fill="#68297a" stroke="#68297a" stroke-width="0.09375" opacity="1.00" d=" M 199.16 396.05 C 201.42 396.15 203.63 396.69 205.56 397.91 C 204.38 400.06 203.43 402.32 202.66 404.66 C 202.05 404.67 200.81 404.70 200.19 404.72 C 201.15 401.72 201.08 398.64 199.16 396.05 Z" />
<path fill="#2e053a" stroke="#2e053a" stroke-width="0.09375" opacity="1.00" d=" M 345.39 400.62 C 348.10 406.08 351.80 410.82 355.07 415.92 C 348.50 414.16 345.67 406.80 345.39 400.62 Z" />
<path fill="#68297a" stroke="#68297a" stroke-width="0.09375" opacity="1.00" d=" M 82.06 406.37 C 83.44 406.35 84.83 406.35 86.22 406.35 C 86.68 408.10 87.50 409.72 88.58 411.17 C 86.47 415.60 83.66 419.87 79.15 422.14 C 79.66 418.73 81.52 415.87 84.45 414.06 C 83.01 411.72 82.23 409.10 82.06 406.37 Z" />
<path fill="#68297a" stroke="#68297a" stroke-width="0.09375" opacity="1.00" d=" M 251.97 418.89 C 245.33 418.05 244.50 409.79 250.46 407.21 C 253.53 410.64 253.30 414.79 251.97 418.89 Z" />
<path fill="#68297a" stroke="#68297a" stroke-width="0.09375" opacity="1.00" d=" M 178.22 416.86 C 181.84 408.42 189.25 407.37 196.07 412.17 C 195.27 415.18 192.99 417.06 190.07 417.91 C 189.20 416.05 188.31 414.21 187.39 412.37 C 184.80 414.71 181.57 416.03 178.22 416.86 Z" />
<path fill="#68297a" stroke="#68297a" stroke-width="0.09375" opacity="1.00" d=" M 269.38 415.89 C 272.11 398.81 280.88 428.59 270.92 430.31 C 270.83 428.97 270.76 427.64 270.69 426.31 C 269.81 426.55 268.93 426.80 268.06 427.06 C 267.09 422.56 265.71 417.60 260.77 416.09 C 261.17 415.08 261.57 414.08 261.97 413.08 C 263.71 415.54 266.58 415.88 269.38 415.89 Z" />
<path fill="#2e053a" stroke="#2e053a" stroke-width="0.09375" opacity="1.00" d=" M 311.67 426.04 C 309.59 422.90 306.73 419.16 308.51 415.24 C 309.74 416.08 310.96 416.96 312.19 417.82 C 314.44 416.89 316.74 416.09 319.07 415.38 C 321.75 419.60 323.14 424.54 326.30 428.48 C 327.42 428.41 328.54 428.36 329.67 428.31 C 331.25 431.58 333.33 434.91 332.41 438.71 C 329.25 440.94 325.26 440.77 321.62 441.44 C 321.23 440.17 320.85 438.90 320.48 437.64 C 319.36 437.31 318.25 437.00 317.14 436.69 C 317.27 431.52 318.04 426.31 314.55 421.77 C 313.59 423.19 312.63 424.61 311.67 426.04 Z" />
<path fill="#68297a" stroke="#68297a" stroke-width="0.09375" opacity="1.00" d=" M 40.03 423.36 C 41.34 422.60 42.65 421.84 43.96 421.08 C 45.37 422.37 46.79 423.66 48.21 424.95 C 47.32 425.71 46.43 426.47 45.54 427.23 C 43.67 425.99 41.84 424.69 40.03 423.36 Z" />
<path fill="#68297a" stroke="#68297a" stroke-width="0.09375" opacity="1.00" d=" M 98.64 432.92 C 103.35 431.54 107.70 434.29 111.87 436.08 C 111.66 436.43 111.25 437.11 111.04 437.46 C 107.89 436.83 104.69 436.56 101.48 436.42 C 100.53 435.26 99.58 434.09 98.64 432.92 Z" />
<path fill="#68297a" stroke="#68297a" stroke-width="0.09375" opacity="1.00" d=" M 138.80 459.93 C 143.02 459.26 146.91 457.44 150.70 455.58 C 152.01 457.71 153.35 459.83 154.71 461.92 C 153.41 461.94 152.10 461.95 150.80 461.95 C 146.76 461.58 142.68 461.19 138.80 459.93 Z" />
</svg>
