<?xml version="1.0" encoding="UTF-8" ?>
<!DOCTYPE svg PUBLIC "-//W3C//DTD SVG 1.1//EN" "http://www.w3.org/Graphics/SVG/1.1/DTD/svg11.dtd">
<svg width="600pt" height="600pt" viewBox="0 0 600 600" version="1.1" xmlns="http://www.w3.org/2000/svg">
<path fill="#541e2c" stroke="#541e2c" stroke-width="0.09375" opacity="1.00" d=" M 271.41 4.06 C 271.29 2.10 274.88 2.17 275.81 3.47 C 274.40 3.99 272.91 4.36 271.41 4.06 Z" />
<path fill="#93354e" stroke="#93354e" stroke-width="0.09375" opacity="1.00" d=" M 275.81 3.47 C 292.83 2.68 310.17 2.68 327.19 3.47 C 328.59 3.99 330.08 4.35 331.59 4.06 C 333.43 3.94 335.39 3.65 337.14 4.46 C 338.22 4.99 339.40 5.36 340.63 5.14 C 345.82 5.02 350.98 6.18 356.02 7.33 C 356.81 8.04 357.72 8.30 358.75 8.12 C 359.32 8.15 360.46 8.20 361.02 8.23 C 361.76 9.00 362.65 9.32 363.70 9.17 C 365.85 9.06 368.03 9.42 370.00 10.30 C 370.75 11.03 371.65 11.33 372.69 11.19 C 374.47 11.14 376.27 11.47 377.92 12.17 C 378.40 12.39 379.35 12.84 379.82 13.07 C 388.77 14.60 397.39 18.02 405.91 21.15 C 406.37 21.39 407.30 21.88 407.76 22.12 C 423.18 27.29 437.94 34.77 451.95 43.01 C 452.39 43.30 453.27 43.88 453.71 44.17 C 454.96 44.34 456.20 44.98 456.94 46.04 C 457.38 46.33 458.26 46.90 458.70 47.19 C 492.54 67.70 522.33 95.72 544.80 128.29 C 545.10 128.72 545.72 129.57 546.03 130.00 C 560.36 149.48 571.78 171.45 579.87 194.23 C 580.11 194.70 580.60 195.63 580.85 196.09 C 583.99 204.62 587.39 213.26 588.94 222.22 C 589.17 222.70 589.62 223.66 589.85 224.14 L 589.84 225.26 C 589.70 226.32 589.99 227.26 590.73 228.07 L 590.80 229.21 C 590.68 230.26 590.97 231.18 591.68 231.99 C 592.56 233.95 592.94 236.14 592.83 238.30 C 592.67 239.34 592.98 240.23 593.76 240.98 C 593.79 241.55 593.85 242.68 593.87 243.24 C 593.69 244.27 593.95 245.18 594.66 245.97 C 600.25 268.90 597.24 292.66 598.00 316.00 C 598.39 329.09 597.80 342.26 594.66 355.02 C 593.95 355.81 593.69 356.72 593.87 357.76 C 593.84 358.32 593.79 359.46 593.76 360.02 C 592.99 360.76 592.68 361.66 592.82 362.71 C 592.80 366.23 591.89 369.72 590.67 373.01 C 589.95 373.80 589.67 374.72 589.84 375.76 L 589.86 376.86 C 589.63 377.34 589.18 378.30 588.95 378.77 C 583.77 400.80 574.85 422.08 563.97 441.91 C 562.69 443.77 561.66 445.79 560.76 447.86 C 536.54 491.01 500.97 528.14 458.70 553.81 C 458.26 554.10 457.38 554.67 456.94 554.96 C 456.20 556.01 454.95 556.65 453.71 556.83 C 453.27 557.12 452.39 557.70 451.96 557.99 C 429.48 571.12 405.18 581.90 379.83 587.94 C 379.35 588.15 378.39 588.57 377.91 588.78 C 373.27 590.11 368.55 591.64 363.70 591.83 C 362.65 591.68 361.76 591.99 361.02 592.77 C 360.46 592.79 359.32 592.85 358.76 592.88 C 357.72 592.69 356.81 592.96 356.02 593.66 C 350.98 594.82 345.82 595.98 340.62 595.86 C 339.40 595.62 338.21 596.00 337.14 596.54 C 335.41 597.33 333.46 597.07 331.65 596.92 C 330.43 596.62 329.24 596.99 328.14 597.49 C 310.81 598.37 293.14 598.29 275.81 597.53 C 274.40 597.01 272.91 596.64 271.41 596.94 C 269.56 597.05 267.60 597.34 265.86 596.55 C 264.78 596.00 263.59 595.62 262.37 595.86 C 257.18 595.98 252.02 594.82 246.98 593.67 C 246.18 592.96 245.27 592.70 244.24 592.88 C 243.68 592.85 242.54 592.80 241.98 592.77 C 241.23 591.99 240.34 591.68 239.30 591.83 C 234.44 591.65 229.73 590.11 225.09 588.79 C 224.61 588.57 223.65 588.15 223.17 587.94 C 197.82 581.91 173.53 571.10 151.04 558.00 C 150.60 557.70 149.73 557.11 149.30 556.82 C 78.48 515.71 26.01 443.14 10.16 362.71 C 10.30 361.66 9.99 360.76 9.23 360.02 C 9.20 359.46 9.15 358.32 9.12 357.76 C 9.29 356.72 9.03 355.81 8.33 355.02 C 7.17 349.98 6.02 344.82 6.14 339.63 C 6.36 338.40 5.99 337.21 5.45 336.14 C 4.65 334.39 4.94 332.43 5.06 330.59 C 5.34 329.09 4.99 327.59 4.48 326.19 C 3.88 324.20 3.84 322.12 3.77 320.07 C 3.73 315.63 3.66 311.19 3.22 306.78 C 2.87 302.60 2.87 298.39 3.21 294.22 C 3.66 289.80 3.72 285.36 3.77 280.93 C 3.84 278.87 3.88 276.79 4.48 274.81 C 4.98 273.40 5.34 271.90 5.06 270.41 C 4.94 268.56 4.65 266.60 5.45 264.86 C 5.99 263.78 6.36 262.59 6.14 261.37 C 6.01 256.18 7.17 251.02 8.33 245.98 C 9.03 245.18 9.29 244.27 9.12 243.24 C 9.15 242.68 9.20 241.55 9.23 240.98 C 10.00 240.23 10.31 239.34 10.16 238.29 C 10.05 236.14 10.41 233.95 11.31 231.99 C 12.02 231.18 12.31 230.26 12.19 229.21 L 12.23 228.09 C 12.97 227.32 13.29 226.42 13.20 225.37 C 14.92 215.33 18.62 205.63 22.15 196.09 C 22.39 195.62 22.88 194.69 23.12 194.23 C 28.47 178.91 35.48 163.88 44.03 150.06 C 44.32 149.62 44.88 148.73 45.16 148.28 C 45.31 147.02 45.99 145.79 47.04 145.06 C 47.33 144.62 47.90 143.74 48.19 143.30 C 71.85 104.33 105.33 70.85 144.30 47.19 C 144.74 46.90 145.62 46.33 146.06 46.04 C 146.78 44.98 148.03 44.33 149.28 44.16 C 149.72 43.88 150.60 43.30 151.04 43.01 C 165.06 34.77 179.81 27.27 195.23 22.12 C 195.69 21.88 196.62 21.39 197.09 21.15 C 205.62 18.02 214.25 14.57 223.22 13.05 C 223.70 12.82 224.66 12.37 225.14 12.14 L 226.26 12.15 C 227.32 12.29 228.26 12.00 229.07 11.27 L 230.21 11.20 C 231.26 11.31 232.19 11.01 232.99 10.31 C 234.95 9.42 237.14 9.05 239.29 9.17 C 240.34 9.32 241.23 9.00 241.98 8.23 C 242.54 8.20 243.67 8.15 244.24 8.12 C 245.27 8.30 246.18 8.03 246.97 7.33 C 252.01 6.18 257.18 5.02 262.37 5.14 C 263.59 5.37 264.78 4.99 265.86 4.45 C 267.60 3.65 269.56 3.94 271.41 4.06 C 272.91 4.36 274.40 3.99 275.81 3.47 M 271.14 42.14 C 268.98 44.80 267.50 47.91 266.10 51.01 C 258.06 69.33 250.73 87.94 243.75 106.69 C 242.81 108.91 242.15 111.81 239.46 112.47 C 230.67 115.96 221.87 119.44 213.17 123.14 C 209.33 125.01 205.55 122.22 202.04 120.91 C 182.05 112.59 162.07 104.06 141.38 97.62 C 138.03 96.09 135.45 99.24 133.30 101.31 C 121.48 113.32 109.19 124.87 97.58 137.08 C 104.54 161.04 117.04 183.03 126.56 205.99 C 123.78 214.37 119.78 222.34 116.57 230.58 C 115.29 233.12 114.73 236.63 111.72 237.71 C 88.89 247.45 65.09 255.26 43.32 267.28 C 42.76 283.58 42.93 299.95 43.24 316.26 C 32.31 320.17 24.28 331.31 25.06 343.06 C 25.20 357.48 38.66 369.95 53.06 368.93 C 68.00 368.87 80.44 354.58 79.09 339.81 C 89.27 343.13 99.22 347.10 109.31 350.69 C 111.30 351.53 113.93 351.94 114.68 354.30 C 118.72 363.89 123.18 373.35 126.68 383.14 C 118.06 406.75 105.68 429.24 99.24 453.68 C 111.74 466.52 124.64 478.98 137.32 491.65 C 139.81 494.60 143.84 492.83 146.89 491.90 C 167.88 484.12 188.24 474.77 208.72 465.75 C 210.65 464.73 212.75 465.75 214.60 466.45 C 222.10 469.71 229.72 472.68 237.33 475.68 C 239.51 476.63 242.08 477.54 243.04 479.94 C 252.82 502.30 261.04 525.52 273.29 546.69 C 292.46 547.28 311.68 546.94 330.86 546.86 C 333.34 543.80 334.91 540.16 336.52 536.60 C 344.41 518.48 351.64 500.09 358.54 481.58 C 359.34 479.85 359.79 477.52 361.84 476.85 C 370.83 473.19 379.90 469.69 388.83 465.89 C 392.92 463.90 396.90 467.00 400.64 468.36 C 420.38 476.52 440.08 484.89 460.42 491.44 C 464.20 493.23 466.84 489.48 469.20 487.19 C 480.63 475.94 491.79 464.41 503.52 453.48 C 505.25 452.15 504.13 450.03 503.67 448.39 C 495.83 425.95 484.63 404.86 475.43 383.01 C 478.20 374.62 482.23 366.66 485.42 358.41 C 486.70 355.87 487.27 352.36 490.29 351.29 C 501.19 346.72 512.26 342.56 523.16 337.98 C 521.01 351.47 530.41 365.46 543.80 368.30 C 556.91 371.62 571.56 363.55 575.58 350.61 C 580.57 336.96 572.36 320.88 558.75 316.26 C 559.18 299.24 559.02 282.20 558.84 265.18 C 539.53 254.64 518.29 248.22 497.86 240.23 C 493.95 238.31 487.93 238.40 486.68 233.34 C 483.06 223.91 478.00 214.82 475.39 205.14 C 484.52 181.89 496.25 159.44 502.79 135.26 C 490.21 122.50 477.38 109.98 464.64 97.39 C 462.13 94.49 458.15 96.17 455.12 97.10 C 434.12 104.88 413.73 114.17 393.28 123.24 C 391.34 124.25 389.24 123.26 387.40 122.56 C 379.20 119.00 370.86 115.79 362.55 112.50 C 361.14 111.99 359.85 111.14 359.27 109.71 C 349.28 87.16 340.97 63.72 328.76 42.22 C 309.57 41.83 290.34 41.99 271.14 42.14 Z" />
<path fill="#541e2c" stroke="#541e2c" stroke-width="0.09375" opacity="1.00" d=" M 327.19 3.47 C 328.11 2.17 331.70 2.10 331.59 4.06 C 330.08 4.35 328.59 3.99 327.19 3.47 Z" />
<path fill="#541e2c" stroke="#541e2c" stroke-width="0.09375" opacity="1.00" d=" M 262.37 5.14 C 261.99 3.32 265.17 3.06 265.86 4.45 C 264.78 4.99 263.59 5.37 262.37 5.14 Z" />
<path fill="#541e2c" stroke="#541e2c" stroke-width="0.09375" opacity="1.00" d=" M 337.14 4.46 C 337.82 3.06 341.00 3.32 340.63 5.14 C 339.40 5.36 338.22 4.99 337.14 4.46 Z" />
<path fill="#541e2c" stroke="#541e2c" stroke-width="0.09375" opacity="1.00" d=" M 244.24 8.12 C 244.66 6.45 245.57 6.19 246.97 7.33 C 246.18 8.03 245.27 8.30 244.24 8.12 Z" />
<path fill="#541e2c" stroke="#541e2c" stroke-width="0.09375" opacity="1.00" d=" M 356.02 7.33 C 357.41 6.19 358.32 6.45 358.75 8.12 C 357.72 8.30 356.81 8.04 356.02 7.33 Z" />
<path fill="#541e2c" stroke="#541e2c" stroke-width="0.09375" opacity="1.00" d=" M 239.29 9.17 C 239.64 7.49 240.53 7.18 241.98 8.23 C 241.23 9.00 240.34 9.32 239.29 9.17 Z" />
<path fill="#541e2c" stroke="#541e2c" stroke-width="0.09375" opacity="1.00" d=" M 361.02 8.23 C 362.46 7.18 363.35 7.49 363.70 9.17 C 362.65 9.32 361.76 9.00 361.02 8.23 Z" />
<path fill="#541e2c" stroke="#541e2c" stroke-width="0.09375" opacity="1.00" d=" M 230.21 11.20 C 230.63 9.51 231.55 9.21 232.99 10.31 C 232.19 11.01 231.26 11.31 230.21 11.20 Z" />
<path fill="#541e2c" stroke="#541e2c" stroke-width="0.09375" opacity="1.00" d=" M 370.00 10.30 C 371.42 9.20 372.32 9.50 372.69 11.19 C 371.65 11.33 370.75 11.03 370.00 10.30 Z" />
<path fill="#541e2c" stroke="#541e2c" stroke-width="0.09375" opacity="1.00" d=" M 226.26 12.15 C 226.69 10.50 227.63 10.20 229.07 11.27 C 228.26 12.00 227.32 12.29 226.26 12.15 Z" />
<path fill="#541e2c" stroke="#541e2c" stroke-width="0.09375" opacity="1.00" d=" M 223.22 13.05 C 223.70 12.82 224.66 12.37 225.14 12.14 C 224.66 12.37 223.70 12.82 223.22 13.05 Z" />
<path fill="#541e2c" stroke="#541e2c" stroke-width="0.09375" opacity="1.00" d=" M 377.92 12.17 C 378.40 12.39 379.35 12.84 379.82 13.07 C 379.35 12.84 378.40 12.39 377.92 12.17 Z" />
<path fill="#541e2c" stroke="#541e2c" stroke-width="0.09375" opacity="1.00" d=" M 195.23 22.12 C 195.69 21.88 196.62 21.39 197.09 21.15 C 196.62 21.39 195.69 21.88 195.23 22.12 Z" />
<path fill="#541e2c" stroke="#541e2c" stroke-width="0.09375" opacity="1.00" d=" M 405.91 21.15 C 406.37 21.39 407.30 21.88 407.76 22.12 C 407.30 21.88 406.37 21.39 405.91 21.15 Z" />
<path fill="#541e2c" stroke="#541e2c" stroke-width="0.09375" opacity="1.00" d=" M 271.14 42.14 C 290.34 41.99 309.57 41.83 328.76 42.22 C 340.97 63.72 349.28 87.16 359.27 109.71 C 359.85 111.14 361.14 111.99 362.55 112.50 C 370.86 115.79 379.20 119.00 387.40 122.56 C 389.24 123.26 391.34 124.25 393.28 123.24 C 413.73 114.17 434.12 104.88 455.12 97.10 C 458.15 96.17 462.13 94.49 464.64 97.39 C 477.38 109.98 490.21 122.50 502.79 135.26 C 496.25 159.44 484.52 181.89 475.39 205.14 C 478.00 214.82 483.06 223.91 486.68 233.34 C 487.93 238.40 493.95 238.31 497.86 240.23 C 518.29 248.22 539.53 254.64 558.84 265.18 C 559.02 282.20 559.18 299.24 558.75 316.26 C 547.79 312.80 535.26 316.46 528.16 325.55 C 526.13 324.78 524.11 324.00 522.09 323.23 C 520.90 325.31 519.90 327.49 519.13 329.75 C 521.01 330.57 522.89 331.39 524.79 332.19 C 524.11 334.08 523.57 336.02 523.16 337.98 C 512.26 342.56 501.19 346.72 490.29 351.29 C 487.27 352.36 486.70 355.87 485.42 358.41 C 482.23 366.66 478.20 374.62 475.43 383.01 C 484.63 404.86 495.83 425.95 503.67 448.39 C 504.13 450.03 505.25 452.15 503.52 453.48 C 491.79 464.41 480.63 475.94 469.20 487.19 C 466.84 489.48 464.20 493.23 460.42 491.44 C 440.08 484.89 420.38 476.52 400.64 468.36 C 396.90 467.00 392.92 463.90 388.83 465.89 C 379.90 469.69 370.83 473.19 361.84 476.85 C 359.79 477.52 359.34 479.85 358.54 481.58 C 351.64 500.09 344.41 518.48 336.52 536.60 C 334.91 540.16 333.34 543.80 330.86 546.86 C 311.68 546.94 292.46 547.28 273.29 546.69 C 261.04 525.52 252.82 502.30 243.04 479.94 C 242.08 477.54 239.51 476.63 237.33 475.68 C 229.72 472.68 222.10 469.71 214.60 466.45 C 212.75 465.75 210.65 464.73 208.72 465.75 C 188.24 474.77 167.88 484.12 146.89 491.90 C 143.84 492.83 139.81 494.60 137.32 491.65 C 124.64 478.98 111.74 466.52 99.24 453.68 C 105.68 429.24 118.06 406.75 126.68 383.14 C 123.18 373.35 118.72 363.89 114.68 354.30 C 113.93 351.94 111.30 351.53 109.31 350.69 C 99.22 347.10 89.27 343.13 79.09 339.81 C 79.05 339.44 78.97 338.71 78.93 338.34 C 82.24 336.78 85.59 335.34 88.83 333.64 C 88.13 331.52 87.48 329.38 86.92 327.22 C 90.11 325.67 93.49 324.44 96.43 322.43 C 97.18 319.96 96.80 317.32 96.83 314.78 C 88.93 317.97 81.16 321.57 73.70 325.68 C 66.90 316.30 54.12 312.88 43.24 316.26 C 42.93 299.95 42.76 283.58 43.32 267.28 C 65.09 255.26 88.89 247.45 111.72 237.71 C 114.73 236.63 115.29 233.12 116.57 230.58 C 119.78 222.34 123.78 214.37 126.56 205.99 C 117.04 183.03 104.54 161.04 97.58 137.08 C 109.19 124.87 121.48 113.32 133.30 101.31 C 135.45 99.24 138.03 96.09 141.38 97.62 C 162.07 104.06 182.05 112.59 202.04 120.91 C 205.55 122.22 209.33 125.01 213.17 123.14 C 221.87 119.44 230.67 115.96 239.46 112.47 C 242.15 111.81 242.81 108.91 243.75 106.69 C 250.73 87.94 258.06 69.33 266.10 51.01 C 267.50 47.91 268.98 44.80 271.14 42.14 M 248.30 232.25 C 245.57 234.58 242.84 236.90 240.09 239.21 C 231.00 230.41 216.86 230.81 205.38 233.46 C 193.58 238.46 182.52 250.32 183.98 264.00 C 183.50 272.42 185.93 280.88 183.09 289.08 C 185.05 288.36 187.00 287.63 188.97 286.91 C 196.35 295.74 206.84 302.69 218.90 301.04 C 219.79 322.21 231.11 342.35 247.20 355.81 C 266.55 372.51 293.77 378.76 318.64 373.56 C 352.66 366.69 381.47 336.20 383.09 301.05 C 394.57 302.51 405.00 296.41 412.10 287.84 C 418.52 289.90 424.23 293.63 430.60 295.82 C 431.63 293.68 432.50 291.46 433.14 289.17 C 431.17 288.03 428.49 287.64 427.08 285.82 C 427.63 283.72 428.58 281.73 428.82 279.55 C 425.19 278.12 421.63 276.54 418.15 274.80 C 417.32 266.05 419.90 256.29 414.45 248.56 C 408.99 241.06 401.70 233.56 392.02 232.35 C 381.71 231.41 369.71 231.19 361.92 239.20 C 353.06 231.34 343.60 223.79 332.34 219.70 C 304.80 208.44 271.26 213.18 248.30 232.25 M 152.35 288.78 C 153.24 290.68 154.05 292.63 154.77 294.61 C 151.84 296.08 148.72 297.18 145.92 298.89 C 144.83 301.48 144.86 304.44 144.28 307.19 C 152.68 304.12 160.68 299.95 168.68 295.95 C 167.77 294.01 166.88 292.05 166.03 290.08 C 171.91 287.84 178.85 284.62 176.99 276.91 C 168.72 280.70 160.15 284.09 152.35 288.78 M 442.79 286.53 C 442.14 290.21 443.25 293.72 445.72 296.46 C 445.51 298.52 444.53 300.42 444.12 302.45 C 452.82 306.26 461.36 310.43 470.07 314.24 C 471.83 312.35 471.77 309.73 471.74 307.32 C 469.96 306.35 468.21 305.32 466.51 304.22 C 467.38 302.29 468.19 300.35 468.86 298.35 C 460.11 294.54 451.70 289.95 442.79 286.53 M 112.63 307.08 C 113.44 309.17 114.21 311.29 114.84 313.45 C 111.32 315.03 107.80 316.61 104.35 318.36 C 104.21 320.95 104.18 323.56 104.28 326.17 C 112.62 322.77 120.77 318.85 128.79 314.75 C 127.99 312.78 127.17 310.83 126.34 308.88 C 132.26 306.48 138.80 303.17 138.04 295.60 C 129.25 298.48 121.11 303.30 112.63 307.08 M 482.06 304.80 C 479.52 308.73 481.53 313.26 485.87 314.55 C 485.44 316.64 483.82 318.61 484.08 320.73 C 492.69 324.84 501.28 329.09 510.11 332.72 C 511.13 330.37 510.84 327.79 510.71 325.31 C 509.19 324.50 507.68 323.68 506.17 322.86 C 507.02 320.91 507.88 318.97 508.76 317.04 C 500.00 312.68 491.13 308.47 482.06 304.80 Z" />
<path fill="#541e2c" stroke="#541e2c" stroke-width="0.09375" opacity="1.00" d=" M 149.28 44.16 C 149.72 43.88 150.60 43.30 151.04 43.01 C 150.60 43.30 149.72 43.88 149.28 44.16 Z" />
<path fill="#541e2c" stroke="#541e2c" stroke-width="0.09375" opacity="1.00" d=" M 451.95 43.01 C 452.39 43.30 453.27 43.88 453.71 44.17 C 453.27 43.88 452.39 43.30 451.95 43.01 Z" />
<path fill="#541e2c" stroke="#541e2c" stroke-width="0.09375" opacity="1.00" d=" M 144.30 47.19 C 144.74 46.90 145.62 46.33 146.06 46.04 C 145.62 46.33 144.74 46.90 144.30 47.19 Z" />
<path fill="#541e2c" stroke="#541e2c" stroke-width="0.09375" opacity="1.00" d=" M 456.94 46.04 C 457.38 46.33 458.26 46.90 458.70 47.19 C 458.26 46.90 457.38 46.33 456.94 46.04 Z" />
<path fill="#541e2c" stroke="#541e2c" stroke-width="0.09375" opacity="1.00" d=" M 544.80 128.29 C 545.10 128.72 545.72 129.57 546.03 130.00 C 545.72 129.57 545.10 128.72 544.80 128.29 Z" />
<path fill="#541e2c" stroke="#541e2c" stroke-width="0.09375" opacity="1.00" d=" M 47.04 145.06 C 47.33 144.62 47.90 143.74 48.19 143.30 C 47.90 143.74 47.33 144.62 47.04 145.06 Z" />
<path fill="#541e2c" stroke="#541e2c" stroke-width="0.09375" opacity="1.00" d=" M 44.03 150.06 C 44.32 149.62 44.88 148.73 45.16 148.28 C 44.88 148.73 44.32 149.62 44.03 150.06 Z" />
<path fill="#541e2c" stroke="#541e2c" stroke-width="0.09375" opacity="1.00" d=" M 22.15 196.09 C 22.39 195.62 22.88 194.69 23.12 194.23 C 22.88 194.69 22.39 195.62 22.15 196.09 Z" />
<path fill="#541e2c" stroke="#541e2c" stroke-width="0.09375" opacity="1.00" d=" M 579.87 194.23 C 580.11 194.70 580.60 195.63 580.85 196.09 C 580.60 195.63 580.11 194.70 579.87 194.23 Z" />
<path fill="#93354e" stroke="#93354e" stroke-width="0.09375" opacity="1.00" d=" M 248.30 232.25 C 271.26 213.18 304.80 208.44 332.34 219.70 C 343.60 223.79 353.06 231.34 361.92 239.20 C 356.75 243.77 352.31 249.22 350.02 255.80 C 317.13 255.61 284.24 255.38 251.34 255.18 C 249.75 248.59 244.87 243.69 240.09 239.21 C 242.84 236.90 245.57 234.58 248.30 232.25 Z" />
<path fill="#541e2c" stroke="#541e2c" stroke-width="0.09375" opacity="1.00" d=" M 588.94 222.22 C 589.17 222.70 589.62 223.66 589.85 224.14 C 589.62 223.66 589.17 222.70 588.94 222.22 Z" />
<path fill="#541e2c" stroke="#541e2c" stroke-width="0.09375" opacity="1.00" d=" M 12.23 228.09 C 11.18 226.61 11.50 225.71 13.20 225.37 C 13.29 226.42 12.97 227.32 12.23 228.09 Z" />
<path fill="#541e2c" stroke="#541e2c" stroke-width="0.09375" opacity="1.00" d=" M 589.84 225.26 C 591.49 225.69 591.79 226.63 590.73 228.07 C 589.99 227.26 589.70 226.32 589.84 225.26 Z" />
<path fill="#541e2c" stroke="#541e2c" stroke-width="0.09375" opacity="1.00" d=" M 11.31 231.99 C 10.21 230.56 10.51 229.63 12.19 229.21 C 12.31 230.26 12.02 231.18 11.31 231.99 Z" />
<path fill="#541e2c" stroke="#541e2c" stroke-width="0.09375" opacity="1.00" d=" M 590.80 229.21 C 592.48 229.63 592.77 230.55 591.68 231.99 C 590.97 231.18 590.68 230.26 590.80 229.21 Z" />
<path fill="#d6d6d6" stroke="#d6d6d6" stroke-width="0.09375" opacity="1.00" d=" M 205.38 233.46 C 216.86 230.81 231.00 230.41 240.09 239.21 C 244.87 243.69 249.75 248.59 251.34 255.18 C 247.93 254.79 243.05 256.69 241.25 252.73 C 236.70 244.81 227.91 239.87 218.95 239.07 C 208.04 239.07 197.13 245.84 193.04 256.11 C 185.81 271.96 197.59 291.30 214.47 293.67 C 225.20 295.03 236.50 289.03 241.63 279.52 C 243.50 275.58 248.55 277.69 251.98 277.20 C 246.84 290.50 233.98 302.32 218.90 301.04 C 206.84 302.69 196.35 295.74 188.97 286.91 C 187.00 287.63 185.05 288.36 183.09 289.08 C 185.93 280.88 183.50 272.42 183.98 264.00 C 182.52 250.32 193.58 238.46 205.38 233.46 Z" />
<path fill="#d6d6d6" stroke="#d6d6d6" stroke-width="0.09375" opacity="1.00" d=" M 361.92 239.20 C 369.71 231.19 381.71 231.41 392.02 232.35 C 401.70 233.56 408.99 241.06 414.45 248.56 C 419.90 256.29 417.32 266.05 418.15 274.80 C 421.63 276.54 425.19 278.12 428.82 279.55 C 428.58 281.73 427.63 283.72 427.08 285.82 C 428.49 287.64 431.17 288.03 433.14 289.17 C 432.50 291.46 431.63 293.68 430.60 295.82 C 424.23 293.63 418.52 289.90 412.10 287.84 C 405.00 296.41 394.57 302.51 383.09 301.05 C 368.53 302.21 355.19 291.10 350.66 277.83 C 353.98 278.23 358.89 276.38 360.76 280.15 C 365.25 288.13 374.06 293.16 383.06 293.93 C 395.25 294.02 407.18 285.35 410.16 273.37 C 414.20 259.29 404.80 243.73 390.74 240.15 C 378.06 236.12 364.44 244.41 358.75 255.76 C 355.84 255.80 352.93 255.83 350.02 255.80 C 352.31 249.22 356.75 243.77 361.92 239.20 Z" />
<path fill="#541e2c" stroke="#541e2c" stroke-width="0.09375" opacity="1.00" d=" M 9.23 240.98 C 8.17 239.54 8.48 238.64 10.16 238.29 C 10.31 239.34 10.00 240.23 9.23 240.98 Z" />
<path fill="#541e2c" stroke="#541e2c" stroke-width="0.09375" opacity="1.00" d=" M 592.83 238.30 C 594.50 238.65 594.81 239.54 593.76 240.98 C 592.98 240.23 592.67 239.34 592.83 238.30 Z" />
<path fill="#00166a" stroke="#00166a" stroke-width="0.09375" opacity="1.00" d=" M 193.04 256.11 C 197.13 245.84 208.04 239.07 218.95 239.07 C 227.91 239.87 236.70 244.81 241.25 252.73 C 243.05 256.69 247.93 254.79 251.34 255.18 C 284.24 255.38 317.13 255.61 350.02 255.80 C 352.93 255.83 355.84 255.80 358.75 255.76 C 364.44 244.41 378.06 236.12 390.74 240.15 C 404.80 243.73 414.20 259.29 410.16 273.37 C 407.18 285.35 395.25 294.02 383.06 293.93 C 374.06 293.16 365.25 288.13 360.76 280.15 C 358.89 276.38 353.98 278.23 350.66 277.83 C 317.76 277.62 284.87 277.42 251.98 277.20 C 248.55 277.69 243.50 275.58 241.63 279.52 C 236.50 289.03 225.20 295.03 214.47 293.67 C 197.59 291.30 185.81 271.96 193.04 256.11 Z" />
<path fill="#541e2c" stroke="#541e2c" stroke-width="0.09375" opacity="1.00" d=" M 8.33 245.98 C 7.18 244.58 7.44 243.67 9.12 243.24 C 9.29 244.27 9.03 245.18 8.33 245.98 Z" />
<path fill="#541e2c" stroke="#541e2c" stroke-width="0.09375" opacity="1.00" d=" M 593.87 243.24 C 595.54 243.66 595.80 244.57 594.66 245.97 C 593.95 245.18 593.69 244.27 593.87 243.24 Z" />
<path fill="#541e2c" stroke="#541e2c" stroke-width="0.09375" opacity="1.00" d=" M 5.45 264.86 C 4.06 264.17 4.32 260.99 6.14 261.37 C 6.36 262.59 5.99 263.78 5.45 264.86 Z" />
<path fill="#541e2c" stroke="#541e2c" stroke-width="0.09375" opacity="1.00" d=" M 4.48 274.81 C 3.16 273.88 3.09 270.29 5.06 270.41 C 5.34 271.90 4.98 273.40 4.48 274.81 Z" />
<path fill="#d6d6d6" stroke="#d6d6d6" stroke-width="0.09375" opacity="1.00" d=" M 152.35 288.78 C 160.15 284.09 168.72 280.70 176.99 276.91 C 178.85 284.62 171.91 287.84 166.03 290.08 C 166.88 292.05 167.77 294.01 168.68 295.95 C 160.68 299.95 152.68 304.12 144.28 307.19 C 144.86 304.44 144.83 301.48 145.92 298.89 C 148.72 297.18 151.84 296.08 154.77 294.61 C 154.05 292.63 153.24 290.68 152.35 288.78 Z" />
<path fill="#93354e" stroke="#93354e" stroke-width="0.09375" opacity="1.00" d=" M 251.98 277.20 C 284.87 277.42 317.76 277.62 350.66 277.83 C 355.19 291.10 368.53 302.21 383.09 301.05 C 381.47 336.20 352.66 366.69 318.64 373.56 C 293.77 378.76 266.55 372.51 247.20 355.81 C 231.11 342.35 219.79 322.21 218.90 301.04 C 233.98 302.32 246.84 290.50 251.98 277.20 Z" />
<path fill="#541e2c" stroke="#541e2c" stroke-width="0.09375" opacity="1.00" d=" M 3.21 294.22 C 3.06 289.78 3.40 285.35 3.77 280.93 C 3.72 285.36 3.66 289.80 3.21 294.22 Z" />
<path fill="#d6d6d6" stroke="#d6d6d6" stroke-width="0.09375" opacity="1.00" d=" M 442.79 286.53 C 451.70 289.95 460.11 294.54 468.86 298.35 C 468.19 300.35 467.38 302.29 466.51 304.22 C 468.21 305.32 469.96 306.35 471.74 307.32 C 471.77 309.73 471.83 312.35 470.07 314.24 C 461.36 310.43 452.82 306.26 444.12 302.45 C 444.53 300.42 445.51 298.52 445.72 296.46 C 443.25 293.72 442.14 290.21 442.79 286.53 Z" />
<path fill="#d6d6d6" stroke="#d6d6d6" stroke-width="0.09375" opacity="1.00" d=" M 112.63 307.08 C 121.11 303.30 129.25 298.48 138.04 295.60 C 138.80 303.17 132.26 306.48 126.34 308.88 C 127.17 310.83 127.99 312.78 128.79 314.75 C 120.77 318.85 112.62 322.77 104.28 326.17 C 104.18 323.56 104.21 320.95 104.35 318.36 C 107.80 316.61 111.32 315.03 114.84 313.45 C 114.21 311.29 113.44 309.17 112.63 307.08 Z" />
<path fill="#d6d6d6" stroke="#d6d6d6" stroke-width="0.09375" opacity="1.00" d=" M 482.06 304.80 C 491.13 308.47 500.00 312.68 508.76 317.04 C 507.88 318.97 507.02 320.91 506.17 322.86 C 507.68 323.68 509.19 324.50 510.71 325.31 C 510.84 327.79 511.13 330.37 510.11 332.72 C 501.28 329.09 492.69 324.84 484.08 320.73 C 483.82 318.61 485.44 316.64 485.87 314.55 C 481.53 313.26 479.52 308.73 482.06 304.80 Z" />
<path fill="#541e2c" stroke="#541e2c" stroke-width="0.09375" opacity="1.00" d=" M 3.22 306.78 C 3.66 311.19 3.73 315.63 3.77 320.07 C 3.40 315.65 3.07 311.21 3.22 306.78 Z" />
<path fill="#00166a" stroke="#00166a" stroke-width="0.09375" opacity="1.00" d=" M 43.24 316.26 C 54.12 312.88 66.90 316.30 73.70 325.68 C 76.40 329.43 78.10 333.80 78.93 338.34 C 78.97 338.71 79.05 339.44 79.09 339.81 C 80.44 354.58 68.00 368.87 53.06 368.93 C 38.66 369.95 25.20 357.48 25.06 343.06 C 24.28 331.31 32.31 320.17 43.24 316.26 Z" />
<path fill="#d6d6d6" stroke="#d6d6d6" stroke-width="0.09375" opacity="1.00" d=" M 73.70 325.68 C 81.16 321.57 88.93 317.97 96.83 314.78 C 96.80 317.32 97.18 319.96 96.43 322.43 C 93.49 324.44 90.11 325.67 86.92 327.22 C 87.48 329.38 88.13 331.52 88.83 333.64 C 85.59 335.34 82.24 336.78 78.93 338.34 C 78.10 333.80 76.40 329.43 73.70 325.68 Z" />
<path fill="#00166a" stroke="#00166a" stroke-width="0.09375" opacity="1.00" d=" M 528.16 325.55 C 535.26 316.46 547.79 312.80 558.75 316.26 C 572.36 320.88 580.57 336.96 575.58 350.61 C 571.56 363.55 556.91 371.62 543.80 368.30 C 530.41 365.46 521.01 351.47 523.16 337.98 C 523.57 336.02 524.11 334.08 524.79 332.19 C 525.77 329.91 526.88 327.68 528.16 325.55 Z" />
<path fill="#d6d6d6" stroke="#d6d6d6" stroke-width="0.09375" opacity="1.00" d=" M 522.09 323.23 C 524.11 324.00 526.13 324.78 528.16 325.55 C 526.88 327.68 525.77 329.91 524.79 332.19 C 522.89 331.39 521.01 330.57 519.13 329.75 C 519.90 327.49 520.90 325.31 522.09 323.23 Z" />
<path fill="#541e2c" stroke="#541e2c" stroke-width="0.09375" opacity="1.00" d=" M 4.48 326.19 C 4.99 327.59 5.34 329.09 5.06 330.59 C 3.09 330.70 3.16 327.11 4.48 326.19 Z" />
<path fill="#541e2c" stroke="#541e2c" stroke-width="0.09375" opacity="1.00" d=" M 5.45 336.14 C 5.99 337.21 6.36 338.40 6.14 339.63 C 4.31 340.00 4.06 336.82 5.45 336.14 Z" />
<path fill="#541e2c" stroke="#541e2c" stroke-width="0.09375" opacity="1.00" d=" M 8.33 355.02 C 9.03 355.81 9.29 356.72 9.12 357.76 C 7.45 357.33 7.18 356.42 8.33 355.02 Z" />
<path fill="#541e2c" stroke="#541e2c" stroke-width="0.09375" opacity="1.00" d=" M 593.87 357.76 C 593.69 356.72 593.95 355.81 594.66 355.02 C 595.80 356.42 595.53 357.33 593.87 357.76 Z" />
<path fill="#541e2c" stroke="#541e2c" stroke-width="0.09375" opacity="1.00" d=" M 9.23 360.02 C 9.99 360.76 10.30 361.66 10.16 362.71 C 8.48 362.35 8.17 361.46 9.23 360.02 Z" />
<path fill="#541e2c" stroke="#541e2c" stroke-width="0.09375" opacity="1.00" d=" M 592.82 362.71 C 592.68 361.66 592.99 360.76 593.76 360.02 C 594.82 361.46 594.50 362.35 592.82 362.71 Z" />
<path fill="#541e2c" stroke="#541e2c" stroke-width="0.09375" opacity="1.00" d=" M 589.84 375.76 C 589.67 374.72 589.95 373.80 590.67 373.01 C 591.78 374.42 591.50 375.33 589.84 375.76 Z" />
<path fill="#541e2c" stroke="#541e2c" stroke-width="0.09375" opacity="1.00" d=" M 588.95 378.77 C 589.18 378.30 589.63 377.34 589.86 376.86 C 589.63 377.34 589.18 378.30 588.95 378.77 Z" />
<path fill="#541e2c" stroke="#541e2c" stroke-width="0.09375" opacity="1.00" d=" M 560.76 447.86 C 561.66 445.79 562.69 443.77 563.97 441.91 C 563.26 444.07 562.33 446.18 560.76 447.86 Z" />
<path fill="#541e2c" stroke="#541e2c" stroke-width="0.09375" opacity="1.00" d=" M 456.94 554.96 C 457.38 554.67 458.26 554.10 458.70 553.81 C 458.26 554.10 457.38 554.67 456.94 554.96 Z" />
<path fill="#541e2c" stroke="#541e2c" stroke-width="0.09375" opacity="1.00" d=" M 149.30 556.82 C 149.73 557.11 150.60 557.70 151.04 558.00 C 150.60 557.70 149.73 557.11 149.30 556.82 Z" />
<path fill="#541e2c" stroke="#541e2c" stroke-width="0.09375" opacity="1.00" d=" M 451.96 557.99 C 452.39 557.70 453.27 557.12 453.71 556.83 C 453.27 557.12 452.39 557.70 451.96 557.99 Z" />
<path fill="#541e2c" stroke="#541e2c" stroke-width="0.09375" opacity="1.00" d=" M 223.17 587.94 C 223.65 588.15 224.61 588.57 225.09 588.79 C 224.61 588.57 223.65 588.15 223.17 587.94 Z" />
<path fill="#541e2c" stroke="#541e2c" stroke-width="0.09375" opacity="1.00" d=" M 377.91 588.78 C 378.39 588.57 379.35 588.15 379.83 587.94 C 379.35 588.15 378.39 588.57 377.91 588.78 Z" />
<path fill="#541e2c" stroke="#541e2c" stroke-width="0.09375" opacity="1.00" d=" M 239.30 591.83 C 240.34 591.68 241.23 591.99 241.98 592.77 C 240.53 593.82 239.64 593.50 239.30 591.83 Z" />
<path fill="#541e2c" stroke="#541e2c" stroke-width="0.09375" opacity="1.00" d=" M 361.02 592.77 C 361.76 591.99 362.65 591.68 363.70 591.83 C 363.35 593.51 362.46 593.82 361.02 592.77 Z" />
<path fill="#541e2c" stroke="#541e2c" stroke-width="0.09375" opacity="1.00" d=" M 244.24 592.88 C 245.27 592.70 246.18 592.96 246.98 593.67 C 245.58 594.81 244.67 594.55 244.24 592.88 Z" />
<path fill="#541e2c" stroke="#541e2c" stroke-width="0.09375" opacity="1.00" d=" M 356.02 593.66 C 356.81 592.96 357.72 592.69 358.76 592.88 C 358.33 594.54 357.42 594.80 356.02 593.66 Z" />
<path fill="#541e2c" stroke="#541e2c" stroke-width="0.09375" opacity="1.00" d=" M 262.37 595.86 C 263.59 595.62 264.78 596.00 265.86 596.55 C 265.17 597.93 261.99 597.67 262.37 595.86 Z" />
<path fill="#541e2c" stroke="#541e2c" stroke-width="0.09375" opacity="1.00" d=" M 337.14 596.54 C 338.21 596.00 339.40 595.62 340.62 595.86 C 341.00 597.67 337.82 597.93 337.14 596.54 Z" />
<path fill="#541e2c" stroke="#541e2c" stroke-width="0.09375" opacity="1.00" d=" M 271.41 596.94 C 272.91 596.64 274.40 597.01 275.81 597.53 C 274.88 598.83 271.29 598.89 271.41 596.94 Z" />
<path fill="#541e2c" stroke="#541e2c" stroke-width="0.09375" opacity="1.00" d=" M 328.14 597.49 C 329.24 596.99 330.43 596.62 331.65 596.92 C 331.97 598.75 328.77 598.88 328.14 597.49 Z" />
</svg>
