<?xml version="1.0" encoding="UTF-8" ?>
<!DOCTYPE svg PUBLIC "-//W3C//DTD SVG 1.1//EN" "http://www.w3.org/Graphics/SVG/1.1/DTD/svg11.dtd">
<svg width="692pt" height="692pt" viewBox="0 0 692 692" version="1.1" xmlns="http://www.w3.org/2000/svg">
<path fill="#666666" stroke="#666666" stroke-width="0.09375" opacity="1.00" d=" M 287.05 69.09 C 319.52 62.14 353.23 61.13 386.10 65.75 C 448.37 74.46 507.32 104.80 550.63 150.37 C 600.59 202.26 629.56 273.91 628.97 346.00 C 621.68 346.02 614.40 346.00 607.12 345.99 C 607.01 308.77 599.13 271.40 583.22 237.70 C 583.23 233.75 583.25 229.80 583.08 225.85 C 581.12 225.77 579.18 225.67 577.24 225.63 C 546.76 165.67 491.31 119.22 427.41 98.53 C 388.98 85.91 347.58 82.41 307.60 88.51 C 243.00 97.95 182.61 132.91 142.20 184.17 C 107.67 227.31 87.80 281.68 85.68 336.85 C 85.55 339.86 85.31 342.88 85.11 345.90 C 77.75 346.16 70.39 345.95 63.03 346.00 C 62.50 278.89 87.52 212.11 131.36 161.38 C 171.33 114.71 226.90 81.72 287.05 69.09 Z" />
<path fill="#ffffff" stroke="#ffffff" stroke-width="0.09375" opacity="1.00" d=" M 307.60 88.51 C 347.58 82.41 388.98 85.91 427.41 98.53 C 491.31 119.22 546.76 165.67 577.24 225.63 C 539.06 225.70 500.88 225.55 462.70 225.70 C 462.47 265.85 462.85 306.00 462.51 346.14 C 449.79 345.87 437.06 346.04 424.33 346.05 C 426.97 320.16 426.12 292.81 415.31 268.71 C 408.83 254.48 397.45 242.49 383.35 235.65 C 367.17 227.75 348.83 225.41 331.00 225.63 C 311.23 225.69 291.47 225.55 271.70 225.70 C 271.47 265.85 271.85 306.00 271.51 346.14 C 260.19 345.95 248.85 345.86 237.53 346.19 C 228.59 327.06 208.71 317.08 189.89 310.04 C 175.37 303.98 159.09 300.60 146.96 290.01 C 138.39 282.88 139.93 267.94 148.98 261.91 C 155.41 257.53 163.28 255.98 170.91 255.34 C 189.81 254.23 208.81 257.51 226.66 263.65 C 226.51 251.92 226.68 240.20 226.57 228.47 C 192.88 221.00 154.25 216.43 123.43 235.45 C 95.44 252.71 91.32 297.40 115.32 319.72 C 129.73 333.18 149.25 338.72 167.27 345.58 C 149.53 346.57 131.72 345.73 113.95 346.00 C 104.59 345.93 95.23 346.14 85.88 345.92 C 85.71 342.90 85.54 339.87 85.68 336.85 C 87.80 281.68 107.67 227.31 142.20 184.17 C 182.61 132.91 243.00 97.95 307.60 88.51 Z" />
<path fill="#000000" stroke="#000000" stroke-width="0.09375" opacity="1.00" d=" M 123.43 235.45 C 154.25 216.43 192.88 221.00 226.57 228.47 C 226.68 240.20 226.51 251.92 226.66 263.65 C 208.81 257.51 189.81 254.23 170.91 255.34 C 163.28 255.98 155.41 257.53 148.98 261.91 C 139.93 267.94 138.39 282.88 146.96 290.01 C 159.09 300.60 175.37 303.98 189.89 310.04 C 208.71 317.08 228.59 327.06 237.53 346.19 C 247.42 371.24 239.82 403.54 216.55 418.53 C 191.14 434.89 159.15 434.64 130.15 431.79 C 119.23 430.14 108.27 428.41 97.75 424.99 C 97.57 412.38 97.53 399.77 97.77 387.16 C 104.72 389.21 111.57 391.65 118.66 393.21 C 140.86 397.97 165.26 403.49 186.96 393.89 C 198.88 389.08 203.37 372.61 195.66 362.42 C 188.52 353.66 177.60 349.33 167.27 345.58 C 149.25 338.72 129.73 333.18 115.32 319.72 C 91.32 297.40 95.44 252.71 123.43 235.45 Z" />
<path fill="#000000" stroke="#000000" stroke-width="0.09375" opacity="1.00" d=" M 271.70 225.70 C 291.47 225.55 311.23 225.69 331.00 225.63 C 348.83 225.41 367.17 227.75 383.35 235.65 C 397.45 242.49 408.83 254.48 415.31 268.71 C 426.12 292.81 426.97 320.16 424.33 346.05 C 421.99 366.09 415.24 386.32 401.30 401.34 C 383.11 421.37 355.28 428.83 329.05 429.61 C 309.82 429.70 290.59 429.69 271.36 429.64 C 271.50 401.81 271.22 373.97 271.51 346.14 C 271.85 306.00 271.47 265.85 271.70 225.70 M 310.01 257.66 C 310.01 287.12 309.97 316.57 310.03 346.02 C 309.91 363.06 309.89 380.12 310.03 397.16 C 325.00 397.48 340.83 398.47 354.72 391.79 C 372.29 383.86 381.76 364.38 382.87 345.89 L 383.51 345.87 C 384.87 328.37 385.00 310.48 380.56 293.38 C 377.57 281.58 370.57 270.28 359.65 264.37 C 344.55 255.97 326.63 257.81 310.01 257.66 Z" />
<path fill="#000000" stroke="#000000" stroke-width="0.09375" opacity="1.00" d=" M 462.70 225.70 C 500.88 225.55 539.06 225.70 577.24 225.63 C 579.18 225.67 581.12 225.77 583.08 225.85 C 583.25 229.80 583.23 233.75 583.22 237.70 C 583.10 244.51 583.25 251.31 583.12 258.12 C 555.99 258.25 528.85 258.13 501.72 258.17 C 501.63 277.00 501.30 295.87 501.89 314.68 C 527.48 314.80 553.11 314.24 578.68 314.96 C 578.63 325.34 578.40 335.74 578.79 346.12 C 553.17 346.43 527.53 345.80 501.90 346.14 C 501.33 373.97 501.86 401.82 501.65 429.65 C 488.55 429.68 475.45 429.70 462.36 429.64 C 462.51 401.81 462.21 373.97 462.51 346.14 C 462.85 306.00 462.47 265.85 462.70 225.70 Z" />
<path fill="#ffffff" stroke="#ffffff" stroke-width="0.09375" opacity="1.00" d=" M 583.22 237.70 C 599.13 271.40 607.01 308.77 607.12 345.99 C 597.68 346.07 588.23 345.86 578.79 346.12 C 578.40 335.74 578.63 325.34 578.68 314.96 C 553.11 314.24 527.48 314.80 501.89 314.68 C 501.30 295.87 501.63 277.00 501.72 258.17 C 528.85 258.13 555.99 258.25 583.12 258.12 C 583.25 251.31 583.10 244.51 583.22 237.70 Z" />
<path fill="#ffffff" stroke="#ffffff" stroke-width="0.09375" opacity="1.00" d=" M 310.01 257.66 C 326.63 257.81 344.55 255.97 359.65 264.37 C 370.57 270.28 377.57 281.58 380.56 293.38 C 385.00 310.48 384.87 328.37 383.51 345.87 L 382.87 345.89 C 358.60 346.18 334.31 345.92 310.03 346.02 C 309.97 316.57 310.01 287.12 310.01 257.66 Z" />
<path fill="#66cc99" stroke="#66cc99" stroke-width="0.09375" opacity="1.00" d=" M 85.11 345.90 C 85.31 342.88 85.55 339.86 85.68 336.85 C 85.54 339.87 85.71 342.90 85.88 345.92 C 95.23 346.14 104.59 345.93 113.95 346.00 C 113.97 361.83 115.38 377.70 118.66 393.21 C 111.57 391.65 104.72 389.21 97.77 387.16 C 97.53 399.77 97.57 412.38 97.75 424.99 C 108.27 428.41 119.23 430.14 130.15 431.79 C 151.57 486.83 194.92 532.84 248.61 557.46 C 284.13 574.07 323.94 581.31 363.04 578.45 C 425.94 574.35 486.42 543.00 526.21 494.14 C 560.09 452.90 579.70 399.61 578.79 346.12 C 588.23 345.86 597.68 346.07 607.12 345.99 C 614.40 346.00 621.68 346.02 628.97 346.00 C 637.04 346.02 645.12 345.95 653.20 346.03 C 653.77 412.16 631.70 478.13 591.90 530.90 C 556.32 578.59 506.36 615.28 450.37 635.33 C 386.20 658.48 314.24 659.29 249.61 637.41 C 187.94 616.97 133.32 576.12 96.12 522.88 C 60.10 471.54 39.96 408.83 40.80 346.04 C 48.21 345.95 55.62 346.02 63.03 346.00 C 70.39 345.95 77.75 346.16 85.11 345.90 Z" />
<path fill="#335f33" stroke="#335f33" stroke-width="0.09375" opacity="1.00" d=" M 167.27 345.58 C 177.60 349.33 188.52 353.66 195.66 362.42 C 203.37 372.61 198.88 389.08 186.96 393.89 C 165.26 403.49 140.86 397.97 118.66 393.21 C 115.38 377.70 113.97 361.83 113.95 346.00 C 131.72 345.73 149.53 346.57 167.27 345.58 Z" />
<path fill="#cccccc" stroke="#cccccc" stroke-width="0.09375" opacity="1.00" d=" M 14.02 346.02 C 22.95 345.98 31.87 345.97 40.80 346.04 C 39.96 408.83 60.10 471.54 96.12 522.88 C 133.32 576.12 187.94 616.97 249.61 637.41 C 314.24 659.29 386.20 658.48 450.37 635.33 C 506.36 615.28 556.32 578.59 591.90 530.90 C 631.70 478.13 653.77 412.16 653.20 346.03 C 661.79 345.97 670.38 345.98 678.98 346.02 C 679.42 416.49 656.26 486.76 614.47 543.45 C 554.59 625.93 454.97 677.73 353.01 678.93 C 291.15 680.41 229.07 663.76 175.99 632.02 C 121.94 599.86 77.42 551.95 49.29 495.69 C 26.10 449.46 13.69 397.77 14.02 346.02 Z" />
<path fill="#335f33" stroke="#335f33" stroke-width="0.09375" opacity="1.00" d=" M 237.53 346.19 C 248.85 345.86 260.19 345.95 271.51 346.14 C 271.22 373.97 271.50 401.81 271.36 429.64 C 290.59 429.69 309.82 429.70 329.05 429.61 C 355.28 428.83 383.11 421.37 401.30 401.34 C 415.24 386.32 421.99 366.09 424.33 346.05 C 437.06 346.04 449.79 345.87 462.51 346.14 C 462.21 373.97 462.51 401.81 462.36 429.64 C 475.45 429.70 488.55 429.68 501.65 429.65 C 501.86 401.82 501.33 373.97 501.90 346.14 C 527.53 345.80 553.17 346.43 578.79 346.12 C 579.70 399.61 560.09 452.90 526.21 494.14 C 486.42 543.00 425.94 574.35 363.04 578.45 C 323.94 581.31 284.13 574.07 248.61 557.46 C 194.92 532.84 151.57 486.83 130.15 431.79 C 159.15 434.64 191.14 434.89 216.55 418.53 C 239.82 403.54 247.42 371.24 237.53 346.19 Z" />
<path fill="#335f33" stroke="#335f33" stroke-width="0.09375" opacity="1.00" d=" M 310.03 346.02 C 334.31 345.92 358.60 346.18 382.87 345.89 C 381.76 364.38 372.29 383.86 354.72 391.79 C 340.83 398.47 325.00 397.48 310.03 397.16 C 309.89 380.12 309.91 363.06 310.03 346.02 Z" />
</svg>
