<?xml version="1.0" encoding="UTF-8" ?>
<!DOCTYPE svg PUBLIC "-//W3C//DTD SVG 1.1//EN" "http://www.w3.org/Graphics/SVG/1.1/DTD/svg11.dtd">
<svg width="650pt" height="650pt" viewBox="0 0 650 650" version="1.1" xmlns="http://www.w3.org/2000/svg">
<path fill="#5e3b96" stroke="#5e3b96" stroke-width="0.09375" opacity="1.00" d=" M 281.88 27.44 C 297.34 23.92 313.29 25.25 329.00 25.00 C 342.71 25.13 356.66 24.22 370.10 27.42 C 371.22 27.92 372.44 28.27 373.69 28.08 C 374.53 28.14 376.22 28.26 377.06 28.33 C 377.85 29.02 378.75 29.28 379.79 29.12 C 380.35 29.16 381.48 29.24 382.05 29.27 C 382.83 29.97 383.75 30.24 384.79 30.09 C 385.36 30.12 386.49 30.20 387.05 30.24 C 387.81 30.97 388.71 31.28 389.75 31.17 C 391.89 31.15 394.04 31.49 396.03 32.31 C 396.83 32.99 397.75 33.29 398.81 33.19 L 399.96 33.26 C 400.75 33.98 401.66 34.28 402.71 34.18 C 404.20 34.19 405.81 34.25 407.05 35.20 C 407.79 35.94 408.68 36.27 409.72 36.18 C 417.37 37.43 424.69 40.53 431.95 43.18 C 432.42 43.43 433.35 43.93 433.81 44.17 C 436.71 44.64 439.64 45.65 441.96 47.50 C 442.94 48.46 444.17 49.15 445.58 49.17 C 448.57 49.45 451.22 50.97 453.89 52.23 C 496.11 72.45 534.33 102.00 562.72 139.33 C 563.05 139.74 563.71 140.55 564.04 140.96 C 566.06 142.67 567.64 144.91 568.79 147.28 C 569.10 147.70 569.72 148.56 570.02 148.98 C 571.67 150.39 572.99 152.24 573.73 154.28 C 574.05 154.70 574.69 155.53 575.01 155.95 C 576.43 156.94 577.36 158.57 577.75 160.24 C 578.06 160.67 578.67 161.52 578.97 161.95 C 580.66 163.74 582.07 165.89 582.80 168.26 C 583.09 168.71 583.66 169.59 583.95 170.03 C 590.96 181.15 597.65 192.94 601.83 205.41 C 601.85 206.82 602.53 208.05 603.50 209.04 C 608.50 219.17 612.35 230.24 614.82 241.27 C 614.73 242.31 615.05 243.19 615.80 243.94 C 616.73 245.18 616.81 246.78 616.82 248.27 C 616.70 249.29 616.99 250.20 617.70 250.98 C 618.93 254.25 619.80 257.73 619.85 261.24 C 619.72 262.27 620.02 263.18 620.75 263.96 C 620.79 264.52 620.87 265.65 620.91 266.21 C 620.75 267.25 621.02 268.16 621.73 268.96 C 621.77 269.54 621.86 270.72 621.90 271.30 C 621.75 272.55 622.09 273.76 622.60 274.90 C 622.68 275.50 622.83 276.69 622.91 277.28 C 622.76 278.53 623.07 279.74 623.57 280.88 C 624.80 285.13 624.89 289.61 625.01 294.01 C 624.98 315.01 625.01 336.01 625.00 357.01 C 624.86 361.05 624.92 365.22 623.58 369.10 C 623.06 370.23 622.76 371.45 622.91 372.71 C 622.83 373.31 622.68 374.51 622.60 375.10 C 622.09 376.23 621.75 377.44 621.90 378.70 C 621.86 379.29 621.77 380.46 621.73 381.05 C 621.02 381.83 620.74 382.75 620.91 383.79 C 620.87 384.35 620.79 385.48 620.76 386.05 C 620.02 386.81 619.71 387.71 619.83 388.75 C 619.85 390.89 619.50 393.04 618.69 395.03 C 618.00 395.83 617.70 396.75 617.81 397.81 L 617.74 398.97 C 617.01 399.75 616.71 400.66 616.82 401.72 C 616.80 403.20 616.74 404.81 615.81 406.06 C 615.05 406.79 614.73 407.68 614.82 408.72 C 613.56 416.37 610.48 423.69 607.82 430.95 C 607.57 431.42 607.08 432.35 606.83 432.81 C 606.35 435.71 605.35 438.64 603.49 440.96 C 602.53 441.94 601.84 443.16 601.83 444.58 C 598.46 455.27 592.72 465.36 586.93 474.97 C 586.64 475.41 586.07 476.29 585.79 476.74 C 584.67 479.73 582.83 482.44 580.90 484.98 C 580.63 485.42 580.07 486.31 579.79 486.76 C 579.59 487.08 579.19 487.72 578.99 488.04 C 578.68 488.46 578.05 489.31 577.74 489.73 C 576.66 492.44 574.86 494.84 573.00 497.06 C 572.66 497.46 571.98 498.26 571.64 498.66 C 552.43 526.72 527.72 551.43 499.66 570.64 C 499.26 570.98 498.46 571.66 498.06 572.00 C 495.84 573.86 493.44 575.65 490.74 576.74 C 490.31 577.05 489.47 577.67 489.04 577.99 C 488.72 578.19 488.08 578.59 487.76 578.79 C 487.32 579.07 486.43 579.63 485.98 579.91 C 483.44 581.83 480.73 583.67 477.74 584.79 C 477.29 585.07 476.41 585.64 475.96 585.92 C 466.37 591.74 456.28 597.48 445.58 600.83 C 444.16 600.83 442.94 601.53 441.96 602.50 C 431.86 607.58 420.74 611.31 409.72 613.82 C 408.68 613.72 407.79 614.05 407.06 614.80 C 405.81 615.74 404.20 615.80 402.71 615.82 C 401.66 615.71 400.75 616.02 399.97 616.74 L 398.81 616.81 C 397.75 616.70 396.83 617.00 396.03 617.69 C 394.04 618.50 391.89 618.85 389.75 618.84 C 388.71 618.71 387.81 619.02 387.05 619.76 C 386.48 619.80 385.36 619.88 384.79 619.92 C 383.75 619.75 382.84 620.02 382.05 620.73 C 381.46 620.77 380.29 620.86 379.70 620.90 C 378.44 620.75 377.23 621.10 376.10 621.61 C 375.50 621.68 374.31 621.84 373.71 621.91 C 372.45 621.75 371.23 622.06 370.10 622.58 C 354.35 626.21 338.03 624.66 322.00 625.00 C 313.95 624.71 305.82 625.61 297.83 624.50 C 296.37 624.07 294.87 623.78 293.36 623.93 C 289.50 624.00 285.61 623.58 281.88 622.56 C 280.74 622.08 279.53 621.76 278.29 621.92 C 277.69 621.84 276.50 621.68 275.90 621.61 C 274.76 621.09 273.55 620.75 272.30 620.90 C 271.71 620.86 270.54 620.77 269.95 620.73 C 269.16 620.01 268.24 619.74 267.21 619.91 C 266.65 619.87 265.52 619.78 264.96 619.74 C 264.17 619.02 263.26 618.73 262.23 618.89 C 261.67 618.88 260.56 618.88 260.00 618.88 C 259.52 618.66 258.57 618.21 258.09 617.99 C 257.56 617.93 256.49 617.81 255.95 617.75 C 255.17 617.02 254.25 616.70 253.20 616.80 L 252.04 616.74 C 251.24 616.02 250.33 615.71 249.29 615.82 C 247.79 615.80 246.18 615.73 244.94 614.80 C 244.19 614.05 243.31 613.72 242.27 613.82 C 232.93 612.00 223.86 608.43 215.04 604.86 C 214.58 604.61 213.66 604.11 213.19 603.86 C 211.93 603.89 210.87 603.45 210.01 602.53 C 209.06 601.51 207.83 600.82 206.42 600.83 C 195.68 597.53 185.71 591.60 176.03 585.94 C 175.59 585.65 174.71 585.07 174.27 584.79 C 170.27 583.01 166.47 580.56 162.94 577.99 C 162.52 577.67 161.68 577.05 161.26 576.74 C 129.54 556.55 101.64 529.66 80.36 498.66 C 80.02 498.26 79.33 497.46 78.99 497.06 C 77.13 494.84 75.35 492.44 74.26 489.74 C 73.95 489.31 73.32 488.47 73.01 488.04 C 72.81 487.72 72.41 487.08 72.21 486.76 C 71.93 486.31 71.37 485.43 71.09 484.98 C 63.03 472.20 54.98 458.91 50.17 444.58 C 50.17 443.16 49.49 441.93 48.48 440.99 C 47.55 440.13 47.10 439.07 47.15 437.80 C 46.88 437.35 46.35 436.45 46.09 436.00 C 45.47 435.02 45.16 433.97 45.15 432.82 C 44.91 432.36 44.43 431.42 44.19 430.96 C 41.52 423.69 38.44 416.37 37.18 408.72 C 37.27 407.68 36.94 406.79 36.20 406.06 C 35.26 404.81 35.19 403.20 35.18 401.71 C 35.28 400.66 34.98 399.74 34.26 398.96 L 34.19 397.80 C 34.29 396.75 33.99 395.82 33.30 395.03 C 32.49 393.04 32.15 390.89 32.17 388.75 C 32.28 387.71 31.97 386.81 31.24 386.05 C 31.20 385.48 31.12 384.36 31.09 383.79 C 31.24 382.75 30.97 381.84 30.27 381.05 C 30.23 380.46 30.14 379.29 30.10 378.70 C 30.24 377.44 29.90 376.23 29.40 375.10 C 29.32 374.51 29.17 373.31 29.09 372.72 C 29.23 371.46 28.93 370.24 28.42 369.10 C 23.64 340.06 23.66 309.94 28.44 280.88 C 28.91 279.74 29.23 278.53 29.09 277.29 C 29.17 276.69 29.32 275.50 29.40 274.90 C 29.89 273.76 30.24 272.55 30.10 271.30 C 30.14 270.71 30.23 269.54 30.28 268.95 C 30.98 268.15 31.25 267.24 31.09 266.20 C 31.13 265.64 31.21 264.52 31.25 263.96 C 31.97 263.18 32.27 262.27 32.15 261.24 C 32.20 257.73 33.06 254.25 34.30 250.98 C 35.00 250.20 35.29 249.30 35.18 248.27 C 35.18 246.78 35.26 245.18 36.19 243.95 C 36.94 243.20 37.26 242.31 37.18 241.28 C 39.65 230.24 43.50 219.17 48.50 209.04 C 49.46 208.05 50.15 206.82 50.18 205.42 C 53.55 194.69 59.31 184.67 65.07 175.03 C 65.35 174.58 65.90 173.69 66.18 173.25 C 66.28 171.96 67.11 170.84 68.06 170.03 C 68.34 169.59 68.92 168.71 69.21 168.27 C 70.02 165.93 71.35 163.76 73.03 161.95 C 73.33 161.52 73.95 160.67 74.25 160.24 C 74.63 158.57 75.57 156.93 76.99 155.95 C 77.31 155.53 77.95 154.70 78.27 154.28 C 80.98 149.56 84.28 144.97 87.96 140.96 C 88.29 140.55 88.94 139.73 89.27 139.32 C 107.59 115.26 130.14 94.05 155.27 77.26 C 155.69 76.94 156.53 76.31 156.95 75.99 C 157.93 74.56 159.58 73.64 161.25 73.25 C 161.67 72.94 162.52 72.33 162.95 72.02 C 164.75 70.34 166.89 68.93 169.26 68.20 C 169.70 67.91 170.59 67.34 171.04 67.06 C 182.14 60.03 193.94 53.35 206.42 49.18 C 207.82 49.16 209.06 48.49 210.01 47.48 C 210.86 46.55 211.93 46.10 213.19 46.14 C 213.65 45.89 214.57 45.38 215.03 45.13 C 216.90 44.05 219.01 43.34 221.16 43.13 C 221.62 42.87 222.54 42.37 223.01 42.12 C 229.30 39.85 235.63 37.15 242.28 36.18 C 243.31 36.27 244.20 35.94 244.94 35.20 C 246.18 34.25 247.79 34.19 249.29 34.18 C 250.33 34.28 251.25 33.98 252.04 33.26 L 253.20 33.19 C 254.24 33.29 255.16 32.99 255.97 32.29 C 257.90 31.34 260.10 31.09 262.24 31.15 C 263.27 31.28 264.18 30.98 264.95 30.25 C 265.52 30.21 266.64 30.13 267.21 30.09 C 268.24 30.24 269.15 29.97 269.95 29.27 C 270.54 29.23 271.71 29.14 272.30 29.10 C 273.55 29.24 274.76 28.90 275.90 28.40 C 276.50 28.32 277.69 28.17 278.29 28.09 C 279.53 28.23 280.74 27.91 281.88 27.44 M 295.11 72.10 C 284.32 90.82 277.74 111.66 269.64 131.63 C 267.63 135.44 267.63 141.45 262.76 142.78 C 253.92 146.17 245.22 149.90 236.43 153.40 C 232.79 154.76 229.35 152.09 226.05 150.91 C 207.24 143.15 188.47 135.17 169.15 128.77 C 166.20 128.00 162.22 125.76 159.86 128.85 C 147.24 141.68 133.93 153.90 121.73 167.09 C 128.58 191.03 140.90 213.15 150.78 235.99 C 146.52 246.27 142.45 256.68 137.75 266.76 C 116.04 276.08 93.68 284.06 72.36 294.35 C 70.13 295.69 66.52 296.62 67.07 299.94 C 67.03 317.92 66.97 335.90 67.10 353.88 C 79.08 360.71 92.26 365.08 105.03 370.16 C 102.43 381.12 105.27 392.86 112.36 401.59 C 119.58 412.74 134.89 414.39 146.83 411.86 C 148.27 411.91 149.70 411.95 151.13 412.01 C 142.53 436.09 129.62 458.79 123.36 483.66 C 135.67 496.63 148.69 508.98 161.35 521.62 C 163.83 524.57 167.83 522.84 170.86 521.90 C 191.86 514.13 212.20 504.72 232.70 495.74 C 234.90 494.62 237.23 495.94 239.30 496.72 C 247.22 500.28 255.42 503.18 263.41 506.60 C 265.55 507.35 266.91 509.22 267.71 511.26 C 275.94 531.40 284.24 551.55 293.92 571.05 C 295.42 573.42 296.39 577.45 299.95 576.94 C 318.27 576.97 336.58 577.01 354.90 576.91 C 367.39 555.03 374.31 530.45 384.54 507.56 C 393.81 503.33 403.48 499.94 412.84 495.87 C 416.40 494.05 420.01 496.45 423.27 497.79 C 443.01 505.87 462.64 514.29 482.89 521.03 C 485.03 521.71 487.90 522.62 489.64 520.61 C 502.44 508.05 515.10 495.33 527.94 482.84 C 528.62 477.80 525.03 473.17 524.09 468.26 C 524.81 467.58 527.18 467.60 526.77 466.31 C 529.47 465.22 532.12 464.00 534.82 462.92 C 537.50 461.27 540.98 459.91 542.31 456.88 C 539.48 457.17 536.67 457.64 533.91 458.33 L 534.05 459.04 C 531.30 460.29 528.60 461.62 525.98 463.12 C 524.69 463.68 523.39 464.22 522.09 464.73 C 520.90 461.56 519.69 458.38 518.77 455.12 C 520.24 454.41 521.72 453.72 523.20 453.04 C 525.97 451.88 528.51 450.30 531.06 448.73 C 533.75 448.07 536.43 447.37 539.12 446.70 C 538.75 442.90 537.76 439.19 536.01 435.80 C 533.68 436.81 531.27 437.59 528.87 438.39 L 529.01 439.09 C 527.18 439.45 525.36 439.85 523.56 440.34 C 522.69 441.08 521.82 441.82 520.96 442.58 L 521.04 442.98 C 518.47 443.19 516.11 444.22 513.74 445.13 C 512.67 442.02 511.13 439.11 509.89 436.08 C 512.47 434.77 515.08 433.52 517.60 432.11 C 520.36 431.01 523.06 429.77 525.67 428.36 C 528.56 428.11 531.29 427.11 533.81 425.69 C 531.68 419.10 530.55 412.23 528.18 405.70 C 527.29 403.46 527.61 398.10 524.18 398.94 C 530.63 395.70 534.94 389.67 537.93 383.29 C 542.92 383.75 547.93 383.25 552.90 382.77 C 552.99 379.87 553.03 376.98 553.04 374.09 L 552.10 374.18 C 552.05 371.41 552.03 368.64 552.01 365.87 C 555.30 364.51 558.62 363.20 561.92 361.83 C 562.17 362.04 562.68 362.47 562.94 362.68 L 562.05 362.81 C 562.08 366.32 560.47 373.20 566.21 372.41 C 565.15 372.53 564.09 372.67 563.04 372.83 C 562.99 375.77 563.00 378.71 563.04 381.65 C 564.59 381.29 566.15 380.92 567.72 380.55 C 567.95 377.82 568.32 375.02 567.59 372.33 L 567.01 372.34 L 567.78 372.07 C 568.17 368.65 567.97 365.21 567.89 361.78 L 566.89 361.99 C 567.87 361.29 568.26 360.30 568.08 359.04 C 573.04 356.89 578.17 354.83 582.55 351.61 C 583.48 332.85 582.80 313.94 582.87 295.13 C 560.46 283.17 535.83 276.09 512.37 266.57 C 507.58 256.57 503.25 246.23 499.32 235.85 C 507.93 212.25 520.43 189.75 526.65 165.28 C 514.33 152.35 501.27 140.04 488.63 127.39 C 486.18 124.44 482.17 126.20 479.15 127.11 C 457.88 134.88 437.38 144.56 416.59 153.50 C 415.09 154.09 413.53 153.35 412.13 152.86 C 402.73 148.86 393.17 145.25 383.78 141.25 C 374.83 120.02 366.40 98.53 356.06 77.93 C 354.55 75.57 353.61 71.54 350.05 72.06 C 331.74 72.03 313.42 71.97 295.11 72.10 Z" />
<path fill="#342052" stroke="#342052" stroke-width="0.09375" opacity="1.00" d=" M 278.29 28.09 C 277.93 26.22 281.16 26.06 281.88 27.44 C 280.74 27.91 279.53 28.23 278.29 28.09 Z" />
<path fill="#342052" stroke="#342052" stroke-width="0.09375" opacity="1.00" d=" M 370.10 27.42 C 370.82 26.08 374.04 26.22 373.69 28.08 C 372.44 28.27 371.22 27.92 370.10 27.42 Z" />
<path fill="#342052" stroke="#342052" stroke-width="0.09375" opacity="1.00" d=" M 272.30 29.10 C 271.94 27.23 275.15 27.05 275.90 28.40 C 274.76 28.90 273.55 29.24 272.30 29.10 Z" />
<path fill="#342052" stroke="#342052" stroke-width="0.09375" opacity="1.00" d=" M 377.06 28.33 C 378.48 27.18 379.39 27.45 379.79 29.12 C 378.75 29.28 377.85 29.02 377.06 28.33 Z" />
<path fill="#342052" stroke="#342052" stroke-width="0.09375" opacity="1.00" d=" M 267.21 30.09 C 267.59 28.42 268.50 28.15 269.95 29.27 C 269.15 29.97 268.24 30.24 267.21 30.09 Z" />
<path fill="#342052" stroke="#342052" stroke-width="0.09375" opacity="1.00" d=" M 382.05 29.27 C 383.48 28.15 384.39 28.42 384.79 30.09 C 383.75 30.24 382.83 29.97 382.05 29.27 Z" />
<path fill="#342052" stroke="#342052" stroke-width="0.09375" opacity="1.00" d=" M 262.24 31.15 C 262.57 29.47 263.48 29.17 264.95 30.25 C 264.18 30.98 263.27 31.28 262.24 31.15 Z" />
<path fill="#342052" stroke="#342052" stroke-width="0.09375" opacity="1.00" d=" M 387.05 30.24 C 388.52 29.17 389.42 29.48 389.75 31.17 C 388.71 31.28 387.81 30.97 387.05 30.24 Z" />
<path fill="#342052" stroke="#342052" stroke-width="0.09375" opacity="1.00" d=" M 253.20 33.19 C 253.57 31.50 254.49 31.21 255.97 32.29 C 255.16 32.99 254.24 33.29 253.20 33.19 Z" />
<path fill="#342052" stroke="#342052" stroke-width="0.09375" opacity="1.00" d=" M 396.03 32.31 C 397.49 31.21 398.42 31.51 398.81 33.19 C 397.75 33.29 396.83 32.99 396.03 32.31 Z" />
<path fill="#342052" stroke="#342052" stroke-width="0.09375" opacity="1.00" d=" M 249.29 34.18 C 249.62 32.50 250.53 32.20 252.04 33.26 C 251.25 33.98 250.33 34.28 249.29 34.18 Z" />
<path fill="#342052" stroke="#342052" stroke-width="0.09375" opacity="1.00" d=" M 399.96 33.26 C 401.45 32.19 402.37 32.50 402.71 34.18 C 401.66 34.28 400.75 33.98 399.96 33.26 Z" />
<path fill="#342052" stroke="#342052" stroke-width="0.09375" opacity="1.00" d=" M 242.28 36.18 C 242.54 34.48 243.43 34.15 244.94 35.20 C 244.20 35.94 243.31 36.27 242.28 36.18 Z" />
<path fill="#342052" stroke="#342052" stroke-width="0.09375" opacity="1.00" d=" M 407.05 35.20 C 408.55 34.15 409.44 34.48 409.72 36.18 C 408.68 36.27 407.79 35.94 407.05 35.20 Z" />
<path fill="#342052" stroke="#342052" stroke-width="0.09375" opacity="1.00" d=" M 221.16 43.13 C 221.62 42.87 222.54 42.37 223.01 42.12 C 222.54 42.37 221.62 42.87 221.16 43.13 Z" />
<path fill="#342052" stroke="#342052" stroke-width="0.09375" opacity="1.00" d=" M 431.95 43.18 C 432.42 43.43 433.35 43.93 433.81 44.17 C 433.35 43.93 432.42 43.43 431.95 43.18 Z" />
<path fill="#342052" stroke="#342052" stroke-width="0.09375" opacity="1.00" d=" M 213.19 46.14 C 213.65 45.89 214.57 45.38 215.03 45.13 C 214.57 45.38 213.65 45.89 213.19 46.14 Z" />
<path fill="#342052" stroke="#342052" stroke-width="0.09375" opacity="1.00" d=" M 206.42 49.18 C 205.68 47.40 208.90 46.22 210.01 47.48 C 209.06 48.49 207.82 49.16 206.42 49.18 Z" />
<path fill="#342052" stroke="#342052" stroke-width="0.09375" opacity="1.00" d=" M 441.96 47.50 C 443.04 46.21 446.32 47.36 445.58 49.17 C 444.17 49.15 442.94 48.46 441.96 47.50 Z" />
<path fill="#342052" stroke="#342052" stroke-width="0.09375" opacity="1.00" d=" M 169.26 68.20 C 169.70 67.91 170.59 67.34 171.04 67.06 C 170.59 67.34 169.70 67.91 169.26 68.20 Z" />
<path fill="#342052" stroke="#342052" stroke-width="0.09375" opacity="1.00" d=" M 161.25 73.25 C 161.67 72.94 162.52 72.33 162.95 72.02 C 162.52 72.33 161.67 72.94 161.25 73.25 Z" />
<path fill="#342052" stroke="#342052" stroke-width="0.09375" opacity="1.00" d=" M 295.11 72.10 C 313.42 71.97 331.74 72.03 350.05 72.06 C 353.61 71.54 354.55 75.57 356.06 77.93 C 366.40 98.53 374.83 120.02 383.78 141.25 C 393.17 145.25 402.73 148.86 412.13 152.86 C 413.53 153.35 415.09 154.09 416.59 153.50 C 437.38 144.56 457.88 134.88 479.15 127.11 C 482.17 126.20 486.18 124.44 488.63 127.39 C 501.27 140.04 514.33 152.35 526.65 165.28 C 520.43 189.75 507.93 212.25 499.32 235.85 C 503.25 246.23 507.58 256.57 512.37 266.57 C 535.83 276.09 560.46 283.17 582.87 295.13 C 582.80 313.94 583.48 332.85 582.55 351.61 C 578.17 354.83 573.04 356.89 568.08 359.04 C 568.01 357.15 567.87 355.28 567.73 353.41 C 565.97 353.47 564.22 353.54 562.47 353.63 C 562.12 356.35 561.88 359.08 561.92 361.83 C 558.62 363.20 555.30 364.51 552.01 365.87 C 552.01 365.40 552.00 364.44 552.00 363.96 C 551.99 361.18 551.98 358.41 551.96 355.64 C 547.36 355.88 542.80 356.45 538.26 357.16 C 537.23 354.64 535.90 352.25 534.33 350.03 C 537.72 342.62 542.73 335.91 545.13 328.09 C 542.51 327.24 539.70 326.46 537.05 327.63 C 536.93 327.14 536.67 326.16 536.55 325.67 C 533.99 324.99 531.44 324.30 528.96 323.40 C 526.38 322.42 523.83 321.36 521.28 320.28 C 519.09 325.89 515.48 330.79 512.66 336.09 C 502.58 334.51 491.56 337.17 484.15 344.40 C 475.77 337.02 465.73 331.87 456.90 325.08 C 401.94 288.14 347.45 250.55 292.41 213.74 C 292.46 212.87 292.46 212.01 292.45 211.14 C 314.24 209.49 335.87 205.86 357.56 203.15 C 357.18 200.34 356.93 197.51 356.45 194.71 C 355.89 191.75 355.11 188.84 354.57 185.88 C 353.71 183.11 354.54 177.05 350.07 178.11 C 328.17 181.17 306.00 182.84 284.35 187.32 C 284.29 187.67 284.17 188.38 284.12 188.74 C 277.63 180.73 267.23 176.28 256.97 176.82 C 241.82 177.24 227.74 189.10 225.05 204.07 C 224.08 210.60 224.34 217.45 226.78 223.65 C 223.75 226.45 221.64 230.02 219.42 233.46 C 193.32 270.48 168.34 308.28 141.82 344.99 C 125.49 343.01 109.31 354.40 105.03 370.16 C 92.26 365.08 79.08 360.71 67.10 353.88 C 66.97 335.90 67.03 317.92 67.07 299.94 C 66.52 296.62 70.13 295.69 72.36 294.35 C 93.68 284.06 116.04 276.08 137.75 266.76 C 142.45 256.68 146.52 246.27 150.78 235.99 C 140.90 213.15 128.58 191.03 121.73 167.09 C 133.93 153.90 147.24 141.68 159.86 128.85 C 162.22 125.76 166.20 128.00 169.15 128.77 C 188.47 135.17 207.24 143.15 226.05 150.91 C 229.35 152.09 232.79 154.76 236.43 153.40 C 245.22 149.90 253.92 146.17 262.76 142.78 C 267.63 141.45 267.63 135.44 269.64 131.63 C 277.74 111.66 284.32 90.82 295.11 72.10 M 473.90 160.58 C 474.80 163.50 473.91 169.33 478.17 169.34 C 477.62 169.47 476.51 169.74 475.96 169.87 C 476.53 172.61 477.30 175.32 478.23 177.96 L 479.13 177.81 C 479.08 179.84 479.03 181.86 478.94 183.89 C 480.65 184.77 482.52 187.30 484.50 185.65 C 484.54 183.41 484.09 181.21 483.84 179.00 C 482.63 178.37 481.41 177.38 479.95 177.68 C 481.00 177.48 482.04 177.26 483.09 177.01 C 482.66 174.25 481.84 171.57 480.74 169.00 L 480.07 169.09 C 479.80 165.48 478.08 160.91 473.90 160.58 M 454.27 163.29 C 456.06 166.22 456.61 171.96 461.14 171.35 C 460.06 171.51 458.98 171.69 457.92 171.91 C 458.61 174.79 459.70 177.56 460.96 180.24 C 460.92 183.14 461.59 185.98 462.43 188.74 C 464.91 188.46 467.38 188.19 469.86 187.85 C 469.41 184.95 468.78 182.07 467.90 179.28 C 467.10 176.48 466.39 173.66 465.76 170.82 C 464.79 168.21 464.43 165.25 462.72 163.00 C 459.98 162.27 457.07 163.22 454.27 163.29 M 426.86 167.10 C 428.03 169.67 429.01 172.36 429.19 175.20 L 429.90 175.13 C 430.06 178.12 430.56 181.07 431.30 183.97 C 431.97 186.69 432.58 189.42 433.31 192.12 C 439.60 191.85 445.80 190.67 452.04 189.90 C 451.39 187.20 451.14 184.43 450.76 181.69 C 450.28 181.74 449.32 181.84 448.84 181.89 C 451.33 179.80 447.87 175.84 447.69 173.06 L 447.16 173.10 C 446.12 170.19 444.77 167.40 443.63 164.53 C 438.16 166.06 432.43 166.12 426.86 167.10 M 396.35 171.28 C 397.48 174.05 398.36 176.92 398.99 179.85 C 399.55 182.69 400.37 185.48 401.23 188.25 C 401.73 188.22 402.71 188.17 403.21 188.15 L 402.17 188.24 C 401.71 191.19 402.28 194.10 403.34 196.85 C 409.89 196.08 416.43 195.19 422.94 194.14 C 421.83 191.49 423.17 185.38 418.90 186.03 C 419.45 185.78 420.57 185.28 421.12 185.03 C 420.43 182.28 420.52 177.68 416.78 177.43 C 417.37 177.33 418.55 177.13 419.14 177.03 C 419.19 174.16 417.98 171.56 416.68 169.08 C 409.89 169.69 403.16 170.89 396.35 171.28 M 363.04 175.83 C 363.47 178.62 364.12 181.37 364.86 184.10 C 365.31 186.77 365.66 189.47 366.29 192.12 C 366.73 192.25 367.62 192.52 368.06 192.66 L 367.02 192.74 C 367.01 195.15 367.01 197.57 366.97 199.99 C 367.86 200.37 368.61 201.41 369.66 201.31 C 377.39 200.16 385.14 199.08 392.89 198.12 C 392.28 195.42 391.92 192.67 391.79 189.91 L 391.02 189.98 C 390.13 187.09 389.42 184.15 388.46 181.29 L 388.06 181.31 L 388.76 181.18 C 388.21 178.31 386.86 175.70 385.67 173.06 C 378.08 173.58 370.60 175.03 363.04 175.83 M 536.94 290.64 C 536.24 292.63 535.58 294.63 534.94 296.64 C 537.04 297.73 539.26 298.60 541.56 299.20 C 544.39 300.73 547.85 303.36 551.08 301.21 L 550.06 301.90 C 552.88 303.54 556.13 304.07 559.30 304.67 C 559.67 301.34 555.43 299.35 552.65 300.22 C 549.95 298.26 546.90 296.89 543.91 295.46 C 542.10 293.19 539.72 291.51 536.94 290.64 M 529.26 304.79 C 528.34 307.09 527.45 309.41 526.35 311.64 C 528.80 312.64 531.28 313.67 533.92 314.09 L 533.71 314.57 C 536.31 315.00 538.86 315.72 541.16 317.06 C 541.71 316.85 542.82 316.41 543.37 316.20 L 543.02 316.74 C 545.57 317.97 548.20 319.03 550.83 320.11 C 551.63 317.89 552.17 315.60 552.29 313.25 C 550.06 312.66 547.81 312.07 545.49 312.12 C 542.72 311.12 540.17 308.65 537.07 309.15 C 534.49 307.65 531.84 306.29 529.26 304.79 Z" />
<path fill="#342052" stroke="#342052" stroke-width="0.09375" opacity="1.00" d=" M 155.27 77.26 C 155.69 76.94 156.53 76.31 156.95 75.99 C 156.53 76.31 155.69 76.94 155.27 77.26 Z" />
<path fill="#342052" stroke="#342052" stroke-width="0.09375" opacity="1.00" d=" M 87.96 140.96 C 88.29 140.55 88.94 139.73 89.27 139.32 C 88.94 139.73 88.29 140.55 87.96 140.96 Z" />
<path fill="#342052" stroke="#342052" stroke-width="0.09375" opacity="1.00" d=" M 562.72 139.33 C 563.05 139.74 563.71 140.55 564.04 140.96 C 563.71 140.55 563.05 139.74 562.72 139.33 Z" />
<path fill="#342052" stroke="#342052" stroke-width="0.09375" opacity="1.00" d=" M 568.79 147.28 C 569.10 147.70 569.72 148.56 570.02 148.98 C 569.72 148.56 569.10 147.70 568.79 147.28 Z" />
<path fill="#342052" stroke="#342052" stroke-width="0.09375" opacity="1.00" d=" M 76.99 155.95 C 77.31 155.53 77.95 154.70 78.27 154.28 C 77.95 154.70 77.31 155.53 76.99 155.95 Z" />
<path fill="#342052" stroke="#342052" stroke-width="0.09375" opacity="1.00" d=" M 573.73 154.28 C 574.05 154.70 574.69 155.53 575.01 155.95 C 574.69 155.53 574.05 154.70 573.73 154.28 Z" />
<path fill="#342052" stroke="#342052" stroke-width="0.09375" opacity="1.00" d=" M 73.03 161.95 C 73.33 161.52 73.95 160.67 74.25 160.24 C 73.95 160.67 73.33 161.52 73.03 161.95 Z" />
<path fill="#342052" stroke="#342052" stroke-width="0.09375" opacity="1.00" d=" M 577.75 160.24 C 578.06 160.67 578.67 161.52 578.97 161.95 C 578.67 161.52 578.06 160.67 577.75 160.24 Z" />
<path fill="#e3ceb8" stroke="#e3ceb8" stroke-width="0.09375" opacity="1.00" d=" M 473.90 160.58 C 478.08 160.91 479.80 165.48 480.07 169.09 C 479.60 169.15 478.65 169.28 478.17 169.34 C 473.91 169.33 474.80 163.50 473.90 160.58 Z" />
<path fill="#e3ceb8" stroke="#e3ceb8" stroke-width="0.09375" opacity="1.00" d=" M 454.27 163.29 C 457.07 163.22 459.98 162.27 462.72 163.00 C 464.43 165.25 464.79 168.21 465.76 170.82 C 464.22 170.99 462.68 171.17 461.14 171.35 C 456.61 171.96 456.06 166.22 454.27 163.29 Z" />
<path fill="#e3ceb8" stroke="#e3ceb8" stroke-width="0.09375" opacity="1.00" d=" M 426.86 167.10 C 432.43 166.12 438.16 166.06 443.63 164.53 C 444.77 167.40 446.12 170.19 447.16 173.10 C 441.38 173.54 435.67 174.60 429.90 175.13 L 429.19 175.20 C 429.01 172.36 428.03 169.67 426.86 167.10 Z" />
<path fill="#342052" stroke="#342052" stroke-width="0.09375" opacity="1.00" d=" M 68.06 170.03 C 68.34 169.59 68.92 168.71 69.21 168.27 C 68.92 168.71 68.34 169.59 68.06 170.03 Z" />
<path fill="#342052" stroke="#342052" stroke-width="0.09375" opacity="1.00" d=" M 582.80 168.26 C 583.09 168.71 583.66 169.59 583.95 170.03 C 583.66 169.59 583.09 168.71 582.80 168.26 Z" />
<path fill="#e3ceb8" stroke="#e3ceb8" stroke-width="0.09375" opacity="1.00" d=" M 396.35 171.28 C 403.16 170.89 409.89 169.69 416.68 169.08 C 417.98 171.56 419.19 174.16 419.14 177.03 C 418.55 177.13 417.37 177.33 416.78 177.43 C 410.86 178.31 404.89 178.86 398.99 179.85 C 398.36 176.92 397.48 174.05 396.35 171.28 Z" />
<path fill="#000000" stroke="#000000" stroke-width="0.09375" opacity="1.00" d=" M 478.17 169.34 C 478.65 169.28 479.60 169.15 480.07 169.09 L 480.74 169.00 C 481.84 171.57 482.66 174.25 483.09 177.01 C 482.04 177.26 481.00 177.48 479.95 177.68 L 479.13 177.81 L 478.23 177.96 C 477.30 175.32 476.53 172.61 475.96 169.87 C 476.51 169.74 477.62 169.47 478.17 169.34 Z" />
<path fill="#000000" stroke="#000000" stroke-width="0.09375" opacity="1.00" d=" M 461.14 171.35 C 462.68 171.17 464.22 170.99 465.76 170.82 C 466.39 173.66 467.10 176.48 467.90 179.28 C 465.58 179.61 463.27 179.92 460.96 180.24 C 459.70 177.56 458.61 174.79 457.92 171.91 C 458.98 171.69 460.06 171.51 461.14 171.35 Z" />
<path fill="#342052" stroke="#342052" stroke-width="0.09375" opacity="1.00" d=" M 65.07 175.03 C 65.35 174.58 65.90 173.69 66.18 173.25 C 65.90 173.69 65.35 174.58 65.07 175.03 Z" />
<path fill="#e3ceb8" stroke="#e3ceb8" stroke-width="0.09375" opacity="1.00" d=" M 363.04 175.83 C 370.60 175.03 378.08 173.58 385.67 173.06 C 386.86 175.70 388.21 178.31 388.76 181.18 L 388.06 181.31 C 380.31 182.08 372.59 183.15 364.86 184.10 C 364.12 181.37 363.47 178.62 363.04 175.83 Z" />
<path fill="#000000" stroke="#000000" stroke-width="0.09375" opacity="1.00" d=" M 429.90 175.13 C 435.67 174.60 441.38 173.54 447.16 173.10 L 447.69 173.06 C 447.87 175.84 451.33 179.80 448.84 181.89 C 442.98 182.45 437.16 183.40 431.30 183.97 C 430.56 181.07 430.06 178.12 429.90 175.13 Z" />
<path fill="#000000" stroke="#000000" stroke-width="0.09375" opacity="1.00" d=" M 225.05 204.07 C 227.74 189.10 241.82 177.24 256.97 176.82 C 267.23 176.28 277.63 180.73 284.12 188.74 C 285.70 190.82 287.15 193.07 289.15 194.80 C 310.82 191.01 332.82 189.26 354.57 185.88 C 355.11 188.84 355.89 191.75 356.45 194.71 C 335.03 197.85 313.50 200.32 292.02 203.04 C 292.20 205.74 292.38 208.44 292.45 211.14 C 292.46 212.01 292.46 212.87 292.41 213.74 C 292.36 216.78 290.30 220.48 291.77 223.17 C 353.43 264.85 414.92 306.86 476.60 348.54 C 479.90 351.31 481.80 346.03 484.15 344.40 C 491.56 337.17 502.58 334.51 512.66 336.09 C 515.51 336.80 518.28 337.77 521.08 338.66 C 523.28 333.36 526.42 328.53 528.96 323.40 C 531.44 324.30 533.99 324.99 536.55 325.67 C 536.67 326.16 536.93 327.14 537.05 327.63 C 534.26 332.95 530.89 338.07 529.02 343.81 C 530.86 345.82 532.71 347.83 534.33 350.03 C 535.90 352.25 537.23 354.64 538.26 357.16 C 539.19 359.91 539.79 362.76 540.43 365.59 C 544.26 364.91 548.13 364.40 552.00 363.96 C 552.00 364.44 552.01 365.40 552.01 365.87 C 552.03 368.64 552.05 371.41 552.10 374.18 C 548.20 374.58 544.28 374.86 540.37 375.17 C 539.64 377.90 538.91 380.63 537.93 383.29 C 534.94 389.67 530.63 395.70 524.18 398.94 C 522.30 399.85 520.38 400.68 518.47 401.52 C 520.59 410.54 523.68 419.30 525.67 428.36 C 523.06 429.77 520.36 431.01 517.60 432.11 C 514.96 422.58 513.29 412.69 509.35 403.58 C 497.14 404.46 484.54 399.02 478.15 388.31 C 476.61 385.83 475.45 383.14 474.33 380.45 C 456.17 380.53 438.03 381.91 419.88 381.91 C 415.71 381.63 415.11 386.18 414.06 389.18 C 410.23 400.16 400.19 408.50 388.83 410.68 C 374.30 413.69 358.08 406.03 351.95 392.36 C 350.49 389.90 349.58 387.19 348.82 384.46 C 330.06 385.62 311.25 385.35 292.51 386.59 C 290.97 387.86 290.68 390.13 289.83 391.88 C 287.25 399.19 282.06 405.47 275.14 409.02 C 273.15 409.92 271.16 410.80 269.16 411.66 C 271.46 427.69 275.23 443.49 278.24 459.40 C 275.65 460.45 272.90 460.99 270.12 461.10 C 269.75 460.07 269.39 459.04 269.04 458.02 C 265.63 443.26 263.38 428.23 259.83 413.52 C 257.95 413.36 256.07 413.21 254.19 413.05 C 242.09 411.88 231.20 403.56 226.94 392.18 C 226.34 390.30 225.74 388.42 225.13 386.56 C 207.37 385.22 189.54 384.60 171.72 384.25 C 171.20 386.50 170.65 388.76 170.10 391.01 C 166.38 401.30 157.37 409.14 146.83 411.86 C 134.89 414.39 119.58 412.74 112.36 401.59 C 105.27 392.86 102.43 381.12 105.03 370.16 C 109.31 354.40 125.49 343.01 141.82 344.99 C 145.54 345.10 151.15 349.04 153.13 344.05 C 173.44 314.41 193.90 284.85 214.33 255.28 C 219.34 246.89 226.19 239.74 230.65 231.01 C 229.22 228.63 227.83 226.22 226.78 223.65 C 224.34 217.45 224.08 210.60 225.05 204.07 M 285.43 231.10 C 284.75 232.35 284.08 233.60 283.40 234.85 C 311.39 271.91 338.84 309.37 366.40 346.74 C 368.62 346.02 370.83 345.31 373.06 344.65 C 388.89 339.23 408.51 348.53 413.52 364.63 L 414.12 364.53 C 414.74 366.88 415.26 369.26 415.64 371.67 C 419.31 373.11 423.20 371.81 427.00 372.07 C 442.20 371.57 457.41 371.42 472.61 370.75 C 471.81 366.29 474.46 361.77 473.50 357.55 C 413.94 317.16 354.36 276.67 294.78 236.24 C 291.77 234.33 289.10 231.63 285.43 231.10 M 237.42 238.05 C 232.64 245.68 226.62 252.50 222.28 260.39 C 221.90 260.67 221.13 261.24 220.75 261.52 C 209.46 278.99 197.34 296.10 185.35 313.21 C 183.02 316.87 181.04 320.92 177.62 323.72 C 177.19 324.95 176.77 326.18 176.36 327.42 C 175.94 327.67 175.09 328.17 174.67 328.42 C 170.48 336.77 163.16 343.34 159.42 351.99 C 161.03 353.95 162.98 355.60 164.66 357.51 C 166.97 360.19 168.70 363.29 169.79 366.67 C 170.99 369.22 171.72 371.94 172.25 374.70 C 189.70 375.81 207.20 376.34 224.66 376.88 C 224.74 376.20 224.90 374.84 224.98 374.17 C 226.13 362.64 234.35 353.18 244.43 348.08 C 247.24 347.18 250.10 346.45 252.94 345.65 C 252.93 312.14 252.30 278.47 251.30 244.98 C 246.88 242.52 241.59 241.24 237.42 238.05 M 260.95 245.00 C 261.01 278.51 261.95 312.04 262.47 345.55 C 264.65 346.01 266.83 346.47 269.01 346.94 C 278.97 350.54 288.48 358.49 290.41 369.35 L 291.01 369.18 C 291.60 371.73 292.10 374.32 292.53 376.91 C 311.17 376.17 329.81 375.38 348.45 374.66 C 348.65 371.77 349.16 368.92 349.81 366.10 C 351.20 363.19 352.75 360.35 354.50 357.64 C 356.22 355.58 357.82 353.42 359.44 351.28 C 331.36 314.57 304.34 277.07 276.72 240.01 C 271.78 242.54 266.55 244.63 260.95 245.00 Z" />
<path fill="#e3ceb8" stroke="#e3ceb8" stroke-width="0.09375" opacity="1.00" d=" M 284.35 187.32 C 306.00 182.84 328.17 181.17 350.07 178.11 C 354.54 177.05 353.71 183.11 354.57 185.88 C 332.82 189.26 310.82 191.01 289.15 194.80 C 287.15 193.07 285.70 190.82 284.12 188.74 C 284.17 188.38 284.29 187.67 284.35 187.32 Z" />
<path fill="#000000" stroke="#000000" stroke-width="0.09375" opacity="1.00" d=" M 398.99 179.85 C 404.89 178.86 410.86 178.31 416.78 177.43 C 420.52 177.68 420.43 182.28 421.12 185.03 C 420.57 185.28 419.45 185.78 418.90 186.03 C 413.71 187.01 408.47 187.70 403.21 188.15 C 402.71 188.17 401.73 188.22 401.23 188.25 C 400.37 185.48 399.55 182.69 398.99 179.85 Z" />
<path fill="#e3ceb8" stroke="#e3ceb8" stroke-width="0.09375" opacity="1.00" d=" M 479.13 177.81 L 479.95 177.68 C 481.41 177.38 482.63 178.37 483.84 179.00 C 484.09 181.21 484.54 183.41 484.50 185.65 C 482.52 187.30 480.65 184.77 478.94 183.89 C 479.03 181.86 479.08 179.84 479.13 177.81 Z" />
<path fill="#e3ceb8" stroke="#e3ceb8" stroke-width="0.09375" opacity="1.00" d=" M 460.96 180.24 C 463.27 179.92 465.58 179.61 467.90 179.28 C 468.78 182.07 469.41 184.95 469.86 187.85 C 467.38 188.19 464.91 188.46 462.43 188.74 C 461.59 185.98 460.92 183.14 460.96 180.24 Z" />
<path fill="#000000" stroke="#000000" stroke-width="0.09375" opacity="1.00" d=" M 364.86 184.10 C 372.59 183.15 380.31 182.08 388.06 181.31 L 388.46 181.29 C 389.42 184.15 390.13 187.09 391.02 189.98 C 383.34 190.63 375.74 192.03 368.06 192.66 C 367.62 192.52 366.73 192.25 366.29 192.12 C 365.66 189.47 365.31 186.77 364.86 184.10 Z" />
<path fill="#e3ceb8" stroke="#e3ceb8" stroke-width="0.09375" opacity="1.00" d=" M 431.30 183.97 C 437.16 183.40 442.98 182.45 448.84 181.89 C 449.32 181.84 450.28 181.74 450.76 181.69 C 451.14 184.43 451.39 187.20 452.04 189.90 C 445.80 190.67 439.60 191.85 433.31 192.12 C 432.58 189.42 431.97 186.69 431.30 183.97 Z" />
<path fill="#e3ceb8" stroke="#e3ceb8" stroke-width="0.09375" opacity="1.00" d=" M 403.21 188.15 C 408.47 187.70 413.71 187.01 418.90 186.03 C 423.17 185.38 421.83 191.49 422.94 194.14 C 416.43 195.19 409.89 196.08 403.34 196.85 C 402.28 194.10 401.71 191.19 402.17 188.24 L 403.21 188.15 Z" />
<path fill="#e3ceb8" stroke="#e3ceb8" stroke-width="0.09375" opacity="1.00" d=" M 368.06 192.66 C 375.74 192.03 383.34 190.63 391.02 189.98 L 391.79 189.91 C 391.92 192.67 392.28 195.42 392.89 198.12 C 385.14 199.08 377.39 200.16 369.66 201.31 C 368.61 201.41 367.86 200.37 366.97 199.99 C 367.01 197.57 367.01 195.15 367.02 192.74 L 368.06 192.66 Z" />
<path fill="#e3ceb8" stroke="#e3ceb8" stroke-width="0.09375" opacity="1.00" d=" M 292.02 203.04 C 313.50 200.32 335.03 197.85 356.45 194.71 C 356.93 197.51 357.18 200.34 357.56 203.15 C 335.87 205.86 314.24 209.49 292.45 211.14 C 292.38 208.44 292.20 205.74 292.02 203.04 Z" />
<path fill="#342052" stroke="#342052" stroke-width="0.09375" opacity="1.00" d=" M 48.50 209.04 C 47.22 207.94 48.37 204.67 50.18 205.42 C 50.15 206.82 49.46 208.05 48.50 209.04 Z" />
<path fill="#342052" stroke="#342052" stroke-width="0.09375" opacity="1.00" d=" M 601.83 205.41 C 603.63 204.67 604.78 207.94 603.50 209.04 C 602.53 208.05 601.85 206.82 601.83 205.41 Z" />
<path fill="#e3ceb8" stroke="#e3ceb8" stroke-width="0.09375" opacity="1.00" d=" M 292.41 213.74 C 347.45 250.55 401.94 288.14 456.90 325.08 C 465.73 331.87 475.77 337.02 484.15 344.40 C 481.80 346.03 479.90 351.31 476.60 348.54 C 414.92 306.86 353.43 264.85 291.77 223.17 C 290.30 220.48 292.36 216.78 292.41 213.74 Z" />
<path fill="#e3ceb8" stroke="#e3ceb8" stroke-width="0.09375" opacity="1.00" d=" M 219.42 233.46 C 221.64 230.02 223.75 226.45 226.78 223.65 C 227.83 226.22 229.22 228.63 230.65 231.01 C 226.19 239.74 219.34 246.89 214.33 255.28 C 193.90 284.85 173.44 314.41 153.13 344.05 C 151.15 349.04 145.54 345.10 141.82 344.99 C 168.34 308.28 193.32 270.48 219.42 233.46 Z" />
<path fill="#e3ceb8" stroke="#e3ceb8" stroke-width="0.09375" opacity="1.00" d=" M 285.43 231.10 C 289.10 231.63 291.77 234.33 294.78 236.24 C 354.36 276.67 413.94 317.16 473.50 357.55 C 474.46 361.77 471.81 366.29 472.61 370.75 C 457.41 371.42 442.20 371.57 427.00 372.07 C 423.20 371.81 419.31 373.11 415.64 371.67 C 415.26 369.26 414.74 366.88 414.12 364.53 C 431.00 362.43 448.21 363.87 465.20 362.58 C 456.71 355.24 446.67 350.02 437.72 343.30 C 395.38 314.66 353.18 285.82 310.79 257.23 C 331.68 285.93 353.25 314.18 373.98 343.00 C 373.75 343.41 373.29 344.24 373.06 344.65 C 370.83 345.31 368.62 346.02 366.40 346.74 C 338.84 309.37 311.39 271.91 283.40 234.85 C 284.08 233.60 284.75 232.35 285.43 231.10 Z" />
<path fill="#e3ceb8" stroke="#e3ceb8" stroke-width="0.09375" opacity="1.00" d=" M 237.42 238.05 C 241.59 241.24 246.88 242.52 251.30 244.98 C 252.30 278.47 252.93 312.14 252.94 345.65 C 250.10 346.45 247.24 347.18 244.43 348.08 C 244.92 313.92 243.52 279.74 243.06 245.57 C 239.30 249.45 236.59 254.16 233.39 258.48 C 210.37 291.41 188.06 324.85 164.66 357.51 C 162.98 355.60 161.03 353.95 159.42 351.99 C 163.16 343.34 170.48 336.77 174.67 328.42 C 175.09 328.17 175.94 327.67 176.36 327.42 C 176.77 326.18 177.19 324.95 177.62 323.72 C 181.04 320.92 183.02 316.87 185.35 313.21 C 197.34 296.10 209.46 278.99 220.75 261.52 C 221.13 261.24 221.90 260.67 222.28 260.39 C 226.62 252.50 232.64 245.68 237.42 238.05 Z" />
<path fill="#e3ceb8" stroke="#e3ceb8" stroke-width="0.09375" opacity="1.00" d=" M 260.95 245.00 C 266.55 244.63 271.78 242.54 276.72 240.01 C 304.34 277.07 331.36 314.57 359.44 351.28 C 357.82 353.42 356.22 355.58 354.50 357.64 C 348.60 352.75 345.05 345.70 340.08 339.95 C 316.78 307.94 292.84 276.38 269.59 244.33 C 268.88 278.63 270.99 312.96 270.65 347.28 C 270.24 347.20 269.42 347.02 269.01 346.94 C 266.83 346.47 264.65 346.01 262.47 345.55 C 261.95 312.04 261.01 278.51 260.95 245.00 Z" />
<path fill="#342052" stroke="#342052" stroke-width="0.09375" opacity="1.00" d=" M 36.19 243.95 C 35.15 242.44 35.48 241.55 37.18 241.28 C 37.26 242.31 36.94 243.20 36.19 243.95 Z" />
<path fill="#342052" stroke="#342052" stroke-width="0.09375" opacity="1.00" d=" M 614.82 241.27 C 616.52 241.54 616.84 242.43 615.80 243.94 C 615.05 243.19 614.73 242.31 614.82 241.27 Z" />
<path fill="#342052" stroke="#342052" stroke-width="0.09375" opacity="1.00" d=" M 270.65 347.28 C 270.99 312.96 268.88 278.63 269.59 244.33 C 292.84 276.38 316.78 307.94 340.08 339.95 C 345.05 345.70 348.60 352.75 354.50 357.64 C 352.75 360.35 351.20 363.19 349.81 366.10 C 330.24 367.32 310.44 366.73 291.01 369.18 L 290.41 369.35 C 288.48 358.49 278.97 350.54 269.01 346.94 C 269.42 347.02 270.24 347.20 270.65 347.28 Z" />
<path fill="#342052" stroke="#342052" stroke-width="0.09375" opacity="1.00" d=" M 233.39 258.48 C 236.59 254.16 239.30 249.45 243.06 245.57 C 243.52 279.74 244.92 313.92 244.43 348.08 C 234.35 353.18 226.13 362.64 224.98 374.17 C 225.11 372.40 225.16 370.63 225.20 368.87 C 206.74 368.07 188.27 366.80 169.79 366.67 C 168.70 363.29 166.97 360.19 164.66 357.51 C 188.06 324.85 210.37 291.41 233.39 258.48 Z" />
<path fill="#342052" stroke="#342052" stroke-width="0.09375" opacity="1.00" d=" M 34.30 250.98 C 33.20 249.50 33.49 248.59 35.18 248.27 C 35.29 249.30 35.00 250.20 34.30 250.98 Z" />
<path fill="#342052" stroke="#342052" stroke-width="0.09375" opacity="1.00" d=" M 616.82 248.27 C 618.50 248.59 618.80 249.50 617.70 250.98 C 616.99 250.20 616.70 249.29 616.82 248.27 Z" />
<path fill="#342052" stroke="#342052" stroke-width="0.09375" opacity="1.00" d=" M 310.79 257.23 C 353.18 285.82 395.38 314.66 437.72 343.30 C 446.67 350.02 456.71 355.24 465.20 362.58 C 448.21 363.87 431.00 362.43 414.12 364.53 L 413.52 364.63 C 408.51 348.53 388.89 339.23 373.06 344.65 C 373.29 344.24 373.75 343.41 373.98 343.00 C 353.25 314.18 331.68 285.93 310.79 257.23 Z" />
<path fill="#342052" stroke="#342052" stroke-width="0.09375" opacity="1.00" d=" M 31.25 263.96 C 30.17 262.48 30.47 261.57 32.15 261.24 C 32.27 262.27 31.97 263.18 31.25 263.96 Z" />
<path fill="#342052" stroke="#342052" stroke-width="0.09375" opacity="1.00" d=" M 619.85 261.24 C 621.53 261.57 621.83 262.48 620.75 263.96 C 620.02 263.18 619.72 262.27 619.85 261.24 Z" />
<path fill="#342052" stroke="#342052" stroke-width="0.09375" opacity="1.00" d=" M 30.28 268.95 C 29.15 267.51 29.42 266.60 31.09 266.20 C 31.25 267.24 30.98 268.15 30.28 268.95 Z" />
<path fill="#342052" stroke="#342052" stroke-width="0.09375" opacity="1.00" d=" M 620.91 266.21 C 622.57 266.60 622.84 267.51 621.73 268.96 C 621.02 268.16 620.75 267.25 620.91 266.21 Z" />
<path fill="#342052" stroke="#342052" stroke-width="0.09375" opacity="1.00" d=" M 29.40 274.90 C 28.05 274.15 28.24 270.94 30.10 271.30 C 30.24 272.55 29.89 273.76 29.40 274.90 Z" />
<path fill="#342052" stroke="#342052" stroke-width="0.09375" opacity="1.00" d=" M 621.90 271.30 C 623.76 270.94 623.94 274.15 622.60 274.90 C 622.09 273.76 621.75 272.55 621.90 271.30 Z" />
<path fill="#342052" stroke="#342052" stroke-width="0.09375" opacity="1.00" d=" M 28.44 280.88 C 27.06 280.16 27.21 276.92 29.09 277.29 C 29.23 278.53 28.91 279.74 28.44 280.88 Z" />
<path fill="#342052" stroke="#342052" stroke-width="0.09375" opacity="1.00" d=" M 622.91 277.28 C 624.77 276.93 624.93 280.16 623.57 280.88 C 623.07 279.74 622.76 278.53 622.91 277.28 Z" />
<path fill="#e3ceb8" stroke="#e3ceb8" stroke-width="0.09375" opacity="1.00" d=" M 536.94 290.64 C 539.72 291.51 542.10 293.19 543.91 295.46 C 543.12 296.71 542.34 297.96 541.56 299.20 C 539.26 298.60 537.04 297.73 534.94 296.64 C 535.58 294.63 536.24 292.63 536.94 290.64 Z" />
<path fill="#000000" stroke="#000000" stroke-width="0.09375" opacity="1.00" d=" M 541.56 299.20 C 542.34 297.96 543.12 296.71 543.91 295.46 C 546.90 296.89 549.95 298.26 552.65 300.22 C 552.26 300.47 551.47 300.96 551.08 301.21 C 547.85 303.36 544.39 300.73 541.56 299.20 Z" />
<path fill="#e3ceb8" stroke="#e3ceb8" stroke-width="0.09375" opacity="1.00" d=" M 552.65 300.22 C 555.43 299.35 559.67 301.34 559.30 304.67 C 556.13 304.07 552.88 303.54 550.06 301.90 L 551.08 301.21 C 551.47 300.96 552.26 300.47 552.65 300.22 Z" />
<path fill="#e3ceb8" stroke="#e3ceb8" stroke-width="0.09375" opacity="1.00" d=" M 529.26 304.79 C 531.84 306.29 534.49 307.65 537.07 309.15 C 535.55 310.46 534.64 312.25 533.92 314.09 C 531.28 313.67 528.80 312.64 526.35 311.64 C 527.45 309.41 528.34 307.09 529.26 304.79 Z" />
<path fill="#000000" stroke="#000000" stroke-width="0.09375" opacity="1.00" d=" M 537.07 309.15 C 540.17 308.65 542.72 311.12 545.49 312.12 C 544.92 313.54 544.28 314.95 543.37 316.20 C 542.82 316.41 541.71 316.85 541.16 317.06 C 538.86 315.72 536.31 315.00 533.71 314.57 L 533.92 314.09 C 534.64 312.25 535.55 310.46 537.07 309.15 Z" />
<path fill="#e3ceb8" stroke="#e3ceb8" stroke-width="0.09375" opacity="1.00" d=" M 545.49 312.12 C 547.81 312.07 550.06 312.66 552.29 313.25 C 552.17 315.60 551.63 317.89 550.83 320.11 C 548.20 319.03 545.57 317.97 543.02 316.74 L 543.37 316.20 C 544.28 314.95 544.92 313.54 545.49 312.12 Z" />
<path fill="#e3ceb8" stroke="#e3ceb8" stroke-width="0.09375" opacity="1.00" d=" M 521.28 320.28 C 523.83 321.36 526.38 322.42 528.96 323.40 C 526.42 328.53 523.28 333.36 521.08 338.66 C 518.28 337.77 515.51 336.80 512.66 336.09 C 515.48 330.79 519.09 325.89 521.28 320.28 Z" />
<path fill="#e3ceb8" stroke="#e3ceb8" stroke-width="0.09375" opacity="1.00" d=" M 537.05 327.63 C 539.70 326.46 542.51 327.24 545.13 328.09 C 542.73 335.91 537.72 342.62 534.33 350.03 C 532.71 347.83 530.86 345.82 529.02 343.81 C 530.89 338.07 534.26 332.95 537.05 327.63 Z" />
<path fill="#e3ceb8" stroke="#e3ceb8" stroke-width="0.09375" opacity="1.00" d=" M 562.47 353.63 C 564.22 353.54 565.97 353.47 567.73 353.41 C 567.87 355.28 568.01 357.15 568.08 359.04 C 568.26 360.30 567.87 361.29 566.89 361.99 C 565.57 362.26 564.26 362.50 562.94 362.68 C 562.68 362.47 562.17 362.04 561.92 361.83 C 561.88 359.08 562.12 356.35 562.47 353.63 Z" />
<path fill="#e3ceb8" stroke="#e3ceb8" stroke-width="0.09375" opacity="1.00" d=" M 538.26 357.16 C 542.80 356.45 547.36 355.88 551.96 355.64 C 551.98 358.41 551.99 361.18 552.00 363.96 C 548.13 364.40 544.26 364.91 540.43 365.59 C 539.79 362.76 539.19 359.91 538.26 357.16 Z" />
<path fill="#000000" stroke="#000000" stroke-width="0.09375" opacity="1.00" d=" M 562.94 362.68 C 564.26 362.50 565.57 362.26 566.89 361.99 L 567.89 361.78 C 567.97 365.21 568.17 368.65 567.78 372.07 L 567.01 372.34 L 566.21 372.41 C 560.47 373.20 562.08 366.32 562.05 362.81 L 562.94 362.68 Z" />
<path fill="#e3ceb8" stroke="#e3ceb8" stroke-width="0.09375" opacity="1.00" d=" M 169.79 366.67 C 188.27 366.80 206.74 368.07 225.20 368.87 C 225.16 370.63 225.11 372.40 224.98 374.17 C 224.90 374.84 224.74 376.20 224.66 376.88 C 207.20 376.34 189.70 375.81 172.25 374.70 C 171.72 371.94 170.99 369.22 169.79 366.67 Z" />
<path fill="#e3ceb8" stroke="#e3ceb8" stroke-width="0.09375" opacity="1.00" d=" M 291.01 369.18 C 310.44 366.73 330.24 367.32 349.81 366.10 C 349.16 368.92 348.65 371.77 348.45 374.66 C 329.81 375.38 311.17 376.17 292.53 376.91 C 292.10 374.32 291.60 371.73 291.01 369.18 Z" />
<path fill="#342052" stroke="#342052" stroke-width="0.09375" opacity="1.00" d=" M 28.42 369.10 C 28.93 370.24 29.23 371.46 29.09 372.72 C 27.23 373.04 27.08 369.83 28.42 369.10 Z" />
<path fill="#342052" stroke="#342052" stroke-width="0.09375" opacity="1.00" d=" M 622.91 372.71 C 622.76 371.45 623.06 370.23 623.58 369.10 C 624.91 369.83 624.77 373.04 622.91 372.71 Z" />
<path fill="#e3ceb8" stroke="#e3ceb8" stroke-width="0.09375" opacity="1.00" d=" M 566.21 372.41 L 567.01 372.34 L 567.59 372.33 C 568.32 375.02 567.95 377.82 567.72 380.55 C 566.15 380.92 564.59 381.29 563.04 381.65 C 563.00 378.71 562.99 375.77 563.04 372.83 C 564.09 372.67 565.15 372.53 566.21 372.41 Z" />
<path fill="#e3ceb8" stroke="#e3ceb8" stroke-width="0.09375" opacity="1.00" d=" M 540.37 375.17 C 544.28 374.86 548.20 374.58 552.10 374.18 L 553.04 374.09 C 553.03 376.98 552.99 379.87 552.90 382.77 C 547.93 383.25 542.92 383.75 537.93 383.29 C 538.91 380.63 539.64 377.90 540.37 375.17 Z" />
<path fill="#342052" stroke="#342052" stroke-width="0.09375" opacity="1.00" d=" M 29.40 375.10 C 29.90 376.23 30.24 377.44 30.10 378.70 C 28.24 379.05 28.05 375.84 29.40 375.10 Z" />
<path fill="#342052" stroke="#342052" stroke-width="0.09375" opacity="1.00" d=" M 621.90 378.70 C 621.75 377.44 622.09 376.23 622.60 375.10 C 623.94 375.84 623.76 379.05 621.90 378.70 Z" />
<path fill="#e3ceb8" stroke="#e3ceb8" stroke-width="0.09375" opacity="1.00" d=" M 419.88 381.91 C 438.03 381.91 456.17 380.53 474.33 380.45 C 475.45 383.14 476.61 385.83 478.15 388.31 C 456.80 389.38 435.39 390.26 414.00 390.58 C 414.02 390.23 414.05 389.53 414.06 389.18 C 415.11 386.18 415.71 381.63 419.88 381.91 Z" />
<path fill="#342052" stroke="#342052" stroke-width="0.09375" opacity="1.00" d=" M 30.27 381.05 C 30.97 381.84 31.24 382.75 31.09 383.79 C 29.42 383.40 29.15 382.48 30.27 381.05 Z" />
<path fill="#342052" stroke="#342052" stroke-width="0.09375" opacity="1.00" d=" M 620.91 383.79 C 620.74 382.75 621.02 381.83 621.73 381.05 C 622.84 382.48 622.57 383.40 620.91 383.79 Z" />
<path fill="#e3ceb8" stroke="#e3ceb8" stroke-width="0.09375" opacity="1.00" d=" M 171.72 384.25 C 189.54 384.60 207.37 385.22 225.13 386.56 C 225.74 388.42 226.34 390.30 226.94 392.18 C 227.02 392.85 227.18 394.19 227.26 394.86 C 208.17 393.79 189.06 393.11 169.95 392.33 C 169.98 392.00 170.06 391.34 170.10 391.01 C 170.65 388.76 171.20 386.50 171.72 384.25 Z" />
<path fill="#e3ceb8" stroke="#e3ceb8" stroke-width="0.09375" opacity="1.00" d=" M 292.51 386.59 C 311.25 385.35 330.06 385.62 348.82 384.46 C 349.58 387.19 350.49 389.90 351.95 392.36 C 331.40 394.38 310.60 394.03 289.95 394.83 C 289.92 394.10 289.86 392.62 289.83 391.88 C 290.68 390.13 290.97 387.86 292.51 386.59 Z" />
<path fill="#342052" stroke="#342052" stroke-width="0.09375" opacity="1.00" d=" M 31.24 386.05 C 31.97 386.81 32.28 387.71 32.17 388.75 C 30.48 388.42 30.17 387.52 31.24 386.05 Z" />
<path fill="#342052" stroke="#342052" stroke-width="0.09375" opacity="1.00" d=" M 619.83 388.75 C 619.71 387.71 620.02 386.81 620.76 386.05 C 621.82 387.52 621.51 388.42 619.83 388.75 Z" />
<path fill="#342052" stroke="#342052" stroke-width="0.09375" opacity="1.00" d=" M 414.00 390.58 C 435.39 390.26 456.80 389.38 478.15 388.31 C 484.54 399.02 497.14 404.46 509.35 403.58 C 506.60 403.69 503.87 403.80 501.13 403.93 C 501.38 404.85 501.63 405.78 501.90 406.71 C 500.91 409.30 498.61 412.08 500.03 414.93 C 502.72 421.43 505.93 427.70 509.04 434.00 C 509.25 434.52 509.68 435.56 509.89 436.08 C 511.13 439.11 512.67 442.02 513.74 445.13 C 513.05 449.09 514.61 452.91 515.40 456.73 C 516.52 456.19 517.64 455.65 518.77 455.12 C 519.69 458.38 520.90 461.56 522.09 464.73 C 520.72 465.26 519.35 465.77 517.98 466.29 C 518.60 467.50 519.22 468.72 519.84 469.94 C 521.25 469.39 522.68 468.84 524.09 468.26 C 525.03 473.17 528.62 477.80 527.94 482.84 C 515.10 495.33 502.44 508.05 489.64 520.61 C 487.90 522.62 485.03 521.71 482.89 521.03 C 462.64 514.29 443.01 505.87 423.27 497.79 C 420.01 496.45 416.40 494.05 412.84 495.87 C 403.48 499.94 393.81 503.33 384.54 507.56 C 374.31 530.45 367.39 555.03 354.90 576.91 C 336.58 577.01 318.27 576.97 299.95 576.94 C 296.39 577.45 295.42 573.42 293.92 571.05 C 284.24 551.55 275.94 531.40 267.71 511.26 C 266.91 509.22 265.55 507.35 263.41 506.60 C 255.42 503.18 247.22 500.28 239.30 496.72 C 237.23 495.94 234.90 494.62 232.70 495.74 C 212.20 504.72 191.86 514.13 170.86 521.90 C 167.83 522.84 163.83 524.57 161.35 521.62 C 148.69 508.98 135.67 496.63 123.36 483.66 C 129.62 458.79 142.53 436.09 151.13 412.01 C 149.70 411.95 148.27 411.91 146.83 411.86 C 157.37 409.14 166.38 401.30 170.10 391.01 C 170.06 391.34 169.98 392.00 169.95 392.33 C 189.06 393.11 208.17 393.79 227.26 394.86 C 227.18 394.19 227.02 392.85 226.94 392.18 C 231.20 403.56 242.09 411.88 254.19 413.05 C 253.44 413.12 251.93 413.24 251.17 413.30 C 254.92 429.48 257.59 445.90 261.18 462.12 C 263.87 461.70 266.54 461.23 269.22 460.76 C 269.18 460.08 269.08 458.71 269.04 458.02 C 269.39 459.04 269.75 460.07 270.12 461.10 C 272.90 460.99 275.65 460.45 278.24 459.40 C 278.65 459.51 279.48 459.73 279.89 459.83 C 282.09 459.04 284.30 458.29 286.54 457.61 C 283.13 441.42 280.19 425.14 276.77 408.96 C 276.36 408.97 275.54 409.01 275.14 409.02 C 282.06 405.47 287.25 399.19 289.83 391.88 C 289.86 392.62 289.92 394.10 289.95 394.83 C 310.60 394.03 331.40 394.38 351.95 392.36 C 358.08 406.03 374.30 413.69 388.83 410.68 C 400.19 408.50 410.23 400.16 414.06 389.18 C 414.05 389.53 414.02 390.23 414.00 390.58 M 280.21 470.05 C 277.46 470.47 274.71 470.81 271.95 471.15 C 269.03 470.85 266.16 471.56 263.35 472.25 C 264.32 478.54 265.48 484.80 266.88 491.02 C 269.64 490.99 272.57 491.43 275.10 490.03 L 274.96 489.25 C 277.88 490.37 281.03 490.02 284.09 489.96 L 283.96 489.14 C 286.70 488.72 289.46 488.35 292.16 487.70 C 291.17 481.10 290.00 474.51 288.64 467.97 C 285.66 467.90 283.09 469.59 280.21 470.05 M 286.12 499.23 L 286.24 499.85 C 283.33 499.87 280.44 499.96 277.54 500.09 C 274.77 500.91 271.88 501.12 269.01 501.28 C 269.32 504.89 270.25 508.41 271.16 511.91 C 273.83 511.31 276.52 510.73 279.10 509.79 C 282.08 509.39 285.04 508.91 287.98 508.23 C 290.87 507.89 293.76 507.49 296.59 506.75 C 295.27 504.04 295.07 501.02 294.80 498.07 C 291.86 498.03 288.96 498.54 286.12 499.23 Z" />
<path fill="#342052" stroke="#342052" stroke-width="0.09375" opacity="1.00" d=" M 33.30 395.03 C 33.99 395.82 34.29 396.75 34.19 397.80 C 32.51 397.42 32.21 396.49 33.30 395.03 Z" />
<path fill="#342052" stroke="#342052" stroke-width="0.09375" opacity="1.00" d=" M 617.81 397.81 C 617.70 396.75 618.00 395.83 618.69 395.03 C 619.78 396.49 619.49 397.42 617.81 397.81 Z" />
<path fill="#342052" stroke="#342052" stroke-width="0.09375" opacity="1.00" d=" M 34.26 398.96 C 34.98 399.74 35.28 400.66 35.18 401.71 C 33.50 401.37 33.20 400.45 34.26 398.96 Z" />
<path fill="#e3ceb8" stroke="#e3ceb8" stroke-width="0.09375" opacity="1.00" d=" M 524.18 398.94 C 527.61 398.10 527.29 403.46 528.18 405.70 C 530.55 412.23 531.68 419.10 533.81 425.69 C 531.29 427.11 528.56 428.11 525.67 428.36 C 523.68 419.30 520.59 410.54 518.47 401.52 C 520.38 400.68 522.30 399.85 524.18 398.94 Z" />
<path fill="#342052" stroke="#342052" stroke-width="0.09375" opacity="1.00" d=" M 616.82 401.72 C 616.71 400.66 617.01 399.75 617.74 398.97 C 618.79 400.46 618.49 401.38 616.82 401.72 Z" />
<path fill="#e3ceb8" stroke="#e3ceb8" stroke-width="0.09375" opacity="1.00" d=" M 501.13 403.93 C 503.87 403.80 506.60 403.69 509.35 403.58 C 513.29 412.69 514.96 422.58 517.60 432.11 C 515.08 433.52 512.47 434.77 509.89 436.08 C 509.68 435.56 509.25 434.52 509.04 434.00 C 507.34 424.75 504.78 415.67 501.90 406.71 C 501.63 405.78 501.38 404.85 501.13 403.93 Z" />
<path fill="#342052" stroke="#342052" stroke-width="0.09375" opacity="1.00" d=" M 36.20 406.06 C 36.94 406.79 37.27 407.68 37.18 408.72 C 35.48 408.45 35.15 407.56 36.20 406.06 Z" />
<path fill="#342052" stroke="#342052" stroke-width="0.09375" opacity="1.00" d=" M 614.82 408.72 C 614.73 407.68 615.05 406.79 615.81 406.06 C 616.84 407.56 616.51 408.44 614.82 408.72 Z" />
<path fill="#5e3b96" stroke="#5e3b96" stroke-width="0.09375" opacity="1.00" d=" M 500.03 414.93 C 498.61 412.08 500.91 409.30 501.90 406.71 C 504.78 415.67 507.34 424.75 509.04 434.00 C 505.93 427.70 502.72 421.43 500.03 414.93 Z" />
<path fill="#e3ceb8" stroke="#e3ceb8" stroke-width="0.09375" opacity="1.00" d=" M 269.16 411.66 C 271.16 410.80 273.15 409.92 275.14 409.02 C 275.54 409.01 276.36 408.97 276.77 408.96 C 280.19 425.14 283.13 441.42 286.54 457.61 C 284.30 458.29 282.09 459.04 279.89 459.83 C 279.48 459.73 278.65 459.51 278.24 459.40 C 275.23 443.49 271.46 427.69 269.16 411.66 Z" />
<path fill="#e3ceb8" stroke="#e3ceb8" stroke-width="0.09375" opacity="1.00" d=" M 251.17 413.30 C 251.93 413.24 253.44 413.12 254.19 413.05 C 256.07 413.21 257.95 413.36 259.83 413.52 C 263.38 428.23 265.63 443.26 269.04 458.02 C 269.08 458.71 269.18 460.08 269.22 460.76 C 266.54 461.23 263.87 461.70 261.18 462.12 C 257.59 445.90 254.92 429.48 251.17 413.30 Z" />
<path fill="#342052" stroke="#342052" stroke-width="0.09375" opacity="1.00" d=" M 44.19 430.96 C 44.43 431.42 44.91 432.36 45.15 432.82 C 44.91 432.36 44.43 431.42 44.19 430.96 Z" />
<path fill="#342052" stroke="#342052" stroke-width="0.09375" opacity="1.00" d=" M 606.83 432.81 C 607.08 432.35 607.57 431.42 607.82 430.95 C 607.57 431.42 607.08 432.35 606.83 432.81 Z" />
<path fill="#342052" stroke="#342052" stroke-width="0.09375" opacity="1.00" d=" M 46.09 436.00 C 46.35 436.45 46.88 437.35 47.15 437.80 C 46.88 437.35 46.35 436.45 46.09 436.00 Z" />
<path fill="#e3ceb8" stroke="#e3ceb8" stroke-width="0.09375" opacity="1.00" d=" M 528.87 438.39 C 531.27 437.59 533.68 436.81 536.01 435.80 C 537.76 439.19 538.75 442.90 539.12 446.70 C 536.43 447.37 533.75 448.07 531.06 448.73 C 530.38 445.51 529.63 442.31 529.01 439.09 L 528.87 438.39 Z" />
<path fill="#000000" stroke="#000000" stroke-width="0.09375" opacity="1.00" d=" M 523.56 440.34 C 525.36 439.85 527.18 439.45 529.01 439.09 C 529.63 442.31 530.38 445.51 531.06 448.73 C 528.51 450.30 525.97 451.88 523.20 453.04 C 522.39 449.70 521.63 446.36 521.04 442.98 L 520.96 442.58 C 521.82 441.82 522.69 441.08 523.56 440.34 Z" />
<path fill="#342052" stroke="#342052" stroke-width="0.09375" opacity="1.00" d=" M 48.48 440.99 C 49.49 441.93 50.17 443.16 50.17 444.58 C 48.39 445.31 47.22 442.08 48.48 440.99 Z" />
<path fill="#342052" stroke="#342052" stroke-width="0.09375" opacity="1.00" d=" M 601.83 444.58 C 601.84 443.16 602.53 441.94 603.49 440.96 C 604.78 442.04 603.63 445.32 601.83 444.58 Z" />
<path fill="#e3ceb8" stroke="#e3ceb8" stroke-width="0.09375" opacity="1.00" d=" M 513.74 445.13 C 516.11 444.22 518.47 443.19 521.04 442.98 C 521.63 446.36 522.39 449.70 523.20 453.04 C 521.72 453.72 520.24 454.41 518.77 455.12 C 517.64 455.65 516.52 456.19 515.40 456.73 C 514.61 452.91 513.05 449.09 513.74 445.13 Z" />
<path fill="#e3ceb8" stroke="#e3ceb8" stroke-width="0.09375" opacity="1.00" d=" M 533.91 458.33 C 536.67 457.64 539.48 457.17 542.31 456.88 C 540.98 459.91 537.50 461.27 534.82 462.92 C 534.55 461.62 534.29 460.33 534.05 459.04 L 533.91 458.33 Z" />
<path fill="#000000" stroke="#000000" stroke-width="0.09375" opacity="1.00" d=" M 525.98 463.12 C 528.60 461.62 531.30 460.29 534.05 459.04 C 534.29 460.33 534.55 461.62 534.82 462.92 C 532.12 464.00 529.47 465.22 526.77 466.31 C 526.51 465.24 526.24 464.18 525.98 463.12 Z" />
<path fill="#e3ceb8" stroke="#e3ceb8" stroke-width="0.09375" opacity="1.00" d=" M 522.09 464.73 C 523.39 464.22 524.69 463.68 525.98 463.12 C 526.24 464.18 526.51 465.24 526.77 466.31 C 527.18 467.60 524.81 467.58 524.09 468.26 C 522.68 468.84 521.25 469.39 519.84 469.94 C 519.22 468.72 518.60 467.50 517.98 466.29 C 519.35 465.77 520.72 465.26 522.09 464.73 Z" />
<path fill="#e3ceb8" stroke="#e3ceb8" stroke-width="0.09375" opacity="1.00" d=" M 280.21 470.05 C 283.09 469.59 285.66 467.90 288.64 467.97 C 290.00 474.51 291.17 481.10 292.16 487.70 C 289.46 488.35 286.70 488.72 283.96 489.14 C 282.84 482.75 281.88 476.32 280.21 470.05 Z" />
<path fill="#000000" stroke="#000000" stroke-width="0.09375" opacity="1.00" d=" M 271.95 471.15 C 274.71 470.81 277.46 470.47 280.21 470.05 C 281.88 476.32 282.84 482.75 283.96 489.14 L 284.09 489.96 C 281.03 490.02 277.88 490.37 274.96 489.25 C 273.95 483.21 272.53 477.25 271.95 471.15 Z" />
<path fill="#e3ceb8" stroke="#e3ceb8" stroke-width="0.09375" opacity="1.00" d=" M 263.35 472.25 C 266.16 471.56 269.03 470.85 271.95 471.15 C 272.53 477.25 273.95 483.21 274.96 489.25 L 275.10 490.03 C 272.57 491.43 269.64 490.99 266.88 491.02 C 265.48 484.80 264.32 478.54 263.35 472.25 Z" />
<path fill="#342052" stroke="#342052" stroke-width="0.09375" opacity="1.00" d=" M 585.79 476.74 C 586.07 476.29 586.64 475.41 586.93 474.97 C 586.64 475.41 586.07 476.29 585.79 476.74 Z" />
<path fill="#342052" stroke="#342052" stroke-width="0.09375" opacity="1.00" d=" M 71.09 484.98 C 71.37 485.43 71.93 486.31 72.21 486.76 C 71.93 486.31 71.37 485.43 71.09 484.98 Z" />
<path fill="#342052" stroke="#342052" stroke-width="0.09375" opacity="1.00" d=" M 579.79 486.76 C 580.07 486.31 580.63 485.42 580.90 484.98 C 580.63 485.42 580.07 486.31 579.79 486.76 Z" />
<path fill="#342052" stroke="#342052" stroke-width="0.09375" opacity="1.00" d=" M 73.01 488.04 C 73.32 488.47 73.95 489.31 74.26 489.74 C 73.95 489.31 73.32 488.47 73.01 488.04 Z" />
<path fill="#342052" stroke="#342052" stroke-width="0.09375" opacity="1.00" d=" M 577.74 489.73 C 578.05 489.31 578.68 488.46 578.99 488.04 C 578.68 488.46 578.05 489.31 577.74 489.73 Z" />
<path fill="#342052" stroke="#342052" stroke-width="0.09375" opacity="1.00" d=" M 78.99 497.06 C 79.33 497.46 80.02 498.26 80.36 498.66 C 80.02 498.26 79.33 497.46 78.99 497.06 Z" />
<path fill="#342052" stroke="#342052" stroke-width="0.09375" opacity="1.00" d=" M 571.64 498.66 C 571.98 498.26 572.66 497.46 573.00 497.06 C 572.66 497.46 571.98 498.26 571.64 498.66 Z" />
<path fill="#e3ceb8" stroke="#e3ceb8" stroke-width="0.09375" opacity="1.00" d=" M 286.12 499.23 C 288.96 498.54 291.86 498.03 294.80 498.07 C 295.07 501.02 295.27 504.04 296.59 506.75 C 293.76 507.49 290.87 507.89 287.98 508.23 C 287.30 505.45 286.76 502.65 286.24 499.85 L 286.12 499.23 Z" />
<path fill="#e3ceb8" stroke="#e3ceb8" stroke-width="0.09375" opacity="1.00" d=" M 269.01 501.28 C 271.88 501.12 274.77 500.91 277.54 500.09 C 277.89 503.35 278.47 506.57 279.10 509.79 C 276.52 510.73 273.83 511.31 271.16 511.91 C 270.25 508.41 269.32 504.89 269.01 501.28 Z" />
<path fill="#000000" stroke="#000000" stroke-width="0.09375" opacity="1.00" d=" M 277.54 500.09 C 280.44 499.96 283.33 499.87 286.24 499.85 C 286.76 502.65 287.30 505.45 287.98 508.23 C 285.04 508.91 282.08 509.39 279.10 509.79 C 278.47 506.57 277.89 503.35 277.54 500.09 Z" />
<path fill="#342052" stroke="#342052" stroke-width="0.09375" opacity="1.00" d=" M 498.06 572.00 C 498.46 571.66 499.26 570.98 499.66 570.64 C 499.26 570.98 498.46 571.66 498.06 572.00 Z" />
<path fill="#342052" stroke="#342052" stroke-width="0.09375" opacity="1.00" d=" M 161.26 576.74 C 161.68 577.05 162.52 577.67 162.94 577.99 C 162.52 577.67 161.68 577.05 161.26 576.74 Z" />
<path fill="#342052" stroke="#342052" stroke-width="0.09375" opacity="1.00" d=" M 489.04 577.99 C 489.47 577.67 490.31 577.05 490.74 576.74 C 490.31 577.05 489.47 577.67 489.04 577.99 Z" />
<path fill="#342052" stroke="#342052" stroke-width="0.09375" opacity="1.00" d=" M 485.98 579.91 C 486.43 579.63 487.32 579.07 487.76 578.79 C 487.32 579.07 486.43 579.63 485.98 579.91 Z" />
<path fill="#342052" stroke="#342052" stroke-width="0.09375" opacity="1.00" d=" M 174.27 584.79 C 174.71 585.07 175.59 585.65 176.03 585.94 C 175.59 585.65 174.71 585.07 174.27 584.79 Z" />
<path fill="#342052" stroke="#342052" stroke-width="0.09375" opacity="1.00" d=" M 475.96 585.92 C 476.41 585.64 477.29 585.07 477.74 584.79 C 477.29 585.07 476.41 585.64 475.96 585.92 Z" />
<path fill="#342052" stroke="#342052" stroke-width="0.09375" opacity="1.00" d=" M 206.42 600.83 C 207.83 600.82 209.06 601.51 210.01 602.53 C 208.91 603.78 205.68 602.60 206.42 600.83 Z" />
<path fill="#342052" stroke="#342052" stroke-width="0.09375" opacity="1.00" d=" M 441.96 602.50 C 442.94 601.53 444.16 600.83 445.58 600.83 C 446.32 602.62 443.05 603.77 441.96 602.50 Z" />
<path fill="#342052" stroke="#342052" stroke-width="0.09375" opacity="1.00" d=" M 213.19 603.86 C 213.66 604.11 214.58 604.61 215.04 604.86 C 214.58 604.61 213.66 604.11 213.19 603.86 Z" />
<path fill="#342052" stroke="#342052" stroke-width="0.09375" opacity="1.00" d=" M 242.27 613.82 C 243.31 613.72 244.19 614.05 244.94 614.80 C 243.44 615.84 242.55 615.51 242.27 613.82 Z" />
<path fill="#342052" stroke="#342052" stroke-width="0.09375" opacity="1.00" d=" M 407.06 614.80 C 407.79 614.05 408.68 613.72 409.72 613.82 C 409.44 615.51 408.55 615.84 407.06 614.80 Z" />
<path fill="#342052" stroke="#342052" stroke-width="0.09375" opacity="1.00" d=" M 249.29 615.82 C 250.33 615.71 251.24 616.02 252.04 616.74 C 250.53 617.80 249.62 617.49 249.29 615.82 Z" />
<path fill="#342052" stroke="#342052" stroke-width="0.09375" opacity="1.00" d=" M 399.97 616.74 C 400.75 616.02 401.66 615.71 402.71 615.82 C 402.38 617.49 401.46 617.80 399.97 616.74 Z" />
<path fill="#342052" stroke="#342052" stroke-width="0.09375" opacity="1.00" d=" M 253.20 616.80 C 254.25 616.70 255.17 617.02 255.95 617.75 C 254.47 618.80 253.55 618.48 253.20 616.80 Z" />
<path fill="#342052" stroke="#342052" stroke-width="0.09375" opacity="1.00" d=" M 396.03 617.69 C 396.83 617.00 397.75 616.70 398.81 616.81 C 398.42 618.49 397.49 618.78 396.03 617.69 Z" />
<path fill="#342052" stroke="#342052" stroke-width="0.09375" opacity="1.00" d=" M 258.09 617.99 C 258.57 618.21 259.52 618.66 260.00 618.88 C 259.52 618.66 258.57 618.21 258.09 617.99 Z" />
<path fill="#342052" stroke="#342052" stroke-width="0.09375" opacity="1.00" d=" M 262.23 618.89 C 263.26 618.73 264.17 619.02 264.96 619.74 C 263.50 620.84 262.59 620.55 262.23 618.89 Z" />
<path fill="#342052" stroke="#342052" stroke-width="0.09375" opacity="1.00" d=" M 387.05 619.76 C 387.81 619.02 388.71 618.71 389.75 618.84 C 389.42 620.52 388.51 620.82 387.05 619.76 Z" />
<path fill="#342052" stroke="#342052" stroke-width="0.09375" opacity="1.00" d=" M 267.21 619.91 C 268.24 619.74 269.16 620.01 269.95 620.73 C 268.51 621.84 267.59 621.57 267.21 619.91 Z" />
<path fill="#342052" stroke="#342052" stroke-width="0.09375" opacity="1.00" d=" M 382.05 620.73 C 382.84 620.02 383.75 619.75 384.79 619.92 C 384.40 621.58 383.48 621.85 382.05 620.73 Z" />
<path fill="#342052" stroke="#342052" stroke-width="0.09375" opacity="1.00" d=" M 272.30 620.90 C 273.55 620.75 274.76 621.09 275.90 621.61 C 275.15 622.94 271.94 622.75 272.30 620.90 Z" />
<path fill="#342052" stroke="#342052" stroke-width="0.09375" opacity="1.00" d=" M 376.10 621.61 C 377.23 621.10 378.44 620.75 379.70 620.90 C 380.06 622.76 376.84 622.94 376.10 621.61 Z" />
<path fill="#342052" stroke="#342052" stroke-width="0.09375" opacity="1.00" d=" M 278.29 621.92 C 279.53 621.76 280.74 622.08 281.88 622.56 C 281.17 623.93 277.93 623.78 278.29 621.92 Z" />
<path fill="#342052" stroke="#342052" stroke-width="0.09375" opacity="1.00" d=" M 370.10 622.58 C 371.23 622.06 372.45 621.75 373.71 621.91 C 374.04 623.77 370.83 623.92 370.10 622.58 Z" />
<path fill="#342052" stroke="#342052" stroke-width="0.09375" opacity="1.00" d=" M 293.36 623.93 C 294.87 623.78 296.37 624.07 297.83 624.50 C 296.89 625.85 293.21 625.98 293.36 623.93 Z" />
</svg>
