<?xml version="1.0" encoding="UTF-8" ?>
<!DOCTYPE svg PUBLIC "-//W3C//DTD SVG 1.1//EN" "http://www.w3.org/Graphics/SVG/1.1/DTD/svg11.dtd">
<svg width="752pt" height="752pt" viewBox="0 0 752 752" version="1.1" xmlns="http://www.w3.org/2000/svg">
<path fill="#000000" stroke="#000000" stroke-width="0.09375" opacity="1.00" d=" M 399.16 183.22 C 411.92 180.44 424.84 177.57 437.99 177.99 C 443.33 178.16 448.78 177.41 454.01 178.85 C 442.23 190.12 430.70 201.64 419.27 213.26 C 417.88 214.87 415.84 215.94 413.68 215.48 C 391.59 213.24 369.06 217.61 349.13 227.32 C 332.55 236.10 317.81 248.75 307.58 264.56 C 303.47 270.70 300.24 277.37 297.39 284.16 C 299.14 284.95 300.92 285.69 302.73 286.35 C 303.60 287.07 304.48 287.78 305.36 288.51 C 305.02 290.07 305.02 291.86 303.68 292.97 C 300.43 293.49 297.29 292.24 294.21 291.46 C 291.96 297.50 291.00 304.03 287.85 309.73 C 284.68 315.88 277.08 319.53 270.32 317.81 C 266.83 316.17 265.10 311.93 266.20 308.28 C 267.00 306.20 268.60 304.50 270.42 303.26 C 273.10 302.33 276.04 302.73 278.74 301.83 C 281.71 298.14 282.32 293.18 284.05 288.86 C 280.79 287.11 277.08 286.26 274.13 283.96 C 274.18 283.34 274.26 282.09 274.31 281.47 C 275.04 280.55 275.78 279.64 276.52 278.73 C 279.26 279.19 281.95 279.92 284.63 280.67 C 286.92 276.71 288.57 272.42 290.12 268.13 C 294.18 257.32 300.44 247.49 307.67 238.54 C 317.63 224.87 331.27 214.49 345.44 205.51 C 362.02 195.25 380.48 188.55 399.16 183.22 Z" />
<path fill="#000000" stroke="#000000" stroke-width="0.09375" opacity="1.00" d=" M 385.09 226.12 C 385.53 225.95 386.41 225.62 386.85 225.45 C 389.65 227.51 391.00 230.85 392.02 234.06 C 394.15 240.91 395.85 247.94 399.06 254.39 C 401.29 247.64 402.54 240.61 404.79 233.86 C 405.72 230.92 407.28 228.21 409.33 225.89 C 411.53 228.89 411.36 232.78 410.28 236.18 C 407.32 246.25 404.00 256.23 401.44 266.41 C 401.65 270.14 402.71 274.09 400.12 277.33 C 405.12 282.97 412.05 286.98 415.38 293.99 C 414.95 294.57 414.10 295.73 413.68 296.31 C 407.71 292.29 403.40 286.47 398.92 280.95 C 397.05 278.25 393.16 279.25 390.76 277.28 C 384.92 272.94 380.24 267.24 374.30 263.01 C 371.28 266.31 368.16 269.55 364.63 272.31 C 364.69 276.82 365.57 282.12 362.48 285.89 C 362.04 282.97 361.91 280.02 361.74 277.08 C 361.18 277.14 360.06 277.25 359.50 277.31 C 357.80 279.15 356.04 280.95 354.12 282.57 C 354.12 278.09 357.75 275.15 360.61 272.24 C 359.79 265.55 360.17 258.78 359.19 252.10 C 358.98 249.15 358.09 246.27 358.10 243.31 C 359.33 240.63 361.72 237.68 364.97 237.86 C 368.84 237.49 371.25 241.00 373.91 243.17 C 378.60 247.08 382.84 251.47 387.54 255.36 C 389.99 257.46 392.15 259.97 395.10 261.41 C 391.98 252.05 388.92 242.65 385.67 233.33 C 384.86 231.02 384.81 228.53 385.09 226.12 M 363.55 253.93 C 363.51 258.71 364.88 263.31 365.35 268.04 C 367.89 265.84 370.37 263.57 372.73 261.18 C 369.92 258.47 366.99 255.83 363.55 253.93 Z" />
<path fill="#000000" stroke="#000000" stroke-width="0.09375" opacity="1.00" d=" M 334.79 277.87 C 336.20 270.09 343.08 265.18 348.66 260.30 C 348.97 263.96 348.00 267.55 347.24 271.11 C 344.34 284.38 341.66 297.70 338.75 310.97 C 337.73 315.12 336.38 319.21 336.08 323.50 C 349.55 313.91 362.43 303.52 375.78 293.75 C 380.40 290.59 384.81 287.14 389.21 283.67 C 390.56 286.78 389.01 289.90 387.84 292.78 C 386.53 295.78 385.23 298.82 383.46 301.58 C 381.89 303.97 379.26 305.28 377.05 306.97 C 362.46 318.43 347.53 329.47 332.91 340.89 C 330.99 342.30 330.61 344.76 329.86 346.86 C 328.85 350.25 327.58 353.57 326.82 357.03 C 326.17 360.20 328.49 363.04 328.30 366.19 C 328.15 368.53 328.15 370.89 328.78 373.17 C 327.67 382.86 326.64 392.60 324.00 402.02 C 320.77 413.55 317.07 425.06 315.94 437.05 C 315.33 441.69 315.00 446.40 313.94 450.98 C 313.45 453.11 312.63 455.44 310.59 456.56 C 309.03 456.99 307.40 457.07 305.81 457.29 C 304.01 455.27 302.12 452.95 302.57 450.05 C 303.19 441.32 306.82 433.18 308.60 424.67 C 310.55 415.38 312.22 406.02 313.50 396.61 C 314.92 388.06 317.96 379.91 320.32 371.60 C 321.13 370.17 322.27 368.75 322.07 367.00 C 322.08 364.04 319.71 361.89 318.10 359.67 C 318.06 359.04 317.99 357.77 317.95 357.14 C 316.03 355.40 314.11 353.65 312.19 351.93 C 311.16 352.44 310.13 352.97 309.11 353.50 C 306.41 352.60 303.26 351.07 300.48 352.49 C 291.25 361.53 279.55 367.67 267.83 372.92 C 256.14 377.57 244.81 383.24 234.45 390.43 C 231.58 392.24 228.62 394.80 224.99 394.39 C 222.72 394.20 221.30 392.25 219.71 390.89 C 220.09 388.79 219.97 386.32 221.66 384.76 C 224.13 382.21 227.70 381.31 230.88 379.99 C 249.12 373.43 263.72 359.92 281.62 352.63 C 287.74 349.49 294.36 347.69 300.94 345.84 C 303.10 345.58 305.43 346.33 307.49 345.53 C 312.32 342.50 316.22 338.27 320.68 334.77 C 325.60 315.86 330.29 296.89 334.79 277.87 Z" />
<path fill="#000000" stroke="#000000" stroke-width="0.09375" opacity="1.00" d=" M 320.80 262.64 C 322.77 263.16 324.72 263.72 326.66 264.34 C 324.87 268.02 323.86 271.98 322.94 275.94 C 323.78 276.75 324.69 277.48 325.53 278.30 C 324.53 279.76 323.41 281.22 323.07 283.00 C 321.55 289.27 320.40 295.63 318.60 301.83 C 316.91 305.62 315.10 309.41 312.55 312.71 C 312.15 308.20 311.98 303.64 312.28 299.13 C 313.73 292.39 315.24 285.66 316.76 278.94 C 316.44 278.26 316.13 277.59 315.81 276.92 C 321.06 274.34 320.84 267.66 320.80 262.64 Z" />
<path fill="#000000" stroke="#000000" stroke-width="0.09375" opacity="1.00" d=" M 722.12 275.79 C 724.51 276.84 727.75 277.17 728.75 280.00 C 729.38 281.78 731.27 283.71 729.96 285.60 C 727.34 286.22 724.21 286.03 722.28 288.23 C 718.10 292.38 714.08 296.72 709.41 300.33 C 707.51 302.13 705.01 303.58 703.88 306.01 C 704.84 308.94 707.33 310.96 709.33 313.19 C 708.52 314.16 707.71 315.13 706.91 316.11 C 704.93 313.39 703.04 310.54 700.36 308.45 C 689.97 316.26 680.16 324.80 669.90 332.78 C 663.67 337.72 657.55 343.03 650.23 346.30 C 649.07 346.92 647.72 346.45 646.55 346.25 C 648.93 343.09 651.36 339.92 654.39 337.33 C 665.07 328.01 675.80 318.74 686.49 309.43 C 689.20 307.05 692.23 304.87 694.25 301.82 C 694.07 298.45 690.85 296.73 688.46 294.95 C 689.24 293.76 690.05 292.57 690.83 291.38 C 692.97 294.23 695.17 297.06 697.85 299.43 C 704.22 294.24 710.16 288.51 717.01 283.94 C 719.84 282.10 720.47 278.52 722.12 275.79 Z" />
<path fill="#000000" stroke="#000000" stroke-width="0.09375" opacity="1.00" d=" M 253.08 283.10 C 253.92 282.94 255.60 282.62 256.44 282.46 C 257.93 283.36 259.45 284.24 260.77 285.40 C 261.83 289.03 260.00 292.62 259.15 296.11 C 256.60 304.46 256.57 313.30 256.83 321.95 C 256.93 330.52 259.19 338.87 261.92 346.92 C 264.96 344.96 268.29 343.51 271.38 341.65 C 270.53 340.06 269.67 338.48 268.81 336.90 C 271.28 335.22 273.95 333.87 276.70 332.71 C 284.37 329.39 291.91 325.81 299.62 322.61 C 301.23 324.90 302.55 327.38 303.73 329.92 C 300.09 332.46 295.96 334.12 291.97 335.98 C 283.98 339.67 275.96 343.28 267.99 346.99 C 266.41 347.86 264.61 347.82 262.88 347.76 C 261.84 348.71 260.81 349.67 259.78 350.63 C 258.43 349.51 256.99 348.41 256.23 346.79 C 250.71 336.05 246.58 324.21 246.86 311.98 C 246.87 302.19 246.53 291.12 253.08 283.10 Z" />
<path fill="#000000" stroke="#000000" stroke-width="0.09375" opacity="1.00" d=" M 225.11 289.95 C 227.19 288.46 229.36 287.09 231.56 285.78 C 231.51 287.33 231.39 288.88 231.21 290.42 C 233.95 295.25 237.57 299.76 238.49 305.39 C 234.71 301.63 232.38 296.79 229.80 292.21 C 228.22 291.47 226.66 290.72 225.11 289.95 Z" />
<path fill="#000000" stroke="#000000" stroke-width="0.09375" opacity="1.00" d=" M 203.37 298.42 C 205.11 298.70 206.86 298.98 208.61 299.25 C 210.69 301.38 212.79 303.48 214.97 305.50 C 215.44 303.75 215.88 301.99 216.28 300.22 C 221.29 301.97 222.28 307.45 225.35 311.14 C 226.25 309.67 227.13 308.18 228.02 306.71 C 231.30 310.34 231.74 315.22 232.63 319.80 C 233.94 318.67 235.25 317.54 236.59 316.43 C 237.08 318.28 237.80 320.10 237.97 322.03 C 237.67 324.79 236.70 327.42 236.06 330.12 C 237.85 329.73 239.63 329.29 241.41 328.87 C 241.20 330.79 241.18 332.76 240.70 334.65 C 239.68 336.70 238.16 338.42 236.78 340.23 C 237.16 340.70 237.91 341.66 238.28 342.14 C 239.46 341.91 240.64 341.69 241.83 341.50 C 241.16 343.23 240.57 344.99 239.66 346.61 C 237.66 348.58 235.07 349.80 232.80 351.42 C 233.12 351.87 233.78 352.75 234.10 353.20 C 234.91 353.30 236.54 353.50 237.35 353.59 C 236.28 355.28 235.16 356.93 233.97 358.53 C 230.92 359.08 227.95 359.98 225.03 361.01 C 226.40 362.16 227.79 363.30 229.18 364.45 C 225.12 367.21 220.17 366.96 215.51 367.46 C 216.47 368.82 217.47 370.17 218.43 371.54 C 216.12 371.73 213.66 372.61 211.41 371.68 C 209.15 370.82 206.96 369.78 204.72 368.89 C 204.90 370.70 205.13 372.51 205.35 374.33 C 203.38 373.90 201.17 373.97 199.45 372.78 C 197.50 371.21 195.87 369.30 194.10 367.55 C 193.44 369.18 192.82 370.83 192.19 372.49 C 187.52 370.56 185.67 365.79 183.56 361.61 C 182.58 363.02 181.63 364.45 180.70 365.89 C 179.51 364.54 178.32 363.19 177.12 361.85 C 177.02 358.91 176.75 355.98 176.13 353.10 C 174.58 354.07 173.05 355.09 171.52 356.10 C 171.02 354.39 170.43 352.70 170.12 350.95 C 170.25 348.36 171.39 345.97 172.15 343.53 C 171.77 343.19 171.02 342.51 170.64 342.17 C 169.42 342.67 168.19 343.15 166.96 343.63 C 166.99 341.78 166.92 339.93 167.17 338.10 C 168.68 335.50 170.65 333.13 171.52 330.20 C 169.92 330.36 168.32 330.55 166.72 330.73 C 167.36 328.83 167.57 326.60 169.11 325.17 C 171.10 323.29 173.48 321.88 175.66 320.24 C 173.96 319.44 172.23 318.69 170.52 317.91 C 172.12 316.44 173.46 314.58 175.41 313.58 C 178.00 312.75 180.64 312.11 183.15 311.05 C 181.88 309.95 180.60 308.86 179.33 307.78 C 180.82 306.78 182.27 305.66 183.97 305.03 C 186.81 304.96 189.59 305.60 192.40 305.90 C 191.84 304.13 191.23 302.38 190.63 300.63 C 192.37 300.39 194.13 299.94 195.91 300.12 C 198.56 301.07 200.97 302.86 203.90 302.86 C 203.74 301.37 203.56 299.89 203.37 298.42 M 203.49 332.43 C 202.62 333.66 201.67 334.85 200.96 336.18 C 201.21 338.72 204.00 338.85 205.91 339.49 C 206.40 338.05 207.29 336.67 207.26 335.10 C 206.52 333.64 204.81 333.18 203.49 332.43 Z" />
<path fill="#000000" stroke="#000000" stroke-width="0.09375" opacity="1.00" d=" M 726.05 298.40 C 728.87 299.48 731.14 301.49 733.32 303.52 C 731.33 313.18 726.08 321.77 723.21 331.17 C 722.28 334.93 719.39 337.80 718.50 341.57 C 716.81 348.09 715.57 354.72 714.44 361.36 C 713.51 366.75 714.54 372.37 712.97 377.66 C 712.66 377.96 712.06 378.57 711.75 378.87 C 707.81 379.37 703.85 378.79 699.94 378.28 C 695.39 377.82 690.81 377.47 686.33 376.56 C 684.04 375.21 685.74 372.13 685.76 370.04 C 688.84 354.76 692.36 339.35 699.06 325.19 C 703.43 326.85 707.49 329.36 712.07 330.49 C 714.22 330.12 715.53 328.04 716.20 326.12 C 718.48 320.16 720.81 314.22 723.48 308.43 C 725.01 305.28 725.34 301.77 726.05 298.40 M 705.61 373.77 C 706.39 374.55 707.19 375.33 707.99 376.12 C 708.88 375.31 709.77 374.50 710.66 373.68 C 709.79 373.10 708.91 372.56 708.01 372.06 C 707.11 372.49 706.31 373.07 705.61 373.77 Z" />
<path fill="#000000" stroke="#000000" stroke-width="0.09375" opacity="1.00" d=" M 452.19 299.88 C 454.97 299.82 457.80 299.93 460.42 300.99 C 461.13 304.40 464.14 306.27 466.41 308.58 C 474.84 317.45 482.99 326.58 491.65 335.21 C 492.90 334.87 494.16 334.52 495.42 334.18 C 496.38 334.98 497.35 335.79 498.33 336.60 C 497.84 337.90 497.34 339.19 496.83 340.48 C 504.73 348.13 512.34 356.09 520.50 363.48 C 525.32 367.88 530.03 372.40 534.39 377.26 C 535.13 378.88 536.02 380.46 537.33 381.70 C 543.94 388.13 550.32 394.82 557.69 400.40 C 561.71 394.44 562.51 386.94 561.86 379.95 C 561.40 375.82 559.35 372.14 557.22 368.66 C 561.94 366.77 567.18 366.46 572.13 367.58 C 584.80 370.07 596.15 379.29 600.47 391.56 C 602.77 397.73 602.43 404.46 601.96 410.92 C 601.54 411.38 600.68 412.29 600.26 412.74 C 591.81 407.06 580.71 406.72 571.44 410.51 C 570.22 411.16 568.68 412.08 568.91 413.69 C 570.87 414.92 573.23 415.34 575.39 416.15 C 574.88 417.50 574.36 418.84 573.85 420.19 C 575.01 421.42 576.17 422.65 577.34 423.90 C 576.90 424.44 576.02 425.53 575.59 426.08 C 575.05 426.04 573.96 425.96 573.42 425.93 C 572.61 425.16 571.81 424.39 571.02 423.63 C 569.40 423.80 567.79 423.96 566.19 424.13 C 565.26 422.13 564.35 420.12 563.29 418.20 C 558.13 423.11 558.85 430.57 558.99 437.04 C 558.93 441.84 561.47 446.08 563.82 450.09 C 560.32 451.23 556.70 452.23 552.98 452.04 C 535.80 451.31 520.31 437.14 518.06 420.10 C 517.76 415.70 517.61 411.18 518.99 406.94 C 522.51 408.68 525.99 410.86 530.02 411.15 C 537.18 411.70 545.22 411.75 551.03 406.85 C 545.76 399.90 539.16 394.14 533.15 387.86 C 531.07 385.52 528.30 384.04 525.97 382.03 C 514.23 370.54 502.91 358.61 491.16 347.13 C 489.00 347.36 486.82 347.25 484.92 346.10 C 484.95 344.54 484.99 342.99 485.02 341.44 C 480.17 336.80 475.62 331.83 470.49 327.49 C 465.46 323.22 460.93 318.41 456.00 314.04 C 453.89 312.04 450.46 311.08 449.82 307.89 C 448.52 304.92 450.70 302.25 452.19 299.88 Z" />
<path fill="#000000" stroke="#000000" stroke-width="0.09375" opacity="1.00" d=" M 400.92 308.87 C 403.60 307.26 406.90 307.16 409.95 306.89 C 409.61 309.23 406.46 312.39 409.24 314.09 C 413.19 313.37 416.29 310.46 420.05 309.19 C 423.38 308.56 426.85 308.99 430.03 310.15 C 428.38 311.91 426.66 313.60 424.95 315.30 C 427.92 318.56 432.37 316.04 436.03 315.93 C 440.22 314.99 443.88 317.74 447.20 319.88 C 444.94 321.12 442.67 322.32 440.48 323.67 C 440.93 324.21 441.82 325.30 442.26 325.84 C 446.07 326.59 450.00 326.94 453.64 328.34 C 456.19 330.25 458.20 332.76 460.37 335.07 C 457.81 336.04 454.23 335.37 452.66 338.05 C 455.65 341.01 459.73 342.44 462.97 345.05 C 465.13 347.50 466.00 350.76 467.37 353.66 C 464.58 353.49 461.81 353.09 459.03 352.89 C 460.11 357.63 463.93 360.78 466.67 364.54 C 467.50 367.29 466.78 370.28 466.60 373.11 C 464.32 372.06 461.79 369.89 459.42 372.01 C 460.11 376.15 461.88 380.02 462.75 384.12 C 462.79 387.20 461.33 390.06 460.27 392.89 C 458.90 391.12 457.57 389.35 456.18 387.61 C 455.53 387.98 454.22 388.71 453.56 389.08 C 453.34 392.38 453.33 395.70 453.09 399.00 C 453.16 402.51 450.25 404.93 448.49 407.66 C 448.03 407.63 447.11 407.58 446.65 407.55 C 445.92 405.67 446.25 401.43 443.32 402.02 C 440.34 405.29 440.01 410.02 437.62 413.64 C 435.40 415.91 432.44 417.25 429.76 418.87 C 429.83 416.69 429.95 414.53 430.04 412.36 C 429.49 411.93 428.37 411.06 427.82 410.63 C 424.71 413.64 422.32 417.34 419.01 420.13 C 416.11 421.66 412.71 421.82 409.50 421.95 C 410.80 419.42 413.18 416.62 410.64 414.04 C 406.69 415.90 403.04 418.42 398.93 419.95 C 395.81 419.99 392.79 419.05 389.77 418.41 C 391.50 416.64 393.75 415.19 394.66 412.78 C 393.78 411.95 392.70 411.18 391.43 411.48 C 387.88 411.77 384.35 412.23 380.87 412.96 C 378.08 411.55 375.29 410.10 372.77 408.25 C 375.23 407.02 377.65 405.68 379.73 403.86 C 375.71 401.11 370.62 401.48 366.26 399.68 C 363.70 397.74 361.73 395.15 359.51 392.86 C 362.11 392.14 365.03 392.25 367.33 390.67 C 364.98 386.61 359.66 385.79 356.67 382.33 C 355.17 380.02 354.28 377.38 353.14 374.89 C 353.54 374.66 354.36 374.21 354.77 373.99 C 356.42 374.56 358.09 375.11 359.77 375.64 C 360.10 374.98 360.77 373.67 361.10 373.01 C 358.87 370.20 356.56 367.45 354.47 364.54 C 352.34 361.87 353.16 358.26 352.94 355.12 C 353.31 354.86 354.04 354.35 354.41 354.10 C 355.91 355.42 357.44 356.73 359.01 358.00 C 359.51 357.48 360.50 356.45 361.00 355.93 C 359.84 352.14 358.44 348.41 357.65 344.52 C 357.53 341.37 359.05 338.39 360.68 335.78 C 362.04 337.57 363.39 339.39 364.76 341.19 C 365.31 340.78 366.42 339.96 366.97 339.54 C 367.05 335.74 366.73 331.89 367.32 328.12 C 368.57 324.97 371.12 322.54 373.60 320.31 C 374.10 322.10 374.57 323.90 375.03 325.71 C 375.55 326.05 376.60 326.73 377.13 327.07 C 379.83 323.87 380.58 319.72 382.22 316.00 C 384.29 313.25 387.58 311.77 390.34 309.80 C 390.49 312.04 390.33 314.27 390.15 316.50 C 390.65 316.94 391.64 317.84 392.14 318.28 C 395.32 315.39 397.70 311.72 400.92 308.87 M 409.36 359.30 C 406.90 359.82 404.68 362.24 404.98 364.85 C 405.83 366.62 407.29 368.24 409.13 369.00 C 412.02 369.49 414.58 366.61 415.06 363.99 C 414.62 361.41 412.14 358.81 409.36 359.30 Z" />
<path fill="#000000" stroke="#000000" stroke-width="0.09375" opacity="1.00" d=" M 110.62 322.67 C 125.47 317.30 140.30 311.17 156.10 309.33 C 157.91 309.05 159.95 308.68 161.43 310.08 C 161.21 316.14 158.04 321.71 154.18 326.23 C 152.71 328.06 150.21 328.15 148.08 328.43 C 143.74 328.87 139.38 329.12 135.08 329.83 C 130.96 330.36 126.23 331.02 123.40 334.38 C 122.80 336.10 122.59 337.91 122.22 339.70 C 120.47 337.46 118.94 334.58 115.91 333.96 C 111.89 333.97 107.76 337.34 108.32 341.64 C 109.13 343.81 110.78 345.54 111.91 347.55 C 109.07 347.62 107.05 345.79 105.27 343.84 C 102.98 344.10 100.52 344.16 98.51 345.43 C 96.89 346.49 95.47 347.87 93.68 348.65 C 81.84 353.84 69.50 357.73 57.45 362.39 C 46.33 366.94 34.92 371.23 22.92 372.68 C 18.99 373.18 14.92 372.99 11.25 371.37 C 25.99 361.83 41.68 353.83 56.56 344.51 C 60.91 340.45 66.91 339.37 72.26 337.23 C 77.84 335.06 83.51 333.15 89.18 331.27 C 91.46 330.74 92.87 328.83 94.39 327.24 C 100.17 327.45 105.30 324.46 110.62 322.67 M 148.39 320.04 C 146.22 321.47 147.29 323.85 148.28 325.64 C 149.54 325.00 150.81 324.38 151.98 323.58 C 151.97 321.57 150.46 319.92 148.39 320.04 Z" />
<path fill="#000000" stroke="#000000" stroke-width="0.09375" opacity="1.00" d=" M 524.63 309.71 C 528.78 307.48 534.36 309.70 535.93 314.13 C 538.03 319.14 533.99 323.93 534.02 328.94 C 534.08 332.53 533.52 336.19 534.14 339.74 C 538.54 352.12 544.68 363.85 548.67 376.37 C 544.82 372.27 542.40 367.16 539.59 362.35 C 536.41 356.61 532.93 351.04 529.75 345.31 C 527.84 341.67 524.09 339.64 521.38 336.68 C 517.60 332.75 511.17 333.58 507.46 329.64 C 504.28 326.10 506.19 321.19 506.79 317.08 C 504.83 315.73 502.77 314.56 500.77 313.30 C 502.07 312.76 503.39 311.68 504.90 312.11 C 510.17 313.27 515.14 315.63 519.43 318.90 C 520.44 315.56 521.11 311.37 524.63 309.71 M 522.80 314.20 C 522.83 316.05 522.63 317.95 523.12 319.76 C 523.96 320.97 525.05 321.98 526.08 323.05 C 527.59 323.02 529.11 323.00 530.63 322.99 C 531.77 321.88 532.92 320.79 534.08 319.70 C 534.11 317.86 534.13 316.03 534.12 314.21 C 532.09 312.75 530.00 310.15 527.19 311.15 C 525.57 311.93 524.22 313.12 522.80 314.20 M 511.43 319.00 C 510.22 320.20 509.02 321.40 507.80 322.58 C 507.65 325.58 509.16 328.03 511.24 330.04 C 512.86 330.02 514.48 330.01 516.11 330.00 C 517.07 329.01 518.03 328.01 519.00 327.02 C 518.99 325.49 519.00 323.96 519.00 322.44 C 517.86 321.29 516.74 320.15 515.62 319.00 C 514.22 318.99 512.82 318.99 511.43 319.00 M 521.72 323.29 C 522.50 328.53 525.58 332.94 528.97 336.85 C 527.98 331.82 527.22 325.43 521.72 323.29 M 529.13 337.61 C 527.98 338.60 529.42 340.91 530.76 339.90 C 531.94 338.93 530.42 336.64 529.13 337.61 Z" />
<path fill="#000000" stroke="#000000" stroke-width="0.09375" opacity="1.00" d=" M 679.46 339.90 C 683.13 336.25 684.57 331.21 686.98 326.77 C 686.85 330.61 685.55 334.24 683.85 337.64 C 684.03 338.63 684.40 340.62 684.59 341.61 C 682.86 341.08 681.16 340.50 679.46 339.90 Z" />
<path fill="#000000" stroke="#000000" stroke-width="0.09375" opacity="1.00" d=" M 553.07 334.23 C 554.57 333.86 556.08 333.46 557.57 333.04 C 562.50 337.88 567.44 342.73 572.38 347.58 C 571.30 350.96 569.55 354.05 566.81 356.37 C 565.20 356.66 563.60 357.00 562.01 357.37 C 557.21 352.71 552.52 347.94 547.69 343.31 C 548.08 339.58 550.31 336.61 553.07 334.23 M 552.03 337.53 C 554.61 343.02 560.81 345.46 563.67 350.79 C 565.12 351.45 566.57 352.07 568.07 352.68 C 566.00 348.88 562.04 346.86 559.24 343.71 C 557.01 341.45 555.38 338.27 552.03 337.53 Z" />
<path fill="#000000" stroke="#000000" stroke-width="0.09375" opacity="1.00" d=" M 581.57 346.61 C 584.12 344.63 586.89 342.94 589.82 341.57 C 589.64 347.47 594.07 351.96 597.45 356.31 C 598.49 355.77 599.55 355.23 600.61 354.70 C 600.61 356.04 600.61 357.38 600.61 358.73 C 604.66 364.63 608.24 370.84 612.16 376.83 C 616.39 382.59 617.94 389.76 619.52 396.60 C 614.67 391.73 608.42 388.07 605.12 381.84 C 601.70 376.31 598.19 370.83 594.58 365.42 C 593.51 363.55 591.45 362.78 589.68 361.79 C 590.60 360.82 591.53 359.86 592.47 358.90 C 590.29 355.35 588.06 351.83 585.78 348.34 C 584.36 347.79 582.96 347.21 581.57 346.61 Z" />
<path fill="#000000" stroke="#000000" stroke-width="0.09375" opacity="1.00" d=" M 666.47 348.93 C 666.75 347.05 667.08 345.19 667.44 343.34 C 669.00 345.14 670.33 347.28 672.44 348.52 C 675.82 347.64 679.20 346.55 682.77 347.09 C 681.17 349.16 678.70 350.57 677.50 352.92 C 678.58 356.20 679.47 359.60 678.60 363.07 C 676.95 361.33 675.38 359.53 673.81 357.74 C 670.27 358.64 666.72 359.73 663.02 359.27 C 664.56 357.34 666.51 355.79 668.04 353.86 C 668.46 352.03 667.18 350.48 666.47 348.93 Z" />
<path fill="#000000" stroke="#000000" stroke-width="0.09375" opacity="1.00" d=" M 137.69 347.31 C 143.06 346.00 147.88 349.57 150.04 354.30 C 146.58 360.23 143.36 366.30 139.79 372.17 C 137.50 371.94 134.99 372.26 132.97 370.95 C 130.42 369.81 129.05 367.30 127.60 365.07 C 130.91 359.12 134.25 353.18 137.69 347.31 M 137.52 362.51 C 139.64 359.34 141.88 356.24 143.84 352.98 C 143.78 352.16 143.64 350.52 143.57 349.70 C 141.11 353.69 137.96 357.68 137.52 362.51 M 132.73 368.64 C 133.79 368.40 134.85 368.16 135.91 367.93 C 136.79 365.77 137.56 363.55 137.60 361.20 C 135.32 363.20 133.75 365.81 132.73 368.64 Z" />
<path fill="#000000" stroke="#000000" stroke-width="0.09375" opacity="1.00" d=" M 248.24 349.99 C 250.53 348.54 253.05 347.42 255.79 348.46 C 254.35 349.31 252.79 349.92 251.26 350.58 C 250.25 351.69 249.25 352.80 248.26 353.93 C 248.26 352.94 248.25 350.98 248.24 349.99 Z" />
<path fill="#000000" stroke="#000000" stroke-width="0.09375" opacity="1.00" d=" M 611.26 349.86 C 619.28 352.00 626.19 357.37 634.59 358.17 C 633.49 360.23 632.22 362.21 630.69 363.98 C 629.31 362.45 628.25 360.56 626.40 359.54 C 621.27 356.45 615.85 353.75 611.26 349.86 Z" />
<path fill="#000000" stroke="#000000" stroke-width="0.09375" opacity="1.00" d=" M 478.18 352.31 C 484.60 357.29 489.86 363.57 495.71 369.18 C 493.20 369.78 490.65 370.24 488.15 370.84 C 489.39 373.53 490.70 376.18 492.11 378.79 C 491.52 379.31 490.33 380.36 489.74 380.89 C 487.98 377.78 486.56 374.47 484.45 371.57 C 482.46 373.39 480.46 375.23 478.17 376.67 C 477.90 368.55 477.88 360.42 478.18 352.31 Z" />
<path fill="#000000" stroke="#000000" stroke-width="0.09375" opacity="1.00" d=" M 97.05 362.05 C 100.48 359.32 104.06 356.61 108.37 355.44 C 107.48 358.76 106.25 361.97 105.35 365.29 C 104.78 367.41 104.59 369.99 106.20 371.74 C 108.13 374.14 111.89 373.67 113.77 376.11 C 116.18 379.13 118.24 382.47 119.60 386.12 C 114.58 384.70 109.65 382.69 104.34 382.83 C 101.88 384.89 100.22 387.62 99.67 390.80 C 96.13 393.45 92.48 395.99 88.47 397.89 C 89.32 392.88 92.01 388.22 91.98 383.07 C 90.71 379.88 87.39 377.98 84.06 377.68 C 81.37 374.17 78.79 370.51 77.17 366.37 C 81.85 367.55 86.45 369.03 91.12 370.22 C 94.42 368.64 96.71 365.74 97.05 362.05 M 97.16 372.90 C 96.41 374.19 95.05 375.29 94.92 376.86 C 95.52 378.01 96.31 379.04 97.04 380.12 C 97.76 380.08 99.20 380.01 99.92 379.97 C 100.61 379.28 101.31 378.60 102.01 377.91 C 102.01 377.23 102.01 375.88 102.01 375.20 C 101.26 374.47 100.52 373.74 99.77 373.02 C 99.12 372.99 97.81 372.93 97.16 372.90 Z" />
<path fill="#000000" stroke="#000000" stroke-width="0.09375" opacity="1.00" d=" M 648.91 356.76 C 650.83 356.30 652.78 355.99 654.74 355.70 C 657.85 359.17 657.73 364.05 659.85 367.98 C 662.64 371.62 665.84 375.42 670.42 376.73 C 670.84 379.43 672.37 381.59 674.47 383.28 C 675.35 385.41 677.04 386.98 678.82 388.38 C 678.95 388.91 679.19 389.98 679.32 390.51 C 680.53 391.64 681.82 392.74 682.77 394.13 C 686.50 399.38 690.52 404.43 694.69 409.35 C 695.85 411.08 697.26 412.63 698.77 414.09 C 699.95 416.17 701.39 418.07 703.01 419.83 C 704.14 421.84 705.57 423.67 707.21 425.30 C 709.68 429.94 714.33 433.09 716.45 437.91 C 717.54 438.69 718.62 439.51 719.73 440.29 C 719.84 440.85 720.05 441.99 720.15 442.55 C 723.06 445.08 724.92 448.50 727.47 451.36 C 728.40 453.45 730.08 455.00 731.86 456.38 C 731.97 456.97 732.19 458.15 732.30 458.74 C 733.52 459.55 734.72 460.38 735.96 461.19 C 736.00 461.83 736.10 463.11 736.14 463.75 C 737.33 464.57 738.52 465.42 739.72 466.25 C 739.83 466.85 740.05 468.06 740.16 468.66 C 741.33 469.72 742.49 470.80 743.66 471.89 C 741.07 473.76 738.79 476.13 735.96 477.64 C 735.06 477.47 734.26 477.11 733.54 476.56 C 714.98 461.47 696.48 446.28 677.90 431.21 C 672.54 427.19 668.05 422.11 662.24 418.69 C 656.13 419.16 651.64 414.19 647.71 410.24 C 644.53 407.74 647.25 403.55 645.90 400.32 C 643.83 398.80 641.13 398.47 639.11 396.89 C 637.58 395.29 637.31 392.95 636.69 390.93 C 633.67 388.31 629.60 386.97 627.25 383.62 C 626.46 382.00 626.15 380.20 625.74 378.47 C 626.67 377.85 627.61 377.25 628.57 376.64 C 629.49 378.16 630.39 379.69 631.31 381.22 C 633.04 380.77 635.53 381.49 636.58 379.65 C 638.42 375.88 638.13 371.26 640.76 367.83 C 642.82 364.99 646.07 363.48 649.04 361.81 C 648.99 360.12 648.95 358.44 648.91 356.76 M 650.27 368.35 C 649.61 372.58 649.78 377.03 648.03 381.03 C 646.85 384.04 644.20 386.06 642.00 388.30 C 642.01 388.86 642.04 389.99 642.05 390.56 C 642.91 391.49 643.77 392.44 644.64 393.39 C 650.14 392.42 653.35 387.09 655.31 382.32 C 657.18 377.60 658.47 371.35 654.67 367.24 C 653.09 366.91 650.95 366.39 650.27 368.35 Z" />
<path fill="#000000" stroke="#000000" stroke-width="0.09375" opacity="1.00" d=" M 291.95 372.14 C 293.96 370.57 296.20 369.36 298.45 368.18 C 297.95 371.83 296.56 375.29 296.02 378.92 C 296.14 381.66 298.95 382.87 301.04 383.97 C 304.53 385.54 305.95 389.40 307.54 392.60 C 303.74 391.99 300.13 390.35 296.29 390.08 C 293.17 391.03 292.84 394.68 291.08 396.95 C 288.85 399.01 286.12 400.42 283.50 401.92 C 284.01 398.22 285.39 394.72 285.94 391.04 C 285.56 387.68 281.82 387.08 279.47 385.54 C 277.06 383.30 275.61 380.24 274.06 377.38 C 278.09 377.88 281.84 379.89 285.92 379.97 C 289.09 378.36 289.07 374.06 291.95 372.14 M 288.52 385.12 C 289.14 385.67 290.37 386.77 290.99 387.32 C 291.73 386.57 292.49 385.83 293.24 385.10 C 292.73 384.45 291.69 383.16 291.17 382.51 C 290.28 383.37 289.39 384.24 288.52 385.12 Z" />
<path fill="#000000" stroke="#000000" stroke-width="0.09375" opacity="1.00" d=" M 157.01 379.96 C 157.13 375.25 161.28 371.22 165.92 370.95 C 169.84 370.70 174.06 372.56 175.93 376.13 C 178.50 380.52 177.97 385.78 178.02 390.65 C 176.99 391.51 175.97 392.37 174.95 393.23 C 172.21 392.81 169.34 391.43 166.60 392.57 C 163.01 393.60 160.83 396.84 158.39 399.42 C 153.36 405.38 147.59 410.65 142.39 416.45 C 140.62 418.50 138.24 419.85 135.76 420.85 C 123.21 426.09 110.39 430.62 97.86 435.90 C 95.75 436.92 93.41 437.01 91.11 436.82 C 92.25 435.95 93.48 435.21 94.74 434.53 C 95.66 433.70 96.58 432.87 97.49 432.03 C 98.51 432.01 99.54 431.99 100.57 431.98 C 101.48 431.06 102.40 430.14 103.32 429.23 C 105.69 428.90 107.89 427.98 109.75 426.47 C 110.95 426.48 112.16 426.51 113.36 426.53 C 114.35 425.12 115.31 423.69 116.29 422.27 C 117.37 422.17 118.45 422.08 119.53 421.99 C 124.68 415.58 133.37 413.87 138.80 407.82 C 143.95 402.62 148.97 397.30 153.82 391.81 C 156.91 388.69 156.53 383.98 157.01 379.96 M 165.40 375.30 C 161.93 376.03 159.05 379.94 160.45 383.44 C 161.50 386.94 165.65 390.04 169.28 388.34 C 172.80 387.41 174.00 383.25 173.10 380.06 C 172.43 376.71 168.61 374.68 165.40 375.30 M 134.75 415.20 C 135.96 416.00 137.18 416.79 138.41 417.58 C 138.96 416.34 140.99 414.91 139.29 413.70 C 137.87 411.62 135.88 414.08 134.75 415.20 Z" />
<path fill="#000000" stroke="#000000" stroke-width="0.09375" opacity="1.00" d=" M 53.02 384.20 C 53.15 381.73 54.27 379.53 55.56 377.49 C 59.04 383.62 66.89 384.21 71.35 389.27 C 66.16 388.40 61.73 385.46 57.09 383.20 C 55.73 383.54 54.38 383.87 53.02 384.20 Z" />
<path fill="#000000" stroke="#000000" stroke-width="0.09375" opacity="1.00" d=" M 496.91 384.84 C 500.59 382.11 503.96 378.59 508.60 377.57 C 510.17 379.43 512.77 381.19 512.20 384.00 C 512.36 386.42 510.47 388.64 508.05 388.83 C 505.46 389.14 503.23 390.52 501.33 392.24 C 494.95 397.88 487.24 401.70 480.25 406.49 C 480.17 406.83 480.02 407.52 479.94 407.87 C 481.43 410.91 483.58 413.56 485.45 416.37 C 481.76 420.14 477.39 423.12 473.11 426.14 C 459.56 435.32 445.66 444.17 430.55 450.57 C 424.06 453.11 417.31 455.85 410.21 455.49 C 416.66 445.59 426.68 438.89 435.92 431.83 C 456.19 416.08 476.90 400.90 496.91 384.84 M 504.22 383.31 C 502.60 383.64 503.29 386.30 504.87 385.80 C 506.50 385.42 505.81 382.81 504.22 383.31 M 485.25 398.26 C 483.89 398.93 483.85 399.60 485.15 400.27 C 486.49 399.61 486.52 398.93 485.25 398.26 Z" />
<path fill="#000000" stroke="#000000" stroke-width="0.09375" opacity="1.00" d=" M 17.53 383.32 C 20.03 383.05 22.53 383.37 24.93 384.10 C 28.12 385.04 31.62 384.79 34.63 386.34 C 41.00 389.28 47.29 392.40 53.74 395.15 C 55.78 396.12 58.08 395.80 60.26 395.91 C 59.77 396.85 59.27 397.80 58.77 398.75 C 61.01 400.20 63.36 401.46 65.74 402.66 C 66.68 402.40 68.57 401.89 69.51 401.63 C 68.48 404.48 67.18 407.23 65.77 409.92 C 63.72 406.92 60.51 405.32 57.26 403.96 C 56.34 404.97 55.42 405.99 54.50 407.02 C 53.19 405.49 52.13 403.59 50.17 402.82 C 44.49 400.18 38.82 397.51 33.13 394.88 C 27.03 392.43 22.54 387.40 17.53 383.32 Z" />
<path fill="#000000" stroke="#000000" stroke-width="0.09375" opacity="1.00" d=" M 184.88 398.26 C 191.19 392.53 199.47 389.58 205.81 383.90 C 206.63 385.27 207.44 386.65 208.26 388.03 C 199.82 389.91 193.21 396.09 184.88 398.26 Z" />
<path fill="#000000" stroke="#000000" stroke-width="0.09375" opacity="1.00" d=" M 703.91 384.94 C 705.55 384.97 707.20 385.00 708.86 385.03 C 712.65 389.93 713.88 396.11 716.21 401.73 C 719.25 409.24 722.36 416.82 726.95 423.53 C 728.73 424.07 730.69 424.53 731.97 426.02 C 735.20 429.61 735.90 434.60 737.87 438.88 C 737.36 438.74 736.35 438.48 735.85 438.34 C 734.92 436.99 733.99 435.67 733.06 434.34 C 731.93 434.87 730.82 435.48 729.78 436.15 C 730.68 438.21 731.57 440.26 732.41 442.35 C 728.57 439.54 725.43 435.72 723.65 431.29 C 722.05 428.30 725.16 424.85 723.08 421.99 C 718.79 414.40 714.33 406.86 708.91 400.00 C 706.39 396.58 703.13 393.30 702.45 388.94 C 702.66 387.52 703.37 386.25 703.91 384.94 Z" />
<path fill="#000000" stroke="#000000" stroke-width="0.09375" opacity="1.00" d=" M 335.26 408.29 C 338.09 401.16 340.37 393.79 343.81 386.91 C 343.58 397.05 337.96 406.10 337.42 416.21 C 335.50 415.58 333.62 414.85 331.74 414.11 C 333.02 412.23 334.43 410.42 335.26 408.29 Z" />
<path fill="#000000" stroke="#000000" stroke-width="0.09375" opacity="1.00" d=" M 250.53 396.43 C 254.70 393.73 259.03 390.72 264.16 390.42 C 267.68 390.29 270.58 393.09 271.90 396.14 C 272.65 397.87 271.36 399.35 270.55 400.76 C 266.75 400.44 264.14 403.15 261.67 405.57 C 262.08 409.51 264.68 412.79 265.03 416.74 C 267.76 418.35 270.78 419.27 273.97 419.14 C 277.25 423.02 279.46 427.62 281.86 432.06 C 286.94 442.03 291.60 452.45 293.20 463.61 C 291.92 463.01 290.58 462.52 289.43 461.69 C 278.01 452.14 268.38 440.41 261.84 426.99 C 263.02 424.08 263.63 420.99 263.55 417.84 C 260.99 416.26 259.35 413.72 257.35 411.57 C 255.75 409.84 253.22 410.52 251.29 411.18 C 248.06 412.18 247.05 417.34 243.05 415.93 C 239.74 413.55 237.98 408.23 240.78 404.82 C 243.40 401.37 246.89 398.70 250.53 396.43 Z" />
<path fill="#000000" stroke="#000000" stroke-width="0.09375" opacity="1.00" d=" M 502.09 415.06 C 503.21 410.23 504.37 405.37 506.37 400.81 C 506.63 402.65 506.96 404.59 506.22 406.37 C 505.11 409.38 504.93 413.06 502.09 415.06 Z" />
<path fill="#000000" stroke="#000000" stroke-width="0.09375" opacity="1.00" d=" M 179.43 408.35 C 184.89 406.95 190.20 404.37 195.96 404.65 C 201.33 404.69 204.73 411.56 202.12 416.05 C 199.85 420.33 195.15 422.52 190.68 423.75 C 185.90 425.19 180.86 425.20 175.92 424.99 C 172.51 424.88 169.81 422.46 166.68 421.42 C 158.57 419.57 150.07 420.62 142.05 418.21 C 144.48 415.87 146.92 413.56 149.38 411.26 C 159.52 413.55 169.55 410.31 179.43 408.35 M 187.62 409.68 C 182.81 411.36 177.48 411.40 172.97 413.93 C 172.97 415.58 172.97 417.24 172.97 418.90 C 174.71 420.02 176.49 421.34 178.68 421.32 C 185.20 421.26 192.14 420.17 197.23 415.74 C 196.92 413.63 197.68 410.76 195.57 409.40 C 193.20 407.53 190.16 409.08 187.62 409.68 Z" />
<path fill="#000000" stroke="#000000" stroke-width="0.09375" opacity="1.00" d=" M 79.40 409.35 C 79.82 408.90 80.67 408.00 81.09 407.56 C 86.74 407.37 92.36 408.06 98.00 408.01 C 103.45 408.03 108.92 407.93 114.36 408.46 C 120.80 408.97 127.30 408.64 133.71 409.55 C 130.14 411.85 126.41 413.91 122.54 415.66 C 120.74 416.73 119.34 414.58 117.85 413.87 C 116.45 414.29 115.07 414.73 113.69 415.17 C 112.98 414.48 112.27 413.80 111.57 413.13 C 108.88 413.51 106.09 413.79 103.67 412.28 C 102.46 412.48 101.26 412.69 100.06 412.91 C 98.34 412.34 96.60 411.74 94.77 411.70 C 91.79 411.60 88.94 410.46 85.94 410.76 C 83.77 410.25 81.59 409.78 79.40 409.35 Z" />
<path fill="#000000" stroke="#000000" stroke-width="0.09375" opacity="1.00" d=" M 342.05 425.15 C 347.98 419.92 353.26 414.02 358.98 408.56 C 364.15 413.23 369.28 418.11 372.88 424.15 C 373.87 425.93 375.30 427.72 375.18 429.88 C 373.62 431.57 371.30 432.27 369.34 433.38 C 365.93 434.95 362.72 437.09 359.03 437.97 C 356.71 437.44 354.53 436.43 352.28 435.68 C 351.64 436.79 351.02 437.90 350.40 439.02 C 356.33 445.59 363.28 451.16 368.90 458.03 C 381.10 471.55 392.66 485.62 404.75 499.24 C 409.41 504.27 414.24 509.14 419.34 513.72 C 424.37 518.01 430.17 521.30 434.96 525.89 C 433.39 529.77 429.89 532.18 426.87 534.85 C 410.62 521.93 397.06 506.05 383.77 490.20 C 377.00 482.00 370.25 473.75 362.85 466.10 C 358.49 461.26 353.13 457.29 347.00 455.02 C 343.08 453.73 339.32 450.68 335.05 452.53 C 330.78 448.94 327.12 444.67 324.35 439.83 C 329.68 434.28 336.02 429.88 342.05 425.15 Z" />
<path fill="#000000" stroke="#000000" stroke-width="0.09375" opacity="1.00" d=" M 290.00 413.68 C 291.92 413.11 293.91 413.02 295.84 413.59 C 292.30 418.41 295.93 424.45 294.10 429.81 C 292.93 424.38 292.71 418.65 290.00 413.68 Z" />
<path fill="#000000" stroke="#000000" stroke-width="0.09375" opacity="1.00" d=" M 206.11 433.18 C 210.36 427.80 214.38 422.20 219.38 417.49 C 217.08 422.83 213.60 427.50 210.16 432.14 C 208.79 433.52 209.37 435.41 209.70 437.07 C 209.27 437.43 208.40 438.15 207.96 438.51 C 205.91 437.11 203.89 435.67 201.92 434.17 C 202.42 433.59 203.43 432.44 203.94 431.86 C 204.66 432.29 205.39 432.73 206.11 433.18 Z" />
<path fill="#000000" stroke="#000000" stroke-width="0.09375" opacity="1.00" d=" M 497.26 429.63 C 499.97 425.55 499.06 419.47 503.50 416.61 C 503.11 421.24 501.38 425.59 500.56 430.14 C 504.61 432.20 509.16 432.75 513.47 434.01 C 512.79 436.25 512.47 439.05 510.24 440.36 C 507.14 439.76 504.15 438.65 501.02 438.18 C 495.58 437.55 490.67 434.88 485.25 434.10 C 484.76 433.61 483.78 432.61 483.28 432.11 C 484.04 430.34 484.05 427.84 486.07 426.96 C 489.83 427.69 493.43 429.14 497.26 429.63 Z" />
<path fill="#000000" stroke="#000000" stroke-width="0.09375" opacity="1.00" d=" M 226.46 430.31 C 227.10 429.94 228.37 429.19 229.01 428.82 C 229.49 429.17 230.45 429.87 230.92 430.22 C 231.81 429.79 232.71 429.36 233.61 428.95 C 234.67 430.61 235.47 432.57 237.14 433.76 C 243.70 438.48 248.23 445.32 253.90 450.98 C 255.90 450.42 257.87 449.59 259.97 449.48 C 262.00 449.68 263.57 451.19 265.24 452.21 C 265.04 454.70 264.72 457.20 263.99 459.61 C 282.75 476.25 302.26 492.19 323.59 505.46 C 327.69 507.94 331.99 510.16 335.60 513.37 C 343.37 516.35 350.64 520.48 358.43 523.46 C 375.83 530.38 393.94 535.49 412.32 539.07 C 407.64 540.22 402.79 540.07 398.01 540.01 C 375.13 539.31 352.86 532.41 332.38 522.48 C 313.88 513.26 297.77 500.14 281.40 487.68 C 273.41 480.68 264.94 474.24 257.01 467.17 C 253.86 468.76 250.35 469.59 246.94 468.27 C 243.92 468.88 240.61 469.70 237.69 468.32 C 234.13 466.74 230.76 464.79 227.30 463.01 C 226.55 456.62 221.76 451.18 223.04 444.49 C 224.77 442.49 225.43 439.98 225.21 437.38 C 226.01 436.31 226.82 435.25 227.64 434.20 C 227.24 432.90 226.84 431.60 226.46 430.31 M 229.34 437.77 C 227.44 440.57 224.37 443.30 224.98 447.04 C 225.45 452.13 229.20 455.95 233.17 458.74 C 235.88 461.87 240.24 464.44 244.37 462.38 C 246.63 461.46 249.46 458.16 247.04 455.98 C 241.33 449.74 235.06 444.01 229.34 437.77 Z" />
<path fill="#000000" stroke="#000000" stroke-width="0.09375" opacity="1.00" d=" M 390.10 434.08 C 392.81 433.99 395.70 433.40 398.21 434.79 C 400.96 435.73 402.45 438.37 404.08 440.58 C 400.92 447.35 398.32 454.36 395.11 461.11 C 392.62 461.00 390.03 461.33 387.68 460.35 C 384.81 459.45 383.12 456.81 381.16 454.74 C 384.12 447.84 386.95 440.89 390.10 434.08 M 392.02 446.75 C 390.40 450.41 388.20 453.84 387.28 457.79 C 387.98 457.63 389.37 457.31 390.07 457.16 C 390.78 454.95 391.51 452.75 392.24 450.55 C 393.13 448.89 393.86 447.14 394.47 445.36 C 395.98 442.71 398.76 439.46 396.14 436.53 C 394.52 439.84 393.68 443.46 392.02 446.75 Z" />
<path fill="#000000" stroke="#000000" stroke-width="0.09375" opacity="1.00" d=" M 121.14 437.96 C 127.11 435.77 133.61 434.82 139.94 435.69 C 145.08 436.29 150.07 437.69 155.15 438.66 C 160.69 439.67 166.14 441.75 171.86 441.17 C 172.62 442.42 173.37 443.68 174.13 444.94 C 183.86 446.77 193.95 447.32 203.18 451.24 C 204.17 450.34 205.17 449.45 206.17 448.56 C 207.86 449.98 209.75 451.29 210.88 453.24 C 211.66 455.82 210.57 458.96 207.94 459.93 C 203.28 460.65 198.83 458.57 194.34 457.65 C 183.58 454.71 172.60 452.57 162.03 448.99 C 153.31 446.65 144.50 444.64 135.78 442.30 C 130.87 440.96 125.76 440.18 121.14 437.96 M 181.23 450.08 L 181.23 450.91 L 181.94 451.33 L 182.65 450.91 L 182.65 450.09 L 181.94 449.67 L 181.23 450.08 Z" />
<path fill="#000000" stroke="#000000" stroke-width="0.09375" opacity="1.00" d=" M 459.56 448.23 C 465.80 445.32 472.92 444.75 479.05 441.45 C 479.64 443.12 479.91 444.89 479.55 446.66 C 472.80 445.03 466.22 450.19 459.56 448.23 Z" />
<path fill="#000000" stroke="#000000" stroke-width="0.09375" opacity="1.00" d=" M 457.34 448.20 C 458.92 447.67 459.50 448.22 459.09 449.84 C 457.40 450.35 456.82 449.80 457.34 448.20 Z" />
<path fill="#000000" stroke="#000000" stroke-width="0.09375" opacity="1.00" d=" M 308.01 471.97 C 311.52 470.60 315.08 469.30 318.80 468.65 C 319.57 470.30 320.31 471.97 321.03 473.64 C 321.97 473.57 322.91 473.51 323.85 473.44 C 326.22 476.92 328.55 480.51 331.79 483.26 C 335.25 486.19 339.14 488.54 343.00 490.90 C 347.38 493.51 351.70 496.64 356.94 497.12 C 358.07 498.54 359.20 499.97 360.34 501.39 C 362.58 500.75 364.68 499.70 366.92 499.05 C 372.89 502.45 378.32 506.77 384.41 510.01 C 384.03 510.52 383.54 510.88 382.95 511.09 C 378.55 507.94 373.64 505.36 368.48 503.69 C 371.84 506.57 375.62 508.87 379.38 511.18 C 379.21 511.34 378.86 511.67 378.69 511.83 C 374.42 510.40 370.87 507.45 366.65 505.87 C 367.27 506.93 367.73 508.27 368.94 508.85 C 372.17 510.98 375.58 512.87 378.49 515.46 C 373.61 513.99 369.42 510.98 364.64 509.28 C 368.86 513.64 374.67 515.91 379.22 519.86 C 372.26 517.47 366.11 513.36 359.60 510.03 C 359.77 508.21 359.94 506.40 360.10 504.60 C 359.49 504.07 358.27 503.00 357.66 502.47 C 356.48 502.71 355.31 502.95 354.15 503.21 C 352.22 500.75 350.26 498.20 347.54 496.56 C 338.39 491.23 329.09 484.78 318.05 484.85 C 317.05 483.89 316.06 482.94 315.07 481.99 C 313.78 482.39 312.48 482.78 311.19 483.17 C 308.83 479.88 308.89 475.76 308.01 471.97 Z" />
<path fill="#000000" stroke="#000000" stroke-width="0.09375" opacity="1.00" d=" M 343.72 472.17 C 345.18 470.92 346.60 469.62 348.20 468.56 C 350.53 468.61 349.41 471.34 349.75 472.86 C 353.51 478.01 358.49 482.52 360.57 488.69 C 356.06 485.07 352.93 480.13 349.24 475.75 C 347.82 473.99 345.65 473.19 343.72 472.17 Z" />
<path fill="#000000" stroke="#000000" stroke-width="0.09375" opacity="1.00" d=" M 385.28 512.57 C 385.35 512.15 385.50 511.30 385.57 510.88 C 386.91 510.97 387.49 511.63 387.33 512.86 C 386.82 512.79 385.79 512.65 385.28 512.57 Z" />
<path fill="#000000" stroke="#000000" stroke-width="0.09375" opacity="1.00" d=" M 380.25 513.32 C 380.30 513.01 380.40 512.38 380.45 512.06 C 381.74 512.31 383.97 513.11 383.93 514.64 C 382.62 515.01 381.18 514.18 380.25 513.32 Z" />
</svg>
