<?xml version="1.0" encoding="UTF-8" ?>
<!DOCTYPE svg PUBLIC "-//W3C//DTD SVG 1.1//EN" "http://www.w3.org/Graphics/SVG/1.1/DTD/svg11.dtd">
<svg width="152pt" height="152pt" viewBox="0 0 152 152" version="1.1" xmlns="http://www.w3.org/2000/svg">
<path fill="#070808" stroke="#070808" stroke-width="0.09375" opacity="1.00" d=" M 97.58 50.66 C 100.56 46.84 107.06 48.15 109.70 51.91 C 113.86 51.26 118.93 50.30 122.34 53.48 C 126.40 58.32 134.19 58.22 136.93 64.56 C 140.91 64.79 147.70 63.17 148.25 68.88 C 148.24 75.72 148.32 82.57 148.36 89.41 C 145.23 91.63 141.14 90.92 137.95 91.13 C 134.52 99.65 140.09 108.29 141.26 116.87 C 141.60 118.85 143.15 121.18 141.17 122.75 C 139.44 112.10 132.03 102.01 135.31 90.94 C 136.74 82.99 136.90 74.66 135.19 66.75 C 134.26 62.39 129.53 61.12 126.27 58.97 C 128.45 62.50 120.75 58.17 123.88 61.64 C 126.87 66.74 120.31 60.83 118.28 59.56 C 116.10 60.35 112.93 59.50 111.74 61.97 C 112.93 63.13 114.00 64.41 114.95 65.77 C 109.44 62.05 104.19 58.09 98.61 54.43 C 95.16 52.47 90.02 49.73 86.83 53.57 C 84.93 57.03 82.79 60.42 81.65 64.24 C 85.41 65.08 85.79 63.41 84.37 60.32 C 87.38 61.18 90.32 69.64 92.29 64.30 C 92.58 70.57 91.63 76.80 91.74 83.07 C 89.17 87.09 86.40 91.03 81.85 92.96 C 80.93 91.90 80.00 90.85 79.06 89.82 C 79.36 99.13 88.09 104.89 93.92 111.10 C 99.37 114.52 101.96 120.93 101.15 127.23 C 97.78 124.50 98.21 119.12 95.16 115.90 C 88.12 108.26 77.71 102.04 76.94 90.57 C 68.81 89.43 60.81 91.51 52.91 93.20 C 43.89 95.04 36.53 102.19 26.99 101.88 C 13.81 102.52 0.82 90.47 2.41 76.97 C 0.70 62.25 15.74 49.26 29.99 51.22 C 39.12 51.62 46.00 58.93 54.90 60.20 C 56.55 60.30 57.53 61.43 56.01 62.57 C 50.41 61.07 44.96 58.95 40.00 55.92 C 31.74 51.06 20.68 51.34 12.86 56.97 C 2.26 64.30 0.05 80.89 8.12 90.86 C 14.64 99.37 27.21 102.83 36.91 97.87 C 47.17 92.30 58.61 89.02 70.21 88.04 C 71.77 81.15 71.58 74.00 70.99 67.01 C 68.27 63.13 60.11 65.90 58.86 61.45 C 64.32 62.16 69.74 63.46 75.28 63.35 C 75.24 62.79 75.18 61.66 75.15 61.09 C 75.21 57.26 80.01 56.71 82.97 57.78 C 84.50 55.44 84.97 52.10 87.74 50.86 C 90.63 48.38 94.34 50.18 97.58 50.66 M 100.29 51.54 L 98.76 51.95 C 102.55 55.02 106.80 57.45 110.62 60.49 C 111.64 58.41 116.33 60.48 115.60 58.16 C 110.41 55.83 106.63 48.99 100.29 51.54 M 111.41 52.93 C 115.45 56.34 120.51 60.24 126.07 59.52 C 122.51 55.26 117.28 51.42 111.41 52.93 M 79.52 59.75 C 74.97 58.65 76.89 66.23 80.63 64.32 C 80.80 62.31 83.09 58.66 79.52 59.75 M 71.56 66.97 C 71.99 73.71 71.62 80.52 72.74 87.20 C 74.02 86.61 75.04 85.74 75.79 84.58 C 77.12 82.64 75.49 88.36 78.31 86.97 C 78.92 86.18 79.21 82.62 80.20 85.11 C 81.23 89.14 83.82 80.33 84.26 84.00 C 84.67 88.73 86.62 82.08 89.17 81.91 C 91.57 76.62 90.33 70.89 88.43 65.69 C 83.37 65.72 78.31 66.06 73.25 66.04 C 74.73 64.56 70.01 65.55 71.56 66.97 M 137.40 66.34 C 138.40 71.97 138.73 77.70 138.49 83.42 C 137.24 83.47 138.72 86.49 138.53 87.68 C 141.81 87.17 143.66 86.94 145.42 83.95 C 144.13 80.70 148.02 77.81 144.85 75.53 C 147.78 73.64 146.79 69.16 145.62 66.36 C 142.88 66.29 140.14 66.26 137.40 66.34 Z" />
<path fill="#ddb688" stroke="#ddb688" stroke-width="0.09375" opacity="1.00" d=" M 100.29 51.54 C 106.63 48.99 110.41 55.83 115.60 58.16 C 116.33 60.48 111.64 58.41 110.62 60.49 C 106.80 57.45 102.55 55.02 98.76 51.95 L 100.29 51.54 Z" />
<path fill="#ddb688" stroke="#ddb688" stroke-width="0.09375" opacity="1.00" d=" M 86.83 53.57 C 90.02 49.73 95.16 52.47 98.61 54.43 C 104.19 58.09 109.44 62.05 114.95 65.77 C 114.00 64.41 112.93 63.13 111.74 61.97 C 112.93 59.50 116.10 60.35 118.28 59.56 C 120.31 60.83 126.87 66.74 123.88 61.64 C 120.75 58.17 128.45 62.50 126.27 58.97 C 129.53 61.12 134.26 62.39 135.19 66.75 C 136.90 74.66 136.74 82.99 135.31 90.94 C 132.03 102.01 139.44 112.10 141.17 122.75 C 132.68 122.34 124.34 121.97 115.89 123.00 C 113.32 117.36 111.63 111.38 109.09 105.74 C 103.72 96.81 106.18 85.87 106.76 76.04 C 108.22 70.02 102.62 66.08 99.63 61.68 C 101.30 61.05 103.02 60.48 104.49 59.45 C 102.18 59.53 99.97 60.21 97.79 60.92 C 93.65 59.29 89.92 56.77 86.83 53.57 Z" />
<path fill="#547782" stroke="#547782" stroke-width="0.09375" opacity="1.00" d=" M 12.86 56.97 C 20.68 51.34 31.74 51.06 40.00 55.92 C 44.96 58.95 50.41 61.07 56.01 62.57 C 57.53 61.43 56.55 60.30 54.90 60.20 C 61.24 61.54 67.91 62.39 74.51 62.74 C 74.67 62.33 74.99 61.50 75.15 61.09 C 75.18 61.66 75.24 62.79 75.28 63.35 C 69.74 63.46 64.32 62.16 58.86 61.45 C 60.11 65.90 68.27 63.13 70.99 67.01 C 71.58 74.00 71.77 81.15 70.21 88.04 C 58.61 89.02 47.17 92.30 36.91 97.87 C 27.21 102.83 14.64 99.37 8.12 90.86 C 0.05 80.89 2.26 64.30 12.86 56.97 M 26.47 62.44 C 22.80 65.02 18.17 66.60 15.41 70.22 C 15.06 74.81 15.04 79.42 14.72 84.02 C 17.56 85.73 20.33 87.56 23.13 89.34 C 25.82 87.76 30.03 87.78 26.33 91.30 C 31.64 90.31 35.55 86.22 40.38 84.07 C 40.04 79.32 41.21 74.36 39.46 69.80 C 35.05 67.73 31.19 62.50 26.47 62.44 Z" />
<path fill="#ddb688" stroke="#ddb688" stroke-width="0.09375" opacity="1.00" d=" M 111.41 52.93 C 117.28 51.42 122.51 55.26 126.07 59.52 C 120.51 60.24 115.45 56.34 111.41 52.93 Z" />
<path fill="#ffd29d" stroke="#ffd29d" stroke-width="0.09375" opacity="1.00" d=" M 86.83 53.57 C 89.92 56.77 93.65 59.29 97.79 60.92 C 98.25 61.11 99.17 61.49 99.63 61.68 C 102.62 66.08 108.22 70.02 106.76 76.04 C 106.18 85.87 103.72 96.81 109.09 105.74 C 111.63 111.38 113.32 117.36 115.89 123.00 C 110.72 123.65 105.76 124.75 101.15 127.23 C 101.96 120.93 99.37 114.52 93.92 111.10 C 88.09 104.89 79.36 99.13 79.06 89.82 C 80.00 90.85 80.93 91.90 81.85 92.96 C 86.40 91.03 89.17 87.09 91.74 83.07 C 91.63 76.80 92.58 70.57 92.29 64.30 C 90.32 69.64 87.38 61.18 84.37 60.32 C 85.79 63.41 85.41 65.08 81.65 64.24 C 82.79 60.42 84.93 57.03 86.83 53.57 Z" />
<path fill="#ffd29d" stroke="#ffd29d" stroke-width="0.09375" opacity="1.00" d=" M 79.52 59.75 C 83.09 58.66 80.80 62.31 80.63 64.32 C 76.89 66.23 74.97 58.65 79.52 59.75 Z" />
<path fill="#070808" stroke="#070808" stroke-width="0.09375" opacity="1.00" d=" M 97.79 60.92 C 99.97 60.21 102.18 59.53 104.49 59.45 C 103.02 60.48 101.30 61.05 99.63 61.68 C 99.17 61.49 98.25 61.11 97.79 60.92 Z" />
<path fill="#070808" stroke="#070808" stroke-width="0.09375" opacity="1.00" d=" M 26.47 62.44 C 31.19 62.50 35.05 67.73 39.46 69.80 C 41.21 74.36 40.04 79.32 40.38 84.07 C 35.55 86.22 31.64 90.31 26.33 91.30 C 30.03 87.78 25.82 87.76 23.13 89.34 C 20.33 87.56 17.56 85.73 14.72 84.02 C 15.04 79.42 15.06 74.81 15.41 70.22 C 18.17 66.60 22.80 65.02 26.47 62.44 M 27.21 63.75 C 27.00 64.17 26.57 65.02 26.36 65.44 C 20.82 66.29 15.36 70.93 16.22 77.00 C 15.64 86.97 31.36 91.03 35.79 82.23 C 37.10 81.74 37.12 83.33 37.90 83.91 C 38.69 82.50 39.47 80.45 37.58 79.59 C 37.78 77.78 39.98 72.39 37.74 72.61 C 35.71 68.72 32.01 65.60 27.50 65.32 C 27.43 64.93 27.28 64.14 27.21 63.75 Z" />
<path fill="#7fb4c5" stroke="#7fb4c5" stroke-width="0.09375" opacity="1.00" d=" M 27.21 63.75 C 27.28 64.14 27.43 64.93 27.50 65.32 C 32.01 65.60 35.71 68.72 37.74 72.61 C 39.98 72.39 37.78 77.78 37.58 79.59 C 39.47 80.45 38.69 82.50 37.90 83.91 C 37.12 83.33 37.10 81.74 35.79 82.23 C 31.36 91.03 15.64 86.97 16.22 77.00 C 15.36 70.93 20.82 66.29 26.36 65.44 C 26.57 65.02 27.00 64.17 27.21 63.75 M 20.49 75.03 C 19.60 78.94 23.17 82.68 26.99 82.79 C 31.51 83.97 21.28 79.67 27.09 81.29 C 28.68 81.94 29.71 81.45 30.18 79.82 C 33.09 80.93 34.49 76.28 32.70 74.96 C 33.44 73.40 31.78 70.68 29.98 71.14 C 29.96 70.93 29.92 70.51 29.90 70.29 C 26.22 68.53 21.12 70.84 20.49 75.03 Z" />
<path fill="#547782" stroke="#547782" stroke-width="0.09375" opacity="1.00" d=" M 71.56 66.97 C 70.01 65.55 74.73 64.56 73.25 66.04 C 72.01 70.38 73.24 75.07 73.10 79.55 C 77.09 78.91 81.28 78.68 84.98 76.89 C 88.65 74.48 88.15 69.51 88.43 65.69 C 90.33 70.89 91.57 76.62 89.17 81.91 C 86.62 82.08 84.67 88.73 84.26 84.00 C 83.82 80.33 81.23 89.14 80.20 85.11 C 79.21 82.62 78.92 86.18 78.31 86.97 C 75.49 88.36 77.12 82.64 75.79 84.58 C 75.04 85.74 74.02 86.61 72.74 87.20 C 71.62 80.52 71.99 73.71 71.56 66.97 Z" />
<path fill="#7fb4c5" stroke="#7fb4c5" stroke-width="0.09375" opacity="1.00" d=" M 73.10 79.55 C 73.24 75.07 72.01 70.38 73.25 66.04 C 78.31 66.06 83.37 65.72 88.43 65.69 C 88.15 69.51 88.65 74.48 84.98 76.89 C 81.28 78.68 77.09 78.91 73.10 79.55 Z" />
<path fill="#7fb4c5" stroke="#7fb4c5" stroke-width="0.09375" opacity="1.00" d=" M 137.40 66.34 C 140.14 66.26 142.88 66.29 145.62 66.36 C 143.92 71.48 143.47 76.88 143.26 82.23 C 141.70 82.82 140.22 84.24 138.49 83.42 C 138.73 77.70 138.40 71.97 137.40 66.34 Z" />
<path fill="#547782" stroke="#547782" stroke-width="0.09375" opacity="1.00" d=" M 145.62 66.36 C 146.79 69.16 147.78 73.64 144.85 75.53 C 148.02 77.81 144.13 80.70 145.42 83.95 C 143.66 86.94 141.81 87.17 138.53 87.68 C 138.72 86.49 137.24 83.47 138.49 83.42 C 140.22 84.24 141.70 82.82 143.26 82.23 C 143.47 76.88 143.92 71.48 145.62 66.36 Z" />
<path fill="#070808" stroke="#070808" stroke-width="0.09375" opacity="1.00" d=" M 20.49 75.03 C 21.12 70.84 26.22 68.53 29.90 70.29 C 26.85 70.95 22.39 71.16 21.67 74.99 C 21.97 76.78 20.10 80.69 23.82 79.74 C 21.47 72.95 26.95 84.22 28.53 79.52 C 31.91 77.23 29.57 73.51 27.13 71.62 C 31.17 72.62 31.33 76.47 30.18 79.82 C 29.71 81.45 28.68 81.94 27.09 81.29 C 21.28 79.67 31.51 83.97 26.99 82.79 C 23.17 82.68 19.60 78.94 20.49 75.03 Z" />
<path fill="#547782" stroke="#547782" stroke-width="0.09375" opacity="1.00" d=" M 29.90 70.29 C 29.92 70.51 29.96 70.93 29.98 71.14 C 29.61 72.67 31.62 74.00 32.70 74.96 C 34.49 76.28 33.09 80.93 30.18 79.82 C 31.33 76.47 31.17 72.62 27.13 71.62 C 29.57 73.51 31.91 77.23 28.53 79.52 C 26.95 84.22 21.47 72.95 23.82 79.74 C 20.10 80.69 21.97 76.78 21.67 74.99 C 22.39 71.16 26.85 70.95 29.90 70.29 Z" />
<path fill="#070808" stroke="#070808" stroke-width="0.09375" opacity="1.00" d=" M 29.98 71.14 C 31.78 70.68 33.44 73.40 32.70 74.96 C 31.62 74.00 29.61 72.67 29.98 71.14 Z" />
</svg>
