<?xml version="1.0" encoding="UTF-8" ?>
<!DOCTYPE svg PUBLIC "-//W3C//DTD SVG 1.1//EN" "http://www.w3.org/Graphics/SVG/1.1/DTD/svg11.dtd">
<svg width="617pt" height="617pt" viewBox="0 0 617 617" version="1.1" xmlns="http://www.w3.org/2000/svg">
<path fill="#999999" stroke="#999999" stroke-width="0.09375" opacity="1.00" d=" M 93.27 144.46 C 110.26 144.40 127.27 144.33 144.26 144.49 C 144.48 150.60 144.20 156.72 144.36 162.83 C 155.41 157.92 166.67 152.93 178.75 151.30 C 199.07 148.40 219.39 153.20 238.82 158.80 C 239.17 154.04 238.89 149.27 239.05 144.50 C 256.10 144.38 273.17 144.35 290.23 144.52 C 290.33 157.75 290.48 171.00 290.15 184.23 C 264.49 167.47 235.42 155.68 204.95 151.71 C 189.80 150.59 174.11 150.70 159.90 156.80 C 134.67 165.70 111.75 180.67 93.14 199.85 C 93.30 181.39 93.05 162.92 93.27 144.46 Z" />
<path fill="#999999" stroke="#999999" stroke-width="0.09375" opacity="1.00" d=" M 307.91 144.47 C 327.17 144.36 346.43 144.39 365.69 144.45 C 384.78 211.59 403.74 278.80 422.21 346.13 C 402.42 339.04 386.32 324.29 376.04 306.11 C 359.69 279.98 348.85 250.78 331.97 224.96 C 324.63 197.94 315.56 171.40 307.91 144.47 Z" />
<path fill="#999999" stroke="#999999" stroke-width="0.09375" opacity="1.00" d=" M 486.43 144.46 C 504.56 144.36 522.70 144.39 540.83 144.45 C 519.16 215.93 496.90 287.25 475.28 358.74 C 459.56 357.54 443.96 354.13 429.08 348.88 C 447.09 280.45 467.18 212.55 486.43 144.46 Z" />
<path fill="#000000" stroke="#000000" stroke-width="0.09375" opacity="1.00" d=" M 159.90 156.80 C 174.11 150.70 189.80 150.59 204.95 151.71 C 235.42 155.68 264.49 167.47 290.15 184.23 C 305.75 195.92 321.21 208.44 331.97 224.96 C 348.85 250.78 359.69 279.98 376.04 306.11 C 386.32 324.29 402.42 339.04 422.21 346.13 C 424.50 347.06 426.78 347.99 429.08 348.88 C 443.96 354.13 459.56 357.54 475.28 358.74 C 498.43 361.29 523.48 359.00 542.87 344.91 C 565.90 329.72 580.57 305.79 595.11 283.10 C 594.03 289.55 590.74 295.31 588.19 301.25 C 576.46 325.19 560.22 347.92 537.40 362.39 C 517.25 375.18 492.62 378.20 469.22 377.61 C 434.45 377.70 397.43 370.32 369.86 347.89 C 336.67 317.27 318.04 275.11 290.24 240.11 C 276.94 221.63 258.74 207.20 239.07 196.00 C 223.59 187.38 206.77 180.37 189.02 178.51 C 173.52 176.89 158.50 182.23 144.35 187.90 C 125.18 196.01 107.79 208.00 92.68 222.25 C 66.26 246.76 45.81 276.87 27.89 307.93 C 26.29 310.55 24.96 313.50 22.38 315.34 C 23.85 308.27 27.38 301.84 30.18 295.24 C 46.28 260.63 65.98 227.00 93.14 199.85 C 111.75 180.67 134.67 165.70 159.90 156.80 Z" />
<path fill="#999999" stroke="#999999" stroke-width="0.09375" opacity="1.00" d=" M 92.68 222.25 C 107.79 208.00 125.18 196.01 144.35 187.90 C 144.27 230.27 144.34 272.64 144.31 315.00 C 144.29 328.37 144.48 342.36 150.15 354.74 C 155.32 366.17 166.57 374.29 178.90 376.17 C 193.35 378.16 209.82 378.17 222.02 369.05 C 235.39 358.40 238.24 340.13 238.95 324.07 C 239.11 281.38 238.87 238.69 239.07 196.00 C 258.74 207.20 276.94 221.63 290.24 240.11 C 290.45 264.37 290.23 288.71 290.32 313.00 C 290.62 342.27 283.85 373.96 261.85 394.83 C 238.72 416.91 204.57 421.72 173.90 418.84 C 151.77 417.00 128.68 409.54 113.68 392.35 C 99.23 376.24 94.56 354.04 93.34 333.03 C 92.65 296.12 93.95 259.13 92.68 222.25 Z" />
<path fill="#999999" stroke="#999999" stroke-width="0.09375" opacity="1.00" d=" M 369.86 347.89 C 397.43 370.32 434.45 377.70 469.22 377.61 C 465.67 390.07 461.84 402.46 457.83 414.77 C 435.35 414.82 412.85 414.90 390.37 414.73 C 383.33 392.52 376.72 370.16 369.86 347.89 Z" />
</svg>
