<?xml version="1.0" encoding="utf-8"?>
<!-- Generator: Adobe Illustrator 22.1.0, SVG Export Plug-In . SVG Version: 6.00 Build 0)  -->
<svg version="1.1" id="Layer_1" xmlns="http://www.w3.org/2000/svg" xmlns:xlink="http://www.w3.org/1999/xlink" x="0px" y="0px"
	 viewBox="0 0 640 931" style="enable-background:new 0 0 640 931;" xml:space="preserve">
<style type="text/css">
	.st0{fill:#6C584A;stroke:#6C584A;stroke-width:9.375000e-02;}
	.st1{fill:#CCA799;stroke:#CCA799;stroke-width:9.375000e-02;}
	.st2{fill:#B17358;stroke:#B17358;stroke-width:9.375000e-02;}
	.st3{fill:#996B55;stroke:#996B55;stroke-width:9.375000e-02;}
	.st4{fill:#393634;stroke:#393634;stroke-width:9.375000e-02;}
	.st5{fill:#796555;stroke:#796555;stroke-width:9.375000e-02;}
	.st6{fill:#9A8775;stroke:#9A8775;stroke-width:9.375000e-02;}
	.st7{fill:#171514;stroke:#171514;stroke-width:9.375000e-02;}
	.st8{fill:#887665;stroke:#887665;stroke-width:9.375000e-02;}
	.st9{fill:#5D4F44;stroke:#5D4F44;stroke-width:9.375000e-02;}
	.st10{fill:#252323;stroke:#252323;stroke-width:9.375000e-02;}
	.st11{fill:#0C0B0A;stroke:#0C0B0A;stroke-width:9.375000e-02;}
	.st12{fill:#757372;stroke:#757372;stroke-width:9.375000e-02;}
	.st13{fill:#66605C;stroke:#66605C;stroke-width:9.375000e-02;}
	.st14{fill:#89847E;stroke:#89847E;stroke-width:9.375000e-02;}
	.st15{fill:#F6D8C9;stroke:#F6D8C9;stroke-width:9.375000e-02;}
	.st16{fill:#E8C4B3;stroke:#E8C4B3;stroke-width:9.375000e-02;}
	.st17{fill:#AB9583;stroke:#AB9583;stroke-width:9.375000e-02;}
	.st18{fill:#D3CEC8;stroke:#D3CEC8;stroke-width:9.375000e-02;}
</style>
<path class="st0" d="M336,73.9c5.7-0.8,11.4-2.8,17.1-2c-5.4,2.3-11.5,2.1-17.1,3.8c-2.4,1.1-4.6,2.3-6.9,3.5
	C333.1,73.7,333.1,74.8,336,73.9"/>
<path class="st1" d="M599.3,8.4c0.8-2.8,4.9-4.5,6.9-1.9c-2.2,4.6-5.9,9.6-4,14.9c0.1,2.8,2.4,7.5-1.8,8.3c-2.4,3.1-1.5,6.8-3.9,6.8
	c5.5,0.8,1.8,9.3,8.1,9.3c0.2-4.1,0-8.1,0-12.2c4.6-7.1-1-17.7,6.2-23.2c4.2-0.5,4.7,3,3.3,6.2c-3.6,4.2-0.8,10.8-1.8,15.7
	c-4.5,4.9-2.9,15.3,2.6,18.3c3-5.5,4.2-16.5,5.1-24.3c0.3-0.6,0.9-1.7,1.3-2.3c2.1-1.4,6.6-0.3,4.7,2.8c-2.9,5.1,1.5,12.8-3.9,16.4
	c-4.3,2.8,0.2,8.7-1.2,12.8c-0.5,3.4-4,1-5.9,0.5c0.2,4.3-2.1,8.9,0.6,12.8c-3,9.5-1.7,24.1-14.4,25.7c-0.4-0.2-1.2-0.7-1.6-0.9
	c-4.4-3.2-10-3.4-15.2-2.6c-3.8-2.5-7.5-5.3-11.9-6.5c-1.4-2.8-2.9-5.4-4.5-8.1c-0.9-1.9-1.9-3.9-2.8-5.8c-0.1-3.5,0-7.1-2.1-10.1
	c0.5-1.4-0.2-4.3,2.2-3.6c8,0.5,4.4,13.6,12.7,14.3c4,1.2,3.8-5.3,5.5-7.8c1.2-2.7,0.8-5.7,0.7-8.6c1.5-9-1.7-18.1,0.9-27
	c0.4-5.2,0.6-15.8,8.3-13.5c-4.6,8.6,2.2,20-5.9,27.2c6.2-3.1,3.7,6.5,7.3,8.1c1.1-6.6-1.9-13.1-1.1-19.7
	C597.3,23.5,596.4,15.4,599.3,8.4z"/>
<path class="st2" d="M602.2,21.5c-1.9-5.3,1.8-10.3,4-14.9c1.2,10.8-2.8,22.7-2.9,34c1-0.3-0.2-5,1.4-6.8c-0.1,4.1,0.2,8.1,0,12.2
	c-6.3,0-2.6-8.5-8.1-9.3c2.4,0,1.5-3.7,3.9-6.8C604.7,29,602.4,24.3,602.2,21.5z"/>
<path class="st3" d="M593.2,14.6c3.8,4.5-1.1,10.4,0.3,15.6c-0.8,6.6,2.2,13.1,1.1,19.7c-3.6-1.6-1.1-11.2-7.3-8.1
	C595.4,34.6,588.6,23.2,593.2,14.6z"/>
<path class="st4" d="M615.5,22.1c0.7-2-1.2-8.3,1.9-6.3c-0.7,2.7-0.3,5,2.4,2.5c0.1,2.6,0.2,5.3,0.2,7.9c-0.9,7.8-2.1,18.8-5.1,24.3
	C613.7,41.1,614.7,31.6,615.5,22.1z"/>
<path class="st2" d="M612.3,32.3c1-4.9-1.8-11.5,1.8-15.7c0.5,1.8,0.9,3.7,1.3,5.5c-0.8,9.5-1.8,19-0.6,28.5
	C609.4,47.7,607.8,37.3,612.3,32.3z"/>
<path class="st5" d="M621.2,24c-0.4-6.4,9.7-5.7,8,0.9c-2.1,6.7-1,14.7-4.6,21.2c2.2,10.5,3.8,20.9,2.5,31.6c-0.5,3.1-1,6.2-2,9.2
	c-4.5,7.6-10.8,13.7-18.1,18.6c-0.4-1.1-0.8-2.3-1.1-3.4l0.2-0.7c4.6-2.6,9-6,8.5-11.9c0.7-4.3,4.6,1.4,6.2-1.7
	c2.9-5.3,5.4-15.5-1.6-17.9c-0.8-2.9-1.3-5.8-1.6-8.8c1.3-2.1,6,0.1,5.8-3.1c-1.4-4.8-1.8-9.8-1.3-14.9c5.5-3.5,1-11.3,3.9-16.4
	C627.8,23.7,623.3,22.5,621.2,24z"/>
<path class="st6" d="M620.8,55.9c1.4-4.1-3.2-10,1.2-12.8c-0.5,5-0.1,10,1.3,14.9c0.3,3.2-4.4,1-5.8,3.1c0.3,2.9,0.9,5.9,1.6,8.8
	c7,2.4,4.5,12.6,1.6,17.9c-1.6,3.1-5.5-2.6-6.2,1.7c0.5,5.9-4,9.3-8.5,11.9c-1.6-2.3-3.2-4.4-5.1-6.5c12.7-1.6,11.4-16.1,14.4-25.7
	c-2.7-3.8-0.4-8.4-0.6-12.8C616.8,56.9,620.3,59.3,620.8,55.9z"/>
<path class="st1" d="M303.5,56c1.3-1.3,3-2,4.7-1.1c-3.9,12.5-3.1,26.2-10,37.6c-1.1-0.6-2.2-1.1-3.3-1.6
	C296.2,78.9,301.3,67.8,303.5,56z"/>
<path class="st2" d="M308.2,54.9c0.5,0.3,1.5,0.9,2,1.3c0.4,6.8-3.2,13.2-2.6,20c-2.8,6.1-2.5,13.2-6,19c-0.3,0.1-1,0.3-1.3,0.5
	c-0.6-1.1-1.3-2.1-2.1-3.1C305.1,81.1,304.3,67.4,308.2,54.9z"/>
<path class="st1" d="M315,59.5c0.6,0.3,1.7,1,2.2,1.3c-0.1,6.2-5.4,10.8-4.1,17.2c-4.2,5.5-2,16.1-8.2,18.6
	c-1.1-0.4-2.2-0.9-3.3-1.5c3.5-5.8,3.2-12.9,6-19C309.2,70.3,310.6,63.9,315,59.5z"/>
<path class="st2" d="M317.3,60.8c1.9,12.4-4.8,26.2-7.2,38.1c-1.4-0.8-2.9-1.4-4.4-2l-0.8-0.4c6.3-2.5,4-13.1,8.2-18.6
	C311.8,71.6,317.2,67,317.3,60.8z"/>
<path class="st1" d="M293.8,63.8c1.8-4.8,7,0.5,3.3,3.1c0.6,5.1-1.2,10.7-2.5,15.9c-0.9,2.9-1.6,7.4-5.7,6.5l-1-0.3
	C289.2,80.4,291.6,72.1,293.8,63.8z"/>
<path class="st7" d="M317.3,60.8c3.8,6.3,0.2,15,2.4,21.4c1.8,4.7-1.4,9.2-1.8,13.8c-1.1,3.6-3.2,8.2,0.7,10.8
	c4.4,8.3,15.4,4.9,20.9,11.8c-2,0.9-7.1,0.4-3.9,3.4c-5.7,5.6-12.7,9.7-19.2,14.4c-14.2,6.2-26.4,18.3-39.2,27.7
	c-6.1,2.8-6.5,12.3-14,13.1c-3.8,1.7-7.5,0.1-11.1-1.2c-3.2,1.5-3.7,5.9-6.4,8.2c-4.1-1.2-8.2-2.7-11.8-4.9
	c5.9-10.1,19.2-5.8,28.8-7.8c2.8-1.8,3.6,5.6,4.5,1.5c9.1-15.3,26.3-23,38.9-35c2.7-3.7-4-3.5-6-5.1c1.3-1.5,2.8-2.8,3.7-4.6
	c-4.9-1.5-9.9-2-14.9-3c12.4,0.1,24.1-4.5,35.9-8.7c-11-2.8-22.8-4.1-34.2-4.8c0.8-0.8,1.1-2.1-0.1-2.8c3.8,1.6,7.9-1.5,1.7-1.7
	c3.7-4.3,7.9-8.6,13.6-10.5c1.5,0.6,3,1.2,4.4,2"/>
<path class="st4" d="M353,68.2c7.2-1.1,14.8,0.3,21.6,2.8c3.2,1.9,6.4,3.8,9.5,5.9c2.7,3.4,6.2,6.1,8.2,10c-1.9-1.4-8.1-6.3-4.9-1.3
	c6.8,5.2,3.8,13.4,6.3,20.5c1.8,4.8-1.9,12.3,4.4,14.5c-5.1,1.1-10.5,3.7-14.9-0.6l0.6-0.1c2.3,0.3,1.9-2.4,2.6-3.8
	c0.3-2.8,4.9-3.1,4.1-6.2c2.2-5.9-8.8-6.8-5-12c-2.2-4-0.3-8.4-1-12.6c-4.5-6.3-10.4-12.1-18.7-12.6c-4.1-1.4-8.4-1.7-12.6-1
	c-5.8-0.8-11.4,1.2-17.1,2C341.2,70.7,347.2,69.8,353,68.2z"/>
<path class="st5" d="M353.1,71.9c4.2-0.8,8.6-0.4,12.6,1c1.9,2.2,4.4,3.9,6.9,5.3c1.4,1.8,2.8,3.6,4.1,5.4c-7,1.9-6,11.2-3.4,16.3
	c-2,2.9-6.8,4.4-5.6,9.1c-6-3.8-8.8-11.3-7-18.2c4.9,0.7,1.9-5.7,2.9-8.6C360.6,78.5,357.8,74.3,353.1,71.9z"/>
<path class="st8" d="M336,75.7c5.5-1.7,11.6-1.5,17.1-3.8c4.6,2.4,7.4,6.6,10.5,10.2c-1,2.9,2,9.3-2.9,8.6c-1.8,6.9,1,14.4,7,18.2
	c0.4,1.3,0.8,2.7,1.2,4c-4.3-1.3-8.6-2.3-13-3.2c4-1.9-2.1-6.5,0.1-9.6c2.7-3.7,0.2-10.1-4.9-8.6c0.6-3.4,2.1-6.7,0.8-10.2
	c2.4,2.7,5,1.3,5.4-2.1c-2.5-2.9-7.2-3.9-10.6-2.5c-1.4,1.9-6.6,3.6-5.1-0.3C339.8,77.9,337.9,76.2,336,75.7z"/>
<path class="st9" d="M365.8,72.9c8.2,0.5,14.1,6.3,18.7,12.6c0.7,4.2-1.2,8.6,1,12.6c-3.9,5.1,7.2,6.1,5,12c-0.6,0-1.7,0.1-2.2,0.1
	l-0.9-0.1c-2.4-2.3-4.9-1.2-7.4,0.2c-3.5-0.3-5.6-5.6-2.6-8c0.9-4.1-6-9.4-0.7-12.8c5.3-3.6,2.3-11.2-3.9-11.3
	C370.1,76.7,367.7,75.1,365.8,72.9z"/>
<path class="st1" d="M281.4,78.1c5.2-5.6,6.5,10.3,0.5,9.7l-1-0.1C280.7,84.4,281.5,81.3,281.4,78.1z"/>
<path class="st6" d="M329.1,79.1c2.3-1.2,4.6-2.4,6.9-3.5c1.9,0.6,3.7,2.2,5.7,0.8c-1.5,3.9,3.8,2.2,5.1,0.3
	c3.4-1.5,8.1-0.4,10.6,2.5c-0.4,3.3-3,4.8-5.4,2.1c1.3,3.6-0.2,6.8-0.8,10.2c5.1-1.5,7.6,4.8,4.9,8.6c-2.2,3.1,3.9,7.7-0.1,9.6
	c-1.1,0.4-2.1,0.8-3.2,1.3c-1.4-4.4-1.1-9-0.9-13.5c-7.3-2.1-10.6,5.5-15.7,8.4c1.5-3.5-0.5-7.5,2.8-10.1c-2.5-1.5-5.1-2.8-6.8-5.3
	c-3.7,2.9-4.3,8.3-10.1,8.4c0.3,2.8-3.6,4.7-3.5,8c-3.9-2.7-1.9-7.2-0.7-10.8C322.5,91,324.2,84,329.1,79.1z"/>
<path class="st0" d="M372.7,78.2c6.2,0,9.2,7.7,3.9,11.3c-5.3,3.5,1.6,8.7,0.7,12.8c-3,2.4-0.8,7.8,2.6,8c2.5-1.4,5-2.5,7.4-0.2
	c-1.1,0.7-2.1,1.3-3.2,2.1c-4.4-1.4-9.5-1.9-13.1,1.7c-0.5-0.2-1.5-0.6-2-0.8c-0.4-1.3-0.8-2.7-1.2-4c-1.2-4.7,3.6-6.2,5.6-9.1
	c-2.6-5.1-3.6-14.5,3.4-16.3C375.5,81.7,374.1,79.9,372.7,78.2z"/>
<path class="st10" d="M387.3,85.7c-3.2-5,3-0.1,4.9,1.3c1.5,2.2,2.7,4.6,4.3,6.8c0.8,2,1.5,4.1,2.3,6.2c0.8,7.1,0.7,14.3,0.8,21.4
	c3.9,2.7,9.4-2,12.7,1.7c-4.2,2.1-7.9,5-11.4,8.1c-2.9-5.4-7.9-0.8-11.1-4.9c-5.8-0.3-7.9,6.5-13,7.7c-0.3-3.9,4.7-5.2,5-8.7
	c-2.2-3.1-5.1-5.7-8-8c2.3,0.2,4.7,0.4,7,0.8c0.7,0.8,1.4,1.5,2.2,2.2c4.4,4.3,9.8,1.7,14.9,0.6c-6.3-2.2-2.6-9.7-4.4-14.5
	C391.1,99.1,394.1,90.8,387.3,85.7z"/>
<path class="st6" d="M572.3,84.8c4.4,1.2,8.1,3.9,11.9,6.5c-1.6,0.7-3.2,1.4-4.8,1.9c-1.5-3.3-5.1-4.4-7.1-7.1L572.3,84.8z"/>
<path class="st7" d="M270.9,89.7c1.8-2.8,5.1-2.7,8-2.6c0.5,0.1,1.4,0.4,1.8,0.6l1,0.1c2,0.2,4.1,0.4,6,1.1l1,0.3
	c2,0.7,4.1,1.1,6.1,1.6c1.1,0.5,2.2,1.1,3.3,1.6c0.8,0.9,1.4,2,2.1,3.1c-2.1,0.8-4.1,2.1-5.6,3.8c-7-3.1-13.9,2.9-20.8,3.9
	c-2.8-2.5-6.2,3.3-2.7,4.7c3.6-0.4,7.4-0.8,10.8-2.4c0.9,8.7-9.8,3.3-14.7,5.3c2.8-5.3,0.8-12,4.8-16.7
	C273.5,92.7,271.3,91.1,270.9,89.7z"/>
<path class="st10" d="M263.7,108.9c4.3-5.6,2.7-13.8,7.2-19.2c0.4,1.4,2.5,3,1.1,4.4c-4,4.7-2.1,11.4-4.8,16.7
	c5-2,15.6,3.4,14.7-5.3c-3.3,1.6-7.1,2-10.8,2.4c-3.5-1.5-0.1-7.2,2.7-4.7c6.8-1,13.7-7,20.8-3.9c1.6-1.7,3.5-2.9,5.6-3.8
	c0.3-0.1,1-0.3,1.3-0.5c1,0.6,2.1,1.1,3.3,1.5l0.8,0.4c-5.7,1.9-9.9,6.2-13.6,10.5c6.2,0.2,2.1,3.3-1.7,1.7c1.3,0.6,0.9,1.9,0.1,2.8
	c11.4,0.7,23.3,1.9,34.2,4.8c-11.7,4.2-23.4,8.8-35.9,8.7c5,0.9,10,1.4,14.9,3c-0.9,1.8-2.4,3.2-3.7,4.6c2,1.7,8.7,1.4,6,5.1
	c-12.6,12-29.8,19.7-38.9,35c-1,4.1-1.8-3.3-4.5-1.5c-9.6,2-22.9-2.3-28.8,7.8c-2.5-1.3-5-2.7-7.7-3.6c-1.7-0.7-3.4-1.2-5.1-1.9
	c-1.7-4.4,16.8,7.8,8.5-2l-0.7-1.1c3-1.2,5.7,0.2,8.1,1.9c5.6-0.6,10.3-3.9,15.1-6.6c-2.2-1.5-0.5-3.5,0.3-5.2
	c-0.7-2.6-6-0.4-4.9-3.8c1.6-2.8,1.5-7.5,5.8-7.1c9.7-3.8,21-10.4,19.8-22.7c-9,1.3-17.2,6.5-26.2,8.2c-3.1-1-8.8-1.9-7.5-6.4
	c2.6-4.3,11.7-1.5,12.8-7.4c-3,0.3-6.1,0.8-9.1,0.9c2.9-2.8,10.8-2.7,10-7.4c-4.2-0.4-1.3-2.2,0.6-3.6
	C256.9,110.7,260.4,110.1,263.7,108.9z"/>
<path class="st1" d="M332.2,90.6c1.7,2.5,4.3,3.8,6.8,5.3c-3.3,2.7-1.3,6.7-2.8,10.1c5.1-2.9,8.4-10.5,15.7-8.4
	c-0.2,4.5-0.5,9.1,0.9,13.5c-4.8,2-8.2,6.9-13.4,7.7c-5.5-6.9-16.5-3.5-20.9-11.8c-0.1-3.3,3.8-5.1,3.5-8
	C327.9,98.9,328.5,93.5,332.2,90.6z"/>
<path class="st9" d="M584.2,91.3c5.2-0.7,10.8-0.6,15.2,2.6c-0.2,0.6-0.6,1.9-0.8,2.6c-6.6-0.4-13,3.1-19.6,0.7
	c-1.4-0.8-2.8-1.5-4.2-2.4l-0.7-0.5c1.8-0.3,3.6-0.6,5.4-1.2C581,92.7,582.6,91.9,584.2,91.3z"/>
<path class="st10" d="M556.3,96.3c5.2-3.1,12.2-5.9,17.7-1.9l0.7,0.5c-9.5,6.9-21.4,1.9-31.7,7.2c-8.2,1.4-21-0.5-25,8.7
	c-3.8-1.8-8.5-3-11.4,1c-2.8,3.4-15.7-1.5-8.9,4.3c-7.1,2.7,2.3,12.9-4.4,15.9c0.6-5.7-2.4-14.6-9.4-13.9c-3.4-0.2-2.1,4.6-4.2,5.9
	c-4.7-3.1-9.8,1.8-13.7-3.8c1.6-0.5,3.1-1.1,4.6-1.7c2.5-1,5-1.9,7.6-2.6c16.6-3,32-11.2,48.7-14.5
	C536.5,98.4,546.6,97.9,556.3,96.3z"/>
<path class="st4" d="M599.4,93.9c0.4,0.2,1.2,0.7,1.6,0.9c1.8,2,3.5,4.2,5.1,6.5l-0.2,0.7c-6.6,3-15.1,8.8-21.9,3
	c-0.6-1-1.3-1.9-1.9-2.9c-1-1.6-2-3.3-3.1-5c6.6,2.4,13-1.1,19.6-0.7C598.8,95.8,599.2,94.6,599.4,93.9z"/>
<path class="st7" d="M574.8,94.8c1.4,0.8,2.8,1.6,4.2,2.4c1.1,1.6,2,3.3,3.1,5c-3.8-0.6-6.3,1.2-8.2,3.8c-5.6-2.8-11,1.1-16.7,0.3
	c-5.3,1.8-9.6,6-15.5,6.3c-2,4.3-6.8,5.9-10.3,8.8c-5.9,1.9-4.8,10.4-10.5,12.6c-3-0.5-5.9-4.6-9.1-2.2c-5.7,5.3-4.2,13.9-7.1,20.5
	l0.5,0.7c-1.7,0.3-3.4,0.6-5,1c-2-1-3.4-2.4-1.7-4.4c2.2-8.6,7.3-18.3,1.7-26.7c-0.1-1.8-3.6-4.4-2.8-1c2.1,9.1-5.6,15.9-10.6,22.4
	c-2.3-4.9,1.2-10.4,4.1-14.4c1.1-4.4-4.4-6.1-7.4-7.7c-0.1,4.1,0.1,8.8-3.3,11.8c-1.3-2-1.8-4.8-4.2-5.8c-1.6,3.8,4.6,8.7-0.3,10.7
	c-4.9,2-6,7.9-10.8,10.2c0.1-6.3,3.1-14.1-1.3-19.5c-3.5,1.3-5.6-0.8-6.3-4.2c-4.1,5.2-5.5,12.2-10.4,16.8c-4,2.6,4.8,8.7-1.1,8
	c-3.5,1.6-0.7-4.2-4-4c-3.8,0.1-2.6-6-5.9-5.9c-6.6,3.6-9.1,11.1-11.6,17.7c14.2,1.5,29.2-0.3,43.4,3.2c-2.8,3.3-7.1,4.7-9.9,7.9
	c8.8-0.2,16.9-4.4,25.3-6.9c-11,8.4-26.5,8.9-37.2,17.7c21.4-1.3,42.3-10.1,60.4-21.3c3.1-1.1,6.4-6.1,1.4-6.9
	c12.9-1.6,24.8-7.2,37.3-10.3c14-2.4,28.1-5.7,40.8-12.3c3.7-4.4,1.5-10.8,1-16c5.9,5.3,14.3-3.3,19.5,0
	c-4.8,7.1-5.3,17.6-13.8,21.6c-5.1,3.2-11.3-1.2-15.9,3.1c-3.3,1.3-6.7,2.6-9.8,4.3c-7.4,4-14.4,8.8-22.4,11.9
	c-12.6,6.4-25.8,11.3-38.8,16.9c-8.4,2.8-16.5,6.4-24.5,10.2c-2.8,1-5.4,2.4-7.9,4c-15.4,6.6-31.5,11.6-47.8,15.4
	c-2.5,1-5,2.3-7.4,3.5c-6.5,1.9-11.9,6.1-18.2,8.6c-4.4,4-10.1,4.9-15.7,6.2c-22.4,9.1-45.8,15.5-69.4,20.7
	c-2.2,0.5-7.9,2.6-3.1,3.9c-4.3,2.1-9.5,2.5-13.2,5.6c-3.1,3.5-4,3.6-2.1-1c-5.1-1.1-9.9,3.1-15.1,1.4c-3.6-0.4-7.3-0.3-10.9-0.5
	c5.4-2.9,11.4-4.2,17-6.6c5.6-2.2,13.4-1.6,17.3-6.2c0.8,1.1,1,3.5,2.8,3.1c19.7-3.6,39.2-8.6,57-18.1c7.5-3.9,16.1-5.9,23-11
	c1.9-0.8,1.6-4.8-0.8-3.9c-8.1,1.3-14.4,7.2-22.2,9.4c-15.1,6.1-31.1,9.7-47.2,11.3c6-9.1,19.2-6.1,28.5-9.9
	c10.6-4.6,20.9-9.6,31.2-14.8c4.4-2.1,7.7-6.1,8.1-11c5.6-0.5,11.5-1.3,16-4.3c1.1-9.8,11.6-14.3,17.6-21c2.3-1.2,8.9-5.7,4.2-6.8
	c-2.9-0.3-5.7,0.2-8.4,0.8c-1.5-4.5,4.5-6.5,6.4-9.8c4.9-7.8,15.3-16.5,10.8-26.3c-5.9,6.8-12.5,12.9-18.2,20
	c-3.1,3.7-11.4,6.8-8.6,12.3c-8.5,1.9,1.6,7.8,5.9,5.1c-0.6,0.7-1.1,1.4-1.6,2.1c-8,3.3-12.6,12.5-21.5,14.5
	c-1.7-4.6,4.9-7.2,6.6-11.1c1-2.2,7.3-6.4,3.7-7.6c-1.7-0.8-4.6-0.2-5.4-2c2.3-0.7,5.7,0.4,6.6-2.5c3.7-8.3,13.7-11,18.1-18.9
	c5.6-6,10.1-14.4,18.9-15.8c2.4,3.1,6.7,2.1,10.1,2.8c2.6,1.3,2.4,5.5,5.1,6c1.6-2.4,1.8-5.9,4.2-7.7c3.2,0.8,6.7,0.7,9-2.1
	c0.3,0.3,0.9,0.8,1.2,1.1c3.9,5.5,9,0.7,13.7,3.8c2.1-1.3,0.8-6.2,4.2-5.9c7-0.7,10,8.2,9.4,13.9c6.7-3-2.7-13.2,4.4-15.9
	c-6.8-5.8,6.1-0.9,8.9-4.3c2.9-4,7.6-2.8,11.4-1c4.1-9.1,16.8-7.2,25-8.7C553.3,96.8,565.3,101.7,574.8,94.8z"/>
<path class="st11" d="M573.8,106c2-2.7,4.5-4.5,8.2-3.8c0.6,0.9,1.3,1.9,1.9,2.9c1.1,2.6,2.1,5.3,3,8c0.5,5.2,2.7,11.6-1,16
	c-12.6,6.6-26.8,9.9-40.8,12.3c-12.5,3.1-24.4,8.7-37.3,10.3c-0.8,0.2-2.4,0.5-3.3,0.7c3-6.6,1.5-15.2,7.1-20.5
	c3.2-2.3,6.1,1.7,9.1,2.2c5.7-2.2,4.5-10.6,10.5-12.6c3.5-2.9,8.3-4.5,10.3-8.8c5.9-0.2,10.2-4.5,15.5-6.3
	C562.9,107.1,568.3,103.2,573.8,106z"/>
<path class="st10" d="M584,105c6.9,5.8,15.3,0,21.9-3c0.4,1.1,0.7,2.3,1.1,3.4c-0.1,2.5,0.8,5.3-0.5,7.6c-5.2-3.3-13.6,5.2-19.5,0
	C586.1,110.3,585.1,107.7,584,105z"/>
<path class="st10" d="M352.8,111.1c1.1-0.4,2.1-0.9,3.2-1.3c4.4,0.9,8.7,1.9,13,3.2c0.5,0.2,1.5,0.6,2,0.8c0.1,0.5,0.4,1.4,0.5,1.8
	c-0.3,1.7-0.6,3.4-1,5.2c-2.6-1.6-0.9-7.1-3.9-6.7c-0.8,6-2.6,11.9-4.1,17.8c-2.4-2.2-2.9-5.6-4.6-8.2c-4.5,5.8-1.3,16.8,1,21.3
	c-6.6,1.1-13.4,2.7-19.9,0.7c2-2.5,6.2-3.7,7.3-6.3c-2.7-9.1-13.4-5.6-19.6-2.6c-4.7,1.4-6.4,6.2-9.5,9.4c-2.8,0.9-5.8,1.1-8.4,2.7
	c2.4-0.1,4.8-0.4,7.3-0.6c-2,1-4.1,1.9-6.1,2.8c-2.1,0.9-4.1,2-6.2,3c-3-8.4,8.2-12.1,12.7-17.5c6.5-4.7,13.4-8.8,19.2-14.4
	c-3.2-3,1.8-2.5,3.9-3.4C344.6,118,348,113.1,352.8,111.1z"/>
<path class="st1" d="M387.3,110.1l0.9,0.1c-2,3-3.9,6.2-4.5,9.9l-0.6,0.1c-0.8-0.7-1.5-1.4-2.2-2.2c1.4-1.7,2.4-3.7,3.2-5.8
	C385.2,111.4,386.2,110.7,387.3,110.1z"/>
<path class="st3" d="M388.2,110.1c0.5,0,1.7-0.1,2.2-0.1c0.8,3.1-3.8,3.4-4.1,6.2c-0.7,1.4-0.3,4-2.6,3.8
	C384.2,116.3,386.1,113.2,388.2,110.1z"/>
<path class="st4" d="M248,113.2c1.8-0.7,3.6-1.2,5.5-1.5c-1.9,1.4-4.8,3.3-0.6,3.6c0.8,4.7-7.1,4.6-10,7.4c3.1-0.1,6.1-0.6,9.1-0.9
	c-1,5.9-10.2,3.1-12.8,7.4c-1.2,4.4,4.5,5.4,7.5,6.4c9-1.8,17.2-6.9,26.2-8.2c1.2,12.3-10.1,18.9-19.8,22.7
	c-4.3-0.4-4.2,4.4-5.8,7.1c-1.1,3.4,4.2,1.2,4.9,3.8c-0.8,1.7-2.5,3.8-0.3,5.2c-4.8,2.7-9.5,6-15.1,6.6c-2.4-1.8-5.1-3.1-8.1-1.9
	c-5.9-8.6-9.2-19.5-18.7-25.3c-3.8-3.4-8.3,1.7-12.5,2c-0.4-3.5,5.7-5.1,7.5-8.2c7.1-6.8,11.4-19.4,23.1-18.6
	c3.3,2.6,8.1-0.2,9.6-3.6C240.9,115,244.7,114.6,248,113.2 M225.3,123.7c-10,1.2-10.2,14.6-3.8,20.1c0.3-4.3,5.1-7,3.8-11.5
	C226.1,129.2,231.9,121.4,225.3,123.7z"/>
<path class="st3" d="M371.1,113.8c3.6-3.6,8.6-3.1,13.1-1.7c-0.8,2.1-1.8,4-3.2,5.8c-2.3-0.5-4.7-0.6-7-0.8
	c-0.6-0.4-1.8-1.1-2.3-1.4C371.5,115.2,371.2,114.3,371.1,113.8z"/>
<path class="st7" d="M366.7,114.1c3-0.4,1.3,5.2,3.9,6.7c0.4-1.7,0.7-3.4,1-5.2c0.6,0.4,1.8,1.1,2.3,1.4c2.9,2.4,5.8,4.9,8,8
	c-0.3,3.5-5.3,4.8-5,8.7c5.1-1.2,7.2-7.9,13-7.7c3.2,4.2,8.2-0.4,11.1,4.9c3.5-3.1,7.1-6,11.4-8.1c3,1.9,6.9,1.2,10,2.9
	c-2.8,4.9-9.1,5.9-12.4,9.9c2.5-0.8,4.9-2.1,7.4-3.1c-4.6,8.3-13.2,14.1-20.2,20.4c-2,2-11.4,3.9-4.7,5.6c-2.4,0.2-4.7,0.4-7,0.4
	c-6.3-2.2-10.4-8-16.5-10.4c-5.8,4.9-14.2-0.3-21.2,1.8c-2.5,0.2-4.9,0.4-7.4,0.6c-3.8,0-7.6-0.1-11.3,0.4
	c-6.6,7.3-17.6,10-27.1,12.1c-5.8-0.1,0.6-4.9,2.4-6.7l0.4-0.1c3.4,0,16.1-5.8,7.6-5.8c-0.6,0-1.8-0.1-2.4-0.1
	c2.1-0.9,4.1-1.7,6.1-2.8c-2.4,0.1-4.8,0.4-7.3,0.6c2.6-1.6,5.6-1.8,8.4-2.7c3.1-3.2,4.9-8,9.5-9.4c6.2-3,16.9-6.5,19.6,2.6
	c-1.1,2.6-5.3,3.9-7.3,6.3c6.6,2,13.4,0.4,19.9-0.7c-2.3-4.5-5.5-15.5-1-21.3c1.7,2.7,2.2,6.1,4.6,8.2
	C364.2,126,365.9,120.1,366.7,114.1z"/>
<path class="st4" d="M446.6,122.7c4.9-3.6,13-5.8,18.4-3.7c-2.3,2.7-5.8,2.8-9,2.1c-2.4,1.8-2.6,5.3-4.2,7.7
	C449,128.3,449.2,124,446.6,122.7z"/>
<path class="st4" d="M422.4,125.9c4.6-3.2,8.6-9.1,15-6.7l-0.9,0.7c-8.8,1.5-13.3,9.8-18.9,15.8c-4.4,7.9-14.4,10.6-18.1,18.9
	c-0.9,2.9-4.4,1.8-6.6,2.5c0.8,1.8,3.7,1.2,5.4,2c-7.6,8.2-19.2,12.8-23.5,23.7c-6.6,3-13.2,6.3-20.1,8.6
	c-7.3,0.5-14.5,6.7-21.6,3.9c1.9-1.9,3.3-9.2-0.9-6.1c-5.1,5.4-13.2,5.2-20.1,4.5c-0.5-3.7,4-4.9,4.3-8.4c3.6-0.5,11.2-1.7,3.3-2.8
	c-1.2-7.8-10.3-4.1-15.7-5.8c2.3-1.9,4.4-4.1,5-7c5.6-1,11.1-4.8,16.8-3.6c-0.8,2.6-3.9,3-5.5,4.7c3.7,3,8-0.7,11.9,0.4
	c4.5-4.3,0.9-11.5,0.5-16.9c-11.7,11.4-30.9,8.1-45.4,14.1c-1.1,7.1,10.4,2.2,14.9,2.5c-5.9,3.7-13.5,3.5-20,1.7
	c0-1.3,0.1-2.6,0.3-3.9c4.2-3.4,7.1-8.3,12-10.6c2.1,3.7,6.6-1.2,9.8-1.1c-1.8,1.9-8.2,6.6-2.4,6.7c9.5-2.1,20.5-4.8,27.1-12.1
	c3.8-0.4,7.5-0.4,11.3-0.4c-7.7,1.8-7.2,17.8,1.8,14.1c3.8-5.3,10.2-8.4,13.6-14c-2.7-0.4-5.4-0.5-8.1-0.7c7-2.1,15.4,3.1,21.2-1.8
	c6.1,2.4,10.2,8.2,16.5,10.4c-3.2,1.3-5.6,4.1-6.2,7.5c6.5,0.5,11.6-4.4,16.7-7.6c-1.2-0.2-2.3-0.3-3.5-0.3
	c-6.6-1.7,2.7-3.7,4.7-5.6c7-6.4,15.6-12.2,20.2-20.4c-2.5,1-4.8,2.3-7.4,3.1C413.3,131.8,419.6,130.9,422.4,125.9 M354.4,184.3
	c-7.4,0.7-16.2,3.5-19.4,10.8c6.7-1.7,13.8-3.1,19.3-7.4C358.1,187.7,359.2,182.4,354.4,184.3z"/>
<path class="st11" d="M497.4,121.8c-0.8-3.3,2.7-0.8,2.8,1c5.5,8.4,0.5,18.1-1.7,26.7c-1.7,2-0.3,3.4,1.7,4.4
	c-3,1.1-5.9,2.2-8.8,3.2c-3.3,0.5-5.8,2.8-8.1,5c-8.3,2.4-16.4,6.7-25.3,6.9c2.8-3.2,7.2-4.6,9.9-7.9c-14.2-3.5-29.2-1.6-43.4-3.2
	c2.5-6.6,5-14.2,11.6-17.7c3.2-0.1,2.1,6,5.9,5.9c3.3-0.2,0.5,5.6,4,4c5.9,0.7-2.9-5.4,1.1-8c5-4.7,6.4-11.6,10.4-16.8
	c0.6,3.4,2.7,5.5,6.3,4.2c4.4,5.4,1.4,13.1,1.3,19.5c4.7-2.2,5.9-8.2,10.8-10.2c4.9-2-1.3-6.9,0.3-10.7c2.4,1.1,2.9,3.8,4.2,5.8
	c3.4-2.9,3.2-7.7,3.3-11.8c3,1.7,8.5,3.4,7.4,7.7c-2.8,4-6.4,9.5-4.1,14.4C491.8,137.7,499.5,130.9,497.4,121.8z"/>
<path class="st7" d="M225.3,123.7c6.7-2.3,0.9,5.5,0,8.6c1.2,4.5-3.6,7.2-3.8,11.5C215.1,138.3,215.3,124.9,225.3,123.7z"/>
<path class="st11" d="M413.8,143.8c5.7-7,12.3-13.1,18.2-20c4.5,9.8-6,18.5-10.8,26.3c-1.9,3.3-7.9,5.3-6.4,9.8
	c-1.2,0.4-2.4,0.8-3.6,1.2c-4.4,2.7-14.5-3.2-5.9-5.1C402.4,150.6,410.7,147.6,413.8,143.8z"/>
<path class="st11" d="M277.2,164.2c12.8-9.4,25-21.5,39.2-27.7c-4.4,5.3-15.7,9.1-12.7,17.5c-3,1.5-6.2,2.6-9.2,4.1
	c-4.9,2.4-7.8,7.3-12,10.6c-2.2,1.7-5.4,5.8-2.2,8c6.4,0.9,13.2-3.1,19.5-0.6c-13,6.9-28.5,15.8-43.9,11.8
	c-3.4-1.1-6.8-2.6-10.3-3.7c2.7-2.3,3.2-6.7,6.4-8.2c3.6,1.3,7.3,2.9,11.1,1.2C270.7,176.6,271.1,167,277.2,164.2z"/>
<path class="st12" d="M197.7,147.5c4.2-0.3,8.7-5.4,12.5-2c3.6,8.1,8.7,15.7,13.9,22.7c-5.8-1.2-11.6-7.8-17.8-3.9
	c-0.1,4.8,6.3,4.8,7.8,8.7c-2.3,0.2-4.7,0.2-7,0.4c3.4,3.5,9.4,4.5,10.9,9.8c-4.6-3.3-7.8,2.7-12.4,3.7c-2.2,0.9-7,5.2-2,2.8
	c4.8,2.7,11.2-6.8,14,0.6c3.8-1.3,6.4,2.5,10.6,0c-5.8,8.8,10.5,0.7,12.9,7.6c-17.2,0.3-33.9-0.2-50.3,6.2c2.8,2.4,6.9,1.3,10.3,2.4
	c11.9-4.2,25.4-5.6,37.7-1.8c4.7,1.3,9.2-1,13.9-0.4c0.3,0,0.9,0,1.1,0c5.6-1,4.8,4.5,3.2,7.6c-4.3-0.4-8.9-2.4-10.7,3.4
	c3.1,0.9,6.7-3.6,9,1.3c-2.9,3.1-2.3,14.6-9.2,11c-10.3,6.8-27.5,0.9-33.3,14c9.1,0.9,17.9-1.9,27-2.3c2.6-0.1,5.9,3.6,2.6,5.2
	c-3.9,0.4-6,7-0.6,6.1c-4.3,5.5-12.8,2.7-17.4,8c-6.1-0.2-12.1,1.4-17.7,3.5c-0.2-2.8-1.3-1-2.2,0.4c-5.6-2.9-11.5,2.6-17-0.3
	c2.3-0.7,5.7-1.1,5.2-4.3c3.3-1.8,8.4,1.4,10.4-2.7c2.3-2-2.2-1.3-2.5-3.2c1.3-1.8,3.4-0.2,5,0.2c0.4-2.5,5-4.6,5.7-1.3
	c1.2,4,4-0.8,4.9-2.6c-3.6-5.7-10.3,0.9-15.4-1.9c4.2-5.6,11-9.1,15.9-14c-3.9-2.9-11.4-2.6-12.2,3c-3-0.6-5.8,0.4-8.5,1.7
	c-6.7-4.1-16.1,0.2-20.9-7.4c0.9-2.2,1.9-4.6,0.8-6.9c2-3.1,5.4-4.7,8.2-7c-0.7-2.5-2.8-4.5-4.2-6.8c0.9-3.7,1.3-7.9,4.7-10.2
	c9.3-8.3,8.3-21.5,9.8-32.7C195.6,160,193.2,152.5,197.7,147.5 M204.3,151.6c-2.2,0.6-6.5,1.5-4.4,4.6c1.2,4.2,6.1,1.1,8.9,0.4
	C208.7,154.2,206.7,151.6,204.3,151.6z"/>
<path class="st13" d="M210.2,145.6c9.5,5.8,12.8,16.7,18.7,25.3l0.7,1.1c-6.7,1.8-12.8-7.5-20.3-6.7c2.6,4.3,7.1,7,11.8,8.7
	c1.7,0.6,3.4,1.2,5.1,1.9c-4.5,5,3.7,5.7,6.4,8.7c5.1,2.5,13.8,2.7,15.5,9.1c4.4,0.1,8.8,0.2,13.1,0.2c9.4-0.2,19.3,1.9,28-2.6
	c4.6-0.8,7.3-4.8,6.7-9.3c2.6-1.9,5.4-3.5,8.1-5.2c5.4,1.7,14.5-2,15.7,5.8c7.9,1.1,0.3,2.3-3.3,2.8c-0.3,3.5-4.8,4.7-4.3,8.4
	c6.9,0.7,15,1,20.1-4.5c4.2-3.1,2.8,4.2,0.9,6.1c-0.3,0.4-1,1.1-1.4,1.5c-17.8-1.4-36.2,0.8-54.3,1.7c-9.1-1.7-18.3-0.1-27.4,0
	c-3.3,1-7.6,0.2-10,3.1c4.3,0.5,9.1-0.8,12.6,2.5c-4.7-0.6-9.2,1.7-13.9,0.4c-12.3-3.8-25.8-2.4-37.7,1.8c-3.4-1-7.4,0-10.3-2.4
	c16.4-6.3,33.1-5.8,50.3-6.2c-2.4-6.9-18.7,1.2-12.9-7.6c-4.3,2.6-6.8-1.3-10.6,0c-2.8-7.4-9.2,2.1-14-0.6c-5,2.3-0.2-2,2-2.8
	c4.6-0.9,7.8-7,12.4-3.7c-1.6-5.3-7.5-6.3-10.9-9.8c2.3-0.1,4.7-0.1,7-0.4c-1.5-3.9-7.8-3.9-7.8-8.7c6.2-3.9,12,2.7,17.8,3.9
	C218.9,161.2,213.8,153.6,210.2,145.6z"/>
<path class="st13" d="M204.3,151.6c2.5,0,4.4,2.7,4.4,5.1c-2.8,0.6-7.7,3.7-8.9-0.4C197.7,153.1,202,152.1,204.3,151.6z"/>
<path class="st12" d="M303.7,154c2.1-1,4.1-2.1,6.2-3c0.6,0,1.8,0.1,2.4,0.1c-2.3,2.2-5.5,3.4-7.6,5.8l-0.4,0.1
	c-3.2-0.1-7.7,4.8-9.8,1.1C297.5,156.6,300.7,155.5,303.7,154z"/>
<path class="st4" d="M312.3,151.1c8.5,0-4.2,5.8-7.6,5.8C306.9,154.4,310,153.3,312.3,151.1z"/>
<path class="st13" d="M340.4,151.3c2.5-0.2,4.9-0.4,7.4-0.6c2.7,0.1,5.4,0.3,8.1,0.7c-3.5,5.5-9.8,8.6-13.6,14
	C333.2,169.1,332.7,153.1,340.4,151.3z"/>
<path class="st10" d="M504.6,152.2c0.8-0.2,2.4-0.5,3.3-0.7c5,0.9,1.7,5.8-1.4,6.9c-18.2,11.2-39,20-60.4,21.3
	c10.7-8.8,26.2-9.4,37.2-17.7c2.3-2.2,4.8-4.5,8.1-5c-2,3.5-5.3,5.9-8.1,8.6c8.8-1.1,18.9-4.2,23.6-12.3c-0.4-0.1-1.2-0.4-1.6-0.5
	L504.6,152.2z"/>
<path class="st4" d="M500.1,153.9c1.7-0.4,3.4-0.7,5-1c0.4,0.1,1.2,0.4,1.6,0.5c-4.7,8.1-14.8,11.2-23.6,12.3
	c2.8-2.7,6.1-5.1,8.1-8.6C494.2,156.1,497.1,154.9,500.1,153.9z"/>
<path class="st13" d="M287.3,168.4c14.5-5.9,33.7-2.7,45.4-14.1c0.4,5.4,4,12.6-0.5,16.9c-3.9-1.1-8.3,2.6-11.9-0.4
	c1.6-1.8,4.6-2.1,5.5-4.7c-5.8-1.2-11.2,2.5-16.8,3.6c-2.3,0.4-4.5,0.7-6.7,1.2C297.7,170.6,286.2,175.5,287.3,168.4z"/>
<path class="st9" d="M385.4,159.3c2.3,0,4.7-0.2,7-0.4c1.2,0,2.3,0.1,3.5,0.3c-5.2,3.2-10.2,8.1-16.7,7.6
	C379.8,163.3,382.1,160.5,385.4,159.3z"/>
<path class="st10" d="M398.3,159.1c3.6,1.2-2.6,5.3-3.7,7.6c-1.7,3.9-8.3,6.5-6.6,11.1c8.9-2,13.4-11.2,21.5-14.5
	c-1.5,3.7-6.1,5.3-6.4,9.5c8.2-1.5,14.1-8.2,20.1-13.6c4.7,1.1-1.9,5.6-4.2,6.8c-5.9,6.8-16.5,11.3-17.6,21
	c-4.5,2.9-10.4,3.8-16,4.3c-0.4,4.9-3.8,8.9-8.1,11c-10.3,5.1-20.6,10.2-31.2,14.8c-9.2,3.8-22.4,0.7-28.5,9.9
	c-3.5,0.9-7.1,0.5-10.7,0.7c-8.1,1.4-17,2.1-24.9-0.1c13.5-2.8,28.1-5.5,40.9-8.4c12.8,1.9,24.6-6.6,36.3-11.1
	c3.3-2.9,9-3.2,10.7-7.6c-8.9-1.2-17.3,2.8-26.1,3.5c-4.6,0.2-9.1,1.6-13.3,3.6c-1.9,3.2-2.1,7.7-5.9,9.4c0.2-0.5,0.6-1.4,0.8-1.9
	c1.2-4.4,5.5-9.2,2.8-13.8c1-1.7,2.4-3,3.6-4.4c0.3-0.4,1-1.1,1.4-1.5c7.2,2.8,14.4-3.4,21.6-3.9c6.9-2.3,13.5-5.6,20.1-8.6
	C379.1,171.9,390.7,167.3,398.3,159.1z"/>
<path class="st4" d="M414.7,160c2.8-0.6,5.6-1.1,8.4-0.8c-5.9,5.4-11.9,12-20.1,13.6c0.2-4.2,4.9-5.8,6.4-9.5
	c0.5-0.7,1.1-1.4,1.6-2.1C412.3,160.7,413.5,160.4,414.7,160z"/>
<path class="st4" d="M209.3,165.2c7.5-0.8,13.6,8.5,20.3,6.7c8.2,9.7-10.3-2.4-8.5,2C216.4,172.2,211.9,169.5,209.3,165.2z"/>
<path class="st10" d="M280.4,176.7c-3.2-2.1,0-6.3,2.2-8c-0.2,1.3-0.3,2.6-0.3,3.9c6.5,1.8,14.1,2,20-1.7c2.2-0.5,4.5-0.8,6.7-1.2
	c-0.6,3-2.7,5.2-5,7c-2.8,1.6-5.5,3.3-8.1,5.2c-12.2,3.5-22.8,14.5-36,10.2c-1.2-1.4-2.5-2.9-3.9-4.1c15.4,4,30.8-4.9,43.9-11.8
	C293.6,173.6,286.8,177.6,280.4,176.7z"/>
<path class="st9" d="M226.1,175.8c2.7,0.9,5.2,2.2,7.7,3.6c3.7,2.2,7.7,3.8,11.8,4.9c3.5,1.1,6.8,2.5,10.3,3.7
	c1.4,1.3,2.7,2.7,3.9,4.1c0.3,0.4,0.9,1.3,1.3,1.7c-4.4,0-8.8-0.1-13.1-0.2c-1.7-6.4-10.4-6.6-15.5-9.1
	C229.8,181.5,221.6,180.8,226.1,175.8z"/>
<path class="st4" d="M259.9,192.1c13.2,4.3,23.8-6.7,36-10.2c0.6,4.5-2.2,8.5-6.7,9.3c-8.8,4.5-18.6,2.4-28,2.6
	C260.8,193.4,260.2,192.5,259.9,192.1z"/>
<path class="st13" d="M354.4,184.3c4.8-1.9,3.7,3.4-0.1,3.4c-5.5,4.3-12.6,5.7-19.3,7.4C338.1,187.8,347,185,354.4,184.3z"/>
<path class="st4" d="M277.5,198.5c18-0.9,36.5-3.1,54.3-1.7c-1.2,1.4-2.6,2.8-3.6,4.4c2.7,4.5-1.6,9.3-2.8,13.8
	c-2.9-3.2-6.2,0.7-9.4,1c-4.9,1.2-9.5-2.6-14.3-0.8c-3.4-0.8-9,1.3-10.4-2.8c4.4-1.2,9.1-1.6,12.9-4.3c-1-5.3-6.9-5.4-11.1-5.1
	c-7,1-14.1-2.1-20.8,0.9C267.6,198.3,275.1,201.1,277.5,198.5z"/>
<path class="st9" d="M250.1,198.5c9.1,0,18.3-1.7,27.4,0c-2.4,2.6-9.9-0.2-5.3,5.4c-2.4,0.6-7,3.5-7.6-0.6
	c-3.5-1.4-7.5-0.9-10.8,0.8c-0.3,0-0.8,0-1.1,0c-3.5-3.3-8.3-2.1-12.6-2.5C242.5,198.7,246.7,199.5,250.1,198.5z"/>
<path class="st4" d="M343.8,203.9c8.8-0.7,17.2-4.7,26.1-3.5c-1.6,4.4-7.4,4.7-10.7,7.6c-11.7,4.4-23.5,12.9-36.3,11.1
	c0.6-0.7,1.1-1.4,1.7-2.2c3.8-1.6,4-6.2,5.9-9.4C334.7,205.5,339.2,204.1,343.8,203.9z"/>
<path class="st13" d="M253.8,204.1c3.3-1.8,7.3-2.2,10.8-0.8c0.6,4.2,5.2,1.2,7.6,0.6c6.7-2.9,13.8,0.2,20.8-0.9
	c4.3-0.4,10.1-0.2,11.1,5.1c-3.8,2.7-8.5,3.2-12.9,4.3c1.4,4.1,7,2,10.4,2.8c4.8-1.7,9.4,2.1,14.3,0.8c3.2-0.3,6.5-4.2,9.4-1
	c-0.2,0.5-0.6,1.4-0.8,1.9c-0.5,0.7-1.1,1.5-1.7,2.2c-12.7,3-27.4,5.6-40.9,8.4c7.9,2.2,16.8,1.4,24.9,0.1c0.5,0.3,1.5,0.8,2.1,1
	c-0.8,1.7-1.8,3.2-3.1,4.6c-4.6,1.1-8.4-2-12.8-2.6c-7.7,1.6-16,0.1-23.6,1.5c-3-1.9-6.9-2.3-8.6,1.5c7.3,0.4,0.8,1.8-1.8,4.2
	c2.5,1.9,9.5,0.4,3.9,3.1c10.9,0.6,21.8-1.7,32-5.4c2.2,4.3-5.7,3.2-7,6.7c-5.6,2.4-11.7,3.7-17,6.6c3.6,0.2,7.3,0.2,10.9,0.5
	c-0.5,0.8-0.9,1.5-1.3,2.4c-1,1.7-1.9,3.6-2.7,5.4c-2-1-4.3-2.5-6.2-0.4c-15,3.4-31.4,3.5-44.8,12.2c-1.2,1.9-1.1,6.2,2.2,5.3
	c6.3-1.1,11.4,2.5,17.4,3.7c0.3,1.3-0.1,2.7-0.1,4c5.4-1.7,10.4-7.4,16.4-4.1c-1.1,2.3-2.1,5.1-4.5,6.2c-1-0.7-2.6-2.3-2.2,0.1
	c4.1,4.1,11.7,1.8,14.3-3c-2.4-2.1-5.9,1.6-8.6,2.2c0.3-2.4,2.4-3.7,4.2-5c7.4-2.8,15.6-1.5,23.2-3.5c7-1.5,14-2.8,20.8-4.9
	c0.5,0.1,1.5,0.3,2,0.4c-9.6,7.9-23.7,7.1-33.8,13.7c-3.5,1-7,2.2-10.4,3.5c-7.5,2.4-15.6,0.2-23.2,0.2c-4.2,1.2-8.4-0.7-12.2-2.3
	c-6.5,4.4-14.2-0.8-21.5-0.1c-4.9-1.6-2.7,6.8,0.9,6c11.3-0.1,22.7,4.3,29.6,13.3c6.3-2,11.4,6.8,8.1,12
	c-13.2-3.1-26.8-3.9-40.4-3.8c6.8-1.4-2.1-2.9-1.6-6.3c6.7,0.2-0.4-7.2-3.7-7.9c-3.9-0.1,2.6,5.3-1.1,6.1c-1.6,1.1-4.1,1.2-3.6-1.5
	c1-4.7-4.8,2.3-4.5-2.2c-3.8-0.2-10.4,4.8-10.6-1.6c-2.1-2.5,0.3-5.1,1.3-7.5c-2.7-4.4-11.2-0.3-12.6-5.8c4.4-4.8,11.5-3.8,17.3-6.1
	c9.6-3.8,19.3-2.9,29.1-2.5c-4.7-3.5-13.1-1.7-19.3-2.4c5.5-3.4,12.5-0.3,18.4-1.3c0.7-4.3,2.9-7.1,6.9-8.9
	c-7.6-1.9-15,2.1-21.9,4.4c-9.2,0.5-18.6,0.3-27.5-1.9c0.3-1.9,3.9-2.8,5.2-4.6c2.2-1.1,4.6-1.8,7-0.9c5.6,2.8,11.4-2.6,17,0.3
	c1-1.4,2-3.2,2.2-0.4c5.7-2.1,11.6-3.7,17.7-3.5c4.6-5.4,13.1-2.5,17.4-8c-5.4,0.9-3.3-5.7,0.6-6.1c3.3-1.6,0-5.3-2.6-5.2
	c-9.1,0.4-17.9,3.2-27,2.3c5.7-13.1,22.9-7.2,33.3-14c6.9,3.5,6.4-8,9.2-11c-2.3-4.8-5.9-0.4-9-1.3c1.8-5.8,6.4-3.8,10.7-3.4
	C258.6,208.6,259.4,203.1,253.8,204.1z"/>
<path class="st10" d="M364.9,215.6c7.8-2.2,14.1-8.2,22.2-9.4c2.5-0.9,2.7,3.1,0.8,3.9c-6.9,5.1-15.4,7.1-23,11
	c-17.8,9.4-37.3,14.4-57,18.1c-1.8,0.5-2-2-2.8-3.1c0.2-0.9,0.5-1.9,0.7-2.8c1.2-1.4,2.2-3,3.1-4.6c0,3.8,3.6,1.3,5.9,1.9
	c15.9,3.1,30.5-7.1,46-10.5C362.8,219.4,369.7,216.6,364.9,215.6z"/>
<path class="st11" d="M384.6,218.7c5.5-1.3,11.3-2.3,15.7-6.2c0.1,0.9,0.3,1.9,0.4,2.8c0.8,8.6,2,17.1,3.1,25.7
	c0.3,5,0.2,10.1,0.2,15.1c-0.5,5.7-1.6,11.3-3.2,16.8c-0.9,2.3-1.9,4.5-2.8,6.8c-1.2,2.7-2.5,5.4-3.9,8.1c-2.1,1.9-4,3.8-6,5.8
	c-2.4,2.4-4.9,4.8-7.4,7.2c-3.2,2.2-6.3,4.5-9,7.2c-4.7,4.3-10.3,7.6-14.8,12.1c-1.5,1.3-3.1,2.4-4.9,3.3
	c6.7-13,15.3-25.4,20.2-39.2c-4.4,4.3-6.4,11.1-12.1,13.8c-1.9-9.4,11-18.3,3.2-27c7-11.3,17.1-20.8,22.3-33.3
	c1.8-4.6,5.4-8.1,7.4-12.6c-5.4,4.4-12.3,6.6-17,11.8c-9.3,8.1-21,13.1-33.1,15.1c10.7-4.6,20.6-10.8,30.4-17
	c-1.7-1.7-3.7,0.3-5.4,0.9c-12.9,6.4-26.5,11.4-40.9,12.8c4.8-7.5,20.2-5.1,23.9-13.1c-12.9,2.6-25.7,5.6-38.7,7.9
	c-4.8-1.4,0.9-3.5,3.1-3.9C338.8,234.2,362.2,227.8,384.6,218.7z"/>
<path class="st4" d="M317.7,226.9c16.1-1.6,32.2-5.3,47.2-11.3c4.8,1-2.1,3.8-4,4.4c-15.6,3.4-30.1,13.6-46,10.5
	c-2.3-0.5-5.9,1.9-5.9-1.9c-0.5-0.3-1.5-0.8-2.1-1C310.5,227.4,314.2,227.8,317.7,226.9z"/>
<path class="st7" d="M375.9,236.7c4.7-5.2,11.6-7.5,17-11.8c-2,4.5-5.7,8-7.4,12.6c-5.1,12.5-15.2,22-22.3,33.3
	c7.8,8.7-5.1,17.7-3.2,27c5.7-2.7,7.7-9.6,12.1-13.8c-4.8,13.9-13.5,26.2-20.2,39.2c-0.2,0.3-0.6,0.9-0.7,1.2c-2.8,2-5,4.6-6.5,7.6
	c-6,12.3-16.5,21.6-26.2,31c0.5-5.8-5.8-11-11.2-8.6c-3.7-6.1,2.7-10.5,3.6-16c-7.2,1.3-1.1-8-4.7-11.5c1.1-5.2-4.1-7.5-5.3-11.9
	c1.4-4.2,6.3-0.3,9-2.1c-2.7-4.6-7.7-6.9-11-10.9c9.6,4.1,19.1-6.2,25-13c-10.6,0.6-18.7,7.9-28,11.8c-2.2-0.3-3.6-2.1-5-3.6
	c6.6,2.7,11.4-4.3,16-7.9c-6.6-5.1,3.5-3,5.6-6.8c12.5-7.1,29.4-9.9,40.9-16c1.3-1.7,2.4-3.5,3.6-5.2c8.7-5.4,15.5-13.5,21.9-21.5
	C381,237,378.4,236.7,375.9,236.7 M332.4,288.5c-8.9,4.3-14.6,12.9-22.9,18.1c-3.1,2.2,1,4.6,3.4,3.3c8.9-3.3,15.2-11.1,20.2-18.9
	C333.7,290.1,334.5,287.2,332.4,288.5z"/>
<path class="st14" d="M175.2,229.7c4.8,7.6,14.2,3.2,20.9,7.4c2.7-1.2,5.5-2.2,8.5-1.7c0.8-5.6,8.4-5.9,12.2-3
	c-4.9,5-11.8,8.4-15.9,14c5.2,2.7,11.8-3.9,15.4,1.9c-0.9,1.8-3.7,6.6-4.9,2.6c-0.7-3.3-5.3-1.1-5.7,1.3c-1.6-0.4-3.8-2-5-0.2
	c0.3,1.9,4.8,1.1,2.5,3.2c-2,4.1-7.1,0.8-10.4,2.7c0.5,3.2-2.9,3.5-5.2,4.3c-2.4-0.9-4.8-0.2-7,0.9c-6.1-1.5-11.5,2.8-17.4,3.1
	c-2.3-0.1-4.8,2.5-2.9,4.6c6.5,3.6,13.7-1,20.4-0.3c4.1,4.3-8.7,1.4-8.3,4.6c9-1,18.1-0.2,27.1,0.2c6.2,0.7,14.6-1.1,19.3,2.4
	c-9.9-0.4-19.6-1.3-29.1,2.5c-1.3-1.9-3.4-3.1-5.7-3.5c-6.4,4.8-14.4,4.7-21,8.6c1.6,3.6,10.6,2.5,5.8,8c-6.8-1.5-8.3,9.2-7.8,11.8
	c3.9-3.8,1.9,3,5.8,2.7c-2.3,2.5-6.1,0.7-8.2,3.3c-4.7,0.7-9.6,1.5-13.7,4c-1.2,0.5-2.4,0.9-3.7,1.3c1.9-4.5-1.1-1.5-3.3-0.3
	c-0.2-4.8,5.4-6.3,7.8-9.8c1.1-1,3.2-1.5,3-3.3c0.5-7,3.9-13.3,6.8-19.6c1.1-9.4-3.5-19.6,1.5-28.5c0.8-0.6,1.7-1.2,2.5-1.8
	c3.9-2.8,1.8,6.3,6.1,2.9c-0.6-4.9-0.8-11.9,5-13.8c3.2-1.7,4.9-5.1,5.4-8.6C175.6,232.3,175.4,231,175.2,229.7 M168.3,246.6
	c-3.6,3.4-0.9,9.5,3.7,10.1C169.8,253.9,169.8,248,168.3,246.6z"/>
<path class="st9" d="M261,233.6c1.7-3.8,5.6-3.4,8.6-1.5c7.6-1.4,15.9,0,23.6-1.5c4.3,0.7,8.2,3.7,12.8,2.6
	c-0.3,0.9-0.5,1.8-0.7,2.8c-3.8,4.6-11.7,4-17.3,6.2c1.4-3.5,9.2-2.4,7-6.7c-10.2,3.8-21.1,6.1-32,5.4c5.7-2.7-1.3-1.1-3.9-3.1
	C261.7,235.4,268.3,234.1,261,233.6z"/>
<path class="st10" d="M367.8,235.7c1.7-0.6,3.8-2.6,5.4-0.9c-9.8,6.3-19.7,12.4-30.4,17c12-2,23.8-7,33.1-15.1c2.5,0,5.1,0.3,2.9,3
	c-6.4,7.9-13.1,16-21.9,21.5c3.2-5.9,10.1-8.9,12.9-15.1c-6.7,0.3-10.9,6.5-17.4,7.5c-9.7,0.6-18.4,7.7-28.5,7.3
	c-10.4,2.8-25.8-1.1-31.4,10.6c-1,1.4-5.1,0.9-3.5,3.1c-7.6,2-15.8,0.7-23.2,3.5c-0.4-2,2.4-6.3-2-7.6c-9.7,5.3-20.3,0.2-30.6,0.3
	c5.2-6.1,14.8-4.8,21.9-7.5c5.5-0.3,13-4.7,17,0.7c3.2-0.5,4.2-4.5,5.6-7c0.9-1.8,1.7-3.6,2.7-5.4c0.8,4.5-3.5,8.3-1.4,12.8
	c19.9-11.7,44.6-0.8,65.2-11.3c-12.6,1.5-25.7,2.5-38.1-0.2c7.9-3.7,17.2-5.2,24.9-9.9c-10.9-0.1-21.5,3.5-32.1,5.8
	c3.7-3.1,8.9-3.5,13.2-5.6c12.9-2.4,25.8-5.3,38.7-7.9c-3.7,8.1-19.1,5.7-23.9,13.1C341.3,247.1,354.9,242,367.8,235.7z"/>
<path class="st4" d="M298.9,248.9c10.6-2.3,21.2-5.9,32.1-5.8c-7.8,4.6-17,6.1-24.9,9.9c12.5,2.8,25.5,1.8,38.1,0.2
	c-20.5,10.5-45.3-0.3-65.2,11.3c-2.1-4.5,2.3-8.4,1.4-12.8c0.4-0.8,0.8-1.6,1.3-2.4c5.2,1.7,10-2.6,15.1-1.4
	C294.9,252.5,295.8,252.4,298.9,248.9z"/>
<path class="st4" d="M168.3,246.6c1.5,1.4,1.5,7.3,3.7,10.1C167.4,256.1,164.7,250,168.3,246.6z"/>
<path class="st4" d="M352.4,253.6c6.5-1,10.7-7.2,17.4-7.5c-2.7,6.2-9.6,9.3-12.9,15.1c-1.2,1.8-2.3,3.6-3.6,5.2
	c0.2-1.6,0.4-3.1,0.6-4.6c-3.7,4.7-10,4.7-15.1,6.8c-14.4,3.7-28.4,8.8-42,14.5c-3.2,0-12.2,2.9-7.4,6.5c3.5,0.8,3.2,8.6-1,5
	c-5.1-2.1,0.4,2,1.6,3.9c-9.3-1.4-19-1.4-27.8,2.6c4,7.8,13.8,5.2,20.2,9.4c4.6,3.7,10.3,5.5,15.1,8.7c-1.5,4.7-6.4,7.6-10.5,10
	c-2.4,4.7,6.9,4.2,5.6,9.5c-1.8,3.8-5-3.3-7.8-1.2c-2.1-1.1-2.4,0.2-2,2.2c-1.3-1.1-2.7-2.1-4.1-3.1c-1-0.8-1.9-1.7-2.8-2.5
	c-2.3-2.3-5-4-7.8-5.5c-3.2-2.1-6.5-4.1-10-5.6c-1.6-0.8-3.2-1.6-4.8-2.4c6.7-0.4,9.8-2.8,15.2-5.1c-1.7-7.6-11.9-4.6-15.4-10.9
	c-2.6-3.9-12.6-4.8-10.1-9.8c-2.6,0-4.5-5.6-0.9-3.3c3.5,3.4,9.5-3,11.3,0.5c3.4-2.9,7.6,2.1,11.2-0.4c4.1-3.1,9,2.4,13.1-0.3
	c-3.2-1.9-7.1-2-10.2-4.1c3.4-1.3,6.9-2.5,10.4-3.5c10.1-6.6,24.2-5.9,33.8-13.7c-0.5-0.1-1.5-0.3-2-0.4
	C324.3,265,338.9,260.5,352.4,253.6z"/>
<path class="st7" d="M323.9,260.9c10.1,0.4,18.8-6.7,28.5-7.3c-13.6,6.9-28.2,11.4-42.6,16.1c-6.8,2-13.8,3.4-20.8,4.9
	c-1.7-2.3,2.5-1.8,3.5-3.1C298.1,259.9,313.5,263.8,323.9,260.9z"/>
<path class="st4" d="M271.6,256.6c1.9-2.1,4.2-0.6,6.2,0.4c-1.4,2.5-2.4,6.5-5.6,7c-4-5.4-11.5-0.9-17-0.7
	c-7.1,2.6-16.7,1.4-21.9,7.5c10.3,0,20.9,5,30.6-0.3c4.4,1.3,1.7,5.7,2,7.6c-1.8,1.2-4,2.5-4.2,5c2.7-0.6,6.2-4.3,8.6-2.2
	c-2.6,4.8-10.2,7-14.3,3c-0.4-2.3,1.2-0.8,2.2-0.1c2.4-1.1,3.4-3.9,4.5-6.2c-6-3.3-11,2.4-16.4,4.1c0-1.3,0.4-2.7,0.1-4
	c-5.9-1.2-11.1-4.8-17.4-3.7c-3.4,0.9-3.5-3.4-2.2-5.3C240.2,260.1,256.6,260,271.6,256.6z"/>
<path class="st12" d="M163.1,266c5.9-0.3,11.3-4.5,17.4-3.1c-1.3,1.8-4.9,2.7-5.2,4.6c9,2.2,18.3,2.4,27.5,1.9
	c7-2.3,14.4-6.3,21.9-4.4c-4,1.7-6.2,4.5-6.9,8.9c-5.9,1-12.9-2.2-18.4,1.3c-9.1-0.4-18.1-1.2-27.1-0.2c-0.5-3.2,12.3-0.4,8.3-4.6
	c-6.8-0.7-14,3.9-20.4,0.3C158.3,268.6,160.8,266,163.1,266z"/>
<path class="st10" d="M338.8,268.6c5.1-2.1,11.4-2.1,15.1-6.8c-0.2,1.5-0.4,3.1-0.6,4.6c-11.5,6.1-28.3,8.9-40.9,16
	c-2.1,3.8-12.2,1.6-5.6,6.8c-4.6,3.6-9.4,10.6-16,7.9c1.4,1.5,2.8,3.4,5,3.6c9.4-3.9,17.5-11.2,28-11.8c-5.9,6.8-15.4,17.2-25,13
	c3.3,4,8.3,6.4,11,10.9c-2.8,1.8-7.6-2.1-9,2.1c1.2,4.3,6.3,6.7,5.3,11.9c3.6,3.5-2.5,12.8,4.7,11.5c-1,5.5-7.4,9.9-3.6,16
	c5.4-2.3,11.8,2.9,11.2,8.6c-0.1,6.7,3.4,13.6,0.6,20.3c-1.6-4.8,1.6-11-2.8-14.7c-3.3-3.1-7.2-5.5-10.1-8.9
	c-4.8-9.3-14.3-14.7-21.4-22.1c2.8-2.1,6,5,7.8,1.2c1.3-5.4-8-4.8-5.6-9.5c4-2.4,8.9-5.3,10.5-10c-4.9-3.2-10.5-5-15.1-8.7
	c-6.4-4.2-16.3-1.6-20.2-9.4c8.7-4,18.5-3.9,27.8-2.6c-1.2-1.9-6.7-6-1.6-3.9c4.2,3.6,4.5-4.3,1-5c-4.8-3.5,4.2-6.4,7.4-6.5
	C310.4,277.5,324.4,272.4,338.8,268.6z"/>
<path class="st12" d="M162.9,285.1c6.7-3.9,14.7-3.8,21-8.6c2.2,0.4,4.3,1.6,5.7,3.5c-5.7,2.3-12.8,1.3-17.3,6.1
	c1.4,5.4,9.9,1.4,12.6,5.8c-0.9,2.4-3.3,5-1.3,7.5c0.2,6.4,6.8,1.4,10.6,1.6c-0.3,4.5,5.6-2.5,4.5,2.2c-0.4,2.7,2,2.6,3.6,1.5
	c3.8-0.8-2.8-6.2,1.1-6.1c3.2,0.7,10.4,8.1,3.7,7.9c-0.4,3.4,8.5,4.9,1.6,6.3c-16.8,0.4-33.5-0.8-50.3-1.9c2.1-2.6,5.9-0.8,8.2-3.3
	c-4,0.3-1.9-6.5-5.8-2.7c-0.6-2.6,0.9-13.3,7.8-11.8C173.5,287.6,164.5,288.7,162.9,285.1z"/>
<path class="st9" d="M211.6,291.2c-3.6,0.7-5.8-7.6-0.9-6c7.3-0.7,15,4.6,21.5,0.1c3.8,1.6,8,3.4,12.2,2.3
	c7.6,0.1,15.7,2.2,23.2-0.2c3.1,2.2,7,2.2,10.2,4.1c-4.1,2.6-8.9-2.8-13.1,0.3c-3.6,2.5-7.8-2.5-11.2,0.4c-1.7-3.5-7.7,2.8-11.3-0.5
	c-3.6-2.3-1.7,3.3,0.9,3.3c-2.5,5.1,7.4,5.9,10.1,9.8c3.4,6.2,13.6,3.3,15.4,10.9c-5.4,2.2-8.5,4.6-15.2,5.1
	c-2.8-0.7-5.4-1.9-8.2-2.6c-4.9-1.5-10-2.7-15.1-3.2c-15.3-0.3-30.9-1.6-46.1,1.3c-12-3.2-25.1-5.7-37-0.7c-0.5-0.2-1.6-0.5-2.1-0.6
	c4.2-2.5,9-3.3,13.7-4c16.8,1.1,33.5,2.3,50.3,1.9c13.6-0.2,27.1,0.6,40.4,3.8c3.4-5.3-1.7-14.1-8.1-12
	C234.3,295.5,222.9,291.1,211.6,291.2z"/>
<path class="st10" d="M332.4,288.5c2.1-1.3,1.3,1.6,0.6,2.5c-5,7.8-11.3,15.5-20.2,18.9c-2.4,1.3-6.4-1.1-3.4-3.3
	C317.9,301.4,323.5,292.8,332.4,288.5z"/>
<path class="st15" d="M146.9,315.5c11.9-5,25-2.5,37,0.7c15.1-2.8,30.8-1.6,46.1-1.3c1.9,11.6-10.3,19.1-20.3,21.5
	c-2.2-0.1-4.3-0.2-6.5-0.2c-23.9-0.1-48.7,5-72.2-0.2c0.3-0.5,0.9-1.5,1.2-2c0.8-1.3,1.6-2.5,2.2-3.8
	C138.3,325.1,141.1,318.7,146.9,315.5z"/>
<path class="st11" d="M141.2,316.2c1.2-0.4,2.5-0.8,3.7-1.3c0.5,0.2,1.6,0.5,2.1,0.6c-5.8,3.2-8.6,9.6-12.5,14.7
	c0.5-3.1,1.7-6,2.6-9C138.3,319.5,139.7,317.8,141.2,316.2z"/>
<path class="st16" d="M230,315c5.1,0.5,10.2,1.7,15.1,3.2c-1.7,8.2-7.2,16.9-14.8,21.1c-6.9-1-13.8-2-20.6-2.8
	C219.7,334.1,231.9,326.6,230,315z"/>
<path class="st1" d="M245.1,318.1c2.8,0.7,5.5,1.9,8.2,2.6c1.6,0.8,3.2,1.7,4.8,2.4c-3.5,7.3-10,13.1-13.2,20.2
	c-5-1.6-10-3-15.2-3.5l0.7-0.5C238,335,243.4,326.3,245.1,318.1z"/>
<path class="st17" d="M258.2,323.2c3.6,1.4,6.8,3.5,10,5.6c1.5,4.4-5.8,5.3-7.8,8.7c-1.6,3.4-4.5,6.2-5.6,9.8
	c-3.3-1.4-6.6-2.6-9.9-3.9C248.1,336.2,254.7,330.5,258.2,323.2z"/>
<path class="st3" d="M268.2,328.7c2.8,1.5,5.6,3.2,7.8,5.5c0.4,9.1-9.3,11.4-15.1,16.1c-2-1-4.1-2-6.1-3c1.1-3.6,4-6.4,5.6-9.8
	C262.4,334.1,269.8,333.1,268.2,328.7z"/>
<path class="st5" d="M276,334.2c0.9,0.9,1.9,1.7,2.8,2.5c-1.7,7.2-1.1,15.5-5.8,21.7c-3.8-3.1-7.8-5.7-12-8.1
	C266.8,345.6,276.4,343.4,276,334.2z"/>
<path class="st4" d="M126.3,337.7c1.1-1.4,3-3.4,4.8-1.6c23.5,5.1,48.2,0.1,72.2,0.2c-3.2,2.7-8.9-1-10,3.9
	c-1.2,4.3-8.9,0.1-8.9,5.4c3.3,1.4,7,1,10.5,1.5c-1.7,2.8-6.9-0.1-9.8,1c-3.8,3.6-9.8,0.8-13.8,4.1c0.2,4.6,6.3-1,7.4,4
	c-1.7,3.1-1.6,8.1-6.3,8.1c-4-1.4-9.2-1.9-12.6,1.1c2.8-0.2,5.6-0.6,8.4-0.5c-3.1,2.8-8.6,1.3-12,4.2c-3.8,3.4-7.1,7.3-10.4,11.2
	c-2-3.7-4.4-6.4-1.6-10.6c-6.9,7-6.7,18.3-10.5,26.7c-8.9-1.5-17.9-0.1-26.8,0c3.6,2.8,9.9-0.2,11.6,5c4-1.1,8.9,3.1,3.5,5.5
	c-14.1,5.5-10.7,22.9-8.5,34.6c1.2,12.6,7.7,23.7,11.2,35.7c0.8,1.1,2,1.9,3.1,2.8c5.8,8.3,3.9,19,2,28.2l-0.4-0.8
	c-1.8-8.6,1.7-13.8-0.9-21.1c0.6-3.9-2.8-6.6-5.7-8.5c-0.2-0.5-0.5-1.5-0.7-1.9c-2.3-11-9.1-20.6-12.2-31.4
	c-1.5-7.9-0.4-16.3-3.2-23.9c-5-16.1,0.1-32.6,3.6-48.3c1.1-2.3,2-4.6,2.7-7.1c1-2,4.6-4.1,3-6.4c-2.4-3.2,4.4,0.5,4-2.9
	c-0.1-5,2.9-8.7,5.3-12.6C125.8,341.5,126.1,339.6,126.3,337.7z"/>
<path class="st10" d="M203.2,336.3c2.2,0,4.3,0.1,6.5,0.2c6.9,0.9,13.8,1.8,20.6,2.8l-0.7,0.5c-4.8,3.8-12.6,1.8-15.8,7.2
	c4.4,2.8,10.4,2.8,14.1,6.9c-7-0.4-14.2-3.4-21.1-0.9c-2.9,3.7,4.5,3.2,6.5,5.1c-1.4,3.3-1.8,7.5-4.6,9.9
	c-6.6,0.2-14.3-1.2-19.9,3.1c6.1,4.3,12.4,7.7,19.7,10.4c2-5.7,3.8,4.7,1.1,6.2c-3.9,5.7-11.3,4.6-17,2.9
	c-10.9-2.3-22.2-3.5-33.3-1.9c-0.7-0.6-4.4-0.6-2.2-1.6c5.4-1.6,5.1-8.5,9.2-11.7c2-1.3,4.5-7.1,0.1-5.1
	c-11.3,6.2-17.7,18.3-27.7,26.3c-5.9,4.7,9.9-3.6,3.9,1.1c-7,2.2-6.3,10.4-6.3,16.3c1.8-3.1,3.2-6.5,5.7-9.1
	c-2.7,5.1-1.9,14.4-6.9,16.4c0.3,4,2.3,13.6-3.2,6.7c-4.3,4.8-6.8,11-5.8,17.5c-5.1,11.4-1.8,23.6,1.8,34.8
	c-1.1-0.9-2.2-1.7-3.1-2.8c-3.6-12-10.1-23.1-11.2-35.7c-2.1-11.7-5.6-29.1,8.5-34.6c5.4-2.4,0.5-6.6-3.5-5.5c-1.7-5.2-8-2.2-11.6-5
	c8.9-0.1,17.9-1.5,26.8,0c3.8-8.4,3.6-19.7,10.5-26.7c-2.8,4.2-0.4,6.9,1.6,10.6c3.2-3.9,6.6-7.8,10.4-11.2c3.4-2.9,8.8-1.4,12-4.2
	c-2.8-0.1-5.6,0.3-8.4,0.5c3.4-3,8.6-2.5,12.6-1.1c4.7,0,4.6-5,6.3-8.1c-1.1-5-7.2,0.7-7.4-4c4-3.3,10-0.5,13.8-4.1
	c2.9-1.2,8,1.7,9.8-1c-3.5-0.5-7.2-0.1-10.5-1.5c0-5.2,7.8-1,8.9-5.4C194.3,335.3,200.1,339,203.2,336.3z"/>
<path class="st0" d="M278.9,336.7c1.4,1,2.8,2,4.1,3.1l0.2,0.9c-1.4,7.2-1.2,15.5-5.9,21.5c-1.4-1.3-2.8-2.5-4.2-3.8
	C277.8,352.2,277.1,343.9,278.9,336.7z"/>
<path class="st11" d="M282.9,339.8c-0.5-2-0.2-3.3,2-2.2c7,7.5,16.5,12.8,21.4,22.1c2.9,3.5,6.8,5.9,10.1,8.9
	c4.3,3.7,1.1,9.9,2.8,14.7c-1.6,5.2-7.2,7.1-10.1,11.5c-0.6,0.7-1.2,1.4-1.8,2c-1.4,1.1-2.7,2.3-4.1,3.4c-0.9,0.5-1.9,1-2.8,1.5
	c-0.6,0.3-1.8,0.9-2.4,1.2c-3.2,1.6-6.3,3.5-9.8,4.3c-4.1-1.3-3.6-7-7.2-9.4c-0.7-10,6.4-20.3,1.1-30c0.8-9,3.1-18.2,1.2-27.2
	L282.9,339.8z"/>
<path class="st7" d="M213.9,347c3.2-5.5,11-3.4,15.8-7.2c5.2,0.6,10.3,1.9,15.2,3.5c3.3,1.3,6.7,2.6,9.9,3.9c2,1,4.1,2,6.1,3
	c4.2,2.4,8.3,5,12,8.1c1.4,1.3,2.8,2.5,4.2,3.8c1.6,1.9,3.1,3.8,4.7,5.7c5.3,9.7-1.8,20-1.1,30c3.6,2.4,3.1,8.1,7.2,9.4
	c-4.5,2.4-0.8,8.9-2.2,13c-1.5-3.7,0.4-9.6-1.6-12c0.3,9.4-1.2,18.7-4.3,27.5c-4.5,5.9-3.9,15.2-11.4,18.8c-0.5-3.2-2.6-6-4.6-1.9
	c-0.5,6-4.7,12.5-1.6,18.3c-3,3.6-7.1,7.7-12.3,6.9c1.8-1.2,3.7-2.4,5.3-4c-3-2.6-5.8,2.5-8.3,3.9c-1.7-7.1,2.9-13.1,5.7-19.1
	c-2.1-8.5,3.4-16.3,3.8-24.9c-2.1,0.6-6.3,0.4-5.1,3.7c0.7,4.3-5.6,3.6-7.2,6.6c-2.5,4.2-8.7,5.9-8.9,11.4c-0.1,4.4-4.8,6.5-7.2,9.6
	c-2.7,2.6-3.3,7-6.9,8.7c1.5-10.2-4,1.9-5.9,5.3c-4.4-3.4-9.9-1.2-14.4,0.9c-12.7-5.9-26.9,0.2-40,1.8c-2.5,0.2-8.7-0.3-6.2-4.1
	c10.3-11.5,28.2-13.1,37.3-26c0.5-2.7-2.2-1.4-3.6-0.8c0.4-4.3-6.6-1.5-7.6-5.1c2.7-4,8.2-5.1,11-9.2c-0.1-4.6-5.2-1.7-6.9,0.3
	c-2.4,3.4-8.3,2.6-9,7.3c-5,6.3-14.5,4-19.8,9.9c-3,1.5-2.8,5.2-0.5,7.3c-1.8,1.8-3.1,4-3.6,6.5c-0.6-3.3-1.5-6.4-2.2-9.7
	c5.8-6.4,6.7-15.5,10.3-23.1c1.5-2.7,2.1-7.7-1.9-8.3c0,10.3-5.9,19.4-9.6,28c-1.4-4.1-2.2-8.5-1.8-12.8c0.4-1.8,0.8-3.6,1-5.3
	c1.1,0.3,2.2,0.6,3.3,0.9c-1.4-6.4,3.9-12.9,10.3-13.4c5.4-0.1-5.3-5.9,0.9-6c17.2-0.7,34.3,5.9,51.3,5c-12.5-3.2-25.8-3.6-37.5-9.2
	c3.4-4.4,15.3,2.6,13.4-7.5c4.8,0.6,5.1-3.6,1.8-6.1c1.3-3.8,5-5.7,8.4-7.3c-13.7-2-27.8-6.2-41.6-2.8c-2.2,0.4-4.6,1.1-6.7,0
	c2.5-1,5.1-1.5,7.7-1.8c11.1-1.7,22.4-0.5,33.3,1.9c5.7,1.7,13.1,2.8,17-2.9c2.8-1.5,1-11.9-1.1-6.2c-7.3-2.7-13.6-6.1-19.7-10.4
	c5.6-4.3,13.3-2.9,19.9-3.1c2.8-2.4,3.1-6.6,4.6-9.9c-1.9-1.9-9.4-1.4-6.5-5.1c6.9-2.5,14.1,0.6,21.1,0.9
	C224.4,349.8,218.4,349.8,213.9,347 M271.3,395.4c-4.7,21.1-12.8,41.2-16.9,62.4c7.5-6.6,6.7-19.6,9.3-29c4.4-9,5-19.2,8.7-28.4
	C272.6,398.8,274.1,394.5,271.3,395.4 M222.4,445.3c-9.7,4.1-20.5,5.7-29.5,11.6c-9.9,8.2-22.2,12.9-32.1,20.9
	c-1,3.9,5.8,2.1,7.9,0.9c17.9-5.2,35-13.2,50.7-23.3C220.6,452.6,228.1,445,222.4,445.3z"/>
<path class="st9" d="M283.1,340.7c2,9-0.3,18.2-1.2,27.2c-1.6-1.9-3.1-3.8-4.7-5.7C281.9,356.2,281.7,347.9,283.1,340.7z"/>
<path class="st4" d="M166.4,370.3c4.4-2,1.9,3.8-0.1,5.1c-4.1,3.2-3.7,10.1-9.2,11.7c-2.2,1,1.5,1,2.2,1.6c-2.6,0.3-5.3,0.8-7.7,1.8
	c-5.8,1.3-6.2,5.2-7.3,10c-0.8,1.4-1.6,2.9-2.4,4.3c-2.5,2.6-3.9,6.1-5.7,9.1c0.1-5.9-0.7-14.1,6.3-16.3c6-4.6-9.8,3.6-3.9-1.1
	C148.8,388.6,155.1,376.5,166.4,370.3z"/>
<path class="st10" d="M158.4,390.5c13.9-3.3,27.9,0.8,41.6,2.8c-3.4,1.6-7.2,3.4-8.4,7.3c3.3,2.6,2.9,6.8-1.8,6.1
	c1.9,10.2-9.9,3.1-13.4,7.5c11.7,5.6,25,6,37.5,9.2c-17,0.9-34.2-5.7-51.3-5c-6.2,0.1,4.5,5.9-0.9,6c-6.4,0.5-11.7,7-10.3,13.4
	c-1.1-0.3-2.2-0.6-3.3-0.9c1.3-6.4,2.9-13.6,7-18.5c-5.3-4.4-0.2-8.3,5-5.8c-1.8-2.2-5.1-2.9-6.2-5.7c3.4-4,8-7,13.3-7.6
	c-0.8-2.7,1.7-5.9,0.7-7.9c-4.9,1.4-9.8,3-13.8,6.2c-1.7-5.2-7.1,1.1-9.7,2.9c1-4.7,1.4-8.6,7.3-10
	C153.8,391.7,156.1,390.9,158.4,390.5z"/>
<path class="st4" d="M154.1,397.6c4-3.2,8.9-4.8,13.8-6.2c1,2-1.4,5.2-0.7,7.9c-5.3,0.6-9.9,3.6-13.3,7.6c1.1,2.9,4.4,3.5,6.2,5.7
	c-5.2-2.5-10.2,1.4-5,5.8c-4.1,4.9-5.8,12.1-7,18.5c-0.3,1.8-0.6,3.6-1,5.3C147.4,427.3,142.7,409.9,154.1,397.6z"/>
<path class="st11" d="M144.4,400.5c2.5-1.8,8-8.1,9.7-2.9c-11.4,12.3-6.6,29.7-7,44.7c-0.4,4.3,0.4,8.7,1.8,12.8
	c0.4,1.1,0.8,2.3,1.2,3.4c0.7,3.2,1.6,6.4,2.2,9.7c-3.2,9.6-7.7,19-7.6,29.4c-3.9,13.7-4.6,28-8.5,41.7c-0.5-2.5-1.1-5.1-1.8-7.6
	c-0.3-3.7-1.1-7.3-2-10.9c-0.6-4.2-1.4-8.4-2.6-12.4c2-9.2,3.8-19.9-2-28.2c-3.5-11.2-6.9-23.5-1.8-34.8c-1-6.5,1.5-12.7,5.8-17.5
	c5.4,6.9,3.5-2.7,3.2-6.7c5-2,4.2-11.3,6.9-16.4C142.8,403.3,143.6,401.9,144.4,400.5z"/>
<path class="st4" d="M271.3,395.4c2.9-0.8,1.3,3.4,1.1,5c-3.8,9.2-4.3,19.4-8.7,28.4c-2.6,9.4-1.8,22.4-9.3,29
	C258.5,436.6,266.6,416.5,271.3,395.4z"/>
<path class="st11" d="M284.1,408.3c2,2.4,0.1,8.3,1.6,12c0.6,4.8-0.2,9.7,0.7,14.4c3.1,6.2-2.7,11.9-3.6,18
	c-0.6,1.6-1.1,3.2-1.6,4.8c-2.5,9.1-5.3,18.3-11,26c-0.6,1.1-1,2.3-1.4,3.5c-0.7,1.8-1.3,3.6-1.9,5.4c-2.2,5-4.2,10-6.4,14.9
	c-1.5,4-2.4,8.2-4.1,12.1c-4.7,7.6-5.6,16.1-9.7,23.5c-2,8-8.1,15.6-5.6,24.1c0.8,4.1,0.8,8.4,0.8,12.6c-1.2,9-5.6,17.1-7,26.1
	c-1.1,4.5-2.1,9.1-3,13.6c-2.8,7.9-6,15.5-10.3,22.7c-0.7,0.9-1.4,1.8-2,2.8c-5.7,11.9-7.5,25.5-11.7,38c-0.4,1.9-0.9,3.9-1.2,5.8
	c-0.2,1.3-0.5,2.5-0.6,3.8c-1.2,4-2.1,8.1-3.3,12.1c-1.2,3.8-2.1,7.7-2.9,11.6c-2.3,8.5-3.8,17.2-6.3,25.7c-0.3,1.3-0.6,2.7-0.8,4
	c-2.9,12.4-5.6,25.3-12.9,36c-2.3,4.3-5.6,7.9-7.5,12.4c-0.9,4.6,2.6,11-2.7,13.8c-3.8,1.7-0.2,5.1,0.5,7.7
	c2.9,6.4,1.3,13.9-3.2,19.1c-4.5,6.4-11.6,10-19,12c1.6-1.7,3.4-3.3,4.9-5.1c3.7-4.9,9-9.1,10.5-15.3c0.4-6.2,0.2-12.5,0.2-18.7
	c-3,6.3-3.5,13.7-5.3,20.5c-2.8,4.3-5.8,8.5-8.5,12.8c-1.7,2.3-3.4,3.4-3.5-0.3c-0.5-3-2-5.7-3.9-8.1c-2.6-4.2-8.3-9.6-13.1-5.2
	c-3.8,3-7.2,6.7-12,7.9c-1.5-0.2-3-0.4-4.5-0.6c4.4-0.8,2.7-5.2,5.5-7.8c3.2-3.1,6.7-5.8,9.1-9.6c-4.6,1.4-6.4,6.7-10.8,8.4
	c-6.7-3,2.3-3.7,2.5-8.1c4.5-3,12.3-7.3,9.4-13.9c4-0.9,5.6,3.5,8.6,5c4.6,0.3,9.1-1.2,13.2-3c-7.8-3.2-16.4-2.4-24.5-3.7
	c-0.6-0.2-1.9-0.4-2.5-0.6c-1.3-1.9-2.8-3.7-4.1-5.6c4.9-0.8,9.7,0.7,14.3,2.4c2,1.2,3.1-4.2,4.4-1.3c1.6,4.1,7.1,0.6,3.9-2.7
	c-5.4-12.7,12.4-14.7,17.5-23.4c5,3.4,11.5-6.3,13.4,1.7c3.6-6.9,6.9-14.4,6-22.4c-5.4-3.7-8.1,6-13.6,4.7c-8.3-0.5-18-0.8-24.1-7.2
	c-6.5,12.5-12.7,27.2-26.4,33.7c-3.9,1.5-4.5,6.4-4.6,10c-0.1,5.1,0.6,10.2,0.3,15.3c-0.1,1.3-0.3,2.6-0.5,3.9c-0.7,2-1,4.1-2,6
	c-0.2,0.5-0.5,1.4-0.7,1.8c-1.4,3.2-3.2,6.1-4.6,9.2c0.3,9.7-1.5,19.2-1.2,28.9c1.7,2.8,4.4,4,7.4,2.6c0.5,4.2,5.1,3.9,8.2,4.5
	c1,4.2,5.6,5.3,8.6,7.7c4.9,2.6,5.1,12.3-1.9,10.7c4.9-6.6-6.7-10.9-8.1-3.4c-2.8-1.4-4.3,1.6-5.9,3.3c3-5.3-4.5-6-3.8-11.1
	c-4.2,3.2-3.8,9.5-7.8,12.8c-1-2.3-0.7-5-0.9-7.4c1.3-2.1,3.6-4.4,2.7-7.1c-6.1-3.4-10.3,3.8-13.8,7.6c-3.7,3.6-5.6,8.6-9.3,12.2
	c-6.9-2.7-15.2,0.5-21.5-4.6c5.4-1,11.4-2.7,14.8-7.3c-8,2.5-16.3,6.9-25,4.8c-8.1-3-13.1-11.8-14-19.9c-2-2.3-5.2-1.9-8-2.3
	c1.6-1.4,6-2.1,4-4.8c-0.5-4-6.4-4-6.3-8c6.7-2.5,12.4,3.3,17.5,6.7c8.2,8.4,20.6,8.9,31,13c6.7,2.8,14.7-3.3,13.4-10.5
	c1.4-3.8,6.8-3.5,8.1-7.3c2.4-6.3,6.1-12,9.6-17.8c-1.6-5.8-8.3-4-12.4-2.5c-5.4-8.1-23.7-3.9-22.4-16.5c-3.8,3.1-7.3-0.1-2.7-3
	c-7.5,1.5-2.7-3.4,1.2-5.2c-3.6,0-7.7,1.5-10.6-1.5c-0.8-4.3-1.5-10.5,3.5-12.4c3.2,0.8,4.2,3.8,4.5,6.6c7.1,0.8,14.6-2.4,20.2-6.7
	c-1.6-5.2,1.1-10.1,4.2-14.1c3,0,5-1.9,6.6-4.3c1.8,2.6,6.2,3.8,7.9,0.3c-2.5-1.3-6.1-0.9-4.9-4.8c-2.4-2.5-11.4,0.2-9.9-5.7
	c4.4-1.3,10.3-2.5,14.1,1c4.2,2.4,8.2-1.4,12.4-1.8c-3.1-2.2-6.8-3.1-9.8-5.4c8,1,11.6-5.9,13.7-12.5c6.6-2.3,0.7-8.6,2.7-13.3
	c0.7-5.2,8.4-5,9-10.4c0-3.4,2.9-7.1,6.6-5.9c1.4-2.1,1.4-5.1,4-6.4c0.7-4.6-4.6-5-7.8-5c5.5-1.5,12.9-1,18-4.8
	c-1.1-1.7-3.4-1.2-5.1-1.9c1.2-3.2,5.1-3.4,7.7-5.1c0-4.7-5.8-3.1-7.7-4.9c2.9-4.3,7.7-7,10.5-11.4c2.9-10,11.3-17.8,12.2-28.5
	c-0.7-4.5-8.6-1.6-7.8-7.1c0.5-5,4.9,0.9,5.9,3.1c6.5-3.2,1.3-8.8-1.5-12.6c-3.6-3.2-4.8-8-8.2-11.3c5.2-2.4,10.6,2.4,15.7-0.2
	c8.2-2.8,16.8-7.9,19.1-16.9c-1.8-6.2-10.5,1.5-12.4-4.7c-2.6-5.1,6.8-4.1,5.5-9.4c0.7-10.8,15.5-8.3,17.9-18
	c1.1-7.1,9.5-9.9,9.8-17.4c-0.4-4.5,5.6-4.2,5-8.8c-6.3,4.9-5.4-3.5-8.9-6.4c-4,2.3-8.2,4.4-11.8,7.4c-0.9-4.3,5.3-7.5,2.4-11.3
	c-2.1-3.5,5.2-6.3,1.5-9.5c-7-4.2-17.5,3.5-23.6-2c13.4-3.7,24.7-11.9,36.6-18.8c5.3,2.4,11.3,0.1,16.7-0.7c0.1-2.6-0.5-6.6-3.5-7.4
	c-4.2,2.6-10.1,1.5-13.4,5.5c-2.3,3.3-6.4,1-9.6,1c2.6-1.3,5.4-2.7,6.7-5.5c2.3-5.1,4.1-10.5,7.6-15c1.9-3.4,7.4-15.5,5.9-5.3
	c3.6-1.6,4.2-6.1,6.9-8.7c2.4-3.1,7.1-5.2,7.2-9.6c0.2-5.4,6.4-7.2,8.9-11.4c1.6-3,7.9-2.3,7.2-6.6c-1.3-3.3,2.9-3,5.1-3.7
	c-0.3,8.6-5.8,16.3-3.8,24.9c-2.9,6-7.4,11.9-5.7,19.1c2.5-1.4,5.3-6.5,8.3-3.9c-1.6,1.6-3.5,2.7-5.3,4c5.2,0.8,9.3-3.3,12.3-6.9
	c-3.1-5.8,1-12.2,1.6-18.3c2-4.1,4-1.3,4.6,1.9c7.4-3.6,6.8-13,11.4-18.8C282.9,427,284.4,417.7,284.1,408.3 M160.3,716.3
	c-10.1,5.3-22.5,14.4-18.1,27.4c9.2-3.3,15.6-12.3,21.3-19.1c3.3-0.5,2.6-3.5-0.4-3.3C165.3,718.3,165.2,714.7,160.3,716.3
	 M34,866.2c3.4,2.2,8,2.1,12,1.5C42.6,865.2,38,865.5,34,866.2z"/>
<path class="st10" d="M158.4,427.1c4.1,0.5,3.4,5.6,1.9,8.3c-3.6,7.6-4.5,16.7-10.3,23.1c-0.4-1.1-0.8-2.3-1.2-3.4
	C152.6,446.5,158.4,437.4,158.4,427.1z"/>
<path class="st11" d="M185.1,437.1c1.7-2.1,6.7-5,6.9-0.3c-2.8,4.1-8.3,5.2-11,9.2c1,3.6,8,0.8,7.6,5.1
	c-9.7,6.3-20.5,16.3-32.7,10.6c-2.3-2.1-2.5-5.8,0.5-7.3c5.3-5.9,14.8-3.6,19.8-9.9C176.8,439.8,182.7,440.5,185.1,437.1z"/>
<path class="st11" d="M222.4,445.3c5.8-0.3-1.7,7.4-3,10.1c-15.7,10.1-32.8,18.1-50.7,23.3c-2.1,1.2-8.9,3.1-7.9-0.9
	c10-8,22.3-12.7,32.1-20.9C201.8,450.9,212.7,449.4,222.4,445.3z"/>
<path class="st10" d="M188.6,451.1c1.3-0.6,4.1-1.9,3.6,0.8c-9.2,12.9-27,14.5-37.3,26c-2.6,3.9,3.6,4.4,6.2,4.1
	c13.1-1.6,27.3-7.8,40-1.8c4.5-2.1,9.9-4.3,14.4-0.9c-3.4,4.5-5.2,9.9-7.6,15c-0.3-1.4-1-2.5-1.9-3.6c-4.6,6.7-13.5,7.6-21,8.2
	c-5.8,0.3-11.5-3.8-17.1-1.8c9.7,5.4,21.4,10.2,32,4.3c-0.9,7.1-11.5,9.4-17.4,13c-5.4,3.7-12.9,1.5-18,5.5c4.8,6.4,15.9,0.6,20.3,7
	c-1.9,3.1-4.7,5.4-6.5,8.5c-2,2.4,3.7,4,1.5,6.2c-4.2,5-11.1,8.9-11.3,16.2c-0.5,3.6-4.9,4-7.6,5.1c-2.6,4.4,2.1,9.2,4.3,12.9
	c1.9-0.3,2.1-3.7,4.3-3.4c2.5,3.1,1.6,10.9,7.3,9.2c0,1.5,0.3,3.2-0.5,4.6c-8.6,1.7-16.4,6.1-25.1,7.1c-0.9,3.7,2.9,7.2,2.3,11.3
	c4.5-0.5,5.6,6.3,10.5,4.3c3.5,1.1,12.2-1.5,9.3,4.4c-7.4,2.5-24,3.6-21.7-8.3c-10.2-0.7,1.9,11.8-1.5,14.8
	c-2.6-0.8-5.2-5.5-7.8-2.5c0.6,5.5,5.3,9.3,7.1,14.3c-0.7,5.4,3.7,11.9-1.2,16.4c-8.9-7.3,1,7.8-5.2,10.2c-4.8,2.1-3.4,9.4-9.5,9.6
	c-1.6,4.9-5.4,8.4-8.4,12.4c2.2,2,2,5.1-0.1,7.1c-6.9,2.7-14.2,0.8-20.9-1.9c2.1,3.1,5.2,5.2,7.5,8.1c-0.7,2.1-3.7,2.7-5.8,2.1
	c-3.9-1.3-9.1-0.9-10.5,3.7c-1.6-3.8,2.5-6.7,5.9-6.9c-1.7-1.8-3.9-2.8-5.9-4.1c3.2-2.5,2.5-5.5-1.3-6.7c6.7,0.3-3.3-3.7,3.9-3.5
	c5.5-14,0.2-33.1,12.1-44.6c0.7,5.6-3.3,12.1,1.3,16.8c11.2-8,6.1-23,11.2-33.9c-1.2-8.9,6.6-15.2,6.1-24c3.1-8.1-3.2-17.3,2-24.9
	c2.3,4.7,1.7,11.7,6.4,14.7c1.3-4.3-1.5-9.7-0.4-14.7c3.3-4.6,6.3-10.8,5-16.8c2.3-6.8,8-12.8,6.8-20.4c-1.3-3.4,5.9-3.4,3.4-6.5
	c-3.5-1.3-6.6-3.6-5.4-7.8c5.4-1.1,13.4-1.2,16.1-6.6c-7.2-2.5-7.8-13.8-17.6-11.5c-0.1-10.3,4.4-19.8,7.6-29.4
	c0.5-2.5,1.8-4.7,3.6-6.5C168,467.3,178.9,457.4,188.6,451.1z"/>
<path class="st7" d="M185,498.9c7.5-0.5,16.4-1.4,21-8.2c0.9,1,1.6,2.2,1.9,3.6c-1.3,2.8-4.1,4.1-6.7,5.5c3.2,0,7.3,2.3,9.6-1
	c3.4-4,9.2-2.8,13.4-5.5c3,0.8,3.6,4.8,3.5,7.4c-5.4,0.8-11.4,3.1-16.7,0.7c-12,6.8-23.2,15.1-36.6,18.8c6.1,5.5,16.7-2.2,23.6,2
	c3.7,3.2-3.6,5.9-1.5,9.5c2.9,3.8-3.3,6.9-2.4,11.3c3.6-3,7.9-5,11.8-7.4c3.5,2.9,2.7,11.2,8.9,6.4c0.6,4.6-5.3,4.3-5,8.8
	c-0.3,7.5-8.7,10.3-9.8,17.4c-2.4,9.7-17.2,7.2-17.9,18c1.4,5.3-8.1,4.3-5.5,9.4c2,6.2,10.6-1.5,12.4,4.7
	c-2.3,9-10.9,14.1-19.1,16.9c-5.1,2.6-10.5-2.2-15.7,0.2c3.4,3.3,4.6,8.2,8.2,11.3c2.8,3.8,8,9.4,1.5,12.6c-0.9-2.2-5.3-8-5.9-3.1
	c-0.8,5.5,7.1,2.5,7.8,7.1c-1,10.7-9.4,18.5-12.2,28.5c-2.8,4.4-7.6,7.1-10.5,11.4c1.9,1.8,7.7,0.2,7.7,4.9
	c-2.6,1.7-6.5,1.9-7.7,5.1c1.7,0.7,4,0.2,5.1,1.9c-5.1,3.8-12.5,3.3-18,4.8c3.2,0,8.6,0.4,7.8,5c-2.6,1.3-2.6,4.3-4,6.4
	c-3.6-1.2-6.5,2.5-6.6,5.9c-0.6,5.4-8.3,5.2-9,10.4c-1.9,4.7,4,11-2.7,13.3c-2.1,6.6-5.8,13.5-13.7,12.5c3,2.3,6.7,3.3,9.8,5.4
	c-4.2,0.5-8.2,4.2-12.4,1.8c-3.8-3.5-9.7-2.4-14.1-1c-1.5,5.9,7.5,3.2,9.9,5.7c-1.2,4,2.4,3.6,4.9,4.8c-1.7,3.4-6,2.3-7.9-0.3
	c-1.6,2.4-3.6,4.2-6.6,4.3c-3,4-5.8,8.9-4.2,14.1c-5.6,4.4-13,7.5-20.2,6.7c-0.3-2.9-1.3-5.9-4.5-6.6c-5,1.9-4.3,8.2-3.5,12.4
	c2.9,3,7,1.5,10.6,1.5c-3.8,1.8-8.7,6.7-1.2,5.2c-4.7,2.9-1.1,6.1,2.7,3c-1.2,12.5,17,8.3,22.4,16.5c4.1-1.5,10.8-3.3,12.4,2.5
	c-3.4,5.8-7.1,11.4-9.6,17.8c-1.3,3.8-6.8,3.5-8.1,7.3c1.3,7.1-6.7,13.3-13.4,10.5c-10.4-4-22.8-4.5-31-13
	c-5.1-3.5-10.8-9.2-17.5-6.7c2.4-4.9,11.4-1.5,14.7,1.5c2.3,5.1,6.8-0.3,10.5,1.5c4.3,2.3,6.5-2.7,10.8-3.1c-1.8-4.6-7.2-3.1-11-3.4
	c-6.3-0.1-10.8-5.4-13.9-10.3c-2.2-2.8,1.9-5.9,0.1-8.9l-0.3-1.1c0.6-3.7,5.9-4.3,6-8c-0.9-3.7-5.6-4.4-8.7-3.2
	c-1.7-3-3-6.2-3.4-9.6c4.6,1.7,8.4,4.8,12.5,7.5c7.9-1.7,10.4-11.3,10.5-18.4c3.8-5.5,11.1-9.3,17.4-6.2c5-1.1,0.6,4,2.9,6.1
	c7-3.3,0.3-10.2-4.1-12.1c-3.6-0.4-8.5-2.8-8.5-6.8c3.6-5.1,12.2-0.7,15.3-6.6c-0.4-5.1-6.1-6.7-8.5-10.6c7.7-5.4,16.6-0.3,24.9-0.3
	c-4-4.9-9.8-6.9-15-9.8c3.7-1.5,7.7-0.1,11.5-0.7c2.8-2.9,4.9-6.9,2.9-10.8c2.4-4.3,7.2-3.1,10.7-1.1c4.8-1.3,8.3-8,4.2-12
	c3.3-1.8,5.8-4.6,5.7-8.5c-0.1-4.6,7.3-4.2,7-8.9c-0.8-3.5-5-3-7.7-3.3c-0.6-1.5-1.2-3-1.7-4.4c2,0.6,5.1,0,5.8-2.1
	c-2.3-2.9-5.4-5-7.5-8.1c6.7,2.7,14,4.6,20.9,1.9c2.1-2,2.3-5.1,0.1-7.1c2.9-4.1,6.7-7.5,8.4-12.4c6.2-0.1,4.7-7.4,9.5-9.6
	c6.2-2.4-3.7-17.5,5.2-10.2c4.9-4.4,0.5-10.9,1.2-16.4c-1.8-5-6.5-8.8-7.1-14.3c2.6-3,5.2,1.7,7.8,2.5c3.3-2.9-8.7-15.5,1.5-14.8
	c-2.3,11.9,14.4,10.8,21.7,8.3c2.9-5.8-5.9-3.3-9.3-4.4c-4.9,2.1-6-4.8-10.5-4.3c0.6-4.1-3.2-7.6-2.3-11.3
	c8.7-0.9,16.5-5.3,25.1-7.1c0.8-1.4,0.5-3.1,0.5-4.6c-5.7,1.7-4.8-6-7.3-9.2c-2.2-0.3-2.4,3.1-4.3,3.4c-2.2-3.7-6.9-8.5-4.3-12.9
	c2.7-1.1,7.1-1.4,7.6-5.1c0.2-7.3,7.2-11.1,11.3-16.2c2.2-2.3-3.5-3.8-1.5-6.2c1.8-3.1,4.7-5.4,6.5-8.5c-4.3-6.4-15.4-0.6-20.3-7
	c5.1-4,12.6-1.8,18-5.5c6-3.6,16.5-6,17.4-13c-10.6,5.9-22.4,1.1-32-4.3C173.5,495.1,179.3,499.2,185,498.9 M92.6,736.4
	c-0.8,3.3-3.3,6.1-3.5,9.6c0.9-4,7.9-2.9,3.6-7.1C99,739.5,97.8,737.2,92.6,736.4z"/>
<path class="st4" d="M136.2,539.2c3.9-13.7,4.6-28,8.5-41.7c9.7-2.2,10.4,9.1,17.6,11.5c-2.6,5.4-10.6,5.5-16.1,6.6
	c-1.2,4.2,1.9,6.5,5.4,7.8c2.4,3.1-4.7,3.1-3.4,6.5c1.3,7.7-4.5,13.6-6.8,20.4c1.3,6-1.8,12.2-5,16.8c-1.1,5,1.8,10.4,0.4,14.7
	c-4.7-3-4.2-10-6.4-14.7c-5.1,7.6,1.1,16.8-2,24.9c0.4,8.8-7.3,15.1-6.1,24c-5.1,10.8,0,25.9-11.2,33.9c-4.7-4.7-0.7-11.2-1.3-16.8
	c-11.9,11.5-6.6,30.6-12.1,44.6c-7.2-0.2,2.8,3.9-3.9,3.5c3.8,1.2,4.6,4.2,1.3,6.7c2,1.3,4.3,2.3,5.9,4.1c-3.4,0.1-7.5,3.1-5.9,6.9
	c1.4-4.6,6.6-5,10.5-3.7c0.5,1.5,1.1,3,1.7,4.4c-0.3,4.7-2.2,9.3-2.5,14c-0.9,5.1-8.1,3.7-7.7-1.2c-5.8-2.5-8,4.5-13.5,5.5
	c-0.4-3.5,4-3.6,6.4-4.6c-2.2-0.8-2.5-3.1-3.3-5c-4.4,0.3-8.3,3.1-12.8,1.5c-2.3-0.7-1.7,1.2-1.4,2.7c-4.1,2.5-4.8,8.3,0.7,9.6
	c-0.9,2.3-3.7,1.4-5.5,1.9c0.6,3.3-1.2,6.3-1.9,9.4c4.2-4.9,4.7,4.4,0.8,6c-2.7-0.2-5.3-0.8-8-0.7c2.8,3,7.6,3.3,10.1,6.4
	c1.1,4.8-5.2,2.2-7.2,0.4c-2.6,0.7-4.8,2.8-7.3,3.9c8.5,5.9-3.3,14.8-5.1,21.6c-1,11.8-4.1,23.3-7.6,34.5
	c-6.3,0.6-11.2-6.6-15.5-10.6c2.1-10,13.1-13.2,19.1-20c4.8-18.3,11.6-35.7,19.1-53c2.7-5.3,5.9-10.4,7.4-16.2
	c0.9-1.9,1.6-3.8,2.4-5.7c1.6-3,0.8-7,4.4-8.6c2.4-1.9,3.7-4.6,3.3-7.6c3.9-2.9,4.1-8.4,7.7-11.6c3.3-3.4,7.4-6.8,8.4-11.7
	c1.2-7.2,2.1-14.6,4.8-21.5c2.1-5,4.4-9.9,7-14.6c1.3-1.9,2.4-4,3.4-6.1c1.6-2.9,2.6-6,3-9.2c1.3-5.9,3.8-11.5,5.3-17.3
	c0.5-1.7,1.1-3.3,1.7-5c0.4-0.9,0.7-1.7,1.1-2.6c2.2-4.1,1.4-8.9,2.4-13.3c1.3-6.4,3.9-12.4,7.7-17.7
	C135.7,549,136.9,544,136.2,539.2 M84.3,687.3c-3.9,4.3-2.3,11.9-8.2,14.8c-3.1,1.1,2,4.1,2.6,1.6c3.2-4.9,8.1-8.8,9.6-14.7
	C85.6,691,86.5,686.5,84.3,687.3 M100.3,696.3c-4.4,0.1,2.4,5.1-3.1,4.3c3.1,5.2-5.7,0.4-5.9,4.6c-1.8,5.9,6.8,6.8,10.4,4.7
	C107.5,707.2,108.1,694.6,100.3,696.3z"/>
<path class="st17" d="M84.3,687.3c2.2-0.8,1.3,3.8,4,1.8c-1.5,5.8-6.4,9.8-9.6,14.7c-0.6,2.6-5.7-0.4-2.6-1.6
	C82,699.1,80.4,691.6,84.3,687.3z"/>
<path class="st10" d="M100.3,696.3c7.9-1.7,7.2,11,1.5,13.5c-3.6,2.1-12.1,1.2-10.4-4.7c0.1-4.3,9,0.5,5.9-4.6
	C102.7,701.4,95.9,696.4,100.3,696.3z"/>
<path class="st10" d="M107.5,699.7c2.7,0.4,6.9-0.1,7.7,3.3c0.2,4.7-7.1,4.4-7,8.9c0.1,3.9-2.5,6.7-5.7,8.5c4.1,4,0.6,10.7-4.2,12
	c-3.5-2-8.4-3.2-10.7,1.1c2,3.9-0.1,7.9-2.9,10.8c-3.8,0.6-7.8-0.8-11.5,0.7c5.3,2.9,11.1,4.9,15,9.8c-8.4,0.1-17.2-5.1-24.9,0.3
	c2.4,3.9,8.1,5.4,8.5,10.6c-3.1,5.9-11.7,1.5-15.3,6.6c0,4,4.9,6.4,8.5,6.8c4.4,1.9,11.1,8.8,4.1,12.1c-2.3-2.1,2.1-7.2-2.9-6.1
	c-6.3-3.1-13.7,0.7-17.4,6.2c-0.1,7.1-2.6,16.7-10.5,18.4c-4-2.7-7.8-5.8-12.5-7.5c-0.4-2.4,0-4.9,0.5-7.3c4.3,4,9.2,11.2,15.5,10.6
	c3.5-11.2,6.6-22.6,7.6-34.5c1.8-6.8,13.6-15.8,5.1-21.6c2.5-1.1,4.7-3.2,7.3-3.9c2,1.8,8.3,4.4,7.2-0.4c-2.6-3.1-7.3-3.4-10.1-6.4
	c2.7-0.2,5.3,0.5,8,0.7c3.9-1.5,3.4-10.8-0.8-6c0.8-3.1,2.5-6.1,1.9-9.4c1.9-0.5,4.7,0.3,5.5-1.9c2.6-3.4,5.4-8.4-0.7-9.6
	c-0.2-1.5-0.9-3.4,1.4-2.7c4.5,1.5,8.5-1.3,12.8-1.5c0.8,1.9,1.1,4.2,3.3,5c-2.3,1-6.8,1.2-6.4,4.6c5.5-1,7.7-8,13.5-5.5
	c-0.4,4.9,6.8,6.3,7.7,1.2C105.3,709,107.2,704.5,107.5,699.7 M92.4,716c0.4,5.1-8.6,13.2-12.1,6.2c-2.8,3.3,6.2,5,7.9,2.1
	c0.8-2.3,3-1.2,4.4-0.4C91.1,721.4,93.7,718.6,92.4,716 M83.4,733.5c-2,1.9-2.6,5.1-3.6,7.6c2-0.7,2.2-3.8,4.9-3.4
	C81.1,736.8,86.5,732.2,83.4,733.5z"/>
<path class="st14" d="M73.3,722.3c-5.4-1.2-4.8-7.1-0.7-9.6C78.7,713.9,75.9,718.9,73.3,722.3z"/>
<path class="st13" d="M92.4,716c1.3,2.5-1.4,5.4,0.2,7.9c-1.5-0.8-3.7-2-4.4,0.4c-1.7,2.9-10.6,1.1-7.9-2.1
	C83.9,729.2,92.8,721.2,92.4,716z"/>
<path class="st7" d="M160.3,716.3c4.9-1.6,4.9,2,2.7,5c3-0.2,3.7,2.8,0.4,3.3c-5.6,6.9-12.1,15.9-21.3,19.1
	C137.8,730.7,150.3,721.6,160.3,716.3z"/>
<path class="st13" d="M83.4,733.5c3.1-1.3-2.3,3.3,1.2,4.2c-2.7-0.4-2.8,2.8-4.9,3.4C80.8,738.5,81.4,735.4,83.4,733.5z"/>
<path class="st13" d="M92.6,736.4c5.2,0.8,6.4,3.1,0.2,2.5c4.3,4.2-2.7,3-3.6,7.1C89.3,742.5,91.8,739.7,92.6,736.4z"/>
<path class="st7" d="M114.6,781.6c13.6-6.4,19.9-21.1,26.4-33.7c6.1,6.4,15.8,6.7,24.1,7.2c5.5,1.2,8.2-8.5,13.6-4.7
	c0.9,7.9-2.4,15.5-6,22.4c-1.9-8-8.4,1.7-13.4-1.7c-5.1,8.7-22.9,10.7-17.5,23.4c3.2,3.2-2.2,6.7-3.9,2.7c-1.3-2.8-2.4,2.6-4.4,1.3
	c-4.6-1.7-9.3-3.2-14.3-2.4c1.3,1.9,2.8,3.7,4.1,5.6c-0.5,0.3-1.4,0.8-1.9,1.1c-2.4,1.9-5.3,3.6-6.8,6.4c-1.3-1.5-1.8-3.5-1.8-5.4
	c1,4.3,6.4-1.1,1.6-1.1c-5.9-1.5-0.4-9.2-4.4-10.9C110.1,787.9,110.7,783.1,114.6,781.6z"/>
<path class="st4" d="M110,791.6c4,1.7-1.5,9.4,4.4,10.9c4.8,0-0.6,5.4-1.6,1.1c0.1,1.9,0.5,3.9,1.8,5.4c0.5,0.6,1.5,1.8,1.9,2.5
	c-3.3,1.1-5.2-2.2-6.3-4.7C110.5,801.8,109.8,796.7,110,791.6z"/>
<path class="st5" d="M121.4,802.7c0.5-0.3,1.4-0.8,1.9-1.1c0.6,0.1,1.9,0.4,2.5,0.6c4.1,5.2-2.2,8.8-5.8,11.6
	c-3.9,1.1-10.9,3.7-10.2-3.1c0.2-1.3,0.3-2.6,0.5-3.9c1.1,2.5,3,5.7,6.3,4.7C121,812.2,126.5,805.5,121.4,802.7z"/>
<path class="st10" d="M125.8,802.2c8.1,1.3,16.8,0.5,24.5,3.7c-4.1,1.9-8.6,3.3-13.2,3c-3-1.5-4.6-5.9-8.6-5
	c2.9,6.5-4.9,10.9-9.4,13.9c-0.1,4.5-9.2,5.1-2.5,8.1c-2.8,1.7-5.9,0-7.6-2.4c-0.7-1.7-1.4-3.3-2-5c0.2-0.5,0.5-1.4,0.7-1.8
	c4.4,4,9.2,1.3,12.2-2.9C123.5,811,129.8,807.4,125.8,802.2z"/>
<path class="st1" d="M114.6,809.1c1.5-2.8,4.4-4.4,6.8-6.4c5.1,2.8-0.4,9.5-4.9,8.8C116,810.9,115.1,809.7,114.6,809.1z"/>
<path class="st5" d="M158.3,828.4c1.8-6.8,2.3-14.1,5.3-20.5c0,6.2,0.2,12.5-0.2,18.7c-1.4,6.2-6.8,10.4-10.5,15.3
	c-1-0.5-2.2-0.1-3.2-0.7C152.5,836.8,155.5,832.7,158.3,828.4z"/>
<path class="st12" d="M170.2,815.8c-0.7-2.7-4.3-6-0.5-7.7c0,2.1,0.9,4,2.1,5.8c4.8,8.1,3.4,17.5-3.1,24.3c-0.6-1-1.1-2.1-1.6-3.2
	C171.5,829.7,173.1,822.2,170.2,815.8z"/>
<path class="st4" d="M29,811.9c3.1-1.2,7.8-0.5,8.7,3.2c-0.1,3.7-5.4,4.3-6,8C30,819.6,29.5,815.7,29,811.9z"/>
<path class="st4" d="M107.8,816.7c1-1.9,1.3-4,2-6c-0.7,6.8,6.3,4.2,10.2,3.1C117,818,112.2,820.7,107.8,816.7z"/>
<path class="st11" d="M171.8,813.9c6.6,4.3,17.5,3.2,20.5,11.9c-0.2,3.1-0.6,6.3-1.5,9.3c-6.5,7.2-16.6,8.2-25.6,10.2
	c-3.1,0.1-6.2,0.3-9.3,0.4c3.8-3.2,10-3,12.7-7.6C175.2,831.4,176.6,822,171.8,813.9z"/>
<path class="st9" d="M116.6,826c4.4-1.7,6.2-7,10.8-8.4c-2.4,3.8-5.9,6.5-9.1,9.6c-3,0.2-4.8,2.5-6.4,4.7c-4.6-0.9-5.2-5-2.9-8.3
	C110.7,825.9,113.8,827.7,116.6,826z"/>
<path class="st4" d="M102.5,827.8c1.4-3.1,3.2-6.1,4.6-9.2c0.6,1.7,1.2,3.4,2,5c-2.3,3.3-1.7,7.4,2.9,8.3c1.7-2.2,3.4-4.5,6.4-4.7
	c-2.8,2.6-1.1,7-5.5,7.8c1.5,0.2,3,0.4,4.5,0.6c-2.4,0.7-4.9,0.7-7.3,0.7C106.2,834.7,104,831.3,102.5,827.8z"/>
<path class="st10" d="M27.7,825.8c1.4-0.5,2.9-0.9,4.3-1.5c1.7,3-2.3,6.1-0.1,8.9c3.2,4.9,7.6,10.2,13.9,10.3
	c3.8,0.3,9.3-1.2,11,3.4c-4.3,0.3-6.5,5.4-10.8,3.1c-3.7-1.8-8.2,3.6-10.5-1.5c-3.3-3-12.3-6.4-14.7-1.5c-0.1,4,5.8,4,6.3,8
	c1.9,2.8-2.4,3.4-4,4.8c2.7,0.3,6-0.1,8,2.3c0.8,8.1,5.8,17,14,19.9c8.7,2.1,16.9-2.3,25-4.8c-3.4,4.6-9.4,6.3-14.8,7.3
	c6.3,5.2,14.6,2,21.5,4.6c-4.3,5.5-8.9,10.8-13.9,15.5c-3.2,0.6-4.8,4-7.8,4.7c-3-2.1-5-5.2-7.8-7.5c-0.9-1.2-1.8-2.5-2.8-3.6
	c-4.6-5-9.3-10.5-16.1-12.5c-7.1-2.1-11.5,9.6-18.6,5c2.6-0.6,5.9,0.1,7.6-2.4c-2.1,0.1-4.2,0.4-6.3,0.7c3.3-1.3,6.4-4.5,4.6-8.1
	c2.4-5.4,8.9-4.8,13.8-4.2c-1.1-3.6-7.7-1.1-7-5c3.8,0.4,10.5-0.2,5.8-4.9c3.4-2.2-0.7-4.7-3-5.2c-3.4,0.5-5.5,4.7-9.1,3.8
	c-0.3-3,2.4-5.6,3.1-8.5c0.8-6.5,1.1-13.1,5.3-18.6C33.7,839.5,27.8,831,27.7,825.8z"/>
<path class="st4" d="M24.4,838c-1.9-4.3-4.2-12.7,3.4-12.3C27.8,831,33.7,839.5,24.4,838z"/>
<path class="st14" d="M129.3,827.6c4.9-4.4,10.5,1,13.1,5.2c-1.4,9.6-9.1,14.5-15.4,21c0.8,0.1,2.5,0.4,3.4,0.5
	c-4.5,2.1-9.6-0.6-14.3-0.3c0.2-2.2,4.6-0.8,6.5-1.6c6.2-1.6,5.4-9.4,7.6-13.7C125.1,835.9,130,831.6,129.3,827.6z"/>
<path class="st18" d="M102.5,827.8c1.5,3.6,3.7,6.9,7.5,8.4c1.7,0.9,3.4,1.8,5.2,2.6c-0.6,0.4-1.7,1.2-2.2,1.6
	c-1.1,0.4-2.4,2.3-3.5,0.8c3.7-5.3-3.8,2.5-4.5-3.1c1,4.2,2.5,15.1,3.2,4.9c6.7,1.9,2.2,10.4-3.5,9.2c4.5,2.6,10,2.6,15.1,3.3
	c-3.7,1.6-10.1-0.7-13.6,1.1c7.9,0.9,15.9,3.6,23.9,2c-4.1,8.6-15,3.5-21.3,0.9c-3,1.4-5.8,0.2-7.4-2.6
	C101,847,102.8,837.4,102.5,827.8z"/>
<path class="st17" d="M117.3,835.5c4.8-1.2,8.2-5,12-7.9c0.7,4-4.2,8.3,1,11.1c-2.2,4.3-1.5,12.2-7.6,13.7c-1.9,0.9-6.3-0.6-6.5,1.6
	c4.8-0.3,9.9,2.4,14.3,0.3c1.8-0.1,3.5,0.3,3.6,2.4c0.3,2.2,1.5,3.8,3.7,4.4c0.4,0.5,1.1,1.4,1.4,1.9c-4.7,1.1-9.5,0.8-14.3,0.8
	c-2.7,0-5.3,0.1-8,0c-3.1-0.6-7.7-0.4-8.2-4.5c6.3,2.6,17.1,7.7,21.3-0.9c-8,1.6-16-1-23.9-2c3.6-1.7,9.9,0.5,13.6-1.1
	c-5-0.7-10.6-0.6-15.1-3.3c5.7,1.2,10.1-7.3,3.5-9.2c0.5-0.6,0.9-1.2,1.3-1.8c1,1.5,2.4-0.4,3.5-0.8c-0.3,4.1,6.6-3.4,5.9,1.4
	c-2.9,1.4-2.6,2.4,0.6,2.9c1.1,3.6-4.6,1.6-6.6,1.3c1.2,5.1,11.4,2.7,8.3-2.6c0.6-4.2-2.3-5-5.9-4.5c-1.8-0.8-3.5-1.7-5.2-2.6
	C112.4,836.2,114.9,836.2,117.3,835.5z"/>
<path class="st5" d="M142.4,832.8c1.9,2.3,3.3,5.1,3.9,8.1c-0.5,5.7-6.3,8.2-10.4,11.1c2.3,0.5,8.9-4.1,7.5,0
	c-2.9,2-6.5,2.6-9.3,4.7c-0.1-2.1-1.8-2.5-3.6-2.4c-0.8-0.1-2.5-0.4-3.4-0.5C133.3,847.3,141,842.4,142.4,832.8z"/>
<path class="st9" d="M148.1,847c7.4-2,14.5-5.6,19-12c0.5,1.1,1.1,2.1,1.6,3.2c-2.8,4.6-8.9,4.3-12.7,7.6c3.1-0.1,6.2-0.3,9.3-0.4
	c-5.7,4.7-16.2,3.8-19.1,10.8c0.3-2.4,0.3-5.2-2.9-4.1c1.4-4-5.2,0.6-7.5,0c4.1-2.9,10-5.4,10.4-11.1c0.1,3.7,1.8,2.6,3.5,0.3
	c1,0.6,2.2,0.2,3.2,0.7C151.4,843.7,149.7,845.3,148.1,847z"/>
<path class="st5" d="M198.1,839.5c-3.8-1.7-8.8-2-9.7,3.2c-8,7.7-19.8,7.3-29.9,9.9c-7.6,1.3-11.9,9-19.4,10.5
	c-0.4-0.5-1.1-1.4-1.4-1.9c0.1-4.1,5.9-3.5,8.5-5.1c2.8-7,13.4-6.1,19.1-10.8c8.9-2.1,19.1-3,25.6-10.2"/>
<path class="st11" d="M104.9,838c0.7,5.6,8.2-2.1,4.5,3.1c-0.4,0.6-0.9,1.2-1.3,1.8C107.5,853.1,105.9,842.2,104.9,838z"/>
<path class="st4" d="M188.5,842.7c0.8-5.2,5.9-4.9,9.7-3.2c4.7,2,3.2,7.1,0,9.7c6.2,0.6,1.8,3.8-2.2,3.3c-2.8,9-13.9,5.3-19.4,11.7
	c-6.8,0-13,2.9-19.6,4c-0.7-1.1-3.1-2.5-0.4-2.6c4.8-0.3,8.5-4,13.3-3.8c-6.1-1.4,0.2-5.4,3.2-6.8c2.8-0.6,6.2-0.5,7.2-3.9
	C183.3,849,189.3,847.3,188.5,842.7z"/>
<path class="st11" d="M112.9,840.4c0.6-0.4,1.7-1.2,2.2-1.6c3.7-0.5,6.6,0.3,5.9,4.5c3.1,5.3-7,7.7-8.3,2.6c2,0.3,7.7,2.4,6.6-1.3
	c-3.2-0.5-3.4-1.5-0.6-2.9C119.5,837,112.6,844.5,112.9,840.4z"/>
<path class="st11" d="M188.5,842.7c0.9,4.6-5.2,6.3-8.2,8.4c-9,2.2-18.4,3.5-26.8,7.4c-6.5,4.6-11.9,11.9-20.4,12.7
	c-4.2,1.5-11-2.6-8.2-7.3c4.8,0,9.6,0.2,14.3-0.8c7.5-1.5,11.8-9.2,19.4-10.5C168.6,850,180.5,850.3,188.5,842.7z"/>
<path class="st10" d="M153.4,858.5c8.4-4,17.8-5.3,26.8-7.4c-1,3.4-4.4,3.3-7.2,3.9c-3,1.4-9.3,5.4-3.2,6.8
	c-4.8-0.2-8.5,3.5-13.3,3.8c-2.7,0.1-0.3,1.5,0.4,2.6c-4.4,0.9-9.2,1.3-13.1,3.8c2.4,1.9,5.8,1.6,8.7,1.9c3.8,0.1,7.6,0.7,10.7,3.1
	c-0.4,2,0.4,5.5-2.5,5.8c-9.3,1.9-17.4,7-25.7,11.4c-4.8,2.2-5.5,8-9.2,11.3c2.6-7.5-7.4,2.3-10.1-3.3c3.7-6.1,6-12.9,7.7-19.8
	c7,1.6,6.8-8.1,1.9-10.7c-3-2.4-7.7-3.5-8.6-7.7c2.7,0.1,5.3,0,8,0c-2.8,4.7,4,8.8,8.2,7.3C141.6,870.4,146.9,863.1,153.4,858.5z"/>
<path class="st11" d="M143.4,852c3.2-1.1,3.1,1.7,2.9,4.1c-2.6,1.6-8.4,1-8.5,5.1c-2.1-0.6-3.3-2.3-3.7-4.4
	C136.9,854.5,140.5,854,143.4,852z"/>
<path class="st12" d="M12,868c1.9-3.9,1.6-11,7.1-11.4c-0.7,2.9-3.4,5.5-3.1,8.5c3.6,1,5.7-3.3,9.1-3.8c2.3,0.5,6.4,3.1,3,5.2
	C22.3,864.4,17.6,870.3,12,868z"/>
<path class="st4" d="M12,868c5.6,2.3,10.3-3.6,16.1-1.4c4.7,4.7-2,5.3-5.8,4.9c-0.7,3.9,5.9,1.5,7,5c-4.9-0.6-11.4-1.2-13.8,4.2
	c1.8,3.7-1.3,6.8-4.6,8.1c2.1-0.3,4.2-0.6,6.3-0.7c-1.7,2.5-5,1.8-7.6,2.4c-0.5-0.2-1.6-0.7-2.2-1c0.2-1.8,0.4-3.7,0.4-5.5
	c2.5,2,2-2.3,4.4-2.6c-3.3-3.8,2-8.3-0.6-12.8L12,868z"/>
<path class="st4" d="M34,866.2c4-0.7,8.6-1,12,1.5C42.1,868.3,37.4,868.4,34,866.2z"/>
<path class="st17" d="M86,876.9c3.5-3.8,7.7-11,13.8-7.6c0.9,2.7-1.3,5-2.7,7.1c-2.3,2.1-4.2,4.7-5.7,7.5c-5.4,0.8-0.2-3.8,1.1-6.7
	C90.7,875.2,88.1,875.8,86,876.9z"/>
<path class="st13" d="M8,884.1c1.3-5.1,2.4-10.3,3.7-15.3c2.6,4.5-2.6,8.9,0.6,12.8C10,881.8,10.5,886,8,884.1z"/>
<path class="st7" d="M98,883.8c4-3.3,3.6-9.5,7.8-12.8c-0.8,5.1,6.8,5.8,3.8,11.1c1.6-1.7,3.1-4.7,5.9-3.3
	c-0.4,7.6-4.2,14.4-7.4,21.1c-2.2,3-4.6,5.8-7.3,8.5c-3.4,1.8-7.1,3.3-10.9,3.8c-7.9-0.2-15.6-2.6-23.5-1.4c0.1-0.3,0.4-0.9,0.5-1.2
	c2.9-0.7,5.7-1.9,7.7-4.3c4.6-3.9,8.4-8.7,11.8-13.7c1.9-2.5,3.6-5,5.2-7.8c1.5-2.8,3.3-5.4,5.7-7.5C97.3,878.8,97,881.5,98,883.8
	 M96.4,891.3c-1.5,2.9-7.6,8.4-1.8,7.5c-1.3,1.7-2.8,3.3-3.6,5.3c4.8-1.9,6.7-7.4,9.5-11.3c0.6-1.5,3.6-4.4,0.4-4.7
	C98.9,885.8,97.6,890,96.4,891.3 M89.5,905.2c-1.3,2.1-3.7,2.9-4.9,5C87.2,910.8,93.8,904.7,89.5,905.2z"/>
<path class="st1" d="M86,876.9c2.1-1.1,4.7-1.8,6.5,0.3c-1.3,2.8-6.5,7.4-1.1,6.7c-1.5,2.7-3.3,5.3-5.2,7.8
	c-1.1-2.7-1.8-5.6-2.6-8.4c-5.5,6.3-11,12.8-16.1,19.4c-1.2,4.8,6.9-1.2,7,2.8c-1.9,2.4-4.7,3.7-7.7,4.3c-1.3-1.9,2.1-1.2,2.7-2.6
	c-2.1-1-4.4-1.8-6.7-2.4c5.1-4.8,9.6-10.1,13.9-15.5C80.4,885.5,82.3,880.5,86,876.9z"/>
<path class="st18" d="M115.4,878.8c1.4-7.5,13-3.2,8.1,3.4c-1.7,6.9-3.9,13.7-7.7,19.8c-1.1,1.6-2.3,3.2-3.6,4.7
	c-5.4,0.3-6.7-2-4.3-6.8C111.2,893.2,115.1,886.5,115.4,878.8z"/>
<path class="st7" d="M163.3,876.9l0.3-0.3c3.9,3.6,9.7,6.1,10.8,11.8c1.6,4.9-2.6,9-2.5,13.8c-4.4-0.2,2.4,3.1,0.2,5.2
	c-1.8,1.6-2,4.5-4.5,5.3c-15.6,6.3-32.6,7-49.1,9.2c-17.3,1.3-34.7,0.7-52,3c-16.2,1.2-32.3,3.5-48.7,2c-3.3-2.8-8.9-2.5-9.1-7.9
	c15.6,9.2,34.3,3.2,51.3,3.3c9-1.2,18-1.7,27.1-2.3c18.5-1,37.3,0.5,55.3-4.9c10.3-3.3,23.4-6.8,28.5-17.2
	c-16,10.4-35.8,15.4-54.9,14.9c-3-1-7.9,0.2-9.9-1.5c2.2-1.2,4.4-2.5,5.9-4.6c1.3-1.5,2.4-3.1,3.6-4.7c2.6,5.7,12.7-4.2,10.1,3.3
	c3.8-3.2,4.4-9.1,9.2-11.3c8.3-4.4,16.4-9.5,25.7-11.4C163.7,882.5,163,879,163.3,876.9z"/>
<path class="st18" d="M67.5,902.5c5.1-6.6,10.7-13,16.1-19.4c0.8,2.8,1.5,5.7,2.6,8.4c-3.4,5-7.1,9.8-11.8,13.7
	C74.4,901.3,66.3,907.3,67.5,902.5z"/>
<path class="st18" d="M9.7,890.6c7.1,4.6,11.5-7.1,18.6-5c6.7,2,11.5,7.5,16.1,12.5c-0.5,7.1-10.3,2.8-13.9,7.4
	c-4.3,4.8-10.9,4.1-16.7,4.1c-1.7-0.6-3-1.7-4.4-2.7c0.1-5.8-3.2-11.7-1.8-17.3C8.1,889.9,9.2,890.3,9.7,890.6 M9.1,895
	c-1.5,3.2,4.3,0.5,3.5,3.6c-3.7,1,3.1,3.7,0.3,4.5c-4-0.4-0.1,3,1.8,1.8C14.6,901,14.3,894.9,9.1,895z"/>
<path class="st4" d="M96.4,891.3c1.2-1.3,2.5-5.5,4.6-3.2c-2.1,3.6-3.9,7.4-6.3,10.8C88.8,899.8,94.8,894.2,96.4,891.3z"/>
<path class="st15" d="M101,888.1c3.2,0.3,0.2,3.2-0.4,4.7c-2.8,4-4.8,9.4-9.5,11.3c0.8-2,2.3-3.6,3.6-5.3
	C97.1,895.5,98.9,891.7,101,888.1z"/>
<path class="st7" d="M9.1,895c5.2-0.1,5.5,6,5.7,9.8c-2,1.2-5.9-2.2-1.8-1.8c2.8-0.8-4-3.5-0.3-4.5C13.4,895.5,7.6,898.2,9.1,895z"
	/>
<path class="st1" d="M44.4,898.1c1,1.2,1.9,2.4,2.8,3.6c5,7.8-7.9,2.6-11.5,7c-2.1,3.4-12,0.9-8.6,5.2l-0.8,0.1
	c-4.1-1.5-8.5-2.6-12.5-4.4c5.8,0,12.4,0.7,16.7-4.1C34.1,901,43.8,905.2,44.4,898.1z"/>
<path class="st17" d="M116.3,912.8c19.1,0.5,38.9-4.6,54.9-14.9c-5.2,10.5-18.2,13.9-28.5,17.2c-18.8-0.3-37.8-1.8-56.7,0.4
	c-8.1-0.9-16.6,1.5-24.2-2c-2.1-1-3.4,1.2-4.2,2.7c-0.3,0.2-0.8,0.6-1.1,0.8c1.3-8.1-11.2-5.1-6.3,1.6c-1.7-0.7-3.6-1.6-5.4-0.5
	c1-4-3.2-6.6-6.7-5.4c-2.3,0.3-4.7,0.5-7,0.8c-1.3,0.1-2.6,0.3-3.9,0.4c-3.4-4.3,6.5-1.8,8.6-5.2c3.6-4.4,16.5,0.9,11.5-7
	c2.8,2.3,4.8,5.4,7.8,7.5c3-0.7,4.6-4.1,7.8-4.7c2.3,0.6,4.6,1.3,6.7,2.4c-0.6,1.3-4,0.7-2.7,2.6c-0.1,0.3-0.4,0.9-0.5,1.2
	c7.9-1.2,15.6,1.3,23.5,1.4C98.5,914,107.5,913,116.3,912.8z"/>
<path class="st17" d="M100.8,908.4c2.7-2.6,5.1-5.4,7.3-8.5c-2.4,4.8-1.1,7.1,4.3,6.8c-1.4,2.1-3.7,3.4-5.9,4.6
	C107.8,907,102.4,911,100.8,908.4z"/>
<path class="st12" d="M89.5,905.2c4.4-0.5-2.3,5.6-4.9,5C85.8,908.1,88.2,907.3,89.5,905.2z"/>
<path class="st15" d="M9.3,906.9c1.4,1,2.8,2.2,4.4,2.7c4,1.8,8.3,2.9,12.5,4.4c-0.5,2.4-1.4,6.4,2.3,6.4c-1.3-3.2-2.1-6.2,2.4-5.1
	c-1,3.5-1.8,6.6,2.3,3.3c1.5-0.1,3,0,4.4,0.4c2.4,0.9,5,1,7-0.9c1.8-1.1,3.7-0.2,5.4,0.5c1.6,0.5,3.3,0.4,4.9,0.4
	c5.5,2.8-5.1,0.5-5,2.9c3.4,0.2,6.8,0.2,10.3,0.4c-17-0.2-35.7,5.8-51.3-3.3C5.2,914.9,9.6,911.2,9.3,906.9z"/>
<path class="st5" d="M89.8,912.2c3.9-0.5,7.5-2,10.9-3.8c1.6,2.6,7-1.3,5.6,3c1.9,1.6,6.8,0.4,9.9,1.5
	C107.5,913,98.5,914,89.8,912.2z"/>
<path class="st10" d="M37.9,912.7c3.5-1.2,7.7,1.4,6.7,5.4c-1.9,2-4.6,1.8-7,0.9C37,916.9,37.2,914.7,37.9,912.7z"/>
<path class="st7" d="M50,918.6c-4.9-6.8,7.6-9.8,6.3-1.6c-0.3,0.5-1.1,1.5-1.4,2.1C53.3,919,51.6,919.1,50,918.6 M51,914
	c-0.1,1.6-0.7,4.7,1.9,4.1C56.7,918,54,911.7,51,914z"/>
<path class="st1" d="M30.9,913.5c2.3-0.3,4.7-0.5,7-0.8c-0.8,2-0.9,4.2-0.3,6.3c-1.5-0.4-3-0.5-4.4-0.4
	C32.8,916.7,32.4,914.8,30.9,913.5z"/>
<path class="st1" d="M57.5,916.2c0.8-1.5,2.1-3.7,4.2-2.7c7.6,3.5,16.2,1.1,24.2,2c18.9-2.2,37.9-0.6,56.7-0.4
	c-18,5.4-36.8,3.9-55.3,4.9c-5.2-3.5-12.1-0.1-17.8-2.5C65.7,915.7,61.5,916.8,57.5,916.2z"/>
<path class="st7" d="M26.2,914l0.8-0.1c1.3-0.2,2.6-0.3,3.9-0.4c1.5,1.3,1.9,3.2,2.3,5.1c-4.1,3.3-3.4,0.2-2.3-3.3
	c-4.5-1.1-3.7,1.9-2.4,5.1C24.8,920.5,25.8,916.4,26.2,914z"/>
<path class="st17" d="M51,914c3-2.3,5.7,4,1.9,4.1C50.3,918.7,50.9,915.6,51,914z"/>
<path class="st18" d="M56.4,917c0.3-0.2,0.8-0.6,1.1-0.8c4,0.6,8.2-0.5,12.1,1.3c5.7,2.4,12.5-1,17.8,2.5
	c-9.1,0.5-18.1,1.1-27.1,2.3c-3.4-0.2-6.9-0.2-10.3-0.4c-0.2-2.5,10.4-0.1,5-2.9C55.3,918.5,56,917.5,56.4,917z"/>
</svg>
