<?xml version="1.0" encoding="UTF-8" ?>
<!DOCTYPE svg PUBLIC "-//W3C//DTD SVG 1.1//EN" "http://www.w3.org/Graphics/SVG/1.1/DTD/svg11.dtd">
<svg width="650pt" height="650pt" viewBox="0 0 650 650" version="1.1" xmlns="http://www.w3.org/2000/svg">
<path fill="#933579" stroke="#933579" stroke-width="0.09375" opacity="1.00" d=" M 169.06 67.32 C 210.05 44.10 255.64 27.66 302.99 25.03 C 319.69 25.07 336.40 24.77 353.09 25.20 C 420.33 30.91 485.15 60.48 533.87 107.14 C 592.06 163.03 629.48 243.53 625.00 325.00 C 629.38 403.38 594.72 480.93 540.40 536.41 C 490.78 586.99 422.74 619.19 352.07 624.86 C 334.35 625.06 316.62 625.17 298.91 624.80 C 240.22 619.72 183.12 596.76 137.41 559.60 C 177.59 558.57 217.79 560.47 257.97 559.56 C 267.49 559.14 276.74 553.58 280.81 544.88 C 284.04 533.12 274.79 523.40 266.89 516.12 C 253.43 504.28 240.20 492.09 226.30 480.83 C 211.76 477.86 196.53 479.53 181.74 478.03 C 182.42 471.40 185.69 462.52 193.98 463.68 C 218.64 465.38 243.27 467.89 267.93 469.79 C 281.76 470.88 298.83 471.24 308.55 459.54 C 314.70 452.91 319.77 445.25 322.67 436.65 C 324.63 430.62 332.08 431.64 337.04 432.00 C 354.69 433.93 373.18 438.20 390.31 431.30 C 399.40 425.41 405.02 415.81 411.43 407.38 C 422.92 413.93 433.34 422.29 444.48 429.45 C 448.22 432.32 453.92 435.48 453.20 440.97 C 445.91 468.02 430.92 492.40 424.77 519.81 C 420.84 534.03 402.80 528.37 392.01 529.22 C 373.84 527.61 351.52 534.15 337.85 518.71 C 345.52 517.63 353.61 517.22 360.61 513.60 C 377.07 501.48 384.64 480.69 385.93 460.95 C 386.31 447.28 368.52 446.41 359.16 450.21 C 347.97 457.86 352.60 475.31 342.60 483.53 C 324.97 487.69 306.37 481.56 288.56 485.55 C 277.63 488.09 270.27 502.16 277.07 511.94 C 289.21 528.09 307.49 537.61 323.16 549.81 C 328.87 553.33 333.58 558.69 340.02 560.87 C 360.31 562.53 380.75 560.81 401.05 562.53 C 414.12 563.25 427.79 562.52 439.71 556.71 C 449.03 548.05 456.70 536.80 459.14 524.12 C 466.76 493.61 488.03 466.44 486.60 433.95 C 487.90 428.12 484.95 422.99 480.89 419.10 C 466.68 399.59 443.46 390.22 425.43 375.08 C 433.56 359.38 441.89 343.66 450.37 328.13 C 459.06 331.77 465.28 339.63 473.01 344.94 C 478.72 349.89 486.41 354.14 488.32 361.99 C 487.01 374.53 474.66 385.65 480.22 398.82 C 487.33 409.25 507.81 408.02 512.57 395.63 C 519.84 381.57 524.41 365.23 521.38 349.47 C 509.67 327.49 486.98 315.13 468.92 299.06 C 459.12 293.39 443.67 286.07 434.57 296.57 C 428.44 303.46 420.36 308.93 416.68 317.68 C 404.73 343.11 388.58 366.53 379.31 393.19 C 377.94 397.71 374.54 401.89 369.34 401.45 C 351.86 401.26 334.32 395.42 316.90 399.70 C 305.27 400.43 299.27 411.74 292.92 419.93 C 288.46 425.48 288.91 436.62 279.62 436.52 C 258.70 436.41 237.85 433.39 216.96 431.95 C 201.52 430.73 185.05 427.85 170.38 434.43 C 154.55 446.66 144.24 467.18 147.36 487.42 C 145.91 500.85 159.99 508.28 171.16 510.68 C 182.72 511.97 194.41 511.35 206.02 511.88 C 216.20 511.45 222.29 521.02 229.18 526.99 C 190.58 526.51 151.88 526.08 113.23 526.46 C 123.16 488.23 128.80 448.28 146.64 412.62 C 151.54 406.60 160.47 410.69 167.01 410.94 C 194.56 413.16 222.48 421.96 250.04 416.05 C 264.71 409.44 272.07 393.51 279.47 380.42 C 298.47 377.77 319.30 388.12 337.82 378.85 C 358.97 363.94 363.97 337.54 378.51 317.55 C 386.23 307.35 389.61 293.53 386.89 281.06 C 379.42 271.16 368.29 263.47 355.94 261.21 C 335.23 255.54 314.29 250.49 293.87 243.87 C 305.00 225.50 317.90 208.31 332.93 192.93 C 338.65 184.57 351.50 179.31 358.92 187.94 C 349.90 199.59 337.75 213.82 343.35 229.62 C 358.28 250.31 385.79 256.28 409.84 253.71 C 420.20 248.66 428.35 240.26 436.55 232.37 C 445.99 246.71 450.55 264.57 464.14 275.86 C 479.16 289.83 494.42 303.55 509.50 317.47 C 517.97 324.08 530.14 330.58 540.80 325.74 C 550.12 316.32 563.23 307.92 563.29 293.10 C 567.81 279.38 560.77 266.59 553.06 255.73 C 569.62 259.81 568.83 279.53 572.42 292.76 C 575.06 301.76 573.81 314.58 584.19 318.80 C 591.99 319.63 602.83 321.71 607.73 313.74 C 611.38 306.97 608.22 299.10 607.00 292.07 C 602.89 275.46 602.31 257.31 592.10 242.88 C 583.52 230.41 568.73 223.83 554.40 220.55 C 537.29 216.17 520.15 208.90 502.14 211.39 C 491.93 214.91 486.84 227.31 492.00 236.99 C 498.48 248.66 509.49 256.89 518.01 266.99 C 523.76 273.04 532.10 280.88 528.98 290.03 C 518.08 282.51 509.21 272.42 499.19 263.79 C 473.88 245.96 472.64 207.65 443.64 193.58 C 426.60 190.40 415.44 206.38 404.85 216.85 C 398.02 224.27 387.67 219.04 380.09 215.82 C 388.77 204.81 398.76 192.06 396.01 177.03 C 383.62 156.61 358.51 145.58 335.00 150.05 C 317.33 158.40 305.94 175.02 292.76 188.76 C 280.31 201.08 271.74 216.51 261.67 230.68 C 256.98 240.85 251.63 256.29 262.74 264.25 C 270.48 273.06 281.50 276.64 292.32 279.86 C 289.53 285.39 286.95 294.44 278.99 293.02 C 268.90 291.38 258.45 289.67 248.89 286.19 C 241.78 269.43 236.93 251.65 230.29 234.66 C 227.53 229.38 223.06 224.68 217.41 222.55 C 194.36 215.73 171.04 209.72 148.05 202.74 C 157.74 188.09 174.76 173.94 169.66 154.25 C 162.27 144.52 152.21 136.19 140.31 132.66 C 134.47 130.88 135.26 123.77 135.81 119.00 C 137.28 110.21 137.79 101.24 139.91 92.57 C 153.42 97.48 166.35 103.91 179.72 109.22 C 183.19 110.78 187.82 112.16 188.50 116.53 C 192.27 132.55 185.80 149.10 189.71 165.11 C 191.30 175.53 202.47 184.00 212.98 180.88 C 222.14 178.19 228.32 170.28 235.10 164.07 C 235.13 174.37 235.33 186.07 243.10 193.89 C 249.08 201.72 261.20 199.86 267.82 193.84 C 282.60 181.88 292.98 165.62 305.68 151.65 C 314.33 143.15 308.50 124.88 295.04 127.23 C 282.08 124.11 275.89 136.57 268.31 144.19 C 268.66 132.58 264.97 119.70 253.81 114.20 C 241.46 110.29 231.60 120.36 223.41 127.97 C 222.95 115.18 223.23 99.63 211.69 91.31 C 200.69 78.38 183.92 74.06 169.06 67.32 Z" />
<path fill="#000000" stroke="#000000" stroke-width="0.09375" opacity="1.00" d=" M 122.88 58.94 C 138.67 54.24 154.91 60.28 169.06 67.32 C 183.92 74.06 200.69 78.38 211.69 91.31 C 223.23 99.63 222.95 115.18 223.41 127.97 C 231.60 120.36 241.46 110.29 253.81 114.20 C 264.97 119.70 268.66 132.58 268.31 144.19 C 275.89 136.57 282.08 124.11 295.04 127.23 C 308.50 124.88 314.33 143.15 305.68 151.65 C 292.98 165.62 282.60 181.88 267.82 193.84 C 261.20 199.86 249.08 201.72 243.10 193.89 C 235.33 186.07 235.13 174.37 235.10 164.07 C 228.32 170.28 222.14 178.19 212.98 180.88 C 202.47 184.00 191.30 175.53 189.71 165.11 C 185.80 149.10 192.27 132.55 188.50 116.53 C 187.82 112.16 183.19 110.78 179.72 109.22 C 166.35 103.91 153.42 97.48 139.91 92.57 C 137.79 101.24 137.28 110.21 135.81 119.00 C 135.26 123.77 134.47 130.88 140.31 132.66 C 152.21 136.19 162.27 144.52 169.66 154.25 C 174.76 173.94 157.74 188.09 148.05 202.74 C 171.04 209.72 194.36 215.73 217.41 222.55 C 223.06 224.68 227.53 229.38 230.29 234.66 C 236.93 251.65 241.78 269.43 248.89 286.19 C 258.45 289.67 268.90 291.38 278.99 293.02 C 286.95 294.44 289.53 285.39 292.32 279.86 C 281.50 276.64 270.48 273.06 262.74 264.25 C 251.63 256.29 256.98 240.85 261.67 230.68 C 271.74 216.51 280.31 201.08 292.76 188.76 C 305.94 175.02 317.33 158.40 335.00 150.05 C 358.51 145.58 383.62 156.61 396.01 177.03 C 398.76 192.06 388.77 204.81 380.09 215.82 C 387.67 219.04 398.02 224.27 404.85 216.85 C 415.44 206.38 426.60 190.40 443.64 193.58 C 472.64 207.65 473.88 245.96 499.19 263.79 C 509.21 272.42 518.08 282.51 528.98 290.03 C 532.10 280.88 523.76 273.04 518.01 266.99 C 509.49 256.89 498.48 248.66 492.00 236.99 C 486.84 227.31 491.93 214.91 502.14 211.39 C 520.15 208.90 537.29 216.17 554.40 220.55 C 568.73 223.83 583.52 230.41 592.10 242.88 C 602.31 257.31 602.89 275.46 607.00 292.07 C 608.22 299.10 611.38 306.97 607.73 313.74 C 602.83 321.71 591.99 319.63 584.19 318.80 C 573.81 314.58 575.06 301.76 572.42 292.76 C 568.83 279.53 569.62 259.81 553.06 255.73 C 560.77 266.59 567.81 279.38 563.29 293.10 C 563.23 307.92 550.12 316.32 540.80 325.74 C 530.14 330.58 517.97 324.08 509.50 317.47 C 494.42 303.55 479.16 289.83 464.14 275.86 C 450.55 264.57 445.99 246.71 436.55 232.37 C 428.35 240.26 420.20 248.66 409.84 253.71 C 385.79 256.28 358.28 250.31 343.35 229.62 C 337.75 213.82 349.90 199.59 358.92 187.94 C 351.50 179.31 338.65 184.57 332.93 192.93 C 317.90 208.31 305.00 225.50 293.87 243.87 C 314.29 250.49 335.23 255.54 355.94 261.21 C 368.29 263.47 379.42 271.16 386.89 281.06 C 389.61 293.53 386.23 307.35 378.51 317.55 C 363.97 337.54 358.97 363.94 337.82 378.85 C 319.30 388.12 298.47 377.77 279.47 380.42 C 272.07 393.51 264.71 409.44 250.04 416.05 C 222.48 421.96 194.56 413.16 167.01 410.94 C 160.47 410.69 151.54 406.60 146.64 412.62 C 128.80 448.28 123.16 488.23 113.23 526.46 C 151.88 526.08 190.58 526.51 229.18 526.99 C 222.29 521.02 216.20 511.45 206.02 511.88 C 194.41 511.35 182.72 511.97 171.16 510.68 C 159.99 508.28 145.91 500.85 147.36 487.42 C 144.24 467.18 154.55 446.66 170.38 434.43 C 185.05 427.85 201.52 430.73 216.96 431.95 C 237.85 433.39 258.70 436.41 279.62 436.52 C 288.91 436.62 288.46 425.48 292.92 419.93 C 299.27 411.74 305.27 400.43 316.90 399.70 C 334.32 395.42 351.86 401.26 369.34 401.45 C 374.54 401.89 377.94 397.71 379.31 393.19 C 388.58 366.53 404.73 343.11 416.68 317.68 C 420.36 308.93 428.44 303.46 434.57 296.57 C 443.67 286.07 459.12 293.39 468.92 299.06 C 486.98 315.13 509.67 327.49 521.38 349.47 C 524.41 365.23 519.84 381.57 512.57 395.63 C 507.81 408.02 487.33 409.25 480.22 398.82 C 474.66 385.65 487.01 374.53 488.32 361.99 C 486.41 354.14 478.72 349.89 473.01 344.94 C 465.28 339.63 459.06 331.77 450.37 328.13 C 441.89 343.66 433.56 359.38 425.43 375.08 C 443.46 390.22 466.68 399.59 480.89 419.10 C 484.95 422.99 487.90 428.12 486.60 433.95 C 488.03 466.44 466.76 493.61 459.14 524.12 C 456.70 536.80 449.03 548.05 439.71 556.71 C 427.79 562.52 414.12 563.25 401.05 562.53 C 380.75 560.81 360.31 562.53 340.02 560.87 C 333.58 558.69 328.87 553.33 323.16 549.81 C 307.49 537.61 289.21 528.09 277.07 511.94 C 270.27 502.16 277.63 488.09 288.56 485.55 C 306.37 481.56 324.97 487.69 342.60 483.53 C 352.60 475.31 347.97 457.86 359.16 450.21 C 368.52 446.41 386.31 447.28 385.93 460.95 C 384.64 480.69 377.07 501.48 360.61 513.60 C 353.61 517.22 345.52 517.63 337.85 518.71 C 351.52 534.15 373.84 527.61 392.01 529.22 C 402.80 528.37 420.84 534.03 424.77 519.81 C 430.92 492.40 445.91 468.02 453.20 440.97 C 453.92 435.48 448.22 432.32 444.48 429.45 C 433.34 422.29 422.92 413.93 411.43 407.38 C 405.02 415.81 399.40 425.41 390.31 431.30 C 373.18 438.20 354.69 433.93 337.04 432.00 C 332.08 431.64 324.63 430.62 322.67 436.65 C 319.77 445.25 314.70 452.91 308.55 459.54 C 298.83 471.24 281.76 470.88 267.93 469.79 C 243.27 467.89 218.64 465.38 193.98 463.68 C 185.69 462.52 182.42 471.40 181.74 478.03 C 196.53 479.53 211.76 477.86 226.30 480.83 C 240.20 492.09 253.43 504.28 266.89 516.12 C 274.79 523.40 284.04 533.12 280.81 544.88 C 276.74 553.58 267.49 559.14 257.97 559.56 C 217.79 560.47 177.59 558.57 137.41 559.60 C 122.61 559.52 107.81 559.91 93.00 559.85 C 82.46 561.48 72.21 550.40 74.62 539.99 C 76.73 527.63 80.77 515.66 83.34 503.38 C 94.48 465.62 97.68 423.83 121.05 391.00 C 130.27 375.60 150.05 373.88 166.07 376.78 C 186.40 379.73 206.79 382.21 227.19 384.59 C 231.74 384.71 238.15 385.55 240.64 380.68 C 247.41 364.77 259.43 345.36 279.01 346.01 C 293.82 342.31 309.14 352.93 323.33 347.36 C 332.36 329.92 340.98 312.16 351.71 295.62 C 343.40 293.52 335.19 290.27 326.65 289.48 C 321.57 298.48 316.58 307.71 308.25 314.26 C 293.73 334.58 265.76 324.39 245.35 321.41 C 239.96 328.63 238.67 338.41 231.58 344.55 C 224.86 350.44 219.89 360.35 210.03 361.00 C 191.00 363.80 170.91 360.64 153.12 353.89 C 136.30 337.48 129.49 313.48 119.21 292.90 C 89.62 284.79 59.60 277.86 29.89 270.01 C 20.22 266.67 10.00 265.67 0.00 263.80 L 0.00 232.63 C 12.49 234.89 25.09 236.50 37.52 239.05 C 67.00 246.70 97.06 251.83 126.61 259.25 C 135.67 260.12 144.54 264.70 148.98 272.89 C 156.00 289.70 161.81 307.12 169.27 323.71 C 179.92 326.05 191.61 330.07 202.53 327.53 C 208.30 321.71 209.64 312.87 214.15 306.08 C 219.67 297.87 211.85 289.05 209.93 280.89 C 204.60 287.55 202.42 297.06 194.54 301.43 C 188.45 302.97 181.69 303.04 175.62 301.36 C 167.62 297.90 166.93 287.36 170.46 280.43 C 175.87 270.37 182.08 260.73 187.48 250.67 C 163.46 238.46 126.89 241.82 110.11 215.80 C 105.24 195.95 122.68 181.78 132.77 167.21 C 122.33 162.38 113.03 155.17 105.43 146.59 C 102.43 138.83 101.83 130.17 101.72 121.89 C 105.71 100.49 101.97 72.46 122.88 58.94 Z" />
<path fill="#933579" stroke="#933579" stroke-width="0.09375" opacity="1.00" d=" M 99.09 127.09 C 100.29 125.54 101.10 123.74 101.72 121.89 C 101.83 130.17 102.43 138.83 105.43 146.59 C 113.03 155.17 122.33 162.38 132.77 167.21 C 122.68 181.78 105.24 195.95 110.11 215.80 C 126.89 241.82 163.46 238.46 187.48 250.67 C 182.08 260.73 175.87 270.37 170.46 280.43 C 166.93 287.36 167.62 297.90 175.62 301.36 C 181.69 303.04 188.45 302.97 194.54 301.43 C 202.42 297.06 204.60 287.55 209.93 280.89 C 211.85 289.05 219.67 297.87 214.15 306.08 C 209.64 312.87 208.30 321.71 202.53 327.53 C 191.61 330.07 179.92 326.05 169.27 323.71 C 161.81 307.12 156.00 289.70 148.98 272.89 C 144.54 264.70 135.67 260.12 126.61 259.25 C 97.06 251.83 67.00 246.70 37.52 239.05 C 49.53 197.84 70.88 159.41 99.09 127.09 Z" />
<path fill="#933579" stroke="#933579" stroke-width="0.09375" opacity="1.00" d=" M 29.89 270.01 C 59.60 277.86 89.62 284.79 119.21 292.90 C 129.49 313.48 136.30 337.48 153.12 353.89 C 170.91 360.64 191.00 363.80 210.03 361.00 C 219.89 360.35 224.86 350.44 231.58 344.55 C 238.67 338.41 239.96 328.63 245.35 321.41 C 265.76 324.39 293.73 334.58 308.25 314.26 C 316.58 307.71 321.57 298.48 326.65 289.48 C 335.19 290.27 343.40 293.52 351.71 295.62 C 340.98 312.16 332.36 329.92 323.33 347.36 C 309.14 352.93 293.82 342.31 279.01 346.01 C 259.43 345.36 247.41 364.77 240.64 380.68 C 238.15 385.55 231.74 384.71 227.19 384.59 C 206.79 382.21 186.40 379.73 166.07 376.78 C 150.05 373.88 130.27 375.60 121.05 391.00 C 97.68 423.83 94.48 465.62 83.34 503.38 C 34.40 437.29 14.72 350.81 29.89 270.01 Z" />
</svg>
